<?xml version="1.0" encoding="utf-8"?>
<!-- Generator: Adobe Illustrator 15.0.0, SVG Export Plug-In . SVG Version: 6.00 Build 0)  -->
<!DOCTYPE svg PUBLIC "-//W3C//DTD SVG 1.1//EN" "http://www.w3.org/Graphics/SVG/1.1/DTD/svg11.dtd">
<svg version="1.1" id="Layer_1" xmlns="http://www.w3.org/2000/svg" xmlns:xlink="http://www.w3.org/1999/xlink" x="0px" y="0px"
	 width="1032px" height="512px" viewBox="0 0 1032 512" enable-background="new 0 0 1032 512" xml:space="preserve">
<g>
	<g>
		<path fill-rule="evenodd" clip-rule="evenodd" fill="#1C1C1C" d="M92.6,289c0.1-2-2.6-4.1-6.1-4.8c-3.5-0.8-6.5,0.2-6.5,2.1
			c-0.2,2,2.6,4.1,6.1,5C89.6,292.1,92.5,291,92.6,289z"/>
		<path fill-rule="evenodd" clip-rule="evenodd" fill="#D92425" d="M41.3,246.3c2.8-2.3,5.8-4.9,9.2-7.4c0-0.1,0-0.2-0.1-0.3
			c-1.3-6.9,11.4-12.2,13.7-10.7c-4.2,1.1-7.8,4.4-8.8,7.6c8.9-5.8,20.7-11.4,38.8-14.6c8.7-1.6,19.4-2.2,32.3-2.7
			c17.8-0.7,41-3,68.4,3.4c20.4,4.8,47.1,11.2,72.4,14.3c16.2,2,32.9,2.8,49,0c2.5-0.4,11.4-1.6,20.5-4.5c7.9-2.5,15.9-6.7,19.9-9.4
			c21.7-14.9,27.5-35.5,31.7-67.2c0.6-4.2,0.8-9.7-1.1-15.7c-4.6-14.1,2.1-13.7,7.7-8.4c2.1,2,5.2,6.3,7,11.6c3.5,10.8,0,20,2,24
			c-3.1-3.3-3.2-9.1-3.9-15.7c-0.6-5.6-3.2-10.8-4-11.8c-0.7-1-4.2-6.4-4.7-3.3c-0.2,1.6,0.4,6.5,1.1,12.5c0.1,3.3-0.6,8.1-2.1,11.5
			c-1.6,3.8-1.3,8.4-1.2,12.4c0.1,4.5-1,8-2.4,12.2c-0.8,2.4-1.7,4.7-2.6,7c-2.8,6.9-7,12.8-11.3,18.9c-4.9,6.9-11.2,13.8-18.9,17.6
			c3.2,1.8,2.9,7.1-1.3,11.5c-6,6.2-10-4.4-17.4-1c-7.4,3.4,2.6,4.8-4.8,9.5c-7.3,4.7-7.5,2.1-18-0.7c-10.6-2.8-13.9,2.3-21,6.5
			c-7.1,4.2-4.1,8.3-15.9,10.4c-11.8,2-7.2-14.3-8.5-17.6c-1.2-3.2-4.4-7.2-8.9-7.6c-15.4-0.2-32.6,2.4-46-0.7
			c-21.9-5-35.6-8.9-50.2-10.8c7.4,4.2,13.2,10.1-0.4,10.5c-17.3,0.5-38-2.1-32.1,4.3c5.8,6.3,15.6,3,11.1,11.1
			c-4.4,8.1-18.3,1.6-16,9.8c2.3,8.3,6.9,16.9-8.3,11c-7.6-3.9-9.9-2-16.2-0.4c-6.2,1.6-14.3,7.7-20.8,1.7
			c-6.4-6.1-17.9-2.3-19.2-11.1c-1.4-8.8,11.4-4.2,10.7-10.9c-0.7-6.7-8.1-13.6,4.2-13.2c12.3,0.4,15.8,8.8,18.5-1.8
			c1.3-4.9,3.1-8.5,4.8-10.9c-0.8,0.1-1.5,0.2-2.2,0.3c-8.3,1.2-16.5,0.5-22.4,3.7c-5.5,2.9-12.8,6.4-19.8,10.3
			c-0.3,0.3-0.7,0.5-1.1,0.6c-2.2,1.3-4.5,2.6-6.5,3.9c-5.8,6.4-6,14.1-6.1,21.8C36,256.3,39.1,249.2,41.3,246.3z"/>
		<path fill-rule="evenodd" clip-rule="evenodd" fill="#2B2B2B" d="M217.3,272.7c-5-2.2-5.8,3.9-9.9,6.4c-4.1,2.5-8.1,7.3-10,10.4
			c-1.9,3-7.2,5.6-10.3-0.6c-3.1-6.2-1-7.8-6.2-9.2c-5.3-1.4-10.8,6.7-16.1-0.9c-5.4-7.7,3.6-8.3-0.7-11.2c-4.4-3-15.7-7.1-13.2-8.2
			c2.4-1,7.1-5.3,5-8.4c-2-3.2,0.6-9.2,7.9-8.6c7.3,0.7,13.6,4.6,18.8,1.3c5.2-3.3,16.5,0.2,21.4,1.8c5,1.6,10.1-1.8,19,1.9
			c8.8,3.8,18,9.6,14.7,12.3c-3.4,2.7-15.3,0.9-15.4,5.7C222.2,270.4,221.7,274.6,217.3,272.7z"/>
		<path fill-rule="evenodd" clip-rule="evenodd" fill="#2B2B2B" d="M315.5,261.8c9.4-0.7,9.5,11.2,19,6c1.6-0.9,14.2-8.1,18.9-11.6
			c6.1-4.5,12.3-9.4,16.3-15.9c1.2-2,2.2-4.1,3.3-6.2c2.2-4.2,4.9-8.1,7.7-11.8c3.8-4.9,7.8-9.7,11.1-15.1c3.3-5.4,7-11.1,9.1-17
			c0.7-1.9,0.4-2.7-1.1-0.9c-4.2,4.7-7.6,10.7-10.8,16.1c-2.5,4.2-5,8.8-8.4,12.2c-2.5,2.6-5.3,4.9-8,7.3c-2.4,2.2-5.6,4.2-7.7,6.7
			c-6.3,7.6-12.9,15.1-19.6,22.5c-8.6,8.9-20.6,0.9-29.9,1.7c-15.3,1.4-27.8,13.9-42.7,16.1c-2.3,0.3-4.4-0.6-6.5-1.9
			c-2-1.3-3.8-2.9-5.7-3.9c-4.2-2.3-9.3-4.4-14.1-3.4c-1.2,0.2-2.4,0.7-3.6,1.4c-2.9,1.7-5.3,4-7.7,6.2c-3.8,3.4-7.6,6.8-11.5,10.2
			c0,0-16,5.9-10.3,9.7c5.7,3.8,19.3-1,24.9-7.5c5.6-6.5,7.1-8,12.1-6c5,1.9,19.1,2.6,24.3,6.4c5.2,3.8,20.3-7,21.5-11.1
			C297.3,267.8,310.5,262.6,315.5,261.8z"/>
		<path fill-rule="evenodd" clip-rule="evenodd" fill="#2B2B2B" d="M122.9,323.9c8.7,15,11.3,33,21.4,46.8
			c11.1,14.8,29,23.7,42.8,22c3.9-0.5,11-3.9,11.5-10c1-14.5-6.9-31.6-20.6-34.3c-9.2-1.5,1.2,4.3,4.2,8.8
			c3.2,4.9-0.8,10.2,2.1,14.8c2.1,3.4,7,9.2-4.1,10c-5.2,0.4-11-1.4-16.6-4.1c-9.7-4.7-13.8-5.3-19.5-15.3
			c-4.6-9.5-9.2-18.9-13.7-28.3C128,330.8,125.5,327.4,122.9,323.9z"/>
		<path fill-rule="evenodd" clip-rule="evenodd" fill="#D92425" d="M150.1,213.7c6.6-0.9,13.4-1.7,19.6-4.2c2.9-1.2,5-4.2,8-5.7
			c3.9-2.1,8.8-2.7,12-5c3.8-2.8,5.3-6,9.9-7.5c4.8-1.5,12.2-3.3,15.4,2.5c1.7,3.1,2.2,5.4,0.3,8.8c-1.4,2.6-3.5,5.9-5.4,7.9
			c-4.6,4.6-9.7,1.4-11.8,6.6c-2.6,6.6,14.3,0.1,15.8-0.9c5.6-3.5,11.8-9.2,11.1-16.5c-0.8-8.8-10.3-14.2-18.4-14.3
			c-10.5,0-18.9,7.6-26.8,13.4C170.7,205.5,160.9,210,150.1,213.7z"/>
		<path fill-rule="evenodd" clip-rule="evenodd" fill="#231F20" d="M42.9,277.9c0-0.8-0.1-1.6-0.4-2.5c-0.3-0.9-3.7-6.6-2.6-7.2
			c1.2,2.7,3.4,5.1,5.3,7.3c2,2.4,3.7,5.2,6.2,7.2c3.7,2.9,8.6,3.9,12.5,6.6c4.8,3.4,7,7.2,14.3,10.9c2.5,1.3,14,2.6,16.9,3.9
			c3.6,1.7,7.5,7.8,16.6,8.3c3.2,0.2,10.6,1.3,15.6-4.5c0.7-3.7,0.2-8.1-2.1-13c3,6.4,8,12.4,3.4,19.6c-3.9,6.2-11.7,7.3-18.2,5.4
			c-7.1-2-13.6-6.3-20.4-9.3c-7.4-3.3-14.9-6.4-21.9-10.7c-8.4-5.2-15.8-10.3-22.1-18c-3.3,3.5,1.8,8.8,4,11.2
			c-3.6-1.2-6.5-5.8-7.5-9.3C42.2,281.8,42.9,279.9,42.9,277.9z"/>
		<path fill-rule="evenodd" clip-rule="evenodd" fill="#2B2B2B" d="M171.3,327.2c8.1-0.1,12.4,2.9,20.2,3.6
			c5.4,0.5,14.6-1.5,18.9-1.4c2.8,0.1,5.7,0.2,8.5,0.2c-2-1.9-2.5-4.8,1.5-7.6c6.6-4.7,7.2,2.6,13.5-4.3c6.2-7,4.7-7.3,1.6-8.3
			c-3.1-1-4.9-0.3-3.4-6.3c1.5-6,2.5-10.3,8.2-7.5c5.7,2.7,11.4,9.8,15.4,4.8c4-4.9,10.4-5.4,7.1-11.8c11.8,5.5,20.3-0.7,24-1.4
			c4.1-0.7,5.6,6.4-2.9,11.6c-8.5,5.2-8.5,2.7-5.9,7.9c2.6,5.2,4.3,6.9,7.8,3.7c3.5-3.2,2.2-12,10.4-12.7c3.2-0.3,6.3-0.9,8.4,1.9
			c2.3,3,4,6,8.2,3.9c4.8-2.4,4.6-11.9,10.4-12.5c4.6-0.5,9.7,0.2,13.1-3.6c1.1-1.3,1.6-1.4,3-2c1.6-0.7,2.7-2.3,3.8-3.6
			c1.5-1.6,2.9-3.1,4.4-4.7c2.9-3.1,5.8-6.1,8.8-9c6.1-5.9,13.3-8.7,18.1-14.4c9.9-11.9,10.4-20.8,15.2-29.3
			c4.2-7.5,11.6-15,14.4-21.3c10.1-22.7,2.4-27.1,12.3-46.4c4-7.8,10.7-23,13.6-29.4c6.3-13.8,6.9-27.9-6.9-1.6
			c-3.4,5.7-2.4,6.7-4.6,18.2c-2.7,13.7-10.8,16.7-14,28.7c-2.1,7.9-11.9,17.5-18,20c14-14.5,11-26.8,18.9-36.6
			c8.2-10.1,0.6-19.5,8.3-30.7c8.6-12.6,14.4-17.9,25.8-32.4c5.6-7.1,5.5,3,2.4,11.9c-5.6,15.8-12,40.3-14.9,51.8
			c-8.3,33.1-14.5,36.8-20.6,53.1c-6.1,16.4-14.8,32.6-39.1,59.9c-9.2,9.5-19.6,17.7-30,25.7c-3.6,2.7-7.1,5.6-10.6,8.4
			c-3.6,2.8-7.7,4.7-11.7,6.8c-12.1,6.1-24.2,11.6-36.8,16.8c-7,2.9-13,5.1-16.8,5.9c-1.4,0.3-3,0.5-4.6,0.7c-1.4,0.3-2.8,0.7-4.2,1
			c-40.3,9.2-81.2,4.3-110.7-8.4C149.8,329.5,160,327,171.3,327.2z"/>
		<path fill-rule="evenodd" clip-rule="evenodd" fill="#D92425" d="M135.1,291.8c9.3,2.5,13.6,0.3,17.9-4.1c1.8-1.9,0.1-7.8,4.4-7.9
			c7.8-0.2,14.1,7.1,22.6,6.6c7.9-0.5,8,13.6,15.8,13c5.6-0.4,7.9-2.8,13.7-0.3c10.2,4.3,0.6,12.1-5.9,12.7
			c-5.4,0.5-6.6-0.5-8.6,4.5c-1.5,3.8,2.1,5.4,2.6,8.2c-4.9,0.3-10.4,2-14.8-1.4c-7.7-5.9-5.3-12.2-16.9-11.7
			c-8.6,0.3-12.1,9-21.2,9.3c-0.6-2.4-5.1-4.5-4.2-8.7c1.9-8.9-2-6.9-9.1-11.5C127.2,297.7,126.5,288.8,135.1,291.8z"/>
	</g>
	<path fill-rule="evenodd" clip-rule="evenodd" fill="#2B2B2B" d="M298,324.8c17.4,2.4,34.8,9.1,52.5,0.7
		c17.8-8.4-13.7-21.2-20.9-20.5c0.9-0.1,10.2,5.7,11.4,6.7c3.7,3,3.8,4.3-0.5,7.8C329.2,328.3,311.2,323.2,298,324.8z"/>
	<path fill-rule="evenodd" clip-rule="evenodd" fill="#D92425" d="M293.6,237.1c6.7-9,11.4-19.9,23.5-24.2
		c12.1-4.3,3.9,15.7,0.3,18.7c0.9-2.7,1.2-5.5,2.2-8.2c0.8-2.2,0.7-3.5-1.9-3.5C307.1,220.2,301.3,231.1,293.6,237.1z"/>
</g>
<g>
	<path fill="#D92425" d="M77.8,142.2l0.6,2.5l0.7-2.5l36.7-102.2h10.8L83.2,156.7h-9.4L30.4,40.1h10.7L77.8,142.2z"/>
	<path fill="#D92425" d="M140.9,45c0-1.8,0.6-3.3,1.8-4.6c1.2-1.2,2.8-1.9,4.8-1.9c2,0,3.6,0.6,4.8,1.9s1.8,2.8,1.8,4.6
		s-0.6,3.3-1.8,4.5c-1.2,1.2-2.8,1.8-4.8,1.8c-2,0-3.6-0.6-4.8-1.8C141.5,48.3,140.9,46.8,140.9,45z M152.2,156.7h-9.6V70h9.6V156.7
		z"/>
	<path fill="#D92425" d="M211.8,158.3c-7.4,0-14-1.8-20-5.4c-6-3.6-10.6-8.7-13.9-15.2c-3.3-6.5-5-13.8-5-21.8v-3.4
		c0-8.3,1.6-15.8,4.8-22.5c3.2-6.7,7.7-11.9,13.5-15.7c5.8-3.8,12-5.7,18.7-5.7c10.5,0,18.9,3.6,25,10.8c6.2,7.2,9.2,17,9.2,29.4
		v5.4h-61.8v1.8c0,9.8,2.8,18,8.4,24.5c5.6,6.5,12.7,9.8,21.3,9.8c5.1,0,9.6-0.9,13.6-2.8c3.9-1.9,7.5-4.9,10.7-9l6,4.6
		C235.4,153.2,225.2,158.3,211.8,158.3z M210.1,76.6c-7.2,0-13.3,2.6-18.2,7.9c-4.9,5.3-7.9,12.4-9,21.3h52v-1
		c-0.3-8.3-2.6-15.1-7.1-20.3C223.2,79.2,217.3,76.6,210.1,76.6z"/>
	<path fill="#D92425" d="M283.7,136.7l1.4,7.4l1.9-7.8L307.9,70h8.2l20.6,65.7l2.2,9.1l1.8-8.4L358.5,70h9.9l-25.2,86.6h-8.2
		l-22.3-68.7l-1-4.7l-1,4.8l-21.9,68.6h-8.2L255.5,70h9.8L283.7,136.7z"/>
	<path fill="#D92425" d="M491.7,123.9h-52.9l-12,32.8h-10.3l44.1-116.6h9.4L514,156.7h-10.3L491.7,123.9z M441.8,115.6h46.8
		l-23.4-63.5L441.8,115.6z"/>
	<path fill="#D92425" d="M561,150.2c6.7,0,12.3-1.9,16.8-5.6c4.5-3.8,7-8.6,7.3-14.6h9.2c-0.3,5.3-1.9,10.1-5,14.5
		c-3,4.4-7.1,7.8-12.1,10.2s-10.5,3.7-16.2,3.7c-11.4,0-20.4-4-27-11.9c-6.6-7.9-10-18.5-10-31.9v-2.9c0-8.5,1.5-16.1,4.5-22.7
		s7.3-11.6,12.9-15.2c5.6-3.6,12.1-5.4,19.6-5.4c9.5,0,17.3,2.8,23.5,8.5c6.2,5.7,9.5,13.1,9.9,22.3h-9.2
		c-0.4-6.8-2.9-12.3-7.3-16.4c-4.5-4.2-10.1-6.2-16.9-6.2c-8.6,0-15.4,3.1-20.1,9.4c-4.8,6.2-7.2,15-7.2,26.3v2.8
		c0,11.1,2.4,19.7,7.2,25.9C545.5,147.1,552.3,150.2,561,150.2z"/>
	<path fill="#D92425" d="M645.4,150.2c6.7,0,12.3-1.9,16.8-5.6c4.5-3.8,7-8.6,7.3-14.6h9.2c-0.3,5.3-1.9,10.1-5,14.5
		c-3,4.4-7.1,7.8-12.1,10.2s-10.5,3.7-16.2,3.7c-11.4,0-20.4-4-27-11.9c-6.6-7.9-10-18.5-10-31.9v-2.9c0-8.5,1.5-16.1,4.5-22.7
		s7.3-11.6,12.9-15.2c5.6-3.6,12.1-5.4,19.6-5.4c9.5,0,17.3,2.8,23.5,8.5c6.2,5.7,9.5,13.1,9.9,22.3h-9.2
		c-0.4-6.8-2.9-12.3-7.3-16.4c-4.5-4.2-10.1-6.2-16.9-6.2c-8.6,0-15.4,3.1-20.1,9.4c-4.8,6.2-7.2,15-7.2,26.3v2.8
		c0,11.1,2.4,19.7,7.2,25.9C630,147.1,636.7,150.2,645.4,150.2z"/>
	<path fill="#D92425" d="M692.6,112.1c0-8.3,1.6-15.8,4.8-22.5c3.2-6.7,7.8-11.9,13.7-15.6c5.9-3.7,12.6-5.6,20.1-5.6
		c11.5,0,20.9,4,28,12.1S770,99.3,770,112.7v2c0,8.4-1.6,15.9-4.8,22.6c-3.2,6.7-7.8,11.9-13.7,15.5c-5.9,3.6-12.6,5.4-20.1,5.4
		c-11.5,0-20.8-4-28-12.1c-7.2-8.1-10.8-18.8-10.8-32.2V112.1z M702.2,114.7c0,10.4,2.7,18.9,8,25.5s12.4,10,21.1,10
		c8.6,0,15.7-3.3,21-10s8-15.4,8-26.3v-1.8c0-6.6-1.2-12.7-3.7-18.2c-2.5-5.5-5.9-9.8-10.3-12.8c-4.4-3-9.5-4.5-15.2-4.5
		c-8.5,0-15.5,3.4-20.9,10c-5.4,6.7-8.1,15.5-8.1,26.3V114.7z"/>
	<path fill="#D92425" d="M845.5,145.7c-5.8,8.4-15,12.6-27.6,12.6c-9.2,0-16.3-2.7-21.1-8s-7.3-13.3-7.4-23.8V70h9.5v55.2
		c0,16.5,6.7,24.7,20,24.7c13.9,0,22.7-5.7,26.3-17.2V70h9.6v86.6h-9.3L845.5,145.7z"/>
	<path fill="#D92425" d="M889,70l0.3,14.8c3.3-5.3,7.3-9.4,12.2-12.2s10.2-4.2,16.1-4.2c9.3,0,16.2,2.6,20.7,7.8
		c4.5,5.2,6.8,13.1,6.9,23.5v56.9h-9.5V99.7c-0.1-7.7-1.7-13.5-4.9-17.3c-3.2-3.8-8.4-5.7-15.5-5.7c-5.9,0-11.2,1.9-15.7,5.6
		c-4.6,3.7-7.9,8.7-10.1,15v59.3h-9.5V70H889z"/>
	<path fill="#D92425" d="M984.8,47.8V70h17.9v7.8h-17.9v57.8c0,4.8,0.9,8.4,2.6,10.7c1.7,2.4,4.6,3.5,8.7,3.5c1.6,0,4.2-0.3,7.8-0.8
		l0.4,7.8c-2.5,0.9-5.9,1.3-10.3,1.3c-6.6,0-11.3-1.9-14.3-5.7c-3-3.8-4.5-9.4-4.5-16.9V77.9h-15.9V70h15.9V47.8H984.8z"/>
</g>
<g>
	<path fill-rule="evenodd" clip-rule="evenodd" fill="#1C1C1C" d="M552.9,421.1c-3.4-1.7-8.3,1.3-11,6.9c-2.7,5.5-2.2,11.4,1.2,13.1
		s8.3-1.3,11-6.9C556.8,428.7,556.2,422.8,552.9,421.1z"/>
	<path fill-rule="evenodd" clip-rule="evenodd" fill="#2B2B2B" d="M926.8,390.5l-7.6-47.3C901.8,289,848.3,240.6,788.4,248
		l-42.7,11.2c0,0-68.8,24.1-68.8,24.1c3.6-1.3,7.2-3.8,10.5-5.6c5.8-3.1,11.5-6.2,17.3-9.2c2.7-1.4,5.1-2.7,8-3.6
		c9.7-2.9,19.3-5.8,29-8.7c7.6-2.3,15.1-4.6,22.7-6.8c1.5-0.4,2.9-0.9,4.4-1.3c19.4-5.5,36.7-8.7,56.9-4.5c39.6,8.3,71.7,41,87.7,77
		c6.4,14.4,10.8,29.8,12.7,45.5L926.8,390.5z"/>
	<path fill-rule="evenodd" clip-rule="evenodd" fill="#D92425" d="M585.8,391.4c-1.1,1.2-2.5,1.8-5.2,2.2c-4,0.6-10.2,2.5-13.8,0
		c-2.2-1.5-1.3-3.3-2.5-5.1c-2.1-3.3-5.6-2.9-9.4-4c-7.5-2.1-14.7-5.2-20.9-9.8c-13.2-9.9,10.3-20.2,17.6-20.9
		c4.2-0.4,13-1.1,14.9-6.2c2.3-6.3-4-7.7-7.1-10.6c-3.2-3-2-9.2,1.9-11.5c4.7-2.8,15.1-1.6,16.9-8.5c1.6-5.8-6.6-5.7-10.5-6.5
		c-2.1-4.8,0.5-8.3,5.2-8.4c2.5-0.1,5.4,0.9,7.5-1c2.9-2.6,1.6-6.5-2.4-6.6c-0.2-6.7-1.5-13.8,4.6-18.3c2.7-2,6-4.5,9-6.1
		c2.3-1.3,6.3-1.1,7.2-3.9c4.7-1.7,9.7-3.7,14.7-3.9c6.5-0.3,8.2,2.9,11.5,7.7c2.7,3.9,9.1,9.5,6.3,14.9c-2.3,4.4-9.2,4.3-12.9,6.8
		c-5.7,3.9,1.9,4.5,4.8,8.2c2.6,3.4,3.3,12.6-2.7,12.9c-3.4,0.2-6.9-6.3-10.2-3.8c-2.8,2.1-0.6,9.4,1.9,10.8
		c2.2,7.7,12.3,0.1,14.7-3.2c1.7-2.4,3-4.8,4.6-7.3c2.8-4.6,7.8-6.3,9.6-11.7c1.6-4.6,1.4-7.8,7.2-8.6c4-0.6,8,0.8,11.7,2
		c8.3,2.7,8.9-5,16.3-7c-3.8-8.2,12.7-5.4,16.5-4.4c8.3,2.2,5.2,7.6,9.9,11.9c3.6,3.3,13.3,5.5,17.2,2.5c6.3-4.7,2.5-7.5,0.9-12.9
		c-3.9-12.7,13.1-4.4,19.7-4.2c0.5-10.5,8.6-15,18.6-11.1c10.1,3.9,5.8,12.8,7.8,20.6c1.5,5.9,12.1,4,11.3,10.2
		c-0.4,3.3-1.5,5.3-1.4,8.9c0.2,4-0.1,6.8-2.2,10.3c-7.4,12.4-16.6,28.1-31.2,32.8c-5.6,1.8-10.2,1.9-9-5.2c1.2-7,4.7-13.7,6.4-20.6
		c-2.2,0.1-3.1,4.2-5.8,5.2c-2.7,1-6.1-0.2-8.7-1c-2.6-0.8-6.1-3.2-8.8-3.1c-3.4,0.2-3.9,3.9-5.5,7.5c-1.1,2.4-8.5-0.5-9.8-1.3
		c-3.2-2-5.3-5.4-8.7-7.1c-11.2-5.7-9.8,8.8-4.5,14.2c2.5,2.5,4.7,2.7,4.3,6.7c-0.5,4-3.3,4.4-6.5,5.3c-0.6,2.1-0.2,4.6,0.8,6.5
		c0,0,8-0.6,8.9-0.4c2.9,0.8,4.9,2.6,5.3,5.6c0.7,5.4-4.1,15.6-7.7,19.4c-7,7.7-17.2,7.5-26.3,4.4c-8.2-2.7-9.9,3.3-17.1,5.2
		c-4,1-6.7-1.1-9.7-3.5c-4.9-3.9-9.9-8.1-15-11.7c0.9-8.2,5.9-23.2-5-26.5c-4.3-1.3-9.4-0.5-9.7,4.7c-0.2,4.5,4.9,6.4,5.3,9.7
		c0.3,2-2.5,5.2-3.8,6.7c-2.7,3.1-4,1.7-7.2,3.2c-6.8,3.1,1.9,9.5-0.4,14.4c-2.5,5.5-13.4,2.9-17.1,0.3
		C587.2,389.2,586.6,390.5,585.8,391.4z"/>
	<g>
		<path fill-rule="evenodd" clip-rule="evenodd" fill="#2B2B2B" d="M722.4,219.2c-20.5,7-41,14-61.5,21L613,263.9
			C565.6,288,526,315,490.1,355.1c-16.4,18.3-26.1,41.4-37.3,63.3l-0.3-0.1c6.4-17.3,11.1-35.4,19.5-51.9
			c7.8-15.2,20.1-26.5,32.1-38.4c8.7-8.6,17-18.5,26.5-26.3c10.4-8.5,22.9-17.6,34.4-23.9l43.2-23.6l17.9-8.7
			c26.5-10.6,52.4-21.7,81.1-24.8C712.3,220.3,717.4,219.8,722.4,219.2z"/>
	</g>
	<path fill-rule="evenodd" clip-rule="evenodd" fill="#2B2B2B" d="M630.3,439.3c11.2-0.4,18.5-0.6,29.3,4l12,6.6
		c15.3,7.1,30.5,14.2,47.7,12.1c17.2-2.1,31.9-13.3,32.8-31.8c0.4-7.5-2.6-16.4-9.4-20.7c-19.6-12.2-41.4-7-62.9-6.1l0,0.1
		c17.5,1.6,45.4-1.8,59.1,14.1c6.2,7.2,1,17.6-4.4,23.1c-6.2,6.4-16.2,9.9-25,10.4l-7.9,0.1l-15.2-2.4l-12.1-4.2l0,0l-13.3-5.2
		l-11.3-2.4l-10,0.1L630.3,439.3z"/>
	<g>
		<path fill-rule="evenodd" clip-rule="evenodd" fill="#2B2B2B" d="M559.1,272.1l5.4-15.4c2.4-11.8-3-34.6,13-38
			c6.4-1.3,14.5-2.6,21-1.4c7.9,1.4,14.1,7.6,15.7,15.4c2.1,10.5-6.9,15.5-14.4,20.6l0,0.1c6.6-3.3,13.5-5.6,15.9-13.2
			c1.3-4,2.7-8.5,1.5-12.8c-2.1-7.5-9.8-13.2-16.5-16c-11.5-4.9-25.9-0.4-35.6,6.3c-2.2,1.5-2.7,5.7-2.9,8.1l0.5,30.6L559.1,272.1z"
			/>
	</g>
	<path fill-rule="evenodd" clip-rule="evenodd" fill="#2B2B2B" d="M777.8,328.7c9.2,1.8,19.5,3.7,27.3,9.5l16.6,15.4
		c6.2,5.4,15.6,3.2,20.2-3c5.6-7.7,10.6-17.8,3.9-26.7c-3.7-4.9-8.8-5.9-14.3-7.7l0,0.1c11.3,5.8,18.4,14.9,8.6,26.4
		c-11,12.9-27.9-7.5-39-11.1C793.4,329.2,785.8,329,777.8,328.7z"/>
	<g>
		<polygon fill-rule="evenodd" clip-rule="evenodd" fill="#231F20" points="497.1,471.3 497.2,471.3 497.2,471.3 		"/>
		<path fill-rule="evenodd" clip-rule="evenodd" fill="#231F20" d="M599.1,451c5.3-8.4,5.3-22.9-0.3-32.8
			c-1.6-2.8-8.6-14.1-16.9-13.4c12.5,5.2,15.4,21.5,15.3,21.7c1.6,15.7-6.1,19.3-9.3,28.7c-28.4,8.9-55.5,8.1-87.3,8.8
			c-18.8,0.4-34.9-14-47.5-27.1c1.5,1.6,2.5,4.4,3.7,6.3c1.3,2.2,2.7,4.4,4.3,6.5c3,4,6.5,7.5,10.5,10.4c4.4,3.3,10.2,4.7,15.2,6.8
			c2.1,0.9,4,2.2,6.2,3.1c2.2,0.9,4.9,1,6.8,2.5c5.9,4.4,13.1,6.8,20.5,4.6l0-0.4c-3.5-1.6-7.5-1.9-10.9-3.5l-3.1-1.5l32.5,1.4
			c10.6,0.3,42.1-3.6,58.1-14.6l34.3-24.8c-11.2,7.6-21.8,13.3-32.2,17.5C599.1,451.1,599.1,451.1,599.1,451z"/>
	</g>
	<path fill-rule="evenodd" clip-rule="evenodd" fill="#2B2B2B" d="M482.9,417.4c0.1,0.2,0.2,0.4,0.2,0.6c0.8,2.9-3.2,4-3.7,6.6
		c-0.8,3.9,2.9,5.5,6.2,4.6c0.7-1.6,7.3-8.5,8.9-7.1c0.9,0.8-1.1,6.4-1.3,7.4c-0.6,3-1.8,6.5-1.8,9.6c0,6,10.4,2.3,12.4-0.4
		c2.8-3.7,0.4-6.4-1.3-9.8c-1.3-2.7-1.6-2.3,0.7-4.3c1-0.8,4.3-2.1,5.6-1.5c3,1.4,1.8,5.2,5.4,6.2c5.8,1.6,13.8-6.5,4.9-7.9
		c0.8-3.4,5.7-2.4,8.1-3.6c4.4-2.3,3.6-7.7-2.3-7.1c0.4-5.5,6-4.8,8-8.1c2-3.2-14.9-6.4-16.1-9.3c-2.1-5.1,15.8-11.8,13.7-16.8
		c-2.7-6.4-9-4.2-14.1-2.2c-5.8,2.4-7.2,1.9-13.2,0.5c-7.8-1.9-8.1,4.7-13.9,7.7c-2.4,1.2-6,0.8-8,2.6c-3.6,3.3,8.7,5.1,9.3,8.7
		c0.5,2.7-6.2,3-7.8,3.5c-4.3,1.2-3.2,2.6-0.6,5.2c2.3,2.3,0.7,2.5-1.7,3.7c-2.7,1.3-3.2,4.7-1.4,7.3
		C480.1,414.9,482.1,416,482.9,417.4z"/>
	<path fill-rule="evenodd" clip-rule="evenodd" fill="#2B2B2B" d="M675.2,282.5c1-14-2.2-36.7,11.9-45.8c11.4-7.4,26.8-4,39.5-7.1
		c6.1-1.5,6-12.3,9.8-16.5c3.1-3.4,7.8-3.5,12.1-3.6c15.5-0.3,30,5.3,44-3.2c5.7-3.5,11.5-10.5,19.2-7.4
		c13.2,5.3,19.4,20.3,34.3,21.9c11.7,1.2,21.3,1.7,31.5,8.8c26.1,18,39.2,49,48.8,78.1c3,9.1,5.4,18.6,6.6,28.2
		c1.1,8.9-0.1,16.3-1.4,25c-0.5,3.1-1,6.1-1.5,9.2c2.5-15.2,2-31.7-3.1-46.3c-10.4-29.5-24-58.2-45.6-81.3
		c-9.5-10.2-21.8-12.3-34.6-13.6c-5.9-0.6-10.9-1.3-16-4.9c-7.2-5.2-13.1-13.6-21.3-17.3c-1.8-0.8-3.5,0.2-4.9,1.2
		c-8.2,5.6-15.9,11.6-26.4,11.8c-11.2,0.2-23.9-4.3-34.9-1.4c-3.3,0.9-4.6,9.1-6,11.5c-7.1,11.9-26.3,7.2-37.2,7.6
		c-7,0.3-13.5,2.6-17.3,8.8C676.4,256.3,676.9,271.1,675.2,282.5z"/>
	<path fill-rule="evenodd" clip-rule="evenodd" fill="#2B2B2B" d="M538.4,443.9c-2.2-3-3.3-4.7-1-7.8c5.6-7.7,16.6-11.3,25.7-12.9
		c-0.3,1.6-0.2,3.7-0.8,5.2c-0.4,1.1-7.5,9-7.2,9.4l0,0c2.7-1.8,7.3-4.1,9.1-6.9c2.3-3.6,7.6-13.8-1-13.7
		c-11.7,0.1-21,5.3-26.8,15.3C533.6,437.5,534.2,440.4,538.4,443.9z"/>
	<path fill-rule="evenodd" clip-rule="evenodd" fill="#2B2B2B" d="M831,271.8c-6.5,0.3-11.3,1.7-6.7,8.5c-8.1,0-12.3-5-19.5-7.3
		c-4.4-1.4-15,0-18,4.1c-3.2,4.4,3.6,12.1,7.8,13.8c3.9,1.7,7.9-1.5,11.9-0.3c4.5,1.4,8.5,5.8,12.4,8.3c-5.8,0.8-11.5,2.1-17.3,3.7
		c-22.2,6.3-36.8,17.8-52.4,34l-59.8,60.2l65.5-54.8c9.3-8.2,18.5-16.8,29.7-22.1c30.7-14.8,67.6-18.4,96.2,2.6
		c30.8,22.5,40.8,64.1,23.6,98.3c-13.3,26.4-35.5,40.2-59.3,56l0.1,0.2l40.7-23.9c14.3-11.4,26.6-26.5,32.8-43.9
		c14.2-39.6-8.4-84.4-44.9-102.5c-5.6-2.8-11.6-5-17.7-6.4c-2-0.5-6.5-0.4-7.8-2.1c-1.1-1.4-0.5-5.8,1-6.7c2-1.2,5.5,1,7.4,1.6
		c4.6,1.4,11.2,1.6,8.3-5.2c-4.6-10.7-23.5-16.5-33.8-16.1C831.3,271.7,831.1,271.8,831,271.8z"/>
	<g>
		<path fill-rule="evenodd" clip-rule="evenodd" fill="#2B2B2B" d="M900.2,355.1c-2.3,14.8-15,20-28.4,24.4
			c-6.6,1.8-13.1,3.6-19.7,5.4c-3.3,0.9-26.4,5.2-23.3,10.5c2.2,3.7,19.4,0.1,23-0.1c8.9-0.4,17.9,0,26.3,3.2
			c5.5,2.1,12.4,7.5,10.6,14.4c-4.5,17.4-28.7,25.9-41.6,34.5c-14.2,9.6-23,19.8-32.6,33.8l-0.1,0c7.4-15.6,14.8-28.3,28.2-39.7
			l33.8-26.2c8.7-7.9-9.1-9.6-13.8-10c-11.5-1.1-23,2.3-34.4,0.9c-7.3-0.9-11.5-9.5-9.2-16.2c3-8.6,14-11.3,21.7-12.8
			C859.8,373.5,892.9,378.5,900.2,355.1z"/>
	</g>
	<path fill-rule="evenodd" clip-rule="evenodd" fill="#2B2B2B" d="M77.4,289.3c0-2.2,0.1-3.4,2.3-4c5.4-1.6,11.9,0.7,16.7,3.2
		c-0.7,0.7-1.4,1.6-2.3,2.2c-0.6,0.4-6.8,1.5-6.8,1.8l0,0c1.9,0.1,4.9,0.7,6.8,0.1c2.4-0.8,8.6-3.7,4.5-6.8
		c-5.5-4.2-11.7-5.1-18.1-2.5C77.4,284.5,76.7,286.1,77.4,289.3z"/>
</g>
</svg>
