<?xml version="1.0" encoding="utf-8"?>
<!-- Generator: Adobe Illustrator 15.0.0, SVG Export Plug-In . SVG Version: 6.00 Build 0)  -->
<!DOCTYPE svg PUBLIC "-//W3C//DTD SVG 1.1//EN" "http://www.w3.org/Graphics/SVG/1.1/DTD/svg11.dtd">
<svg version="1.1" id="Capa_1" xmlns="http://www.w3.org/2000/svg" xmlns:xlink="http://www.w3.org/1999/xlink" x="0px" y="0px"
	 width="300px" height="286.504px" viewBox="0 0 300 286.504" enable-background="new 0 0 300 286.504" xml:space="preserve">
<g>
	<path fill="#FF9729" d="M293.025,116.168l-7.945-3.735c-4.002-1.881-5.584-6.749-3.453-10.623l4.234-7.694
		c3.67-6.671,0.361-15.035-6.881-17.388L243.38,65.161c-15.153-4.924-31.756,0.471-41.122,13.361
		c9.366-12.891,9.366-30.347,0-43.238L180.256,5.001c-4.475-6.16-13.451-6.723-18.66-1.17l-6.011,6.404
		c-3.024,3.225-8.146,3.224-11.169,0l-6.01-6.404c-5.209-5.553-14.186-4.99-18.661,1.17L97.742,35.284
		c-9.365,12.891-9.365,30.347,0,43.238c-9.365-12.891-25.967-18.286-41.121-13.361L21.02,76.728
		c-7.241,2.353-10.551,10.716-6.88,17.388l4.234,7.694c2.131,3.874,0.55,8.742-3.452,10.623l-7.948,3.735
		c-6.89,3.24-9.129,11.951-4.653,18.11l22.002,30.285c9.366,12.895,25.968,18.285,41.122,13.361
		c-15.154,4.924-25.414,19.045-25.414,34.979v37.438c0,7.612,6.931,13.35,14.41,11.915l8.625-1.646
		c4.343-0.832,8.483,2.18,9.037,6.563l1.098,8.714c0.951,7.556,8.544,12.374,15.785,10.021l35.6-11.566
		C139.74,269.413,150,255.291,150,239.355c0,15.936,10.26,30.058,25.416,34.979l35.602,11.566
		c7.239,2.354,14.834-2.469,15.783-10.021l1.1-8.714c0.555-4.39,4.691-7.396,9.035-6.563l8.627,1.646
		c7.479,1.434,14.41-4.307,14.41-11.915V212.9c0-15.938-10.263-30.06-25.416-34.979c15.154,4.923,31.756-0.472,41.123-13.36
		l22.002-30.286C302.154,128.12,299.917,119.409,293.025,116.168z"/>
</g>
</svg>
