<?xml version="1.0" encoding="utf-8"?>
<!-- Generator: Adobe Illustrator 15.0.0, SVG Export Plug-In . SVG Version: 6.00 Build 0)  -->
<!DOCTYPE svg PUBLIC "-//W3C//DTD SVG 1.1//EN" "http://www.w3.org/Graphics/SVG/1.1/DTD/svg11.dtd">
<svg version="1.1" id="Capa_1" xmlns="http://www.w3.org/2000/svg" xmlns:xlink="http://www.w3.org/1999/xlink" x="0px" y="0px"
	 width="381.945px" height="514.621px" viewBox="0 0 381.945 514.621" enable-background="new 0 0 381.945 514.621"
	 xml:space="preserve">
<g>
	<g>
		<path fill="#D92425" d="M161.592,231.95l-6.005,6.399c-3.028,3.225-8.146,3.227-11.17,0.001l-6.008-6.401
			c-5.213-5.552-14.188-4.99-18.665,1.17l-22.001,30.284c-9.367,12.89-9.365,30.347-0.002,43.238
			c-9.367-12.892-25.969-18.285-41.122-13.36l-35.601,11.564c-7.242,2.354-10.551,10.716-6.879,17.387l4.233,7.694
			c2.133,3.873,0.549,8.744-3.451,10.622l-7.948,3.737c-6.891,3.238-9.13,11.95-4.654,18.108l22.002,30.284
			c9.365,12.891,25.967,18.285,41.122,13.361c-15.154,4.924-25.416,19.045-25.414,34.979l-0.001,37.434
			c0.001,7.613,6.932,13.346,14.412,11.916l8.625-1.648c4.344-0.83,8.482,2.178,9.037,6.564l1.095,8.713
			c0.952,7.555,8.546,12.375,15.785,10.021l35.601-11.566c15.16-4.924,25.415-19.047,25.414-34.98
			c0.001,15.936,10.259,30.055,25.414,34.979l35.605,11.568c7.238,2.354,14.841-2.465,15.783-10.021l1.101-8.711
			c0.552-4.389,4.695-7.396,9.035-6.566l8.626,1.646c7.483,1.432,14.409-4.303,14.407-11.914l0.002-37.434
			c-0.004-15.936-10.265-30.057-25.42-34.98c15.157,4.926,31.758-0.469,41.122-13.363l22.001-30.285
			c4.476-6.156,2.233-14.872-4.653-18.105l-7.947-3.74c-4.004-1.885-5.585-6.745-3.45-10.621l4.23-7.695
			c3.675-6.67,0.357-15.035-6.88-17.388l-35.6-11.565c-15.159-4.927-31.765,0.471-41.122,13.361
			c9.365-12.89,9.365-30.348,0.002-43.238l-22.003-30.284C175.781,226.961,166.805,226.397,161.592,231.95z"/>
	</g>
	<path opacity="0.1" enable-background="new    " d="M161.592,231.95l-6.006,6.399c-3.027,3.225-8.146,3.226-11.17,0.001
		l-6.007-6.401c-5.214-5.552-14.188-4.99-18.666,1.17l-22,30.284c-9.368,12.889-9.365,30.347-0.004,43.237
		c-9.365-12.891-25.967-18.284-41.12-13.359l-35.601,11.564c-7.242,2.354-10.552,10.716-6.879,17.387l4.232,7.694
		c2.134,3.873,0.55,8.744-3.451,10.622l-7.947,3.737c-6.892,3.238-9.13,11.95-4.654,18.108l22.002,30.284
		c9.365,12.891,25.967,18.285,41.121,13.36c-15.153,4.925-25.416,19.046-25.412,34.979l-0.002,37.434
		c0.001,7.613,6.932,13.346,14.413,11.916l8.624-1.648c4.344-0.83,8.483,2.178,9.037,6.564l1.096,8.713
		c0.952,7.555,8.546,12.375,15.784,10.021l35.602-11.566c15.16-4.924,25.415-19.047,25.414-34.98
		c0.001,15.934,10.259,30.055,25.414,34.979l35.605,11.568c7.24,2.354,14.841-2.465,15.785-10.021l1.101-8.711
		c0.552-4.389,4.694-7.395,9.034-6.566l8.627,1.648c7.482,1.432,14.408-4.303,14.409-11.916l0.001-37.432
		c-0.006-15.938-10.266-30.059-25.421-34.982c15.158,4.926,31.759-0.469,41.122-13.361l22.002-30.286
		c4.476-6.156,2.234-14.871-4.653-18.105l-7.947-3.74c-4.002-1.885-5.586-6.746-3.451-10.621l4.23-7.696
		c3.675-6.67,0.357-15.034-6.88-17.387l-35.6-11.566c-15.159-4.926-31.763,0.472-41.122,13.361
		c9.365-12.89,9.365-30.347,0.004-43.237l-22.005-30.284C175.781,226.961,166.805,226.397,161.592,231.95z M171.336,265.93
		l18.213,23.838c4.014,5.258,6.007,11.439,5.958,17.559c-0.046,5.688,7.217-2.284,3.63,2.499c3.975-5.303,0.579,4.69,6.889,3.09
		c5.504-1.396,11.486-1.267,17.244,0.604l29.021,9.43c5.897,1.916,8.691,8.47,5.789,13.615l-3.343,5.941
		c-1.684,2.991-0.344,6.794,2.929,8.312l6.494,3.006c5.63,2.602,7.548,9.413,3.988,14.152L250.66,391.29
		c-7.447,9.924-20.851,13.926-33.206,9.911c12.354,4.015,20.847,15.13,21.041,27.538l0.444,29.141
		c0.092,5.926-5.46,10.307-11.547,9.104l-7.019-1.387c-3.532-0.695-6.858,1.596-7.254,5.004l-0.786,6.771
		c-0.679,5.871-6.786,9.531-12.689,7.611l-29.025-9.43c-12.354-4.014-20.847-15.129-21.035-27.535
		c0.189,12.404-7.965,23.277-20.204,26.93l-28.744,8.58c-5.846,1.746-12.065-2.098-12.929-7.99l-0.994-6.797
		c-0.5-3.422-3.895-5.813-7.408-5.219l-6.978,1.182c-6.053,1.023-11.744-3.521-11.835-9.447l-0.447-29.143
		c-0.191-12.404,7.967-23.275,20.204-26.93c-12.236,3.652-25.77-0.743-33.522-10.891l-18.213-23.84
		c-3.704-4.849-1.993-11.604,3.559-14.042l6.404-2.813c3.224-1.416,4.451-5.188,2.673-8.228l-3.525-6.043
		c-3.06-5.237-0.473-11.707,5.374-13.453l28.747-8.58c5.317-1.587,10.883-1.653,16.108-0.389c2.647,0.642,5.208,1.624,7.608,2.923
		c2.025,1.097-1.486-5.531-0.559-5.603c0.799-0.061,6.227,6.641,5.767,5.224c-2.721-8.411-1.375-17.651,4.081-24.922l17.492-23.314
		c3.558-4.743,24.707-18.465,29-14.082C151.243,251.129,167.634,261.083,171.336,265.93z"/>
	<g>
		<g>
			<path fill="#E94E4E" d="M222.372,51.919c-13.655,1.663-26.068-8.061-27.729-21.717l0,0c-1.66-13.657,8.063-26.074,21.721-27.731
				l17.271-2.1c27.31-3.32,52.14,16.13,55.461,43.437l0,0L222.372,51.919z"/>
			<path fill="#E94E4E" d="M224.468,161.613c-12.709,5.268-18.742,19.833-13.479,32.542l0,0c5.267,12.71,19.834,18.745,32.542,13.48
				l16.076-6.663c25.417-10.527,37.483-39.669,26.954-65.085l0,0L224.468,161.613z"/>
			<path fill="#E94E4E" d="M148.386,260.31c-0.255,30.068,23.909,54.65,53.98,54.905l0,0c3.997,0.035,7.267-3.178,7.3-7.175
				l0.24-28.696c0.257-30.068-23.909-54.649-53.979-54.907l-14.474-0.122c-30.066-0.258-54.65,23.909-54.904,53.979l-0.247,28.695
				c-0.032,3.999,3.181,7.265,7.177,7.301l0,0C123.549,314.545,148.13,290.379,148.386,260.31z"/>
		</g>
		<g>
			<path opacity="0.3" fill="#AD1111" enable-background="new    " d="M148.434,254.906L148.434,254.906
				c10.236,0.085,18.917-7.511,20.191-17.67c0.456-3.631,1.16-7.176,2.092-10.62c-4.698-1.366-9.654-2.135-14.789-2.18
				l-14.473-0.125c-4.604-0.039-9.078,0.501-13.357,1.535l0.336,9.594C128.82,246.233,137.634,254.809,148.434,254.906z"/>
			<path opacity="0.3" fill="#AD1111" enable-background="new    " d="M209.213,182.171c10.532-6.742,23.046-10.591,36.367-10.478
				l41.747,0.354c4.137-11.313,4.212-24.15-0.761-36.158l0,0l-62.098,25.724C215.686,165.25,210.094,173.332,209.213,182.171z"/>
			<path opacity="0.3" fill="#AD1111" enable-background="new    " d="M222.372,51.919l66.725-8.111
				c-1.514-12.444-7.506-23.253-16.155-31.021c-26.476,5.165-51.046,15.779-72.478,30.624
				C205.704,49.509,213.793,52.964,222.372,51.919z"/>
		</g>
		<path fill="#D92425" d="M381.944,91.343c0.333-39.249-31.213-71.336-70.459-71.672l0,0
			c-103.764-0.885-187.303,84.941-183.627,188.634l0.654,18.492c0.384,10.795,9.193,19.371,19.993,19.464l0,0
			c10.241,0.085,18.92-7.509,20.194-17.669l0,0c4.854-38.722,37.942-67.672,76.971-67.34l64.6,0.552
			C349.519,162.137,381.606,130.591,381.944,91.343z"/>
		<path fill="#AD1111" d="M291.476,161.643l18.792,0.162c39.256,0.333,71.336-31.214,71.675-70.462
			c0.331-39.248-31.217-71.337-70.462-71.67l0,0c-6.806-0.06-13.523,0.268-20.141,0.935c-13.134,26.292,9.85,47.453,9.663,69.333
			C300.808,112.516,275.974,133.909,291.476,161.643z"/>
		<path opacity="0.1" enable-background="new    " d="M312.103,52.895L312.103,52.895c32.855,0.28,60.298,22.813,68.177,53.166
			c1.044-4.745,1.624-9.667,1.665-14.719c0.334-39.25-31.214-71.336-70.459-71.672l0,0
			c-103.762-0.884-187.302,84.941-183.627,188.635l0.654,18.492c0.002,0.103,0.013,0.199,0.018,0.297
			C132.668,129.992,213.205,52.051,312.103,52.895z"/>
	</g>
</g>
</svg>
