<?xml version="1.0" encoding="utf-8"?>
<!-- Generator: Adobe Illustrator 15.0.0, SVG Export Plug-In . SVG Version: 6.00 Build 0)  -->
<!DOCTYPE svg PUBLIC "-//W3C//DTD SVG 1.1//EN" "http://www.w3.org/Graphics/SVG/1.1/DTD/svg11.dtd">
<svg version="1.1" id="Layer_1" xmlns="http://www.w3.org/2000/svg" xmlns:xlink="http://www.w3.org/1999/xlink" x="0px" y="0px"
	 width="350px" height="359.489px" viewBox="0 0 350 359.489" enable-background="new 0 0 350 359.489" xml:space="preserve">
<g>
	<path fill="#AE5900" d="M134.517,273.648H117.35c-14.2,0-25.752-11.553-25.752-25.752c0-4.742,3.845-8.584,8.584-8.584
		c4.738,0,8.584,3.842,8.584,8.584c0,4.732,3.851,8.584,8.584,8.584h17.168c4.738,0,8.584,3.842,8.584,8.586
		C143.102,269.806,139.256,273.648,134.517,273.648z"/>
	<path fill="#DE7404" d="M246.108,196.393v34.336c0,23.692-19.229,42.921-42.919,42.921c-4.75,0-8.584,3.834-8.584,8.584v17.168
		c0,4.75-3.833,8.584-8.584,8.584h-51.504c-4.75,0-8.584-3.834-8.584-8.584v-17.168c0-33.135,26.954-60.089,60.088-60.089
		c4.75,0,8.584-3.833,8.584-8.584v-17.168c0-4.75,3.833-8.584,8.584-8.584h34.336C242.275,187.809,246.108,191.643,246.108,196.393z
		"/>
	<path fill="#AE5900" d="M280.445,187.809c-4.739,0-8.585,3.842-8.585,8.584v17.168c0,4.733-3.851,8.584-8.583,8.584h-17.169
		v-25.752c0-4.75-3.833-8.583-8.583-8.584h-34.336c-4.75,0-8.584,3.834-8.584,8.584v17.168c0,4.751-3.834,8.584-8.584,8.584v85.841
		c4.75,0,8.584-3.834,8.584-8.584v-17.168c0-4.75,3.834-8.584,8.584-8.584c20.752,0,38.078-14.754,42.058-34.337h18.03
		c14.199,0,25.752-11.551,25.752-25.752v-17.168C289.029,191.651,285.184,187.809,280.445,187.809z"/>
	<path fill="#8A8A8A" d="M237.525,359.488H134.517c-33.134,0-60.089-26.955-60.089-60.086c0-4.744,3.847-8.586,8.584-8.586h206.018
		c4.738,0,8.584,3.842,8.584,8.586C297.613,332.533,270.659,359.488,237.525,359.488z"/>
	<path fill="#AE5900" d="M237.525,307.984c-4.739,0-8.585-3.842-8.585-8.582v-17.17c0-4.74,3.846-8.582,8.585-8.582
		c4.738,0,8.583,3.842,8.583,8.582v17.17C246.108,304.144,242.264,307.984,237.525,307.984z"/>
	<path fill="#585858" d="M289.029,290.818H186.021v68.67h51.504c33.134,0,60.088-26.955,60.088-60.086
		C297.613,294.658,293.768,290.818,289.029,290.818z"/>
	<g>
		<g>
			<path fill="#AAD12E" d="M311.492,88.319c2.86-17.486-0.601-35.45-9.547-50.715c-1.877-3.202-4-6.29-6.349-9.224
				c-13.633-17.02-33.184-27.09-55.054-28.357c-6.249-0.362-11.89,3.736-13.468,9.796l-13.621,52.189
				c-1.832,7.021,2.372,14.193,9.393,16.024l73.561,21.127C303.568,100.335,310.32,95.477,311.492,88.319z"/>
			<path fill="#AAD12E" d="M272.475,190.589c5.194-4.115,6.449-11.362,3.188-16.926l-63.321-50.333
				c-6.27-3.649-14.311-1.523-17.96,4.748l-25.233,43.375c-2.742,4.719-2.271,10.637,1.156,14.885
				C195.074,216.852,237.088,218.604,272.475,190.589z"/>
			<path fill="#AAD12E" d="M134.058,172.88c2.303,24.471-4.979,48.425-20.5,67.453c-15.609,19.148-37.671,30.959-62.105,33.256
				c-7.222,0.686-13.644-4.623-14.308-11.846c-2.252-23.943,4.766-47.504,19.512-67.121c-23.221-6.362-42.7-21.283-54.852-42.015
				c-3.666-6.256-1.568-14.305,4.691-17.974c43.74-25.635,100.182-10.908,125.817,32.835
				C133.281,169.123,133.88,170.972,134.058,172.88z"/>
		</g>
		<path fill="#89AE13" d="M349.212,155.33c-2.778,16.051-12.749,29.516-28.836,38.943c-38.655,22.656-64.779-2.404-85.769-22.535
			c-25.504-24.463-47.256-38.422-79.266-15.757c-8.571,6.089-19.593,16.46-22.139,22.931c-2.349,5.985-8.688,9.394-14.979,8.045
			c-6.277-1.348-10.676-7.035-10.364-13.481c2.108-43.689,25.3-82.626,62.043-104.16C257.363,18.056,360.029,92.834,349.212,155.33z
			"/>
	</g>
</g>
</svg>
