<?xml version="1.0" encoding="utf-8"?>
<!-- Generator: Adobe Illustrator 15.0.0, SVG Export Plug-In . SVG Version: 6.00 Build 0)  -->
<!DOCTYPE svg PUBLIC "-//W3C//DTD SVG 1.1//EN" "http://www.w3.org/Graphics/SVG/1.1/DTD/svg11.dtd">
<svg version="1.1" id="Layer_1" xmlns="http://www.w3.org/2000/svg" xmlns:xlink="http://www.w3.org/1999/xlink" x="0px" y="0px"
	 width="100px" height="37.033px" viewBox="0 0 100 37.033" enable-background="new 0 0 100 37.033" xml:space="preserve">
<g>
	<g>
		<path fill="#1D1D1D" d="M7.714,12.883H0.859C0.384,12.883,0,12.115,0,11.165c0-0.949,0.384-1.718,0.859-1.718h6.855
			c0.475,0,0.859,0.769,0.859,1.718C8.573,12.115,8.189,12.883,7.714,12.883z"/>
		<path fill="#1D1D1D" d="M7.714,27.586H0.859C0.384,27.586,0,26.815,0,25.867c0-0.949,0.384-1.718,0.859-1.718h6.855
			c0.475,0,0.859,0.769,0.859,1.718C8.573,26.815,8.189,27.586,7.714,27.586z"/>
	</g>
	<path fill="#D92425" d="M94.686,36.801l-14.834-5.239c-3.314-1.17-6.898-1.348-10.313-0.509l0,0
		c-5.984,1.472-12.126,2.214-18.289,2.214H9.314c-1.521,0-2.754-1.232-2.754-2.752V6.518c0-1.521,1.233-2.754,2.754-2.754H51.25
		c6.163,0,12.303,0.744,18.289,2.215l0,0c3.414,0.839,6.998,0.662,10.313-0.508l14.834-5.239C97.277-0.686,100,1.239,100,3.991
		v29.05C100,35.793,97.277,37.718,94.686,36.801z"/>
	<g opacity="0.1">
		<path d="M82.359,16.479c-0.688,0-1.336-0.416-1.602-1.094c-0.346-0.884,0.092-1.88,0.977-2.225l11.399-4.45
			c0.884-0.345,1.88,0.092,2.226,0.977c0.346,0.883-0.092,1.88-0.977,2.225l-11.4,4.45C82.777,16.44,82.566,16.479,82.359,16.479z"
			/>
		<path d="M93.757,28.44c-0.207,0-0.418-0.037-0.625-0.117l-11.399-4.449c-0.883-0.346-1.321-1.342-0.977-2.227
			c0.346-0.883,1.342-1.32,2.227-0.976l11.398,4.449c0.885,0.345,1.321,1.342,0.977,2.226C95.093,28.026,94.443,28.44,93.757,28.44z
			"/>
	</g>
	<circle fill="#860000" cx="51.398" cy="16.855" r="9.668"/>
	<path fill="#FF7D7D" d="M72.064,6.411c-0.848-0.084-1.692-0.228-2.525-0.432c-2.484-0.611-4.997-1.088-7.525-1.447
		c-3.6,1.408-6.15,4.908-6.15,9.006c0,5.34,4.328,9.669,9.668,9.669s9.669-4.329,9.669-9.669
		C75.201,10.716,73.992,8.178,72.064,6.411z"/>
	<path fill="#D92425" d="M66.896,5.383C61.753,4.31,56.51,3.764,51.25,3.764h-2.894c-0.404,1.064-0.626,2.218-0.626,3.424
		c0,5.34,4.329,9.668,9.668,9.668s9.668-4.329,9.668-9.668C67.066,6.571,67.007,5.968,66.896,5.383z"/>
	<g>
		<path fill="#FF7D7D" d="M51.83,3.772c-0.193-0.001-0.387-0.009-0.58-0.009H33.741c-0.403,1.065-0.625,2.218-0.625,3.424
			c0,5.34,4.329,9.669,9.668,9.669c5.34,0,9.668-4.329,9.668-9.669C52.452,5.985,52.23,4.834,51.83,3.772z"/>
	</g>
	<path fill="#860000" d="M9.314,3.764c-1.521,0-2.754,1.233-2.754,2.754v23.999c0,1.521,1.233,2.752,2.754,2.752h11.844
		c6.421-4.021,10.868-10.901,11.556-18.859C38.301,13.266,42.8,9.138,44.476,3.764H9.314L9.314,3.764z"/>
	<path opacity="0.1" enable-background="new    " d="M94.686,32.579L79.852,27.34c-3.314-1.17-6.898-1.347-10.313-0.508
		c-5.984,1.471-12.126,2.215-18.289,2.215H36.312c-19.34-0.772-14.782-23.203-7.68-25.283H9.314c-1.521,0-2.754,1.233-2.754,2.754
		v23.999c0,1.521,1.233,2.752,2.754,2.752H51.25c6.163,0,12.303-0.742,18.289-2.213c3.414-0.84,6.998-0.664,10.313,0.508
		l14.834,5.238c2.594,0.917,5.315-1.008,5.315-3.76v-4.223C100,31.571,97.277,33.496,94.686,32.579z"/>
	<path opacity="0.1" enable-background="new    " d="M9.314,33.269c1.521,0,2.754-1.232,2.754-2.752V6.518
		c0-1.521-1.233-2.754-2.754-2.754S6.56,4.997,6.56,6.518v23.999C6.56,32.036,7.793,33.269,9.314,33.269z"/>
</g>
</svg>
