<?xml version="1.0" encoding="utf-8"?>
<!-- Generator: Adobe Illustrator 15.0.0, SVG Export Plug-In . SVG Version: 6.00 Build 0)  -->
<!DOCTYPE svg PUBLIC "-//W3C//DTD SVG 1.1//EN" "http://www.w3.org/Graphics/SVG/1.1/DTD/svg11.dtd">
<svg version="1.1" id="Capa_1" xmlns="http://www.w3.org/2000/svg" xmlns:xlink="http://www.w3.org/1999/xlink" x="0px" y="0px"
	 width="300px" height="286.504px" viewBox="0 0 300 286.504" enable-background="new 0 0 300 286.504" xml:space="preserve">
<g>
	<path fill="#AD1111" d="M293.025,116.168l-7.945-3.735c-4.002-1.881-5.584-6.749-3.453-10.623l4.234-7.694
		c3.67-6.671,0.361-15.035-6.881-17.388L243.38,65.161c-15.153-4.924-31.756,0.471-41.122,13.361
		c9.366-12.891,9.366-30.347,0-43.238L180.256,5.001c-4.475-6.16-13.451-6.723-18.66-1.17l-6.011,6.404
		c-3.024,3.225-8.146,3.224-11.169,0l-6.01-6.404c-5.209-5.553-14.186-4.99-18.661,1.17L97.742,35.284
		c-9.365,12.891-9.365,30.347,0,43.238c-9.365-12.891-25.967-18.286-41.121-13.361L21.02,76.728
		c-7.241,2.353-10.551,10.716-6.88,17.388l4.234,7.694c2.131,3.874,0.55,8.742-3.452,10.623l-7.948,3.735
		c-6.89,3.24-9.129,11.951-4.653,18.11l22.002,30.285c9.366,12.892,25.968,18.285,41.122,13.361
		c-15.154,4.924-25.414,19.045-25.414,34.979v37.435c0,7.612,6.931,13.347,14.41,11.915l8.625-1.646
		c4.343-0.832,8.483,2.179,9.037,6.564l1.098,8.714c0.951,7.554,8.544,12.374,15.785,10.021l35.6-11.566
		C139.74,269.413,150,255.291,150,239.355c0,15.936,10.26,30.058,25.416,34.979l35.602,11.567
		c7.239,2.354,14.834-2.469,15.783-10.021l1.1-8.714c0.552-4.388,4.691-7.396,9.035-6.565l8.627,1.647
		c7.479,1.431,14.41-4.304,14.41-11.915V212.9c0-15.936-10.263-30.057-25.416-34.979c15.154,4.923,31.756-0.472,41.123-13.36
		l22.002-30.286C302.154,128.12,299.917,119.409,293.025,116.168z"/>
	<g>
		<path fill="#860000" d="M150,52.208c-2.426,0-4.395-1.967-4.395-4.395V34.17c0-2.427,1.968-4.395,4.395-4.395
			s4.395,1.968,4.395,4.395v13.643C154.395,50.241,152.427,52.208,150,52.208z"/>
		<path fill="#860000" d="M48.282,126.114c-0.45,0-0.908-0.07-1.358-0.217l-12.976-4.216c-2.308-0.75-3.572-3.229-2.821-5.537
			c0.75-2.31,3.229-3.571,5.537-2.821l12.975,4.217c2.31,0.75,3.572,3.229,2.821,5.537
			C51.857,124.933,50.133,126.114,48.282,126.114z"/>
		<path fill="#860000" d="M79.111,256.729c-0.895,0-1.799-0.271-2.579-0.84c-1.964-1.429-2.398-4.175-0.972-6.14l8.019-11.037
			c1.427-1.964,4.174-2.397,6.139-0.974c1.964,1.43,2.398,4.177,0.974,6.141l-8.021,11.037
			C81.81,256.102,80.47,256.729,79.111,256.729z"/>
		<path fill="#860000" d="M220.889,256.729c-1.358,0-2.699-0.629-3.559-1.813l-8.021-11.037c-1.427-1.964-0.99-4.711,0.974-6.14
			c1.965-1.427,4.713-0.988,6.14,0.973l8.021,11.037c1.427,1.965,0.99,4.711-0.975,6.14
			C222.689,256.456,221.785,256.729,220.889,256.729z"/>
		<path fill="#860000" d="M251.718,126.114c-1.852,0-3.575-1.182-4.178-3.039c-0.748-2.309,0.515-4.787,2.821-5.537l12.975-4.217
			c2.309-0.751,4.787,0.514,5.537,2.821c0.751,2.308-0.514,4.787-2.821,5.537l-12.976,4.215
			C252.627,126.043,252.169,126.114,251.718,126.114z"/>
	</g>
	<path fill="#D92425" d="M235.268,127.125l-4.098-1.192c-2.404-0.701-3.35-3.604-1.814-5.585l2.612-3.373
		c1.868-2.413,0.292-5.936-2.752-6.148l-21.468-1.5c-7.878-0.552-15.645,2.114-21.521,7.39l-26.362,23.653
		c-1.206-1.433-2.72-2.598-4.438-3.396l14.293-32.25c3.199-7.222,3.336-15.431,0.379-22.755l-8.063-19.952
		c-1.145-2.83-4.98-3.241-6.697-0.718l-2.4,3.527c-1.408,2.071-4.462,2.071-5.874,0l-2.4-3.527
		c-1.716-2.523-5.555-2.112-6.697,0.718l-8.063,19.953c-2.959,7.323-2.823,15.532,0.375,22.754l14.293,32.25
		c-1.719,0.799-3.23,1.964-4.438,3.396l-26.361-23.652c-5.879-5.275-13.646-7.941-21.523-7.391l-21.466,1.502
		c-3.044,0.211-4.622,3.734-2.752,6.147l2.612,3.373c1.535,1.981,0.592,4.885-1.813,5.585l-4.097,1.193
		c-2.93,0.853-3.725,4.629-1.387,6.591l16.485,13.833c6.05,5.077,13.899,7.485,21.757,6.676l35.657-3.687
		c0.242,1.651,0.796,3.203,1.603,4.592l-30.955,17.943c-6.834,3.961-11.771,10.522-13.682,18.188l-5.205,20.879
		c-0.738,2.961,2.124,5.551,4.995,4.519l4.017-1.44c2.356-0.849,4.828,0.946,4.75,3.45l-0.131,4.267
		c-0.096,3.049,3.25,4.974,5.84,3.354l18.25-11.403c6.696-4.187,11.412-10.908,13.068-18.632l7.499-34.983
		c0.871,0.188,1.774,0.287,2.702,0.287c0.927,0,1.832-0.103,2.703-0.287l7.501,34.983c1.654,7.724,6.369,14.445,13.068,18.632
		l18.25,11.403c2.588,1.617,5.934-0.306,5.84-3.354l-0.133-4.267c-0.076-2.504,2.396-4.3,4.752-3.45l4.017,1.44
		c2.871,1.032,5.733-1.558,4.995-4.519l-5.205-20.879c-1.91-7.664-6.848-14.229-13.68-18.188l-30.957-17.945
		c0.807-1.387,1.359-2.938,1.602-4.59l35.659,3.687c7.856,0.813,15.707-1.599,21.757-6.676l16.484-13.833
		C238.993,131.754,238.197,127.979,235.268,127.125z"/>
</g>
</svg>
