<?xml version="1.0" encoding="utf-8"?>
<!-- Generator: Adobe Illustrator 15.0.0, SVG Export Plug-In . SVG Version: 6.00 Build 0)  -->
<!DOCTYPE svg PUBLIC "-//W3C//DTD SVG 1.1//EN" "http://www.w3.org/Graphics/SVG/1.1/DTD/svg11.dtd">
<svg version="1.1" id="Layer_1" xmlns="http://www.w3.org/2000/svg" xmlns:xlink="http://www.w3.org/1999/xlink" x="0px" y="0px"
	 width="416.305px" height="381.485px" viewBox="0 0 416.305 381.485" enable-background="new 0 0 416.305 381.485"
	 xml:space="preserve">
<g>
	<path fill="#2B2B2B" d="M96.3,369.5c-24.4,2.4,4.5-11.898,3.7-22.5c-0.8-10.6,4.3-20,15.1-23.5c10.7-3.699,25.5-5.5,26-17.898
		c-11,7-37,0.299-49.2,12.898c-12.2,12.6-9.6,24.1-22.6,45.1s19.6,21.701,53.3,11.398c33.7-10.398,55.6-38.1,63.3-44.898
		C145.7,363.901,120.6,367.1,96.3,369.5z"/>
	<path fill="#D92425" d="M337.1,263.2c-9.102-7.299,8.2-23.1,8.7-31.1c0.3-4.4-4.101-23.5-11-14.102c-2.9,4-4.7,9.9-8.9,13
		c-10.5,7.803-10.5-9.398-29.899-29.5c-19.4-20.199-41.7-17.899-42.299-2.299c-0.5,15.602,31.898,17,35.398,24.701
		c3.5,7.799-14.8,2.1-10.898,17.4c4,15.197,16.698,7,25.1,18.197c8.4,11.201-10.4,11.102-17.4,26.602
		c-7,15.6,28.9,11.201,36.5,4.701c7.6-6.602,18.801-10,26.7,5.197c7.8,15.201,28.899,40.102,37,5.602
		c4.101-17.602,5.899-40.199-5.601-31c-3.899,3.201-12.199,10-14.5,2c-0.799-2.699-0.199-5.602-0.199-8.4
		c0-4.898,0.699-11.199-3.7-14.5c-1.899-1.5-3.601-2-5.3-1.699C350.6,249.2,346.1,270.2,337.1,263.2z"/>
	<path fill="#2B2B2B" d="M261.498,40.5c-13.299-23-7.398,11.6-17,17.4c-9.799,5.9-14.5,16.4-10.799,28.1
		c3.601,11.9,11.5,26.199,1.101,34.4c-1-14.301-23.2-33-20.101-51.8c3.2-18.8,14.7-23.8,24.5-48.4c9.799-24.7,31.199,3.6,43.601,40
		c12.399,36.4,2.5,73.201,1.5,84.3C287.998,87.6,274.8,63.4,261.498,40.5z"/>
	<path fill="#2B2B2B" d="M125.4,148.3c-8.9-4.7-29.6-2.801-36.2-12.2c-6.7-9.601-3-20.199-16.3-31.199C59.5,93.9,42.3,89.1,24,85.4
		C11.5,82.8,5.7,78.9,0.2,71.3v12.8c13.7,11,30.7,17.5,44.8,22.5c20.9,7.399,22.4,10.7,35.9,36.6c13.5,26,38,10.801,55.7,26.9
		C136.8,167.6,134.3,153.1,125.4,148.3z"/>
	<path fill="#D92425" d="M120.9,190.699c-13.6-3.6-13.8-16.1-28.5-20.398C77.6,166,67.1,158.4,62.1,148
		c-5-10.398-8.4-18.6-22.2-23.1c-24.6-3.301-28.3-9.701-37.6-20.701c-0.8-0.899-1.5-1.799-2.2-2.6v20.5c5.4,4.6,12.5,8.5,21.1,10.7
		c21.9,5.5,13.7,20.199,10.4,31.101c-3.3,10.9,9.6,13.299,21.3,11.799c11.7-1.5,13,9.9,13,21.5c0,11.602,10.4,14,20.5,9.301
		c10.2-4.699,18.8,1.9,36.9,2.4C141.5,209.2,134.5,194.2,120.9,190.699z"/>
	<path fill="#2B2B2B" d="M416.199,291.6c-0.5-6-1.5-12.5-3.5-18.199c-0.5-1.6-1.198-3.201-1.8-4.801
		c0.102-0.299,0.2-0.799,0.2-1.299c0-1.102,0.2-2.201,0.4-3.201c0.698-2.602,0.3-5.602,0.198-8.4c0,0.201-1.3,1.5-1.398,1.701
		c-0.5,0.9-1,1.699-1.4,2.6c-0.3,0.699-0.6,1.5-0.8,2.301c-6.1-13.199-14.5-25.602-23.5-36.699c-3.2-3.9-6.602-7.801-10.102-11.602
		c-3.698-4-7.698-7.898-11.698-11.6c-7.101-6.4-14.9-12.202-22.7-17.702c-38.898-27.1-86.102-48.398-115.602-64.199
		C151.9,81.5,70.9,61.7,4.3,0H0.1v13.9c22,20.1,53,42.1,98.5,63.5c-12.1,1.299-25,7.7-19.3,17.1c8,13.301,28.8,4.199,40.5,12.9
		c11.8,8.699-10.7,4.5-19.1,16.199c-8.4,11.7,23.1,15.899,37.6,19.2c14.4,3.199,16.8-1.301,30.7,10.699
		c13.9,11.899-2.5,22.601,4.2,39c6.7,16.303,25,22.4,42.3,13.4s12-26,10.201-37.1c-1.802-11.102,28.898-7.9,45.299,4.301
		c14.399,10.6,28.601,10.5,33.201,0.299c8,5.301,16.5,10.801,26.799,16.9c10,5.899,19,12.6,27.201,19.7
		c-4.201,1.699-1.201,11,5.799,18.199c5.601,5.701,15.201,9.102,20,9c0.801,0,13.501,19.9,15.801,24.301
		c6.1,12,9.398,24.699,7.7,38.199c-0.9,7.9-4.5,14.801-10.4,20.102c-10.5,9.6-25,14.5-38.8,16.301c-5.4,0.699-10.9,1.1-16.301,1.299
		c-3.299-3.799-11.799-8.699-19.5-9.199c-9.799-0.6-18.5,2.799-17.601,7.102c-2.6-0.4-5-0.701-6.6-1c6.8-11,17-23.9-12.5-27.5
		c-29.601-3.602-38.302-7.9-24.2-24.102c14.102-16.301,19-26.301-6.3-33.898c-25.4-7.701-18.9-32.102-43.2-17.303
		c-24.399,14.9-15.299,29-42.7,22.701c-27.3-6.201,6.6-29-32.2-26.801c-38.8,2.201-62.6-12.1-60.8,6.801c0.4,3.5,1,6.799,1.8,9.799
		c-30.4-25.697-56.4-53-78.2-83.299V182.3C35.6,229.1,81.7,271.401,136.4,299c17.7,8.9,36,16.9,54.7,23.4
		c16.6,5.9,33.398,10.9,50.601,14.6c34.299,7.4,70.799,12,105.898,9.801c9.898-0.699,19.898-2.199,29.5-4.699
		c-1.2,2.299-1.898,4.799-2.602,7.199c0-0.199,1.701-1.102,2-1.199c0.802-0.602,1.5-1.301,2.201-2.102
		c1.399-1.6,2.5-3.398,3.5-5.398C403,332.901,417.699,314.5,416.199,291.6z"/>
</g>
</svg>
