<?xml version="1.0" encoding="utf-8"?>
<!-- Generator: Adobe Illustrator 15.0.0, SVG Export Plug-In . SVG Version: 6.00 Build 0)  -->
<!DOCTYPE svg PUBLIC "-//W3C//DTD SVG 1.1//EN" "http://www.w3.org/Graphics/SVG/1.1/DTD/svg11.dtd">
<svg version="1.1" id="Layer_1" xmlns="http://www.w3.org/2000/svg" xmlns:xlink="http://www.w3.org/1999/xlink" x="0px" y="0px"
	 width="458.299px" height="383.77px" viewBox="0 0 458.299 383.77" enable-background="new 0 0 458.299 383.77"
	 xml:space="preserve">
<g>
	<path fill="#FF9729" d="M381.001,102.87c-11.303,10.6-20.701,9.5-33,8.9c-12.303-0.6-24.701,5.4-36.303,16.9
		c-11.602,11.6-23.398,5.3-33.697,16.2c-10.303,10.9-28,9.8-18.201-7.1c9.801-16.8,20.301-21.4,21.201-33.3
		c0.896-11.9,8.396-20.4,19.197-14.5c10.803,6,22.199,10.6,26.803-1.1c4.6-11.7,13.5-22.5,21.896-13.9c8.4,8.7,18.104,23.9,34.4,6.2
		c16.301-17.7,38.902-20.6,46.801-13.6c7.9,7,4.299,7.5-10.6,10.6C404.599,81.37,396.7,81.57,381.001,102.87z"/>
	<path fill="#2B2B2B" d="M114.199,134.17c-2.4-10.6-17.1-45.4-9.5-82.2c7.5-36.8,25-66.9,37.9-44c12.9,22.9,25.1,26.3,30.6,44.3
		c5.5,17.9-14.1,38.7-13.2,52.7c-11.3-6.7-5.5-21.6-3.4-33.5c2.1-11.9-4-21.5-14.3-26.1c-10.4-4.6-8.9-38.9-19.1-15
		C113.099,54.37,103.199,79.37,114.199,134.17z"/>
	<path fill="#FF9729" d="M103.5,336.169c-0.5,1.7-1.9,3-4.2,4.103c-5.3,2.397-11-1.5-15.5-4c-2.6-1.4-5-3.5-8-4.2
		c-8.6-1.9-6.5,9.4-5.6,14.7c2.7,15.397-17.5,2.2-31.8-10.603c-28.1-25.199,6-32.199,24.3-31.8c18.3,0.4,20.8-11.897,18.5-22.399
		c-2.3-10.5,12.1-46.301,23-31.698c10.9,14.5,1.2,32,16,29.897c14.7-2.1,13.6-18.199,29.9-14.1c16.3,4.1,1.7,18.5,10.7,19.2
		s26.9-28.9,41.2-20.4c14.4,8.5,5.1,30.603-23.7,38.4s-44.8-1-42.9,12.8c0.8,5.5,5.3,10.1,7.6,15c5.2,11.2-14.9,5.6-18.8,3.1
		c-7.2-4.6-13.2-28.8-24.6-24.1C88.199,314.77,105.5,329.869,103.5,336.169z"/>
	<path fill="#2B2B2B" d="M237.501,321.569c9.799,6.6,39.299,34.8,79.697,41.8s77.803,1.5,59.803-20.3
		c-18.104-21.8-16.803-35.2-32.803-47.8c-16-12.601-44.898-1.3-58.801-7.7c2.301,13.9,19.801,13.9,32.699,16.5
		c12.9,2.6,20.201,12.4,20.801,24.5c0.604,12.1,36,24.2,7.604,24.8C318.198,354.069,288.8,353.97,237.501,321.569z"/>
	<path fill="#2B2B2B" d="M458.3,142.77c-19.1,9.9-40,22.7-62.799,39.399c5-12,5.6-27.301-6.104-26.801
		c-16.6,0.7-18.699,24.801-32.896,31.301c-14.104,6.5,1.396-12.399-5.303-26.201c-6.697-13.8-26.801,13.5-37.301,25.3
		c-10.5,11.898-7.5,16.398-25.699,23.199c-18.301,6.801-19.801-13.899-38.602-16c-18.799-2.101-33.698,11.898-34.198,32.699
		c-0.4,20.801,18.101,24.602,29.399,28.5c11.299,4-7.5,30.899-27.201,40.102c-17.3,8-24.4,21.3-17.3,30.897
		c-9,4.803-18.4,9.803-29.5,16.4c-10.6,6.3-21.5,11.3-32.3,15.3c0.6-4.897-9.7-6.8-20-4c-8.3,2.3-16.4,9.5-18.8,14.2
		c-0.4,0.7-25.4,2.5-30.7,2.3c-14.3-0.397-27.8-3.897-39.6-12.3c-6.9-4.9-11.4-11.9-13.5-20c-3.6-14.7-0.8-30.8,4.6-44.6
		c2.1-5.4,4.6-10.7,7.2-15.9c5.2-1.2,14.1-6.5,18.5-13.5c5.6-8.7,6.8-18.7,2.4-20c1.6-2.2,3.2-4.3,4.3-5.7
		c6.8,12,13.6,28.102,32.1,2.4c18.5-25.801,27-31.9,34.9-10.301c7.9,21.601,14.8,31.301,34.9,11.5s39.7-1.199,38.2-31.5
		c-1.4-30.298-19.2-29.199,0.6-51.601c19.9-22.4,23.8,21.102,41.601-16.4c17.801-37.5,43.398-52.3,24.801-60.3
		c-3.5-1.5-6.9-2.6-10.102-3.4C319.198,51.17,386.501,39.67,458.3,45.47v-13.8c-91.299-6.3-202.5,12.6-289.299,72.2
		c-17.4,12-34.2,25-50,39.1c-14,12.5-27.3,25.7-39.6,39.8C55,211.069,31.9,242.869,16,276.869
		c-4.501,9.601-8.201,19.7-10.701,30.101c-1.4-2.2-3.5-4.2-5.3-6.103c0.2,0.2,0.1,2.103,0.2,2.5c0.2,1.103,0.4,2.2,0.8,3.2
		c0.8,2.2,1.9,4.2,3.2,6.1c-3.6,23.303,6.1,46.502,28.3,56.803c5.8,2.699,12.5,5.1,18.8,6.1c1.8,0.3,3.6,0.5,5.4,0.7
		c0.3,0.3,0.7,0.6,1.1,0.897c1,0.603,1.9,1.303,2.7,2.103c2.2,2,5.1,3.2,7.8,4.5c-0.2-0.103-0.7-1.9-0.9-2.2
		c-0.5-0.9-1.1-1.9-1.8-2.7c-0.5-0.7-1.1-1.3-1.7-1.897c15.5,1,31.4-0.4,46.4-3.103c5.4-1,10.7-2.2,16-3.5
		c5.7-1.397,11.3-3.1,16.8-5c9.6-3.3,19-7.6,28.1-12.1c45.3-22.5,89.302-55.8,119.302-75.3c57.197-37.2,106-84.9,167.799-118.9
		V142.77z"/>
	<path fill="#2B2B2B" d="M458.3,81.37c-25.6,3.7-46.6,21.3-62.699,35.6c-17.6,15.7-21.5,15.5-52.6,14.9
		c-31.104-0.7-29.5,30.1-53.604,38.3c2,1.5,16.9,6.6,25.9,0.6s17.799-26.3,30-27.6c12.299-1.3,20.398,7.6,37.5,0.8
		c17.199-6.8,30.5-20.5,43.398-35.8c10.602-12.5,18-14.9,32-15.6v-11.2H458.3z"/>
</g>
</svg>
