<?xml version="1.0" encoding="utf-8"?>
<!-- Generator: Adobe Illustrator 15.0.0, SVG Export Plug-In . SVG Version: 6.00 Build 0)  -->
<!DOCTYPE svg PUBLIC "-//W3C//DTD SVG 1.1//EN" "http://www.w3.org/Graphics/SVG/1.1/DTD/svg11.dtd">
<svg version="1.1" id="Layer_1" xmlns="http://www.w3.org/2000/svg" xmlns:xlink="http://www.w3.org/1999/xlink" x="0px" y="0px"
	 width="467px" height="408px" viewBox="0 0 467 408" enable-background="new 0 0 467 408" xml:space="preserve">
<path fill-rule="evenodd" clip-rule="evenodd" fill="#1C1C1C" d="M104.4,329.3c-1.5-2.9-6.8-3.7-12.3-2c-5.5,1.7-8.9,5.4-7.5,8.1
	c1.3,2.9,7,3.7,12.5,2.1C102.7,335.9,105.9,332.2,104.4,329.3z"/>
<g>
	<path fill="#2B2B2B" d="M83.2,328.9c8.3-7.5,18.1-9.4,28.4-6.1c7.6,2.5-0.3,10.2-3.5,12.8c-2.5,2.1-3,1.6-6,2.5
		c0,0,4.4-3.7,6.5-8.2c0-0.1,0.8-1.8,0.8-1.8c-9-0.3-18.6-1.5-26.6,4.3c-3,2.2-2.5,4.1-1.6,7.4C78.9,335.4,79.2,332.7,83.2,328.9z"
		/>
</g>
<path fill-rule="evenodd" clip-rule="evenodd" fill="#2B2B2B" d="M257.1,223.9c-7.9,0.3-5,8.7-8.8,14.7c-3.7,5.9-5.8,14.6-6.4,19.9
	c-0.5,5.2-5.7,11.9-13.7,5.9c-8-6.1-6.2-9.5-14-8c-7.7,1.5-9.7,15.7-21.5,9.2c-11.9-6.6-0.6-13-8.1-14c-7.6-1.1-24.9,0.8-22.4-2.1
	c2.5-2.9,5.8-11.4,1.1-14.2c-4.7-2.9-5.1-12.4,4.8-16.2c9.9-3.8,20.5-2.7,25.2-10.3c4.6-7.6,21.5-10.3,28.9-11.3
	c7.5-1.1,11.9-8.8,25.9-9.7c13.8-0.8,29.5,0.9,27,6.6c-2.6,5.7-19.3,11-16.4,17.2C261.9,217.8,264,223.6,257.1,223.9z"/>
<path fill-rule="evenodd" clip-rule="evenodd" fill="#2B2B2B" d="M375.1,155.9c1.3-0.1,2.7-0.3,4-0.6c3.8-0.9,7.6-2,11.3-3.4
	c7.2-2.8,13.7-7,18.9-12.9c13.5-15.2,18-37.3,22.1-56.5c4.4-20.7,7.9-41.7,11.7-62.5c0.2-1,2.8-11.2,1.9-11.8
	c-0.5-0.3-2.7,6.4-2.9,7c-6.6,18.8-13,37.7-19.6,56.5c-1.5,4.2-4.1,9.1-3.7,13.6c0.3,3.9,2.2,7.7,1.2,11.7c-1.6,6.3-8,13-9.8,19.3
	c-2.1,7.2-4.7,14.2-11.7,17.8c-6.9,3.6-14.9,3.8-21.8,7.3c-6.6,3.3-12.5,8.2-17.7,13.4c-12.4,12.2-20.9,29-37.7,36
	c-11.7,4.9-20-4-31.3,1.8c-12.7,6.6-24,29.3-26.3,42.7c-0.6,3.3-2.4,11.5,0.5,14.3c2.7,2.6,6.4-1.6,8.2-3.5c4.9-4.9,10-10.4,14.2-16
	c3.8-5.1,3.3-11.3,5.1-17.1c2.2-7.3,8.4-5.7,14.4-4.3c4.6,1,9-0.8,13.3-2.1c5.4-1.5,10.9-2.5,16.4-3.3c3.1-0.5,5.9,0.2,8.2-2.4
	c3.5-4,6.7-9.1,9.3-13.8c2.1-4,1.9-7.2,2.6-11.5c0.9-5.2,4.9-9.9,8.1-13.9c2.3-2.9,3.5-4.7,7.1-5.4
	C372.3,156.2,373.7,156,375.1,155.9z"/>
<path fill-rule="evenodd" clip-rule="evenodd" fill="#2B2B2B" d="M156.3,358.9c19.3,10.6,33.5,28.9,53.7,37.1
	c21.9,8.7,48.1,6.2,63.1-5.3c4.2-3.2,10.3-12,7.1-19.1c-7.7-16.8-27.6-30.3-45.1-23.8c-11.6,4.7,4.1,3.9,10.3,6.9
	c6.8,3.2,5.3,11.9,11.6,15c4.6,2.3,13.8,5.4,1.5,14c-5.8,4.1-13.5,6.1-21.7,6.9c-14.1,1.5-19.2,3.7-32-3.5
	c-11.1-7.3-22.3-14.6-33.4-21.9C166.4,363.1,161.4,361,156.3,358.9z"/>
<path fill-rule="evenodd" clip-rule="evenodd" fill="#D92425" d="M129.4,194.9c7.9-5.4,16.3-10.8,22.7-18.1c3-3.4,3.8-8.6,6.8-12.5
	c3.8-5.2,9.6-9.2,12.3-14.2c3.1-6,3-11.2,8.1-16.1c5.2-5,13.8-12.1,21.6-6.7c4.2,2.9,6.3,5.7,6,11.1c-0.2,4.3-0.7,9.9-2,13.7
	c-3.1,8.9-11.7,8-11,16.1c0.9,10.2,18.5-9,19.9-11.2c5-8,9.4-19.5,3.9-28.5c-6.7-10.8-22.5-11.9-33-6.7c-13.6,6.7-19.6,22-26.2,34.5
	C150.7,171.1,141,183.2,129.4,194.9z"/>
<path fill-rule="evenodd" clip-rule="evenodd" fill="#2B2B2B" d="M31.2,346.7c0,0,0-0.1-0.1-0.1c-1.3-2.6-3.9-4.3-6-6.2
	c-1-0.9-3.6-3.1-3.8-4.6c0.6,0.4,2.9,1.8,3.3,2.1c1.3,0.8,2.5,1.5,3.9,2.2c2.9,1.5,6,2.8,9,4.3c3.9,1.8,7.7,3.4,12.1,3.5
	c5.4,0.2,10.8-0.7,16.2,0.1c8.5,1.3,13.7,4.8,25.6,4.9c4.1,0,19.9-5.6,24.4-5.8c2.9-0.1,6.1,1,9,1.6c4.1,0.9,8.2,1.2,12.3,0.3
	c2.5-0.5,4.8-1.5,7.2-2.4c2.5-0.9,4.8-2,7-3.5c3.7-2.5,8.8-7,8.2-12.1c-0.3-2.8-2.6-4.8-4.5-6.6c-2.4-2.3-4.7-4.7-6.7-7.4
	c0.5,0.6,1.8,1.1,2.5,1.5c0.9,0.5,1.9,1,2.8,1.6c1.9,1,3.8,2.1,5.5,3.5c2.7,2.2,4.8,5,5.9,8.3c2.5,7.6-0.7,16-7.1,20.6
	c-1.9,1.4-4,2.4-6.2,3.2c-4.8,1.8-9.5,2.6-14.6,2.9c-5.1,0.3-10.2,0.1-15.3,0c-2.8,0-5.6,0-8.4,0.1c-11.8,0.5-23.4,1.3-35.2,0.1
	c-14.2-1.4-27.1-3.1-40.2-9.2c-2.1,6.7,7.9,10.2,12.3,12c-5.4,0.7-12.2-3.4-15.6-7.3C32.8,352.3,32.4,349.3,31.2,346.7z"/>
<path fill-rule="evenodd" clip-rule="evenodd" fill="#D92425" d="M159.9,305.7c13.7-2.7,17.9-8.4,20.6-16.9c1.1-3.5-4.8-10.2,0.6-13
	c10-5.3,22.8,0.2,33.6-6c9.9-5.7,19.1,12.5,28.8,6.7c7-4.2,8.4-8.7,17.6-9.2c16-0.9,8.5,15.3,0.4,20.2c-6.6,4.1-8.9,3.6-8.3,11.3
	c0.4,5.9,6.1,5.6,8.7,9c-6.2,3.5-12.2,9.2-20.1,7.7c-13.7-2.7-14.6-12.4-29.4-4.4c-5.6,3.1-8.2,8.5-11,13.9
	c-2.1,4.2-5.1,10.4-10.4,10.9c-2.7,0.3-5.6-1.9-7.7-3.4c-4.3-3.1-3.5-9.6-7.5-12.4c-3.8-2.6-11-0.6-15.3-1.1
	C153.5,318.4,146.7,307.3,159.9,305.7z"/>
<path fill-rule="evenodd" clip-rule="evenodd" fill="#2B2B2B" d="M389.7,241.4c20.9-8.3,43.7-12.3,60.2-31.9c16.5-19.7-25-13.2-33-8
	c1-0.7,14.1-0.5,16-0.3c5.5,0.7,6.3,2,2.9,8.3C426.8,225.6,404.1,231.5,389.7,241.4z"/>
<path fill-rule="evenodd" clip-rule="evenodd" fill="#D92425" d="M325.9,130.9c5.9-15.1,8.2-32.1,23.4-42.8
	c15.2-10.7,11.5,20.4,7.6,25.9c0.2-4.1-0.5-8.1-0.1-12.3c0.3-3.3-0.3-5.2-3.9-4.1C338.1,102,334.2,119.6,325.9,130.9z"/>
<path fill-rule="evenodd" clip-rule="evenodd" fill="#D92425" d="M8.9,305.8c0.5-2.2,1.4-4.8,2.3-6.9c1-2.2,2.1-4.4,3.1-6.6
	c0.7-1.5,1.2-2.2,0.8-3.8c-0.3-1.4-0.9-2.8-1.2-4.3c-0.5-2.6,0.9-5.4,2.1-7.6c1.4-2.7,3.4-5.1,5.7-7.2c0.7-0.7,1.5-1.3,2.5-1.8
	c0.4-0.2,1.5-0.2,1.9-0.5c-2.3,2-4.2,4.5-5.5,7.3c-1.2,2.6-1.3,5.2-0.6,8c2-3.7,4.5-7.2,6.9-10.7c2.4-3.6,5.2-6.9,8-10.1
	c2-2.3,4.1-4.5,6.3-6.7c8.3-8.3,17.7-15.6,27.5-22c10.2-6.7,21-12.6,31.7-18.4c22.6-12.3,51.3-30.2,90.8-39.4
	c29.5-6.8,68.3-15.6,103-27.8c22.2-7.8,44.4-17.5,63.5-31.5c3-2.2,13.8-9.3,23.6-19c26.1-25.4,35.4-61.9,29.4-97h7.3
	c0.5,4.2,0.7,8.5,0.9,12.7c0.4,11.6-0.4,23.3-2,34.8c-1.6,11.4-6.8,21.9-13.8,33.7c6.9,1.3,5.4,10.6,3.8,15.4
	c-3.8,11.9-15.7,0.7-23.1,9.9c-7.4,9.2,6.4,4.6-0.1,15.4c-6.5,10.8-8.3,7.5-23.8,10.6c-15.5,3.1-16.5,11.9-23.1,21.9
	c-6.6,10,0,13.4-14,23.6c-14,10.2-18.5-13.9-22.3-17.4c-3.6-3.4-10.4-6.4-16.3-4.1c-20.1,9.6-40.7,24-60.1,28.6
	c-31.6,7.5-51.9,11.2-72,18.1c12.3,0.6,23.5,4.7,6.2,13.8c-22.2,11.7-50.5,21.6-38.9,26.1c11.6,4.5,22.1-6.1,21.5,7.2
	c-0.6,13.4-22.8,13.8-14.5,23c8.3,9.2,19.7,17.5-3.7,19.6c-12.3-0.2-14.1,3.7-21.2,9.9c-7,6.1-13.6,19.2-25.9,15.4
	c-12.2-3.7-24.6,8.4-32.1-2.1c-7.4-10.6,12.1-12.8,6.9-21c-5.2-8.2-19.3-12.4-3-19.8c16.2-7.3,26.1,1.3,22.8-14.2
	c-1.2-5.6-0.1-11.2-1.1-16.8c0,0.2-3.2,1.7-3.5,1.9c-1.2,0.7-2.4,1.3-3.6,2c-2.3,1.4-4.6,2.8-6.9,4.3c-5.7,3.8-10.8,8.3-15.6,13.1
	c-4.2,4.3-8,9-11.5,14c-3.5,5-6.8,10.1-9.5,15.5c-2.4,4.9-4.3,10.1-4.4,15.6c0,2.4,0.2,4.7,0.7,7c0.6,2.8,5.6,16.3,6,17.3
	c0,0.1,0.1,0.5,0.1,0.5c-6.3-4.8-12.3-15.2-12.9-23.3C8.2,310.2,8.9,305.9,8.9,305.8z"/>
<path fill-rule="evenodd" clip-rule="evenodd" fill="#2B2B2B" d="M229.4,328.4c10.4-5.3,17.9-4.2,28.5-8.3
	c7.3-2.8,17.9-11.3,23.6-13.9c3.7-1.7,7.5-3.4,11.2-5.1c-3.9-1.2-6.3-4.6-3-10.8c5.5-10.3,11.1-1.2,14.7-14.3
	c3.6-13.1,1.4-12.4-3.3-11.8c-4.7,0.6-6.5,2.8-8.4-6c-2-8.8-3.3-14.9,5.8-15c9.1-0.1,21,5.4,23.1-3.6c2.1-9,10-13.6,1.7-19.8
	c8.4-0.2,16.3-3.4,22.4-9.1c3.1-3,7.7-11.5,13.2-7.9c5.3,3.5,0.8,12.4-1.5,16.2c-1.5,2.6-3.3,5.1-5.1,7.5c-2.9,3.7-1.7,4.2,1.8,6.9
	c2.3,1.8,5.9,5,9.1,4.3c3.7-0.9,4.2-6,4.2-9.1c0.1-7-2.2-14,5.1-18.4c3.9-2.4,7.7-5.2,12.1-2.9c4.9,2.5,9.1,5.2,13.1-0.2
	c5.9-7.8-2.3-18.6,8.2-24.5c6.1-3.4,9.6-6.4,12.9-12.7c6.2-11.7,7.9-25,12.9-37.2c4.1-10.1,11.5-19,14-29.7c3.1-13.1,2-25.8,1.1-39
	c-0.7-9.7,1.1-19.1,2.9-28.6c1-5.6,2.2-11.2,2-16.9c-0.3-6.2-0.7-12.3-1.3-18.5h6.8c0.2,2.9,0.4,5.8,0.6,8.7
	c2.1,37.6,1.4,75.6-8.9,112.1c-11,39.1-28.6,75.3-53,107.8c-6.8,9.1-14.1,17.9-21.7,26.4c-9.3,10.4-19.4,20-30.4,28.6
	c-35.7,28.2-75.9,49.4-120.7,58.7c-10.7,2.2-21.3,3-32.1,4.2C203.1,345.2,214.6,335.4,229.4,328.4z"/>
</svg>
