<?xml version="1.0" encoding="utf-8"?>
<!-- Generator: Adobe Illustrator 15.0.0, SVG Export Plug-In . SVG Version: 6.00 Build 0)  -->
<!DOCTYPE svg PUBLIC "-//W3C//DTD SVG 1.1//EN" "http://www.w3.org/Graphics/SVG/1.1/DTD/svg11.dtd">
<svg version="1.1" id="Layer_1" xmlns="http://www.w3.org/2000/svg" xmlns:xlink="http://www.w3.org/1999/xlink" x="0px" y="0px"
	 width="467px" height="408px" viewBox="0 0 467 408" enable-background="new 0 0 467 408" xml:space="preserve">
<path fill-rule="evenodd" clip-rule="evenodd" fill="#D92425" d="M389.7,120.3c-11.3,10.6-20.7,9.5-33,8.9
	c-12.3-0.6-24.7,5.4-36.3,16.9c-11.6,11.6-23.4,5.3-33.7,16.2c-10.3,10.9-28,9.8-18.2-7.1c9.8-16.8,20.3-21.4,21.2-33.3
	c0.9-11.9,8.4-20.4,19.2-14.5c10.8,6,22.2,10.6,26.8-1.1c4.6-11.7,13.5-22.5,21.9-13.9c8.4,8.7,18.1,23.9,34.4,6.2
	c16.3-17.7,38.9-20.6,46.8-13.6c7.9,7,4.3,7.5-10.6,10.6C413.3,98.8,405.4,99,389.7,120.3z"/>
<path fill-rule="evenodd" clip-rule="evenodd" fill="#2B2B2B" d="M122.9,151.6c-2.4-10.6-17.1-45.4-9.5-82.2
	c7.5-36.8,25-66.9,37.9-44c12.9,22.9,25.1,26.3,30.6,44.3c5.5,17.9-14.1,38.7-13.2,52.7c-11.3-6.7-5.5-21.6-3.4-33.5
	c2.1-11.9-4-21.5-14.3-26.1c-10.4-4.6-8.9-38.9-19.1-15C121.8,71.8,111.9,96.8,122.9,151.6z"/>
<path fill-rule="evenodd" clip-rule="evenodd" fill="#D92425" d="M112.2,353.6c-0.5,1.7-1.9,3-4.2,4.1c-5.3,2.4-11-1.5-15.5-4
	c-2.6-1.4-5-3.5-8-4.2c-8.6-1.9-6.5,9.4-5.6,14.7c2.7,15.4-17.5,2.2-31.8-10.6c-28.1-25.2,6-32.2,24.3-31.8
	c18.3,0.4,20.8-11.9,18.5-22.4c-2.3-10.5,12.1-46.3,23-31.7c10.9,14.5,1.2,32,16,29.9c14.7-2.1,13.6-18.2,29.9-14.1
	c16.3,4.1,1.7,18.5,10.7,19.2c9,0.7,26.9-28.9,41.2-20.4c14.4,8.5,5.1,30.6-23.7,38.4c-28.8,7.8-44.8-1-42.9,12.8
	c0.8,5.5,5.3,10.1,7.6,15c5.2,11.2-14.9,5.6-18.8,3.1c-7.2-4.6-13.2-28.8-24.6-24.1C96.9,332.2,114.2,347.3,112.2,353.6z"/>
<path fill-rule="evenodd" clip-rule="evenodd" fill="#2B2B2B" d="M246.2,339c9.8,6.6,39.3,34.8,79.7,41.8c40.4,7,77.8,1.5,59.8-20.3
	c-18.1-21.8-16.8-35.2-32.8-47.8c-16-12.6-44.9-1.3-58.8-7.7c2.3,13.9,19.8,13.9,32.7,16.5c12.9,2.6,20.2,12.4,20.8,24.5
	c0.6,12.1,36,24.2,7.6,24.8C326.9,371.5,297.5,371.4,246.2,339z"/>
<path fill="#2B2B2B" d="M467,160.2c-19.1,9.9-40,22.7-62.8,39.4c5-12,5.6-27.3-6.1-26.8c-16.6,0.7-18.7,24.8-32.9,31.3
	c-14.1,6.5,1.4-12.4-5.3-26.2c-6.7-13.8-26.8,13.5-37.3,25.3c-10.5,11.9-7.5,16.4-25.7,23.2c-18.3,6.8-19.8-13.9-38.6-16
	c-18.8-2.1-33.7,11.9-34.2,32.7c-0.4,20.8,18.1,24.6,29.4,28.5c11.3,4-7.5,30.9-27.2,40.1c-17.3,8-24.4,21.3-17.3,30.9
	c-9,4.8-18.4,9.8-29.5,16.4c-10.6,6.3-21.5,11.3-32.3,15.3c0.6-4.9-9.7-6.8-20-4c-8.3,2.3-16.4,9.5-18.8,14.2
	c-0.4,0.7-25.4,2.5-30.7,2.3c-14.3-0.4-27.8-3.9-39.6-12.3c-6.9-4.9-11.4-11.9-13.5-20c-3.6-14.7-0.8-30.8,4.6-44.6
	c2.1-5.4,4.6-10.7,7.2-15.9c5.2-1.2,14.1-6.5,18.5-13.5c5.6-8.7,6.8-18.7,2.4-20c1.6-2.2,3.2-4.3,4.3-5.7c6.8,12,13.6,28.1,32.1,2.4
	c18.5-25.8,27-31.9,34.9-10.3c7.9,21.6,14.8,31.3,34.9,11.5c20.1-19.8,39.7-1.2,38.2-31.5c-1.4-30.3-19.2-29.2,0.6-51.6
	c19.9-22.4,23.8,21.1,41.6-16.4c17.8-37.5,43.4-52.3,24.8-60.3c-3.5-1.5-6.9-2.6-10.1-3.4C327.9,68.6,395.2,57.1,467,62.9V49.1
	c-91.3-6.3-202.5,12.6-289.3,72.2c-17.4,12-34.2,25-50,39.1c-14,12.5-27.3,25.7-39.6,39.8c-24.4,28.3-47.5,60.1-63.4,94.1
	c-4.5,9.6-8.2,19.7-10.7,30.1c-1.4-2.2-3.5-4.2-5.3-6.1c0.2,0.2,0.1,2.1,0.2,2.5c0.2,1.1,0.4,2.2,0.8,3.2c0.8,2.2,1.9,4.2,3.2,6.1
	c-3.6,23.3,6.1,46.5,28.3,56.8c5.8,2.7,12.5,5.1,18.8,6.1c1.8,0.3,3.6,0.5,5.4,0.7c0.3,0.3,0.7,0.6,1.1,0.9c1,0.6,1.9,1.3,2.7,2.1
	c2.2,2,5.1,3.2,7.8,4.5c-0.2-0.1-0.7-1.9-0.9-2.2c-0.5-0.9-1.1-1.9-1.8-2.7c-0.5-0.7-1.1-1.3-1.7-1.9c15.5,1,31.4-0.4,46.4-3.1
	c5.4-1,10.7-2.2,16-3.5c5.7-1.4,11.3-3.1,16.8-5c9.6-3.3,19-7.6,28.1-12.1c45.3-22.5,89.3-55.8,119.3-75.3
	c57.2-37.2,106-84.9,167.8-118.9V160.2z"/>
<path fill-rule="evenodd" clip-rule="evenodd" fill="#2B2B2B" d="M467,98.8c-25.6,3.7-46.6,21.3-62.7,35.6
	c-17.6,15.7-21.5,15.5-52.6,14.9c-31.1-0.7-29.5,30.1-53.6,38.3c2,1.5,16.9,6.6,25.9,0.6c9-6,17.8-26.3,30-27.6
	c12.3-1.3,20.4,7.6,37.5,0.8c17.2-6.8,30.5-20.5,43.4-35.8c10.6-12.5,18-14.9,32-15.6V98.8z"/>
</svg>
