<?xml version="1.0" encoding="utf-8"?>
<!-- Generator: Adobe Illustrator 15.0.0, SVG Export Plug-In . SVG Version: 6.00 Build 0)  -->
<!DOCTYPE svg PUBLIC "-//W3C//DTD SVG 1.1//EN" "http://www.w3.org/Graphics/SVG/1.1/DTD/svg11.dtd">
<svg version="1.1" id="Layer_1" xmlns="http://www.w3.org/2000/svg" xmlns:xlink="http://www.w3.org/1999/xlink" x="0px" y="0px"
	 width="451.893px" height="401.951px" viewBox="0 0 451.893 401.951" enable-background="new 0 0 451.893 401.951"
	 xml:space="preserve">
<g>
	<path fill="#2B2B2B" d="M74.8,283.65c-7.3,9.6-13.601,21.201-17.9,32.5c-11.1,28.3-10.899,58.099-2.3,85.8h-8.8
		c-5.8-18.4-8.3-37.701-6.8-56.6c1-13.103,4.399-25.804,9.699-37.804c9.2-20.697,23.2-38.498,38.2-55.299
		c7.601-8.5,15.3-16.801,23-25.1c6-6.5,11.7-14.701,18.8-20.201c6.2-4.699,12.4-9.398,18.601-14.2c3.6-2.8,8.2-5.3,11.3-8.6
		l-57.7,64.701C92.199,260.45,83.6,272.15,74.8,283.65z"/>
	<path fill="#1C1C1C" d="M369.6,117.65c-0.2-4.5,5.6-8.3,12.898-8.5c7.302-0.2,13.399,3.3,13.699,7.7c0.2,4.5-5.6,8.3-12.898,8.5
		C375.899,125.65,369.799,122.15,369.6,117.65z"/>
	<path fill="#2B2B2B" d="M338.699,210.65c5.102,3.1,3.2,59.398-7.1,81.6c-10.4,22.201-29.5,38.201-39.7,21
		c-10.2-17.199-21.3-21.799-25-34.398c-3.601-12.602,16.7-22.198,17.101-31.399c10.102,6.5,3.301,15,0.199,22.201
		c-3.1,7.299,1.9,14.6,11.2,19.6c9.399,5,1,21.699,16.7,13.299C331.6,292.249,334.199,244.051,338.699,210.65z"/>
	<path fill="#FF9729" d="M321,138.65c1.899-0.6,3.199-1.8,5-4.6c2.699-4,7.801-9.8,6.801-15c-0.602-3.1-2.899-3-4.301-5.2
		c-2.5-3.9-0.398-7.5,0.399-12.2c1.399-9.2,1.7-18.5-0.3-27.6c-4.2-19.2-27,1.2-31.5,8.8c-2.6,4.4-7.7,13.6-14.1,13.1
		c-8-0.6-6.399-8.1-8-12.9c-1.699-5-9-6.7-13.399-3.6c-5.4,3.8-9.2,15.6-17.601,14.2c-7.102-1.2-2.899-10-1.899-14.6
		c-4.2-4.7-9.3-3.5-11.7,1.5c-1.3,2.7-1.7,6.3-4.8,7.7c-4.2,1.9-7.9-1.5-5.9-5.9c-7.1-3.5-14.199-8.5-22.1-4
		c-3.5,2-7.9,4.3-11.1,6.7c-2.5,1.9-4.301,6.3-7.801,5.9c-4.199,4.2-8.8,8.7-11.5,14c-3.5,7-0.899,10.3,2.7,16.3
		c3,4.8,5.8,14.7,13.101,14.3c5.899-0.3,9.199-7.8,13.8-10.6c7-4.3,3.899,4.2,6.5,9.3c2.3,4.5,12,9.8,15.399,3.5
		c1.9-3.6-3.399-10.6,1-13c3.7-2,10.5,4,10.8,7.4c7.2,6.2-6,13.4-10.8,14.4c-3.399,0.7-6.699,0.9-10.199,1.3
		c-6.4,0.7-10.7,5.3-17.5,4.6c-5.7-0.6-9.2-2.3-12.9,3.5c-2.6,4.1-3.1,9-3.6,13.7c-1.101,10.3-9.9,7.2-15.7,14.2
		c-7.101-8.2-12.2,11.2-12.9,15.8c-1.7,10.1,5.7,9.398,8,16.6c1.8,5.602-0.6,17.102-5.8,19.9c-8.2,4.5-9.4-1-14.5-5.5
		c-11.9-10.5-11.2,12.1-14.3,19.301c-11.7-4.701-20.5,1.898-21.3,14.699c-0.801,12.898,11,12.699,18.5,18.699
		c5.699,4.602-1.601,15.102,5.399,17.399c3.7,1.199,6.5,1,10.3,2.9c4.2,2.199,7.5,3.299,12.301,2.799
		c17.199-1.9,38.8-4.1,51.1-17.601c4.8-5.199,7.1-10.102-1.2-12.301c-8.2-2.199-17.2-1.6-25.5-3.199
		c1.2-2.399,6.101-1.301,8.5-3.699c2.4-2.5,2.9-6.7,3.2-10c0.4-3.2-0.5-8.2,1-11.102c1.9-3.6,6.2-2.301,10.9-2.199
		c3.199,0,3.699-9.5,3.399-11.301c-0.6-4.5-3.2-8.398-3.399-12.898c-0.601-14.899,14.399-6.301,17.6,2.101c1.5,3.899,0.6,6.5,5.2,8
		c4.6,1.5,6.5-1.399,8.899-4.399c2.5,0.399,5.101,2.102,6.7,4.102c0,0.1-4.7,8.398-4.8,9.398c-0.601,3.5,0.399,6.602,3.5,8.5
		c5.5,3.399,19,3.199,24.899,1.301c11.801-3.801,16.601-15,17.801-26.301c1.1-10.199,8.5-9,14.1-16c3.1-3.898,2.1-7.801,1-12.299
		c-1.9-7.301-3.9-14.801-5.3-22.101c-9.4-3.1-28.2-5.1-26.3-18.5c0.699-5.3,4.1-10.5,9.897-8.1c4.9,2,4.5,8.4,7.9,10.6
		c2.1,1.3,6.897-0.2,9.198-0.9c4.699-1.4,3.899-3.5,7-6.2c6.699-5.8,9.302,6.7,15.899,6.7c7.2,0,9.8-13.2,8.9-18.4
		C318,139.25,319.699,139.15,321,138.65z"/>
	<polygon fill="#231F20" points="451.699,81.95 451.699,82.05 451.699,82.05 	"/>
	<path fill="#2B2B2B" d="M400.8,41.85c0.197,0.2,0.397,0.4,0.697,0.6c3.803,2.5,8.303-1.7,12.603-0.9c6.397,1.1,6.2,6.5,2.6,9.9
		c-3,0-18,4.3-17,6.9c0.603,1.5,10.5,2.1,12.2,2.4c5,0.9,11.2,1.3,15.8,3c9,3.2-3.8,13.7-9.3,14.7c-7.6,1.5-10-3-13.9-6.8
		c-3.1-3-2.3-3.2-7-1.4c-2,0.7-6.197,4-6.197,5.9c0,4.3,6.6,5,5.6,9.8c-1.6,7.8-19.5,13.1-15.5,1.7c-5.7-0.8-7.601,5.6-11.2,7.8
		c-6.6,4.1-14.1,0.2-9.199-6.5c-8.601-2.5-11.398,4.6-17.898,5.3c-5,0.5-2-14.5-1.801-16.8c0.398-3.6,0.398-5.7-3.301-7.1
		c-2.8-1.1-6.199-1.8-9.101-2.3c-4-0.7-8-0.3-11.601,1.5c-7.699,3.6-12.199,11.3-17.602,17.5c-3.8,4.4-7.3,6.1-11.1,0.8
		c-4.2-6-7-13.9-8.801-20.9c-1.199-4.5-2.602-10.5,2.699-12.8c6.399-2.7,15.5-0.7,22.102-0.3c8.898,0.7,18.398,1.9,27.3,0.4
		c5.399-0.9,7.7-3.5,3.3-7.7c-2.398-2.3-5.398-4.1-8.1-5.9c-1.7-1.2-5.602-3-6.4-5.1c-1.898-4.9,12.801-4.2,15.301-4.3
		c3.801-0.1,8.102,1,11.102-1.9c2.1-2.1,3.1-5.4,6.199-6.4c7.601-2.6,1.601,13.1,6.699,15.9c3.699,2,9-5.8,10.699-7.5
		c4.9-4.5,6.2-2.5,8.301,2c1.801,3.9,3.399,2.2,6.801,0c3.898-2.5,9.301-1.3,12.101,2.2C398.999,37.05,399.1,40.05,400.8,41.85z"/>
	<path fill="#2B2B2B" d="M401.499,113.25c-2.1-3.9-3.397-5.9-8-5c-11.1,2.3-20.499,12.5-26.698,21.5c1.898,0.5,4.101,1.6,6.101,1.8
		c1.399,0.1,13.5-3.7,13.8-3.2v0.1c-3.3,2-8.1,5.9-12,6.5c-5.1,0.8-18.8,1.5-14.398-7.9c5.898-12.6,16.101-20.3,29.898-21.5
		C396.899,104.85,399.8,106.95,401.499,113.25z"/>
	<path fill="#2B2B2B" d="M66.399,201.85c17.7-18.799,35.5-37.601,53.2-56.399l49.5-40.3c6-4.8,43.5-32.6,82.398-54.5
		c9-5,18.199-9.7,27.5-14c29-13.5,58.899-25,91.199-26.3c6.5-0.3,13-0.1,19.5,0.4c22.7,1.9,46.9,11.7,53.103,36.1
		c5.1,20.3-1.803,42-9.7,60.5c-10.5,24.5-25.103,46.3-43.8,65.2c-11.802-1.1-19.501,5.4-35.802-4.1c-0.199-0.1-16.5-11.2-16-27.4
		c-4.801,8.6,3.899,21.8,6.199,25c8,11,23.801,18.2,35.5,16.6c0.102,0,0.102,0,0.2,0c-9.7,9.2-21.101,17.898-34.899,26.3
		c5.899-1.301,12.801-4.301,18.602-7.201c6-3,11.699-6.5,17.1-10.399c11.2-8.1,21.2-18,29.8-28.8c16.9-21.2,27.7-45.6,37.7-70.5
		l0.103,4.1c0.1,4.5-1.603,9.1-1.603,13.6l0.4,0.2c6-6.9,6.1-15.4,4.2-24.1c-0.603-2.9,0.6-7,0.698-9.9
		c0.602-17.4,0.699-33.8-9-49.2C427.999,3.95,396.699-0.55,372,0.05c-9.9,0.2-19.601,1.3-29.301,2.9
		c-31.6,5.3-62.898,17.4-91.6,31.5c-7.301,3.6-15.102,7.8-22.602,12.2c-3.699-2.3-7-4.4-8.601-5.3c-15.2-8.6-18.2-14.4-34.7-18.3
		c-27.399-6.4-53.399-3.3-42,13.8c11.4,17.1,9.9,27.3,20.4,37.3c4.7,4.5,11.5,5.4,18.4,5.5l-20.801,15.6l-18.3,15.1
		c-24.6,23.5-49.5,46.1-67,75.8C72.6,191.35,69.5,196.65,66.399,201.85z M181.8,68.15c-8.8-2.3-13.3-10-13.2-19.2
		c0.2-9.2-23-14.5-4.1-19.1c16.5-4,34.899,7.6,48.899,14.9c3.2,1.7,6.2,3.6,9.2,5.5c-5.1,3.2-10,6.5-14.5,9.8l-14.7,11
		C189.699,69.85,185.5,69.15,181.8,68.15z"/>
	<path fill="#2B2B2B" d="M215.199,219.35c21.9,3.199,11.7-29,27.5-33c10.602-2.8,15,22.701,22,28.399c6.2,5,7.5-11,20.2-12.397
		c6.5-0.699,25.7,28.897,28.5,25.199c3.5-4.601,4.601-13.699,6-23c1.2-7.5-34.5-17.5-34-25c0.5-6.6,27.101,4.7,35.5,0.1
		c12.399-6.8,1.601-35-6.2-41.4c-5.699-4.7-15.699-8.4-22.8-3.9c-5.8,3.8-6.101,10.2-14.3,11.2c-10,1.1-19.9-5.1-29.7-5.1
		c-12-0.1-45,13.7-44.2,28.6c0.2,5.4,5.4,9.4,4.801,14.9c-0.601,5.2-6.601,5.3-11.7,7.1c-5.601,2.1-15.601,3.2-15.9,10.4
		c-0.399,7.399,6.7,11.699,14.601,14.199C202.5,218.051,210.5,219.051,215.199,219.35z"/>
	<path fill="#2B2B2B" d="M149.199,321.15c-9.399,18.1,2.2,41.6,1.101,54.201c-1.101,12.696-8.601,24.1-18,17.897
		c-9.4-6.202-16.7-6.201-21.4-11.5c-4.7-5.301,4.7-13.897,3-18.397c7.101,1.1,5,6.5,4.8,10.6c-0.199,4.1,4.2,6.6,10.5,7.1
		c6.4,0.5,5.2,10.199,12.301,3C150.399,375.352,127.899,336.45,149.199,321.15z"/>
	<path fill="#2B2B2B" d="M144.899,319.352c-25.399,21.1-44.7,50.196-46.6,82.6h-12c0.2-4.9,0.8-9.801,1.8-14.5
		c0.5-2.4,2.8-7.301,1.6-9.5c-1-1.9-6-3.4-7.8-2.201c-2.3,1.603-1.7,6.5-2,8.9c-0.8,5.701-3.899,12.897-9.7,6.397
		c-9.3-10.299-6.3-33.6-0.8-44.696c0.101-0.201,0.2-0.304,0.2-0.5c3.5-6.9,7.4-11.5,12.6-3c4-8.804,0.7-15.804,1.7-24.701
		c0.601-5.5,7.4-16.299,13.4-17.5c6.3-1.301,11.3,9.897,11.2,15.301c-0.101,5.1-5.601,7.799-6.2,12.799
		c-0.7,5.603,2.1,12.103,2.8,17.603c3.8-5.9,8-11.5,12.5-16.9c17.8-21,37.5-31.198,62.9-40l95-35.101l-91.899,44
		C170.1,304.15,156.199,309.95,144.899,319.352z"/>
	<path fill="#2B2B2B" d="M115.3,171.95c-8.601,1.1-14.3,6.9-18.101,14.4c-5.899,11.701-10.3,34.8-26.699,36.6
		c-3.2,0.399-12.801-2.399-15.4,0.799c-8.7,10.5-10.1,26.5-15.8,38.601c-5.4,11.301-15.8,16.701-25.9,22.899
		c-1.8,1.103-3.7,2.4-3.7,4.802c0,10.698,6.2,21.198,8.301,31.698c1.5,7.301-0.301,13.103-2.601,19.801
		c-4.899,14.603-8.7,29-2.3,44.4c2.2,5.4,4.8,10.799,7.5,16H9.3c-3.9-8.4-6.8-17.201-8.5-26.5c-2.601-14.6,1.6-25.301,6-38.6
		c5.7-16.9-7.5-31.103-6.7-48.103c0.4-9.898,11-12.699,17.6-17.199c16.101-11,17.301-29.5,25.2-46.199
		c2.3-4.698,4.7-9.698,9.9-11.399c6.5-2.101,18.1,3.399,22.8-2.5c9.7-12.299,13.6-30.6,27.3-39.399c16.8-10.8,39.9,3.9,55.601,9.8
		C145.199,178.05,129.399,170.15,115.3,171.95z"/>
</g>
</svg>
