<?xml version="1.0" encoding="utf-8"?>
<!-- Generator: Adobe Illustrator 15.0.0, SVG Export Plug-In . SVG Version: 6.00 Build 0)  -->
<!DOCTYPE svg PUBLIC "-//W3C//DTD SVG 1.1//EN" "http://www.w3.org/Graphics/SVG/1.1/DTD/svg11.dtd">
<svg version="1.1" id="Layer_1" xmlns="http://www.w3.org/2000/svg" xmlns:xlink="http://www.w3.org/1999/xlink" x="0px" y="0px"
	 width="281px" height="329px" viewBox="0 0 281 329" enable-background="new 0 0 281 329" xml:space="preserve">
<path fill="#2B2B2B" d="M165.7,8.7c11.7,3,24,4.5,34.2,10.8c11.9,7.4,21.4,18.4,29.3,30c8.7,12.8,16.3,26.7,20,41.8
	c3.9,16,1.8,32.5,1.4,49l-0.1,0.1l-12.3-45.6c-9.6-26.3-22.8-48.5-43.9-67.5L165.7,8.7L165.7,8.7z"/>
<polygon fill="#231F20" points="475.5,374.6 475.5,374.6 475.7,374.5 "/>
<g>
	<path fill="#2B2C2B" d="M191.3,122.3c-9.8-2-26.2-0.1-30.1-12.4c-5.7-17.9,18.1-30.4,21.5-46.7c4-18.7-6.5-31.8-18.3-44.7l0.6-0.9
		c5.9,4,12.2,7.7,16.6,13.2c3.9,4.9,6.5,10.7,8.2,16.7c5.8,22.2-9.2,36.9-18.1,55.4c-0.7,1.1-0.5,3.3,0.8,4.2c8.1,5.4,19,4,28,7.6
		c13.3,5.3,24.1,15.5,32.4,26.9c7.9,10.7,15.9,25.6,11.3,38.8C239.9,154.4,217.8,127.5,191.3,122.3z"/>
</g>
<path fill="#2B2B2B" d="M191.1,249.2c-12.7,1.1-2.5,17.7-10.8,22c-5.6,2.9-11.6-10.7-16.2-12.9c-4.2-2-2.7,7.1-9.6,9.5
	c-3.5,1.2-18.4-12.8-19.4-10.3c-1.3,3-0.7,8.2-0.2,13.6c0.4,4.3,21.7,5.2,22.5,9.5c0.6,3.7-15.8,0.9-19.9,4.6
	c-6,5.4,3.9,19.7,9.2,22.2c3.9,1.9,10,2.6,13.3-0.8c2.7-2.8,2-6.5,6.5-8.1c5.4-1.9,11.8,0.2,17.3-1c6.7-1.5,23.3-13.5,20.8-21.7
	c-0.9-3-4.3-4.5-4.7-7.6c-0.4-3,2.9-3.8,5.6-5.5c2.9-1.9,8.3-3.8,7.5-7.9c-0.8-4.2-5.3-5.6-10.2-6
	C198.4,248.3,193.8,248.8,191.1,249.2z"/>
<g>
	<path fill="#2B2C2B" d="M226.4,213.6c-16.3,21.7-41.2,26-66.8,27.3l-74.3,2.1c-13.8,0.6-25.9,0.8-38.5,6.7
		c12.4-6.7,24.6-7.7,38.5-9.1l74.5-6.2c5.6-0.4,11.2-0.9,16.8-1.3c7.5-0.5,15.2-0.4,22.2-3c22.5-8.3,32.6-25.5,39.5-47.4
		C235.6,194,233.7,204.2,226.4,213.6z"/>
</g>
<path fill="#2B2B2B" d="M0,213.6c15.5-0.3,31-0.2,46.5,0.1c5.9,0.1,11.7,0.2,17.6,0.3c1.2,0,2.4,0,3.5,0.1
	c9.4-10.6,20.6-16.8,35-13.1c5.9,1.5,11.6,4,17.4,6c5.6,1.9,11.5,4.6,17.5,4.8c6.8,0.2,11-4.3,15.9-8.2c4.6-3.7,8.7-4,14.1-1.7
	c5.6,2.4,10.8,5.6,16.2,8.3c5.3,2.7,11.4,6,17.3,3.1c2.9-1.4,5.2-3.7,7.9-5.4c3.2-1.9,6.6-2.9,10.1-4c8.5-2.5,11.3-7.1,12.6-15.6
	c-0.9,9.6-3.2,15.6-12,20.2c-3.5,1.8-7,3.6-10.1,6.1c-2.5,2-4.5,4.6-7.2,6.4c-5,3.4-11.2,1.2-16.5-0.3c-6.2-1.9-11-4.9-16.5-8.3
	c-6.4-3.9-10.6-1.6-16.2,2.5c-7.3,5.4-14.2,7.2-23,4.7c-15.1-4.4-32.3-15.7-48.4-8.6c-12.4,5.5-20.7,18.5-28.7,28.8
	c-1,1.2-2,2.5-2.9,3.7c3-3.7,4.8-9,7-13.3c2.4-4.6,5.1-9,8.1-13.1c-3,0.5-20.5,1.4-26.1,1.9c-11.5,1-23,2-34.6,2.2
	c-1.5,0-3.1,0.1-4.6,0.2V213.6z"/>
<path fill="#D92627" d="M11.9,254.2c-2.5,7,4.8,11.6-1.5,18.4c-5,5.1-7.5-0.1-10.4-4.1v-49.9c7.9-1.2,18.5,0.6,23.9,4.8
	c5.9,4.5,10.5,19.2,5.5,26C25.1,255.5,14.1,247.9,11.9,254.2z"/>
<path fill="#D92627" d="M69.2,329c-2.8-7.8-2.9-16.3-5.2-15.4c-4.4,1.7-2.6,9.8-1.5,15.4H0v-45.3c2.1-0.1,4.2-1.1,6.4-0.7
	c3.1-1.4,7.2-4.8,10.8-7.2c5.1-3.4,12.9-2.3,15.3-7.9c4-9.4,14.8-3.7,20.3,1.2c5.7,5.2,6.9,5.9,14.7,3.1c2.9-1,10.2-4.8,13-4.6
	c3.3,0.2,10,4.5,12.4,6.7c8.2,7.3,1.2,16.2,11.2,23.3c10.2,7.4,14.4,1.9,16.9-7.8c2.1-8.1,4.7-6.9,10.4-3.6
	c7.7,4.3,8.4,10.2,15.2,1.9c2.8-3.4,6.6-3.9,10.8-2.9c5.1,2.7,11.9,6.5,13.1,12.6c1.6,7.8-8.6,12.8-7.4,19.9
	c0.7,4.4,10.2,5.2,10,10.3c0,0.3-0.1,0.6-0.1,0.9H69.2z"/>
<path fill-rule="evenodd" clip-rule="evenodd" fill="#2B2B2B" d="M190.8,329h-22.3c10.8-8.7,21.1-18.6,30.7-28.2
	c23.8-23.8,42.7-52.1,52.2-84.6c4.7-15.8,6.9-32.1,7.5-48.6c0.2-4.4,1-48.6-1.7-49l0.5,0.1c3.7,19.9,8.7,40.1,9.5,60.3
	c1.2,33.4-10.1,66.3-28.2,94.2C226,293.7,209.5,312.6,190.8,329z"/>
<path fill="#2B2B2B" d="M50.8,329H0v-33.4c1.3-2.7,2-5.8,4.5-7.5c6.6-4.5,11.3,4.1,17.3,2.3c1.4-0.4,2.3-2.7,3.4-3.7
	c7-6,18.8-2,24.1,4.4c6.1,7.4,0.3,10.6-6.5,13.5c-9,3.8,2.1,15.4,5.7,19.6C49.9,325.8,50.6,327.4,50.8,329z"/>
</svg>
