<?xml version="1.0" encoding="utf-8"?>
<!-- Generator: Adobe Illustrator 15.0.0, SVG Export Plug-In . SVG Version: 6.00 Build 0)  -->
<!DOCTYPE svg PUBLIC "-//W3C//DTD SVG 1.1//EN" "http://www.w3.org/Graphics/SVG/1.1/DTD/svg11.dtd">
<svg version="1.1" id="Layer_1" xmlns="http://www.w3.org/2000/svg" xmlns:xlink="http://www.w3.org/1999/xlink" x="0px" y="0px"
	 width="456.67px" height="394.646px" viewBox="-0.1 7.476 456.67 394.646" enable-background="new -0.1 7.476 456.67 394.646"
	 xml:space="preserve">
<path fill="#FF9729" d="M330.5,240.201c-5.8-18.9-38.8-4-48.399-16.301c-10.801-13.9,20.301-20.199,5.199-33
	c-5.398-4.5-13.6-1.6-19.6-5.1c-10-5.8-9.7-7.5-3.301-14.4C273,162.2,280,158.7,282.2,144.7c-9.9,1.9-19.301,6.1-28-1.2
	c-9.602-8-10.102-23.2-19.4-31.7c-8.3-7.4-26.2-12.3-36.8-9.1c-9.4,2.8-22.2,18.5-19.3,29.2c2.5,9.7,19.6,5.6,19.3,14.4
	c-0.3,9.8-11.5,11.9-7,23.4c4.9,11.5,13.1-1.6,20.2-2.4c0.9,0.2,2.8,4.4,2.9,5.3c0.9,3.9-6.7,15.3-11.4,16.3c-5,1-7.5-3.5-11.8-4.5
	c-3.2-3.2-6.5-9.4-9.8-14.1c-4.6-6.6-14.8-9.1-15-17c-0.4-13.5-16.4-11.7-25.5-8.2c-9.5,3.6-11.3,3.9-19.6-3.3
	c-3.1-2.7-10.3-10.9-13.8-11.9c-4.2-1.3-14.5,0.7-18.4,2.3c-13.6,5.1-9.3,19.3-25,23.3c-16.1,4.1-18.7-4.5-17.1-17.8
	c1.3-11-2.4-10.7-11-9.5c-11.5,1.6-15.2,8.6-19.6-4.9c-1.7-5.5-6.3-8-11.9-8.7c-1.4,0.2-2.8,0.3-4.3,0.5v108.3
	c0.2,0.199,0.3,0.301,0.5,0.5c0,0,0,0,0.2,0.1c5.6,5.101,26.3,20.801,33.8,10.701c4.9-6.801-7.4-18.5-3.9-26.801
	c5.2-12.5,30.1,13.301,45.6,12c17.3-1.5,25.6-29,29.3-25.601c6.1,5.5-6.6,19.701-8.4,24.9c-4.6,13.6,12.2,13.2,6.5,22.801
	c-16.4-3.4-20.8,8.1-16.5,21.5c9,28.799,32.4,18.5,53.8,17.299c15.3-0.898,20,12,34.6,1.9c13.8-9.601,20.4-16.4,17.5-33.199
	c-1.3-7-2.2-15.4,3.2-20.9c7.2-7.1,19-4.5,18.8,6.602c-0.2,9.199-10.9,11.199-1.7,20.299c8.7,8.601,14.5,1.4,14.7,14.9
	c0.1,7.398-1.8,14.1,8.1,14.5c2.899,0.1,10.601-9.801,19-8.9c11.3,1.201,23.5,13.201,28.3,10.801c4.2-2.2,2.102-3.2,3.7-6.5
	C294.3,266.4,339.2,267.9,330.5,240.201z"/>
<path fill="#2B2B2B" d="M188.3,347.201c-5.7,3.6-13.3,3.398-19.6,5.398c-6.2,2-28.1,11.4-34.2,13.602
	C112.7,374.099,107.6,381,85.1,382.5c-37.3,2.5-70.8-7-52.1-26.699c18.6-19.701,18.8-33.1,34.6-43.801
	c15.8-10.699,40.9,3.6,54.1-1.199c-3.5,13.5-19.4,11.699-31.3,12.799c-12,1.102-19.6,10.102-21.4,22
	c-1.8,11.9-33.3,13.803-9.4,23.803c20.8,8.697,47.3-2.5,67.3-9c10.5-3.4,20.3-8.701,30.7-12.201c5.2-1.699,10.6-3.102,16.1-3.4
	C175.6,344.701,187.6,347.599,188.3,347.201z"/>
<path fill="#010101" d="M307.399,325.8c4.699-2.701,12.199,1.299,16.699,9.102c4.5,7.799,4.301,16.299-0.3,18.898
	c-4.7,2.699-12.2-1.301-16.7-9.1C302.601,337,302.601,328.5,307.399,325.8z"/>
<polygon fill="#231F20" points="393.8,393.8 393.8,393.8 394.101,393.8 "/>
<path fill="#2B2B2B" d="M357.399,249.3c2.899,0.199,5.899,0.699,7.899-1.5c3.2-3.399-1.2-8.801,3.9-11.301
	c3.5-1.699,14.399,1.4,17,3.9c6,5.801,2.6,14.6-2.7,18.699c-3.9,2.9-16.1,9.699-17.4,14.4c-2.199,8.699,16.602,4.299,19.9,2
	c7.1-4.801,9.9-17,21-12.101c7.1,3.101,14.899,13,2,12.8c0.7,6.6,8.6,5.5,12.8,8.301c12.3,8.5-8.2,7.199-11.6,10.6
	c-3.5,3.5-3.7,11.199,1.199,13.699c6.699,3.4,14.5-6.898,16.301,5.9c1.6,11.201-6.2,11.801-13.9,15.898
	c-4.898,2.602-8.2,15-12.2,15.303c-9.1,0.398-11.1-19.201-21.3-16.102c-5.8,1.799-10.2,19.4-18.2,17.102
	c-5.6-1.602-0.8-16.701-2.898-20.4c-4.102-8.1-13.7-2-20.801-3.201c-13.101-2.5-2.899-10,0.899-15.5
	c4.5,1.701,16.7,3.201,19.3-2.199c3.4-6.801-8.8-5.398-12.8-5.699c-7.7-0.4-18.5-0.102-25.8-2.701c-12.7-4.398,0.7-9.398,6.6-12.6
	c6.602-3.4,8.801-6.199,8.7-13.199c-0.3-13.5,3.4-18.4,18.101-22C355.101,249.1,356.2,249.1,357.399,249.3z"/>
<path fill="#2B2B2B" d="M205.2,272.5c-11.8-3.799-11.1-4.399-5.9-14.199c1.4-2.7-0.1-6.801,1.4-10.301
	c2.4-5.299,2.6-7.299-0.6-12.199c-4-6.1-1.7-8.5,2.5-12.801c4.7-5-7.8-12.199-9.1-16.199c-1.7-4.801,0.4-10.6-2.6-15.1
	c-5.9-8.7-15.9-0.4-22.4-5.4c-1.5-1.2-1.5-4.4-2.4-6.2c-5.8-10.8-22.1-11.6-31.7-6.2c-11,6.2-5.4,12.9,1.5,19.7
	c9.3,9-10,17.899-16.4,21.3c-9.5,4.898-6.8,14.5-1.2,22.5c6.2,9.1,14.1,15.801,10.8,27.699c-3.2,11.301-7.2,21.602,2.9,30.9
	c4.7,4.299,9.2,11.799,16.4,11.1c5.3-0.5,15.7-11.5,20.4-5.5c1.9,2.5,0.6,6.4,1.7,9.199c3.2,7.801,14-1.1,20,0.801
	c4.9,1.5,9.4,2.5,14.8,3.102c5.7,0.6,8.1,1,11-4C222.6,299.5,219.5,277,205.2,272.5z"/>
<g>
	<path fill="#2B2C2B" d="M330.899,357.599c2.899-4.398,4.399-7,0.699-11.398c-9.699-11.5-24.898-13.5-38.8-16.699
		c0,0,0.5,2.699,0.5,2.9c1.4,7.299,7.8,12.5,12.5,17.697l0,0c-4.1-2.5-11.2-5.299-14.1-9.299c-3.9-4.898-12.5-19.301,0.1-19.898
		c17.101-0.701,31.3,5.898,40.8,20C337.3,347.9,336.601,352.099,330.899,357.599z"/>
</g>
<path fill="#2B2B2B" d="M323.899,144.6C330,141.4,334,89.1,323.2,68.2c-10.801-21-32-35.4-44.602-18.1
	C266,67.4,252.899,72.4,248,84.8c-4.899,12.4,18.101,20.6,18,29.5c12-6.9,4.5-14.7,1.399-21.5c-3.1-6.9,2.9-14.3,13.9-19.6
	c11-5.3,7.2-26.2,20-13.8C314.2,71.6,332.3,108.1,323.899,144.6z"/>
<path fill="#2B2B2B" d="M454.9,308.5c-1-4.699-2.302-9.199-3.9-13.699c-7.3-19.5-19.5-37.399-31.1-54.5
	C404.7,218,383.5,199.4,363,182.1c-11.5-9.7-22.5-20.8-34.8-29.6c-14-10.1-30-18.2-45-27.1c-11.102-6.7-23-11.2-34.801-16.3
	c-24.199-10.3-48.601-19.9-73.299-29c-7.3-2.7-14.5-5.4-21.8-8c-1.5-0.5-2.9-1.1-4.4-1.6c-6.5-17.5-17.2-30.6-36.7-32.9
	c-8-1-16.2-0.7-24.2-1c-7.7-0.4-16.4,0.1-23.8-2.5c-8.4-3-11.4-10.5-15.6-17.7c-3.9-6.7-8.8-9.2-16.5-8.9c-8,0.3-16,1.6-24,2.4
	c-2.6,0.3-5.4,0.5-8.1,0.6v11.2c0.1,0,0.2,0,0.3,0c8.6,0.7,15.9-0.7,24.3-2.2c9.8-1.7,13.8,3.1,18.7,10.9
	c6.3,10.1,14,15.7,26.1,16.8C90,49,116.6,43.4,133,59.9c12.6,12.7,16.5,32.7,21.4,49.2c0.6,2,1.2,4,1.8,6c-1.9-6-1.5-13.4-2.3-19.7
	c-0.8-6.8-1.9-13.5-3.7-20.1c3.4,2.1,24.5,11.7,31.1,14.9c13.7,6.8,27.4,13.5,41.5,19.3c6.7,2.8,13.2,5.9,19.801,9
	c3.301,1.5,11.199,5.3,12.301,8.9c-31.7,6.5,11.898,22.6,8.199,23.4c-29.601,6.4,15.801,11,7.199,12.7
	c-10.6,2.1-12.898,9.9-18.5,7.7c-5.699-2.3-13.3,6.5-7.699,11.1c1.899,1.5,5.601,1.3,7.101,3.1c1.8,2-4.9,8.4-5.601,10
	c-3.199,7.1,6.301,24.1,13.601,24.1c6.1,0,13.6-2.6,18.6-6.1c4.8-3.4,9.9-5.5,15.7-1.801c4.1,2.602,5.3,10.4,11.6,8.699
	c6-1.6,10.5-5.299,16.701-1.898c3.6,2,6.699,5.6,11.1,6c6.301,0.5,11.199-3.801,13.601-9.199c1.5-3.301,2.8-12.701,7.899-10.5
	C365.8,209.6,364.5,227.201,379.3,224c2.801-0.6,5.9-3.699,6.4-5.299c7.699,6.5,14.2,13.398,20.8,21
	c13.3,15.5,25.1,35.1,33.5,53.799c6.4,14.201,11.7,29.9,7.5,45.5c-4,14.6-15.9,25.6-29.1,32.201
	c-31.101,15.699-67.9,19.398-102.3,16.5c-9.899-0.801-19.801-2.102-29.5-3.9c-18.5-3.398-37.601-11.1-40.199-32
	c-1-8.201-2.102-17.1,1.199-24.898c3.601-8.5,9-16,15.5-22.501c-20,8.698-31.701,26.698-26.301,48.899
	c1.602,6.699,6,13.102,7.2,19.699c-7.399-1.1-43.3-31.6-51.2-24.799c7,6.199,15.7,11.299,23.5,16.5C234,376.599,253.3,385,274,389.9
	c24.601,5.898,49.899,7.699,75.2,6.1c8.199-0.5,31.699-1.799,34.6-3.6c-2.898,1.801-5,3.398-8.3,4.5c-3.5,1.199-7.2,2.199-10,4.801
	c12.3,2.299,22.8-5.301,33.2-10.4c18.898-9.201,37.3-14.1,49-33.398C456.8,343,458.3,325.3,454.9,308.5z"/>
<path fill="#2B2C2B" d="M114.3,94.5L25.6,51.1c-6.7-3.2-13.3-6.5-20-9.6c-1.9-0.9-3.7-1.7-5.6-2.6v8.7c7.3,4.2,15,8,22.9,11.6
	l90.3,38.4c16.7,7.5,31.4,13.5,44.1,26.8C145.3,110.1,130.8,103,114.3,94.5z"/>
<path fill="#2B2B2B" d="M16.3,94.5C9,88.3,15.2,77.8,9.1,78.2c-2.4,0.2-5.6,2-9.1,4v64c2.3,0.6,4.8,0.8,6.9,0.6
	c7.7-0.6,26.8-13.4,22-22.9c-3.3-6.4-24.8-10.9-22.2-15.2c3-4.9,29.7,4.3,32.2-0.8c3.2-6.3,6.5-12.4,6.3-16.8
	C45,87.7,20,97.7,16.3,94.5z"/>
<path fill="#2B2B2B" d="M73.1,276.5C45.8,256.4,21.4,233.1,0,206.6v26.2c3.8,3.8,7.2,7.199,11.2,10.8
	c33.8,30.899,78,46.601,119.1,66.7L73.1,276.5z"/>
</svg>
