<?xml version="1.0" encoding="utf-8"?>
<!-- Generator: Adobe Illustrator 15.0.0, SVG Export Plug-In . SVG Version: 6.00 Build 0)  -->
<!DOCTYPE svg PUBLIC "-//W3C//DTD SVG 1.1//EN" "http://www.w3.org/Graphics/SVG/1.1/DTD/svg11.dtd">
<svg version="1.1" id="Layer_1" xmlns="http://www.w3.org/2000/svg" xmlns:xlink="http://www.w3.org/1999/xlink" x="0px" y="0px"
	 width="451.748px" height="401.951px" viewBox="0 0 451.748 401.951" enable-background="new 0 0 451.748 401.951"
	 xml:space="preserve">
<g>
	<path fill="#2B2B2B" d="M377.049,283.65c7.301,9.6,13.601,21.201,17.898,32.5c11.1,28.301,10.9,58.1,2.301,85.801h8.799
		c5.804-18.4,8.304-37.701,6.804-56.6c-1-13.103-4.4-25.804-9.701-37.804c-9.199-20.698-23.199-38.499-38.199-55.299
		c-7.601-8.5-15.301-16.801-23-25.1c-6-6.5-11.701-14.701-18.801-20.201c-6.199-4.699-12.4-9.399-18.601-14.2
		c-3.602-2.8-8.199-5.3-11.301-8.6l57.699,64.7C359.649,260.45,368.248,272.15,377.049,283.65z"/>
	<path fill="#1C1C1C" d="M82.249,117.65c0.2-4.5-5.6-8.3-12.9-8.5c-7.3-0.2-13.4,3.3-13.7,7.7c-0.2,4.5,5.6,8.3,12.9,8.5
		C75.949,125.65,82.049,122.15,82.249,117.65z"/>
	<path fill="#2B2B2B" d="M113.149,210.65c-5.1,3.1-3.2,59.398,7.1,81.6c10.4,22.201,29.5,38.201,39.7,21
		c10.2-17.199,21.3-21.799,25-34.398c3.6-12.602-16.7-22.198-17.1-31.399c-10.1,6.5-3.3,15-0.2,22.201c3.1,7.299-1.9,14.6-11.2,19.6
		c-9.4,5-1,21.699-16.7,13.299C120.249,292.249,117.649,244.051,113.149,210.65z"/>
	<path fill="#FF9729" d="M130.849,138.65c-1.9-0.6-3.2-1.8-5-4.6c-2.7-4-7.8-9.8-6.8-15c0.6-3.1,2.9-3,4.3-5.2
		c2.5-3.9,0.4-7.5-0.4-12.2c-1.4-9.2-1.7-18.5,0.3-27.6c4.2-19.2,27,1.2,31.5,8.8c2.6,4.4,7.7,13.6,14.1,13.1c8-0.6,6.4-8.1,8-12.9
		c1.7-5,9-6.7,13.4-3.6c5.4,3.8,9.2,15.6,17.6,14.2c7.1-1.2,2.9-10,1.9-14.6c4.2-4.7,9.301-3.5,11.7,1.5
		c1.301,2.7,1.701,6.3,4.801,7.7c4.199,1.9,7.9-1.5,5.9-5.9c7.1-3.5,14.198-8.5,22.1-4c3.5,2,7.9,4.3,11.101,6.7
		c2.5,1.9,4.301,6.3,7.801,5.9c4.199,4.2,8.801,8.7,11.5,14c3.5,7,0.898,10.3-2.699,16.3c-3,4.8-5.801,14.7-13.102,14.3
		c-5.898-0.3-9.199-7.8-13.801-10.6c-7-4.3-3.898,4.2-6.5,9.3c-2.3,4.5-12,9.8-15.398,3.5c-1.9-3.6,3.398-10.6-1-13
		c-3.699-2-10.5,4-10.8,7.4c-7.199,6.2,6,13.4,10.8,14.4c3.398,0.7,6.699,0.9,10.199,1.3c6.399,0.7,10.699,5.3,17.5,4.6
		c5.699-0.6,9.199-2.3,12.899,3.5c2.601,4.1,3.101,9,3.601,13.7c1.102,10.3,9.899,7.2,15.699,14.2c7.102-8.2,12.2,11.2,12.899,15.8
		c1.701,10.1-5.699,9.398-8,16.6c-1.799,5.602,0.601,17.102,5.801,19.9c8.199,4.5,9.4-1,14.5-5.5c11.9-10.5,11.199,12.1,14.3,19.301
		c11.7-4.701,20.5,1.898,21.301,14.699c0.801,12.898-11,12.699-18.5,18.699c-5.699,4.602,1.602,15.102-5.398,17.399
		c-3.701,1.199-6.5,1-10.301,2.9c-4.199,2.199-7.5,3.299-12.301,2.799c-17.199-1.9-38.801-4.1-51.101-17.601
		c-4.801-5.199-7.1-10.102,1.199-12.301c8.201-2.199,17.201-1.6,25.5-3.199c-1.199-2.399-6.101-1.301-8.5-3.699
		c-2.399-2.5-2.899-6.7-3.199-10c-0.399-3.2,0.5-8.2-1-11.102c-1.899-3.6-6.2-2.301-10.899-2.199c-3.199,0-3.699-9.5-3.398-11.301
		c0.6-4.5,3.199-8.398,3.398-12.898c0.602-14.899-14.398-6.301-17.601,2.101c-1.5,3.899-0.6,6.5-5.2,8
		c-4.6,1.5-6.5-1.399-8.898-4.399c-2.5,0.399-5.099,2.102-6.699,4.102c0,0.1,4.699,8.398,4.799,9.398c0.602,3.5-0.398,6.602-3.5,8.5
		c-5.5,3.399-19,3.199-24.899,1.301c-11.8-3.801-16.6-15-17.8-26.301c-1.1-10.199-8.5-9-14.1-16c-3.1-3.898-2.1-7.801-1-12.299
		c1.9-7.301,3.9-14.801,5.3-22.101c9.4-3.1,28.2-5.1,26.3-18.5c-0.7-5.3-4.1-10.5-9.9-8.1c-4.9,2-4.5,8.4-7.9,10.6
		c-2.1,1.3-6.9-0.2-9.2-0.9c-4.7-1.4-3.9-3.5-7-6.2c-6.7-5.8-9.3,6.7-15.9,6.7c-7.2,0-9.8-13.2-8.9-18.4
		C133.849,139.25,132.149,139.15,130.849,138.65z"/>
	<polygon fill="#231F20" points="0.149,81.95 0.149,82.05 0.149,82.05 	"/>
	<path fill="#2B2B2B" d="M51.049,41.85c-0.2,0.2-0.4,0.4-0.7,0.6c-3.8,2.5-8.3-1.7-12.6-0.9c-6.4,1.1-6.2,6.5-2.6,9.9
		c3,0,18,4.3,17,6.9c-0.6,1.5-10.5,2.1-12.2,2.4c-5,0.9-11.2,1.3-15.8,3c-9,3.2,3.8,13.7,9.3,14.7c7.6,1.5,10-3,13.9-6.8
		c3.1-3,2.3-3.2,7-1.4c2,0.7,6.2,4,6.2,5.9c0,4.3-6.6,5-5.6,9.8c1.6,7.8,19.5,13.1,15.5,1.7c5.7-0.8,7.6,5.6,11.2,7.8
		c6.6,4.1,14.1,0.2,9.2-6.5c8.6-2.5,11.4,4.6,17.9,5.3c5,0.5,2-14.5,1.8-16.8c-0.4-3.6-0.4-5.7,3.3-7.1c2.8-1.1,6.2-1.8,9.1-2.3
		c4-0.7,8-0.3,11.6,1.5c7.7,3.6,12.2,11.3,17.6,17.5c3.8,4.4,7.3,6.1,11.1,0.8c4.2-6,7-13.9,8.8-20.9c1.2-4.5,2.6-10.5-2.7-12.8
		c-6.4-2.7-15.5-0.7-22.1-0.3c-8.9,0.7-18.4,1.9-27.3,0.4c-5.4-0.9-7.7-3.5-3.3-7.7c2.4-2.3,5.4-4.1,8.1-5.9c1.7-1.2,5.6-3,6.4-5.1
		c1.9-4.9-12.8-4.2-15.3-4.3c-3.8-0.1-8.1,1-11.1-1.9c-2.1-2.1-3.1-5.4-6.2-6.4c-7.6-2.6-1.6,13.1-6.7,15.9c-3.7,2-9-5.8-10.7-7.5
		c-4.9-4.5-6.2-2.5-8.3,2c-1.8,3.9-3.4,2.2-6.8,0c-3.9-2.5-9.3-1.3-12.1,2.2C52.849,37.05,52.749,40.05,51.049,41.85z"/>
	<path fill="#2B2B2B" d="M50.349,113.25c2.1-3.9,3.4-5.9,8-5c11.1,2.3,20.5,12.5,26.7,21.5c-1.9,0.5-4.1,1.6-6.1,1.8
		c-1.4,0.1-13.5-3.7-13.8-3.2v0.1c3.3,2,8.1,5.9,12,6.5c5.1,0.8,18.8,1.5,14.4-7.9c-5.9-12.6-16.1-20.3-29.9-21.5
		C54.949,104.85,52.049,106.95,50.349,113.25z"/>
	<path fill="#2B2B2B" d="M376.149,186.15c-17.5-29.6-42.4-52.3-67-75.8l-18.302-15.1l-20.799-15.6c6.898-0.1,13.601-1,18.398-5.5
		c10.4-10,8.9-20.2,20.4-37.3c11.397-17.1-14.603-20.2-42-13.8c-16.5,3.9-19.4,9.7-34.699,18.3c-1.602,0.9-5,3-8.601,5.3
		c-7.5-4.4-15.3-8.6-22.6-12.2c-28.7-14.1-60-26.3-91.6-31.5c-9.899-1.6-19.599-2.7-29.499-2.9c-24.7-0.6-56,3.9-70.5,26.8
		c-9.7,15.4-9.6,31.8-9,49.2c0.1,2.9,1.3,7,0.7,9.9c-1.8,8.6-1.8,17.2,4.2,24.1l0.4-0.2c0-4.6-1.7-9.1-1.6-13.6l0.1-4.1
		c10.1,25,20.8,49.3,37.7,70.5c8.6,10.8,18.5,20.7,29.8,28.8c5.4,3.9,11.1,7.399,17.1,10.399c5.7,2.899,12.7,5.899,18.6,7.199
		c-13.8-8.398-25.2-17.099-34.9-26.299c0.1,0,0.1,0,0.2,0c11.7,1.6,27.5-5.6,35.5-16.6c2.3-3.1,11-16.4,6.2-25
		c0.5,16.2-15.7,27.3-16,27.4c-16.2,9.5-24,3-35.8,4.1c-18.7-19-33.3-40.7-43.8-65.2c-8-18.6-14.8-40.3-9.7-60.5
		c6.2-24.6,30.4-34.3,53.1-36.2c6.5-0.6,13-0.7,19.5-0.4c32.3,1.3,62.2,12.8,91.2,26.3c9.3,4.3,18.5,9,27.5,14
		c38.899,21.8,76.399,49.7,82.399,54.5l49.5,40.3c17.699,18.8,35.5,37.6,53.199,56.399
		C382.348,196.65,379.248,191.35,376.149,186.15z M258.348,71.05l-14.698-11c-4.4-3.3-9.4-6.6-14.5-9.8c3-1.9,6-3.8,9.198-5.5
		c14-7.3,32.302-19,48.898-14.9c18.9,4.6-4.199,9.9-4.1,19.1c0.099,9.2-4.4,16.9-13.199,19.2
		C266.348,69.15,262.149,69.85,258.348,71.05z"/>
	<path fill="#2B2B2B" d="M256.448,215.65c8-2.5,15-6.801,14.601-14.199c-0.3-7.201-10.199-8.3-15.898-10.4
		c-5.102-1.8-11.102-1.9-11.699-7.1c-0.602-5.5,4.6-9.4,4.799-14.9c0.9-14.9-32.198-28.7-44.198-28.6c-9.8,0-19.7,6.2-29.7,5.1
		c-8.2-1-8.5-7.5-14.3-11.2c-7.1-4.4-17-0.8-22.8,3.9c-7.8,6.4-18.6,34.6-6.2,41.4c8.4,4.6,35-6.7,35.5-0.1c0.5,7.5-35.2,17.5-34,25
		c1.4,9.301,2.5,18.4,6,23c2.8,3.699,22-25.897,28.5-25.199c12.6,1.398,14,17.398,20.2,12.398c6.9-5.6,11.4-31.099,22-28.399
		c15.799,4,5.5,36.2,27.5,33C241.348,219.051,249.348,218.051,256.448,215.65z"/>
	<path fill="#2B2B2B" d="M302.649,321.15c9.397,18.1-2.201,41.6-1.103,54.201c1.103,12.696,8.603,24.1,18,17.897
		c9.4-6.201,16.699-6.201,21.4-11.5c4.699-5.301-4.701-13.897-3-18.397c-7.102,1.1-5,6.5-4.801,10.6s-4.199,6.6-10.5,7.1
		c-6.4,0.5-5.199,10.199-12.301,3C301.448,375.352,323.948,336.45,302.649,321.15z"/>
	<path fill="#2B2B2B" d="M306.948,319.352c25.399,21.1,44.701,50.196,46.601,82.6h12c-0.199-4.9-0.8-9.801-1.8-14.5
		c-0.5-2.4-2.801-7.301-1.6-9.5c1-1.9,6-3.4,7.799-2.201c2.301,1.603,1.701,6.5,2,8.9c0.801,5.701,3.899,12.897,9.701,6.397
		c9.299-10.299,6.299-33.6,0.799-44.696c-0.101-0.201-0.199-0.304-0.199-0.5c-3.5-6.9-7.399-11.5-12.6-3
		c-4-8.804-0.701-15.804-1.701-24.701c-0.601-5.5-7.399-16.299-13.399-17.5c-6.299-1.301-11.299,9.897-11.199,15.301
		c0.102,5.1,5.602,7.799,6.199,12.799c0.701,5.603-2.101,12.103-2.799,17.603c-3.802-5.9-8-11.5-12.5-16.9
		c-17.802-21-37.5-31.198-62.9-40l-94.999-35.101l91.899,44C281.748,304.15,295.649,309.95,306.948,319.352z"/>
	<path fill="#2B2B2B" d="M336.549,171.95c8.601,1.1,14.301,6.9,18.101,14.4c5.899,11.701,10.301,34.8,26.7,36.601
		c3.199,0.398,12.8-2.4,15.398,0.799c8.699,10.5,10.103,26.5,15.799,38.602c5.401,11.299,15.802,16.699,25.901,22.897
		c1.801,1.103,3.701,2.4,3.701,4.802c0,10.698-6.201,21.198-8.301,31.698c-1.5,7.301,0.301,13.103,2.6,19.801
		c4.9,14.603,8.701,29,2.301,44.4c-2.201,5.4-4.801,10.799-7.5,16h11.199c3.9-8.4,6.801-17.201,8.5-26.5c2.6-14.6-1.6-25.301-6-38.6
		c-5.699-16.9,7.5-31.103,6.701-48.103c-0.4-9.898-11-12.699-17.603-17.199c-16.1-11-17.301-29.5-25.198-46.199
		c-2.302-4.7-4.699-9.7-9.9-11.399c-6.5-2.101-18.101,3.399-22.799-2.5c-9.701-12.3-13.603-30.6-27.302-39.4
		c-16.801-10.8-39.899,3.9-55.602,9.8C306.649,178.05,322.448,170.15,336.549,171.95z"/>
</g>
</svg>
