<?xml version="1.0" encoding="utf-8"?>
<!-- Generator: Adobe Illustrator 15.0.0, SVG Export Plug-In . SVG Version: 6.00 Build 0)  -->
<!DOCTYPE svg PUBLIC "-//W3C//DTD SVG 1.1//EN" "http://www.w3.org/Graphics/SVG/1.1/DTD/svg11.dtd">
<svg version="1.1" id="Layer_1" xmlns="http://www.w3.org/2000/svg" xmlns:xlink="http://www.w3.org/1999/xlink" x="0px" y="0px"
	 width="451.893px" height="401.95px" viewBox="7.6 6.05 451.893 401.95" enable-background="new 7.6 6.05 451.893 401.95"
	 xml:space="preserve">
<g>
	<path fill="#2B2B2B" d="M82.4,289.7c-7.3,9.6-13.6,21.2-17.9,32.5c-11.1,28.3-10.9,58.1-2.3,85.8h-8.8c-5.8-18.4-8.3-37.7-6.8-56.6
		c1-13.101,4.4-25.801,9.7-37.801c9.2-20.699,23.2-38.5,38.2-55.3c7.6-8.5,15.3-16.8,23-25.1c6-6.5,11.7-14.7,18.8-20.2
		c6.2-4.7,12.4-9.4,18.6-14.2c3.6-2.8,8.2-5.3,11.3-8.6l-57.7,64.7C99.8,266.5,91.2,278.2,82.4,289.7z"/>
	<path fill="#1C1C1C" d="M377.2,123.7c-0.2-4.5,5.6-8.3,12.899-8.5c7.301-0.2,13.4,3.3,13.7,7.7c0.2,4.5-5.6,8.3-12.899,8.5
		C383.5,131.7,377.4,128.2,377.2,123.7z"/>
	<path fill="#2B2B2B" d="M346.3,216.7c5.101,3.1,3.2,59.399-7.1,81.6c-10.4,22.2-29.5,38.2-39.7,21s-21.3-21.8-25-34.399
		c-3.6-12.601,16.7-22.2,17.1-31.4c10.101,6.5,3.301,15,0.2,22.2c-3.1,7.3,1.9,14.6,11.2,19.6c9.4,5,1,21.7,16.7,13.3
		C339.2,298.3,341.8,250.1,346.3,216.7z"/>
	<path fill="#D92425" d="M328.6,144.7c1.9-0.6,3.2-1.8,5-4.6c2.7-4,7.801-9.8,6.801-15c-0.601-3.1-2.9-3-4.301-5.2
		c-2.5-3.9-0.399-7.5,0.4-12.2c1.4-9.2,1.7-18.5-0.3-27.6c-4.2-19.2-27,1.2-31.5,8.8C302.1,93.3,297,102.5,290.6,102
		c-8-0.6-6.399-8.1-8-12.9c-1.699-5-9-6.7-13.399-3.6c-5.4,3.8-9.2,15.6-17.601,14.2c-7.1-1.2-2.899-10-1.899-14.6
		c-4.2-4.7-9.3-3.5-11.7,1.5c-1.3,2.7-1.7,6.3-4.8,7.7c-4.2,1.9-7.9-1.5-5.9-5.9c-7.1-3.5-14.2-8.5-22.1-4c-3.5,2-7.9,4.3-11.1,6.7
		c-2.5,1.9-4.3,6.3-7.8,5.9c-4.2,4.2-8.8,8.7-11.5,14c-3.5,7-0.9,10.3,2.7,16.3c3,4.8,5.8,14.7,13.1,14.3c5.9-0.3,9.2-7.8,13.8-10.6
		c7-4.3,3.9,4.2,6.5,9.3c2.3,4.5,12,9.8,15.4,3.5c1.9-3.6-3.4-10.6,1-13c3.7-2,10.5,4,10.8,7.4c7.2,6.2-6,13.4-10.8,14.4
		c-3.4,0.7-6.7,0.9-10.2,1.3c-6.4,0.7-10.7,5.3-17.5,4.6c-5.7-0.6-9.2-2.3-12.9,3.5c-2.6,4.1-3.1,9-3.6,13.7
		c-1.1,10.3-9.9,7.2-15.7,14.2c-7.1-8.2-12.2,11.2-12.9,15.8c-1.7,10.1,5.7,9.399,8,16.6c1.8,5.601-0.6,17.101-5.8,19.9
		c-8.2,4.5-9.4-1-14.5-5.5c-11.9-10.5-11.2,12.1-14.3,19.3c-11.7-4.7-20.5,1.9-21.3,14.7c-0.8,12.899,11,12.7,18.5,18.7
		c5.7,4.6-1.6,15.1,5.4,17.399c3.7,1.2,6.5,1,10.3,2.9c4.2,2.2,7.5,3.3,12.3,2.8c17.2-1.9,38.8-4.1,51.1-17.6
		c4.8-5.2,7.1-10.101-1.2-12.301c-8.2-2.199-17.2-1.6-25.5-3.199c1.2-2.4,6.1-1.301,8.5-3.7c2.4-2.5,2.9-6.7,3.2-10
		c0.4-3.2-0.5-8.2,1-11.101c1.9-3.6,6.2-2.3,10.9-2.199c3.2,0,3.7-9.5,3.4-11.301c-0.6-4.5-3.2-8.399-3.4-12.899
		c-0.6-14.9,14.4-6.3,17.6,2.1c1.5,3.9,0.6,6.5,5.2,8s6.5-1.399,8.9-4.399c2.5,0.399,5.101,2.1,6.7,4.1c0,0.1-4.7,8.4-4.8,9.4
		c-0.601,3.5,0.399,6.6,3.5,8.5c5.5,3.399,19,3.199,24.899,1.3c11.801-3.8,16.601-15,17.801-26.3c1.1-10.2,8.5-9,14.1-16
		c3.1-3.9,2.1-7.801,1-12.3c-1.9-7.3-3.9-14.8-5.3-22.1c-9.4-3.1-28.2-5.1-26.3-18.5c0.699-5.3,4.1-10.5,9.899-8.1
		c4.9,2,4.5,8.4,7.9,10.6c2.1,1.3,6.899-0.2,9.2-0.9c4.699-1.4,3.899-3.5,7-6.2c6.699-5.8,9.3,6.7,15.899,6.7
		c7.2,0,9.8-13.2,8.9-18.4C325.6,145.3,327.3,145.2,328.6,144.7z"/>
	<polygon fill="#231F20" points="459.3,88 459.3,88.1 459.3,88.1 	"/>
	<path fill="#2B2B2B" d="M408.4,47.9c0.199,0.2,0.399,0.4,0.699,0.6c3.801,2.5,8.301-1.7,12.601-0.9c6.399,1.1,6.2,6.5,2.6,9.9
		c-3,0-18,4.3-17,6.9c0.601,1.5,10.5,2.1,12.2,2.4c5,0.9,11.2,1.3,15.8,3c9,3.2-3.8,13.7-9.3,14.7c-7.6,1.5-10-3-13.9-6.8
		c-3.1-3-2.3-3.2-7-1.4c-2,0.7-6.199,4-6.199,5.9c0,4.3,6.6,5,5.6,9.8c-1.6,7.8-19.5,13.1-15.5,1.7c-5.7-0.8-7.6,5.6-11.2,7.8
		c-6.6,4.1-14.1,0.2-9.2-6.5c-8.6-2.5-11.399,4.6-17.899,5.3c-5,0.5-2-14.5-1.8-16.8c0.399-3.6,0.399-5.7-3.301-7.1
		c-2.8-1.1-6.199-1.8-9.1-2.3c-4-0.7-8-0.3-11.6,1.5c-7.7,3.6-12.2,11.3-17.601,17.5c-3.8,4.4-7.3,6.1-11.1,0.8
		c-4.2-6-7-13.9-8.8-20.9c-1.2-4.5-2.601-10.5,2.699-12.8c6.4-2.7,15.5-0.7,22.101-0.3c8.899,0.7,18.399,1.9,27.3,0.4
		c5.4-0.9,7.7-3.5,3.3-7.7c-2.399-2.3-5.399-4.1-8.1-5.9c-1.7-1.2-5.601-3-6.4-5.1c-1.899-4.9,12.8-4.2,15.3-4.3
		c3.801-0.1,8.101,1,11.101-1.9c2.1-2.1,3.1-5.4,6.2-6.4c7.6-2.6,1.6,13.1,6.699,15.9c3.7,2,9-5.8,10.7-7.5c4.9-4.5,6.2-2.5,8.3,2
		c1.801,3.9,3.4,2.2,6.801,0c3.899-2.5,9.3-1.3,12.1,2.2C406.6,43.1,406.7,46.1,408.4,47.9z"/>
	<path fill="#2B2B2B" d="M409.1,119.3c-2.1-3.9-3.399-5.9-8-5c-11.1,2.3-20.5,12.5-26.699,21.5c1.899,0.5,4.1,1.6,6.1,1.8
		c1.4,0.1,13.5-3.7,13.8-3.2v0.1c-3.3,2-8.1,5.9-12,6.5c-5.1,0.8-18.8,1.5-14.399-7.9c5.899-12.6,16.1-20.3,29.899-21.5
		C404.5,110.9,407.4,113,409.1,119.3z"/>
	<path fill="#2B2B2B" d="M74,207.9c17.7-18.8,35.5-37.601,53.2-56.4l49.5-40.3c6-4.8,43.5-32.6,82.399-54.5c9-5,18.2-9.7,27.5-14
		c29-13.5,58.9-25,91.2-26.3c6.5-0.3,13-0.1,19.5,0.4c22.7,1.9,46.9,11.7,53.101,36.1c5.1,20.3-1.801,42-9.7,60.5
		c-10.5,24.5-25.101,46.3-43.8,65.2c-11.801-1.1-19.5,5.4-35.801-4.1c-0.199-0.1-16.5-11.2-16-27.4c-4.8,8.6,3.9,21.8,6.2,25
		c8,11,23.8,18.2,35.5,16.6c0.101,0,0.101,0,0.2,0c-9.7,9.2-21.1,17.899-34.9,26.3c5.9-1.3,12.801-4.3,18.601-7.2
		c6-3,11.7-6.5,17.1-10.4c11.2-8.1,21.2-18,29.8-28.8c16.9-21.2,27.7-45.6,37.7-70.5l0.101,4.1c0.1,4.5-1.601,9.1-1.601,13.6
		l0.4,0.2c6-6.9,6.1-15.4,4.2-24.1c-0.601-2.9,0.6-7,0.699-9.9c0.601-17.4,0.7-33.8-9-49.2C435.6,10,404.3,5.5,379.6,6.1
		C369.7,6.3,360,7.4,350.3,9c-31.6,5.3-62.899,17.4-91.6,31.5c-7.3,3.6-15.101,7.8-22.601,12.2c-3.7-2.3-7-4.4-8.6-5.3
		c-15.2-8.6-18.2-14.4-34.7-18.3c-27.4-6.4-53.4-3.3-42,13.8c11.4,17.1,9.9,27.3,20.4,37.3c4.7,4.5,11.5,5.4,18.4,5.5l-20.8,15.6
		l-18.3,15.1c-24.6,23.5-49.5,46.1-67,75.8C80.2,197.4,77.1,202.7,74,207.9z M189.4,74.2c-8.8-2.3-13.3-10-13.2-19.2
		c0.2-9.2-23-14.5-4.1-19.1c16.5-4,34.9,7.6,48.9,14.9c3.2,1.7,6.2,3.6,9.2,5.5c-5.1,3.2-10,6.5-14.5,9.8l-14.7,11
		C197.3,75.9,193.1,75.2,189.4,74.2z"/>
	<path fill="#2B2B2B" d="M222.8,225.4c21.9,3.199,11.7-29,27.5-33c10.601-2.8,15,22.7,22,28.4c6.2,5,7.5-11,20.2-12.399
		c6.5-0.7,25.7,28.899,28.5,25.199c3.5-4.6,4.6-13.699,6-23c1.2-7.5-34.5-17.5-34-25c0.5-6.6,27.1,4.7,35.5,0.1
		c12.4-6.8,1.6-35-6.2-41.4c-5.7-4.7-15.7-8.4-22.8-3.9c-5.8,3.8-6.1,10.2-14.3,11.2c-10,1.1-19.9-5.1-29.7-5.1
		c-12-0.1-45,13.7-44.2,28.6c0.2,5.4,5.4,9.4,4.8,14.9c-0.6,5.2-6.6,5.3-11.7,7.1c-5.6,2.1-15.6,3.2-15.9,10.4
		c-0.4,7.4,6.7,11.7,14.6,14.2C210.1,224.1,218.1,225.1,222.8,225.4z"/>
	<path fill="#2B2B2B" d="M156.8,327.2c-9.4,18.1,2.2,41.6,1.1,54.2c-1.1,12.699-8.6,24.1-18,17.899s-16.7-6.2-21.4-11.5
		s4.7-13.899,3-18.399c7.1,1.1,5,6.5,4.8,10.6c-0.2,4.1,4.2,6.6,10.5,7.1c6.4,0.5,5.2,10.2,12.3,3
		C158,381.4,135.5,342.5,156.8,327.2z"/>
	<path fill="#2B2B2B" d="M152.5,325.4c-25.4,21.1-44.7,50.199-46.6,82.6h-12c0.2-4.9,0.8-9.8,1.8-14.5c0.5-2.4,2.8-7.3,1.6-9.5
		c-1-1.9-6-3.4-7.8-2.2c-2.3,1.601-1.7,6.5-2,8.9c-0.8,5.7-3.9,12.899-9.7,6.399c-9.3-10.3-6.3-33.6-0.8-44.699
		c0.1-0.2,0.2-0.301,0.2-0.5c3.5-6.9,7.4-11.5,12.6-3c4-8.801,0.7-15.801,1.7-24.7c0.6-5.5,7.4-16.3,13.4-17.5
		c6.3-1.3,11.3,9.899,11.2,15.3c-0.1,5.1-5.6,7.8-6.2,12.8c-0.7,5.601,2.1,12.101,2.8,17.601c3.8-5.9,8-11.5,12.5-16.9
		c17.8-21,37.5-31.2,62.9-40l95-35.1l-91.899,44C177.7,310.2,163.8,316,152.5,325.4z"/>
	<path fill="#2B2B2B" d="M122.9,178c-8.6,1.1-14.3,6.9-18.1,14.4c-5.9,11.7-10.3,34.8-26.7,36.6c-3.2,0.4-12.8-2.4-15.4,0.8
		C54,240.3,52.6,256.3,46.9,268.4C41.5,279.7,31.1,285.1,21,291.3c-1.8,1.101-3.7,2.4-3.7,4.8c0,10.7,6.2,21.2,8.3,31.7
		c1.5,7.3-0.3,13.101-2.6,19.8c-4.9,14.601-8.7,29-2.3,44.4c2.2,5.4,4.8,10.8,7.5,16H16.9c-3.9-8.4-6.8-17.2-8.5-26.5
		c-2.6-14.6,1.6-25.3,6-38.6C20.1,326,6.9,311.8,7.7,294.8c0.4-9.899,11-12.7,17.6-17.2c16.1-11,17.3-29.5,25.2-46.199
		c2.3-4.7,4.7-9.7,9.9-11.4c6.5-2.1,18.1,3.4,22.8-2.5c9.7-12.3,13.6-30.6,27.3-39.4c16.8-10.8,39.9,3.9,55.6,9.8
		C152.8,184.1,137,176.2,122.9,178z"/>
</g>
</svg>
