<?xml version="1.0" encoding="utf-8"?>
<!-- Generator: Adobe Illustrator 15.0.0, SVG Export Plug-In . SVG Version: 6.00 Build 0)  -->
<!DOCTYPE svg PUBLIC "-//W3C//DTD SVG 1.1//EN" "http://www.w3.org/Graphics/SVG/1.1/DTD/svg11.dtd">
<svg version="1.1" id="Layer_1" xmlns="http://www.w3.org/2000/svg" xmlns:xlink="http://www.w3.org/1999/xlink" x="0px" y="0px"
	 width="267.388px" height="320.299px" viewBox="-0.1 8.7 267.388 320.299" enable-background="new -0.1 8.7 267.388 320.299"
	 xml:space="preserve">
<path fill="#2B2B2B" d="M165.7,8.7c11.699,3,24,4.5,34.199,10.8c11.899,7.4,21.399,18.4,29.301,30c8.699,12.8,16.3,26.7,20,41.8
	c3.898,16,1.8,32.5,1.398,49l-0.1,0.1l-12.3-45.6c-9.602-26.3-22.801-48.5-43.9-67.5L165.7,8.7L165.7,8.7z"/>
<g>
	<path fill="#2B2C2B" d="M191.3,122.3c-9.8-2-26.2-0.1-30.1-12.4c-5.7-17.9,18.1-30.4,21.5-46.7c4-18.7-6.5-31.8-18.301-44.7
		L165,17.6c5.899,4,12.2,7.7,16.6,13.2c3.9,4.9,6.5,10.7,8.2,16.7c5.8,22.2-9.2,36.9-18.1,55.4c-0.7,1.1-0.5,3.3,0.8,4.2
		c8.1,5.4,19,4,28,7.6c13.3,5.3,24.1,15.5,32.399,26.9c7.899,10.7,15.899,25.601,11.301,38.8C239.9,154.4,217.8,127.5,191.3,122.3z"
		/>
</g>
<path fill="#2B2B2B" d="M191.1,249.201c-12.699,1.1-2.5,17.699-10.8,22c-5.6,2.898-11.6-10.701-16.2-12.9
	c-4.199-2-2.699,7.101-9.6,9.5C151,269,136.1,255,135.1,257.5c-1.3,3-0.7,8.201-0.2,13.601c0.4,4.301,21.7,5.2,22.5,9.5
	c0.601,3.7-15.801,0.899-19.899,4.601c-6,5.399,3.899,19.7,9.2,22.201c3.898,1.898,10,2.6,13.3-0.803c2.7-2.798,2-6.499,6.5-8.1
	c5.399-1.899,11.8,0.201,17.3-1c6.7-1.5,23.3-13.5,20.8-21.699c-0.898-3-4.3-4.5-4.699-7.6c-0.399-3,2.899-3.801,5.601-5.5
	c2.899-1.9,8.3-3.801,7.5-7.9c-0.8-4.2-5.3-5.6-10.2-6C198.4,248.3,193.8,248.8,191.1,249.201z"/>
<g>
	<path fill="#2B2C2B" d="M226.4,213.6c-16.301,21.7-41.199,26-66.801,27.301L85.3,243c-13.8,0.601-25.9,0.801-38.5,6.701
		C59.2,243,71.4,242,85.3,240.599l74.5-6.199c5.601-0.4,11.2-0.9,16.8-1.301c7.5-0.5,15.2-0.398,22.2-3
		c22.5-8.301,32.601-25.5,39.5-47.398C235.6,194,233.7,204.201,226.4,213.6z"/>
</g>
<path fill="#FF9729" d="M11.9,254.201c-2.5,7,4.801,11.6-1.5,18.398c-5,5.102-7.5-0.1-10.399-4.1v-49.9
	C7.9,217.4,18.5,219.201,23.9,223.4c5.9,4.5,10.5,19.199,5.5,26C25.1,255.5,14.1,247.9,11.9,254.201z"/>
<path fill="#2B2B2B" d="M0,213.6c15.5-0.3,31-0.199,46.5,0.101c5.899,0.1,11.7,0.2,17.6,0.301c1.2,0,2.4,0,3.5,0.1
	c9.4-10.6,20.601-16.801,35-13.1c5.9,1.5,11.601,4,17.4,6c5.6,1.899,11.5,4.6,17.5,4.799c6.8,0.201,11-4.299,15.899-8.199
	c4.601-3.699,8.699-4,14.101-1.699c5.6,2.398,10.8,5.6,16.2,8.301c5.3,2.699,11.398,6,17.3,3.1c2.899-1.399,5.2-3.7,7.899-5.399
	c3.199-1.899,6.601-2.899,10.101-4c8.5-2.5,11.3-7.101,12.6-15.601c-0.898,9.601-3.199,15.601-12,20.199
	c-3.5,1.801-7,3.601-10.1,6.101c-2.5,2-4.5,4.601-7.2,6.399c-5,3.4-11.2,1.201-16.5-0.299c-6.2-1.9-11-4.9-16.5-8.301
	c-6.399-3.9-10.6-1.602-16.2,2.5c-7.3,5.398-14.2,7.199-23,4.699C115,215.201,97.8,203.9,81.7,211C69.3,216.5,61,229.5,53,239.8
	c-1,1.199-2,2.5-2.9,3.699c3-3.699,4.8-9,7-13.299c2.4-4.602,5.101-9,8.101-13.102c-3,0.5-20.5,1.4-26.101,1.9
	c-11.5,1-23,2-34.6,2.199c-1.5,0-3.101,0.1-4.601,0.2V213.6H0z"/>
<path fill="#FF9729" d="M69.2,329c-2.801-7.799-2.9-16.299-5.2-15.4c-4.4,1.701-2.601,9.803-1.5,15.4H0v-45.299
	c2.1-0.102,4.2-1.102,6.399-0.701C9.5,281.6,13.6,278.201,17.2,275.8c5.1-3.399,12.899-2.301,15.3-7.899
	c4-9.399,14.8-3.7,20.3,1.199c5.7,5.2,6.9,5.899,14.7,3.101c2.899-1,10.2-4.8,13-4.601c3.3,0.2,10,4.5,12.399,6.7
	c8.2,7.3,1.2,16.199,11.2,23.3c10.2,7.399,14.4,1.899,16.9-7.8c2.1-8.1,4.7-6.899,10.399-3.6c7.7,4.299,8.4,10.199,15.2,1.898
	c2.8-3.398,6.601-3.898,10.8-2.898c5.101,2.699,11.899,6.5,13.101,12.6c1.6,7.8-8.601,12.799-7.4,19.9
	c0.7,4.398,10.2,5.199,10,10.299c0,0.301-0.1,0.6-0.1,0.9H69.2V329z"/>
<path fill="#2B2B2B" d="M190.8,329h-22.3c10.8-8.699,21.1-18.6,30.7-28.199c23.8-23.801,42.699-52.1,52.199-84.6
	c4.699-15.801,6.899-32.102,7.5-48.602c0.199-4.398,1-48.6-1.699-49l0.5,0.1c3.699,19.9,8.699,40.1,9.5,60.3
	c1.199,33.399-10.102,66.299-28.2,94.199C226,293.701,209.5,312.599,190.8,329z"/>
<path fill="#2B2B2B" d="M50.8,329H0V295.6c1.3-2.699,2-5.8,4.5-7.5c6.6-4.5,11.3,4.101,17.3,2.301c1.4-0.399,2.3-2.7,3.4-3.7
	c7-6,18.8-2,24.1,4.399c6.1,7.399,0.3,10.601-6.5,13.5c-9,3.802,2.1,15.399,5.7,19.601C49.9,325.8,50.6,327.4,50.8,329z"/>
</svg>
