<?xml version="1.0" encoding="utf-8"?>
<!-- Generator: Adobe Illustrator 15.0.0, SVG Export Plug-In . SVG Version: 6.00 Build 0)  -->
<!DOCTYPE svg PUBLIC "-//W3C//DTD SVG 1.1//EN" "http://www.w3.org/Graphics/SVG/1.1/DTD/svg11.dtd">
<svg version="1.1" id="Layer_1" xmlns="http://www.w3.org/2000/svg" xmlns:xlink="http://www.w3.org/1999/xlink" x="0px" y="0px"
	 width="456.67px" height="394.646px" viewBox="0 0 456.67 394.646" enable-background="new 0 0 456.67 394.646"
	 xml:space="preserve">
<g>
	<path fill="#FF9729" d="M330.6,232.725c-5.8-18.9-38.8-4-48.399-16.302c-10.801-13.899,20.301-20.198,5.199-33
		c-5.398-4.5-13.6-1.6-19.6-5.1c-10-5.8-9.7-7.5-3.301-14.4c8.601-9.2,15.601-12.7,17.801-26.7c-9.9,1.9-19.301,6.1-28-1.2
		c-9.602-8-10.102-23.2-19.4-31.7c-8.3-7.4-26.199-12.3-36.8-9.1c-9.399,2.8-22.2,18.5-19.3,29.2c2.5,9.7,19.6,5.6,19.3,14.4
		c-0.3,9.8-11.5,11.9-7,23.4c4.9,11.5,13.101-1.6,20.2-2.4c0.9,0.2,2.8,4.4,2.9,5.3c0.899,3.9-6.7,15.3-11.4,16.3
		c-5,1-7.5-3.5-11.8-4.5c-3.2-3.2-6.5-9.4-9.8-14.1c-4.601-6.6-14.801-9.1-15-17c-0.4-13.5-16.4-11.7-25.5-8.2
		c-9.5,3.6-11.301,3.9-19.601-3.3c-3.1-2.7-10.3-10.9-13.8-11.9c-4.2-1.3-14.5,0.7-18.4,2.3c-13.6,5.1-9.3,19.3-25,23.3
		c-16.1,4.1-18.699-4.5-17.1-17.8c1.3-11-2.4-10.7-11-9.5c-11.5,1.6-15.2,8.6-19.6-4.9c-1.7-5.5-6.301-8-11.9-8.7
		c-1.4,0.2-2.8,0.3-4.3,0.5v108.299c0.2,0.199,0.3,0.302,0.5,0.5c0,0,0,0,0.2,0.101c5.6,5.101,26.3,20.801,33.8,10.701
		c4.899-6.802-7.4-18.5-3.9-26.802c5.2-12.5,30.101,13.302,45.601,12c17.3-1.5,25.6-29,29.3-25.601c6.1,5.5-6.601,19.701-8.4,24.9
		c-4.6,13.6,12.2,13.2,6.5,22.801c-16.399-3.399-20.8,8.101-16.5,21.5c9,28.799,32.4,18.5,53.8,17.299
		c15.301-0.897,20,12,34.601,1.9c13.8-9.601,20.399-16.4,17.5-33.199c-1.3-7-2.2-15.399,3.2-20.899c7.199-7.101,19-4.5,18.8,6.602
		c-0.2,9.199-10.9,11.199-1.7,20.299c8.7,8.602,14.5,1.4,14.7,14.9c0.1,7.397-1.8,14.1,8.1,14.5c2.899,0.1,10.601-9.801,19-8.9
		c11.3,1.201,23.5,13.201,28.3,10.801c4.2-2.199,2.102-3.199,3.7-6.5C294.399,258.923,339.3,260.423,330.6,232.725z"/>
	<path fill="#2B2B2B" d="M188.399,339.725c-5.699,3.6-13.3,3.397-19.6,5.397c-6.2,2-28.1,11.4-34.2,13.603
		c-21.8,7.897-26.899,14.799-49.399,16.299c-37.301,2.5-70.801-7-52.101-26.699c18.601-19.701,18.8-33.1,34.601-43.801
		c15.8-10.699,40.899,3.6,54.1-1.199c-3.5,13.5-19.4,11.699-31.3,12.799c-12,1.103-19.601,10.103-21.4,22
		c-1.8,11.9-33.3,13.804-9.399,23.804c20.8,8.696,47.3-2.5,67.3-9c10.5-3.4,20.3-8.701,30.7-12.201c5.199-1.699,10.6-3.103,16.1-3.4
		C175.7,337.225,187.7,340.122,188.399,339.725z"/>
	<path fill="#010101" d="M307.499,318.323c4.699-2.701,12.199,1.299,16.699,9.103c4.5,7.799,4.301,16.299-0.301,18.897
		c-4.699,2.699-12.199-1.301-16.699-9.1C302.7,329.523,302.7,321.023,307.499,318.323z"/>
	<polygon fill="#231F20" points="393.899,386.323 393.899,386.323 394.2,386.323 	"/>
	<path fill="#2B2B2B" d="M357.499,241.823c2.898,0.199,5.898,0.699,7.898-1.5c3.2-3.398-1.199-8.801,3.9-11.301
		c3.5-1.699,14.398,1.4,17,3.9c6,5.801,2.6,14.6-2.7,18.699c-3.899,2.899-16.101,9.698-17.399,14.399
		c-2.199,8.698,16.602,4.299,19.899,2c7.101-4.802,9.899-17,21-12.101c7.1,3.101,14.898,13,2,12.799c0.7,6.601,8.6,5.5,12.8,8.302
		c12.3,8.5-8.2,7.198-11.6,10.601c-3.5,3.5-3.7,11.198,1.198,13.698c6.699,3.4,14.5-6.897,16.302,5.9
		c1.6,11.201-6.2,11.801-13.9,15.897c-4.897,2.603-8.2,15-12.2,15.304c-9.1,0.397-11.1-19.201-21.3-16.103
		c-5.8,1.799-10.199,19.4-18.199,17.103c-5.601-1.603-0.801-16.701-2.898-20.4c-4.102-8.1-13.7-2-20.801-3.201
		c-13.102-2.5-2.899-10,0.898-15.5c4.5,1.701,16.7,3.201,19.3-2.198c3.4-6.802-8.8-5.398-12.8-5.699c-7.7-0.4-18.5-0.103-25.8-2.701
		c-12.7-4.398,0.7-9.398,6.601-12.6c6.602-3.4,8.801-6.199,8.699-13.199c-0.3-13.5,3.4-18.4,18.102-22
		C355.2,241.624,356.3,241.624,357.499,241.823z"/>
	<path fill="#2B2B2B" d="M205.3,265.023c-11.8-3.799-11.1-4.399-5.9-14.199c1.4-2.7-0.1-6.801,1.4-10.301
		c2.4-5.299,2.6-7.299-0.6-12.199c-4-6.1-1.7-8.5,2.5-12.801c4.699-5-7.801-12.199-9.101-16.199c-1.7-4.801,0.4-10.6-2.6-15.1
		c-5.9-8.7-15.9-0.4-22.4-5.4c-1.5-1.2-1.5-4.4-2.399-6.2c-5.801-10.8-22.101-11.6-31.7-6.2c-11,6.2-5.4,12.9,1.5,19.7
		c9.3,9-10,17.899-16.4,21.3c-9.5,4.897-6.8,14.5-1.2,22.5c6.2,9.1,14.101,15.801,10.801,27.699
		c-3.2,11.301-7.2,21.602,2.899,30.899c4.7,4.299,9.2,11.799,16.4,11.1c5.3-0.5,15.7-11.499,20.399-5.499
		c1.9,2.5,0.601,6.399,1.7,9.198c3.2,7.801,14-1.1,20,0.801c4.9,1.5,9.4,2.5,14.8,3.103c5.7,0.6,8.101,1,11-4
		C222.7,292.023,219.6,269.523,205.3,265.023z"/>
	<g>
		<path fill="#2B2C2B" d="M330.999,350.122c2.898-4.397,4.398-7,0.699-11.397c-9.699-11.5-24.898-13.5-38.801-16.699
			c0,0,0.5,2.699,0.5,2.9c1.4,7.299,7.801,12.5,12.5,17.696l0,0c-4.1-2.5-11.199-5.299-14.1-9.299
			c-3.9-4.897-12.5-19.301,0.1-19.897c17.102-0.701,31.301,5.897,40.801,20C337.399,340.424,336.7,344.622,330.999,350.122z"/>
	</g>
	<path fill="#2B2B2B" d="M323.999,137.124c6.101-3.2,10.101-55.5-0.699-76.4c-10.801-21-32-35.4-44.602-18.1
		c-12.599,17.3-25.699,22.3-30.599,34.7c-4.899,12.4,18.101,20.6,18,29.5c12-6.9,4.5-14.7,1.399-21.5
		c-3.101-6.9,2.899-14.3,13.899-19.6c11-5.3,7.2-26.2,20-13.8C314.3,64.124,332.399,100.624,323.999,137.124z"/>
	<path fill="#2B2B2B" d="M455,301.023c-1-4.699-2.303-9.199-3.9-13.699c-7.3-19.5-19.5-37.399-31.1-54.5
		c-15.2-22.301-36.4-40.901-56.9-58.201c-11.5-9.7-22.5-20.8-34.8-29.6c-14-10.1-30-18.2-45-27.1c-11.102-6.7-23-11.2-34.801-16.3
		c-24.199-10.3-48.602-19.9-73.299-29c-7.301-2.7-14.5-5.4-21.801-8c-1.5-0.5-2.899-1.1-4.399-1.6c-6.5-17.5-17.2-30.6-36.7-32.9
		c-8-1-16.2-0.7-24.2-1c-7.7-0.4-16.399,0.1-23.8-2.5c-8.4-3-11.4-10.5-15.6-17.7c-3.9-6.7-8.801-9.2-16.5-8.9c-8,0.3-16,1.6-24,2.4
		c-2.601,0.3-5.4,0.5-8.101,0.6v11.2c0.101,0,0.2,0,0.3,0c8.601,0.7,15.9-0.7,24.301-2.2c9.8-1.7,13.8,3.1,18.699,10.9
		c6.301,10.1,14,15.7,26.101,16.8c20.6,1.8,47.2-3.8,63.6,12.7c12.601,12.7,16.5,32.7,21.4,49.2c0.6,2,1.2,4,1.8,6
		c-1.9-6-1.5-13.4-2.3-19.7c-0.8-6.8-1.9-13.5-3.7-20.1c3.4,2.1,24.5,11.7,31.1,14.9c13.7,6.8,27.4,13.5,41.5,19.3
		c6.7,2.8,13.2,5.9,19.801,9c3.301,1.5,11.199,5.3,12.301,8.9c-31.699,6.5,11.898,22.6,8.199,23.4c-29.601,6.4,15.801,11,7.199,12.7
		c-10.6,2.1-12.898,9.9-18.5,7.7c-5.699-2.3-13.3,6.5-7.699,11.1c1.899,1.5,5.602,1.3,7.102,3.1c1.8,2-4.9,8.4-5.602,10
		c-3.199,7.1,6.301,24.1,13.602,24.1c6.1,0,13.6-2.601,18.6-6.101c4.801-3.399,9.9-5.5,15.7-1.801
		c4.101,2.603,5.3,10.4,11.601,8.699c6-1.6,10.5-5.299,16.701-1.898c3.6,2,6.698,5.601,11.1,6c6.301,0.5,11.199-3.801,13.601-9.198
		c1.5-3.302,2.8-12.701,7.899-10.5c11.396,4.899,10.097,22.5,24.896,19.299c2.801-0.601,5.9-3.699,6.4-5.299
		c7.699,6.5,14.2,13.397,20.8,21c13.3,15.5,25.1,35.1,33.5,53.799c6.4,14.201,11.7,29.9,7.5,45.5c-4,14.6-15.9,25.6-29.1,32.201
		c-31.102,15.699-67.9,19.397-102.3,16.5c-9.899-0.801-19.802-2.103-29.5-3.9c-18.5-3.397-37.602-11.1-40.199-32
		c-1-8.201-2.103-17.1,1.199-24.897c3.601-8.5,9-16,15.5-22.502c-20,8.698-31.701,26.698-26.302,48.899
		c1.603,6.699,6,13.103,7.2,19.699c-7.398-1.1-43.3-31.6-51.2-24.799c7,6.199,15.7,11.299,23.5,16.5
		c17.701,11.897,37.001,20.299,57.701,25.199c24.601,5.897,49.899,7.698,75.2,6.1c8.199-0.5,31.699-1.799,34.6-3.6
		c-2.898,1.801-5,3.397-8.3,4.5c-3.5,1.198-7.2,2.198-10,4.801c12.3,2.299,22.8-5.301,33.2-10.4c18.897-9.201,37.3-14.1,49-33.397
		C456.899,335.523,458.399,317.823,455,301.023z"/>
	<path fill="#2B2C2B" d="M114.399,87.023L25.7,43.624c-6.7-3.2-13.301-6.5-20-9.6c-1.9-0.9-3.7-1.7-5.601-2.6v8.7
		c7.3,4.2,15,8,22.9,11.6l90.3,38.4c16.7,7.5,31.4,13.5,44.1,26.8C145.399,102.624,130.899,95.523,114.399,87.023z"/>
	<path fill="#2B2B2B" d="M16.399,87.023c-7.3-6.2-1.1-16.7-7.199-16.3c-2.4,0.2-5.601,2-9.101,4v64c2.3,0.6,4.8,0.8,6.9,0.6
		c7.7-0.6,26.8-13.4,22-22.9c-3.3-6.4-24.8-10.9-22.2-15.2c3-4.9,29.7,4.3,32.2-0.8c3.2-6.3,6.5-12.4,6.3-16.8
		C45.1,80.224,20.1,90.224,16.399,87.023z"/>
	<path fill="#2B2B2B" d="M73.2,269.023C45.899,248.923,21.5,225.624,0.1,199.124v26.199c3.8,3.801,7.2,7.199,11.2,10.801
		c33.8,30.898,78,46.601,119.1,66.699L73.2,269.023z"/>
</g>
</svg>
