<?xml version="1.0" encoding="utf-8"?>
<!-- Generator: Adobe Illustrator 15.0.0, SVG Export Plug-In . SVG Version: 6.00 Build 0)  -->
<!DOCTYPE svg PUBLIC "-//W3C//DTD SVG 1.1//EN" "http://www.w3.org/Graphics/SVG/1.1/DTD/svg11.dtd">
<svg version="1.1" id="Layer_1" xmlns="http://www.w3.org/2000/svg" xmlns:xlink="http://www.w3.org/1999/xlink" x="0px" y="0px"
	 width="467px" height="408px" viewBox="0 0 467 408" enable-background="new 0 0 467 408" xml:space="preserve">
<g>
	<path fill-rule="evenodd" clip-rule="evenodd" fill="#2B2B2B" d="M384.6,289.7c7.3,9.6,13.6,21.2,17.9,32.5
		c11.1,28.3,10.9,58.1,2.3,85.8h8.8c5.8-18.4,8.3-37.7,6.8-56.6c-1-13.1-4.4-25.8-9.7-37.8c-9.2-20.7-23.2-38.5-38.2-55.3
		c-7.6-8.5-15.3-16.8-23-25.1c-6-6.5-11.7-14.7-18.8-20.2c-6.2-4.7-12.4-9.4-18.6-14.2c-3.6-2.8-8.2-5.3-11.3-8.6
		c0,0,57.7,64.7,57.7,64.7C367.2,266.5,375.8,278.2,384.6,289.7z"/>
	<path fill-rule="evenodd" clip-rule="evenodd" fill="#1C1C1C" d="M89.8,123.7c0.2-4.5-5.6-8.3-12.9-8.5c-7.3-0.2-13.4,3.3-13.7,7.7
		c-0.2,4.5,5.6,8.3,12.9,8.5C83.5,131.7,89.6,128.2,89.8,123.7z"/>
	<path fill-rule="evenodd" clip-rule="evenodd" fill="#2B2B2B" d="M120.7,216.7c-5.1,3.1-3.2,59.4,7.1,81.6
		c10.4,22.2,29.5,38.2,39.7,21c10.2-17.2,21.3-21.8,25-34.4c3.6-12.6-16.7-22.2-17.1-31.4c-10.1,6.5-3.3,15-0.2,22.2
		c3.1,7.3-1.9,14.6-11.2,19.6c-9.4,5-1,21.7-16.7,13.3C127.8,298.3,125.2,250.1,120.7,216.7z"/>
	<path fill-rule="evenodd" clip-rule="evenodd" fill="#D92425" d="M138.4,144.7c-1.9-0.6-3.2-1.8-5-4.6c-2.7-4-7.8-9.8-6.8-15
		c0.6-3.1,2.9-3,4.3-5.2c2.5-3.9,0.4-7.5-0.4-12.2c-1.4-9.2-1.7-18.5,0.3-27.6c4.2-19.2,27,1.2,31.5,8.8c2.6,4.4,7.7,13.6,14.1,13.1
		c8-0.6,6.4-8.1,8-12.9c1.7-5,9-6.7,13.4-3.6c5.4,3.8,9.2,15.6,17.6,14.2c7.1-1.2,2.9-10,1.9-14.6c4.2-4.7,9.3-3.5,11.7,1.5
		c1.3,2.7,1.7,6.3,4.8,7.7c4.2,1.9,7.9-1.5,5.9-5.9c7.1-3.5,14.2-8.5,22.1-4c3.5,2,7.9,4.3,11.1,6.7c2.5,1.9,4.3,6.3,7.8,5.9
		c4.2,4.2,8.8,8.7,11.5,14c3.5,7,0.9,10.3-2.7,16.3c-3,4.8-5.8,14.7-13.1,14.3c-5.9-0.3-9.2-7.8-13.8-10.6c-7-4.3-3.9,4.2-6.5,9.3
		c-2.3,4.5-12,9.8-15.4,3.5c-1.9-3.6,3.4-10.6-1-13c-3.7-2-10.5,4-10.8,7.4c-7.2,6.2,6,13.4,10.8,14.4c3.4,0.7,6.7,0.9,10.2,1.3
		c6.4,0.7,10.7,5.3,17.5,4.6c5.7-0.6,9.2-2.3,12.9,3.5c2.6,4.1,3.1,9,3.6,13.7c1.1,10.3,9.9,7.2,15.7,14.2
		c7.1-8.2,12.2,11.2,12.9,15.8c1.7,10.1-5.7,9.4-8,16.6c-1.8,5.6,0.6,17.1,5.8,19.9c8.2,4.5,9.4-1,14.5-5.5
		c11.9-10.5,11.2,12.1,14.3,19.3c11.7-4.7,20.5,1.9,21.3,14.7c0.8,12.9-11,12.7-18.5,18.7c-5.7,4.6,1.6,15.1-5.4,17.4
		c-3.7,1.2-6.5,1-10.3,2.9c-4.2,2.2-7.5,3.3-12.3,2.8c-17.2-1.9-38.8-4.1-51.1-17.6c-4.8-5.2-7.1-10.1,1.2-12.3
		c8.2-2.2,17.2-1.6,25.5-3.2c-1.2-2.4-6.1-1.3-8.5-3.7c-2.4-2.5-2.9-6.7-3.2-10c-0.4-3.2,0.5-8.2-1-11.1c-1.9-3.6-6.2-2.3-10.9-2.2
		c-3.2,0-3.7-9.5-3.4-11.3c0.6-4.5,3.2-8.4,3.4-12.9c0.6-14.9-14.4-6.3-17.6,2.1c-1.5,3.9-0.6,6.5-5.2,8c-4.6,1.5-6.5-1.4-8.9-4.4
		c-2.5,0.4-5.1,2.1-6.7,4.1c0,0.1,4.7,8.4,4.8,9.4c0.6,3.5-0.4,6.6-3.5,8.5c-5.5,3.4-19,3.2-24.9,1.3c-11.8-3.8-16.6-15-17.8-26.3
		c-1.1-10.2-8.5-9-14.1-16c-3.1-3.9-2.1-7.8-1-12.3c1.9-7.3,3.9-14.8,5.3-22.1c9.4-3.1,28.2-5.1,26.3-18.5
		c-0.7-5.3-4.1-10.5-9.9-8.1c-4.9,2-4.5,8.4-7.9,10.6c-2.1,1.3-6.9-0.2-9.2-0.9c-4.7-1.4-3.9-3.5-7-6.2c-6.7-5.8-9.3,6.7-15.9,6.7
		c-7.2,0-9.8-13.2-8.9-18.4C141.4,145.3,139.7,145.2,138.4,144.7z"/>
	<polygon fill-rule="evenodd" clip-rule="evenodd" fill="#231F20" points="7.7,88 7.7,88.1 7.7,88.1 	"/>
	<path fill-rule="evenodd" clip-rule="evenodd" fill="#2B2B2B" d="M58.6,47.9c-0.2,0.2-0.4,0.4-0.7,0.6c-3.8,2.5-8.3-1.7-12.6-0.9
		c-6.4,1.1-6.2,6.5-2.6,9.9c3,0,18,4.3,17,6.9c-0.6,1.5-10.5,2.1-12.2,2.4c-5,0.9-11.2,1.3-15.8,3c-9,3.2,3.8,13.7,9.3,14.7
		c7.6,1.5,10-3,13.9-6.8c3.1-3,2.3-3.2,7-1.4c2,0.7,6.2,4,6.2,5.9c0,4.3-6.6,5-5.6,9.8c1.6,7.8,19.5,13.1,15.5,1.7
		c5.7-0.8,7.6,5.6,11.2,7.8c6.6,4.1,14.1,0.2,9.2-6.5c8.6-2.5,11.4,4.6,17.9,5.3c5,0.5,2-14.5,1.8-16.8c-0.4-3.6-0.4-5.7,3.3-7.1
		c2.8-1.1,6.2-1.8,9.1-2.3c4-0.7,8-0.3,11.6,1.5c7.7,3.6,12.2,11.3,17.6,17.5c3.8,4.4,7.3,6.1,11.1,0.8c4.2-6,7-13.9,8.8-20.9
		c1.2-4.5,2.6-10.5-2.7-12.8c-6.4-2.7-15.5-0.7-22.1-0.3c-8.9,0.7-18.4,1.9-27.3,0.4c-5.4-0.9-7.7-3.5-3.3-7.7
		c2.4-2.3,5.4-4.1,8.1-5.9c1.7-1.2,5.6-3,6.4-5.1c1.9-4.9-12.8-4.2-15.3-4.3c-3.8-0.1-8.1,1-11.1-1.9c-2.1-2.1-3.1-5.4-6.2-6.4
		c-7.6-2.6-1.6,13.1-6.7,15.9c-3.7,2-9-5.8-10.7-7.5c-4.9-4.5-6.2-2.5-8.3,2c-1.8,3.9-3.4,2.2-6.8,0c-3.9-2.5-9.3-1.3-12.1,2.2
		C60.4,43.1,60.3,46.1,58.6,47.9z"/>
	<path fill-rule="evenodd" clip-rule="evenodd" fill="#2B2B2B" d="M57.9,119.3c2.1-3.9,3.4-5.9,8-5c11.1,2.3,20.5,12.5,26.7,21.5
		c-1.9,0.5-4.1,1.6-6.1,1.8c-1.4,0.1-13.5-3.7-13.8-3.2l0,0.1c3.3,2,8.1,5.9,12,6.5c5.1,0.8,18.8,1.5,14.4-7.9
		c-5.9-12.6-16.1-20.3-29.9-21.5C62.5,110.9,59.6,113,57.9,119.3z"/>
	<path fill-rule="evenodd" clip-rule="evenodd" fill="#2B2B2B" d="M383.7,192.2c-17.5-29.6-42.4-52.3-67-75.8l-18.3-15.1l-20.8-15.6
		c6.9-0.1,13.6-1,18.4-5.5c10.4-10,8.9-20.2,20.4-37.3c11.4-17.1-14.6-20.2-42-13.8c-16.5,3.9-19.4,9.7-34.7,18.3
		c-1.6,0.9-5,3-8.6,5.3c-7.5-4.4-15.3-8.6-22.6-12.2c-28.7-14.1-60-26.3-91.6-31.5C107,7.4,97.3,6.3,87.4,6.1
		C62.7,5.5,31.4,10,16.9,32.9c-9.7,15.4-9.6,31.8-9,49.2c0.1,2.9,1.3,7,0.7,9.9c-1.8,8.6-1.8,17.2,4.2,24.1l0.4-0.2
		c0-4.6-1.7-9.1-1.6-13.6l0.1-4.1c10.1,25,20.8,49.3,37.7,70.5c8.6,10.8,18.5,20.7,29.8,28.8c5.4,3.9,11.1,7.4,17.1,10.4
		c5.7,2.9,12.7,5.9,18.6,7.2c-13.8-8.4-25.2-17.1-34.9-26.3c0.1,0,0.1,0,0.2,0c11.7,1.6,27.5-5.6,35.5-16.6c2.3-3.1,11-16.4,6.2-25
		c0.5,16.2-15.7,27.3-16,27.4c-16.2,9.5-24,3-35.8,4.1c-18.7-19-33.3-40.7-43.8-65.2c-8-18.6-14.8-40.3-9.7-60.5
		C22.8,28.4,47,18.7,69.7,16.8c6.5-0.6,13-0.7,19.5-0.4c32.3,1.3,62.2,12.8,91.2,26.3c9.3,4.3,18.5,9,27.5,14
		c38.9,21.8,76.4,49.7,82.4,54.5l49.5,40.3c17.7,18.8,35.5,37.6,53.2,56.4C389.9,202.7,386.8,197.4,383.7,192.2z M265.9,77.1
		l-14.7-11c-4.4-3.3-9.4-6.6-14.5-9.8c3-1.9,6-3.8,9.2-5.5c14-7.3,32.3-19,48.9-14.9c18.9,4.6-4.2,9.9-4.1,19.1
		c0.1,9.2-4.4,16.9-13.2,19.2C273.9,75.2,269.7,75.9,265.9,77.1z"/>
	<path fill="#2B2B2B" d="M264,221.7c8-2.5,15-6.8,14.6-14.2c-0.3-7.2-10.2-8.3-15.9-10.4c-5.1-1.8-11.1-1.9-11.7-7.1
		c-0.6-5.5,4.6-9.4,4.8-14.9c0.9-14.9-32.2-28.7-44.2-28.6c-9.8,0-19.7,6.2-29.7,5.1c-8.2-1-8.5-7.5-14.3-11.2
		c-7.1-4.4-17-0.8-22.8,3.9c-7.8,6.4-18.6,34.6-6.2,41.4c8.4,4.6,35-6.7,35.5-0.1c0.5,7.5-35.2,17.5-34,25c1.4,9.3,2.5,18.4,6,23
		c2.8,3.7,22-25.9,28.5-25.2c12.6,1.4,14,17.4,20.2,12.4c6.9-5.6,11.4-31.1,22-28.4c15.8,4,5.5,36.2,27.5,33
		C248.9,225.1,256.9,224.1,264,221.7z"/>
	<path fill-rule="evenodd" clip-rule="evenodd" fill="#2B2B2B" d="M310.2,327.2c9.4,18.1-2.2,41.6-1.1,54.2
		c1.1,12.7,8.6,24.1,18,17.9c9.4-6.2,16.7-6.2,21.4-11.5c4.7-5.3-4.7-13.9-3-18.4c-7.1,1.1-5,6.5-4.8,10.6c0.2,4.1-4.2,6.6-10.5,7.1
		c-6.4,0.5-5.2,10.2-12.3,3C309,381.4,331.5,342.5,310.2,327.2z"/>
	<path fill-rule="evenodd" clip-rule="evenodd" fill="#2B2B2B" d="M314.5,325.4c25.4,21.1,44.7,50.2,46.6,82.6h12
		c-0.2-4.9-0.8-9.8-1.8-14.5c-0.5-2.4-2.8-7.3-1.6-9.5c1-1.9,6-3.4,7.8-2.2c2.3,1.6,1.7,6.5,2,8.9c0.8,5.7,3.9,12.9,9.7,6.4
		c9.3-10.3,6.3-33.6,0.8-44.7c-0.1-0.2-0.2-0.3-0.2-0.5c-3.5-6.9-7.4-11.5-12.6-3c-4-8.8-0.7-15.8-1.7-24.7
		c-0.6-5.5-7.4-16.3-13.4-17.5c-6.3-1.3-11.3,9.9-11.2,15.3c0.1,5.1,5.6,7.8,6.2,12.8c0.7,5.6-2.1,12.1-2.8,17.6
		c-3.8-5.9-8-11.5-12.5-16.9c-17.8-21-37.5-31.2-62.9-40l-95-35.1l91.9,44C289.3,310.2,303.2,316,314.5,325.4z"/>
	<path fill-rule="evenodd" clip-rule="evenodd" fill="#2B2B2B" d="M344.1,178c8.6,1.1,14.3,6.9,18.1,14.4
		c5.9,11.7,10.3,34.8,26.7,36.6c3.2,0.4,12.8-2.4,15.4,0.8c8.7,10.5,10.1,26.5,15.8,38.6c5.4,11.3,15.8,16.7,25.9,22.9
		c1.8,1.1,3.7,2.4,3.7,4.8c0,10.7-6.2,21.2-8.3,31.7c-1.5,7.3,0.3,13.1,2.6,19.8c4.9,14.6,8.7,29,2.3,44.4c-2.2,5.4-4.8,10.8-7.5,16
		h11.2c3.9-8.4,6.8-17.2,8.5-26.5c2.6-14.6-1.6-25.3-6-38.6c-5.7-16.9,7.5-31.1,6.7-48.1c-0.4-9.9-11-12.7-17.6-17.2
		c-16.1-11-17.3-29.5-25.2-46.2c-2.3-4.7-4.7-9.7-9.9-11.4c-6.5-2.1-18.1,3.4-22.8-2.5c-9.7-12.3-13.6-30.6-27.3-39.4
		c-16.8-10.8-39.9,3.9-55.6,9.8C314.2,184.1,330,176.2,344.1,178z"/>
</g>
</svg>
