<?xml version="1.0" encoding="utf-8"?>
<!-- Generator: Adobe Illustrator 15.0.0, SVG Export Plug-In . SVG Version: 6.00 Build 0)  -->
<!DOCTYPE svg PUBLIC "-//W3C//DTD SVG 1.1//EN" "http://www.w3.org/Graphics/SVG/1.1/DTD/svg11.dtd">
<svg version="1.1" id="Layer_1" xmlns="http://www.w3.org/2000/svg" xmlns:xlink="http://www.w3.org/1999/xlink" x="0px" y="0px"
	 width="450.557px" height="401.206px" viewBox="8.344 0 450.557 401.206" enable-background="new 8.344 0 450.557 401.206"
	 xml:space="preserve">
<path fill="#1C1C1C" d="M362.601,329.3c1.5-2.898,6.801-3.701,12.301-2c5.5,1.699,8.898,5.4,7.5,8.102
	c-1.301,2.898-7,3.697-12.5,2.1C364.3,335.9,361.101,332.201,362.601,329.3z"/>
<g>
	<path fill="#2B2B2B" d="M385.7,339.9c1-3.301,1.398-5.199-1.602-7.4c-8-5.699-17.6-4.6-26.6-4.299c0,0,0.8,1.699,0.8,1.799
		c2.2,4.4,6.5,8.201,6.5,8.201c-2.899-0.9-3.5-0.4-6-2.5c-3.2-2.5-11.1-10.301-3.5-12.801c10.3-3.301,20.101-1.4,28.4,6.1
		C387.8,332.701,388.101,335.4,385.7,339.9z"/>
</g>
<path fill="#2B2B2B" d="M209.9,223.9c7.9,0.301,5,8.699,8.8,14.699c3.7,5.9,5.8,14.602,6.4,19.9c0.5,5.199,5.7,11.899,13.7,5.899
	c8-6.101,6.2-9.5,14-8c7.7,1.5,9.7,15.699,21.5,9.199c11.9-6.601,0.602-13,8.102-14c7.6-1.101,24.898,0.801,22.398-2.101
	c-2.5-2.9-5.8-11.399-1.1-14.199c4.699-2.899,5.1-12.399-4.801-16.2c-9.899-3.8-20.5-2.699-25.199-10.3
	c-4.602-7.6-21.5-10.3-28.9-11.3c-7.5-1.1-11.9-8.8-25.9-9.7c-13.8-0.8-29.5,0.9-27,6.6c2.6,5.7,19.3,11,16.4,17.2
	C205.1,217.8,203,223.6,209.9,223.9z"/>
<path fill="#2B2B2B" d="M91.9,155.9c-1.3-0.1-2.7-0.3-4-0.6c-3.8-0.9-7.6-2-11.3-3.4c-7.2-2.8-13.7-7-18.9-12.9
	c-13.5-15.2-18-37.3-22.1-56.5C31.2,61.8,27.7,40.9,23.9,20C23.7,19,21.1,8.8,22,8.2c0.5-0.3,2.7,6.4,2.9,7
	C31.6,34.1,38,53,44.6,71.8c1.5,4.2,4.1,9.1,3.7,13.6c-0.3,3.9-2.2,7.7-1.2,11.7c1.6,6.3,8,13,9.8,19.3c2.1,7.2,4.7,14.2,11.7,17.8
	c6.9,3.6,14.9,3.8,21.8,7.3c6.6,3.3,12.5,8.2,17.7,13.4c12.4,12.2,20.9,29,37.7,36c11.7,4.9,20-4,31.3,1.8
	c12.7,6.6,24,29.299,26.3,42.7c0.6,3.301,2.4,11.5-0.5,14.301c-2.7,2.6-6.4-1.602-8.2-3.5c-4.9-4.9-10-10.4-14.2-16
	c-3.8-5.102-3.3-11.301-5.1-17.102c-2.2-7.301-8.4-5.699-14.4-4.301c-4.6,1-9-0.799-13.3-2.1c-5.4-1.5-10.9-2.5-16.4-3.3
	c-3.1-0.5-5.9,0.2-8.2-2.4c-3.5-4-6.7-9.1-9.3-13.8c-2.1-4-1.9-7.2-2.6-11.5c-0.9-5.2-4.9-9.9-8.1-13.9c-2.3-2.9-3.5-4.7-7.1-5.4
	C94.7,156.2,93.3,156,91.9,155.9z"/>
<path fill="#2B2B2B" d="M310.7,358.9c-19.301,10.6-33.5,28.9-53.7,37.1c-21.899,8.701-48.1,6.201-63.1-5.299
	c-4.2-3.201-10.3-12-7.1-19.102c7.7-16.801,27.6-30.301,45.1-23.801c11.601,4.701-4.1,3.9-10.299,6.9c-6.8,3.201-5.3,11.898-11.6,15
	c-4.6,2.301-13.8,5.398-1.5,14c5.8,4.1,13.5,6.1,21.7,6.898c14.1,1.5,19.199,3.701,32-3.5c11.1-7.299,22.3-14.6,33.398-21.898
	C300.601,363.099,305.601,361,310.7,358.9z"/>
<path fill="#FF9729" d="M337.601,194.9c-7.899-5.4-16.301-10.8-22.699-18.1c-3-3.4-3.801-8.6-6.801-12.5
	c-3.801-5.2-9.601-9.2-12.301-14.2c-3.1-6-3-11.2-8.1-16.1c-5.2-5-13.801-12.1-21.602-6.7c-4.199,2.9-6.3,5.7-6,11.1
	c0.2,4.3,0.7,9.9,2,13.7c3.102,8.9,11.7,8,11,16.1c-0.898,10.2-18.5-9-19.898-11.2c-5-8-9.4-19.5-3.9-28.5
	c6.7-10.8,22.5-11.9,33-6.7c13.602,6.7,19.602,22,26.2,34.5C316.3,171.1,326,183.2,337.601,194.9z"/>
<path fill="#2B2B2B" d="M435.8,346.701c0,0,0-0.102,0.102-0.102c1.3-2.6,3.898-4.301,6-6.199c1-0.9,3.6-3.102,3.8-4.602
	c-0.602,0.4-2.9,1.801-3.3,2.102c-1.302,0.801-2.5,1.5-3.9,2.199c-2.9,1.5-6,2.801-9,4.301c-3.9,1.801-7.7,3.398-12.1,3.5
	c-5.4,0.199-10.802-0.699-16.2,0.1c-8.5,1.301-13.7,4.801-25.601,4.9c-4.101,0-19.899-5.602-24.399-5.801c-2.9-0.1-6.101,1-9,1.602
	c-4.101,0.898-8.2,1.199-12.3,0.299c-2.5-0.5-4.801-1.5-7.2-2.4c-2.5-0.898-4.8-2-7-3.5c-3.7-2.5-8.8-7-8.2-12.1
	c0.3-2.799,2.6-4.799,4.5-6.6c2.4-2.301,4.7-4.699,6.7-7.4c-0.5,0.6-1.8,1.1-2.5,1.5c-0.9,0.5-1.9,1-2.8,1.6
	c-1.9,1-3.801,2.102-5.5,3.5c-2.7,2.201-4.801,5-5.9,8.303c-2.5,7.6,0.7,16,7.1,20.6c1.9,1.4,4,2.4,6.2,3.199
	c4.8,1.801,9.5,2.6,14.601,2.898c5.101,0.303,10.199,0.102,15.301,0c2.8,0,5.6,0,8.398,0.102c11.801,0.5,23.4,1.301,35.2,0.1
	c14.2-1.398,27.102-3.1,40.2-9.199c2.1,6.699-7.9,10.199-12.3,12c5.398,0.699,12.2-3.398,15.6-7.301
	C434.2,352.3,434.6,349.3,435.8,346.701z"/>
<path fill="#FF9729" d="M307.101,305.701c-13.699-2.701-17.899-8.4-20.601-16.9c-1.101-3.5,4.8-10.2-0.601-13
	c-10-5.301-22.801,0.199-33.601-6c-9.899-5.7-19.1,12.5-28.8,6.699c-7-4.199-8.4-8.699-17.6-9.199c-16-0.899-8.5,15.3-0.4,20.199
	c6.6,4.101,8.9,3.601,8.3,11.301c-0.4,5.9-6.1,5.601-8.7,9c6.2,3.5,12.2,9.199,20.1,7.699c13.7-2.699,14.6-12.399,29.399-4.4
	c5.601,3.102,8.199,8.5,11,13.9c2.101,4.201,5.101,10.4,10.399,10.9c2.7,0.301,5.601-1.9,7.7-3.4c4.3-3.1,3.5-9.6,7.5-12.4
	c3.8-2.6,11-0.6,15.3-1.1C313.5,318.4,320.3,307.3,307.101,305.701z"/>
<path fill="#2B2B2B" d="M77.3,241.4c-20.9-8.3-43.7-12.3-60.2-31.9c-16.5-19.7,25-13.2,33-8c-1-0.7-14.1-0.5-16-0.299
	c-5.5,0.699-6.3,2-2.9,8.299C40.2,225.6,62.9,231.5,77.3,241.4z"/>
<path fill="#FF9729" d="M141.1,130.9c-5.9-15.1-8.2-32.1-23.4-42.8c-15.2-10.7-11.5,20.4-7.6,25.9c-0.2-4.1,0.5-8.1,0.1-12.3
	c-0.3-3.3,0.3-5.2,3.9-4.1C128.9,102,132.8,119.6,141.1,130.9z"/>
<path fill="#FF9729" d="M458.1,305.8c-0.5-2.2-1.398-4.801-2.3-6.899c-1-2.2-2.1-4.399-3.1-6.601c-0.7-1.5-1.2-2.2-0.8-3.801
	c0.3-1.399,0.898-2.799,1.198-4.299c0.5-2.602-0.898-5.4-2.1-7.602c-1.4-2.699-3.4-5.1-5.7-7.199c-0.7-0.699-1.5-1.301-2.5-1.801
	c-0.398-0.199-1.5-0.199-1.898-0.5c2.3,2,4.198,4.5,5.5,7.301c1.198,2.6,1.3,5.199,0.6,8c-2-3.699-4.5-7.199-6.9-10.699
	c-2.398-3.602-5.198-6.9-8-10.102c-2-2.301-4.1-4.5-6.3-6.699c-8.3-8.301-17.7-15.602-27.5-22c-10.199-6.699-21-12.602-31.699-18.4
	C344,202.201,315.3,184.3,275.8,175.1c-29.5-6.8-68.3-15.6-103-27.8c-22.2-7.8-44.4-17.5-63.5-31.5c-3-2.2-13.8-9.3-23.6-19
	C59.4,71.6,50.1,35.1,56.2,0h-7.3c-0.5,4.2-0.7,8.5-0.9,12.7c-0.4,11.6,0.4,23.3,2,34.8c1.6,11.4,6.8,21.9,13.8,33.7
	c-6.9,1.3-5.4,10.6-3.8,15.4c3.8,11.9,15.7,0.7,23.1,9.9s-6.4,4.6,0.1,15.4c6.5,10.8,8.3,7.5,23.8,10.6s16.5,11.9,23.1,21.9
	s0,13.4,14,23.6s18.5-13.9,22.3-17.4c3.6-3.4,10.4-6.4,16.3-4.1c20.1,9.6,40.7,24,60.1,28.6c31.602,7.5,51.9,11.2,72,18.101
	c-12.3,0.6-23.5,4.699-6.199,13.799c22.199,11.701,50.5,21.601,38.899,26.101S325.399,237,326,250.3c0.601,13.4,22.8,13.8,14.5,23
	c-8.3,9.199-19.7,17.5,3.7,19.601c12.3-0.2,14.1,3.699,21.199,9.899c7,6.102,13.601,19.199,25.899,15.4
	c12.2-3.701,24.602,8.398,32.102-2.102c7.398-10.6-12.102-12.801-6.9-21c5.2-8.199,19.3-12.398,3-19.801
	c-16.2-7.299-26.101,1.301-22.8-14.199c1.2-5.6,0.1-11.199,1.1-16.801c0,0.201,3.2,1.701,3.5,1.9c1.2,0.7,2.4,1.301,3.602,2
	c2.3,1.399,4.6,2.801,6.898,4.301c5.7,3.799,10.8,8.299,15.602,13.1c4.198,4.301,8,9,11.5,14s6.8,10.102,9.5,15.5
	c2.398,4.9,4.3,10.102,4.398,15.602c0,2.398-0.2,4.699-0.7,7c-0.6,2.799-5.6,16.299-6,17.299c0,0.1-0.1,0.5-0.1,0.5
	c6.3-4.799,12.3-15.199,12.9-23.299C458.8,310.201,458.1,305.9,458.1,305.8z"/>
<path fill="#2B2B2B" d="M237.601,328.4c-10.399-5.301-17.899-4.199-28.5-8.301c-7.3-2.801-17.9-11.301-23.6-13.898
	c-3.7-1.701-7.5-3.4-11.2-5.102c3.9-1.199,6.3-4.6,3-10.801C171.8,280,166.2,289.099,162.6,276c-3.6-13.101-1.4-12.4,3.3-11.801
	c4.7,0.6,6.5,2.801,8.4-6c2-8.8,3.3-14.9-5.8-15c-9.1-0.101-21,5.399-23.1-3.601s-10-13.601-1.7-19.8c-8.4-0.2-16.3-3.399-22.4-9.1
	c-3.1-3-7.7-11.5-13.2-7.9c-5.3,3.5-0.8,12.4,1.5,16.199c1.5,2.601,3.3,5.101,5.1,7.5c2.9,3.701,1.7,4.201-1.8,6.9
	c-2.3,1.801-5.9,5-9.1,4.301c-3.7-0.9-4.2-6-4.2-9.102c-0.1-7,2.2-14-5.1-18.398c-3.9-2.4-7.7-5.201-12.1-2.9
	c-4.9,2.5-9.1,5.199-13.1-0.2c-5.9-7.8,2.3-18.6-8.2-24.5c-6.1-3.4-9.6-6.4-12.9-12.7c-6.2-11.7-7.9-25-12.9-37.2
	c-4.1-10.1-11.5-19-14-29.7c-3.1-13.1-2-25.8-1.1-39c0.7-9.7-1.1-19.1-2.9-28.6c-1-5.6-2.2-11.2-2-16.9C15.6,12.3,16,6.2,16.6,0H9.9
	C9.7,2.9,9.5,5.8,9.3,8.7c-2.1,37.6-1.4,75.6,8.9,112.1c11,39.1,28.6,75.3,53,107.8C78,237.701,85.3,246.5,92.9,255
	c9.3,10.4,19.4,20,30.4,28.601C159,311.8,199.2,333,244,342.3c10.7,2.199,21.3,3,32.101,4.199
	C263.899,345.201,252.399,335.4,237.601,328.4z"/>
</svg>
