<?xml version="1.0" encoding="utf-8"?>
<!-- Generator: Adobe Illustrator 15.0.0, SVG Export Plug-In . SVG Version: 6.00 Build 0)  -->
<!DOCTYPE svg PUBLIC "-//W3C//DTD SVG 1.1//EN" "http://www.w3.org/Graphics/SVG/1.1/DTD/svg11.dtd">
<svg version="1.1" id="Layer_1" xmlns="http://www.w3.org/2000/svg" xmlns:xlink="http://www.w3.org/1999/xlink" x="0px" y="0px"
	 width="451.748px" height="401.951px" viewBox="7.551 6.05 451.748 401.951" enable-background="new 7.551 6.05 451.748 401.951"
	 xml:space="preserve">
<g>
	<path fill="#2B2B2B" d="M384.6,289.7c7.301,9.6,13.601,21.201,17.899,32.5c11.1,28.301,10.9,58.1,2.301,85.801h8.799
		c5.803-18.4,8.303-37.701,6.803-56.6c-1-13.102-4.4-25.803-9.701-37.803c-9.199-20.698-23.199-38.499-38.199-55.299
		c-7.601-8.5-15.301-16.801-23-25.1c-6-6.5-11.701-14.701-18.801-20.201c-6.199-4.699-12.4-9.399-18.601-14.2
		c-3.601-2.8-8.199-5.3-11.3-8.6l57.699,64.7C367.201,266.5,375.8,278.2,384.6,289.7z"/>
	<path fill="#1C1C1C" d="M89.8,123.7c0.2-4.5-5.6-8.3-12.9-8.5c-7.3-0.2-13.4,3.3-13.7,7.7c-0.2,4.5,5.6,8.3,12.9,8.5
		C83.5,131.7,89.6,128.2,89.8,123.7z"/>
	<path fill="#2B2B2B" d="M120.7,216.7c-5.1,3.1-3.2,59.399,7.1,81.6c10.4,22.201,29.5,38.201,39.7,21
		c10.2-17.199,21.3-21.799,25-34.398c3.6-12.602-16.7-22.199-17.1-31.4c-10.1,6.5-3.3,15-0.2,22.201c3.1,7.299-1.9,14.6-11.2,19.6
		c-9.4,5-1,21.699-16.7,13.299C127.8,298.299,125.2,250.1,120.7,216.7z"/>
	<path fill="#FF9729" d="M138.4,144.7c-1.9-0.6-3.2-1.8-5-4.6c-2.7-4-7.8-9.8-6.8-15c0.6-3.1,2.9-3,4.3-5.2
		c2.5-3.9,0.4-7.5-0.4-12.2c-1.4-9.2-1.7-18.5,0.3-27.6c4.2-19.2,27,1.2,31.5,8.8c2.6,4.4,7.7,13.6,14.1,13.1c8-0.6,6.4-8.1,8-12.9
		c1.7-5,9-6.7,13.4-3.6c5.4,3.8,9.2,15.6,17.6,14.2c7.1-1.2,2.9-10,1.9-14.6c4.2-4.7,9.3-3.5,11.7,1.5
		c1.301,2.7,1.701,6.3,4.801,7.7c4.199,1.9,7.9-1.5,5.9-5.9c7.1-3.5,14.199-8.5,22.1-4c3.5,2,7.9,4.3,11.101,6.7
		c2.5,1.9,4.3,6.3,7.8,5.9c4.2,4.2,8.801,8.7,11.5,14c3.5,7,0.899,10.3-2.699,16.3c-3,4.8-5.801,14.7-13.101,14.3
		c-5.899-0.3-9.2-7.8-13.801-10.6c-7-4.3-3.899,4.2-6.5,9.3c-2.3,4.5-12,9.8-15.399,3.5c-1.9-3.6,3.399-10.6-1-13
		c-3.699-2-10.5,4-10.8,7.4c-7.2,6.2,6,13.4,10.8,14.4c3.399,0.7,6.7,0.9,10.2,1.3c6.399,0.7,10.699,5.3,17.5,4.6
		c5.699-0.6,9.199-2.3,12.899,3.5c2.601,4.1,3.101,9,3.601,13.7c1.101,10.3,9.899,7.2,15.699,14.2c7.101-8.2,12.2,11.2,12.899,15.8
		c1.701,10.1-5.699,9.399-8,16.6c-1.799,5.602,0.601,17.102,5.801,19.9c8.199,4.5,9.4-1,14.5-5.5c11.9-10.5,11.199,12.1,14.3,19.301
		c11.7-4.701,20.5,1.899,21.301,14.699c0.8,12.899-11,12.7-18.5,18.7c-5.7,4.601,1.601,15.101-5.399,17.399
		c-3.701,1.199-6.5,1-10.301,2.9c-4.199,2.199-7.5,3.299-12.3,2.799c-17.2-1.9-38.801-4.1-51.101-17.6
		c-4.801-5.2-7.1-10.102,1.199-12.301c8.201-2.199,17.201-1.6,25.5-3.199c-1.199-2.4-6.1-1.301-8.5-3.7
		c-2.399-2.5-2.899-6.7-3.199-10c-0.399-3.2,0.5-8.2-1-11.101c-1.899-3.6-6.2-2.301-10.899-2.199c-3.2,0-3.7-9.5-3.399-11.301
		c0.6-4.5,3.199-8.399,3.399-12.899c0.601-14.899-14.399-6.3-17.601,2.101c-1.5,3.899-0.6,6.5-5.2,8s-6.5-1.399-8.899-4.399
		c-2.5,0.399-5.1,2.101-6.699,4.101c0,0.1,4.699,8.399,4.799,9.399c0.601,3.5-0.399,6.601-3.5,8.5c-5.5,3.399-19,3.199-24.899,1.3
		c-11.8-3.8-16.6-15-17.8-26.3c-1.1-10.2-8.5-9-14.1-16c-3.1-3.899-2.1-7.801-1-12.3c1.9-7.3,3.9-14.8,5.3-22.1
		c9.4-3.1,28.2-5.1,26.3-18.5c-0.7-5.3-4.1-10.5-9.9-8.1c-4.9,2-4.5,8.4-7.9,10.6c-2.1,1.3-6.9-0.2-9.2-0.9c-4.7-1.4-3.9-3.5-7-6.2
		c-6.7-5.8-9.3,6.7-15.9,6.7c-7.2,0-9.8-13.2-8.9-18.4C141.4,145.3,139.7,145.2,138.4,144.7z"/>
	<polygon fill="#231F20" points="7.7,88 7.7,88.1 7.7,88.1 	"/>
	<path fill="#2B2B2B" d="M58.6,47.9c-0.2,0.2-0.4,0.4-0.7,0.6c-3.8,2.5-8.3-1.7-12.6-0.9c-6.4,1.1-6.2,6.5-2.6,9.9
		c3,0,18,4.3,17,6.9c-0.6,1.5-10.5,2.1-12.2,2.4c-5,0.9-11.2,1.3-15.8,3c-9,3.2,3.8,13.7,9.3,14.7c7.6,1.5,10-3,13.9-6.8
		c3.1-3,2.3-3.2,7-1.4c2,0.7,6.2,4,6.2,5.9c0,4.3-6.6,5-5.6,9.8c1.6,7.8,19.5,13.1,15.5,1.7c5.7-0.8,7.6,5.6,11.2,7.8
		c6.6,4.1,14.1,0.2,9.2-6.5c8.6-2.5,11.4,4.6,17.9,5.3c5,0.5,2-14.5,1.8-16.8c-0.4-3.6-0.4-5.7,3.3-7.1c2.8-1.1,6.2-1.8,9.1-2.3
		c4-0.7,8-0.3,11.6,1.5c7.7,3.6,12.2,11.3,17.6,17.5c3.8,4.4,7.3,6.1,11.1,0.8c4.2-6,7-13.9,8.8-20.9c1.2-4.5,2.6-10.5-2.7-12.8
		c-6.4-2.7-15.5-0.7-22.1-0.3c-8.9,0.7-18.4,1.9-27.3,0.4c-5.4-0.9-7.7-3.5-3.3-7.7c2.4-2.3,5.4-4.1,8.1-5.9c1.7-1.2,5.6-3,6.4-5.1
		c1.9-4.9-12.8-4.2-15.3-4.3c-3.8-0.1-8.1,1-11.1-1.9c-2.1-2.1-3.1-5.4-6.2-6.4c-7.6-2.6-1.6,13.1-6.7,15.9c-3.7,2-9-5.8-10.7-7.5
		c-4.9-4.5-6.2-2.5-8.3,2c-1.8,3.9-3.4,2.2-6.8,0c-3.9-2.5-9.3-1.3-12.1,2.2C60.4,43.1,60.3,46.1,58.6,47.9z"/>
	<path fill="#2B2B2B" d="M57.9,119.3c2.1-3.9,3.4-5.9,8-5c11.1,2.3,20.5,12.5,26.7,21.5c-1.9,0.5-4.1,1.6-6.1,1.8
		c-1.4,0.1-13.5-3.7-13.8-3.2v0.1c3.3,2,8.1,5.9,12,6.5c5.1,0.8,18.8,1.5,14.4-7.9c-5.9-12.6-16.1-20.3-29.9-21.5
		C62.5,110.9,59.6,113,57.9,119.3z"/>
	<path fill="#2B2B2B" d="M383.701,192.2c-17.5-29.6-42.4-52.3-67-75.8L298.4,101.3l-20.8-15.6c6.899-0.1,13.601-1,18.399-5.5
		c10.4-10,8.9-20.2,20.4-37.3c11.398-17.1-14.602-20.2-42-13.8c-16.5,3.9-19.4,9.7-34.699,18.3c-1.602,0.9-5,3-8.601,5.3
		c-7.5-4.4-15.3-8.6-22.6-12.2c-28.7-14.1-60-26.3-91.6-31.5C107,7.4,97.3,6.3,87.4,6.1c-24.7-0.6-56,3.9-70.5,26.8
		c-9.7,15.4-9.6,31.8-9,49.2C8,85,9.2,89.1,8.6,92c-1.8,8.6-1.8,17.2,4.2,24.1l0.4-0.2c0-4.6-1.7-9.1-1.6-13.6l0.1-4.1
		c10.1,25,20.8,49.3,37.7,70.5c8.6,10.8,18.5,20.7,29.8,28.8c5.4,3.9,11.1,7.4,17.1,10.4c5.7,2.899,12.7,5.899,18.6,7.199
		C101.1,206.7,89.7,198,80,188.8c0.1,0,0.1,0,0.2,0c11.7,1.6,27.5-5.6,35.5-16.6c2.3-3.1,11-16.4,6.2-25c0.5,16.2-15.7,27.3-16,27.4
		c-16.2,9.5-24,3-35.8,4.1c-18.7-19-33.3-40.7-43.8-65.2c-8-18.6-14.8-40.3-9.7-60.5C22.8,28.4,47,18.7,69.7,16.8
		c6.5-0.6,13-0.7,19.5-0.4c32.3,1.3,62.2,12.8,91.2,26.3c9.3,4.3,18.5,9,27.5,14c38.9,21.8,76.4,49.7,82.4,54.5l49.5,40.3
		c17.699,18.8,35.5,37.6,53.199,56.4C389.9,202.7,386.8,197.4,383.701,192.2z M265.9,77.1l-14.699-11c-4.4-3.3-9.4-6.6-14.5-9.8
		c3-1.9,6-3.8,9.199-5.5c14-7.3,32.301-19,48.898-14.9c18.9,4.6-4.199,9.9-4.1,19.1s-4.4,16.9-13.199,19.2
		C273.9,75.2,269.701,75.9,265.9,77.1z"/>
	<path fill="#2B2B2B" d="M264,221.7c8-2.5,15-6.8,14.601-14.199c-0.3-7.201-10.199-8.3-15.899-10.4
		c-5.101-1.8-11.101-1.9-11.699-7.1c-0.601-5.5,4.6-9.4,4.799-14.9c0.9-14.9-32.199-28.7-44.199-28.6c-9.8,0-19.7,6.2-29.7,5.1
		c-8.2-1-8.5-7.5-14.3-11.2c-7.1-4.4-17-0.8-22.8,3.9c-7.8,6.4-18.6,34.6-6.2,41.4c8.4,4.6,35-6.7,35.5-0.1c0.5,7.5-35.2,17.5-34,25
		c1.4,9.301,2.5,18.4,6,23c2.8,3.699,22-25.898,28.5-25.199c12.6,1.398,14,17.398,20.2,12.398c6.9-5.6,11.4-31.099,22-28.399
		c15.8,4,5.5,36.2,27.5,33C248.9,225.1,256.9,224.1,264,221.7z"/>
	<path fill="#2B2B2B" d="M310.201,327.2c9.398,18.1-2.201,41.6-1.102,54.201c1.102,12.697,8.602,24.1,18,17.898
		c9.4-6.201,16.699-6.201,21.4-11.5c4.699-5.301-4.701-13.898-3-18.398c-7.101,1.1-5,6.5-4.801,10.6c0.2,4.1-4.199,6.6-10.5,7.1
		c-6.4,0.5-5.199,10.199-12.3,3C309,381.401,331.5,342.5,310.201,327.2z"/>
	<path fill="#2B2B2B" d="M314.5,325.401c25.4,21.1,44.701,50.197,46.601,82.6h12c-0.199-4.9-0.8-9.801-1.8-14.5
		c-0.5-2.4-2.801-7.301-1.6-9.5c1-1.9,6-3.4,7.799-2.201c2.301,1.602,1.701,6.5,2,8.9c0.801,5.701,3.9,12.898,9.701,6.398
		c9.299-10.299,6.299-33.6,0.799-44.697c-0.1-0.201-0.199-0.303-0.199-0.5c-3.5-6.9-7.399-11.5-12.6-3
		c-4-8.803-0.701-15.803-1.701-24.701c-0.6-5.5-7.399-16.299-13.399-17.5c-6.3-1.3-11.3,9.898-11.199,15.301
		c0.101,5.1,5.601,7.799,6.199,12.799c0.7,5.602-2.101,12.102-2.8,17.602c-3.801-5.9-8-11.5-12.5-16.9
		c-17.801-21-37.5-31.199-62.899-40l-95-35.1l91.899,44C289.3,310.2,303.201,316,314.5,325.401z"/>
	<path fill="#2B2B2B" d="M344.1,178c8.601,1.1,14.301,6.9,18.101,14.4c5.899,11.7,10.301,34.8,26.7,36.601
		c3.199,0.399,12.8-2.4,15.399,0.799c8.699,10.5,10.102,26.5,15.799,38.602C425.5,279.7,435.9,285.1,446,291.299
		c1.801,1.102,3.701,2.4,3.701,4.801c0,10.699-6.201,21.199-8.301,31.699c-1.5,7.301,0.301,13.102,2.6,19.801
		c4.9,14.602,8.701,29,2.301,44.4c-2.201,5.4-4.801,10.799-7.5,16H450c3.9-8.4,6.801-17.201,8.5-26.5c2.6-14.6-1.6-25.301-6-38.6
		c-5.699-16.9,7.5-31.102,6.701-48.102c-0.4-9.899-11-12.7-17.602-17.2c-16.1-11-17.301-29.5-25.199-46.199
		c-2.301-4.7-4.699-9.7-9.9-11.399c-6.5-2.101-18.1,3.399-22.799-2.5C374,205.2,370.099,186.9,356.4,178.1
		c-16.801-10.8-39.9,3.9-55.602,9.8C314.201,184.1,330,176.2,344.1,178z"/>
</g>
</svg>
