<?xml version="1.0" encoding="utf-8"?>
<!-- Generator: Adobe Illustrator 15.0.0, SVG Export Plug-In . SVG Version: 6.00 Build 0)  -->
<!DOCTYPE svg PUBLIC "-//W3C//DTD SVG 1.1//EN" "http://www.w3.org/Graphics/SVG/1.1/DTD/svg11.dtd">
<svg version="1.1" id="Layer_1" xmlns="http://www.w3.org/2000/svg" xmlns:xlink="http://www.w3.org/1999/xlink" x="0px" y="0px"
	 width="458.301px" height="383.77px" viewBox="-0.001 17.43 458.301 383.77" enable-background="new -0.001 17.43 458.301 383.77"
	 xml:space="preserve">
<path fill="#FF9729" d="M77.3,120.3c11.3,10.6,20.7,9.5,33,8.9c12.3-0.6,24.7,5.4,36.3,16.9c11.6,11.6,23.4,5.3,33.7,16.2
	c10.3,10.9,28,9.8,18.2-7.1c-9.8-16.8-20.3-21.4-21.2-33.3c-0.9-11.9-8.4-20.4-19.2-14.5c-10.8,6-22.2,10.6-26.8-1.1
	c-4.6-11.7-13.5-22.5-21.9-13.9c-8.4,8.7-18.1,23.9-34.4,6.2C58.6,81.1,36,78.1,28.1,85.2c-7.9,7-4.3,7.5,10.6,10.6
	C53.7,98.8,61.6,99,77.3,120.3z"/>
<path fill="#2B2B2B" d="M344.1,151.6c2.399-10.6,17.101-45.4,9.5-82.2c-7.5-36.8-25-66.9-37.899-44
	C302.8,48.3,290.6,51.7,285.1,69.7c-5.5,17.9,14.101,38.7,13.2,52.7c11.3-6.7,5.5-21.6,3.4-33.5c-2.102-11.9,4-21.5,14.299-26.1
	c10.4-4.6,8.9-38.9,19.101-15C345.201,71.8,355.1,96.8,344.1,151.6z"/>
<path fill="#FF9729" d="M354.8,353.6c0.5,1.7,1.9,3,4.199,4.102c5.301,2.398,11-1.5,15.5-4c2.601-1.4,5-3.5,8-4.2
	c8.601-1.9,6.5,9.4,5.601,14.7c-2.7,15.398,17.499,2.199,31.8-10.602c28.1-25.198-6-32.198-24.301-31.8
	c-18.301,0.4-20.801-11.898-18.5-22.399c2.301-10.5-12.1-46.301-23-31.699c-10.898,14.5-1.199,32-16,29.898
	c-14.699-2.1-13.6-18.199-29.898-14.1c-16.3,4.1-1.701,18.5-10.701,19.2S270.6,273.8,256.3,282.3
	c-14.399,8.5-5.1,30.602,23.699,38.4c28.801,7.799,44.801-1,42.9,12.8c-0.801,5.5-5.301,10.1-7.602,15
	c-5.199,11.2,14.9,5.6,18.801,3.1c7.199-4.6,13.199-28.8,24.602-24.1C370.1,332.2,352.8,347.3,354.8,353.6z"/>
<path fill="#2B2B2B" d="M220.8,339c-9.8,6.6-39.3,34.8-79.7,41.8s-77.8,1.5-59.8-20.3c18.1-21.8,16.8-35.2,32.8-47.8
	c16-12.601,44.9-1.3,58.8-7.7c-2.3,13.9-19.8,13.9-32.7,16.5c-12.9,2.6-20.2,12.4-20.8,24.5s-36,24.2-7.6,24.8
	C140.1,371.5,169.5,371.4,220.8,339z"/>
<path fill="#2B2B2B" d="M0,160.2c19.1,9.9,40,22.7,62.8,39.399c-5-12-5.6-27.3,6.1-26.8c16.6,0.7,18.7,24.8,32.9,31.3
	c14.1,6.5-1.4-12.399,5.3-26.2c6.7-13.8,26.8,13.5,37.3,25.3c10.5,11.899,7.5,16.399,25.7,23.2c18.3,6.8,19.8-13.9,38.6-16
	c18.8-2.102,33.7,11.898,34.2,32.699c0.4,20.801-18.1,24.601-29.4,28.5c-11.3,4,7.5,30.9,27.201,40.102
	C258,319.7,265.1,333,258,342.6c9,4.802,18.4,9.802,29.5,16.4c10.601,6.3,21.5,11.3,32.301,15.3c-0.6-4.898,9.699-6.8,20-4
	c8.3,2.3,16.4,9.5,18.8,14.2c0.399,0.7,25.399,2.5,30.7,2.3c14.299-0.398,27.799-3.898,39.602-12.3c6.898-4.9,11.398-11.9,13.5-20
	c3.6-14.7,0.799-30.8-4.602-44.6c-2.1-5.4-4.6-10.7-7.201-15.9c-5.197-1.2-14.1-6.5-18.5-13.5c-5.6-8.7-6.799-18.7-2.398-20
	c-1.602-2.2-3.199-4.3-4.299-5.7c-6.803,12-13.602,28.101-32.102,2.4c-18.5-25.8-27-31.9-34.899-10.3
	c-7.899,21.6-14.801,31.3-34.899,11.5c-20.101-19.801-39.701-1.2-38.201-31.5c1.4-30.301,19.201-29.2-0.6-51.602
	c-19.9-22.4-23.8,21.1-41.6-16.4c-17.8-37.5-43.4-52.3-24.8-60.3c3.5-1.5,6.9-2.6,10.1-3.4C139.1,68.6,71.8,57.1,0,62.9V49.1
	c91.3-6.3,202.5,12.6,289.3,72.2c17.4,12,34.199,25,50,39.1c14,12.5,27.3,25.7,39.601,39.8c24.399,28.3,47.501,60.1,63.399,94.1
	C446.8,303.9,450.5,314,453,324.401c1.4-2.2,3.5-4.2,5.301-6.102c-0.201,0.2-0.1,2.102-0.201,2.5c-0.197,1.102-0.398,2.2-0.799,3.2
	c-0.801,2.2-1.898,4.2-3.201,6.1c3.602,23.302-6.1,46.5-28.299,56.802C420,389.6,413.3,392,407,393c-1.799,0.3-3.6,0.5-5.4,0.7
	c-0.299,0.3-0.697,0.6-1.1,0.898c-1,0.602-1.9,1.302-2.699,2.102c-2.2,2-5.1,3.2-7.801,4.5c0.201-0.102,0.701-1.9,0.9-2.2
	c0.5-0.9,1.1-1.9,1.801-2.7c0.5-0.7,1.1-1.3,1.699-1.898c-15.5,1-31.4-0.4-46.4-3.102c-5.399-1-10.699-2.2-16-3.5
	c-5.699-1.398-11.299-3.1-16.799-5c-9.602-3.3-19-7.6-28.102-12.1c-45.301-22.5-89.3-55.8-119.3-75.3c-57.1-37.2-106-85-167.8-118.9
	L0,160.2L0,160.2z"/>
<path fill="#2B2B2B" d="M0,98.8c25.6,3.7,46.6,21.3,62.7,35.6c17.6,15.7,21.5,15.5,52.6,14.9c31.1-0.7,29.5,30.1,53.6,38.3
	c-2,1.5-16.9,6.6-25.9,0.6s-17.8-26.3-30-27.6c-12.3-1.3-20.4,7.6-37.5,0.8c-17.2-6.8-30.5-20.5-43.4-35.8
	C21.5,113.1,14,110.7,0,110V98.8z"/>
</svg>
