<?xml version="1.0" encoding="utf-8"?>
<!-- Generator: Adobe Illustrator 15.0.0, SVG Export Plug-In . SVG Version: 6.00 Build 0)  -->
<!DOCTYPE svg PUBLIC "-//W3C//DTD SVG 1.1//EN" "http://www.w3.org/Graphics/SVG/1.1/DTD/svg11.dtd">
<svg version="1.1" id="Layer_1" xmlns="http://www.w3.org/2000/svg" xmlns:xlink="http://www.w3.org/1999/xlink" x="0px" y="0px"
	 width="450.756px" height="401.406px" viewBox="0 0 450.756 401.406" enable-background="new 0 0 450.756 401.406"
	 xml:space="preserve">
<g>
	<path fill="#1C1C1C" d="M96.399,329.5c-1.5-2.898-6.8-3.7-12.3-2s-8.9,5.4-7.5,8.102c1.3,2.898,7,3.698,12.5,2.1
		C94.7,336.101,97.899,332.4,96.399,329.5z"/>
	<g>
		<path fill="#2B2B2B" d="M75.2,329.101c8.3-7.5,18.1-9.4,28.4-6.102c7.6,2.5-0.3,10.2-3.5,12.8c-2.5,2.102-3,1.602-6,2.5
			c0,0,4.4-3.698,6.5-8.198c0-0.102,0.8-1.802,0.8-1.802c-9-0.3-18.6-1.5-26.6,4.302c-3,2.198-2.5,4.1-1.6,7.398
			C70.899,335.601,71.2,332.9,75.2,329.101z"/>
	</g>
	<path fill="#2B2B2B" d="M249.101,224.101c-7.9,0.3-5,8.699-8.801,14.699c-3.699,5.899-5.801,14.601-6.398,19.899
		c-0.5,5.2-5.701,11.899-13.701,5.899c-8-6.101-6.2-9.5-14-8c-7.7,1.5-9.7,15.699-21.5,9.199c-11.9-6.6-0.6-13-8.1-14
		c-7.6-1.1-24.9,0.801-22.4-2.1s5.8-11.4,1.1-14.2c-4.7-2.899-5.1-12.399,4.8-16.2c9.9-3.8,20.5-2.699,25.2-10.3
		c4.6-7.6,21.5-10.3,28.9-11.3c7.5-1.1,11.9-8.8,25.9-9.7c13.801-0.8,29.5,0.9,27,6.601c-2.602,5.7-19.301,11-16.4,17.199
		C253.899,218,255.999,223.8,249.101,224.101z"/>
	<path fill="#2B2B2B" d="M367.101,156.101c1.301-0.101,2.699-0.3,4-0.601c3.801-0.899,7.6-2,11.301-3.399
		c7.197-2.8,13.697-7,18.898-12.9c13.5-15.2,18-37.3,22.102-56.5C427.8,62,431.3,41,435.099,20.2c0.201-1,2.803-11.2,1.9-11.8
		c-0.5-0.3-2.699,6.4-2.9,7c-6.6,18.8-13,37.7-19.6,56.5c-1.5,4.2-4.1,9.1-3.699,13.6c0.299,3.9,2.199,7.7,1.199,11.7
		c-1.6,6.3-8,13-9.799,19.3c-2.102,7.2-4.701,14.2-11.701,17.801c-6.898,3.6-14.898,3.8-21.799,7.3
		c-6.602,3.3-12.5,8.2-17.701,13.399c-12.398,12.2-20.898,29-37.699,36c-11.699,4.9-20-4-31.301,1.801
		c-12.699,6.6-24,29.3-26.299,42.699c-0.602,3.3-2.4,11.5,0.5,14.3c2.699,2.602,6.398-1.6,8.199-3.5
		c4.898-4.898,10-10.398,14.199-16c3.801-5.1,3.301-11.3,5.102-17.1c2.199-7.3,8.398-5.7,14.398-4.3c4.602,1,9-0.8,13.301-2.101
		c5.398-1.5,10.898-2.5,16.398-3.301c3.102-0.5,5.9,0.2,8.201-2.399c3.5-4,6.699-9.101,9.299-13.8c2.102-4,1.9-7.2,2.602-11.5
		c0.898-5.2,4.898-9.9,8.1-13.9c2.301-2.9,3.5-4.7,7.102-5.4C364.3,156.4,365.7,156.2,367.101,156.101z"/>
	<path fill="#2B2B2B" d="M148.299,359.101c19.3,10.6,33.5,28.898,53.7,37.1c21.899,8.7,48.101,6.2,63.101-5.3
		c4.199-3.2,10.301-12,7.1-19.102c-7.699-16.8-27.6-30.3-45.1-23.8c-11.601,4.7,4.1,3.9,10.301,6.9c6.799,3.2,5.299,11.898,11.6,15
		c4.6,2.3,13.799,5.398,1.5,14c-5.801,4.1-13.5,6.1-21.701,6.898c-14.099,1.5-19.199,3.7-32-3.5c-11.1-7.3-22.3-14.6-33.4-21.898
		C158.399,363.3,153.399,361.2,148.299,359.101z"/>
	<path fill="#D92425" d="M121.399,195.101c7.9-5.4,16.3-10.8,22.7-18.101c3-3.399,3.8-8.6,6.8-12.5c3.8-5.199,9.6-9.199,12.3-14.199
		c3.1-6,3-11.2,8.1-16.101c5.2-5,13.8-12.1,21.6-6.7c4.2,2.9,6.3,5.7,6,11.101c-0.2,4.3-0.7,9.899-2,13.7c-3.1,8.899-11.7,8-11,16.1
		c0.9,10.2,18.5-9,19.9-11.2c5-8,9.4-19.5,3.9-28.5c-6.7-10.8-22.5-11.899-33-6.7c-13.6,6.7-19.6,22-26.2,34.5
		C142.7,171.301,133,183.4,121.399,195.101z"/>
	<path fill="#2B2B2B" d="M23.2,346.9c0,0,0-0.102-0.1-0.102c-1.3-2.6-3.9-4.3-6-6.198c-1-0.9-3.6-3.102-3.8-4.602
		c0.6,0.4,2.9,1.8,3.3,2.102c1.3,0.8,2.5,1.5,3.9,2.198c2.9,1.5,6,2.802,9,4.302c3.9,1.8,7.7,3.398,12.1,3.5
		c5.4,0.198,10.8-0.7,16.2,0.1c8.5,1.3,13.7,4.8,25.6,4.9c4.1,0,19.9-5.602,24.4-5.802c2.9-0.1,6.1,1,9,1.602
		c4.1,0.898,8.2,1.2,12.3,0.3c2.5-0.5,4.8-1.5,7.2-2.4c2.5-0.898,4.8-2,7-3.5c3.7-2.5,8.8-7,8.2-12.1c-0.3-2.8-2.6-4.8-4.5-6.6
		c-2.4-2.302-4.7-4.7-6.7-7.4c0.5,0.6,1.8,1.1,2.5,1.5c0.9,0.5,1.9,1,2.8,1.6c1.9,1,3.8,2.102,5.5,3.5c2.7,2.2,4.8,5,5.9,8.302
		c2.5,7.6-0.7,16-7.1,20.6c-1.9,1.4-4,2.4-6.2,3.2c-4.8,1.8-9.5,2.6-14.6,2.898c-5.1,0.302-10.2,0.102-15.3,0
		c-2.8,0-5.6,0-8.4,0.102c-11.8,0.5-23.4,1.3-35.2,0.1C56,357.601,43.1,355.9,30,349.8c-2.1,6.7,7.9,10.2,12.3,12
		c-5.4,0.7-12.2-3.398-15.6-7.3C24.799,352.5,24.399,349.5,23.2,346.9z"/>
	<path fill="#D92425" d="M151.899,305.9c13.7-2.7,17.9-8.4,20.6-16.9c1.1-3.5-4.8-10.2,0.6-13c10-5.3,22.8,0.2,33.6-6
		c9.9-5.7,19.1,12.5,28.799,6.7c7-4.2,8.4-8.7,17.602-9.2c16-0.899,8.5,15.3,0.398,20.2c-6.6,4.1-8.898,3.6-8.299,11.3
		c0.398,5.9,6.1,5.601,8.699,9c-6.199,3.5-12.199,9.2-20.102,7.7c-13.7-2.7-14.599-12.4-29.399-4.4c-5.6,3.102-8.2,8.5-11,13.9
		c-2.1,4.2-5.1,10.4-10.4,10.9c-2.7,0.3-5.6-1.9-7.7-3.4c-4.3-3.1-3.5-9.6-7.5-12.4c-3.8-2.6-11-0.6-15.3-1.1
		C145.5,318.601,138.7,307.5,151.899,305.9z"/>
	<path fill="#2B2B2B" d="M381.7,241.601c20.898-8.301,43.699-12.301,60.199-31.9c16.5-19.7-25-13.2-33-8c1-0.7,14.1-0.5,16-0.3
		c5.5,0.7,6.301,2,2.898,8.3C418.8,225.8,396.099,231.7,381.7,241.601z"/>
	<path fill="#D92425" d="M317.899,131.101c5.898-15.101,8.199-32.101,23.398-42.8c15.201-10.7,11.5,20.399,7.602,25.899
		c0.199-4.1-0.5-8.1-0.102-12.3c0.301-3.3-0.299-5.2-3.898-4.1C330.101,102.2,326.2,119.801,317.899,131.101z"/>
	<path fill="#D92425" d="M0.899,306c0.5-2.2,1.4-4.8,2.3-6.899c1-2.199,2.1-4.399,3.1-6.601c0.7-1.5,1.2-2.2,0.8-3.8
		c-0.3-1.4-0.9-2.8-1.2-4.3c-0.5-2.601,0.9-5.4,2.1-7.601c1.4-2.699,3.4-5.101,5.7-7.199c0.7-0.7,1.5-1.301,2.5-1.801
		c0.4-0.199,1.5-0.199,1.9-0.5c-2.3,2-4.2,4.5-5.5,7.301c-1.2,2.6-1.3,5.199-0.6,8c2-3.7,4.5-7.2,6.9-10.7
		c2.4-3.601,5.2-6.9,8-10.101c2-2.301,4.1-4.5,6.3-6.699c8.3-8.301,17.7-15.602,27.5-22c10.2-6.7,21-12.602,31.7-18.4
		c22.6-12.3,51.3-30.2,90.8-39.399c29.5-6.801,68.299-15.601,103-27.801c22.199-7.8,44.398-17.5,63.5-31.5
		c3-2.199,13.799-9.3,23.6-19c26.102-25.399,35.4-61.899,29.4-97h7.299c0.5,4.2,0.701,8.5,0.9,12.7c0.398,11.601-0.4,23.3-2,34.8
		c-1.6,11.4-6.801,21.9-13.801,33.7c6.9,1.3,5.4,10.601,3.803,15.4c-3.803,11.899-15.701,0.7-23.102,9.899
		c-7.398,9.2,6.4,4.601-0.1,15.4s-8.301,7.5-23.801,10.6c-15.5,3.101-16.5,11.9-23.102,21.9c-6.6,10,0,13.4-14,23.6
		c-14,10.2-18.5-13.899-22.299-17.399c-3.6-3.4-10.4-6.4-16.301-4.101c-20.1,9.601-40.699,24-60.1,28.601
		c-31.6,7.5-51.9,11.2-72,18.1c12.3,0.6,23.5,4.7,6.2,13.8c-22.2,11.7-50.5,21.601-38.9,26.101s22.1-6.101,21.5,7.199
		c-0.6,13.4-22.8,13.801-14.5,23c8.3,9.2,19.7,17.5-3.7,19.602c-12.3-0.2-14.1,3.699-21.2,9.898c-7,6.102-13.6,19.2-25.9,15.4
		c-12.2-3.7-24.6,8.4-32.1-2.1c-7.4-10.602,12.1-12.801,6.9-21c-5.2-8.2-19.3-12.4-3-19.801c16.2-7.301,26.1,1.301,22.8-14.199
		c-1.2-5.602-0.1-11.2-1.1-16.801c0,0.199-3.2,1.699-3.5,1.899c-1.2,0.7-2.4,1.3-3.6,2c-2.3,1.399-4.6,2.8-6.9,4.3
		c-5.7,3.801-10.8,8.301-15.6,13.102c-4.2,4.3-8,9-11.5,14s-6.8,10.1-9.5,15.5c-2.4,4.898-4.3,10.1-4.4,15.6c0,2.4,0.2,4.7,0.7,7
		c0.6,2.8,5.6,16.3,6,17.3c0,0.102,0.1,0.5,0.1,0.5C6.6,330.7,0.6,320.3,0,312.2C0.2,310.4,0.899,306.101,0.899,306z"/>
	<path fill="#2B2B2B" d="M221.399,328.601c10.401-5.302,17.901-4.2,28.5-8.302c7.301-2.8,17.898-11.3,23.6-13.898
		c3.701-1.7,7.5-3.4,11.201-5.101c-3.9-1.199-6.301-4.601-3-10.801c5.5-10.3,11.1-1.199,14.699-14.3s1.398-12.399-3.301-11.8
		s-6.5,2.8-8.398-6c-2-8.801-3.301-14.9,5.799-15c9.102-0.102,21,5.398,23.102-3.602c2.1-9,10-13.6,1.699-19.8
		c8.4-0.2,16.301-3.399,22.4-9.1c3.1-3,7.699-11.5,13.199-7.9c5.301,3.5,0.801,12.4-1.5,16.2c-1.5,2.6-3.301,5.1-5.102,7.5
		c-2.898,3.7-1.699,4.2,1.801,6.9c2.301,1.8,5.9,5,9.102,4.3c3.699-0.9,4.199-6,4.199-9.101c0.1-7-2.199-14,5.1-18.399
		c3.9-2.4,7.701-5.2,12.102-2.9c4.898,2.5,9.1,5.2,13.1-0.2c5.898-7.8-2.299-18.6,8.201-24.499c6.1-3.4,9.6-6.4,12.898-12.7
		c6.199-11.7,7.9-25,12.9-37.2c4.1-10.1,11.5-19,14-29.7c3.1-13.1,2-25.8,1.1-39c-0.701-9.7,1.102-19.1,2.9-28.6
		c1-5.601,2.199-11.2,2-16.9c-0.301-6.2-0.701-12.3-1.301-18.5h6.801c0.199,2.9,0.398,5.8,0.6,8.7c2.102,37.6,1.4,75.6-8.898,112.1
		c-11,39.101-28.602,75.301-53,107.8c-6.801,9.102-14.1,17.9-21.701,26.4c-9.299,10.4-19.398,20-30.398,28.6
		C300.101,312,259.899,333.2,215.1,342.5c-10.7,2.2-21.3,3-32.1,4.2C195.1,345.4,206.6,335.601,221.399,328.601z"/>
</g>
</svg>
