<?xml version="1.0" encoding="utf-8"?>
<!-- Generator: Adobe Illustrator 15.0.0, SVG Export Plug-In . SVG Version: 6.00 Build 0)  -->
<!DOCTYPE svg PUBLIC "-//W3C//DTD SVG 1.1//EN" "http://www.w3.org/Graphics/SVG/1.1/DTD/svg11.dtd">
<svg version="1.1" id="Layer_1" xmlns="http://www.w3.org/2000/svg" xmlns:xlink="http://www.w3.org/1999/xlink" x="0px" y="0px"
	 width="458.3px" height="383.77px" viewBox="0 0 458.3 383.77" enable-background="new 0 0 458.3 383.77" xml:space="preserve">
<g>
	<path fill="#D92425" d="M77.3,102.87c11.3,10.6,20.7,9.5,33,8.9c12.3-0.6,24.7,5.4,36.3,16.9c11.6,11.6,23.4,5.3,33.7,16.2
		c10.3,10.9,28,9.8,18.2-7.1c-9.8-16.8-20.3-21.4-21.2-33.3c-0.9-11.9-8.4-20.4-19.2-14.5c-10.8,6-22.2,10.6-26.8-1.1
		c-4.6-11.7-13.5-22.5-21.9-13.9c-8.4,8.7-18.1,23.9-34.4,6.2c-16.4-17.5-39-20.5-46.9-13.4c-7.9,7-4.3,7.5,10.6,10.6
		C53.701,81.37,61.601,81.57,77.3,102.87z"/>
	<path fill="#2B2B2B" d="M344.101,134.17c2.398-10.6,17.1-45.4,9.5-82.2c-7.5-36.8-25-66.9-37.9-44s-25.1,26.3-30.6,44.3
		c-5.5,17.9,14.1,38.7,13.199,52.7c11.301-6.7,5.5-21.6,3.4-33.5c-2.102-11.9,4-21.5,14.299-26.1c10.4-4.6,8.9-38.9,19.102-15
		C345.201,54.37,355.101,79.37,344.101,134.17z"/>
	<path fill="#D92425" d="M354.8,336.169c0.5,1.7,1.9,3,4.199,4.102c5.301,2.398,11-1.5,15.5-4c2.602-1.4,5-3.5,8-4.2
		c8.602-1.9,6.5,9.4,5.602,14.7c-2.701,15.398,17.498,2.199,31.799-10.602c28.1-25.198-6-32.198-24.301-31.8
		c-18.301,0.4-20.801-11.898-18.5-22.399c2.301-10.5-12.1-46.301-23-31.699c-10.898,14.5-1.199,32-16,29.898
		c-14.699-2.1-13.6-18.199-29.898-14.1s-1.701,18.5-10.701,19.2s-26.898-28.9-41.199-20.4c-14.398,8.5-5.1,30.602,23.699,38.4
		c28.801,7.799,44.801-1,42.9,12.8c-0.801,5.5-5.301,10.1-7.602,15c-5.199,11.2,14.9,5.6,18.801,3.1
		c7.199-4.6,13.199-28.8,24.602-24.1C370.101,314.77,352.8,329.869,354.8,336.169z"/>
	<path fill="#2B2B2B" d="M220.8,321.569c-9.8,6.6-39.3,34.8-79.7,41.8s-77.8,1.5-59.8-20.3c18.1-21.8,16.8-35.2,32.8-47.8
		c16-12.601,44.9-1.3,58.8-7.7c-2.3,13.9-19.8,13.9-32.7,16.5c-12.9,2.6-20.2,12.4-20.8,24.5s-36,24.2-7.6,24.8
		C140.101,354.069,169.5,353.97,220.8,321.569z"/>
	<path fill="#2B2B2B" d="M0,142.77c19.1,9.9,40,22.7,62.8,39.399c-5-12-5.6-27.3,6.1-26.8c16.6,0.7,18.7,24.8,32.9,31.3
		c14.1,6.5-1.4-12.399,5.3-26.2c6.7-13.8,26.8,13.5,37.3,25.3c10.5,11.899,7.5,16.399,25.7,23.2c18.3,6.8,19.8-13.9,38.6-16
		c18.8-2.101,33.699,11.898,34.199,32.699c0.4,20.801-18.1,24.601-29.399,28.5c-11.3,4,7.5,30.9,27.2,40.102
		c17.299,7.999,24.4,21.299,17.299,30.898c9,4.802,18.4,9.802,29.5,16.4c10.602,6.3,21.5,11.3,32.301,15.3
		c-0.6-4.898,9.699-6.8,20-4c8.301,2.3,16.4,9.5,18.801,14.2c0.398,0.7,25.398,2.5,30.699,2.3
		c14.299-0.398,27.799-3.898,39.602-12.3c6.898-4.9,11.398-11.9,13.5-20c3.6-14.7,0.799-30.8-4.602-44.6
		c-2.1-5.4-4.6-10.7-7.201-15.9c-5.197-1.2-14.1-6.5-18.5-13.5c-5.6-8.7-6.799-18.7-2.398-20c-1.602-2.2-3.199-4.3-4.299-5.7
		c-6.803,12-13.602,28.101-32.102,2.4c-18.5-25.8-27-31.9-34.898-10.3c-7.9,21.6-14.801,31.3-34.9,11.5
		c-20.1-19.801-39.701-1.2-38.201-31.5c1.4-30.3,19.201-29.2-0.6-51.601c-19.9-22.4-23.799,21.1-41.599-16.4
		c-17.8-37.5-43.4-52.3-24.8-60.3c3.5-1.5,6.9-2.6,10.1-3.4C139.101,51.17,71.8,39.67,0,45.47v-13.8c91.3-6.3,202.5,12.6,289.3,72.2
		c17.4,12,34.199,25,50,39.1c14,12.5,27.301,25.7,39.602,39.8c24.398,28.299,47.5,60.099,63.398,94.099
		c4.5,9.601,8.199,19.7,10.699,30.102c1.4-2.2,3.5-4.2,5.301-6.102c-0.201,0.2-0.1,2.102-0.201,2.5
		c-0.197,1.102-0.398,2.2-0.799,3.2c-0.801,2.2-1.898,4.2-3.201,6.1c3.602,23.302-6.1,46.5-28.299,56.802
		c-5.801,2.698-12.5,5.099-18.801,6.099c-1.799,0.3-3.6,0.5-5.4,0.7c-0.299,0.3-0.697,0.6-1.1,0.898c-1,0.602-1.9,1.302-2.699,2.102
		c-2.199,2-5.1,3.2-7.801,4.5c0.201-0.102,0.701-1.9,0.9-2.2c0.5-0.9,1.1-1.9,1.801-2.7c0.5-0.7,1.1-1.3,1.699-1.898
		c-15.5,1-31.4-0.4-46.4-3.102c-5.398-1-10.699-2.2-16-3.5c-5.699-1.398-11.299-3.1-16.799-5c-9.602-3.3-19-7.6-28.102-12.1
		c-45.301-22.5-89.3-55.8-119.3-75.3c-57.1-37.2-106-85-167.8-118.9L0,142.77L0,142.77z"/>
	<path fill="#2B2B2B" d="M0,81.37c25.6,3.7,46.6,21.3,62.7,35.6c17.6,15.7,21.5,15.5,52.6,14.9c31.1-0.7,29.5,30.1,53.6,38.3
		c-2,1.5-16.9,6.6-25.9,0.6s-17.8-26.3-30-27.6c-12.3-1.3-20.4,7.6-37.5,0.8c-17.2-6.8-30.5-20.5-43.4-35.8
		C21.5,95.67,14,93.27,0,92.57V81.37z"/>
</g>
</svg>
