<?xml version="1.0" encoding="utf-8"?>
<!-- Generator: Adobe Illustrator 15.0.0, SVG Export Plug-In . SVG Version: 6.00 Build 0)  -->
<!DOCTYPE svg PUBLIC "-//W3C//DTD SVG 1.1//EN" "http://www.w3.org/Graphics/SVG/1.1/DTD/svg11.dtd">
<svg version="1.1" id="Layer_1" xmlns="http://www.w3.org/2000/svg" xmlns:xlink="http://www.w3.org/1999/xlink" x="0px" y="0px"
	 width="467px" height="408px" viewBox="0 0 467 408" enable-background="new 0 0 467 408" xml:space="preserve">
<path fill-rule="evenodd" clip-rule="evenodd" fill="#1C1C1C" d="M362.6,329.3c1.5-2.9,6.8-3.7,12.3-2c5.5,1.7,8.9,5.4,7.5,8.1
	c-1.3,2.9-7,3.7-12.5,2.1C364.3,335.9,361.1,332.2,362.6,329.3z"/>
<g>
	<path fill="#2B2B2B" d="M385.7,339.9c1-3.3,1.4-5.2-1.6-7.4c-8-5.7-17.6-4.6-26.6-4.3c0,0,0.8,1.7,0.8,1.8c2.2,4.4,6.5,8.2,6.5,8.2
		c-2.9-0.9-3.5-0.4-6-2.5c-3.2-2.5-11.1-10.3-3.5-12.8c10.3-3.3,20.1-1.4,28.4,6.1C387.8,332.7,388.1,335.4,385.7,339.9z"/>
</g>
<path fill-rule="evenodd" clip-rule="evenodd" fill="#2B2B2B" d="M209.9,223.9c7.9,0.3,5,8.7,8.8,14.7c3.7,5.9,5.8,14.6,6.4,19.9
	c0.5,5.2,5.7,11.9,13.7,5.9c8-6.1,6.2-9.5,14-8c7.7,1.5,9.7,15.7,21.5,9.2c11.9-6.6,0.6-13,8.1-14c7.6-1.1,24.9,0.8,22.4-2.1
	c-2.5-2.9-5.8-11.4-1.1-14.2c4.7-2.9,5.1-12.4-4.8-16.2c-9.9-3.8-20.5-2.7-25.2-10.3c-4.6-7.6-21.5-10.3-28.9-11.3
	c-7.5-1.1-11.9-8.8-25.9-9.7c-13.8-0.8-29.5,0.9-27,6.6c2.6,5.7,19.3,11,16.4,17.2C205.1,217.8,203,223.6,209.9,223.9z"/>
<path fill-rule="evenodd" clip-rule="evenodd" fill="#2B2B2B" d="M91.9,155.9c-1.3-0.1-2.7-0.3-4-0.6c-3.8-0.9-7.6-2-11.3-3.4
	c-7.2-2.8-13.7-7-18.9-12.9c-13.5-15.2-18-37.3-22.1-56.5C31.2,61.8,27.7,40.9,23.9,20c-0.2-1-2.8-11.2-1.9-11.8
	c0.5-0.3,2.7,6.4,2.9,7C31.6,34.1,38,53,44.6,71.8c1.5,4.2,4.1,9.1,3.7,13.6c-0.3,3.9-2.2,7.7-1.2,11.7c1.6,6.3,8,13,9.8,19.3
	c2.1,7.2,4.7,14.2,11.7,17.8c6.9,3.6,14.9,3.8,21.8,7.3c6.6,3.3,12.5,8.2,17.7,13.4c12.4,12.2,20.9,29,37.7,36
	c11.7,4.9,20-4,31.3,1.8c12.7,6.6,24,29.3,26.3,42.7c0.6,3.3,2.4,11.5-0.5,14.3c-2.7,2.6-6.4-1.6-8.2-3.5c-4.9-4.9-10-10.4-14.2-16
	c-3.8-5.1-3.3-11.3-5.1-17.1c-2.2-7.3-8.4-5.7-14.4-4.3c-4.6,1-9-0.8-13.3-2.1c-5.4-1.5-10.9-2.5-16.4-3.3c-3.1-0.5-5.9,0.2-8.2-2.4
	c-3.5-4-6.7-9.1-9.3-13.8c-2.1-4-1.9-7.2-2.6-11.5c-0.9-5.2-4.9-9.9-8.1-13.9c-2.3-2.9-3.5-4.7-7.1-5.4
	C94.7,156.2,93.3,156,91.9,155.9z"/>
<path fill-rule="evenodd" clip-rule="evenodd" fill="#2B2B2B" d="M310.7,358.9c-19.3,10.6-33.5,28.9-53.7,37.1
	c-21.9,8.7-48.1,6.2-63.1-5.3c-4.2-3.2-10.3-12-7.1-19.1c7.7-16.8,27.6-30.3,45.1-23.8c11.6,4.7-4.1,3.9-10.3,6.9
	c-6.8,3.2-5.3,11.9-11.6,15c-4.6,2.3-13.8,5.4-1.5,14c5.8,4.1,13.5,6.1,21.7,6.9c14.1,1.5,19.2,3.7,32-3.5
	c11.1-7.3,22.3-14.6,33.4-21.9C300.6,363.1,305.6,361,310.7,358.9z"/>
<path fill-rule="evenodd" clip-rule="evenodd" fill="#D92425" d="M337.6,194.9c-7.9-5.4-16.3-10.8-22.7-18.1
	c-3-3.4-3.8-8.6-6.8-12.5c-3.8-5.2-9.6-9.2-12.3-14.2c-3.1-6-3-11.2-8.1-16.1c-5.2-5-13.8-12.1-21.6-6.7c-4.2,2.9-6.3,5.7-6,11.1
	c0.2,4.3,0.7,9.9,2,13.7c3.1,8.9,11.7,8,11,16.1c-0.9,10.2-18.5-9-19.9-11.2c-5-8-9.4-19.5-3.9-28.5c6.7-10.8,22.5-11.9,33-6.7
	c13.6,6.7,19.6,22,26.2,34.5C316.3,171.1,326,183.2,337.6,194.9z"/>
<path fill-rule="evenodd" clip-rule="evenodd" fill="#2B2B2B" d="M435.8,346.7c0,0,0-0.1,0.1-0.1c1.3-2.6,3.9-4.3,6-6.2
	c1-0.9,3.6-3.1,3.8-4.6c-0.6,0.4-2.9,1.8-3.3,2.1c-1.3,0.8-2.5,1.5-3.9,2.2c-2.9,1.5-6,2.8-9,4.3c-3.9,1.8-7.7,3.4-12.1,3.5
	c-5.4,0.2-10.8-0.7-16.2,0.1c-8.5,1.3-13.7,4.8-25.6,4.9c-4.1,0-19.9-5.6-24.4-5.8c-2.9-0.1-6.1,1-9,1.6c-4.1,0.9-8.2,1.2-12.3,0.3
	c-2.5-0.5-4.8-1.5-7.2-2.4c-2.5-0.9-4.8-2-7-3.5c-3.7-2.5-8.8-7-8.2-12.1c0.3-2.8,2.6-4.8,4.5-6.6c2.4-2.3,4.7-4.7,6.7-7.4
	c-0.5,0.6-1.8,1.1-2.5,1.5c-0.9,0.5-1.9,1-2.8,1.6c-1.9,1-3.8,2.1-5.5,3.5c-2.7,2.2-4.8,5-5.9,8.3c-2.5,7.6,0.7,16,7.1,20.6
	c1.9,1.4,4,2.4,6.2,3.2c4.8,1.8,9.5,2.6,14.6,2.9c5.1,0.3,10.2,0.1,15.3,0c2.8,0,5.6,0,8.4,0.1c11.8,0.5,23.4,1.3,35.2,0.1
	c14.2-1.4,27.1-3.1,40.2-9.2c2.1,6.7-7.9,10.2-12.3,12c5.4,0.7,12.2-3.4,15.6-7.3C434.2,352.3,434.6,349.3,435.8,346.7z"/>
<path fill-rule="evenodd" clip-rule="evenodd" fill="#D92425" d="M307.1,305.7c-13.7-2.7-17.9-8.4-20.6-16.9
	c-1.1-3.5,4.8-10.2-0.6-13c-10-5.3-22.8,0.2-33.6-6c-9.9-5.7-19.1,12.5-28.8,6.7c-7-4.2-8.4-8.7-17.6-9.2c-16-0.9-8.5,15.3-0.4,20.2
	c6.6,4.1,8.9,3.6,8.3,11.3c-0.4,5.9-6.1,5.6-8.7,9c6.2,3.5,12.2,9.2,20.1,7.7c13.7-2.7,14.6-12.4,29.4-4.4c5.6,3.1,8.2,8.5,11,13.9
	c2.1,4.2,5.1,10.4,10.4,10.9c2.7,0.3,5.6-1.9,7.7-3.4c4.3-3.1,3.5-9.6,7.5-12.4c3.8-2.6,11-0.6,15.3-1.1
	C313.5,318.4,320.3,307.3,307.1,305.7z"/>
<path fill-rule="evenodd" clip-rule="evenodd" fill="#2B2B2B" d="M77.3,241.4c-20.9-8.3-43.7-12.3-60.2-31.9
	c-16.5-19.7,25-13.2,33-8c-1-0.7-14.1-0.5-16-0.3c-5.5,0.7-6.3,2-2.9,8.3C40.2,225.6,62.9,231.5,77.3,241.4z"/>
<path fill-rule="evenodd" clip-rule="evenodd" fill="#D92425" d="M141.1,130.9c-5.9-15.1-8.2-32.1-23.4-42.8
	c-15.2-10.7-11.5,20.4-7.6,25.9c-0.2-4.1,0.5-8.1,0.1-12.3c-0.3-3.3,0.3-5.2,3.9-4.1C128.9,102,132.8,119.6,141.1,130.9z"/>
<path fill-rule="evenodd" clip-rule="evenodd" fill="#D92425" d="M458.1,305.8c-0.5-2.2-1.4-4.8-2.3-6.9c-1-2.2-2.1-4.4-3.1-6.6
	c-0.7-1.5-1.2-2.2-0.8-3.8c0.3-1.4,0.9-2.8,1.2-4.3c0.5-2.6-0.9-5.4-2.1-7.6c-1.4-2.7-3.4-5.1-5.7-7.2c-0.7-0.7-1.5-1.3-2.5-1.8
	c-0.4-0.2-1.5-0.2-1.9-0.5c2.3,2,4.2,4.5,5.5,7.3c1.2,2.6,1.3,5.2,0.6,8c-2-3.7-4.5-7.2-6.9-10.7c-2.4-3.6-5.2-6.9-8-10.1
	c-2-2.3-4.1-4.5-6.3-6.7c-8.3-8.3-17.7-15.6-27.5-22c-10.2-6.7-21-12.6-31.7-18.4c-22.6-12.3-51.3-30.2-90.8-39.4
	c-29.5-6.8-68.3-15.6-103-27.8c-22.2-7.8-44.4-17.5-63.5-31.5c-3-2.2-13.8-9.3-23.6-19C59.4,71.6,50.1,35.1,56.2,0h-7.3
	c-0.5,4.2-0.7,8.5-0.9,12.7c-0.4,11.6,0.4,23.3,2,34.8c1.6,11.4,6.8,21.9,13.8,33.7c-6.9,1.3-5.4,10.6-3.8,15.4
	c3.8,11.9,15.7,0.7,23.1,9.9c7.4,9.2-6.4,4.6,0.1,15.4c6.5,10.8,8.3,7.5,23.8,10.6c15.5,3.1,16.5,11.9,23.1,21.9
	c6.6,10,0,13.4,14,23.6c14,10.2,18.5-13.9,22.3-17.4c3.6-3.4,10.4-6.4,16.3-4.1c20.1,9.6,40.7,24,60.1,28.6
	c31.6,7.5,51.9,11.2,72,18.1c-12.3,0.6-23.5,4.7-6.2,13.8c22.2,11.7,50.5,21.6,38.9,26.1c-11.6,4.5-22.1-6.1-21.5,7.2
	c0.6,13.4,22.8,13.8,14.5,23c-8.3,9.2-19.7,17.5,3.7,19.6c12.3-0.2,14.1,3.7,21.2,9.9c7,6.1,13.6,19.2,25.9,15.4
	c12.2-3.7,24.6,8.4,32.1-2.1c7.4-10.6-12.1-12.8-6.9-21c5.2-8.2,19.3-12.4,3-19.8c-16.2-7.3-26.1,1.3-22.8-14.2
	c1.2-5.6,0.1-11.2,1.1-16.8c0,0.2,3.2,1.7,3.5,1.9c1.2,0.7,2.4,1.3,3.6,2c2.3,1.4,4.6,2.8,6.9,4.3c5.7,3.8,10.8,8.3,15.6,13.1
	c4.2,4.3,8,9,11.5,14c3.5,5,6.8,10.1,9.5,15.5c2.4,4.9,4.3,10.1,4.4,15.6c0,2.4-0.2,4.7-0.7,7c-0.6,2.8-5.6,16.3-6,17.3
	c0,0.1-0.1,0.5-0.1,0.5c6.3-4.8,12.3-15.2,12.9-23.3C458.8,310.2,458.1,305.9,458.1,305.8z"/>
<path fill-rule="evenodd" clip-rule="evenodd" fill="#2B2B2B" d="M237.6,328.4c-10.4-5.3-17.9-4.2-28.5-8.3
	c-7.3-2.8-17.9-11.3-23.6-13.9c-3.7-1.7-7.5-3.4-11.2-5.1c3.9-1.2,6.3-4.6,3-10.8c-5.5-10.3-11.1-1.2-14.7-14.3
	c-3.6-13.1-1.4-12.4,3.3-11.8c4.7,0.6,6.5,2.8,8.4-6c2-8.8,3.3-14.9-5.8-15c-9.1-0.1-21,5.4-23.1-3.6c-2.1-9-10-13.6-1.7-19.8
	c-8.4-0.2-16.3-3.4-22.4-9.1c-3.1-3-7.7-11.5-13.2-7.9c-5.3,3.5-0.8,12.4,1.5,16.2c1.5,2.6,3.3,5.1,5.1,7.5c2.9,3.7,1.7,4.2-1.8,6.9
	c-2.3,1.8-5.9,5-9.1,4.3c-3.7-0.9-4.2-6-4.2-9.1c-0.1-7,2.2-14-5.1-18.4c-3.9-2.4-7.7-5.2-12.1-2.9c-4.9,2.5-9.1,5.2-13.1-0.2
	c-5.9-7.8,2.3-18.6-8.2-24.5c-6.1-3.4-9.6-6.4-12.9-12.7c-6.2-11.7-7.9-25-12.9-37.2c-4.1-10.1-11.5-19-14-29.7
	c-3.1-13.1-2-25.8-1.1-39c0.7-9.7-1.1-19.1-2.9-28.6c-1-5.6-2.2-11.2-2-16.9c0.3-6.2,0.7-12.3,1.3-18.5H9.9C9.7,2.9,9.5,5.8,9.3,8.7
	c-2.1,37.6-1.4,75.6,8.9,112.1c11,39.1,28.6,75.3,53,107.8c6.8,9.1,14.1,17.9,21.7,26.4c9.3,10.4,19.4,20,30.4,28.6
	c35.7,28.2,75.9,49.4,120.7,58.7c10.7,2.2,21.3,3,32.1,4.2C263.9,345.2,252.4,335.4,237.6,328.4z"/>
</svg>
