<?xml version="1.0" encoding="utf-8"?>
<!-- Generator: Adobe Illustrator 15.0.0, SVG Export Plug-In . SVG Version: 6.00 Build 0)  -->
<!DOCTYPE svg PUBLIC "-//W3C//DTD SVG 1.1//EN" "http://www.w3.org/Graphics/SVG/1.1/DTD/svg11.dtd">
<svg version="1.1" id="Layer_1" xmlns="http://www.w3.org/2000/svg" xmlns:xlink="http://www.w3.org/1999/xlink" x="0px" y="0px"
	 width="416.305px" height="381.484px" viewBox="0 0 416.305 381.484" enable-background="new 0 0 416.305 381.484"
	 xml:space="preserve">
<g>
	<path fill="#2B2B2B" d="M96.301,369.499c-24.4,2.4,4.5-11.897,3.7-22.5c-0.8-10.6,4.3-20,15.1-23.5c10.7-3.698,25.5-5.5,26-17.897
		c-11,7-37,0.299-49.2,12.897c-12.2,12.601-9.6,24.101-22.6,45.101s19.6,21.701,53.3,11.397c33.7-10.397,55.6-38.1,63.3-44.897
		C145.701,363.899,120.601,367.1,96.301,369.499z"/>
	<path fill="#FF9729" d="M337.101,263.198c-9.102-7.299,8.2-23.1,8.7-31.1c0.3-4.4-4.101-23.5-11-14.103c-2.9,4-4.7,9.9-8.9,13
		c-10.5,7.804-10.5-9.397-29.899-29.5c-19.399-20.198-41.699-17.897-42.299-2.299c-0.5,15.603,31.898,17,35.398,24.701
		c3.5,7.799-14.8,2.1-10.898,17.4c4,15.196,16.698,7,25.101,18.196c8.399,11.201-10.399,11.103-17.399,26.603
		c-7,15.6,28.899,11.201,36.5,4.701c7.6-6.603,18.801-10,26.699,5.196c7.801,15.201,28.898,40.103,37,5.603
		c4.102-17.603,5.898-40.199-5.602-31c-3.898,3.2-12.198,10-14.5,2c-0.799-2.699-0.198-5.603-0.198-8.4
		c0-4.897,0.698-11.199-3.7-14.5c-1.898-1.5-3.602-2-5.3-1.699C350.601,249.198,346.101,270.198,337.101,263.198z"/>
	<path fill="#2B2B2B" d="M261.499,40.5c-13.299-23-7.398,11.6-17,17.399c-9.799,5.9-14.5,16.4-10.799,28.1
		c3.601,11.9,11.5,26.199,1.101,34.4c-1-14.301-23.2-33-20.101-51.8c3.199-18.8,14.699-23.8,24.5-48.4
		c9.799-24.699,31.198,3.601,43.601,40c12.399,36.4,2.5,73.201,1.5,84.3C287.999,87.6,274.801,63.399,261.499,40.5z"/>
	<path fill="#2B2B2B" d="M125.4,148.3c-8.9-4.7-29.6-2.801-36.2-12.2c-6.7-9.601-3-20.199-16.3-31.199
		C59.5,93.9,42.301,89.1,24,85.4C11.5,82.8,5.701,78.899,0.201,71.3v12.8c13.7,11,30.7,17.5,44.8,22.5
		c20.9,7.399,22.4,10.7,35.9,36.6c13.5,26,38,10.802,55.7,26.9C136.801,167.6,134.301,153.1,125.4,148.3z"/>
	<path fill="#FF9729" d="M120.9,190.698c-13.6-3.6-13.8-16.1-28.5-20.398c-14.8-4.301-25.3-11.9-30.3-22.301
		c-5-10.397-8.4-18.6-22.2-23.1c-24.6-3.301-28.3-9.701-37.6-20.701c-0.8-0.898-1.5-1.799-2.2-2.599v20.5
		c5.4,4.6,12.5,8.5,21.1,10.7c21.9,5.5,13.7,20.199,10.4,31.101c-3.3,10.899,9.6,13.299,21.3,11.799c11.7-1.5,13,9.9,13,21.5
		c0,11.603,10.4,14,20.5,9.301c10.2-4.698,18.8,1.9,36.9,2.4C141.5,209.198,134.5,194.198,120.9,190.698z"/>
	<path fill="#2B2B2B" d="M416.2,291.6c-0.5-6-1.5-12.5-3.5-18.199c-0.5-1.6-1.197-3.201-1.8-4.801c0.103-0.299,0.2-0.799,0.2-1.299
		c0-1.103,0.2-2.201,0.4-3.201c0.697-2.603,0.3-5.603,0.197-8.4c0,0.201-1.3,1.5-1.397,1.701c-0.5,0.9-1,1.699-1.4,2.6
		c-0.3,0.699-0.6,1.5-0.8,2.302c-6.1-13.199-14.5-25.603-23.5-36.699c-3.2-3.9-6.602-7.801-10.102-11.603
		c-3.698-4-7.698-7.897-11.698-11.6c-7.101-6.4-14.9-12.201-22.7-17.701c-38.898-27.1-86.102-48.397-115.602-64.198
		C151.9,81.499,70.9,61.699,4.301,0h-4.2v13.899c22,20.101,53,42.101,98.5,63.5c-12.1,1.299-25,7.7-19.3,17.1
		c8,13.301,28.8,4.199,40.5,12.9c11.8,8.699-10.7,4.5-19.1,16.199s23.1,15.898,37.6,19.199c14.4,3.199,16.8-1.301,30.7,10.699
		c13.9,11.899-2.5,22.602,4.2,38.999c6.7,16.304,25,22.4,42.3,13.4c17.3-9,12-26,10.201-37.101
		c-1.803-11.102,28.897-7.899,45.299,4.302c14.398,10.6,28.601,10.5,33.201,0.299c8,5.301,16.5,10.801,26.799,16.899
		c10,5.898,19,12.601,27.201,19.699c-4.201,1.699-1.201,11,5.799,18.199c5.601,5.701,15.201,9.103,20,9
		c0.801,0,13.501,19.9,15.801,24.301c6.1,12,9.397,24.699,7.7,38.199c-0.9,7.9-4.5,14.801-10.4,20.103
		c-10.5,9.6-25,14.5-38.8,16.301c-5.4,0.699-10.9,1.1-16.301,1.299c-3.299-3.799-11.799-8.699-19.5-9.199
		c-9.799-0.6-18.5,2.799-17.602,7.103c-2.6-0.4-5-0.701-6.6-1c6.8-11,17-23.9-12.5-27.5c-29.602-3.603-38.303-7.9-24.2-24.103
		c14.103-16.301,19-26.301-6.3-33.897c-25.4-7.701-18.9-32.103-43.2-17.304c-24.4,14.9-15.3,29-42.7,22.701
		c-27.3-6.201,6.6-29-32.2-26.801c-38.8,2.201-62.6-12.101-60.8,6.801c0.4,3.5,1,6.799,1.8,9.799C47.8,218.3,21.8,190.997,0,160.697
		V182.3c35.601,46.8,81.701,89.1,136.401,116.699c17.7,8.9,36,16.9,54.7,23.4c16.6,5.9,33.398,10.9,50.602,14.6
		c34.299,7.4,70.799,12,105.898,9.802c9.898-0.699,19.898-2.199,29.5-4.699c-1.2,2.299-1.898,4.799-2.602,7.199
		c0-0.199,1.701-1.103,2-1.199c0.802-0.603,1.5-1.301,2.201-2.103c1.398-1.6,2.5-3.397,3.5-5.397
		C403.001,332.899,417.7,314.499,416.2,291.6z"/>
</g>
</svg>
