<?xml version="1.0" encoding="utf-8"?>
<!-- Generator: Adobe Illustrator 15.0.0, SVG Export Plug-In . SVG Version: 6.00 Build 0)  -->
<!DOCTYPE svg PUBLIC "-//W3C//DTD SVG 1.1//EN" "http://www.w3.org/Graphics/SVG/1.1/DTD/svg11.dtd">
<svg version="1.1" id="Layer_1" xmlns="http://www.w3.org/2000/svg" xmlns:xlink="http://www.w3.org/1999/xlink" x="0px" y="0px"
	 width="450.757px" height="401.406px" viewBox="8 -0.2 450.757 401.406" enable-background="new 8 -0.2 450.757 401.406"
	 xml:space="preserve">
<path fill="#1C1C1C" d="M104.4,329.3c-1.5-2.898-6.8-3.7-12.3-2s-8.9,5.4-7.5,8.102c1.3,2.898,7,3.698,12.5,2.1
	C102.7,335.9,105.9,332.2,104.4,329.3z"/>
<g>
	<path fill="#2B2B2B" d="M83.2,328.9c8.3-7.5,18.1-9.4,28.4-6.102c7.6,2.5-0.3,10.2-3.5,12.8c-2.5,2.102-3,1.602-6,2.5
		c0,0,4.4-3.698,6.5-8.198c0-0.102,0.8-1.802,0.8-1.802c-9-0.3-18.6-1.5-26.6,4.302c-3,2.198-2.5,4.1-1.6,7.398
		C78.9,335.4,79.2,332.7,83.2,328.9z"/>
</g>
<path fill="#2B2B2B" d="M257.101,223.9c-7.899,0.3-5,8.699-8.801,14.699c-3.699,5.899-5.8,14.601-6.398,19.899
	c-0.5,5.2-5.7,11.899-13.7,5.899c-8-6.101-6.2-9.5-14-8c-7.7,1.5-9.7,15.699-21.5,9.199c-11.9-6.6-0.6-13-8.1-14
	c-7.6-1.1-24.9,0.801-22.4-2.1s5.8-11.4,1.1-14.2c-4.7-2.899-5.1-12.399,4.8-16.2c9.9-3.8,20.5-2.699,25.2-10.3
	c4.6-7.6,21.5-10.3,28.9-11.3c7.5-1.1,11.899-8.8,25.899-9.7c13.801-0.8,29.5,0.9,27,6.6c-2.601,5.7-19.301,11-16.399,17.2
	C261.899,217.8,264,223.6,257.101,223.9z"/>
<path fill="#2B2B2B" d="M375.101,155.9c1.301-0.1,2.699-0.3,4-0.6c3.801-0.9,7.601-2,11.301-3.4c7.198-2.8,13.698-7,18.898-12.9
	c13.5-15.2,18-37.3,22.102-56.5C435.8,61.8,439.3,40.8,443.1,20c0.2-1,2.802-11.2,1.9-11.8c-0.5-0.3-2.7,6.4-2.9,7
	c-6.6,18.8-13,37.7-19.6,56.5c-1.5,4.2-4.1,9.1-3.7,13.6c0.3,3.9,2.2,7.7,1.2,11.7c-1.6,6.3-8,13-9.8,19.3
	c-2.102,7.2-4.7,14.2-11.7,17.8c-6.899,3.6-14.899,3.8-21.8,7.3c-6.602,3.3-12.5,8.2-17.7,13.4c-12.399,12.2-20.899,29-37.7,36
	c-11.699,4.9-20-4-31.3,1.8c-12.7,6.6-24,29.3-26.3,42.7c-0.602,3.3-2.4,11.5,0.5,14.3c2.699,2.602,6.398-1.6,8.199-3.5
	c4.899-4.898,10-10.398,14.199-16c3.801-5.1,3.301-11.3,5.102-17.1c2.199-7.3,8.398-5.7,14.398-4.3c4.602,1,9-0.8,13.301-2.101
	c5.399-1.5,10.899-2.5,16.399-3.301c3.101-0.5,5.9,0.2,8.2-2.4c3.5-4,6.7-9.1,9.3-13.8c2.101-4,1.9-7.2,2.601-11.5
	c0.899-5.2,4.899-9.9,8.101-13.9c2.3-2.9,3.5-4.7,7.101-5.4C372.3,156.2,373.7,156,375.101,155.9z"/>
<path fill="#2B2B2B" d="M156.3,358.9c19.3,10.6,33.5,28.898,53.7,37.1c21.899,8.7,48.101,6.2,63.101-5.3
	c4.199-3.2,10.301-12,7.101-19.102c-7.7-16.8-27.601-30.3-45.101-23.8c-11.601,4.7,4.101,3.9,10.301,6.9c6.8,3.2,5.3,11.898,11.6,15
	c4.6,2.3,13.8,5.398,1.5,14c-5.8,4.1-13.5,6.1-21.7,6.898c-14.1,1.5-19.2,3.7-32-3.5c-11.1-7.3-22.3-14.6-33.4-21.898
	C166.4,363.1,161.4,361,156.3,358.9z"/>
<path fill="#FF9729" d="M129.4,194.9c7.9-5.4,16.3-10.8,22.7-18.1c3-3.4,3.8-8.6,6.8-12.5c3.8-5.2,9.6-9.2,12.3-14.2
	c3.1-6,3-11.2,8.1-16.1c5.2-5,13.8-12.1,21.6-6.7c4.2,2.9,6.3,5.7,6,11.1c-0.2,4.3-0.7,9.9-2,13.7c-3.1,8.9-11.7,8-11,16.1
	c0.9,10.2,18.5-9,19.9-11.2c5-8,9.4-19.5,3.9-28.5c-6.7-10.8-22.5-11.9-33-6.7c-13.6,6.7-19.6,22-26.2,34.5
	C150.7,171.1,141,183.2,129.4,194.9z"/>
<path fill="#2B2B2B" d="M31.2,346.7c0,0,0-0.102-0.1-0.102c-1.3-2.6-3.9-4.3-6-6.198c-1-0.9-3.6-3.102-3.8-4.602
	c0.6,0.4,2.9,1.8,3.3,2.102c1.3,0.8,2.5,1.5,3.9,2.198c2.9,1.5,6,2.802,9,4.302c3.9,1.8,7.7,3.398,12.1,3.5
	c5.4,0.198,10.8-0.7,16.2,0.1c8.5,1.3,13.7,4.8,25.6,4.9c4.1,0,19.9-5.602,24.4-5.802c2.9-0.1,6.1,1,9,1.602
	c4.1,0.898,8.2,1.2,12.3,0.3c2.5-0.5,4.8-1.5,7.2-2.4c2.5-0.898,4.8-2,7-3.5c3.7-2.5,8.8-7,8.2-12.1c-0.3-2.8-2.6-4.8-4.5-6.6
	c-2.4-2.302-4.7-4.7-6.7-7.4c0.5,0.6,1.8,1.1,2.5,1.5c0.9,0.5,1.9,1,2.8,1.6c1.9,1,3.8,2.102,5.5,3.5c2.7,2.2,4.8,5,5.9,8.302
	c2.5,7.6-0.7,16-7.1,20.6c-1.9,1.4-4,2.4-6.2,3.2c-4.8,1.8-9.5,2.6-14.6,2.898c-5.1,0.302-10.2,0.102-15.3,0c-2.8,0-5.6,0-8.4,0.102
	c-11.8,0.5-23.4,1.3-35.2,0.1C64,357.4,51.1,355.7,38,349.6c-2.1,6.7,7.9,10.2,12.3,12c-5.4,0.7-12.2-3.398-15.6-7.3
	C32.8,352.3,32.4,349.3,31.2,346.7z"/>
<path fill="#FF9729" d="M159.9,305.7c13.7-2.7,17.9-8.4,20.6-16.9c1.1-3.5-4.8-10.2,0.6-13c10-5.3,22.8,0.2,33.6-6
	c9.9-5.7,19.1,12.5,28.8,6.7c7-4.2,8.399-8.7,17.601-9.2c16-0.899,8.5,15.3,0.399,20.2c-6.601,4.1-8.899,3.6-8.3,11.3
	c0.398,5.9,6.1,5.601,8.699,9c-6.199,3.5-12.199,9.2-20.101,7.7c-13.7-2.7-14.6-12.4-29.4-4.4c-5.6,3.102-8.2,8.5-11,13.9
	c-2.1,4.2-5.1,10.4-10.4,10.9c-2.7,0.3-5.6-1.9-7.7-3.4c-4.3-3.1-3.5-9.6-7.5-12.4c-3.8-2.6-11-0.6-15.3-1.1
	C153.5,318.4,146.7,307.3,159.9,305.7z"/>
<path fill="#2B2B2B" d="M389.7,241.4c20.898-8.301,43.7-12.301,60.2-31.9c16.5-19.7-25-13.2-33-8c1-0.7,14.1-0.5,16-0.3
	c5.5,0.7,6.3,2,2.898,8.3C426.8,225.6,404.1,231.5,389.7,241.4z"/>
<path fill="#FF9729" d="M325.899,130.9c5.899-15.1,8.199-32.1,23.399-42.8c15.2-10.7,11.5,20.4,7.601,25.9
	c0.199-4.1-0.5-8.1-0.101-12.3c0.3-3.3-0.3-5.2-3.899-4.1C338.101,102,334.2,119.6,325.899,130.9z"/>
<path fill="#FF9729" d="M8.9,305.8c0.5-2.2,1.4-4.8,2.3-6.899c1-2.199,2.1-4.399,3.1-6.601c0.7-1.5,1.2-2.2,0.8-3.8
	c-0.3-1.4-0.9-2.8-1.2-4.3c-0.5-2.601,0.9-5.4,2.1-7.601c1.4-2.699,3.4-5.101,5.7-7.199c0.7-0.7,1.5-1.301,2.5-1.801
	c0.4-0.199,1.5-0.199,1.9-0.5c-2.3,2-4.2,4.5-5.5,7.301c-1.2,2.6-1.3,5.199-0.6,8c2-3.7,4.5-7.2,6.9-10.7
	c2.4-3.601,5.2-6.9,8-10.101c2-2.301,4.1-4.5,6.3-6.699c8.3-8.301,17.7-15.602,27.5-22c10.2-6.7,21-12.602,31.7-18.4
	c22.6-12.3,51.3-30.2,90.8-39.4c29.5-6.8,68.3-15.6,103-27.8c22.199-7.8,44.398-17.5,63.5-31.5c3-2.2,13.8-9.3,23.6-19
	c26.102-25.4,35.4-61.9,29.4-97h7.3c0.5,4.2,0.7,8.5,0.9,12.7c0.398,11.6-0.4,23.3-2,34.8C415.3,58.7,410.1,69.2,403.1,81
	c6.9,1.3,5.4,10.6,3.802,15.4c-3.802,11.9-15.7,0.7-23.102,9.9c-7.398,9.2,6.4,4.6-0.1,15.4c-6.5,10.8-8.301,7.5-23.801,10.6
	c-15.5,3.1-16.5,11.9-23.101,21.9c-6.6,10,0,13.4-14,23.6c-14,10.2-18.5-13.9-22.3-17.4c-3.6-3.4-10.4-6.4-16.3-4.1
	c-20.101,9.6-40.7,24-60.1,28.6c-31.6,7.5-51.9,11.2-72,18.1c12.3,0.6,23.5,4.7,6.2,13.8c-22.2,11.7-50.5,21.601-38.9,26.101
	s22.1-6.101,21.5,7.199c-0.6,13.4-22.8,13.801-14.5,23c8.3,9.2,19.7,17.5-3.7,19.602c-12.3-0.2-14.1,3.699-21.2,9.898
	c-7,6.102-13.6,19.2-25.9,15.4c-12.2-3.7-24.6,8.4-32.1-2.1c-7.4-10.602,12.1-12.801,6.9-21c-5.2-8.2-19.3-12.4-3-19.801
	c16.2-7.301,26.1,1.301,22.8-14.199c-1.2-5.602-0.1-11.2-1.1-16.801c0,0.199-3.2,1.699-3.5,1.899c-1.2,0.7-2.4,1.3-3.6,2
	c-2.3,1.399-4.6,2.8-6.9,4.3c-5.7,3.801-10.8,8.301-15.6,13.102c-4.2,4.3-8,9-11.5,14s-6.8,10.1-9.5,15.5
	c-2.4,4.898-4.3,10.1-4.4,15.6c0,2.4,0.2,4.7,0.7,7c0.6,2.8,5.6,16.3,6,17.3c0,0.102,0.1,0.5,0.1,0.5C14.6,330.5,8.6,320.1,8,312
	C8.2,310.2,8.9,305.9,8.9,305.8z"/>
<path fill="#2B2B2B" d="M229.399,328.4c10.4-5.302,17.9-4.2,28.5-8.302c7.301-2.8,17.899-11.3,23.601-13.898
	c3.7-1.7,7.5-3.4,11.2-5.101c-3.9-1.199-6.301-4.601-3-10.801c5.5-10.3,11.1-1.199,14.699-14.3
	c3.601-13.101,1.399-12.399-3.301-11.8c-4.699,0.6-6.5,2.8-8.398-6c-2-8.801-3.301-14.9,5.8-15c9.101-0.102,21,5.398,23.101-3.602
	s10-13.6,1.699-19.8c8.4-0.2,16.301-3.399,22.4-9.1c3.1-3,7.699-11.5,13.199-7.9c5.301,3.5,0.801,12.4-1.5,16.2
	c-1.5,2.6-3.301,5.1-5.101,7.5c-2.899,3.7-1.7,4.2,1.8,6.9c2.301,1.8,5.9,5,9.102,4.3c3.699-0.9,4.199-6,4.199-9.101
	c0.101-7-2.199-14,5.101-18.399c3.899-2.4,7.7-5.2,12.101-2.9c4.899,2.5,9.101,5.2,13.101-0.2c5.898-7.8-2.3-18.6,8.2-24.5
	c6.1-3.4,9.6-6.4,12.898-12.7c6.2-11.7,7.9-25,12.9-37.2c4.1-10.1,11.5-19,14-29.7c3.1-13.1,2-25.8,1.1-39
	c-0.7-9.7,1.102-19.1,2.9-28.6c1-5.6,2.2-11.2,2-16.9c-0.3-6.2-0.7-12.3-1.3-18.5h6.8c0.2,2.9,0.398,5.8,0.6,8.7
	c2.102,37.6,1.4,75.6-8.898,112.1c-11,39.1-28.602,75.3-53,107.8c-6.801,9.102-14.1,17.9-21.7,26.4c-9.3,10.4-19.399,20-30.399,28.6
	C308.101,311.8,267.899,333,223.1,342.3c-10.7,2.2-21.3,3-32.1,4.2C203.1,345.2,214.6,335.4,229.399,328.4z"/>
</svg>
