<?xml version="1.0" encoding="utf-8"?>
<!-- Generator: Adobe Illustrator 15.0.0, SVG Export Plug-In . SVG Version: 6.00 Build 0)  -->
<!DOCTYPE svg PUBLIC "-//W3C//DTD SVG 1.1//EN" "http://www.w3.org/Graphics/SVG/1.1/DTD/svg11.dtd">
<svg version="1.1" id="Layer_1" xmlns="http://www.w3.org/2000/svg" xmlns:xlink="http://www.w3.org/1999/xlink" x="0px" y="0px"
	 width="467px" height="408px" viewBox="0 0 467 408" enable-background="new 0 0 467 408" xml:space="preserve">
<path fill="#D92627" d="M136.5,240.2c5.8-18.9,38.8-4,48.4-16.3c10.8-13.9-20.3-20.2-5.2-33c5.4-4.5,13.6-1.6,19.6-5.1
	c10-5.8,9.7-7.5,3.3-14.4c-8.6-9.2-15.6-12.7-17.8-26.7c9.9,1.9,19.3,6.1,28-1.2c9.6-8,10.1-23.2,19.4-31.7
	c8.3-7.4,26.2-12.3,36.8-9.1c9.4,2.8,22.2,18.5,19.3,29.2c-2.5,9.7-19.6,5.6-19.3,14.4c0.3,9.8,11.5,11.9,7,23.4
	c-4.9,11.5-13.1-1.6-20.2-2.4c-0.9,0.2-2.8,4.4-2.9,5.3c-0.9,3.9,6.7,15.3,11.4,16.3c5,1,7.5-3.5,11.8-4.5c3.2-3.2,6.5-9.4,9.8-14.1
	c4.6-6.6,14.8-9.1,15-17c0.4-13.5,16.4-11.7,25.5-8.2c9.5,3.6,11.3,3.9,19.6-3.3c3.1-2.7,10.3-10.9,13.8-11.9
	c4.2-1.3,14.5,0.7,18.4,2.3c13.6,5.1,9.3,19.3,25,23.3c16.1,4.1,18.7-4.5,17.1-17.8c-1.3-11,2.4-10.7,11-9.5
	c11.5,1.6,15.2,8.6,19.6-4.9c1.7-5.5,6.3-8,11.9-8.7c1.4,0.2,2.8,0.3,4.3,0.5v108.3c-0.2,0.2-0.3,0.3-0.5,0.5c0,0,0,0-0.2,0.1
	c-5.6,5.1-26.3,20.8-33.8,10.7c-4.9-6.8,7.4-18.5,3.9-26.8c-5.2-12.5-30.1,13.3-45.6,12c-17.3-1.5-25.6-29-29.3-25.6
	c-6.1,5.5,6.6,19.7,8.4,24.9c4.6,13.6-12.2,13.2-6.5,22.8c16.4-3.4,20.8,8.1,16.5,21.5c-9,28.8-32.4,18.5-53.8,17.3
	c-15.3-0.9-20,12-34.6,1.9c-13.8-9.6-20.4-16.4-17.5-33.2c1.3-7,2.2-15.4-3.2-20.9c-7.2-7.1-19-4.5-18.8,6.6
	c0.2,9.2,10.9,11.2,1.7,20.3c-8.7,8.6-14.5,1.4-14.7,14.9c-0.1,7.4,1.8,14.1-8.1,14.5c-2.9,0.1-10.6-9.8-19-8.9
	c-11.3,1.2-23.5,13.2-28.3,10.8c-4.2-2.2-2.1-3.2-3.7-6.5C172.7,266.4,127.8,267.9,136.5,240.2z"/>
<path fill-rule="evenodd" clip-rule="evenodd" fill="#2B2B2B" d="M278.7,347.2c5.7,3.6,13.3,3.4,19.6,5.4c6.2,2,28.1,11.4,34.2,13.6
	c21.8,7.9,26.9,14.8,49.4,16.3c37.3,2.5,70.8-7,52.1-26.7c-18.6-19.7-18.8-33.1-34.6-43.8c-15.8-10.7-40.9,3.6-54.1-1.2
	c3.5,13.5,19.4,11.7,31.3,12.8c12,1.1,19.6,10.1,21.4,22c1.8,11.9,33.3,13.8,9.4,23.8c-20.8,8.7-47.3-2.5-67.3-9
	c-10.5-3.4-20.3-8.7-30.7-12.2c-5.2-1.7-10.6-3.1-16.1-3.4C291.4,344.7,279.4,347.6,278.7,347.2z"/>
<path fill="#010101" d="M159.9,344.7c-4.5,7.8-11.9,11.7-16.7,9.1c-4.6-2.7-4.8-11.1-0.3-18.9c4.5-7.8,11.9-11.7,16.7-9.1
	C164.4,328.5,164.4,337,159.9,344.7z"/>
<polygon fill="#231F20" points="72.9,393.8 73.2,393.8 73.2,393.8 "/>
<path fill="#2B2B2B" d="M113.2,249.4c14.7,3.6,18.4,8.5,18.1,22c-0.1,7,2.2,9.8,8.7,13.2c5.9,3.2,19.3,8.2,6.6,12.6
	c-7.3,2.6-18.1,2.3-25.8,2.7c-3.9,0.3-16.2-1.1-12.8,5.7c2.6,5.4,14.8,3.9,19.3,2.2c3.8,5.5,14,13,0.9,15.5
	c-7.1,1.2-16.6-4.9-20.8,3.2c-2,3.8,2.8,18.8-2.9,20.4c-8,2.3-12.4-15.3-18.2-17.1c-10.2-3.1-12.2,16.5-21.3,16.1
	c-4-0.3-7.3-12.8-12.2-15.3c-7.7-4.1-15.5-4.7-13.9-15.9c1.8-12.8,9.6-2.5,16.3-5.9c4.8-2.5,4.7-10.3,1.2-13.7
	c-3.4-3.5-23.8-2.1-11.6-10.6c4.3-2.9,12.2-1.7,12.8-8.3c-13,0.2-5.1-9.7,2-12.8c11.1-5,14,7.3,21,12.1c3.3,2.3,22.2,6.8,19.9-2
	c-1.2-4.7-13.5-11.5-17.4-14.4c-5.2-4-8.6-12.9-2.7-18.7c2.7-2.6,13.5-5.7,17-3.9c5.2,2.6,0.7,7.9,3.9,11.3c2,2.2,5,1.7,7.9,1.5
	C110.8,249.1,111.9,249.1,113.2,249.4z"/>
<path fill="#2B2B2B" d="M250.6,310.6c3,5,5.3,4.6,11,4c5.4-0.6,9.9-1.6,14.8-3.1c6-1.9,16.8,6.9,20-0.8c1.1-2.8-0.2-6.7,1.7-9.2
	c4.7-6,15,4.9,20.4,5.5c7.2,0.7,11.7-6.8,16.4-11.1c10.2-9.3,6.1-19.6,2.9-30.9c-3.3-11.9,4.6-18.6,10.8-27.7
	c5.6-8,8.3-17.5-1.2-22.5c-6.4-3.4-25.7-12.3-16.4-21.3c6.9-6.7,12.5-13.4,1.5-19.7c-9.6-5.4-26-4.6-31.7,6.2
	c-0.9,1.8-0.8,5-2.4,6.2c-6.5,5-16.5-3.3-22.4,5.4c-3,4.4-0.9,10.3-2.6,15.1c-1.3,4-13.8,11.2-9.1,16.2c4.2,4.4,6.5,6.7,2.5,12.8
	c-3.3,4.8-3,6.9-0.6,12.2c1.5,3.5,0,7.6,1.4,10.3c5.2,9.8,5.9,10.5-5.9,14.2C247.5,277,244.4,299.5,250.6,310.6z"/>
<g>
	<path fill="#2B2C2B" d="M134.3,340.9c9.5-14.1,23.7-20.7,40.8-20c12.6,0.7,3.9,15,0.1,19.9c-2.9,4-10,6.8-14.1,9.3l0,0
		c4.8-5.2,11.1-10.4,12.5-17.7c0-0.1,0.5-2.9,0.5-2.9c-13.9,3.2-29,5.2-38.8,16.7c-3.7,4.4-2.1,7,0.7,11.4
		C130.4,352.1,129.7,347.9,134.3,340.9z"/>
</g>
<path fill-rule="evenodd" clip-rule="evenodd" fill="#2B2B2B" d="M143.1,144.6c-6.1-3.2-10.1-55.5,0.7-76.4
	c10.8-21,32-35.4,44.6-18.1c12.6,17.3,25.7,22.3,30.6,34.7c4.9,12.4-18.1,20.6-18,29.5c-12-6.9-4.5-14.7-1.4-21.5
	c3.1-6.9-2.9-14.3-13.9-19.6c-11-5.3-7.2-26.2-20-13.8C152.8,71.6,134.7,108.1,143.1,144.6z"/>
<path fill="#2B2B2B" d="M12.1,308.5c1-4.7,2.3-9.2,3.9-13.7c7.3-19.5,19.5-37.4,31.1-54.5c15.2-22.3,36.4-40.9,56.9-58.2
	c11.5-9.7,22.5-20.8,34.8-29.6c14-10.1,30-18.2,45-27.1c11.1-6.7,23-11.2,34.8-16.3c24.2-10.3,48.6-19.9,73.3-29
	c7.3-2.7,14.5-5.4,21.8-8c1.5-0.5,2.9-1.1,4.4-1.6c6.5-17.5,17.2-30.6,36.7-32.9c8-1,16.2-0.7,24.2-1c7.7-0.4,16.4,0.1,23.8-2.5
	c8.4-3,11.4-10.5,15.6-17.7c3.9-6.7,8.8-9.2,16.5-8.9c8,0.3,16,1.6,24,2.4c2.6,0.3,5.4,0.5,8.1,0.6v11.2c-0.1,0-0.2,0-0.3,0
	c-8.6,0.7-15.9-0.7-24.3-2.2c-9.8-1.7-13.8,3.1-18.7,10.9c-6.3,10.1-14,15.7-26.1,16.8C377,49,350.4,43.4,334,59.9
	c-12.6,12.7-16.5,32.7-21.4,49.2c-0.6,2-1.2,4-1.8,6c1.9-6,1.5-13.4,2.3-19.7c0.8-6.8,1.9-13.5,3.7-20.1
	c-3.4,2.1-24.5,11.7-31.1,14.9c-13.7,6.8-27.4,13.5-41.5,19.3c-6.7,2.8-13.2,5.9-19.8,9c-3.3,1.5-11.2,5.3-12.3,8.9
	c31.7,6.5-11.9,22.6-8.2,23.4c29.6,6.4-15.8,11-7.2,12.7c10.6,2.1,12.9,9.9,18.5,7.7c5.7-2.3,13.3,6.5,7.7,11.1
	c-1.9,1.5-5.6,1.3-7.1,3.1c-1.8,2,4.9,8.4,5.6,10c3.2,7.1-6.3,24.1-13.6,24.1c-6.1,0-13.6-2.6-18.6-6.1c-4.8-3.4-9.9-5.5-15.7-1.8
	c-4.1,2.6-5.3,10.4-11.6,8.7c-6-1.6-10.5-5.3-16.7-1.9c-3.6,2-6.7,5.6-11.1,6c-6.3,0.5-11.2-3.8-13.6-9.2
	c-1.5-3.3-2.8-12.7-7.9-10.5c-11.4,4.9-10.1,22.5-24.9,19.3c-2.8-0.6-5.9-3.7-6.4-5.3c-7.7,6.5-14.2,13.4-20.8,21
	C47.2,255.4,35.5,275,27,293.7c-6.4,14.2-11.7,29.9-7.5,45.5c4,14.6,15.9,25.6,29.1,32.2c31.1,15.7,67.9,19.4,102.3,16.5
	c9.9-0.8,19.8-2.1,29.5-3.9c18.5-3.4,37.6-11.1,40.2-32c1-8.2,2.1-17.1-1.2-24.9c-3.6-8.5-9-16-15.5-22.5
	c20,8.7,31.7,26.7,26.3,48.9c-1.6,6.7-6,13.1-7.2,19.7c7.4-1.1,43.3-31.6,51.2-24.8c-7,6.2-15.7,11.3-23.5,16.5
	c-17.7,11.9-37,20.3-57.7,25.2c-24.6,5.9-49.9,7.7-75.2,6.1c-8.2-0.5-31.7-1.8-34.6-3.6c2.9,1.8,5,3.4,8.3,4.5
	c3.5,1.2,7.2,2.2,10,4.8c-12.3,2.3-22.8-5.3-33.2-10.4c-18.9-9.2-37.3-14.1-49-33.4C10.2,343,8.7,325.3,12.1,308.5z"/>
<path fill="#2B2C2B" d="M352.7,94.5l88.7-43.4c6.7-3.2,13.3-6.5,20-9.6c1.9-0.9,3.7-1.7,5.6-2.6v8.7c-7.3,4.2-15,8-22.9,11.6
	l-90.3,38.4c-16.7,7.5-31.4,13.5-44.1,26.8C321.7,110.1,336.2,103,352.7,94.5z"/>
<path fill="#2B2B2B" d="M450.7,94.5c7.3-6.3,1.1-16.8,7.2-16.3c2.4,0.2,5.6,2,9.1,4v64c-2.3,0.6-4.8,0.8-6.9,0.6
	c-7.7-0.6-26.8-13.4-22-22.9c3.3-6.4,24.8-10.9,22.2-15.2c-3-4.9-29.7,4.3-32.2-0.8c-3.2-6.3-6.5-12.4-6.3-16.8
	C422,87.7,447,97.7,450.7,94.5z"/>
<path fill-rule="evenodd" clip-rule="evenodd" fill="#2B2B2B" d="M393.9,276.5c27.3-20.1,51.8-43.4,73.1-69.9v26.2
	c-3.8,3.8-7.2,7.2-11.2,10.8c-33.8,30.9-78,46.6-119.1,66.7L393.9,276.5z"/>
</svg>
