<?xml version="1.0" encoding="utf-8"?>
<!-- Generator: Adobe Illustrator 15.0.0, SVG Export Plug-In . SVG Version: 6.00 Build 0)  -->
<!DOCTYPE svg PUBLIC "-//W3C//DTD SVG 1.1//EN" "http://www.w3.org/Graphics/SVG/1.1/DTD/svg11.dtd">
<svg version="1.1" id="Layer_1" xmlns="http://www.w3.org/2000/svg" xmlns:xlink="http://www.w3.org/1999/xlink" x="0px" y="0px"
	 width="467px" height="408px" viewBox="0 0 467 408" enable-background="new 0 0 467 408" xml:space="preserve">
<path fill="#D92627" d="M330.5,240.2c-5.8-18.9-38.8-4-48.4-16.3c-10.8-13.9,20.3-20.2,5.2-33c-5.4-4.5-13.6-1.6-19.6-5.1
	c-10-5.8-9.7-7.5-3.3-14.4c8.6-9.2,15.6-12.7,17.8-26.7c-9.9,1.9-19.3,6.1-28-1.2c-9.6-8-10.1-23.2-19.4-31.7
	c-8.3-7.4-26.2-12.3-36.8-9.1c-9.4,2.8-22.2,18.5-19.3,29.2c2.5,9.7,19.6,5.6,19.3,14.4c-0.3,9.8-11.5,11.9-7,23.4
	c4.9,11.5,13.1-1.6,20.2-2.4c0.9,0.2,2.8,4.4,2.9,5.3c0.9,3.9-6.7,15.3-11.4,16.3c-5,1-7.5-3.5-11.8-4.5c-3.2-3.2-6.5-9.4-9.8-14.1
	c-4.6-6.6-14.8-9.1-15-17c-0.4-13.5-16.4-11.7-25.5-8.2c-9.5,3.6-11.3,3.9-19.6-3.3c-3.1-2.7-10.3-10.9-13.8-11.9
	c-4.2-1.3-14.5,0.7-18.4,2.3c-13.6,5.1-9.3,19.3-25,23.3c-16.1,4.1-18.7-4.5-17.1-17.8c1.3-11-2.4-10.7-11-9.5
	c-11.5,1.6-15.2,8.6-19.6-4.9c-1.7-5.5-6.3-8-11.9-8.7c-1.4,0.2-2.8,0.3-4.3,0.5v108.3c0.2,0.2,0.3,0.3,0.5,0.5c0,0,0,0,0.2,0.1
	c5.6,5.1,26.3,20.8,33.8,10.7c4.9-6.8-7.4-18.5-3.9-26.8c5.2-12.5,30.1,13.3,45.6,12c17.3-1.5,25.6-29,29.3-25.6
	c6.1,5.5-6.6,19.7-8.4,24.9c-4.6,13.6,12.2,13.2,6.5,22.8c-16.4-3.4-20.8,8.1-16.5,21.5c9,28.8,32.4,18.5,53.8,17.3
	c15.3-0.9,20,12,34.6,1.9c13.8-9.6,20.4-16.4,17.5-33.2c-1.3-7-2.2-15.4,3.2-20.9c7.2-7.1,19-4.5,18.8,6.6
	c-0.2,9.2-10.9,11.2-1.7,20.3c8.7,8.6,14.5,1.4,14.7,14.9c0.1,7.4-1.8,14.1,8.1,14.5c2.9,0.1,10.6-9.8,19-8.9
	c11.3,1.2,23.5,13.2,28.3,10.8c4.2-2.2,2.1-3.2,3.7-6.5C294.3,266.4,339.2,267.9,330.5,240.2z"/>
<path fill-rule="evenodd" clip-rule="evenodd" fill="#2B2B2B" d="M188.3,347.2c-5.7,3.6-13.3,3.4-19.6,5.4
	c-6.2,2-28.1,11.4-34.2,13.6c-21.8,7.9-26.9,14.8-49.4,16.3c-37.3,2.5-70.8-7-52.1-26.7c18.6-19.7,18.8-33.1,34.6-43.8
	c15.8-10.7,40.9,3.6,54.1-1.2c-3.5,13.5-19.4,11.7-31.3,12.8c-12,1.1-19.6,10.1-21.4,22c-1.8,11.9-33.3,13.8-9.4,23.8
	c20.8,8.7,47.3-2.5,67.3-9c10.5-3.4,20.3-8.7,30.7-12.2c5.2-1.7,10.6-3.1,16.1-3.4C175.6,344.7,187.6,347.6,188.3,347.2z"/>
<path fill="#010101" d="M307.4,325.8c4.7-2.7,12.2,1.3,16.7,9.1c4.5,7.8,4.3,16.3-0.3,18.9c-4.7,2.7-12.2-1.3-16.7-9.1
	C302.6,337,302.6,328.5,307.4,325.8z"/>
<polygon fill="#231F20" points="393.8,393.8 393.8,393.8 394.1,393.8 "/>
<path fill="#2B2B2B" d="M357.4,249.3c2.9,0.2,5.9,0.7,7.9-1.5c3.2-3.4-1.2-8.8,3.9-11.3c3.5-1.7,14.4,1.4,17,3.9
	c6,5.8,2.6,14.6-2.7,18.7c-3.9,2.9-16.1,9.7-17.4,14.4c-2.2,8.7,16.6,4.3,19.9,2c7.1-4.8,9.9-17,21-12.1c7.1,3.1,14.9,13,2,12.8
	c0.7,6.6,8.6,5.5,12.8,8.3c12.3,8.5-8.2,7.2-11.6,10.6c-3.5,3.5-3.7,11.2,1.2,13.7c6.7,3.4,14.5-6.9,16.3,5.9
	c1.6,11.2-6.2,11.8-13.9,15.9c-4.9,2.6-8.2,15-12.2,15.3c-9.1,0.4-11.1-19.2-21.3-16.1c-5.8,1.8-10.2,19.4-18.2,17.1
	c-5.6-1.6-0.8-16.7-2.9-20.4c-4.1-8.1-13.7-2-20.8-3.2c-13.1-2.5-2.9-10,0.9-15.5c4.5,1.7,16.7,3.2,19.3-2.2
	c3.4-6.8-8.8-5.4-12.8-5.7c-7.7-0.4-18.5-0.1-25.8-2.7c-12.7-4.4,0.7-9.4,6.6-12.6c6.6-3.4,8.8-6.2,8.7-13.2
	c-0.3-13.5,3.4-18.4,18.1-22C355.1,249.1,356.2,249.1,357.4,249.3z"/>
<path fill="#2B2B2B" d="M205.2,272.5c-11.8-3.8-11.1-4.4-5.9-14.2c1.4-2.7-0.1-6.8,1.4-10.3c2.4-5.3,2.6-7.3-0.6-12.2
	c-4-6.1-1.7-8.5,2.5-12.8c4.7-5-7.8-12.2-9.1-16.2c-1.7-4.8,0.4-10.6-2.6-15.1c-5.9-8.7-15.9-0.4-22.4-5.4c-1.5-1.2-1.5-4.4-2.4-6.2
	c-5.8-10.8-22.1-11.6-31.7-6.2c-11,6.2-5.4,12.9,1.5,19.7c9.3,9-10,17.9-16.4,21.3c-9.5,4.9-6.8,14.5-1.2,22.5
	c6.2,9.1,14.1,15.8,10.8,27.7c-3.2,11.3-7.2,21.6,2.9,30.9c4.7,4.3,9.2,11.8,16.4,11.1c5.3-0.5,15.7-11.5,20.4-5.5
	c1.9,2.5,0.6,6.4,1.7,9.2c3.2,7.8,14-1.1,20,0.8c4.9,1.5,9.4,2.5,14.8,3.1c5.7,0.6,8.1,1,11-4C222.6,299.5,219.5,277,205.2,272.5z"
	/>
<g>
	<path fill="#2B2C2B" d="M330.9,357.6c2.9-4.4,4.4-7,0.7-11.4c-9.7-11.5-24.9-13.5-38.8-16.7c0,0,0.5,2.7,0.5,2.9
		c1.4,7.3,7.8,12.5,12.5,17.7l0,0c-4.1-2.5-11.2-5.3-14.1-9.3c-3.9-4.9-12.5-19.3,0.1-19.9c17.1-0.7,31.3,5.9,40.8,20
		C337.3,347.9,336.6,352.1,330.9,357.6z"/>
</g>
<path fill-rule="evenodd" clip-rule="evenodd" fill="#2B2B2B" d="M323.9,144.6c6.1-3.2,10.1-55.5-0.7-76.4
	c-10.8-21-32-35.4-44.6-18.1c-12.6,17.3-25.7,22.3-30.6,34.7c-4.9,12.4,18.1,20.6,18,29.5c12-6.9,4.5-14.7,1.4-21.5
	c-3.1-6.9,2.9-14.3,13.9-19.6c11-5.3,7.2-26.2,20-13.8C314.2,71.6,332.3,108.1,323.9,144.6z"/>
<path fill="#2B2B2B" d="M454.9,308.5c-1-4.7-2.3-9.2-3.9-13.7c-7.3-19.5-19.5-37.4-31.1-54.5c-15.2-22.3-36.4-40.9-56.9-58.2
	c-11.5-9.7-22.5-20.8-34.8-29.6c-14-10.1-30-18.2-45-27.1c-11.1-6.7-23-11.2-34.8-16.3c-24.2-10.3-48.6-19.9-73.3-29
	c-7.3-2.7-14.5-5.4-21.8-8c-1.5-0.5-2.9-1.1-4.4-1.6c-6.5-17.5-17.2-30.6-36.7-32.9c-8-1-16.2-0.7-24.2-1
	c-7.7-0.4-16.4,0.1-23.8-2.5c-8.4-3-11.4-10.5-15.6-17.7c-3.9-6.7-8.8-9.2-16.5-8.9c-8,0.3-16,1.6-24,2.4c-2.6,0.3-5.4,0.5-8.1,0.6
	v11.2c0.1,0,0.2,0,0.3,0c8.6,0.7,15.9-0.7,24.3-2.2c9.8-1.7,13.8,3.1,18.7,10.9c6.3,10.1,14,15.7,26.1,16.8
	C90,49,116.6,43.4,133,59.9c12.6,12.7,16.5,32.7,21.4,49.2c0.6,2,1.2,4,1.8,6c-1.9-6-1.5-13.4-2.3-19.7c-0.8-6.8-1.9-13.5-3.7-20.1
	c3.4,2.1,24.5,11.7,31.1,14.9c13.7,6.8,27.4,13.5,41.5,19.3c6.7,2.8,13.2,5.9,19.8,9c3.3,1.5,11.2,5.3,12.3,8.9
	c-31.7,6.5,11.9,22.6,8.2,23.4c-29.6,6.4,15.8,11,7.2,12.7c-10.6,2.1-12.9,9.9-18.5,7.7c-5.7-2.3-13.3,6.5-7.7,11.1
	c1.9,1.5,5.6,1.3,7.1,3.1c1.8,2-4.9,8.4-5.6,10c-3.2,7.1,6.3,24.1,13.6,24.1c6.1,0,13.6-2.6,18.6-6.1c4.8-3.4,9.9-5.5,15.7-1.8
	c4.1,2.6,5.3,10.4,11.6,8.7c6-1.6,10.5-5.3,16.7-1.9c3.6,2,6.7,5.6,11.1,6c6.3,0.5,11.2-3.8,13.6-9.2c1.5-3.3,2.8-12.7,7.9-10.5
	c11.4,4.9,10.1,22.5,24.9,19.3c2.8-0.6,5.9-3.7,6.4-5.3c7.7,6.5,14.2,13.4,20.8,21c13.3,15.5,25.1,35.1,33.5,53.8
	c6.4,14.2,11.7,29.9,7.5,45.5c-4,14.6-15.9,25.6-29.1,32.2c-31.1,15.7-67.9,19.4-102.3,16.5c-9.9-0.8-19.8-2.1-29.5-3.9
	c-18.5-3.4-37.6-11.1-40.2-32c-1-8.2-2.1-17.1,1.2-24.9c3.6-8.5,9-16,15.5-22.5c-20,8.7-31.7,26.7-26.3,48.9
	c1.6,6.7,6,13.1,7.2,19.7c-7.4-1.1-43.3-31.6-51.2-24.8c7,6.2,15.7,11.3,23.5,16.5c17.7,11.9,37,20.3,57.7,25.2
	c24.6,5.9,49.9,7.7,75.2,6.1c8.2-0.5,31.7-1.8,34.6-3.6c-2.9,1.8-5,3.4-8.3,4.5c-3.5,1.2-7.2,2.2-10,4.8
	c12.3,2.3,22.8-5.3,33.2-10.4c18.9-9.2,37.3-14.1,49-33.4C456.8,343,458.3,325.3,454.9,308.5z"/>
<path fill="#2B2C2B" d="M114.3,94.5L25.6,51.1c-6.7-3.2-13.3-6.5-20-9.6c-1.9-0.9-3.7-1.7-5.6-2.6v8.7c7.3,4.2,15,8,22.9,11.6
	l90.3,38.4c16.7,7.5,31.4,13.5,44.1,26.8C145.3,110.1,130.8,103,114.3,94.5z"/>
<path fill="#2B2B2B" d="M16.3,94.5C9,88.3,15.2,77.8,9.1,78.2c-2.4,0.2-5.6,2-9.1,4v64c2.3,0.6,4.8,0.8,6.9,0.6
	c7.7-0.6,26.8-13.4,22-22.9c-3.3-6.4-24.8-10.9-22.2-15.2c3-4.9,29.7,4.3,32.2-0.8c3.2-6.3,6.5-12.4,6.3-16.8
	C45,87.7,20,97.7,16.3,94.5z"/>
<path fill-rule="evenodd" clip-rule="evenodd" fill="#2B2B2B" d="M73.1,276.5C45.8,256.4,21.4,233.1,0,206.6v26.2
	c3.8,3.8,7.2,7.2,11.2,10.8c33.8,30.9,78,46.6,119.1,66.7L73.1,276.5z"/>
</svg>
