<?xml version="1.0" encoding="utf-8"?>
<!-- Generator: Adobe Illustrator 15.0.0, SVG Export Plug-In . SVG Version: 6.00 Build 0)  -->
<!DOCTYPE svg PUBLIC "-//W3C//DTD SVG 1.1//EN" "http://www.w3.org/Graphics/SVG/1.1/DTD/svg11.dtd">
<svg version="1.1" id="Layer_1" xmlns="http://www.w3.org/2000/svg" xmlns:xlink="http://www.w3.org/1999/xlink" x="0px" y="0px"
	 width="267.387px" height="320.299px" viewBox="0 0 267.387 320.299" enable-background="new 0 0 267.387 320.299"
	 xml:space="preserve">
<g>
	<path fill="#2B2B2B" d="M101.587,0l-28.4,18.6c-21.1,19-34.3,41.2-43.899,67.5l-12.3,45.6l-0.102-0.1c-0.3-16.4-2.5-33,1.4-49
		c3.7-15.1,11.3-29,20-41.8c7.9-11.6,17.4-22.5,29.301-30C77.587,4.5,89.887,2.899,101.587,0L101.587,0z"/>
	<g>
		<path fill="#2B2C2B" d="M23.287,171.8c-4.601-13.299,3.399-28.101,11.3-38.8c8.3-11.4,19.1-21.6,32.4-26.9
			c9-3.6,19.898-2.3,28-7.6c1.3-0.9,1.5-3,0.8-4.2c-8.9-18.5-23.9-33.2-18.101-55.4c1.602-6,4.302-11.8,8.2-16.7
			c4.4-5.5,10.7-9.2,16.602-13.2l0.6,0.9c-11.8,12.9-22.3,26-18.3,44.7c3.398,16.3,27.199,28.8,21.499,46.7
			c-3.9,12.4-20.3,10.4-30.102,12.4C49.488,118.799,27.387,145.699,23.287,171.8z"/>
	</g>
	<path fill="#2B2B2B" d="M64.587,240.001c-4.8,0.396-9.4,1.799-10.2,6c-0.8,4.1,4.602,6,7.5,7.896c2.602,1.699,6,2.5,5.602,5.5
		c-0.4,3.104-3.9,4.699-4.7,7.604c-2.501,8.197,14.099,20.197,20.799,21.697c5.5,1.303,11.9-0.898,17.3,1
		c4.4,1.602,3.8,5.303,6.5,8.102c3.3,3.4,9.4,2.6,13.3,0.801c5.2-2.5,15.2-16.801,9.2-22.201c-4.1-3.6-20.5-0.799-19.897-4.6
		c0.8-4.299,22.1-5.199,22.5-9.5c0.5-5.299,1.1-10.5-0.2-13.602c-1-2.398-15.9,11.602-19.4,10.303c-6.898-2.4-5.398-11.5-9.6-9.5
		c-4.7,2.197-10.7,15.896-16.2,12.896c-8.3-4.301,1.9-20.896-10.8-22C73.488,240.099,68.887,239.599,64.587,240.001z"/>
	<g>
		<path fill="#2B2C2B" d="M28.887,174.099c6.9,21.9,17,39.102,39.5,47.4c7.102,2.6,14.8,2.5,22.2,3c5.6,0.398,11.2,0.799,16.8,1.299
			l74.5,6.201c14,1.398,26.2,2.398,38.5,9.1c-12.6-5.898-24.6-6.1-38.5-6.699l-74.3-2.1c-25.6-1.299-50.5-5.699-66.8-27.299
			C33.587,195.501,31.687,185.3,28.887,174.099z"/>
	</g>
	<path fill="#FF9729" d="M255.387,245.501c2.5,7-4.8,11.6,1.5,18.396c5,5.104,7.5-0.1,10.4-4.1v-49.9
		c-7.9-1.199-18.5,0.604-23.9,4.801c-5.897,4.5-10.5,19.199-5.5,26C242.187,246.8,253.187,239.198,255.387,245.501z"/>
	<path fill="#2B2B2B" d="M267.287,204.899c-15.5-0.301-31-0.199-46.5,0.102c-5.9,0.1-11.7,0.199-17.602,0.301
		c-1.198,0-2.398,0-3.5,0.1c-9.398-10.6-20.601-16.801-35-13.1c-5.898,1.5-11.601,4-17.398,6c-5.602,1.898-11.5,4.6-17.5,4.799
		c-6.8,0.201-11-4.299-15.9-8.199c-4.6-3.699-8.7-4-14.1-1.699c-5.602,2.398-10.8,5.6-16.2,8.301c-5.3,2.699-11.4,6-17.3,3.1
		c-2.9-1.398-5.2-3.699-7.9-5.398c-3.2-1.898-6.6-2.898-10.1-4c-8.5-2.5-11.3-7.102-12.602-15.602c0.9,9.602,3.2,15.602,12,20.199
		c3.5,1.801,7,3.602,10.102,6.102c2.5,2,4.5,4.602,7.2,6.398c5,3.4,11.198,1.201,16.5-0.299c6.198-1.9,11-4.9,16.5-8.301
		c6.398-3.9,10.6-1.602,16.198,2.5c7.302,5.398,14.2,7.199,23,4.699c15.102-4.4,32.302-15.703,48.401-8.602
		c12.4,5.5,20.7,18.5,28.7,28.801c1,1.199,2,2.5,2.898,3.699c-3-3.699-4.801-9-7-13.299c-2.398-4.604-5.101-9-8.101-13.104
		c3,0.5,20.5,1.4,26.101,1.9c11.5,1,23,2,34.602,2.199c1.5,0,3.1,0.1,4.6,0.199v-7.797H267.287z"/>
	<path fill="#FF9729" d="M198.087,320.3c2.8-7.799,2.9-16.299,5.2-15.4c4.398,1.701,2.6,9.803,1.5,15.4h62.5v-45.299
		c-2.102-0.104-4.2-1.104-6.4-0.701c-3.1-1.4-7.199-4.799-10.8-7.199c-5.1-3.4-12.899-2.301-15.3-7.9
		c-4-9.398-14.8-3.699-20.3,1.199c-5.7,5.201-6.9,5.9-14.7,3.102c-2.9-1-10.2-4.801-13-4.602c-3.3,0.201-10,4.5-12.4,6.701
		c-8.199,7.299-1.199,16.199-11.199,23.299c-10.198,7.4-14.398,1.9-16.898-7.799c-2.102-8.1-4.7-6.9-10.4-3.6
		c-7.699,4.299-8.397,10.197-15.2,1.896c-2.8-3.396-6.6-3.896-10.8-2.896c-5.1,2.697-11.898,6.5-13.1,12.6
		c-1.602,7.799,8.6,12.799,7.398,19.9c-0.698,4.396-10.198,5.199-10,10.299c0,0.301,0.102,0.6,0.102,0.9h103.8L198.087,320.3
		L198.087,320.3z"/>
	<path fill="#2B2B2B" d="M76.488,320.3h22.3c-10.8-8.701-21.101-18.6-30.7-28.201c-23.8-23.799-42.7-52.199-52.2-84.598
		c-4.7-15.803-6.898-32.104-7.5-48.603c-0.2-4.397-1-48.6,1.7-49l-0.5,0.1c-3.7,19.9-8.7,40.1-9.5,60.299
		c-1.2,33.398,10.1,66.299,28.2,94.199C41.287,285.001,57.787,303.897,76.488,320.3z"/>
	<path fill="#2B2B2B" d="M216.488,320.3h50.8v-33.4c-1.3-2.699-2-5.801-4.5-7.5c-6.602-4.5-11.3,4.102-17.3,2.301
		c-1.4-0.398-2.302-2.699-3.4-3.699c-7-6-18.8-2-24.1,4.398c-6.103,7.398-0.302,10.602,6.5,13.5c9,3.803-2.103,15.398-5.7,19.602
		C217.387,317.099,216.687,318.7,216.488,320.3z"/>
</g>
</svg>
