<?xml version="1.0" encoding="utf-8"?>
<!-- Generator: Adobe Illustrator 15.0.0, SVG Export Plug-In . SVG Version: 6.00 Build 0)  -->
<!DOCTYPE svg PUBLIC "-//W3C//DTD SVG 1.1//EN" "http://www.w3.org/Graphics/SVG/1.1/DTD/svg11.dtd">
<svg version="1.1" id="Layer_1" xmlns="http://www.w3.org/2000/svg" xmlns:xlink="http://www.w3.org/1999/xlink" x="0px" y="0px"
	 width="267.387px" height="320.299px" viewBox="13.713 8.7 267.387 320.299" enable-background="new 13.713 8.7 267.387 320.299"
	 xml:space="preserve">
<path fill="#2B2B2B" d="M115.3,8.7L86.9,27.3C65.8,46.3,52.6,68.5,43,94.8l-12.3,45.6l-0.101-0.1c-0.3-16.4-2.5-33,1.4-49
	c3.7-15.1,11.3-29,20-41.8C59.9,37.9,69.4,27,81.3,19.5C91.3,13.2,103.6,11.6,115.3,8.7L115.3,8.7z"/>
<g>
	<path fill="#2B2C2B" d="M37,180.5C32.4,167.201,40.4,152.4,48.3,141.7c8.3-11.4,19.1-21.6,32.4-26.9c9-3.6,19.899-2.3,28-7.6
		c1.3-0.9,1.5-3,0.8-4.2C100.6,84.5,85.6,69.8,91.4,47.6c1.601-6,4.301-11.8,8.2-16.7c4.4-5.5,10.7-9.2,16.601-13.2l0.6,0.9
		c-11.8,12.9-22.3,26-18.3,44.7C101.9,79.6,125.7,92.1,120,110c-3.9,12.4-20.3,10.4-30.101,12.4C63.2,127.5,41.1,154.4,37,180.5z"/>
</g>
<path fill="#2B2B2B" d="M78.3,248.701c-4.8,0.398-9.4,1.799-10.2,6c-0.8,4.1,4.601,6,7.5,7.898c2.601,1.699,6,2.5,5.601,5.5
	c-0.4,3.102-3.9,4.699-4.7,7.602C74,283.9,90.6,295.9,97.3,297.4c5.5,1.301,11.9-0.9,17.3,1c4.4,1.6,3.8,5.301,6.5,8.1
	c3.3,3.4,9.4,2.6,13.3,0.801c5.2-2.5,15.2-16.801,9.2-22.2c-4.1-3.601-20.5-0.8-19.898-4.601c0.8-4.299,22.1-5.199,22.5-9.5
	c0.5-5.299,1.1-10.5-0.2-13.6c-1-2.4-15.9,11.6-19.4,10.301c-6.899-2.4-5.399-11.5-9.6-9.5c-4.7,2.199-10.7,15.898-16.2,12.898
	c-8.3-4.301,1.9-20.898-10.8-22C87.2,248.8,82.6,248.3,78.3,248.701z"/>
<g>
	<path fill="#2B2C2B" d="M42.6,182.8c6.9,21.9,17,39.101,39.5,47.4c7.101,2.6,14.8,2.5,22.2,3c5.6,0.398,11.2,0.799,16.8,1.299
		l74.5,6.201c14,1.398,26.2,2.398,38.5,9.1c-12.6-5.899-24.6-6.1-38.5-6.7L121.3,241c-25.6-1.299-50.5-5.699-66.8-27.299
		C47.3,204.201,45.4,194,42.6,182.8z"/>
</g>
<path fill="#FF9729" d="M269.1,254.201c2.5,7-4.8,11.6,1.5,18.398c5,5.102,7.5-0.1,10.4-4.1v-49.9c-7.9-1.199-18.5,0.602-23.9,4.801
	c-5.898,4.5-10.5,19.199-5.5,26C255.9,255.5,266.9,247.9,269.1,254.201z"/>
<path fill="#2B2B2B" d="M281,213.6c-15.5-0.3-31-0.199-46.5,0.101c-5.9,0.1-11.7,0.2-17.601,0.301c-1.199,0-2.399,0-3.5,0.1
	c-9.399-10.6-20.601-16.801-35-13.1c-5.899,1.5-11.601,4-17.399,6c-5.601,1.899-11.5,4.6-17.5,4.799c-6.8,0.201-11-4.299-15.9-8.199
	c-4.6-3.699-8.7-4-14.1-1.699c-5.601,2.398-10.8,5.6-16.2,8.301c-5.3,2.699-11.4,6-17.3,3.1c-2.9-1.399-5.2-3.7-7.9-5.399
	c-3.2-1.899-6.6-2.899-10.1-4c-8.5-2.5-11.3-7.101-12.601-15.601c0.9,9.601,3.2,15.601,12,20.199c3.5,1.801,7,3.601,10.101,6.101
	c2.5,2,4.5,4.601,7.2,6.399c5,3.4,11.199,1.201,16.5-0.299c6.199-1.9,11-4.9,16.5-8.301c6.399-3.9,10.6-1.602,16.199,2.5
	c7.301,5.398,14.2,7.199,23,4.699C166,215.201,183.2,203.9,199.3,211c12.4,5.5,20.7,18.5,28.7,28.801c1,1.199,2,2.5,2.899,3.699
	c-3-3.699-4.801-9-7-13.299c-2.399-4.602-5.101-9-8.101-13.102c3,0.5,20.5,1.4,26.101,1.9c11.5,1,23,2,34.601,2.199
	c1.5,0,3.1,0.1,4.6,0.2V213.6H281z"/>
<path fill="#FF9729" d="M211.8,329c2.8-7.799,2.9-16.299,5.2-15.4c4.399,1.701,2.6,9.803,1.5,15.4H281v-45.299
	c-2.101-0.102-4.2-1.102-6.4-0.701c-3.1-1.399-7.199-4.799-10.8-7.199c-5.1-3.399-12.899-2.301-15.3-7.899
	c-4-9.399-14.8-3.7-20.3,1.199c-5.7,5.2-6.9,5.899-14.7,3.101c-2.9-1-10.2-4.8-13-4.601c-3.3,0.2-10,4.5-12.4,6.7
	c-8.199,7.3-1.199,16.199-11.199,23.3c-10.199,7.399-14.399,1.899-16.899-7.8c-2.101-8.1-4.7-6.899-10.4-3.6
	c-7.699,4.299-8.398,10.199-15.2,1.898c-2.8-3.398-6.6-3.898-10.8-2.898c-5.1,2.699-11.899,6.5-13.1,12.6
	c-1.601,7.8,8.6,12.799,7.399,19.9c-0.699,4.398-10.199,5.199-10,10.299c0,0.301,0.101,0.6,0.101,0.9h103.8L211.8,329L211.8,329z"/>
<path fill="#2B2B2B" d="M90.2,329h22.3C101.7,320.3,91.4,310.4,81.8,300.8C58,277,39.1,248.6,29.6,216.201
	c-4.7-15.801-6.899-32.102-7.5-48.602c-0.2-4.398-1-48.6,1.7-49l-0.5,0.1c-3.7,19.9-8.7,40.1-9.5,60.3
	c-1.2,33.399,10.1,66.299,28.2,94.199C55,293.701,71.5,312.599,90.2,329z"/>
<path fill="#2B2B2B" d="M230.2,329H281V295.6c-1.3-2.699-2-5.8-4.5-7.5c-6.601-4.5-11.3,4.101-17.3,2.301
	c-1.4-0.399-2.301-2.7-3.4-3.7c-7-6-18.8-2-24.1,4.399c-6.102,7.399-0.301,10.601,6.5,13.5c9,3.802-2.102,15.399-5.7,19.601
	C231.1,325.8,230.4,327.4,230.2,329z"/>
</svg>
