<?xml version="1.0" encoding="utf-8"?>
<!-- Generator: Adobe Illustrator 15.0.0, SVG Export Plug-In . SVG Version: 6.00 Build 0)  -->
<!DOCTYPE svg PUBLIC "-//W3C//DTD SVG 1.1//EN" "http://www.w3.org/Graphics/SVG/1.1/DTD/svg11.dtd">
<svg version="1.1" id="Layer_1" xmlns="http://www.w3.org/2000/svg" xmlns:xlink="http://www.w3.org/1999/xlink" x="0px" y="0px"
	 width="267.389px" height="320.299px" viewBox="0 0 267.389 320.299" enable-background="new 0 0 267.389 320.299"
	 xml:space="preserve">
<g>
	<path fill="#2B2B2B" d="M165.802,0c11.699,3,24,4.5,34.199,10.8c11.898,7.4,21.398,18.4,29.301,30c8.699,12.8,16.299,26.7,20,41.8
		c3.898,16,1.799,32.5,1.398,49l-0.102,0.1l-12.299-45.6c-9.602-26.3-22.801-48.5-43.9-67.5L165.802,0L165.802,0z"/>
	<g>
		<path fill="#2B2C2B" d="M191.401,113.599c-9.801-2-26.199-0.1-30.1-12.4c-5.701-17.9,18.1-30.4,21.5-46.7
			c4-18.7-6.5-31.8-18.301-44.7l0.6-0.9c5.9,4,12.201,7.7,16.602,13.2c3.898,4.9,6.5,10.7,8.199,16.7
			c5.801,22.2-9.199,36.9-18.1,55.4c-0.701,1.1-0.5,3.3,0.799,4.2c8.102,5.4,19,4,28,7.6c13.301,5.3,24.102,15.5,32.4,26.9
			c7.898,10.7,15.898,25.601,11.301,38.799C240.001,145.699,217.901,118.799,191.401,113.599z"/>
	</g>
	<path fill="#2B2B2B" d="M191.202,240.501c-12.699,1.1-2.5,17.697-10.801,22c-5.6,2.896-11.6-10.701-16.199-12.9
		c-4.199-2-2.699,7.1-9.602,9.5c-3.5,1.199-18.398-12.801-19.398-10.301c-1.301,3-0.701,8.201-0.201,13.6
		c0.4,4.301,21.701,5.201,22.5,9.5c0.602,3.701-15.801,0.9-19.898,4.602c-6,5.398,3.898,19.699,9.199,22.201
		c3.898,1.898,10,2.6,13.301-0.803c2.699-2.799,2-6.5,6.5-8.1c5.398-1.9,11.799,0.201,17.299-1c6.701-1.5,23.301-13.5,20.801-21.699
		c-0.898-3-4.301-4.5-4.699-7.6c-0.398-3,2.898-3.803,5.602-5.5c2.898-1.9,8.301-3.803,7.5-7.9c-0.801-4.201-5.301-5.6-10.199-6
		C198.501,239.599,193.901,240.099,191.202,240.501z"/>
	<g>
		<path fill="#2B2C2B" d="M226.501,204.899c-16.301,21.699-41.199,26-66.801,27.301l-74.299,2.1c-13.8,0.6-25.899,0.801-38.5,6.701
			c12.4-6.701,24.601-7.701,38.5-9.104l74.5-6.199c5.602-0.398,11.199-0.898,16.801-1.301c7.5-0.5,15.199-0.396,22.199-3
			c22.5-8.301,32.602-25.5,39.5-47.396C235.702,185.3,233.802,195.501,226.501,204.899z"/>
	</g>
	<path fill="#FF9729" d="M12.001,245.501c-2.5,7,4.801,11.6-1.5,18.396c-5,5.104-7.5-0.1-10.399-4.1v-49.9
		c7.899-1.199,18.499,0.604,23.899,4.801c5.899,4.5,10.5,19.199,5.5,26C25.201,246.8,14.201,239.198,12.001,245.501z"/>
	<path fill="#2B2B2B" d="M0.101,204.899c15.5-0.301,31-0.199,46.5,0.102c5.899,0.1,11.7,0.199,17.601,0.301c1.199,0,2.399,0,3.5,0.1
		c9.399-10.6,20.601-16.801,35-13.1c5.899,1.5,11.601,4,17.399,6c5.601,1.898,11.5,4.6,17.5,4.799c6.801,0.201,11-4.299,15.9-8.199
		c4.6-3.699,8.699-4,14.1-1.699c5.602,2.398,10.801,5.6,16.201,8.301c5.299,2.699,11.398,6,17.299,3.1
		c2.9-1.398,5.201-3.699,7.9-5.398c3.199-1.898,6.6-2.898,10.1-4c8.5-2.5,11.301-7.102,12.602-15.602
		c-0.898,9.602-3.199,15.602-12,20.199c-3.5,1.801-7,3.602-10.102,6.102c-2.5,2-4.5,4.602-7.199,6.398
		c-5,3.4-11.199,1.201-16.5-0.299c-6.199-1.9-11-4.9-16.5-8.301c-6.398-3.9-10.6-1.602-16.199,2.5
		c-7.301,5.398-14.201,7.199-23,4.699c-15.101-4.4-32.301-15.703-48.4-8.602c-12.4,5.5-20.7,18.5-28.7,28.799
		c-1,1.199-2,2.5-2.899,3.699c3-3.699,4.8-9,7-13.299c2.399-4.602,5.101-9,8.101-13.102c-3,0.5-20.5,1.4-26.101,1.9
		c-11.5,1-23,2-34.601,2.199c-1.5,0-3.101,0.1-4.601,0.199v-7.797H0.101z"/>
	<path fill="#FF9729" d="M69.301,320.3c-2.801-7.799-2.9-16.299-5.2-15.4c-4.399,1.701-2.601,9.803-1.5,15.4h-62.5v-45.299
		c2.101-0.104,4.2-1.104,6.399-0.701c3.101-1.4,7.201-4.799,10.801-7.201c5.1-3.398,12.899-2.301,15.3-7.898
		c4-9.398,14.8-3.699,20.3,1.199c5.7,5.199,6.9,5.898,14.7,3.102c2.899-1,10.2-4.801,13-4.602c3.3,0.199,10,4.5,12.399,6.699
		c8.2,7.301,1.2,16.199,11.2,23.301c10.199,7.398,14.399,1.898,16.899-7.801c2.101-8.1,4.7-6.898,10.399-3.6
		c7.701,4.299,8.4,10.199,15.201,1.898c2.799-3.398,6.6-3.898,10.799-2.898c5.102,2.699,11.898,6.5,13.102,12.6
		c1.6,7.801-8.602,12.799-7.4,19.9c0.699,4.398,10.199,5.199,10,10.299c0,0.301-0.1,0.6-0.1,0.9H69.301V320.3z"/>
	<path fill="#2B2B2B" d="M190.901,320.3H168.6c10.801-8.699,21.102-18.6,30.701-28.199c23.799-23.801,42.699-52.1,52.199-84.6
		c4.699-15.803,6.898-32.104,7.5-48.603c0.199-4.397,1-48.6-1.699-49l0.5,0.1c3.699,19.9,8.699,40.1,9.5,60.299
		c1.199,33.398-10.102,66.299-28.201,94.199C226.1,285.001,209.6,303.897,190.901,320.3z"/>
	<path fill="#2B2B2B" d="M50.901,320.3h-50.8v-33.4c1.3-2.699,2-5.801,4.5-7.5c6.601-4.5,11.3,4.102,17.3,2.301
		c1.4-0.398,2.301-2.699,3.4-3.699c7-6,18.8-2,24.1,4.398c6.101,7.398,0.301,10.602-6.5,13.5c-9,3.803,2.101,15.398,5.7,19.602
		C50.001,317.099,50.701,318.7,50.901,320.3z"/>
</g>
</svg>
