<?xml version="1.0" encoding="utf-8"?>
<!-- Generator: Adobe Illustrator 15.0.0, SVG Export Plug-In . SVG Version: 6.00 Build 0)  -->
<!DOCTYPE svg PUBLIC "-//W3C//DTD SVG 1.1//EN" "http://www.w3.org/Graphics/SVG/1.1/DTD/svg11.dtd">
<svg version="1.1" id="Layer_1" xmlns="http://www.w3.org/2000/svg" xmlns:xlink="http://www.w3.org/1999/xlink" x="0px" y="0px"
	 width="281px" height="329px" viewBox="0 0 281 329" enable-background="new 0 0 281 329" xml:space="preserve">
<path fill="#2B2B2B" d="M115.3,8.7L86.9,27.3c-21.1,19-34.3,41.2-43.9,67.5l-12.3,45.6l-0.1-0.1c-0.3-16.4-2.5-33,1.4-49
	c3.7-15.1,11.3-29,20-41.8c7.9-11.6,17.4-22.5,29.3-30C91.3,13.2,103.6,11.6,115.3,8.7L115.3,8.7z"/>
<polygon fill="#231F20" points="475.5,374.6 475.5,374.6 475.7,374.5 "/>
<g>
	<path fill="#2B2C2B" d="M37,180.5c-4.6-13.3,3.4-28.1,11.3-38.8c8.3-11.4,19.1-21.6,32.4-26.9c9-3.6,19.9-2.3,28-7.6
		c1.3-0.9,1.5-3,0.8-4.2c-8.9-18.5-23.9-33.2-18.1-55.4c1.6-6,4.3-11.8,8.2-16.7c4.4-5.5,10.7-9.2,16.6-13.2l0.6,0.9
		c-11.8,12.9-22.3,26-18.3,44.7c3.4,16.3,27.2,28.8,21.5,46.7c-3.9,12.4-20.3,10.4-30.1,12.4C63.2,127.5,41.1,154.4,37,180.5z"/>
</g>
<path fill="#2B2B2B" d="M78.3,248.7c-4.8,0.4-9.4,1.8-10.2,6c-0.8,4.1,4.6,6,7.5,7.9c2.6,1.7,6,2.5,5.6,5.5
	c-0.4,3.1-3.9,4.7-4.7,7.6c-2.5,8.2,14.1,20.2,20.8,21.7c5.5,1.3,11.9-0.9,17.3,1c4.4,1.6,3.8,5.3,6.5,8.1c3.3,3.4,9.4,2.6,13.3,0.8
	c5.2-2.5,15.2-16.8,9.2-22.2c-4.1-3.6-20.5-0.8-19.9-4.6c0.8-4.3,22.1-5.2,22.5-9.5c0.5-5.3,1.1-10.5-0.2-13.6
	c-1-2.4-15.9,11.6-19.4,10.3c-6.9-2.4-5.4-11.5-9.6-9.5c-4.7,2.2-10.7,15.9-16.2,12.9c-8.3-4.3,1.9-20.9-10.8-22
	C87.2,248.8,82.6,248.3,78.3,248.7z"/>
<g>
	<path fill="#2B2C2B" d="M42.6,182.8c6.9,21.9,17,39.1,39.5,47.4c7.1,2.6,14.8,2.5,22.2,3c5.6,0.4,11.2,0.8,16.8,1.3l74.5,6.2
		c14,1.4,26.2,2.4,38.5,9.1c-12.6-5.9-24.6-6.1-38.5-6.7l-74.3-2.1c-25.6-1.3-50.5-5.7-66.8-27.3C47.3,204.2,45.4,194,42.6,182.8z"
		/>
</g>
<path fill="#2B2B2B" d="M281,213.6c-15.5-0.3-31-0.2-46.5,0.1c-5.9,0.1-11.7,0.2-17.6,0.3c-1.2,0-2.4,0-3.5,0.1
	c-9.4-10.6-20.6-16.8-35-13.1c-5.9,1.5-11.6,4-17.4,6c-5.6,1.9-11.5,4.6-17.5,4.8c-6.8,0.2-11-4.3-15.9-8.2c-4.6-3.7-8.7-4-14.1-1.7
	c-5.6,2.4-10.8,5.6-16.2,8.3c-5.3,2.7-11.4,6-17.3,3.1c-2.9-1.4-5.2-3.7-7.9-5.4c-3.2-1.9-6.6-2.9-10.1-4
	c-8.5-2.5-11.3-7.1-12.6-15.6c0.9,9.6,3.2,15.6,12,20.2c3.5,1.8,7,3.6,10.1,6.1c2.5,2,4.5,4.6,7.2,6.4c5,3.4,11.2,1.2,16.5-0.3
	c6.2-1.9,11-4.9,16.5-8.3c6.4-3.9,10.6-1.6,16.2,2.5c7.3,5.4,14.2,7.2,23,4.7c15.1-4.4,32.3-15.7,48.4-8.6
	c12.4,5.5,20.7,18.5,28.7,28.8c1,1.2,2,2.5,2.9,3.7c-3-3.7-4.8-9-7-13.3c-2.4-4.6-5.1-9-8.1-13.1c3,0.5,20.5,1.4,26.1,1.9
	c11.5,1,23,2,34.6,2.2c1.5,0,3.1,0.1,4.6,0.2V213.6z"/>
<path fill="#D92627" d="M269.1,254.2c2.5,7-4.8,11.6,1.5,18.4c5,5.1,7.5-0.1,10.4-4.1v-49.9c-7.9-1.2-18.5,0.6-23.9,4.8
	c-5.9,4.5-10.5,19.2-5.5,26C255.9,255.5,266.9,247.9,269.1,254.2z"/>
<path fill="#D92627" d="M211.8,329c2.8-7.8,2.9-16.3,5.2-15.4c4.4,1.7,2.6,9.8,1.5,15.4H281v-45.3c-2.1-0.1-4.2-1.1-6.4-0.7
	c-3.1-1.4-7.2-4.8-10.8-7.2c-5.1-3.4-12.9-2.3-15.3-7.9c-4-9.4-14.8-3.7-20.3,1.2c-5.7,5.2-6.9,5.9-14.7,3.1c-2.9-1-10.2-4.8-13-4.6
	c-3.3,0.2-10,4.5-12.4,6.7c-8.2,7.3-1.2,16.2-11.2,23.3c-10.2,7.4-14.4,1.9-16.9-7.8c-2.1-8.1-4.7-6.9-10.4-3.6
	c-7.7,4.3-8.4,10.2-15.2,1.9c-2.8-3.4-6.6-3.9-10.8-2.9c-5.1,2.7-11.9,6.5-13.1,12.6c-1.6,7.8,8.6,12.8,7.4,19.9
	c-0.7,4.4-10.2,5.2-10,10.3c0,0.3,0.1,0.6,0.1,0.9H211.8z"/>
<path fill-rule="evenodd" clip-rule="evenodd" fill="#2B2B2B" d="M90.2,329h22.3c-10.8-8.7-21.1-18.6-30.7-28.2
	C58,277,39.1,248.6,29.6,216.2c-4.7-15.8-6.9-32.1-7.5-48.6c-0.2-4.4-1-48.6,1.7-49l-0.5,0.1c-3.7,19.9-8.7,40.1-9.5,60.3
	c-1.2,33.4,10.1,66.3,28.2,94.2C55,293.7,71.5,312.6,90.2,329z"/>
<path fill="#2B2B2B" d="M230.2,329H281v-33.4c-1.3-2.7-2-5.8-4.5-7.5c-6.6-4.5-11.3,4.1-17.3,2.3c-1.4-0.4-2.3-2.7-3.4-3.7
	c-7-6-18.8-2-24.1,4.4c-6.1,7.4-0.3,10.6,6.5,13.5c9,3.8-2.1,15.4-5.7,19.6C231.1,325.8,230.4,327.4,230.2,329z"/>
</svg>
