<?xml version="1.0" encoding="utf-8"?>
<!-- Generator: Adobe Illustrator 15.0.0, SVG Export Plug-In . SVG Version: 6.00 Build 0)  -->
<!DOCTYPE svg PUBLIC "-//W3C//DTD SVG 1.1//EN" "http://www.w3.org/Graphics/SVG/1.1/DTD/svg11.dtd">
<svg version="1.1" id="Layer_1" xmlns="http://www.w3.org/2000/svg" xmlns:xlink="http://www.w3.org/1999/xlink" x="0px" y="0px"
	 width="416.305px" height="381.485px" viewBox="-0.1 113.6 416.305 381.485" enable-background="new -0.1 113.6 416.305 381.485"
	 xml:space="preserve">
<path fill="#2B2B2B" d="M96.2,483.1c-24.4,2.4,4.5-11.899,3.7-22.5c-0.8-10.6,4.3-20,15.1-23.5c10.7-3.699,25.5-5.5,26-17.899
	c-11,7-37,0.3-49.2,12.899C79.6,444.7,82.2,456.2,69.2,477.2s19.6,21.7,53.3,11.399c33.7-10.399,55.6-38.1,63.3-44.899
	C145.6,477.5,120.5,480.7,96.2,483.1z"/>
<path fill="#D92425" d="M337,376.8c-9.101-7.3,8.2-23.1,8.7-31.1c0.3-4.4-4.1-23.5-11-14.101c-2.9,4-4.7,9.9-8.9,13
	c-10.5,7.801-10.5-9.399-29.9-29.5C276.5,294.9,254.2,297.2,253.601,312.8c-0.5,15.601,31.899,17,35.399,24.7
	c3.5,7.8-14.8,2.1-10.899,17.4c4,15.199,16.699,7,25.1,18.199c8.4,11.2-10.4,11.101-17.4,26.601c-7,15.6,28.9,11.2,36.5,4.7
	c7.6-6.601,18.801-10,26.7,5.199c7.8,15.2,28.899,40.101,37,5.601c4.101-17.601,5.899-40.2-5.601-31c-3.899,3.2-12.199,10-14.5,2
	c-0.799-2.7-0.199-5.601-0.199-8.4c0-4.899,0.699-11.2-3.7-14.5c-1.899-1.5-3.601-2-5.3-1.7C350.5,362.8,346,383.8,337,376.8z"/>
<path fill="#2B2B2B" d="M261.399,154.1c-13.299-23-7.399,11.6-17,17.4c-9.799,5.9-14.5,16.4-10.799,28.1
	c3.6,11.9,11.5,26.2,1.1,34.4c-1-14.3-23.2-33-20.1-51.8c3.2-18.8,14.7-23.8,24.5-48.4c9.799-24.7,31.199,3.6,43.6,40
	c12.4,36.4,2.5,73.2,1.5,84.3C287.899,201.2,274.7,177,261.399,154.1z"/>
<path fill="#2B2B2B" d="M125.3,261.9c-8.9-4.7-29.6-2.801-36.2-12.2c-6.7-9.601-3-20.2-16.3-31.2c-13.4-11-30.6-15.8-48.9-19.5
	c-12.5-2.6-18.3-6.5-23.8-14.1v12.8c13.7,11,30.7,17.5,44.8,22.5c20.9,7.399,22.4,10.7,35.9,36.6c13.5,26,38,10.8,55.7,26.9
	C136.7,281.2,134.2,266.7,125.3,261.9z"/>
<path fill="#D92425" d="M120.8,304.3c-13.6-3.6-13.8-16.1-28.5-20.399C77.5,279.6,67,272,62,261.6c-5-10.399-8.4-18.6-22.2-23.1
	c-24.6-3.3-28.3-9.7-37.6-20.7C1.4,216.9,0.7,216,0,215.2v20.5c5.4,4.6,12.5,8.5,21.1,10.7c21.9,5.5,13.7,20.199,10.4,31.1
	s9.6,13.3,21.3,11.8c11.7-1.5,13,9.9,13,21.5c0,11.601,10.4,14,20.5,9.3c10.2-4.699,18.8,1.9,36.9,2.4
	C141.4,322.8,134.4,307.8,120.8,304.3z"/>
<path fill="#2B2B2B" d="M416.1,405.2c-0.5-6-1.5-12.5-3.5-18.2c-0.5-1.6-1.199-3.2-1.8-4.8c0.101-0.3,0.2-0.8,0.2-1.3
	c0-1.101,0.2-2.2,0.4-3.2c0.699-2.601,0.3-5.601,0.199-8.4c0,0.2-1.3,1.5-1.399,1.7c-0.5,0.9-1,1.7-1.4,2.6
	c-0.3,0.7-0.6,1.5-0.8,2.301c-6.1-13.2-14.5-25.601-23.5-36.7c-3.2-3.9-6.601-7.8-10.101-11.601c-3.699-4-7.699-7.899-11.699-11.6
	c-7.1-6.4-14.9-12.2-22.7-17.7c-38.899-27.1-86.101-48.399-115.601-64.2C151.8,195.1,70.8,175.3,4.2,113.6H0v13.9
	c22,20.1,53,42.1,98.5,63.5c-12.1,1.3-25,7.7-19.3,17.1c8,13.301,28.8,4.2,40.5,12.9c11.8,8.7-10.7,4.5-19.1,16.2
	s23.1,15.899,37.6,19.2c14.4,3.199,16.8-1.301,30.7,10.699c13.9,11.9-2.5,22.601,4.2,39c6.7,16.301,25,22.4,42.3,13.4
	c17.3-9,12-26,10.201-37.1c-1.801-11.101,28.899-7.9,45.299,4.3c14.4,10.6,28.601,10.5,33.201,0.3c8,5.3,16.5,10.8,26.799,16.9
	c10,5.899,19,12.6,27.201,19.699c-4.201,1.7-1.201,11,5.799,18.2c5.601,5.7,15.201,9.101,20,9c0.801,0,13.501,19.9,15.801,24.3
	c6.1,12,9.399,24.7,7.7,38.2c-0.9,7.9-4.5,14.8-10.4,20.101c-10.5,9.6-25,14.5-38.8,16.3c-5.4,0.7-10.9,1.1-16.301,1.3
	c-3.299-3.8-11.799-8.7-19.5-9.2c-9.799-0.6-18.5,2.8-17.6,7.101c-2.6-0.4-5-0.7-6.6-1c6.8-11,17-23.9-12.5-27.5
	c-29.6-3.601-38.301-7.9-24.2-24.101c14.101-16.3,19-26.3-6.3-33.899c-25.4-7.7-18.9-32.101-43.2-17.301
	c-24.4,14.9-15.3,29-42.7,22.7c-27.3-6.2,6.6-29-32.2-26.8c-38.8,2.2-62.6-12.1-60.8,6.8c0.4,3.5,1,6.8,1.8,9.8
	c-30.4-25.699-56.4-53-78.2-83.3V295.9C35.5,342.7,81.6,385,136.3,412.6c17.7,8.9,36,16.9,54.7,23.4
	c16.6,5.9,33.399,10.9,50.601,14.6c34.299,7.4,70.799,12,105.899,9.801c9.899-0.7,19.899-2.2,29.5-4.7c-1.2,2.3-1.899,4.8-2.601,7.2
	c0-0.2,1.701-1.101,2-1.2c0.801-0.601,1.5-1.3,2.201-2.101c1.399-1.6,2.5-3.399,3.5-5.399C402.9,446.5,417.6,428.1,416.1,405.2z"/>
</svg>
