<?xml version="1.0" encoding="utf-8"?>
<!-- Generator: Adobe Illustrator 15.0.0, SVG Export Plug-In . SVG Version: 6.00 Build 0)  -->
<!DOCTYPE svg PUBLIC "-//W3C//DTD SVG 1.1//EN" "http://www.w3.org/Graphics/SVG/1.1/DTD/svg11.dtd">
<svg version="1.1" id="Layer_1" xmlns="http://www.w3.org/2000/svg" xmlns:xlink="http://www.w3.org/1999/xlink" x="0px" y="0px"
	 width="749px" height="528px" viewBox="-328 -204.5 749 528" enable-background="new -328 -204.5 749 528" xml:space="preserve">
<path fill-rule="evenodd" clip-rule="evenodd" fill="#2B2B2B" d="M-83.8,65.5c20-13.1,11.3-40.6,39.8-47.3
	c28.4-6.7,32-7.4,44.3-25.8C12.6-26,29.4-49.4,55.7-57c26.2-7.6,38.9-3.9,66.6-16.2c27.7-12.3,44.9-11.8,44.9-11.8
	s-31.8,8.9-50.9,22.4C97.2-48.9,80-52.3,60.8-47C41.6-41.8,34.1-39.6,26-22.8C17.8-5.9,8.9,9.6-5.1,19.9c-14,10.2-23.4,4-34.3,8.1
	C-50.2,32-53.4,52.5-60.2,60C-66.9,67.5-81.6,66.4-83.8,65.5z"/>
<path fill-rule="evenodd" clip-rule="evenodd" fill="#D92425" d="M-16.3-17C-24.1-4.7-32.9-3.5-44.2-1.2
	c-11.3,2.3-21.2,10.6-29,23.9C-81,35.9-93.2,33-100,45.2c-6.8,12.3-23.1,15.4-18.2-2.2c4.9-17.5,13.4-24.2,11.4-35.2
	c-2-11,2.9-20.5,14.1-17.6c11.2,2.9,22.6,4.4,24-7.3c1.4-11.7,7-23.6,16.7-17.7c9.7,5.9,22,17.5,32.7-2.4C-8.6-57,11.3-65,20.1-60.4
	c8.8,4.5,5.7,5.8-7.2,12.1C0-42-7.1-40-16.3-17z"/>
<path fill-rule="evenodd" clip-rule="evenodd" fill="#2B2B2B" d="M-251.3,73.8c-4.7-9.1-26.1-37.2-27.9-72.4
	c-1.7-35.2,7.1-66.6,24.2-48.8c17.1,17.8,28.9,18.1,38.1,33c9.2,15-3.7,38.5,0.4,50.9c-11.9-3.5-10-18.3-10.9-29.6
	c-0.8-11.3-8.6-18.6-19.1-20.4c-10.5-1.8-17.2-33.3-20.9-9.1C-271,1.5-274.1,26.6-251.3,73.8z"/>
<path fill-rule="evenodd" clip-rule="evenodd" fill="#D92425" d="M-213.8,259.7c-0.1,1.7-1,3.2-2.9,4.7c-4.3,3.4-10.3,1.2-15,0
	c-2.7-0.7-5.4-2-8.2-1.9c-8.3,0.3-3.7,10-1.6,14.6c6.1,13.4-15.4,6.1-31.4-2.2c-31.4-16.4-2.1-30.7,14.6-34.5
	c16.7-3.9,16.1-15.6,11.6-24.6c-4.5-9,0.1-44.8,13.5-34.2c13.3,10.6,8.6,28.8,21.5,23.4c12.9-5.3,8.1-19.7,23.8-19.8
	c15.8,0,5.8,16.4,14.2,14.9c8.4-1.5,17.7-32.5,32.7-28.2c15,4.4,11.8,26.6-12.6,40.4c-24.3,13.8-41,9.6-36,21.7
	c2,4.8,7.2,8,10.4,11.8c7.4,9-12.2,8.6-16.4,7.2c-7.6-2.5-18.7-23.1-28-16.1C-232.7,243.9-213.5,253.5-213.8,259.7z"/>
<path fill-rule="evenodd" clip-rule="evenodd" fill="#2B2B2B" d="M-95.5,215.1c10.5,3.7,43.8,22.4,82.1,19.3
	c38.3-3.1,71-16.8,49.5-32.4c-21.5-15.6-23.5-28-40.9-35.7c-17.5-7.7-41.1,9.3-55.2,6.7c5.4,12.1,21.2,8,33.6,7.4
	c12.3-0.7,21.3,6.5,24.6,17.4c3.3,10.8,38.3,13.6,12.7,20.8C-14.7,225.8-41.4,232.6-95.5,215.1z"/>
<path fill="#2B2B2B" d="M402-187.8c-10.2,2.9-39.3,8.4-84.8,45.8c-45.4,37.4-141.4,30-234.3,36.4C-9.9-99.2-131.6-54.9-208.6,33.5
	c-13,15-25.2,30.7-36.2,47.2c-9.8,14.6-18.8,29.7-26.6,45.4c-15.6,31.4-29.1,65.7-35.6,100.2c-1.9,9.8-2.9,19.8-2.7,29.8
	c-1.8-1.7-4.1-3-6.3-4.3c0.2,0.1,0.6,1.9,0.7,2.2c0.4,1,0.9,1.9,1.5,2.7c1.2,1.8,2.7,3.3,4.4,4.7c2.2,22,16.4,40.8,39,45
	c5.9,1.1,12.5,1.7,18.5,1.1c1.7-0.2,3.4-0.4,5.1-0.6c0.4,0.2,0.8,0.4,1.2,0.5c1,0.3,2,0.7,3,1.2c2.5,1.3,5.4,1.7,8.1,2.3
	c-0.2,0-1.1-1.6-1.3-1.8c-0.7-0.7-1.4-1.4-2.2-2c-0.6-0.5-1.3-0.9-2-1.3c14.3-2.7,28.4-7.7,41.4-13.7c4.6-2.2,9.2-4.5,13.7-6.9
	c4.8-2.6,9.5-5.4,14.1-8.5c8-5.3,15.5-11.3,22.7-17.6c35.9-31,68.1-71.5,90.7-96.2C10.9,88.4,54.2-5.6,172.1-50.3
	c91.8-34.8,149.1-59.4,189.7-97C402.3-184.9,412.2-190.7,402-187.8z M171.9-62c-29,11.2-85.6,27.3-156.5,113.7
	c1.7-12.1-1.2-26.1-11.8-22.9c-14.9,4.5-11.2,26.9-22.5,36.1c-11.3,9.2-1.7-11.6-11-22.5c-9.3-11-21.2,18.5-27.9,31.7
	c-6.8,13.2-2.9,16.6-17.9,27.1c-15,10.5-21.3-8-38.8-5.5c-17.5,2.5-27.9,18.7-23.4,37.7c4.5,19,22.2,18.1,33.4,19
	c11.2,1,0.4,29.8-15.3,42.8c-13.8,11.3-17.2,25.1-8.5,32.1c-7.1,6.5-14.4,13.3-23,21.8c-8.1,8.2-16.9,15.3-25.8,21.5
	c-0.6-4.5-10.4-3.9-19.1,1.1c-7,4-12.6,12.5-13.7,17.2c-0.2,0.8-22.5,8.2-27.4,9.3c-13.1,3-26.2,3-38.9-1.9
	c-7.4-2.8-13.2-8.1-16.9-15c-6.7-12.5-7.9-27.8-6.2-41.6c0.7-5.4,1.6-10.8,2.8-16.1c4.4-2.3,11.2-9.2,13.7-16.6
	c3-9.2,1.8-18.5-2.5-18.8c0.9-2.3,1.9-4.7,2.6-6.2c9,9.3,19,22.4,29.7-5.3c10.8-27.8,17-35.2,29.3-17.5c12.2,17.7,20.7,25,34.4,2.3
	c13.6-22.6,35.8-10.3,27.4-37.6c-8.4-27.2-24.3-22-11.5-47c12.8-25,26.5,13.6,33.9-24.6c7.4-38.2,27.2-57.7,8.4-60.6
	c-3.5-0.6-6.9-0.8-9.9-0.7C-84.4-49.7-25.7-75.9,41.1-87.3c89.9-15.4,185.6-8.7,225.3-19.1C230.8-85.8,204.5-74.6,171.9-62z"/>
</svg>
