<?xml version="1.0" encoding="utf-8"?>
<!-- Generator: Adobe Illustrator 15.0.0, SVG Export Plug-In . SVG Version: 6.00 Build 0)  -->
<!DOCTYPE svg PUBLIC "-//W3C//DTD SVG 1.1//EN" "http://www.w3.org/Graphics/SVG/1.1/DTD/svg11.dtd">
<svg version="1.1" id="Layer_1" xmlns="http://www.w3.org/2000/svg" xmlns:xlink="http://www.w3.org/1999/xlink" x="0px" y="0px"
	 width="382.186px" height="169.368px" viewBox="0 0 382.186 169.368" enable-background="new 0 0 382.186 169.368"
	 xml:space="preserve">
<g>
	<path fill="#2B2B2B" d="M253.887,93.6c-10.7,3.5-10.101,17.1-23.9,16.699c-13.699-0.4-15.5-0.5-23.3,6.398
		c-7.899,6.9-18.399,15.5-31.3,15.803c-12.9,0.299-18.2-3-32.301-0.701c-14.1,2.301-21.899-0.1-21.899-0.1s15.6-0.199,25.899-4
		c10.301-3.801,17.801-0.199,27.201-0.301c9.399-0.1,13-0.1,18.799-6.799c5.802-6.701,11.701-12.701,19.302-15.6
		c7.6-3,11.198,1,16.6,0.5s9.4-9.5,13.4-12.102C246.387,90.6,252.987,92.899,253.887,93.6z"/>
	<path fill="#D92425" d="M213.085,122.899c5-4.6,9.201-4.1,14.602-3.799c5.399,0.299,10.898-2.301,16.101-7.301
		c5.199-5.102,10.399-2.299,15-7c4.601-4.799,12.399-4.199,8,3.201c-4.399,7.398-9,9.398-9.5,14.697
		c-0.399,5.303-3.801,9-8.601,6.303c-4.8-2.701-9.8-4.803-11.8,0.398c-2.101,5.199-6.101,9.9-9.802,6
		c-3.698-3.898-7.898-10.6-15.198-2.898c-7.302,7.697-17.302,9-20.802,5.799c-3.5-3.102-1.898-3.299,4.701-4.602
		C202.585,132.299,206.085,132.299,213.085,122.899z"/>
	<path fill="#2B2B2B" d="M331.187,110.1c1,4.699,7.398,20.1,3.898,36.4c-3.5,16.197-11.299,29.5-16.898,19.299
		c-5.601-10.199-11-11.699-13.399-19.699c-2.399-7.9,6.399-17.1,6-23.201c5,3,2.299,9.602,1.399,14.801c-1,5.301,1.7,9.5,6.2,11.602
		c4.6,2.1,3.8,17.299,8.399,6.699C331.387,145.399,335.787,134.399,331.187,110.1z"/>
	<path fill="#D92425" d="M336.687,20.898c0.2-0.799,0.8-1.299,1.898-1.799c2.4-1,4.802,0.699,6.802,1.799
		c1.1,0.602,2.198,1.602,3.5,1.9c3.8,0.898,2.898-4.102,2.5-6.5c-1.102-6.799,7.7-0.9,14,4.801c12.3,11.299-2.8,14.199-10.9,14
		c-8.1-0.301-9.199,5.199-8.3,9.799c1,4.701-5.5,20.4-10.3,13.9c-4.802-6.5-0.4-14.199-6.9-13.299c-6.5,0.898-6.1,8-13.3,6.1
		s-0.7-8.201-4.7-8.5c-4-0.4-12,12.699-18.3,8.9c-6.3-3.803-2.102-13.5,10.601-16.9c12.799-3.301,19.799,0.6,19-5.5
		c-0.301-2.4-2.301-4.5-3.301-6.701c-2.3-5,6.6-2.398,8.301-1.299c3.101,2,5.699,12.799,10.799,10.699
		C343.387,30.398,335.787,23.699,336.687,20.898z"/>
	<path fill="#2B2B2B" d="M277.387,26.799c-4.302-2.9-17.2-15.5-35.101-18.799c-17.801-3.303-34.399-1-26.5,8.697
		c7.899,9.701,7.299,15.602,14.299,21.201c7,5.602,19.9,0.699,25.9,3.602c-1-6.201-8.699-6.201-14.4-7.4
		c-5.698-1.201-8.898-5.6-9.1-10.9c-0.199-5.301-15.8-10.801-3.3-11C241.887,12.1,254.787,12.299,277.387,26.799z"/>
	<path fill="#2B2B2B" d="M1.687,149.899c5-0.1,18.899,1,44.2-10.6c25.199-11.5,68.1,3.5,111.198,11.898
		c43.102,8.4,103.9,3,149.701-27.898c7.799-5.199,15.199-10.9,22.199-17.102c6.2-5.5,12.2-11.197,17.6-17.5
		c10.9-12.399,21.2-26.399,28.4-41.299c2-4.201,3.7-8.701,4.9-13.301c0.6,1,1.5,1.9,2.3,2.701c-0.101-0.102,0-0.9-0.101-1.102
		c-0.101-0.5-0.199-1-0.301-1.398c-0.3-1-0.8-1.9-1.398-2.701c1.7-10.299-2.5-20.6-12.3-25.199c-2.5-1.201-5.5-2.301-8.302-2.801
		c-0.8-0.1-1.6-0.199-2.398-0.299c-0.102-0.102-0.3-0.301-0.5-0.4c-0.4-0.301-0.8-0.6-1.2-0.898c-1-0.9-2.2-1.4-3.4-2
		c0.102,0,0.302,0.799,0.4,1c0.2,0.398,0.5,0.799,0.8,1.197c0.2,0.303,0.5,0.602,0.8,0.803c-6.8-0.5-13.898,0-20.499,1.197
		c-2.399,0.4-4.701,0.9-7.101,1.5c-2.5,0.602-5,1.303-7.399,2.102c-4.301,1.398-8.399,3.301-12.5,5.201
		c-20.101,9.799-39.701,24.299-53,32.799C213.486,71.5,182.286,109.1,123.186,115.1c-46.101,4.699-75.2,8.9-98.2,21.1
		C1.987,148.6-3.214,150,1.687,149.899z M121.887,120.6c14.6-1.6,42.3-2,85.1-32.801c-2.199,5.301-2.6,12,2.6,11.898
		c7.4-0.197,8.4-10.898,14.701-13.697c6.299-2.803-0.601,5.5,2.299,11.6c2.9,6.1,11.9-5.801,16.602-11.1
		c4.7-5.202,3.398-7.202,11.5-10.202c8.101-2.9,8.7,6.201,17,7.201s15-5.102,15.2-14.303c0.3-9.197-7.9-10.898-12.9-12.697
		c-5-1.803,3.4-13.701,12.2-17.602c7.7-3.5,10.898-9.301,7.8-13.6c4-2.102,8.2-4.301,13.1-7.102c4.701-2.699,9.5-4.898,14.302-6.6
		c-0.302,2.1,4.198,3,8.8,1.799c3.7-1,7.3-4.199,8.398-6.199c0.201-0.301,11.302-1,13.602-0.898c6.3,0.199,12.3,1.799,17.5,5.6
		c3,2.199,5,5.299,5.9,8.9c1.5,6.5,0.198,13.6-2.2,19.699c-1,2.398-2.102,4.699-3.2,7c-2.3,0.5-6.2,2.801-8.2,5.898
		c-2.5,3.801-3.1,8.201-1.2,8.801c-0.698,1-1.398,1.9-1.898,2.5c-3-5.301-5.9-12.5-14.2-1.199s-12,14-15.5,4.398
		c-3.399-9.6-6.399-13.898-15.399-5.199s-17.5,0.4-17,13.801c0.5,13.399,8.399,13-0.5,22.801c-8.899,9.799-10.399-9.4-18.5,7.1
		c-8,16.5-19.399,23-11.201,26.602c1.5,0.697,3,1.197,4.4,1.5c-30.8,11.6-60.699,16.398-92.5,13.5c-42.8-3.9-85.6-18.602-105-18.701
		C92.187,124.2,105.487,122.299,121.887,120.6z"/>
</g>
</svg>
