<?xml version="1.0" encoding="utf-8"?>
<!-- Generator: Adobe Illustrator 15.0.0, SVG Export Plug-In . SVG Version: 6.00 Build 0)  -->
<!DOCTYPE svg PUBLIC "-//W3C//DTD SVG 1.1//EN" "http://www.w3.org/Graphics/SVG/1.1/DTD/svg11.dtd">
<svg version="1.1" id="Layer_1" xmlns="http://www.w3.org/2000/svg" xmlns:xlink="http://www.w3.org/1999/xlink" x="0px" y="0px"
	 width="639.543px" height="557.656px" viewBox="0 0 639.543 557.656" enable-background="new 0 0 639.543 557.656"
	 xml:space="preserve">
<g>
	<path fill="#1C1C1C" d="M535.124,427.754c0.7-3.7,6.602-6.5,13.3-6.399c6.802,0.1,11.9,3.1,11.2,6.8c-0.5,3.6-6.7,6.5-13.5,6.6
		C539.424,434.654,534.524,431.454,535.124,427.754z"/>
	<g>
		<path fill="#2B2B2B" d="M565.024,432.154c0-4.101-0.102-6.4-4.3-7.9c-11-3.899-21.5,0.7-31.7,4l1.5,1.7c4,4.3,10.1,7.1,10.1,7.1
			c-3.7,0-4.1,0.601-7.6-0.8c-4.5-1.8-16-8-8.3-13.3c10.6-7.2,22.398-8.3,34.398-2.6
			C565.124,423.154,566.424,426.254,565.024,432.154z"/>
	</g>
	<path fill="#D92425" d="M636.124,369.054c-1.398-2.399-3.2-5-4.898-7.1c-1.9-2.2-3.802-4.3-5.7-6.5c-1.2-1.5-2.102-2.1-2.2-4
		c0-1.8,0-3.5-0.1-5.2c-0.2-3.1-2.9-5.8-4.9-8c-2.5-2.6-5.6-4.7-8.9-6.3c-1-0.5-2.198-1-3.3-1.2c-0.6-0.1-1.8,0.3-2.3,0
		c3.4,1.5,6.3,3.7,8.7,6.5c2.2,2.601,3.1,5.5,3.398,8.9c-3.5-3.601-7.6-6.7-11.398-9.9c-3.9-3.3-8.2-6.1-12.602-8.899
		c-3.1-1.9-6.3-3.801-9.398-5.5c-12.3-6.601-25.3-11.801-38.602-15.9c-13.898-4.2-28.1-7.3-42.3-10.4
		c-29.898-6.5-68.5-17.299-116.6-14.5c-35.9,2.2-83.102,5.301-126.7,2.9c-27.9-1.5-56.4-5.1-82.9-14.6c-4.1-1.5-18.8-6-33.3-13.7
		c-41.1-21.8-64.4-64.7-66.7-110.4c-0.6-11.7,0-24.2,2.4-35.6c1.7-8,4.8-15.5,7.7-23.1c2.4-6,6-13.6,2.9-20
		c-2.8-5.6-11.2-0.9-14.9,1.5c-4.1,2.8-10.7,9-15.2,17.5c-4.5,8.6-10.4,22-11.6,31.5c-0.5,4.1,3.5,4.8,1.3,8.4
		c5.9-14.2,11.9-28.8,20.6-41.6c0.8-1.2,4.8-8,6.9-7.3c2,0.9-0.3,7.6-0.5,9c-3.4,14-7.9,27.7-8.9,42.3c-1,14.9,1.5,30,5.2,44.4
		c3.4,13.5,8.3,26.4,13.9,38.9c5.7,12.5,15.1,22.7,27,33.8c-7.5,3.8-2.601,13.9,0.8,18.9c8.3,12.3,18.1-4.5,29.6,3.5
		c11.4,8-5.7,7.3,5.3,17.5c11,10.199,12.102,5.8,30.7,4.1c18.7-1.6,22.9,8,33.602,17.2c10.698,9.1,4.6,15.3,23.898,22.2
		c19.3,6.899,16.4-22.101,19.5-27.301c3-5.1,9.602-10.8,17.3-10.1c26.102,4.1,54.4,13.7,78,12.4
		c38.2-1.801,62.602-4.301,87.802-3.301c-13.802,4.801-25.2,13.2-2.4,17.801c29.2,5.899,64.7,7.699,53.1,16.8
		c-11.698,9-27.198,0.399-22,15.399c5.2,15,30.5,8.101,24.2,21.301c-6.3,13.3-16.6,26.5,10.7,21c14-4.301,17.3-0.5,27.4,4.199
		c10,4.601,21.898,17.301,34.6,8.9c12.7-8.3,30.8,1.3,35.8-13.2s-18.1-10.5-14.898-21.5c3.198-11.1,17.8-20.6-3.2-23.5
		c-21-2.899-29.4,10.2-30.8-8.6c-0.5-6.7-3.602-12.9-4.4-19.4c0.1,0.2,4.2,0.9,4.6,1c1.602,0.3,3.2,0.7,4.7,1.101
		c3.101,0.699,6.2,1.6,9.2,2.6c7.7,2.4,15.1,5.8,22.2,9.7c6.3,3.5,12.1,7.6,17.7,12.1c5.6,4.5,11.1,9.2,16.1,14.5
		c4.4,4.7,8.3,10.101,10.2,16.3c0.8,2.7,1.3,5.5,1.5,8.301c0.2,3.399-0.9,20.5-1,21.699c-0.102,0.101,0,0.601,0,0.601
		c5.5-7.5,9-21.4,6.898-30.8C638.424,373.854,636.225,369.054,636.124,369.054z"/>
	<path fill="#2B2B2B" d="M326.225,358.754c9.1-2.2,8.6,8.3,14.898,13.7c6.102,5.5,11.5,14.7,13.9,20.5c2.3,5.7,10.6,11.6,17.6,2.1
		s4-12.899,13.2-13.699c9.3-0.9,16.3,14.6,27.6,3.3c11.4-11.5-3.6-15,4.5-18.7c8.302-3.7,28.602-7.4,24.802-9.9
		c-3.802-2.399-10.4-11-6-15.8c4.398-4.8,1.6-15.8-10.802-16.899c-12.6-1.101-24.3,3.899-32.198-3.301
		c-7.7-7.1-27.9-4.5-36.602-3.199c-8.898,1.199-16.5-6.101-32.7-2.4c-16,3.8-33.3,10.9-28.5,16.5c4.9,5.6,25.7,6,24.4,14.2
		C318.624,353.354,318.124,360.754,326.225,358.754z"/>
	<path fill="#2B2B2B" d="M169.024,320.754c-1.601,0.3-3.2,0.601-4.7,0.7c-4.6,0.2-9.3,0.3-14-0.1c-9.2-0.7-18-3.4-25.9-8.301
		c-20.398-12.8-33-36.399-44-57c-12-22.2-23-44.8-34.2-67.3c-0.6-1-7-11.8-6.1-12.8c0.4-0.5,5.2,6.4,5.6,7.1
		c13.8,19.2,27.4,38.6,41.2,57.8c3.1,4.3,7.7,9,8.8,14.2c0.9,4.5,0.1,9.6,2.5,13.7c3.9,6.8,13.4,12.1,17.5,18.7
		c4.8,7.5,10.1,14.6,19.3,16.4c9,1.699,18.2-0.601,27.2,1c8.6,1.6,17,5.199,24.698,9.3c18.2,9.7,33.602,26,55,28.399
		c15,1.7,21.4-11.3,36.302-8.399c16.698,3.2,37.198,25.399,44.3,39.8c1.7,3.5,6.6,12.2,4.2,16.4c-2.2,3.8-7.802,0.3-10.5-1.2
		c-7.302-4-14.9-8.5-21.5-13.5c-6-4.601-7.5-11.8-11.5-17.7c-5-7.6-11.4-3.6-17.802-0.2c-4.898,2.7-10.5,2-15.898,2
		c-6.602,0.101-13.2,0.8-19.9,1.7c-3.7,0.5-6.7,2.2-10.1,0c-5.3-3.3-10.7-8.1-15.2-12.6c-3.8-3.9-4.5-7.601-6.8-12.2
		c-2.8-5.601-8.9-9.8-13.8-13.2c-3.602-2.5-5.602-4.1-10-3.8C172.225,320.154,170.624,320.454,169.024,320.754z"/>
	<path fill="#2B2B2B" d="M486.024,478.854c-18.5,18.5-28.5,44.1-48.7,60.2c-22,17.3-52.7,23.1-73.6,15
		c-5.801-2.301-15.801-10.2-14.4-19.4c3.2-21.8,21.3-43.7,43.4-42.2c14.8,1.5-3.4,5.8-9.5,11.3c-6.601,5.9-2.101,15.301-8.101,20.9
		c-4.398,4.1-14,10.8,2.9,16.4c8,2.698,17.5,2.398,27,0.698c16.6-3,23.2-2.198,35.3-14.698c10.2-12.102,20.6-24.102,30.7-36.102
		C475.924,486.854,480.924,482.854,486.024,478.854z"/>
	<path fill="#D92425" d="M461.824,282.954c-10.9-3.5-22.2-6.8-32-13c-4.5-2.9-7.2-8.6-11.9-12c-6-4.6-14-7.2-18.8-12.1
		c-5.6-5.8-7.1-11.8-14.5-15.6c-7.6-3.9-19.7-9.2-26.7-0.4c-3.8,4.6-5.198,8.6-3.1,14.7c1.7,4.8,4.1,11.1,6.8,14.9
		c6.5,9.1,16,5.2,17.9,14.8c2.398,12-24.102-4.1-26.4-6.1c-8.398-7.5-17.3-19.1-14-31.1c4.102-14.5,21.8-20.9,35.4-18.6
		c17.6,3.1,29.7,18.5,41.398,30.5C429.624,262.954,444.725,273.554,461.824,282.954z"/>
	<path fill="#2B2B2B" d="M624.424,423.054c0.102-0.1,0-0.1,0.102-0.199c0.6-3.4,3-6.2,4.7-9c0.8-1.4,3.1-4.7,2.8-6.601
		c-0.5,0.601-2.7,3.101-3.102,3.5c-1.198,1.4-2.398,2.601-3.6,3.9c-2.8,2.7-5.9,5.2-8.8,7.8c-3.8,3.4-7.7,6.4-12.602,8.1
		c-6,2-12.6,2.801-18.398,5.5c-9.2,4.301-14,10.101-27.5,14.2c-4.7,1.4-24.5,0.2-29.8,1.601c-3.302,0.8-6.7,3.199-9.7,4.8
		c-4.3,2.3-8.9,4.1-13.9,4.5c-3,0.2-6-0.101-9-0.3c-3.1-0.2-6.2-0.601-9.2-1.7c-5.1-1.601-12.5-5.101-13.398-10.9
		c-0.602-3.3,1.398-6.3,3-9.1c2-3.5,3.8-6.9,5.2-10.601c-0.302,0.801-1.602,1.9-2.302,2.5c-0.898,1-1.8,1.801-2.698,2.7
		c-1.9,1.8-3.7,3.7-5.102,5.7c-2.3,3.4-3.8,7.3-4,11.4c-0.3,9.399,6.2,18,14.9,21.2c2.6,1,5.398,1.399,8.1,1.699
		c6.102,0.4,11.7-0.1,17.602-1.6c5.898-1.4,11.698-3.3,17.398-5.101c3.102-1,6.4-2,9.602-2.8c13.6-3.399,27.1-6.399,40-11.6
		c15.698-6.3,29.8-12.601,42.698-23.9c4.602,6.9-5.6,14.3-10,17.8c6.4-1.1,12.7-8,15.4-13.5
		C624.524,429.954,623.924,426.354,624.424,423.054z"/>
	<path fill="#2B2B2B" d="M392.624,468.555c-13.6-2.501-21.8,1.199-35.3,0.1c-9.3-0.8-24.2-6.8-31.6-8c-4.802-0.7-9.7-1.4-14.5-2.101
		c4.1-2.699,5.698-7.399-0.2-13.3c-9.7-10-13,2.4-21.4-11.3c-8.5-13.7-5.7-13.6-0.2-14.5s8.302,1,7.602-9.7
		c-0.602-10.7-1.2-18.1-11.602-15.2c-10.398,2.9-22.198,13.2-27.5,3.5c-5.3-9.6-16-12.1-8.5-22c-9.5,2.5-19.698,1.601-28.5-2.899
		c-4.5-2.3-12.698-10.601-17.698-4.5c-4.9,5.8,3.198,14.399,7.1,17.899c2.6,2.4,5.4,4.7,8.3,6.9c4.602,3.2,3.3,4.2,0.3,8.4
		c-2,2.8-5,7.699-8.898,7.899c-4.602,0.2-6.7-5.5-7.8-9c-2.4-7.899-2.2-16.7-11.9-19.2c-5.3-1.399-10.5-3.3-14.8,0.801
		c-4.7,4.5-8.601,8.899-15,4.199c-9.3-7-3.601-22-17.601-25.199c-8.101-1.9-13-4.101-18.899-10.2c-10.899-11.3-17.3-25.8-27.1-38
		c-8-10.101-19.4-17.8-26-29.101c-7.9-13.899-10.9-28.699-14.3-44.1c-2.5-11.3-7.6-21.4-12.8-31.7c-3-6-6.3-12.1-7.9-18.6
		c-9.3-37.2-13.1-76-18.6-113.8c-1.5-10.4-3.2-21-4-31.4c-0.3-2.7-2.4-14.3,0.2-16.5c4.6-3.8,11.6,25.5,12.2,28.3
		c2.7,12.6,4.4,25.4,6.6,38c1.3,7.2,2.7,14.4,4.5,21.5c5.9,22.7,17.6,42.9,31.9,61.4c-5-12.1-10.1-24.3-13.7-36.9
		c-8.8-31.5-13.2-64.5-20.2-96.5c-1.9-8.6-13.6-49.8-28.8-43c-6.5,2.9-6.2,15-5.9,20.6c0.5,8.4,2.2,16.7,3.4,25
		c4,28.1,7.7,56.3,12.6,84.3c2.8,16.7,6.1,33.4,10,49.9c10.1,43.5,23.6,86.6,47.6,124.7c25.2,40.9,57.3,76.2,96,105.101
		c10.898,8.1,22,15.699,33.6,22.8c14,8.7,28.8,16.3,44.2,22.399c50.1,20.2,102.899,30.9,157.1,26.501c12.9-1.102,25.3-3.7,37.9-6
		C428.225,478.754,411.824,471.555,392.624,468.555z"/>
	<path fill="#D92425" d="M464.124,419.454c-16.5,1.6-23.1-3.6-29.1-12.3c-2.5-3.7,2.1-13.2-5-14.601c-13.2-2.699-25.9,7.9-40.2,4.4
		c-13.2-3.2-17.6,20.6-30.5,17.3c-9.4-2.399-12.5-7.1-23.1-4.6c-18.5,4.3-4.5,20.2,6.3,23.2c8.898,2.5,11.3,1.199,13.2,10.1
		c1.5,6.8-5,8.5-6.802,13.1c8.302,1.9,16.9,6.5,25.5,2c14.802-7.6,12.5-19,32-14.8c7.4,1.601,12.2,6.9,17.102,12.2
		c3.8,4,9.2,10.1,15.5,9c3.2-0.6,5.8-4,7.6-6.4c3.8-4.899,0.8-12.1,4.4-16.6c3.398-4.2,12.3-4.4,17-6.4
		C475.725,431.754,479.725,416.854,464.124,419.454z"/>
	<path fill="#2B2B2B" d="M181.024,422.954c-26.5-2.5-53.8,0.6-79.2-16.3c-25.4-16.9,24.1-23.4,34.9-20.101
		c-1.4-0.399-16.2,4.101-18.4,5.101c-6.1,2.7-6.5,4.399-0.4,10.399C133.424,417.454,161.324,416.554,181.024,422.954z"/>
	<path fill="#D92425" d="M216.725,275.854c-11.7-15.3-20-33.9-41-41.1c-20.9-7.1-6.301,27.1,0,32c-1.7-4.6-2.102-9.4-4-14
		c-1.4-3.7-1.4-6,3.1-5.9C193.124,247.054,203.424,265.754,216.725,275.854z"/>
</g>
</svg>
