<?xml version="1.0" encoding="utf-8"?>
<!-- Generator: Adobe Illustrator 15.0.0, SVG Export Plug-In . SVG Version: 6.00 Build 0)  -->
<!DOCTYPE svg PUBLIC "-//W3C//DTD SVG 1.1//EN" "http://www.w3.org/Graphics/SVG/1.1/DTD/svg11.dtd">
<svg version="1.1" id="Layer_1" xmlns="http://www.w3.org/2000/svg" xmlns:xlink="http://www.w3.org/1999/xlink" x="0px" y="0px"
	 width="382.186px" height="169.367px" viewBox="0 0 382.186 169.367" enable-background="new 0 0 382.186 169.367"
	 xml:space="preserve">
<g>
	<path fill="#2B2B2B" d="M253.886,93.6c-10.7,3.5-10.101,17.1-23.9,16.699c-13.698-0.4-15.5-0.5-23.3,6.397
		c-7.898,6.9-18.398,15.5-31.3,15.804c-12.9,0.299-18.2-3-32.301-0.701c-14.1,2.301-21.899-0.1-21.899-0.1s15.601-0.198,25.899-4
		c10.301-3.801,17.801-0.198,27.201-0.301c9.398-0.1,13-0.1,18.799-6.799c5.802-6.701,11.701-12.701,19.302-15.6
		c7.6-3,11.198,1,16.6,0.5c5.402-0.5,9.4-9.5,13.4-12.103C246.386,90.6,252.986,92.898,253.886,93.6z"/>
	<path fill="#FF9729" d="M213.086,122.898c5-4.6,9.201-4.1,14.602-3.799c5.399,0.299,10.898-2.301,16.102-7.301
		c5.198-5.103,10.398-2.299,15-7c4.601-4.799,12.398-4.199,8,3.201c-4.399,7.397-9,9.397-9.5,14.696
		c-0.399,5.304-3.802,9-8.602,6.304c-4.8-2.701-9.8-4.804-11.8,0.397c-2.101,5.199-6.101,9.9-9.802,6
		c-3.698-3.897-7.898-10.6-15.198-2.897c-7.302,7.696-17.302,9-20.802,5.799c-3.5-3.103-1.898-3.299,4.701-4.603
		C202.586,132.3,206.086,132.3,213.086,122.898z"/>
	<path fill="#2B2B2B" d="M331.186,110.1c1,4.699,7.398,20.1,3.898,36.4c-3.5,16.196-11.299,29.5-16.898,19.299
		c-5.6-10.199-11-11.699-13.398-19.699c-2.399-7.9,6.398-17.1,6-23.201c5,3,2.299,9.603,1.398,14.801c-1,5.302,1.7,9.5,6.2,11.603
		c4.6,2.1,3.8,17.299,8.399,6.699C331.386,145.398,335.788,134.398,331.186,110.1z"/>
	<path fill="#FF9729" d="M336.686,20.898c0.2-0.799,0.8-1.299,1.898-1.799c2.399-1,4.802,0.699,6.802,1.799
		c1.1,0.603,2.198,1.603,3.5,1.9c3.8,0.897,2.897-4.103,2.5-6.5c-1.103-6.799,7.7-0.9,14,4.801c12.3,11.299-2.8,14.199-10.9,14
		c-8.1-0.301-9.198,5.199-8.3,9.799c1,4.701-5.5,20.4-10.3,13.9c-4.802-6.5-0.4-14.199-6.9-13.299c-6.5,0.897-6.1,8-13.3,6.1
		c-7.199-1.9-0.7-8.201-4.7-8.5c-4-0.4-12,12.699-18.3,8.9c-6.3-3.804-2.102-13.5,10.602-16.9c12.799-3.301,19.799,0.6,19-5.5
		c-0.301-2.4-2.301-4.5-3.301-6.701c-2.301-5,6.6-2.397,8.301-1.299c3.101,2,5.699,12.799,10.799,10.699
		C343.386,30.398,335.788,23.699,336.686,20.898z"/>
	<path fill="#2B2B2B" d="M277.386,26.8c-4.302-2.9-17.2-15.5-35.101-18.799c-17.802-3.304-34.399-1-26.5,8.696
		c7.898,9.701,7.299,15.603,14.299,21.201c7,5.603,19.899,0.699,25.899,3.603c-1-6.201-8.698-6.201-14.399-7.4
		c-5.698-1.201-8.898-5.6-9.101-10.9c-0.198-5.301-15.8-10.801-3.3-11C241.886,12.1,254.788,12.3,277.386,26.8z"/>
	<path fill="#2B2B2B" d="M1.686,149.898c5-0.1,18.899,1,44.2-10.6c25.199-11.5,68.1,3.5,111.198,11.897
		c43.102,8.4,103.899,3,149.701-27.897c7.799-5.199,15.198-10.9,22.198-17.103c6.2-5.5,12.2-11.196,17.601-17.5
		c10.899-12.397,21.199-26.397,28.399-41.299c2-4.201,3.7-8.701,4.9-13.301c0.6,1,1.5,1.9,2.3,2.701c-0.102-0.103,0-0.9-0.102-1.103
		c-0.101-0.5-0.198-1-0.301-1.397c-0.3-1-0.8-1.9-1.397-2.701c1.7-10.299-2.5-20.6-12.3-25.199c-2.5-1.201-5.5-2.301-8.303-2.801
		c-0.8-0.1-1.6-0.199-2.397-0.299c-0.103-0.103-0.3-0.301-0.5-0.4c-0.4-0.301-0.8-0.6-1.2-0.897c-1-0.9-2.2-1.4-3.4-2
		c0.103,0,0.303,0.799,0.4,1c0.2,0.397,0.5,0.799,0.8,1.196c0.2,0.304,0.5,0.603,0.8,0.804c-6.8-0.5-13.897,0-20.498,1.196
		c-2.399,0.4-4.701,0.9-7.102,1.5c-2.5,0.603-5,1.304-7.398,2.103c-4.302,1.397-8.399,3.301-12.5,5.201
		c-20.102,9.799-39.701,24.299-53,32.799C213.484,71.5,182.286,109.1,123.184,115.1c-46.101,4.699-75.2,8.9-98.2,21.1
		C1.986,148.6-3.213,150.001,1.686,149.898z M121.886,120.6c14.6-1.6,42.3-2,85.1-32.801c-2.198,5.301-2.6,12,2.601,11.897
		c7.399-0.196,8.399-10.897,14.701-13.696c6.299-2.804-0.602,5.5,2.299,11.6c2.899,6.1,11.899-5.801,16.602-11.1
		c4.7-5.201,3.398-7.201,11.5-10.201c8.102-2.9,8.7,6.201,17,7.201s15-5.103,15.2-14.304c0.3-9.196-7.9-10.897-12.9-12.696
		c-5-1.804,3.4-13.701,12.2-17.603c7.7-3.5,10.898-9.301,7.8-13.6c4-2.103,8.2-4.301,13.101-7.103c4.701-2.698,9.5-4.897,14.302-6.6
		c-0.302,2.1,4.198,3,8.8,1.799c3.7-1,7.301-4.199,8.398-6.199c0.201-0.301,11.302-1,13.602-0.897c6.3,0.199,12.3,1.799,17.5,5.6
		c3,2.199,5,5.299,5.9,8.9c1.5,6.5,0.197,13.6-2.2,19.699c-1,2.397-2.103,4.698-3.2,7c-2.3,0.5-6.2,2.801-8.2,5.897
		c-2.5,3.801-3.1,8.201-1.2,8.801c-0.697,1-1.397,1.9-1.897,2.5c-3-5.301-5.9-12.5-14.2-1.198c-8.3,11.301-12,14-15.5,4.397
		c-3.398-9.6-6.398-13.897-15.398-5.199c-9,8.699-17.5,0.4-17,13.802c0.5,13.397,8.398,13-0.5,22.801
		c-8.899,9.799-10.399-9.4-18.5,7.1c-8,16.5-19.399,23-11.201,26.603c1.5,0.696,3,1.196,4.4,1.5
		c-30.801,11.6-60.699,16.397-92.5,13.5c-42.801-3.9-85.601-18.603-105-18.701C92.186,124.199,105.486,122.3,121.886,120.6z"/>
</g>
</svg>
