<?xml version="1.0" encoding="utf-8"?>
<!-- Generator: Adobe Illustrator 15.0.0, SVG Export Plug-In . SVG Version: 6.00 Build 0)  -->
<!DOCTYPE svg PUBLIC "-//W3C//DTD SVG 1.1//EN" "http://www.w3.org/Graphics/SVG/1.1/DTD/svg11.dtd">
<svg version="1.1" id="Layer_1" xmlns="http://www.w3.org/2000/svg" xmlns:xlink="http://www.w3.org/1999/xlink" x="0px" y="0px"
	 width="382.186px" height="169.368px" viewBox="45.814 337.401 382.186 169.368"
	 enable-background="new 45.814 337.401 382.186 169.368" xml:space="preserve">
<g>
	<path fill="#2B2B2B" d="M299.7,431c-10.7,3.5-10.1,17.1-23.9,16.7c-13.699-0.4-15.5-0.5-23.3,6.399
		c-7.899,6.9-18.399,15.5-31.3,15.801c-12.9,0.3-18.2-3-32.3-0.7S167,469.1,167,469.1s15.6-0.199,25.9-4
		c10.3-3.8,17.8-0.199,27.201-0.3c9.399-0.1,13-0.1,18.799-6.8c5.801-6.7,11.701-12.7,19.301-15.6c7.6-3,11.199,1,16.6,0.5
		s9.4-9.5,13.4-12.101C292.2,428,298.8,430.3,299.7,431z"/>
	<path fill="#D92425" d="M258.899,460.3c5-4.6,9.201-4.1,14.601-3.8s10.899-2.3,16.101-7.3c5.199-5.101,10.399-2.3,15-7
		c4.6-4.8,12.399-4.2,8,3.2c-4.4,7.399-9,9.399-9.5,14.699c-0.4,5.301-3.801,9-8.601,6.301c-4.8-2.7-9.8-4.801-11.8,0.399
		c-2.1,5.2-6.1,9.9-9.801,6c-3.699-3.899-7.899-10.6-15.199-2.899c-7.301,7.699-17.301,9-20.801,5.8
		c-3.5-3.101-1.899-3.3,4.701-4.601C248.399,469.7,251.899,469.7,258.899,460.3z"/>
	<path fill="#2B2B2B" d="M377,447.5c1,4.7,7.399,20.1,3.899,36.4c-3.5,16.199-11.299,29.5-16.899,19.3s-11-11.7-13.399-19.7
		c-2.4-7.9,6.399-17.1,6-23.2c5,3,2.299,9.601,1.399,14.8c-1,5.301,1.7,9.5,6.2,11.601c4.6,2.1,3.8,17.3,8.4,6.7
		C377.2,482.8,381.601,471.8,377,447.5z"/>
	<path fill="#D92425" d="M382.5,358.3c0.2-0.8,0.8-1.3,1.899-1.8c2.4-1,4.801,0.7,6.801,1.8c1.1,0.601,2.199,1.601,3.5,1.9
		c3.8,0.899,2.899-4.101,2.5-6.5c-1.101-6.8,7.7-0.9,14,4.8c12.3,11.3-2.8,14.2-10.9,14c-8.1-0.3-9.199,5.2-8.3,9.8
		c1,4.7-5.5,20.4-10.3,13.9c-4.801-6.5-0.4-14.2-6.9-13.3c-6.5,0.899-6.1,8-13.3,6.1s-0.7-8.2-4.7-8.5c-4-0.4-12,12.7-18.3,8.9
		c-6.3-3.801-2.101-13.5,10.601-16.9c12.799-3.3,19.799,0.6,19-5.5c-0.301-2.4-2.301-4.5-3.301-6.7c-2.3-5,6.6-2.399,8.301-1.3
		c3.1,2,5.699,12.8,10.799,10.7C389.2,367.8,381.601,361.1,382.5,358.3z"/>
	<path fill="#2B2B2B" d="M323.2,364.2c-4.301-2.9-17.2-15.5-35.1-18.8c-17.801-3.301-34.4-1-26.5,8.699
		c7.899,9.7,7.299,15.601,14.299,21.2c7,5.601,19.9,0.7,25.9,3.601c-1-6.2-8.699-6.2-14.4-7.4c-5.699-1.2-8.899-5.6-9.1-10.9
		c-0.199-5.3-15.8-10.8-3.3-11C287.7,349.5,300.601,349.7,323.2,364.2z"/>
	<path fill="#2B2B2B" d="M47.5,487.3c5-0.1,18.9,1,44.2-10.6c25.2-11.5,68.1,3.5,111.199,11.899c43.101,8.4,103.9,3,149.701-27.899
		c7.799-5.2,15.199-10.9,22.199-17.101c6.2-5.5,12.2-11.199,17.6-17.5c10.9-12.399,21.2-26.399,28.4-41.3c2-4.2,3.7-8.7,4.9-13.3
		c0.6,1,1.5,1.9,2.3,2.7c-0.1-0.101,0-0.9-0.1-1.101c-0.101-0.5-0.2-1-0.301-1.399c-0.3-1-0.8-1.9-1.399-2.7
		c1.7-10.3-2.5-20.6-12.3-25.2c-2.5-1.2-5.5-2.3-8.301-2.8c-0.8-0.1-1.6-0.2-2.399-0.3c-0.101-0.101-0.3-0.3-0.5-0.4
		c-0.4-0.3-0.8-0.6-1.2-0.899c-1-0.9-2.2-1.4-3.4-2c0.101,0,0.301,0.8,0.4,1c0.2,0.399,0.5,0.8,0.8,1.199
		c0.2,0.301,0.5,0.601,0.8,0.801c-6.8-0.5-13.899,0-20.499,1.199c-2.4,0.4-4.701,0.9-7.101,1.5c-2.5,0.601-5,1.301-7.399,2.101
		c-4.301,1.399-8.4,3.3-12.5,5.2c-20.101,9.8-39.701,24.3-53,32.8c-40.301,25.7-71.5,63.3-130.601,69.3
		c-46.1,4.7-75.2,8.9-98.2,21.1C47.8,486,42.6,487.401,47.5,487.3z M167.7,458c14.6-1.6,42.3-2,85.1-32.8
		c-2.199,5.3-2.6,12,2.6,11.899c7.4-0.199,8.4-10.899,14.701-13.699c6.299-2.801-0.601,5.5,2.299,11.6c2.9,6.1,11.9-5.8,16.601-11.1
		c4.7-5.2,3.399-7.2,11.5-10.2c8.101-2.9,8.7,6.2,17,7.2s15-5.101,15.2-14.301c0.3-9.199-7.9-10.899-12.9-12.699
		c-5-1.801,3.4-13.7,12.2-17.601c7.7-3.5,10.899-9.3,7.8-13.6c4-2.101,8.2-4.3,13.1-7.101c4.701-2.699,9.5-4.899,14.301-6.6
		c-0.301,2.1,4.199,3,8.8,1.8c3.7-1,7.3-4.2,8.399-6.2c0.201-0.3,11.301-1,13.601-0.899c6.3,0.2,12.3,1.8,17.5,5.6
		c3,2.2,5,5.3,5.9,8.9c1.5,6.5,0.199,13.6-2.2,19.7c-1,2.399-2.101,4.699-3.2,7c-2.3,0.5-6.2,2.8-8.2,5.899
		c-2.5,3.8-3.1,8.2-1.2,8.8c-0.699,1-1.399,1.9-1.899,2.5c-3-5.3-5.9-12.5-14.2-1.199c-8.3,11.3-12,14-15.5,4.399
		c-3.399-9.6-6.399-13.899-15.399-5.2c-9,8.7-17.5,0.4-17,13.801c0.5,13.399,8.399,13-0.5,22.8c-8.9,9.8-10.4-9.4-18.5,7.1
		c-8,16.5-19.4,23-11.201,26.601c1.5,0.699,3,1.199,4.4,1.5c-30.8,11.6-60.699,16.399-92.5,13.5c-42.8-3.9-85.6-18.601-105-18.7
		C138,461.6,151.3,459.7,167.7,458z"/>
</g>
</svg>
