<?xml version="1.0" encoding="utf-8"?>
<!-- Generator: Adobe Illustrator 15.0.0, SVG Export Plug-In . SVG Version: 6.00 Build 0)  -->
<!DOCTYPE svg PUBLIC "-//W3C//DTD SVG 1.1//EN" "http://www.w3.org/Graphics/SVG/1.1/DTD/svg11.dtd">
<svg version="1.1" id="Layer_1" xmlns="http://www.w3.org/2000/svg" xmlns:xlink="http://www.w3.org/1999/xlink" x="0px" y="0px"
	 width="488.017px" height="683.876px" viewBox="272.02 -275.125 488.017 683.876"
	 enable-background="new 272.02 -275.125 488.017 683.876" xml:space="preserve">
<g>
	<path fill="#1C1C1C" d="M642.6,356.3c2.5-2.898,8.9-2.398,14.802,0.9c5.898,3.398,8.898,8.5,6.5,11.398c-2.302,2.9-9,2.5-15-0.8
		S640.2,359.3,642.6,356.3z"/>
	<g>
		<path fill="#2B2B2B" d="M666.5,374.7c2-3.602,3.1-5.7,0.1-9c-7.698-8.7-19.1-9.9-29.6-12c0,0,0.5,2.2,0.5,2.3
			c1.4,5.7,5.3,11.2,5.3,11.2c-3.2-1.8-3.898-1.5-6.3-4.5c-3-3.8-10-14.8-0.7-15.7c12.8-1,23.602,3.7,31.3,14.6
			C671,366.9,670.6,370.2,666.5,374.7z"/>
	</g>
	<path fill="#FF9729" d="M759.4,354.3c0-2.8-0.302-5.898-0.802-8.6c-0.6-2.9-1.3-5.602-1.8-8.5c-0.398-1.9-0.8-2.8,0.102-4.602
		c0.8-1.6,1.8-3.1,2.5-4.6c1.3-2.8,0.3-6.5-0.302-9.3c-0.898-3.5-2.6-6.8-4.698-9.8c-0.7-0.9-1.4-1.9-2.302-2.7
		c-0.5-0.4-1.698-0.7-2-1.1c2.2,2.9,3.7,6.3,4.4,9.9c0.7,3.4,0,6.4-1.4,9.4c-1.3-4.802-3.398-9.5-5.198-14.2
		c-1.802-4.8-4.2-9.3-6.602-13.9c-1.8-3.2-3.6-6.3-5.6-9.4c-7.5-11.8-16.3-22.6-26-32.7c-10.102-10.4-21-20.1-31.8-29.8
		c-22.9-20.3-51.302-48.5-94.7-69.6c-32.4-15.6-75.102-36-112-59.3c-23.7-14.9-46.7-32-65.2-53.2c-2.9-3.3-13.4-14.4-22.4-28.2
		C358.301-25,359-73.8,379.301-114.8c5.199-10.4,11.8-21.1,19.499-29.9c5.3-6.1,11.7-11.2,18-16.4c5-4.1,11.9-8.9,12.2-16
		c0.3-6.3-9.3-6.2-13.7-6c-5,0.4-13.7,2.6-21.8,7.9c-8.101,5.3-19.8,14.1-25.5,21.8c-2.399,3.3,0.7,5.9-3,8
		c12.101-9.5,24.399-19.3,38.3-26.3c1.3-0.7,8.102-4.7,9.602-3c1.398,1.7-3.9,6.5-4.802,7.6c-9.8,10.6-20.499,20.3-28.398,32.5
		c-8.2,12.6-13.3,26.9-17.101,41.3c-3.601,13.4-5.699,27.1-6.8,40.8c-1.2,13.7,2.101,27.2,7,42.7c-8.399-0.3-9.101,10.9-8.5,16.8
		c1.199,14.7,18,5,24.199,17.5c6.101,12.6-8.601,3.6-3.899,17.9c4.7,14.3,7.7,10.9,24.801,18.6c17.1,7.7,16,18.2,20.898,31.4
		c4.9,13.2-3.5,15.6,10,31c13.5,15.5,25.102-11.3,30.4-14.3c5.1-3,13.7-4.8,20-0.4c20.8,16.4,40.8,38.6,62,48.9
		c34.2,17.1,56.8,26.8,78.2,40c-14.4-2.5-28.4-0.8-10.802,14.4c22.602,19.3,52.7,38.3,38.102,40.6c-14.602,2.1-23.9-12.9-26.7,2.7
		c-2.8,15.6,22.7,22,10.7,30.4c-12,8.5-27.4,15.1-0.9,23.6c14.3,3.102,15.4,8,21.9,17c6.5,8.9,10.7,25.8,25.898,24.7
		c15.102-1,26.302,16.2,37.7,6c11.4-10.2-10.6-18-2.5-26.1c8.2-8.102,25.602-9.302,8.7-22.102s-30.6-5.5-22.7-22.5
		c2.8-6.1,3.102-13,5.602-19.1c0,0.2,3.198,2.8,3.5,3.1c1.198,1.1,2.5,2.2,3.6,3.3c2.4,2.1,4.6,4.4,6.7,6.7
		c5.6,5.9,10.398,12.4,14.6,19.3c3.8,6.1,6.9,12.5,9.602,19.2c2.698,6.7,5.198,13.4,7,20.5c1.5,6.3,2.3,12.9,1,19.2
		c-0.602,2.8-1.602,5.4-2.7,8c-1.5,3.1-10.8,17.4-11.5,18.5c-0.102,0-0.2,0.5-0.2,0.5c8.5-3.9,18.3-14.3,21-23.5
		C759,359.6,759.4,354.4,759.4,354.3z"/>
	<path fill="#2B2B2B" d="M493.9,194.1c9.1,2.5,3.398,11.4,6.3,19.3c2.7,7.8,2.8,18.4,2.1,24.7c-0.8,6.1,3.5,15.3,14.3,10.4
		c10.802-4.9,9.7-9.3,18.2-5.5c8.602,3.7,7.2,20.7,22.5,16.3c15.5-4.5,4.2-14.9,13-14.1c9.102,0.8,28.602,7.6,26.5,3.4
		c-2.2-4-3.7-14.7,2.4-16.7c6.2-2.1,9.2-13-1.2-20.1c-10.5-7.1-23.1-8.5-26.5-18.6c-3.2-10-22.2-17.6-30.4-20.7
		c-8.398-3.3-11.398-13.3-27.3-18.1c-15.8-4.6-34.398-6.8-32.898,0.5c1.5,7.3,19.5,17.8,14.398,24.3
		C489.9,185.7,485.9,191.9,493.9,194.1z"/>
	<path fill="#2B2B2B" d="M375.2,84.2c-1.602-0.5-3-1-4.4-1.7c-4.1-2-8.3-4.3-12.1-6.9c-7.7-5.1-14.102-11.8-18.5-19.8
		c-11.6-21.1-11-47.9-10.6-71.2c0.399-25.2,1.801-50.3,3-75.5c0-1.2-0.301-13.7,0.899-14.1c0.601-0.2,1.399,8.1,1.5,8.9
		c2.601,23.5,5.101,47,7.7,70.6c0.6,5.3,2.3,11.6,0.699,16.7c-1.399,4.4-4.5,8.4-4.5,13.2c0.101,7.8,5.801,17.2,6.199,24.9
		c0.5,8.8,1.7,17.6,8.9,23.7c7,5.9,16.1,8.4,23.3,14.1c6.8,5.6,12.3,12.8,17,20.2c11.2,17.4,16.602,39.1,34.102,51.7
		c12.3,8.8,24.198,0.6,35.8,10.4c13,11,20.1,40.3,19.2,56.3c-0.2,3.9-0.302,13.9-4.302,16.4c-3.8,2.2-7-3.6-8.6-6.2
		c-4.4-7-8.8-14.7-12.2-22.3c-3-6.9-0.8-13.9-1.3-21.1c-0.7-9.1-8.2-8.8-15.5-8.8c-5.6,0-10.1-3.4-14.9-6
		c-5.8-3.1-11.898-5.7-18.198-8.2c-3.4-1.3-7-1.3-8.9-4.9c-3-5.5-5.3-12.3-7.101-18.4c-1.399-5.2-0.199-8.9,0-13.9
		c0.301-6.3-3-12.8-5.699-18.3c-1.9-3.9-2.9-6.3-6.801-8.2C378.399,85.2,376.8,84.7,375.2,84.2z"/>
	<path fill="#2B2B2B" d="M574.8,376.9c-25.2,7.1-46.3,24.6-71.898,28.8C475.3,410,445.6,400.2,431.3,382.9
		c-4-4.9-8.8-16.602-3.1-23.9c13.398-17.4,39.898-27.8,58.5-15.6c12.2,8.5-5.8,3.398-13.7,5.198c-8.7,1.9-9.3,12.302-17.3,14.302
		c-5.9,1.398-17.4,2.6-5.4,15.698C455.9,384.9,464.4,389.2,473.6,392.4c16,5.5,21.302,9.398,38,4.398c14.802-5.6,29.7-11,44.4-16.6
		C562,379,568.3,378,574.8,376.9z"/>
	<path fill="#FF9729" d="M649.3,194.2c-7.8-8.4-16.1-16.8-21.6-26.9c-2.5-4.7-2.102-11-4.5-16.3c-3-7-8.7-13.1-10.5-19.7
		c-2-7.8-0.4-13.8-5-20.7c-4.8-7.1-12.8-17.6-23.102-13.4c-5.6,2.2-8.8,4.9-9.898,11.3c-0.9,5-1.8,11.7-1.3,16.3
		c1.198,11.1,11.398,12.4,8.398,21.6c-3.7,11.6-19-15.3-20.1-18.2c-3.7-10.6-5.8-25.1,3-34c10.6-10.7,29.2-7.6,40,1.1
		c13.898,11.3,16.8,30.6,21.3,46.9C630.9,161,638.9,177.6,649.3,194.2z"/>
	<path fill="#2B2B2B" d="M722.8,395.8c0.102,0,0.102-0.1,0.2-0.2c2.2-2.698,5.6-3.898,8.5-5.6c1.4-0.8,5-2.6,5.7-4.4
		c-0.8,0.302-3.9,1.4-4.4,1.602c-1.7,0.6-3.3,1.1-5.1,1.6c-3.8,1-7.7,1.7-11.5,2.5c-5,1.102-9.9,1.8-15,0.9
		c-6.3-1.2-12.3-3.7-18.8-4.102c-10.102-0.698-17.102,2-30.9-1c-4.7-1.1-21.5-11.8-26.8-13.198c-3.3-0.9-7.4-0.5-10.8-0.602
		c-4.9-0.1-9.7-0.8-14.302-2.898c-2.698-1.302-5.198-3-7.698-4.7c-2.602-1.7-5.102-3.602-7.2-5.9c-3.7-3.898-8.4-10.5-6.4-16.1
		c1.102-3.2,4.3-4.8,7.102-6.4c3.398-2.1,6.698-4.2,9.698-6.7c-0.698,0.602-2.398,0.802-3.198,1c-1.2,0.4-2.4,0.7-3.602,1.102
		c-2.5,0.7-5,1.398-7.3,2.5c-3.7,1.8-6.9,4.5-9,8c-4.9,8.1-3.4,18.7,2.7,25.8c1.8,2.1,4,3.9,6.3,5.4c5.1,3.398,10.3,5.6,16.1,7.198
		c5.802,1.7,11.802,2.802,17.7,4c3.2,0.7,6.5,1.4,9.7,2.302c13.5,3.698,26.8,7.698,40.6,9.398c16.802,2.2,32.102,3.5,48.9,0
		c0.6,8.3-11.8,9.7-17.4,10.7c6.102,2.2,15-0.8,20-4.3C719.5,401.8,720.7,398.4,722.8,395.8z"/>
	<path fill="#2B2B2B" d="M498.2,322.3c-10.7-8.8-19.602-9.6-30.8-17.2c-7.7-5.2-17.802-17.8-23.7-22.4c-3.8-3-7.7-5.9-11.7-8.9
		c4.9-0.4,8.6-3.7,6.3-11.7c-3.6-13.5-12.5-4.3-13.2-20.4c-0.698-16.1,1.7-14.7,6.9-12.8c5.3,1.9,6.7,4.9,11.4-4.7
		c4.6-9.6,7.8-16.4-2.7-18.9s-25.8,0.7-25.8-10.4c0-10.9-8-18.4,3.398-23.4c-9.6-2.4-18-8.2-23.5-16.5
		c-2.8-4.2-5.899-15.4-13.3-12.6c-7.1,2.6-4.2,14.1-2.5,19.2c1.1,3.4,2.4,6.8,3.9,10.1c2.398,5.1,0.799,5.3-3.801,7.5
		c-3.101,1.4-8.101,4.3-11.601,2.5c-4.101-2-3.2-8.1-2.5-11.7c1.8-8.1,6.2-15.6-1-22.6c-3.899-3.8-7.5-8-13.3-6.5
		c-6.301,1.6-11.9,3.6-15.102-3.6c-4.699-10.6,7.602-21-3-30.6c-6.1-5.6-9.398-9.9-11.5-18.1c-4-15.1-2.5-30.9-5-46.4
		c-2.1-12.7-8.3-25-8.5-38.1c-0.199-16,4.5-30.4,9.102-45.5c3.398-11.1,3.8-22.4,4.3-33.9c0.3-6.7,0.399-13.6,2.2-20.1
		c10.1-37,25.699-72.7,39.3-108.5c3.7-9.8,7.5-19.9,11.8-29.4c1.102-2.5,4.9-13.6,8.301-14.3c5.899-1.1-2.4,27.9-3.199,30.7
		c-3.801,12.3-8.602,24.3-12.801,36.4c-2.4,6.9-4.699,13.9-6.601,20.9c-5.899,22.7-5.601,46-2.101,69.1c1.5-13,3-26.1,6.101-38.9
		c7.7-31.8,20-62.7,29.399-94.1c2.5-8.4,12.399-50.1-4.101-51.6c-7.101-0.6-12.8,10.1-15.2,15.1c-3.699,7.6-6.199,15.6-9.3,23.5
		c-10.2,26.5-20.8,52.9-30.2,79.7c-5.699,15.9-11,32.1-15.699,48.5c-12.399,43-21.601,87.1-19.301,132c2,48,12.801,94.5,32.5,138.6
		c5.6,12.3,11.6,24.4,18.2,36.3c8,14.5,17.2,28.3,27.601,41.1C411.8,281.8,452.6,316.9,502.1,339.5c11.802,5.4,23.802,9.1,36,13.3
		C524.3,348.6,513.5,334.3,498.2,322.3z"/>
	<path fill="#FF9729" d="M584.7,314.4c-15.2-6.7-18.4-14.4-19.4-24.9c-0.398-4.4,8.3-10.5,2.8-15.2c-10.1-8.8-26.5-5.8-37.3-15.8
		c-10-9.2-25.398,9.4-35.1,0.2c-7.102-6.7-7.5-12.3-18-15.3c-18.2-5.3-13.8,15.4-5.8,23.3c6.5,6.5,9.3,6.5,6.6,15.3
		c-2.1,6.7-8.5,4.9-12.4,8.1c6.302,5.7,11.602,13.9,21.302,14.2c16.6,0.5,20.198-10.5,35.1,2.7c5.7,5,7.2,12,9,19
		c1.4,5.3,3.1,13.3,9.2,15.4c3,1,7-0.7,9.7-1.9c5.698-2.5,6.6-10.2,12-12.3c5-2,12.898,2.2,18,2.7
		C588.8,330.8,599.5,319.7,584.7,314.4z"/>
	<path fill="#2B2B2B" d="M335.8,179.2c-21.898-15.1-47.3-25.7-61.199-52.8s32.5-8.7,40.301-0.5c-1-1-16.2-4.3-18.5-4.6
		c-6.602-0.6-7.801,0.7-5.5,8.8C297,151.2,321.8,164,335.8,179.2z"/>
	<path fill="#FF9729" d="M438.8,68.3c-2.8-19.1-1-39.4-15.7-55.9C408.3-4,404.4,33,407.4,40.4c0.8-4.9,2.8-9.3,3.398-14.1
		c0.5-3.9,1.7-5.9,5.602-3.7C432.3,31.6,432.2,53,438.8,68.3z"/>
</g>
</svg>
