<?xml version="1.0" encoding="utf-8"?>
<!-- Generator: Adobe Illustrator 15.0.0, SVG Export Plug-In . SVG Version: 6.00 Build 0)  -->
<!DOCTYPE svg PUBLIC "-//W3C//DTD SVG 1.1//EN" "http://www.w3.org/Graphics/SVG/1.1/DTD/svg11.dtd">
<svg version="1.1" id="Layer_1" xmlns="http://www.w3.org/2000/svg" xmlns:xlink="http://www.w3.org/1999/xlink" x="0px" y="0px"
	 width="488.016px" height="683.875px" viewBox="0 0 488.016 683.875" enable-background="new 0 0 488.016 683.875"
	 xml:space="preserve">
<g>
	<path fill="#1C1C1C" d="M370.581,631.423c2.5-2.896,8.9-2.396,14.803,0.9c5.896,3.398,8.896,8.5,6.5,11.398
		c-2.303,2.9-9,2.5-15-0.801C370.883,639.623,368.18,634.423,370.581,631.423z"/>
	<g>
		<path fill="#2B2B2B" d="M394.481,649.824c2-3.602,3.1-5.699,0.1-9c-7.697-8.699-19.1-9.9-29.6-12c0,0,0.5,2.201,0.5,2.301
			c1.4,5.699,5.299,11.199,5.299,11.199c-3.199-1.799-3.896-1.5-6.299-4.5c-3-3.799-10-14.799-0.701-15.699
			c12.801-1,23.604,3.699,31.301,14.6C398.981,642.025,398.581,645.324,394.481,649.824z"/>
	</g>
	<path fill="#FF9729" d="M487.381,629.423c0-2.799-0.303-5.896-0.803-8.6c-0.6-2.9-1.301-5.603-1.801-8.5
		c-0.396-1.9-0.799-2.8,0.104-4.603c0.799-1.6,1.799-3.1,2.5-4.6c1.299-2.8,0.299-6.5-0.303-9.3c-0.898-3.5-2.6-6.8-4.697-9.8
		c-0.701-0.9-1.4-1.9-2.303-2.7c-0.5-0.4-1.697-0.7-2-1.1c2.199,2.899,3.699,6.3,4.4,9.899c0.699,3.4,0,6.4-1.4,9.4
		c-1.301-4.803-3.398-9.5-5.197-14.2c-1.803-4.8-4.201-9.3-6.604-13.9c-1.799-3.199-3.6-6.3-5.6-9.399
		c-7.5-11.8-16.299-22.601-26-32.7c-10.102-10.4-21-20.1-31.799-29.8c-22.9-20.3-51.303-48.5-94.701-69.601
		c-32.4-15.6-75.102-36-112-59.3c-23.699-14.899-46.699-32-65.199-53.2c-2.9-3.3-13.4-14.4-22.4-28.2
		c-25.297-39.098-24.598-87.898-4.297-128.898c5.199-10.4,11.8-21.1,19.498-29.9c5.301-6.1,11.701-11.2,18-16.4
		c5-4.1,11.9-8.9,12.201-16c0.299-6.3-9.301-6.2-13.701-6c-5,0.4-13.699,2.6-21.799,7.9c-8.102,5.3-19.801,14.1-25.5,21.8
		c-2.399,3.3,0.699,5.9-3,8c12.101-9.5,24.398-19.3,38.299-26.3c1.301-0.7,8.104-4.7,9.604-3c1.396,1.7-3.9,6.5-4.803,7.6
		c-9.801,10.6-20.499,20.3-28.398,32.5c-8.199,12.6-13.3,26.9-17.101,41.3c-3.601,13.4-5.699,27.1-6.8,40.8
		c-1.2,13.7,2.101,27.2,7,42.7c-8.399-0.3-9.102,10.9-8.5,16.8c1.199,14.7,18,5,24.199,17.5c6.101,12.6-8.602,3.6-3.899,17.9
		c4.7,14.3,7.7,10.9,24.802,18.6c17.1,7.7,16,18.2,20.896,31.4c4.9,13.2-3.5,15.6,10,31c13.5,15.5,25.104-11.3,30.4-14.3
		c5.1-3,13.701-4.801,20-0.4c20.801,16.4,40.801,38.6,62,48.9c34.201,17.1,56.801,26.8,78.201,40
		c-14.4-2.5-28.4-0.801-10.803,14.399c22.602,19.3,52.699,38.3,38.102,40.601c-14.602,2.1-23.9-12.9-26.699,2.699
		c-2.801,15.601,22.699,22,10.699,30.4c-12,8.5-27.4,15.1-0.9,23.6c14.301,3.103,15.4,8,21.9,17
		c6.5,8.9,10.701,25.801,25.898,24.701c15.102-1,26.303,16.199,37.699,6c11.4-10.201-10.6-18.001-2.5-26.101
		c8.201-8.103,25.604-9.303,8.701-22.103s-30.6-5.5-22.701-22.5c2.801-6.1,3.104-13,5.604-19.1c0,0.2,3.197,2.8,3.5,3.1
		c1.197,1.101,2.5,2.2,3.6,3.301c2.4,2.1,4.6,4.399,6.699,6.699c5.6,5.9,10.398,12.4,14.6,19.301c3.801,6.1,6.9,12.499,9.604,19.199
		c2.697,6.7,5.197,13.4,7,20.5c1.5,6.301,2.299,12.9,1,19.201c-0.604,2.799-1.604,5.4-2.701,8c-1.5,3.1-10.799,17.4-11.5,18.5
		c-0.102,0-0.199,0.5-0.199,0.5c8.5-3.9,18.299-14.301,21-23.5C486.981,634.724,487.381,629.525,487.381,629.423z"/>
	<path fill="#2B2B2B" d="M221.881,469.224c9.1,2.5,3.396,11.399,6.299,19.3c2.701,7.8,2.801,18.399,2.1,24.7
		c-0.799,6.1,3.5,15.3,14.301,10.399c10.803-4.899,9.699-9.3,18.199-5.5c8.604,3.7,7.201,20.7,22.5,16.3
		c15.5-4.5,4.201-14.899,13-14.1c9.104,0.8,28.604,7.6,26.5,3.4c-2.199-4-3.699-14.7,2.4-16.7c6.201-2.101,9.201-13-1.199-20.101
		c-10.5-7.1-23.1-8.5-26.5-18.6c-3.201-10-22.201-17.6-30.4-20.7c-8.398-3.3-11.398-13.3-27.301-18.1
		c-15.799-4.601-34.396-6.8-32.896,0.5s19.5,17.8,14.396,24.3C217.881,460.824,213.881,467.024,221.881,469.224z"/>
	<path fill="#2B2B2B" d="M103.18,359.324c-1.602-0.5-3-1-4.4-1.7c-4.1-2-8.299-4.3-12.1-6.899
		c-7.699-5.101-14.102-11.801-18.5-19.801c-11.6-21.1-11-47.9-10.6-71.2c0.398-25.2,1.801-50.3,3-75.5c0-1.2-0.301-13.7,0.898-14.1
		c0.602-0.2,1.399,8.1,1.5,8.9c2.602,23.5,5.102,47,7.701,70.6c0.6,5.3,2.299,11.6,0.698,16.7c-1.399,4.4-4.5,8.4-4.5,13.2
		c0.101,7.8,5.802,17.2,6.199,24.9c0.5,8.8,1.7,17.6,8.899,23.7c7,5.9,16.101,8.4,23.301,14.1c6.8,5.6,12.3,12.8,17,20.2
		c11.199,17.4,16.602,39.101,34.102,51.7c12.301,8.8,24.197,0.601,35.801,10.4c13,11,20.1,40.3,19.199,56.3
		c-0.199,3.9-0.303,13.9-4.303,16.4c-3.799,2.199-7-3.601-8.6-6.2c-4.4-7-8.799-14.7-12.199-22.3c-3-6.9-0.801-13.9-1.301-21.101
		c-0.699-9.1-8.199-8.8-15.5-8.8c-5.6,0-10.1-3.4-14.9-6c-5.799-3.1-11.896-5.7-18.197-8.2c-3.4-1.3-7-1.3-8.9-4.899
		c-3-5.5-5.299-12.301-7.101-18.4c-1.399-5.2-0.198-8.9,0-13.9c0.302-6.3-3-12.8-5.698-18.3c-1.9-3.899-2.9-6.3-6.802-8.2
		C106.379,360.324,104.78,359.824,103.18,359.324z"/>
	<path fill="#2B2B2B" d="M302.78,652.025c-25.199,7.1-46.299,24.6-71.896,28.799c-27.604,4.301-57.303-5.5-71.604-22.799
		c-4-4.9-8.799-16.604-3.1-23.9c13.398-17.401,39.898-27.801,58.5-15.6c12.201,8.5-5.799,3.396-13.699,5.197
		c-8.701,1.9-9.301,12.303-17.301,14.303c-5.9,1.396-17.4,2.6-5.4,15.697c5.602,6.303,14.102,10.602,23.301,13.803
		c16,5.5,21.303,9.396,38,4.396c14.803-5.6,29.699-11,44.4-16.6C289.981,654.125,296.28,653.125,302.78,652.025z"/>
	<path fill="#FF9729" d="M377.28,469.324c-7.799-8.4-16.1-16.8-21.6-26.9c-2.5-4.699-2.102-11-4.5-16.3c-3-7-8.699-13.1-10.5-19.7
		c-2-7.8-0.4-13.8-5-20.699c-4.799-7.101-12.799-17.601-23.102-13.4c-5.6,2.2-8.801,4.9-9.898,11.3c-0.9,5-1.799,11.7-1.299,16.3
		c1.197,11.101,11.396,12.4,8.396,21.601c-3.699,11.6-19-15.3-20.1-18.2c-3.699-10.6-5.799-25.1,3-34c10.6-10.7,29.201-7.6,40,1.1
		c13.898,11.301,16.801,30.601,21.301,46.9C358.881,436.124,366.881,452.724,377.28,469.324z"/>
	<path fill="#2B2B2B" d="M450.78,670.923c0.104,0,0.104-0.1,0.201-0.199c2.199-2.697,5.6-3.898,8.5-5.6c1.4-0.801,5-2.6,5.699-4.4
		c-0.799,0.303-3.9,1.4-4.4,1.602c-1.699,0.6-3.299,1.1-5.1,1.6c-3.799,1-7.699,1.701-11.5,2.5c-5,1.104-9.9,1.801-15,0.9
		c-6.299-1.199-12.299-3.699-18.799-4.102c-10.104-0.697-17.104,2-30.9-1c-4.701-1.1-21.5-11.801-26.801-13.197
		c-3.299-0.9-7.4-0.5-10.799-0.604c-4.9-0.1-9.701-0.799-14.303-2.896c-2.697-1.303-5.197-3-7.697-4.701
		c-2.604-1.699-5.104-3.602-7.201-5.9c-3.699-3.896-8.4-10.5-6.4-16.1c1.104-3.2,4.301-4.8,7.104-6.4c3.396-2.1,6.697-4.2,9.697-6.7
		c-0.697,0.603-2.398,0.803-3.197,1c-1.201,0.4-2.4,0.7-3.604,1.103c-2.5,0.7-5,1.397-7.299,2.5c-3.701,1.8-6.9,4.5-9,8
		c-4.9,8.1-3.4,18.701,2.699,25.801c1.801,2.1,4,3.9,6.301,5.4c5.1,3.396,10.299,5.6,16.1,7.197c5.803,1.699,11.803,2.803,17.699,4
		c3.201,0.699,6.5,1.4,9.701,2.303c13.5,3.697,26.799,7.697,40.6,9.396c16.803,2.201,32.102,3.5,48.9,0
		c0.6,8.301-11.801,9.701-17.4,10.701c6.102,2.199,15-0.801,20-4.301C447.481,676.923,448.68,673.525,450.78,670.923z"/>
	<path fill="#2B2B2B" d="M226.18,597.423c-10.699-8.8-19.602-9.6-30.799-17.199c-7.701-5.2-17.803-17.801-23.701-22.4
		c-3.799-3-7.699-5.9-11.699-8.9c4.9-0.399,8.6-3.699,6.299-11.699c-3.6-13.5-12.5-4.301-13.199-20.4
		c-0.697-16.1,1.699-14.7,6.9-12.8c5.299,1.899,6.699,4.899,11.4-4.7c4.6-9.6,7.799-16.4-2.701-18.9s-25.799,0.7-25.799-10.399
		c0-10.9-8-18.4,3.396-23.4c-9.6-2.399-18-8.2-23.5-16.5c-2.799-4.2-5.898-15.399-13.299-12.6c-7.101,2.6-4.201,14.1-2.5,19.2
		c1.1,3.399,2.399,6.8,3.899,10.1c2.397,5.1,0.799,5.3-3.801,7.5c-3.101,1.4-8.101,4.3-11.601,2.5c-4.102-2-3.201-8.1-2.5-11.7
		c1.799-8.1,6.199-15.6-1-22.6c-3.899-3.8-7.5-8-13.301-6.5c-6.301,1.6-11.9,3.6-15.102-3.601c-4.699-10.6,7.602-21-3-30.6
		c-6.1-5.6-9.398-9.9-11.5-18.1c-4-15.101-2.5-30.9-5-46.4c-2.1-12.7-8.301-25-8.5-38.1c-0.199-16,4.5-30.4,9.102-45.5
		c3.398-11.1,3.801-22.4,4.301-33.9c0.299-6.7,0.398-13.6,2.199-20.1c10.1-37,25.699-72.7,39.301-108.5
		c3.699-9.8,7.5-19.9,11.799-29.4c1.103-2.5,4.9-13.6,8.302-14.3c5.899-1.1-2.4,27.9-3.199,30.7c-3.801,12.3-8.603,24.3-12.801,36.4
		c-2.4,6.9-4.699,13.9-6.601,20.9c-5.899,22.7-5.602,46-2.102,69.1c1.5-13,3-26.1,6.102-38.9c7.699-31.8,20-62.7,29.398-94.1
		c2.5-8.4,12.398-50.1-4.102-51.6c-7.101-0.6-12.799,10.1-15.199,15.1c-3.699,7.6-6.199,15.6-9.301,23.5
		c-10.199,26.5-20.799,52.9-30.199,79.7c-5.699,15.9-11,32.1-15.699,48.5c-12.398,43-21.602,87.1-19.301,132
		c2,48,12.801,94.5,32.5,138.6c5.6,12.301,11.6,24.4,18.199,36.301c8,14.5,17.201,28.3,27.602,41.1
		c33.904,42.1,74.705,77.2,124.205,99.8c11.803,5.401,23.803,9.101,36,13.3C252.28,623.724,241.481,609.423,226.18,597.423z"/>
	<path fill="#FF9729" d="M312.68,589.524c-15.199-6.7-18.4-14.4-19.4-24.9c-0.396-4.399,8.301-10.5,2.801-15.2
		c-10.1-8.8-26.5-5.8-37.301-15.8c-10-9.2-25.396,9.4-35.1,0.2c-7.102-6.7-7.5-12.3-18-15.3c-18.199-5.3-13.799,15.399-5.799,23.3
		c6.5,6.5,9.299,6.5,6.6,15.3c-2.1,6.7-8.5,4.9-12.4,8.101c6.303,5.699,11.602,13.899,21.303,14.199c16.6,0.5,20.197-10.5,35.1,2.7
		c5.699,5,7.199,12,9,19c1.4,5.3,3.1,13.3,9.199,15.4c3,1,7-0.7,9.701-1.9c5.697-2.5,6.6-10.2,12-12.3c5-2,12.896,2.2,18,2.7
		C316.78,605.923,327.481,594.824,312.68,589.524z"/>
	<path fill="#2B2B2B" d="M63.78,454.324c-21.897-15.1-47.299-25.7-61.198-52.8c-13.899-27.101,32.5-8.7,40.301-0.5
		c-1-1-16.2-4.3-18.5-4.601c-6.603-0.6-7.801,0.7-5.5,8.801C24.981,426.324,49.78,439.124,63.78,454.324z"/>
	<path fill="#FF9729" d="M166.78,343.423c-2.799-19.1-1-39.4-15.699-55.9c-14.801-16.4-18.699,20.6-15.699,28
		c0.799-4.9,2.799-9.3,3.396-14.1c0.5-3.9,1.701-5.9,5.604-3.7C160.28,306.724,160.18,328.124,166.78,343.423z"/>
</g>
</svg>
