<?xml version="1.0" encoding="utf-8"?>
<!-- Generator: Adobe Illustrator 15.0.0, SVG Export Plug-In . SVG Version: 6.00 Build 0)  -->
<!DOCTYPE svg PUBLIC "-//W3C//DTD SVG 1.1//EN" "http://www.w3.org/Graphics/SVG/1.1/DTD/svg11.dtd">
<svg version="1.1" id="Layer_1" xmlns="http://www.w3.org/2000/svg" xmlns:xlink="http://www.w3.org/1999/xlink" x="0px" y="0px"
	 width="396.914px" height="482.158px" viewBox="0 0 396.914 482.158" enable-background="new 0 0 396.914 482.158"
	 xml:space="preserve">
<g>
	<path fill="#2B2B2B" d="M198.51,431.83c-4.399,2.397-10,1.799-14.7,2.897c-4.699,1.103-21.3,6.802-25.9,8.103
		c-16.5,4.6-20.6,9.299-37.1,9.199c-27.5-0.199-51.6-9.103-36.8-22.5c14.8-13.4,15.7-23.302,27.9-30.199c12.2-7,29.8,4.897,39.8,2.1
		c-3.3,9.699-14.9,7.5-23.7,7.699c-8.9,0.201-15,6.301-16.9,15c-2,8.701-25.2,8.301-8.3,17c14.8,7.6,34.9,0.801,49.9-2.9
		c7.9-1.897,15.4-5.299,23.3-7.299c3.898-1,7.898-1.701,12-1.6C189.409,429.33,198.01,432.129,198.51,431.83z"/>
	<path fill="#010101" d="M287.209,422.728c3.603-1.696,8.9,1.603,11.699,7.603c2.9,6,2.201,12.201-1.299,13.897
		c-3.602,1.701-8.9-1.6-11.701-7.6C283.01,430.728,283.51,424.429,287.209,422.728z"/>
	<path fill="#FF9729" d="M271.709,392.83c3.199-1.4,1.699-2.201,3.103-4.603c6.1-9.801,39-6.199,34.198-27
		c-3.2-14.199-28.301-5.099-34.602-14.599c-7.199-10.799,16-13.699,5.701-23.898c-3.701-3.601-9.9-1.9-14.102-4.801
		c-7-4.8-6.699-6.1-1.601-10.8c6.8-6.3,12.199-8.399,14.5-18.6c-7.399,0.899-14.5,3.399-20.5-2.5c-6.601-6.4-6.101-17.601-12.5-24.3
		c-5.7-5.9-18.601-10.5-26.5-8.801c-7,1.5-17.301,12.4-15.801,20.4c1.301,7.3,14.101,5.2,13.301,11.6
		c-0.7,7.2-9.101,8.101-6.399,16.801c3,8.8,9.699-0.4,14.899-0.601c0.601,0.2,1.8,3.4,1.8,4.101c0.399,2.899-5.8,10.899-9.3,11.3
		c-3.7,0.399-5.301-3-8.399-4c-2.101-2.601-4.301-7.3-6.398-10.9c-3-5.1-10.4-7.5-10-13.3c0.398-9.9-11.4-9.5-18.301-7.5
		c-7.199,2.1-8.5,2.2-14.2-3.5c-2.1-2.1-6.9-8.5-9.5-9.5c-3-1.2-10.7-0.3-13.7,0.6c-10.2,3-7.9,13.7-19.6,15.7
		c-12.1,2.101-13.4-4.399-11.5-14c1.6-8-1.2-8-7.6-7.6c-8.5,0.5-11.6,5.399-14.1-4.7c-1-4.2-4.2-6.2-8.2-7
		c-5.6,0.2-13.1,0.6-16.8,5.5c-4.7,6.2,2.1,14.8-1.9,20.5c-2.5,3.5-11.1,0.2-13.1,4.8c-4.5,10.8,5.8,26.2,11.2,34.2
		c3.6,5.2,7.5,10.399,11.7,15.1c0,0,0,0,0.1,0.101c3.8,4.1,18.1,16.801,24.2,9.699c3.9-4.699-4.4-14-1.4-19.898
		c4.5-8.9,21.4,11.4,32.8,11.3c12.8-0.101,20.4-19.899,23-17.201c4.2,4.4-6,14.101-7.6,17.8c-4.2,9.699,8.2,10.4,3.5,17.101
		c-11.8-3.4-15.7,4.801-13.3,14.801c5,21.699,22.7,15.399,38.5,15.699c11.301,0.2,14,9.897,25.301,3.301
		c10.699-6.301,15.898-10.899,14.699-23.399c-0.5-5.199-0.699-11.398,3.5-15.199c5.699-4.801,14.199-2.199,13.5,5.897
		c-0.602,6.701-8.602,7.603-2.301,14.802c5.899,6.801,10.602,1.801,9.899,11.698c-0.301,5.4-2.101,10.201,5.101,11.103
		c2.102,0.199,8.301-6.603,14.399-5.4C259.709,384.83,268.01,394.33,271.709,392.83z"/>
	<path fill="#2B2B2B" d="M185.81,5.229l-32.8,4.3c-26.5,7.7-47.4,21.6-66.9,40.6l-30,34.7l-0.1-0.2c6.6-14.5,11.7-29.9,21.9-42.3
		c9.6-11.6,22.1-20.6,35.1-28.2c11.8-6.8,24.8-12.4,38.3-13.9C162.91-0.971,174.31,2.829,185.81,5.229L185.81,5.229z"/>
	<polygon fill="#231F20" points="346.81,477.529 346.81,477.529 347.01,477.529 	"/>
	<g>
		<path fill="#2B2C2B" d="M44.81,122.629c1.6-13.6,14.8-23.2,26.3-29.3c12.1-6.5,25.8-10.9,39.7-9.9c9.4,0.6,18.4,6.4,27.8,5.1
			c1.5-0.2,2.6-2,2.5-3.3c0-20-6.9-39.2,7.5-56.2c4-4.6,8.8-8.5,14.2-11.2c6.2-3,13.2-3.5,20.099-4.6l0.102,1.1
			c-15.801,6.3-30.5,13.3-34.9,31.4c-3.8,15.7,11.6,36.7-0.9,50c-8.6,9.2-22.2,0.5-31.6-1.8
			C90.11,87.329,59.31,101.529,44.81,122.629z"/>
	</g>
	<path fill="#2B2B2B" d="M328.109,369.33c2.1,0.299,4.299,0.897,5.898-0.603c2.602-2.301-0.398-6.5,3.5-8.1
		c2.699-1.102,10.5,1.799,12.301,3.799c4.1,4.602,1.1,10.9-3,13.602c-3,1.898-12.4,6.199-13.602,9.601c-2.101,6.301,12,4.1,14.5,2.6
		c5.399-3.1,8.2-11.999,16.102-7.698c5,2.699,10.301,10.399,0.701,9.502c0.1,4.897,6,4.5,9,6.799c8.5,6.897-6.4,4.801-9.103,7.201
		c-2.801,2.397-3.301,8,0.103,10.1c4.696,2.9,11-4.301,11.6,5.199c0.5,8.301-5.201,8.301-11.1,10.897
		c-3.701,1.603-6.801,10.603-9.801,10.603c-6.699-0.201-7-14.701-14.699-13c-4.4,1-8.5,13.699-14.301,11.5
		c-4.101-1.5,0.301-12.301-1-15.201c-2.601-6.199-9.898-2.199-15.101-3.5c-9.5-2.6-1.601-7.5,1.5-11.299
		c3.198,1.5,12.101,3.299,14.299-0.5c2.899-4.801-6.198-4.5-9.101-4.9c-5.698-0.801-13.6-1.1-18.799-3.397
		c-9.102-3.9,1.101-6.804,5.601-8.9c5-2.1,6.799-4.101,7.199-9.2c0.5-9.898,3.5-13.3,14.5-15.199
		C326.408,369.129,327.31,369.129,328.109,369.33z"/>
	<path fill="#2B2B2B" d="M215.109,377.929c-8.4-3.398-7.9-3.801-3.5-10.801c1.199-1.898,0.299-5,1.6-7.5
		c2-3.699,2.301-5.199,0.199-9c-2.6-4.699-0.699-6.299,2.602-9.299c3.699-3.4-5-9.4-5.801-12.4c-1-3.6,0.9-7.8-1.1-11.199
		c-3.801-6.7-11.601-1.2-16.101-5.2c-1.101-1-0.898-3.3-1.398-4.7c-3.602-8.2-15.602-9.7-23-6.3c-8.4,3.899-4.701,9.2,0,14.5
		c6.299,7.2-8.3,12.6-13.201,14.7c-7.3,3.101-5.8,10.299-2.1,16.398c4.1,7,9.5,12.4,6.4,20.9c-3,8.1-6.5,15.5,0.4,22.801
		c3.2,3.397,6.101,9.199,11.399,9.1c4-0.1,12.201-7.6,15.301-2.897c1.301,1.897,0.1,4.696,0.699,6.799
		c1.899,5.897,10.399,0,14.601,1.701c3.5,1.397,6.699,2.299,10.699,3.1c4.199,0.699,5.898,1.199,8.301-2.4
		C226.408,398.728,225.31,382.028,215.109,377.929z"/>
	<path fill="#2B2B2B" d="M52.21,199.729c-4.4-1.7-9-2.3-11.4,1c-2.5,3.2,1.5,7.2,3.2,10c1.6,2.6,4.2,4.7,2.6,7.2
		c-1.7,2.6-5.3,2.5-7.4,4.7c-5.7,6.1,3.8,23.601,9.1,27.8c4.3,3.4,10.8,4.301,14.7,8.2c3.2,3.3,1.1,6.2,2.2,9.8
		c1.5,4.4,7.2,6.301,11.3,6.301c5.7,0,20.4-8.301,17.4-15.601c-2-4.899-17.6-9.399-15.5-12.399c2.5-3.4,21.6,4.8,23.7,1.199
		c2.7-4.5,5.4-8.8,5.6-12c0.1-2.6-18.8,3.4-21.4,0.9c-5-5,0.1-12.4-4.4-12.4c-5,0-16,9.4-19.6,4.5c-5.4-7.3,10.5-17.5-0.2-23.8
		C60.01,203.529,56.11,201.229,52.21,199.729z"/>
	<g>
		<path fill="#2B2C2B" d="M48.71,127.029c-3.2,22-1.6,41.4,14.6,58.2c5.1,5.3,11.9,8.4,18.2,12c4.7,2.7,9.4,5.5,14.2,8.2
			l62.7,36.801c11.601,7.199,21.9,13.1,29.9,24.199c-8.5-10.5-19-15.699-30.9-22.1l-64.2-33.2c-21.9-12-41.8-26.3-47-52.1
			C43.91,147.729,46.41,138.029,48.71,127.029z"/>
	</g>
	<g>
		<path fill="#2B2C2B" d="M302.609,447.429c2.299-3.1,3.6-4.897,1.199-8.301c-6.5-9-17.5-11.299-27.5-14.4c0,0,0.199,2,0.199,2.103
			c0.602,5.397,5,9.6,8.199,13.701l0,0c-2.898-2-7.898-4.5-9.8-7.603c-2.6-3.801-8.1-14.801,1.199-14.6
			c12.601,0.397,22.601,6.1,28.801,17C307.908,440.629,307.109,443.629,302.609,447.429z"/>
	</g>
	<path fill="#2B2B2B" d="M309.408,290.729c4.602-2,10.5-40.2,3.701-56.201c-6.701-16-21.5-27.8-31.701-15.8
		c-10.199,12-20.1,14.9-24.398,23.8c-4.301,8.899,12.1,16.1,11.6,22.6c9.199-4.399,4.199-10.5,2.199-15.7
		c-1.9-5.199,2.898-10.3,11.301-13.6c8.398-3.3,6.699-18.9,15.398-9.1C306.31,236.529,317.609,264.329,309.408,290.729z"/>
	<path fill="#2B2B2B" d="M396.408,418.33c-0.397-3.5-1.199-6.9-2.1-10.301c-4.299-14.699-12.199-28.603-19.799-41.802
		c-9.9-17.199-24.4-32-38.502-45.898c-7.898-7.8-15.398-16.5-23.898-23.7c-9.701-8.2-21-15.1-31.5-22.399
		c-7.801-5.601-16.201-9.5-24.701-13.9c-17.199-8.9-34.6-17.3-52.199-25.3c-5.199-2.4-10.397-4.7-15.5-7.1c-1-0.5-2.1-1-3.1-1.4
		c-3.801-13.2-11-23.4-25.101-26.2c-5.8-1.2-11.8-1.4-17.7-2.1c-5.7-0.7-12.1-0.8-17.3-3.2c-6-2.7-7.8-8.4-10.4-13.9
		c-2.5-5.1-6-7.2-11.6-7.5c-5.9-0.2-11.8,0.3-17.7,0.4c-5.7,0.1-12.5,0.4-16.5-4.6c-1.9-2.4-3-5.5-4.7-8.1c-2-3-4.6-5.3-7.2-7.7
		c-6.4-5.8-6.9-10.9-4.5-19c-3.3,8.8-3.8,15,2,22.7c2.3,3.1,4.6,6.1,6.3,9.6c1.3,2.8,2,5.9,3.6,8.6c2.9,5.1,9.3,5.8,14.6,6.6
		c6.2,1,11.7,0.3,18-0.3c7.3-0.7,9.9,3.1,13.1,9.1c4.1,7.7,9.4,12.3,18.2,13.8c15.1,2.5,34.9-0.1,46,12.9
		c8.5,10,10.299,24.9,13,37.3c0.301,1.5,0.698,3,1,4.5c-1-4.5-0.398-9.899-0.601-14.6c-0.201-5-0.601-10-1.601-14.9
		c2.398,1.7,17.398,9.9,22,12.7c9.699,5.7,19.3,11.4,29.398,16.5c4.801,2.4,9.4,5.101,14,7.7c2.301,1.3,7.9,4.5,8.602,7.2
		c-23.602,3,7.5,17.3,4.699,17.6c-22.102,3.101,11,9,4.601,9.7c-7.9,1-10,6.5-14,4.6c-4.101-2-10.101,4.101-6.3,7.7
		c1.3,1.2,4.101,1.3,5,2.7c1.199,1.6-4.102,5.9-4.7,7c-2.8,5,3.301,18,8.6,18.5c4.5,0.299,10.103-1.201,14-3.4
		c3.701-2.199,7.603-3.5,11.603-0.398c2.897,2.101,3.301,7.899,8,7c4.5-0.899,8-3.301,12.397-0.399c2.603,1.699,4.603,4.5,7.802,5
		c4.602,0.699,8.399-2.101,10.5-6c1.301-2.301,2.801-9.2,6.399-7.301c8.101,4.301,6.199,17.103,17.199,15.603
		c2.1-0.302,4.5-2.4,5-3.603c5.301,5.2,9.7,10.603,14.1,16.603c8.9,12.1,16.4,27.198,21.603,41.397
		c3.897,10.701,6.897,22.6,2.897,33.801c-3.699,10.5-13.1,17.9-23.199,22c-23.698,9.799-50.999,10.4-75.999,6.4
		c-7.199-1.201-14.398-2.701-21.5-4.5c-13.398-3.5-27-10.201-27.699-25.804c-0.301-6.1-0.603-12.696,2.301-18.196
		c3.1-6,7.5-11.304,12.699-15.701c-15.199,5.301-24.801,17.801-22,34.5c0.801,5,3.6,9.897,4.199,14.801
		c-5.398-1.201-30-25.6-36.199-21.1c4.801,4.897,10.897,9.196,16.301,13.397c12.299,9.799,26,16.9,41,21.699
		c17.699,5.701,36.199,8.4,54.898,8.701c6.102,0.1,23.399,0.397,25.602-0.701c-2.201,1.1-3.801,2.201-6.4,2.9
		c-2.599,0.698-5.398,1.198-7.6,3c8.898,2.397,17-2.603,25-5.802c14.397-5.698,28.199-8.301,37.799-21.801
		C395.908,443.728,398.011,430.83,396.408,418.33z"/>
	<path fill="#2B2B2B" d="M117.91,373.528c-25.1-21.602-46.7-47.698-63.1-76.399c-9-15.5-15.7-33.399-21.6-50.3
		c-10.8-30.9-15.4-63.6-10-96.1c2.6-15.8,7.5-31.1,13.9-45.7c1.7-3.9,19.6-42.9,22.1-42.2l-0.5-0.1c-11.6,15.9-24.6,31.4-33.7,48.8
		c-15.2,28.7-19.1,62.3-15.1,94.4c4.9,39.2,19.4,78.601,41.9,111.801c-0.1,0-13.1-4.9-19.8-6.7c-11.4-2.9-21.7-7.8-24.1-10.2
		c-5.8-5.9,3.8-3.9,6.2-8.8c2.4-4.9,5.7-7.5,8.9-6c3.2,1.5,6.8,4.899,9.9-0.4c-4.1-0.1-8.1-10.5-13.7-8.399
		c-5.7,2-7.9,7.8-15.7,13.3c-7.8,5.5-1.6,16.6,8.8,20.2c4,1.399,9.3,4,15.8,5c10,1.6,20.3,4.399,26.6,6
		c6,8.5,12.6,16.601,19.6,24.101c23.1,24.6,54.7,38.5,83.7,55.6L117.91,373.528z"/>
</g>
</svg>
