<?xml version="1.0" encoding="utf-8"?>
<!-- Generator: Adobe Illustrator 15.0.0, SVG Export Plug-In . SVG Version: 6.00 Build 0)  -->
<!DOCTYPE svg PUBLIC "-//W3C//DTD SVG 1.1//EN" "http://www.w3.org/Graphics/SVG/1.1/DTD/svg11.dtd">
<svg version="1.1" id="Layer_1" xmlns="http://www.w3.org/2000/svg" xmlns:xlink="http://www.w3.org/1999/xlink" x="0px" y="0px"
	 width="722.012px" height="499.542px" viewBox="-316.111 -188.443 722.012 499.542"
	 enable-background="new -316.111 -188.443 722.012 499.542" xml:space="preserve">
<path fill="#2B2B2B" d="M173.5,65.5c-20-13.1-11.3-40.6-39.8-47.3c-28.4-6.7-32-7.4-44.3-25.8C77.1-26,60.2-49.4,34-57
	C7.7-64.6-4.9-60.8-32.6-73.2C-60.3-85.5-77.5-85-77.5-85s31.8,8.9,50.9,22.4C-7.6-48.9,9.7-52.3,28.9-47
	c19.2,5.2,26.6,7.4,34.8,24.3c8.1,16.8,17,32.3,31,42.6c14,10.2,23.4,4,34.3,8.1c10.8,4.1,14,24.6,20.8,32.1
	C156.6,67.5,171.3,66.4,173.5,65.5z"/>
<path fill="#D92425" d="M106-17c7.8,12.2,16.6,13.5,27.9,15.8c11.3,2.3,21.2,10.6,29,23.9c7.8,13.2,20,10.3,26.8,22.6
	c6.8,12.3,23.1,15.4,18.2-2.2c-4.9-17.5-13.4-24.2-11.4-35.2s-2.9-20.5-14.1-17.6c-11.2,2.9-22.6,4.4-24-7.3s-7-23.6-16.7-17.7
	c-9.7,5.9-22,17.5-32.7-2.4C98.2-57,78.4-65,69.5-60.4c-8.8,4.5-5.7,5.8,7.2,12.1C89.6-42,96.7-40,106-17z"/>
<path fill="#2B2B2B" d="M340.9,73.8c4.7-9.1,26.1-37.2,27.9-72.4c1.7-35.2-7.1-66.6-24.2-48.8c-17.1,17.8-28.9,18.1-38.1,33
	c-9.2,15,3.7,38.5-0.4,50.9C318,33,316.1,18.2,317,6.9c0.8-11.3,8.6-18.6,19.1-20.4s17.2-33.3,20.9-9.1
	C360.6,1.5,363.7,26.6,340.9,73.8z"/>
<path fill="#D92425" d="M303.5,259.7c0.1,1.7,1,3.2,2.9,4.7c4.3,3.4,10.3,1.2,15,0c2.7-0.7,5.4-2,8.2-1.9c8.3,0.3,3.7,10,1.6,14.6
	c-6.1,13.4,15.4,6.101,31.4-2.199c31.4-16.4,2.1-30.7-14.6-34.5c-16.7-3.9-16.1-15.6-11.6-24.6s-0.1-44.8-13.5-34.2
	c-13.3,10.6-8.6,28.8-21.5,23.4c-12.9-5.3-8.1-19.7-23.8-19.8c-15.8,0-5.8,16.4-14.2,14.9s-17.7-32.5-32.7-28.2
	c-15,4.4-11.8,26.6,12.6,40.4c24.3,13.8,41,9.6,36,21.7c-2,4.8-7.2,8-10.4,11.8c-7.4,9,12.2,8.6,16.4,7.2c7.6-2.5,18.7-23.1,28-16.1
	C322.3,243.9,303.1,253.5,303.5,259.7z"/>
<path fill="#2B2B2B" d="M185.2,215.1c-10.5,3.7-43.8,22.4-82.1,19.3c-38.3-3.1-71-16.8-49.5-32.4s23.5-28,40.9-35.7
	c17.5-7.7,41.1,9.3,55.2,6.7c-5.4,12.1-21.2,8-33.6,7.4c-12.3-0.7-21.3,6.5-24.6,17.4c-3.3,10.8-38.3,13.6-12.7,20.8
	C104.3,225.8,131,232.6,185.2,215.1z"/>
<path fill="#2B2B2B" d="M-272.1-147.3c40.5,37.7,97.8,62.2,189.7,97C35.4-5.6,78.8,88.4,147.3,163.1c22.6,24.7,54.8,65.2,90.7,96.2
	c7.2,6.2,14.7,12.3,22.7,17.601c4.6,3,9.3,5.899,14.1,8.5c4.5,2.399,9.1,4.8,13.7,6.899c13,6,27.1,11,41.4,13.7
	c-0.7,0.4-1.4,0.8-2,1.3c-0.8,0.601-1.5,1.3-2.2,2c-0.2,0.2-1.1,1.8-1.3,1.8c2.8-0.6,5.7-1,8.1-2.3c0.9-0.5,1.9-0.899,3-1.2
	c0.5-0.1,0.9-0.3,1.2-0.5c1.7,0.2,3.4,0.5,5.1,0.601c6,0.5,12.6-0.101,18.5-1.101c22.601-4.199,36.8-23,39-45
	c1.7-1.4,3.2-2.9,4.4-4.7c0.6-0.9,1.1-1.8,1.5-2.7c0.1-0.3,0.5-2.1,0.7-2.2c-2.101,1.3-4.4,2.6-6.301,4.3
	c0.101-10-0.899-20-2.699-29.8c-6.5-34.5-20-68.8-35.601-100.2c-7.8-15.7-16.8-30.8-26.6-45.4c-11-16.5-23.2-32.2-36.2-47.2
	C221.3-54.9,99.6-99.2,6.7-105.6c-92.9-6.4-188.8,1-234.3-36.4c-45.4-37.4-74.6-43-84.8-45.8C-322.6-190.7-312.6-184.9-272.1-147.3z
	 M-176.8-106.4c39.7,10.3,135.4,3.7,225.3,19.1C115.4-75.9,174-49.7,230.8-9.1c-3.1,0-6.4,0.2-9.9,0.7c-18.8,2.9,1,22.4,8.4,60.6
	c7.4,38.2,21.2-0.3,33.9,24.6c12.8,25-3.1,19.7-11.5,47c-8.4,27.2,13.7,14.9,27.4,37.6c13.6,22.6,22.1,15.4,34.4-2.3
	c12.2-17.7,18.5-10.3,29.3,17.5c10.7,27.7,20.7,14.6,29.7,5.3c0.7,1.5,1.6,3.8,2.6,6.2c-4.3,0.2-5.5,9.5-2.5,18.8
	c2.4,7.3,9.2,14.3,13.7,16.6c1.2,5.3,2.101,10.7,2.8,16.1c1.7,13.8,0.5,29.1-6.199,41.6c-3.7,7-9.5,12.2-16.9,15
	c-12.7,4.899-25.8,4.899-38.9,1.899c-4.8-1.1-27.2-8.5-27.4-9.3c-1.1-4.7-6.8-13.2-13.7-17.2c-8.7-5-18.5-5.6-19.1-1.1
	c-8.9-6.2-17.6-13.3-25.8-21.5c-8.5-8.5-15.9-15.3-23-21.8c8.7-7,5.3-20.8-8.5-32.1c-15.8-12.9-26.5-41.8-15.3-42.8
	c11.2-1,28.9,0,33.4-19s-5.9-35.2-23.4-37.7s-23.8,16-38.8,5.5S154.3,87.2,147.6,74c-6.8-13.2-18.6-42.7-27.9-31.7
	c-9.3,11,0.3,31.8-11,22.5c-11.3-9.2-7.6-31.6-22.5-36.1c-10.5-3.2-13.5,10.8-11.8,22.9C3.4-34.8-53.2-50.8-82.2-62
	C-114.9-74.6-141.1-85.8-176.8-106.4z"/>
</svg>
