<?xml version="1.0" encoding="utf-8"?>
<!-- Generator: Adobe Illustrator 15.0.0, SVG Export Plug-In . SVG Version: 6.00 Build 0)  -->
<!DOCTYPE svg PUBLIC "-//W3C//DTD SVG 1.1//EN" "http://www.w3.org/Graphics/SVG/1.1/DTD/svg11.dtd">
<svg version="1.1" id="Layer_1" xmlns="http://www.w3.org/2000/svg" xmlns:xlink="http://www.w3.org/1999/xlink" x="0px" y="0px"
	 width="750.277px" height="392.085px" viewBox="0 0 750.277 392.085" enable-background="new 0 0 750.277 392.085"
	 xml:space="preserve">
<g>
	<path fill="#1C1C1C" d="M679.947,122.287c-1.9-3.3,0.699-9.2,5.8-13.6c5.199-4.4,11-5.5,12.899-2.3c2,3.1-0.7,9.3-5.8,13.9
		C687.747,124.687,681.947,125.487,679.947,122.287z"/>
	<g>
		<path fill="#2B2B2B" d="M705.347,105.887c-2.7-3.1-4.3-4.8-8.4-3.1c-10.8,4.3-15.699,14.7-21.199,23.9c0,0,2.2,0.3,2.3,0.3
			c5.8,0.6,12.3-1.3,12.3-1.3c-2.8,2.4-2.7,3.2-6.3,4.4c-4.6,1.6-17.3,4.5-15-4.6c3.3-12.4,11.4-21,24.2-24.6
			C699.446,99.087,702.446,100.587,705.347,105.887z"/>
	</g>
	<path fill="#D92425" d="M717.247,11.587c-2.602-0.9-5.7-1.7-8.4-2.1c-2.9-0.4-5.7-0.7-8.6-1.1c-1.9-0.3-2.9-0.2-4.301-1.6
		c-1.199-1.3-2.3-2.7-3.5-3.9c-2.199-2.2-5.999-2.5-8.899-2.8c-3.6-0.3-7.3,0.2-10.8,1.1c-1.101,0.3-2.3,0.7-3.3,1.3
		c-0.5,0.3-1.2,1.4-1.7,1.5c3.5-1.1,7.2-1.4,10.8-0.8c3.4,0.5,6,2.1,8.4,4.5c-5-0.4-10.101,0-15.101,0.1c-5.1,0.1-10.2,0.8-15.3,1.6
		c-3.6,0.6-7.2,1.3-10.7,2.1c-13.6,3.1-26.8,7.8-39.5,13.5c-13.2,6-26,13-38.7,20c-26.8,14.8-62.899,32.1-97.3,65.9
		c-25.6,25.3-59.1,58.7-93.399,85.6c-22,17.3-45.8,33.3-72,43.6c-4.1,1.601-18.1,7.8-34.1,11.601
		c-45.3,10.699-91.1-6.301-122.9-39.2c-8.1-8.4-15.9-18.2-21.6-28.4c-4-7.1-6.6-14.8-9.4-22.5c-2.2-6.1-4.4-14.2-11-16.9
		c-5.8-2.4-9,6.7-10.2,10.9c-1.3,4.8-2.1,13.8,0.1,23.2c2.3,9.4,6.6,23.4,12,31.299c2.3,3.4,5.8,1.3,6.5,5.5
		c-4.9-14.6-10-29.5-11.9-44.899c-0.2-1.4-1.7-9.2,0.4-10c2.1-0.7,4.8,5.9,5.5,7.1c6.7,12.8,12.3,26.1,21.1,37.7
		c9.1,11.899,20.9,21.6,33.2,30c11.4,7.899,23.6,14.399,36.1,20.1s26.3,7.101,42.6,7.7c-3.1,7.8,7.2,12.2,13,13.7
		c14.3,3.8,10.7-15.3,24.6-16.9c13.9-1.5,0.5,9.3,15.5,9.7s12.9-3.6,25.8-17.1c13-13.5,22.5-9,36.6-9.2s13.5,8.5,32.6,1
		c19.1-7.5-2.2-27.4-3.301-33.4c-1.1-5.8,0.101-14.5,6.301-19c22.399-14.1,50-25.5,66.899-42c27.601-26.5,44.3-44.5,63.9-60.3
		c-7.2,12.7-10.3,26.5,9.899,15c25.801-14.8,53.801-36.8,51-22.3c-2.899,14.5-20.199,18.2-6.399,26.1s28.3-14,32.2,0.1
		c4,14.2,5,30.9,21.899,8.8c7.7-12.4,12.7-11.8,23.4-14.9c10.6-3.1,27.899-1.4,31.899-16.1c4.101-14.6,24.102-19.3,18.3-33.5
		c-5.8-14.2-20.499,4-25.398-6.4c-4.9-10.4-0.2-27.2-17.9-15.6c-17.699,11.6-15.399,27-28.8,13.8c-4.8-4.7-11.2-7.3-16.1-11.7
		c0.2,0.1,3.7-2.1,4.1-2.3c1.4-0.8,2.9-1.6,4.3-2.3c2.801-1.5,5.7-2.9,8.601-4.1c7.399-3.3,15.2-5.6,23.1-7.3
		c7-1.5,14.101-2.3,21.3-2.6c7.2-0.3,14.4-0.4,21.6,0.3c6.4,0.7,12.9,2.1,18.4,5.5c2.4,1.5,4.602,3.3,6.602,5.2
		c2.398,2.4,12.8,16,13.6,17c0,0.1,0.4,0.4,0.4,0.4c-0.803-9.3-7.303-22-15.103-27.7C722.146,13.687,717.347,11.587,717.247,11.587z
		"/>
	<path fill="#2B2B2B" d="M477.247,207.987c5.399-7.7,11.899,0.6,20.3,0.5c8.2,0.1,18.3,3.5,24,6.3c5.5,2.8,15.6,1.8,14.6-10
		s-5.5-12.3,0.9-19c6.4-6.8,21.9,0.2,22.9-15.7c1-16.1-12.601-8.9-8.9-17c3.8-8.3,16.7-24.4,12.1-23.8c-4.5,0.7-15.1-1.4-14.899-7.9
		c0.1-6.5-9.2-13-19.3-5.6c-10.2,7.5-15.7,18.9-26.4,18.7c-10.5-0.3-24,15-29.7,21.7c-5.899,6.8-16.399,6.3-26.2,19.7
		c-9.6,13.4-17.899,30.1-10.6,31.2c7.4,1,23.3-12.399,27.7-5.399C468.047,208.886,472.547,214.787,477.247,207.987z"/>
	<path fill="#2B2B2B" d="M333.947,282.886c-1,1.301-2,2.501-3.1,3.601c-3.3,3.2-6.8,6.4-10.6,9.1c-7.4,5.5-15.8,9.301-24.9,10.801
		c-23.8,3.8-48.8-5.7-70.6-13.9c-23.6-8.8-46.8-18.601-70.1-28.101c-1.1-0.399-13-4.3-13-5.6c0-0.6,8.1,1.4,8.9,1.6
		c23,5.4,46,11,69.1,16.4c5.2,1.2,11.7,1.7,16,4.9c3.7,2.8,6.4,7.101,10.9,8.7c7.4,2.5,18.1,0.3,25.5,2.5c8.5,2.5,17.2,4.3,25.3-0.4
		c7.9-4.6,13.3-12.4,21.1-17.2c7.5-4.5,16.2-7.3,24.7-9.3c20.1-4.7,42.4-2.5,60.1-14.8c12.399-8.601,8.7-22.601,21.8-30.2
		c14.7-8.601,44.7-5.4,59.5,0.8c3.6,1.5,13,4.9,14,9.6c0.8,4.301-5.7,5.4-8.7,6c-8.1,1.801-16.8,3.4-25.1,4
		c-7.5,0.5-13.4-3.899-20.3-5.8c-8.801-2.399-11,4.8-13.5,11.601c-1.9,5.3-6.601,8.399-10.601,12
		c-4.899,4.399-9.399,9.3-13.8,14.399c-2.4,2.8-3.6,6.101-7.6,6.7c-6.2,1-13.4,0.9-19.7,0.5c-5.4-0.4-8.4-2.8-13.1-4.7
		c-5.8-2.399-13.1-1.5-19.1-0.8c-4.3,0.5-6.9,0.6-10,3.7C335.947,280.287,334.947,281.586,333.947,282.886z"/>
	<path fill="#2B2B2B" d="M676.646,193.087c-1.699,26.1,7.601,51.9,3,77.4c-5.199,27.5-24.399,52.1-45.5,59.801
		c-5.899,2.1-18.6,2.699-23.6-5.102c-11.9-18.5-12.8-46.899,4.9-60.301c12.1-8.6,1.3,6.601,0.3,14.7c-1.101,8.8,8.5,12.9,7.7,21.101
		c-0.601,6-3.4,17.301,13,10.4c7.8-3.201,14.699-9.701,20.8-17.301c10.5-13.2,16-16.9,16.899-34.3c-0.3-15.8-0.399-31.7-0.699-47.4
		C674.347,205.787,675.447,199.487,676.646,193.087z"/>
	<path fill="#D92425" d="M529.447,61.587c-10.5,4.5-21.2,9.5-32.601,11.3c-5.3,0.8-11.1-1.7-16.899-1.2
		c-7.601,0.5-15.301,3.8-22.101,3.3c-8-0.7-13.1-4.2-21.2-2.2c-8.3,2.1-20.899,6.1-20.399,17.3c0.2,6,1.7,9.9,7.3,13.1
		c4.4,2.5,10.4,5.6,14.9,6.7c10.899,2.6,15.5-6.6,23.199-0.7c9.7,7.4-20.8,12.8-23.899,12.8c-11.2-0.1-25.601-3-31-14.2
		c-6.5-13.6,2.6-30.1,14.399-37.3c15.301-9.3,34.5-5.6,51.301-4.3C492.047,67.787,510.347,65.787,529.447,61.587z"/>
	<path fill="#2B2B2B" d="M744.047,59.987c0-0.1-0.102-0.1-0.102-0.2c-1.8-3-1.8-6.6-2.398-9.9c-0.3-1.6-0.8-5.6-2.2-6.8
		c0,0.8,0,4.1,0,4.7c0,1.8-0.1,3.5-0.2,5.3c-0.3,3.9-1,7.8-1.5,11.7c-0.6,5.1-1.6,9.9-4.2,14.4c-3.199,5.5-7.6,10.4-10.199,16.3
		c-4.101,9.3-3.9,16.8-11.301,28.8c-2.6,4.1-18.3,16.3-21.399,20.8c-2,2.8-2.9,6.8-4.2,10c-1.7,4.6-4,8.9-7.5,12.5
		c-2.1,2.1-4.6,3.9-7,5.7c-2.5,1.9-5.1,3.6-8,4.8c-4.899,2.2-12.7,4.4-17.3,0.6c-2.6-2.1-3.1-5.7-3.7-8.8c-0.8-3.9-1.7-7.7-3.1-11.4
		c0.3,0.8,0,2.5-0.101,3.4c0,1.3-0.199,2.5-0.199,3.8c-0.2,2.6-0.4,5.2-0.101,7.7c0.5,4.1,1.9,8,4.5,11.2c6,7.3,16.5,9.5,25.2,6.1
		c2.6-1,5-2.5,7.2-4.1c4.899-3.7,8.7-7.8,12.2-12.8c3.499-4.9,6.6-10.2,9.699-15.3c1.7-2.8,3.5-5.7,5.4-8.4
		c8-11.5,16.2-22.7,22.5-35.1c7.7-15.1,14.1-29.1,16.398-46.1c8,2.2,5.2,14.4,4.2,20c4.102-5,4.3-14.4,2.7-20.3
		C748.646,65.087,745.847,62.787,744.047,59.987z"/>
	<path fill="#2B2B2B" d="M599.547,246.886c-11.9,7.101-15.6,15.2-26.5,23.301c-7.5,5.5-22.7,10.8-29,14.8c-4.1,2.6-8.2,5.301-12.3,8
		c1.3-4.699-0.601-9.3-8.9-9.9c-13.899-1.1-8.2,10.301-23.6,5.601c-15.4-4.7-13.3-6.5-9.7-10.801c3.6-4.3,6.9-4.699-0.6-12.3
		c-7.5-7.6-12.801-12.8-18.7-3.8c-5.9,9-8,24.501-18.4,20.8c-10.3-3.7-20,1.4-20.899-11c-5.5,8.2-13.801,14.201-23.4,16.601
		c-4.9,1.2-16.5,0.399-16.3,8.3c0.1,7.6,11.899,8.7,17.2,8.801c3.6,0.1,7.199,0,10.8-0.301c5.6-0.602,5.3,1,5.8,6.1
		c0.3,3.4,1.3,9.101-1.5,11.801c-3.3,3.199-8.7,0.3-11.8-1.6c-7-4.4-12.601-11.102-21.601-6.602c-4.899,2.4-10.1,4.4-10.6,10.301
		c-0.6,6.5-0.6,12.398-8.5,13c-11.6,0.898-17.2-14.199-29.8-7.4c-7.3,3.9-12.5,5.5-20.9,4.801c-15.6-1.301-30-8-45.4-10.801
		c-12.7-2.299-26.3-0.6-38.7-4.799c-15.1-5.201-27.1-14.4-39.8-23.801c-9.3-6.9-19.8-11.101-30.5-15.4c-6.2-2.5-12.7-4.899-18.2-8.8
		c-31.5-21.9-59.9-48.6-89-73.4c-8-6.799-16.2-13.699-23.7-21c-2-1.9-11.2-9.2-10.7-12.6c0.9-5.9,25.5,11.6,27.8,13.3
		c10.3,7.7,20,16.2,30,24.299c5.7,4.601,11.5,9.101,17.5,13.2c19.4,13.2,41.5,20.7,64.4,25.2c-11.7-5.8-23.6-11.6-34.6-18.8
		c-27.4-17.9-52.4-39.9-78.8-59.3c-7.1-5.2-43-28.5-50-13.4c-3,6.5,5.2,15.4,9.1,19.4c5.9,6,12.6,11.1,19,16.6
		c21.5,18.5,42.9,37.299,65,55.2c13.1,10.7,26.6,21.1,40.4,31c36.3,26.1,74.8,49.6,117.9,62.5c45.9,14.2,93.3,19.6,141.5,15.9
		c13.5-1.1,26.9-2.7,40.3-5c16.3-2.7,32.4-6.7,48-12.2c51-17.8,97.8-44.5,135.7-83.5c9-9.301,16.6-19.4,24.6-29.5
		C633.047,231.086,615.947,236.487,599.547,246.886z"/>
	<path fill="#D92425" d="M621.047,162.787c-11.4,12.1-19.7,12.5-30,9.9c-4.3-1.1-7.1-11.3-13.4-7.7c-11.699,6.6-14.3,23-27.399,29.8
		c-12,6.299,0.3,27.099-11.601,33.099c-8.699,4.4-14.1,2.9-20.399,11.801c-11.101,15.399,9.899,18.199,20,13.3
		c8.3-4,9.3-6.601,16.6-1.101c5.601,4.2,1.8,9.7,3.5,14.4c7.5-4,17-6.3,20.5-15.3c6.101-15.5-3.1-22.5,14.3-32.2
		c6.601-3.7,13.7-2.8,20.9-2.1c5.5,0.5,13.6,1.5,17.6-3.5c2-2.5,1.7-6.801,1.5-9.801c-0.399-6.199-7.399-9.599-7.6-15.399
		c-0.2-5.4,6.4-11.4,8.6-16C637.847,164.387,631.047,150.587,621.047,162.787z"/>
	<path fill="#2B2B2B" d="M410.247,351.887c-21.601,15.601-40.1,35.9-70.3,39.9c-30.2,4,2.7-33.5,13-38.102
		c-1.3,0.602-9.5,13.801-10.5,15.9c-2.8,6-2,7.601,6.5,8.101C370.847,379.086,391.247,359.987,410.247,351.887z"/>
	<path fill="#D92425" d="M340.247,217.687c-18.9-3.801-37.4-12.301-57.9-3.9c-20.4,8.4,13.1,24.5,21.1,24.1
		c-4.3-2.399-7.8-5.699-12.2-7.899c-3.5-1.8-5-3.601-1.6-6.5C303.547,211.487,323.647,218.787,340.247,217.687z"/>
</g>
</svg>
