<?xml version="1.0" encoding="utf-8"?>
<!-- Generator: Adobe Illustrator 15.0.0, SVG Export Plug-In . SVG Version: 6.00 Build 0)  -->
<!DOCTYPE svg PUBLIC "-//W3C//DTD SVG 1.1//EN" "http://www.w3.org/Graphics/SVG/1.1/DTD/svg11.dtd">
<svg version="1.1" id="Layer_1" xmlns="http://www.w3.org/2000/svg" xmlns:xlink="http://www.w3.org/1999/xlink" x="0px" y="0px"
	 width="485.5px" height="410px" viewBox="0 54 485.5 410" enable-background="new 0 54 485.5 410" xml:space="preserve">
<g>
	<path fill="#1C1C1C" d="M364.1,393.5c0.7,6.5,4.3,11.3,8.3,10.8c3.9-0.5,6.6-6.1,5.9-12.5c-0.7-6.5-4.3-11.3-8.3-10.8
		C366.1,381.5,363.4,387.1,364.1,393.5z"/>
	<path fill="#2B2B2B" d="M204.1,342.7c-8.4-13.3,6.8-7,10.6-15.5c3.8-8.6,9.9-13.3,16.5-11.1c6.5,2.2,14.4,7.7,19.4-1.6
		c-8.1,0.2-17.8-17-28.7-13s-14.2,14.1-28.6,24.1c-14.4,10,0.9,25.8,21,33.4c20.1,7.6,69.7,5.7,72,1
		C256.8,358.1,214.4,358.9,204.1,342.7z"/>
	<path fill="#2B2B2B" d="M12.4,212.2c1.6-8,4.3-14.9,8-22.2c5-10.2,10.4-20.3,17.5-29.1c6.5-7.9,14.1-15.5,22.1-22.1
		c24.6-20.4,57-33.5,89.2-33.3c11.5,0.2,22.9,2.3,33.8,6.1c18.8,6.7,35.3,17.9,51,30c7.9,6.1,15.7,12.4,23.5,18.6
		c6.2,4.9,13.7,9.4,18.9,15.3c4.6,5.1,9.1,10.3,13.6,15.4c2.7,3,5.3,6.8,8.4,9.4l-60.4-46.5c-10.8-6.9-21.6-13.7-32.3-20.7
		c-8.9-5.9-19.5-10.6-29.6-13.7c-38.9-12-79.3-1-110.4,23.9c-2.5,2-5,4.1-7.4,6.1c-9.3,8-17.3,17-24.1,27.1
		c-4.5,6.6-8.6,13.5-12.4,20.6c-4.4,8.1-7.1,16.9-10.5,25.4C11.1,219.1,11.7,215.6,12.4,212.2z"/>
	<path fill="#D92425" d="M347.6,335.5c-4.5,1.2-16.2-0.2-16.7-6.5c-0.4-5.7,10.4-8.9,4.9-14.3c-2.6-2.5-4.4-1.6-5.9-5.7
		c-0.8-1.9-2.4-6.1-1.4-8c1.6-3.2,7.3-3.2,8.7-7.7c1.6-5.3-3.2-7.9-7.8-8.2c-12-0.8-12.5,15.7-14.6,24.2c-6.3,1.8-12.8,4-19.1,6.1
		c-3.9,1.3-7.3,2.5-10.9,0c-6.4-4.4-5.8-11-14.9-11.4c-10-0.3-20.1-3.9-24.2-14c-2.1-5.1-3.1-17-0.5-22c1.5-2.8,4.1-3.9,7.3-3.6
		c0.9,0.1,8.5,3.6,8.5,3.6c1.7-1.5,3-3.8,3.2-6.1c-2.8-2-5.5-3.4-4.4-7.6c1-4,3.3-3.5,6.7-5c7.2-3.3,13.7-17.1,0.7-15.6
		c-4,0.4-7.3,3-11.2,3.8c-1.5,0.3-9.9,0.5-10.1-2.3c-0.2-4.1,0.6-8-2.6-9.4c-2.6-1.1-6.9-0.1-9.8-0.2c-2.9-0.2-6.7-0.3-9-2.2
		c-2.3-2-1.6-6.4-3.8-7.2c-0.9,7.3,0.2,15.3-1.2,22.6c-1.4,7.4-5.9,5.7-10.8,1.9c-12.5-10-15.9-28.8-18.7-43.7
		c-0.7-4.1,0-7.1,1.6-10.9c1.4-3.5,1.1-5.8,1.9-9.3c1.4-6.4,11.2-0.6,14.9-5.9c4.8-7,3.9-17.3,15.2-17.4
		c11.2-0.1,17.6,7.2,14.2,17.8c6.5,2.2,26.3,0.3,17.8,11.4c-3.6,4.8-8.3,6.1-3.8,13.1c2.8,4.3,13,5.7,17.8,3.8
		c6.3-2.5,5.2-9,14.1-8.2c4.2,0.5,21.4,3.6,14.7,10.4c6.5,4.6,4.4,12.5,13.5,12.8c4.1,0.2,8.6,0.3,12.3,2.3c5.3,2.8,4.1,6,3.9,11
		c-0.1,5.9,4.2,9.4,5.2,15c0.6,3,1,5.9,1.9,8.9c1.1,4.1,8.3,15.3,13.3,8.5c3.1-0.5,7.9-6.9,5.9-10c-2.4-3.8-8.2,1.3-11.5-0.1
		c-5.8-2.5-1.8-11.4,2-13.7c4.3-2.7,12-0.5,7.8-6.4c-2.7-3.8-9.5-6.3-10.2-11.5c-0.9-6.3,7.6-9.5,11.6-12.4
		c4.9-3.6,7.8-6.1,14.1-3.4c4.8,2,9.1,5.8,13.1,9.2c-0.2,3,3.8,4.3,5.6,6.4c2.2,2.8,4.6,6.4,6.5,9.4c4.4,6.6,0.5,13.1-2.1,19.6
		c-4-1.5-6.8,1.9-4.8,5.5c1.4,2.6,4.6,2.7,7,3.7c4.6,1.8,5.9,6.2,2.1,10.2c-4.1-0.6-12.2-3.7-12.7,2.6c-0.7,7.4,9.9,10.1,13.5,14.5
		c3,3.7,1.9,10.2-2.3,12c-4.1,1.9-10.8,0.9-10.8,7.9c0,5.6,8.5,9.5,12.4,11.5c7,3.4,26.3,22.1,9.8,27c-7.9,2.3-16,2.6-24.2,2
		c-4.2-0.4-7.5-2-10.7,0.5c-1.8,1.4-1.5,3.5-4.3,4.2c-4.5,1.2-9.9-3-13.6-5.1c-2.6-1.4-3.7-2.6-4.4-4.2
		C348,338.6,347.8,337.1,347.6,335.5z"/>
	<polygon fill="#231F20" points="406.5,450.8 406.5,450.8 406.7,450.9 	"/>
	<path fill="#2B2B2B" d="M444.1,400.2c2.9-2.7,3.6-7.5,1.2-10.8c-2.1-2.9-3.8-4.1-0.4-6c3.8-2.1,5.5-3.4,1.2-7.4
		c-1.5-1.5-8.8-5.6-7.2-9c2.1-4.7,16.3-0.3,13.5-6.9c-1.1-2.6-4.1-3.3-6.1-5c-2.8-2.4-2.1-6.2-2.4-9.6c-0.2-2.1-0.5-15-4.7-13.1
		c-1.8,0.9-3.1,4.4-4.1,6c-1.4,2.6-2.8,5.2-4.6,7.5c-3.5,4.2-5.9,2.3-7-2.4c-1.8-7.7-1.3-16.1-1.4-24c0-5.7,1.1-13.9-1.7-19.3
		c-2.3-4.5-7.5-2.9-11.3-1.6c-6,2.1-12.7,5-17.7,9.1c-4.4,3.7-2.8,6.6,1.3,9.7c5.9,4.3,12.8,7.8,16.5,14.3c1.7,3.1,2.3,6.6,2,10.1
		c-0.2,2.6-0.7,5.7-1.4,8.2c-1,3.3-2.8,3.4-6.1,3.4c-2,0-15.4-1.7-14.6,2.7c1,5.6,7.5,7.6,5.8,15.4c-6.1-3.9-9.1,2.9-5.1,8.5
		c2.1,3,7.9,4.3,7.5,9.3c-10.4-2.9-4.5,12.6,2.5,13.4c4.3,0.5,4.5-5.2,8.3-5.5c1.7-0.2,4.8,3.4,5.6,5c1.8,3.9,1.7,3.2-0.8,6.2
		c-3.1,3.8-6.8,6.2-5.1,12.7c1.3,4.7,11.3,15.3,13.5,7.2c1.2-4.1,1.2-9.6,1.6-14.1c0.1-1.4,0.1-10.2,1.3-10.8
		c2.2-1,6.9,11.9,7.1,14.5c3.2,3,7.9,2.8,8.5-2.9c0.4-3.9-3.5-7.6-1.6-11c0.1-0.2,0.3-0.4,0.4-0.7
		C440,401.9,442.6,401.6,444.1,400.2z"/>
	<path fill="#2B2B2B" d="M306.1,161.5c-1.5-7.5-6.9-12.1-13.8-15c-10.6-4.5-31.2-6.8-33.9-21.1c-0.5-2.9,1.3-11.4-1.7-13.5
		c-9.8-7-23.9-7.2-34.9-11.4c-10.3-4-15.7-12.8-21.7-21.3c-1.1-1.5-2.3-3.1-4.4-2.9c-9.4,0.6-18.3,6.8-27.3,9.3
		c-6.4,1.7-11.5,0.5-17.6-1c-13-3.4-26-5.7-39,0.8c-7.4,3.7-14.7,8.1-21.5,12.9c-12.4,8.6-23.4,18.7-34,29.5
		c-3.2,3.2-6.2,6.4-9.3,9.7c-4.6,5-9.4,10.2-12.9,16.1c-0.7,1.2-1.4,2.5-2.1,3.7c-0.4,0.9-0.9,1.8-1.4,2.8c-0.6,1.1-1.2,2.1-1.7,3.3
		c-1.9,3.9-3.5,7.8-5.1,11.8c-1.7,4.2-3.5,8.3-5.2,12.5c-0.9,2.1-1.6,4.2-2.2,6.4c-0.4,1-0.7,2.1-1.1,3.1c-0.3,0.7-1.1,1.7-0.9,2.6
		c-0.2-1.6-0.1-3.2,0.2-4.8c0.7-3.6,1.7-7.2,2.9-10.8c0.7-2.3,1.4-4.6,2.2-6.9c1.4-4,2.8-7.8,4.4-11.6c1.6-3.8,3.4-7.5,5.3-11.1
		c4-7.6,9-14.7,14.4-21.5c20-25.1,44.3-50.8,76.5-59c12.6-3.2,22.3-0.2,34.2,2.8c15.2,3.9,26.8-8.6,41.8-9
		c8.7-0.2,11.9,8.9,16.2,14.3c10.7,13.4,27,13.3,42.2,19.2c4.3,1.7,8.8,3.6,10.6,8c2.3,5.5-1.9,16.1,3.6,19.8
		c11.4,7.7,27.7,10,36.3,21.4c10.6,14-0.8,35.3-5,49.4C302.7,188.1,308.6,173.7,306.1,161.5z"/>
	<path fill="#2B2B2B" d="M382,398.4c-2-12.1-9.4-20.5-20.8-25c-8.5-3.3-7,8.7-6,13.1c0.8,3.4,4.5,7.4,6.5,10.2l0,0
		c0.4-0.2-3.7-10.7-3.7-11.9c0-1.7,0.8-3.7,1.1-5.5c8.3,4.9,17.8,12.5,20.6,22.1c1.1,4-0.5,5.2-3.8,7.4
		C381.3,406.8,383,404.2,382,398.4z"/>
	<path fill="#2B2B2B" d="M150.1,132.3c-10-4.2-30.6-5.3-39.1,3.5c-5.4,5.6,1.1,7.8,6.2,8.2c2,0.1,6.4-0.8,7.9,1.2
		c1.2,1.5,0.1,6-1.5,7c-1.9,1.2-6.3-0.5-8.4-0.8c-6.5-0.8-13.2-0.9-19.7-0.2c-42.5,4.5-81.1,40.4-81.6,84.5
		c-0.2,19.4,6.4,38.7,16.3,55.2c3.2,5.1,8.2,9.9,12,14.7c6.4,8,12.7,16,19.4,23.7c-7-13.1-17.7-24.2-24.9-37.3
		c-6.4-11.7-10.8-26.8-12.9-39.8c-6.1-38.7,22.2-77.4,59.1-87.9c35.7-10.1,70.8,6.8,95.7,32.6c9,9.4,15,21.2,21.1,32.6l44.5,77.9
		l-36.9-81.1c-9.4-21.7-19.6-38.3-39.2-52.6c-5-3.6-10.3-6.9-15.6-9.9c4.8-0.9,10.3-3.8,15.3-3.6c4.5,0.2,7.3,4.7,11.7,4.6
		c4.7-0.3,14.2-5.4,12.7-10.8c-1.5-5.2-11.4-10.4-16.2-10.6c-7.9-0.4-13.9,3-21.8,0c7.1-5,2.8-8.2-3.5-10.8
		C150.6,132.5,150.3,132.4,150.1,132.3z"/>
	<g>
		<path fill="#2B2B2B" d="M94.4,239.2c6.7,4.7,16.3,11.9,15.5,21.5c-0.6,7.5-8.3,14-15.6,11.7C82.6,269,73.1,261,61.5,257.2
			c-4.7-1.6-22.4-7.5-17.5,3.8l21.5,39.4c8.1,16.6,9.8,31.9,10.4,50.1l-0.1,0c-3.2-17.5-7.4-31.1-17.1-46.2
			c-8.7-13.8-28.5-32.1-25.5-50.8c1.1-7.4,10-9.7,16.2-9.4c9.4,0.5,18.2,3.9,26.6,8c3.4,1.7,18.4,12.4,22.1,9.8
			c5.3-3.8-15.1-17.6-17.9-19.9c-5.5-4.5-11.1-9-16.6-13.5c-11-9.9-21-20.2-17-35.4C43.8,218.8,77.7,227.9,94.4,239.2z"/>
	</g>
	<path fill="#2B2B2B" d="M276.6,120.4c17.6,14.4,35.3,28.7,52.9,43.1l38.6,40.8c4.7,4.9,31.4,36,53.1,68.8c5,7.5,9.7,15.3,14.1,23.2
		c13.8,24.6,25.8,50,29,78.3c0.6,5.7,0.9,11.4,0.8,17.1c-0.3,20-7.2,41.9-28.3,48.9c-17.4,5.8-36.9,1.2-53.7-4.7
		c-22.2-7.7-42.2-19.1-60-34.3c0.3-10.4-6-16.7,1.3-31.6c0.1-0.2,8.8-15.1,23-15.8c-7.8-3.7-18.9,4.9-21.5,7
		c-9.1,7.7-14.4,22-12.3,32.2c0,0.1,0,0.1,0,0.2c-8.7-7.9-17.2-17.4-25.4-28.9c1.6,5.1,4.7,11.1,7.5,15.9c3,5,6.4,9.8,10.2,14.3
		c7.8,9.3,17.2,17.4,27.2,24.2c19.8,13.5,41.8,21.3,64.3,28.6l-3.6,0.4c-3.9,0.4-8-0.7-12-0.5l-0.2,0.3c6.4,4.8,13.9,4.3,21.4,2.1
		c2.4-0.8,6.1,0,8.6,0c15.2-0.5,29.7-1.5,42.6-11c19.2-14.1,21-41.9,19-63.6c-0.8-8.6-2.3-17-4.4-25.5
		c-6.6-27.4-19.3-54.1-33.5-78.4c-3.6-6.3-7.7-12.7-12.1-19.1c1.8-3.3,3.3-6.4,4.1-7.9c6.5-13.9,11.5-16.8,13.8-31.6
		c3.9-24.5-0.4-47-14.7-35.9c-14.3,11.2-23.3,10.5-31.4,20.3c-3.6,4.4-4,10.5-3.7,16.5l-15-17.2l-14.4-15.1
		c-22.2-20.1-43.7-40.5-70.8-54C286.4,125.2,281.6,122.8,276.6,120.4z M401.4,213.1c1.5-7.8,7.9-12.3,16-12.8
		c8.1-0.5,11.2-21.1,16.5-4.8c4.7,14.3-4.4,31-10,43.8c-1.2,2.8-2.7,5.6-4.2,8.4c-3.2-4.3-6.3-8.4-9.5-12l-10.6-12.1
		C400.5,220.2,400.8,216.4,401.4,213.1z"/>
	<path fill="#2B2B2B" d="M270.8,252.1c-1.4,19.4,26.1,8.3,30.7,21.9c3.1,9.1-18.9,14.6-23.5,21c-4,5.8,10.2,5.8,12.2,16.9
		c1,5.6-23.7,24.3-20.3,26.5c4.2,2.9,12.3,3.2,20.5,3.8c6.6,0.6,13.1-31.4,19.7-31.4c5.7,0-2.4,24.1,2.2,31.1
		c6.8,10.4,30.9-0.8,35.9-8.1c3.7-5.3,6.3-14.4,1.9-20.2c-3.6-4.8-9.3-4.7-10.7-11.8c-1.5-8.6,3.2-17.7,2.6-26.3
		c-0.7-10.5-14.9-38.6-27.9-36.9c-4.8,0.6-7.9,5.4-12.7,5.2c-4.6-0.2-5.1-5.4-7-9.8c-2.2-4.9-3.8-13.5-10.2-13.3
		c-6.5,0.1-9.8,6.6-11.5,13.7C271.3,240.9,270.8,248,270.8,252.1z"/>
	<path fill="#2B2B2B" d="M121.5,198c-6.7-5.8,1.9-5.3,1.9-11c0.1-5.6,2-9.6,5.6-9.7c3.5-0.1,8.4,1.4,8.9-4.9
		c-3.8,1.8-12-5.9-16.4-1.5s-3.9,10.9-8.7,19.5c-4.8,8.6,5.7,14.4,16.9,14.6c11.2,0.2,30.9-11.5,47.5-4.4
		C162.6,183,129.8,205.2,121.5,198z"/>
</g>
</svg>
