<?xml version="1.0" encoding="utf-8"?>
<!-- Generator: Adobe Illustrator 15.0.0, SVG Export Plug-In . SVG Version: 6.00 Build 0)  -->
<!DOCTYPE svg PUBLIC "-//W3C//DTD SVG 1.1//EN" "http://www.w3.org/Graphics/SVG/1.1/DTD/svg11.dtd">
<svg version="1.1" id="Layer_1" xmlns="http://www.w3.org/2000/svg" xmlns:xlink="http://www.w3.org/1999/xlink" x="0px" y="0px"
	 width="406.378px" height="443.01px" viewBox="0 0 406.378 443.01" enable-background="new 0 0 406.378 443.01"
	 xml:space="preserve">
<g>
	<path fill="#1C1C1C" d="M73.834,103.31c0.1-4-5.1-7.1-11.6-7.1c-6.4,0-11.7,3.3-11.8,7.2c-0.1,4,5.1,7.1,11.6,7.1
		C68.434,110.51,73.734,107.21,73.834,103.31z"/>
	<path fill="#2B2B2B" d="M103.734,184.11c-4.4,2.8-1,52.3,8.7,71.5c9.8,19.2,27.1,32.7,35.5,17.3c8.4-15.399,18.1-19.8,20.9-31
		c2.8-11.199-15.3-19-16-27.1c-8.7,6-2.4,13.3,0.5,19.5c2.9,6.3-1.2,12.9-9.3,17.6c-8.1,4.7-0.2,19.101-14.3,12.2
		C112.534,255.61,108.734,213.41,103.734,184.11z"/>
	<path fill="#2B2B2B" d="M269.834,443.011c8.1-4.299,16.5-8,24.1-13.199c6.699-4.5,13.102-9.301,19.199-14.5
		c9.399-7.897,17.399-16.801,24.399-26.899c1.802-2.601,3.601-5.301,5.302-8c21.399-33.601,28-74.9,11.899-112.301
		c-4.199-9.7-10-19.8-16.802-28c-8.1-9.899-16-19.9-24-29.9l-52.698-55.1c2.899,2.8,6.899,4.9,10.198,7.3
		c5.603,4,11.201,7.9,16.802,11.9c6.399,4.599,11.7,11.599,17.2,17.199c7,7.1,14.102,14.2,21,21.4
		c13.699,14.301,26.602,29.5,35.301,47.5c4.998,10.4,8.301,21.5,9.699,32.9c3.699,32-5.898,65.7-23.5,92.301
		c-5.699,8.601-12.398,16.998-19.6,24.302c-8,8-17.5,14.397-27.103,20.5c-6.897,4.397-13.397,7.799-21.199,10.299
		C276.735,441.811,273.334,442.712,269.834,443.011z"/>
	<path fill="#FF9729" d="M117.134,120.31c-1.6-0.5-2.9-1.5-4.6-3.9c-2.5-3.5-7.2-8.4-6.5-13c0.4-2.8,2.5-2.8,3.7-4.7
		c2.1-3.5,0.1-6.6-0.7-10.7c-1.5-8.1-2-16.2-0.6-24.3c3.1-17,23.8,0.2,27.9,6.8c2.4,3.7,7.2,11.7,12.8,11.1c7-0.8,5.3-7.3,6.7-11.6
		c1.4-4.4,7.7-6.2,11.7-3.6c4.8,3.1,8.6,13.4,15.9,11.9c6.199-1.2,2.199-8.9,1.199-12.9c3.602-4.2,8.102-3.4,10.399,1
		c1.199,2.3,1.699,5.5,4.399,6.6c3.8,1.6,6.899-1.6,5-5.4c6.199-3.3,12.3-7.9,19.3-4.2c3.103,1.6,7,3.6,10,5.5
		c2.301,1.6,4,5.4,7,4.9c3.801,3.6,8,7.4,10.5,12c3.301,6,1.103,9.1-1.897,14.4c-2.5,4.3-4.701,13.1-11.101,12.9
		c-5.199-0.1-8.399-6.6-12.5-8.9c-6.302-3.6-3.302,3.8-5.5,8.4c-1.899,4.1-10.302,9-13.399,3.5c-1.699-3.1,2.7-9.4-1.3-11.4
		c-3.3-1.7-9.102,3.8-9.3,6.9c-6.199,5.7,5.698,11.6,9.899,12.3c3,0.5,5.898,0.6,9,0.9c5.699,0.4,9.601,4.3,15.5,3.6
		c5-0.7,8-2.3,11.398,2.7c2.398,3.5,3,7.9,3.602,12c1.299,9,8.898,6,14.199,12c6-7.4,11,9.4,11.898,13.5
		c1.801,8.8-4.801,8.4-6.6,14.9c-1.4,5,1.1,15,5.699,17.3c7.399,3.7,8.2-1.1,12.6-5.2c10.102-9.6,10.301,10.3,13.201,16.5
		c10.199-4.5,18.1,1.1,19.199,12.2c1.1,11.3-9.3,11.5-15.699,17c-4.9,4.2,1.899,13.3-4.301,15.4c-3.3,1.199-5.699,1.1-9,2.899
		c-3.601,2-6.5,3.101-10.699,2.8c-15.201-1.199-34.201-2.5-45.5-13.899c-4.301-4.4-6.5-8.7,0.699-10.9
		c7.1-2.2,15.1-1.899,22.301-3.6c-1.101-2.101-5.4-0.9-7.601-3c-2.2-2.101-2.7-5.8-3.2-8.7c-0.4-2.8,0.2-7.2-1.199-9.7
		c-1.701-3.1-5.5-1.8-9.601-1.6c-2.801,0.1-3.5-8.3-3.399-9.8c0.399-3.9,2.6-7.5,2.6-11.5c0.102-13.1-12.898-5.1-15.398,2.4
		c-1.199,3.5-0.4,5.8-4.301,7.2c-4,1.5-5.699-1-8-3.6c-2.199,0.4-4.398,2-5.699,3.8c0,0,4.301,7.2,4.5,8.1
		c0.6,3.1-0.199,5.8-2.801,7.6c-4.699,3.2-16.602,3.4-21.898,1.9c-10.5-3-15.101-12.7-16.5-22.6c-1.3-9-7.8-7.7-12.9-13.6
		c-2.9-3.3-2.1-6.8-1.2-10.8c1.4-6.4,2.9-13.1,4-19.6c8.2-3,24.601-5.3,22.5-17.1c-0.799-4.6-3.899-9.1-9-6.9
		c-4.3,1.9-3.7,7.6-6.7,9.5c-1.8,1.2-6.1,0.1-8.1-0.5c-4.2-1.1-3.5-3-6.3-5.3c-6-4.9-8,6.2-13.7,6.4c-6.4,0.2-9-11.3-8.3-15.9
		C119.834,120.61,118.334,120.61,117.134,120.31z"/>
	<polygon fill="#231F20" points="0.434,74.31 0.534,74.51 0.534,74.51 	"/>
	<path fill="#2B2B2B" d="M44.034,37.51c-0.2,0.2-0.4,0.4-0.6,0.5c-3.2,2.3-7.3-1.2-11.1-0.4c-5.6,1.2-5.3,5.9-2,8.8
		c2.6-0.1,16,3.2,15.2,5.5c-0.5,1.3-9.2,2.2-10.6,2.5c-4.4,0.9-9.8,1.5-13.8,3.1c-7.8,3.1,3.8,11.9,8.6,12.7c6.7,1,8.7-2.9,12.1-6.4
		c2.7-2.8,2-2.9,6.1-1.5c1.7,0.6,5.6,3.3,5.6,5c0.1,3.8-5.6,4.6-4.6,8.8c1.6,6.8,17.6,11,13.6,1c5-0.9,6.9,4.7,10.1,6.5
		c6,3.4,12.4-0.3,7.9-6c7.5-2.5,10.2,3.7,15.9,4.1c4.4,0.3,1.3-12.8,1.1-14.8c-0.4-3.2-0.5-5,2.7-6.4c2.4-1,5.4-1.8,8-2.3
		c3.5-0.7,7-0.5,10.3,0.9c6.9,3,11.1,9.5,16,14.9c3.5,3.8,6.6,5.1,9.8,0.3c3.5-5.4,5.7-12.4,7.1-18.6c0.9-4,1.9-9.3-2.8-11.1
		c-5.7-2.2-13.7-0.2-19.4,0.4c-7.8,0.8-16.1,2.2-24,1.2c-4.8-0.6-6.9-2.8-3.1-6.7c2.1-2.1,4.6-3.7,7-5.4c1.5-1.1,4.8-2.8,5.5-4.7
		c1.5-4.4-11.4-3.3-13.5-3.3c-3.4,0-7.1,1.1-9.8-1.4c-1.9-1.8-2.9-4.7-5.6-5.5c-6.8-2-1,11.6-5.4,14.2c-3.2,1.9-8.1-4.9-9.7-6.2
		c-4.4-3.8-5.5-2-7.2,2c-1.5,3.5-2.9,2-6,0.2c-3.5-2.1-8.2-0.9-10.6,2.3C45.534,33.31,45.534,35.91,44.034,37.51z"/>
	<path fill="#2B2B2B" d="M261.334,153.31c13.6-5.7,33.5-19.3,48.6-10.3c12.301,7.3,16.301,23.3,25.199,33.8
		c4.301,5.1,14.399-0.2,20.102,1.5c4.602,1.3,6.898,5.6,9.102,9.7c7.5,14.5,9.1,30.7,23.6,39.9c5.9,3.7,15.301,5.9,16,14.601
		c1.199,14.899-10,27.8-4.5,42.5c4.301,11.5,8.301,20.8,6.5,33.701c-4.699,32.897-27.699,59.799-50.499,82.397
		c-6.103,6.103-12.702,11.802-19.804,16.603c-3.398,2.299-6.898,4.5-10.5,6.5c-3.601,2-7.299,3.799-11.101,5.6
		c-2.198,1-4.399,2-6.601,2.9c-3.399,1.5-6.899,2.897-10.399,4c-1.601,0.5-3.198,0.699-4.801,0.699c0.899,0.1,1.801-0.802,2.5-1.199
		c1-0.5,2-0.9,3-1.4c2.103-0.897,4.103-1.801,6.103-2.897c4-2.103,7.897-4.4,11.897-6.5c3.801-2,7.5-4,11.2-6.304
		c1.101-0.6,2.101-1.299,3.101-2c0.899-0.6,1.699-1.196,2.601-1.696c1.201-0.804,2.399-1.701,3.5-2.5
		c5.5-4.103,10.102-9.4,14.602-14.5c2.898-3.4,5.801-6.803,8.602-10.303c9.6-11.699,18.5-23.8,25.699-37c4-7.3,7.6-15,10.5-22.8
		c5.1-13.7,1.398-26.3-3.4-38.9c-2.199-5.899-3.898-10.899-2.898-17.399c1.5-9.2,6.699-18.7,6.301-28.101
		c-0.102-2.1-1.801-3.199-3.4-4.1c-9.1-5.1-18.398-9.5-23.5-19.3c-5.398-10.5-7.101-24.5-15.101-33.5c-2.399-2.7-10.698,0-13.6-0.2
		c-14.5-1.1-19-21.3-24.601-31.4c-3.602-6.5-8.801-11.4-16.399-12.1C286.533,142.11,272.834,149.51,261.334,153.31z"/>
	<path fill="#2B2B2B" d="M45.534,100.41c1.8-3.5,2.8-5.3,6.9-4.6c9.9,1.7,18.4,10.4,24.2,18.1c-1.7,0.5-3.6,1.5-5.3,1.7
		c-1.2,0.1-12-2.8-12.2-2.4l0,0c3,1.7,7.3,5,10.8,5.4c4.5,0.5,16.6,0.7,12.4-7.4c-5.7-10.9-14.9-17.3-27.1-18
		C49.334,92.81,46.934,94.81,45.534,100.41z"/>
	<path fill="#2B2B2B" d="M344.434,294.711c-3.301-6-6.898-9.9-11.1-2.301c-3.802-7.6-1.103-13.899-2.302-21.699
		c-0.698-4.801-7-14.101-12.301-15c-5.601-0.9-9.601,9.1-9.397,13.8c0.299,4.399,5.1,6.7,5.799,11.1
		c0.801,4.9-1.5,10.7-1.898,15.601c-3.5-5-7.398-9.9-11.5-14.5c-16.301-17.9-33.898-26.301-56.5-33.301l-84.601-28l82.2,35.9
		c12,4.9,24.397,9.6,34.698,17.5c28.302,21.9,48.899,55,42.699,91.602c-6.5,37.8-42,70.101-81.101,68.197
		c-13.199-0.696-28.699-3.5-41-8.6c-13.799-5.699-26-15.1-39.799-20.699c8.3,5.9,17,11.299,25.6,16.799
		c5.199,3.304,10.5,7.804,15.9,10.4c17.398,8.1,37.298,12.6,56.599,10.301c43.8-5.201,75.4-47.5,75.3-90.199
		c0-6.602-0.8-13.199-2.3-19.602c-0.5-2.1-2.7-6.299-1.7-8.299c0.801-1.701,5.2-3.201,6.801-2.201c2.101,1.301,1.699,5.701,2,7.701
		c0.899,5,3.802,11.299,8.802,5.299c7.897-9.398,4.5-29.799-0.701-39.299C344.533,295.011,344.434,294.811,344.434,294.711z"/>
	<g>
		<path fill="#2B2B2B" d="M295.334,404.712c-14.701,5.6-26-3.201-37-13.103c-5.103-5-10.103-10.1-15.201-15.1
			c-2.601-2.602-18.5-21.4-21.699-15.701c-2.199,3.9,10,17.701,12.102,20.9c5,7.898,9.301,16.301,10.801,25.6
			c1,6.103-0.4,15.201-7.602,17.103c-18.199,5-38.5-12.699-53.201-19.9c-16.1-8-30.1-10.699-47.799-12v-0.101
			c18.1-1.301,33.5-1.301,50.9,5.001l41.5,17.1c11.799,3.701,4-13.299,1.898-17.799c-5-11.103-14-19.701-18.699-30.9
			c-3-7.1,2.6-15.399,10-16.801c9.398-1.799,17.6,6.899,23,13.101C257.434,377.511,270.133,410.212,295.334,404.712z"/>
	</g>
	<path fill="#2B2B2B" d="M334.235,154.51c-16.301-25.5-38.9-44.7-61.301-64.6l-16.6-12.7l-18.701-13.1c6-0.3,12-1.3,16-5.4
		c8.899-9.1,7.201-18,16.801-33.4c9.5-15.4-13.398-17.3-37.301-10.8c-14.398,3.9-16.799,9.1-29.898,17.1
		c-1.398,0.9-4.301,2.8-7.398,4.9c-6.801-3.7-13.701-7.1-20.301-10c-25.601-11.5-53.601-21.3-81.5-24.9c-8.6-1.1-17.2-1.7-25.8-1.6
		c-21.8,0.3-49.2,5.1-61.2,25.7c-8.102,13.8-7.502,28.3-6.402,43.5c0.2,2.5,1.4,6.1,0.9,8.6c-1.4,7.6-1.1,15.2,4.4,21l0.3-0.2
		c-0.2-4-1.8-8-1.8-11.9v-3.6c9.6,21.6,19.8,42.7,35.3,60.9c7.9,9.2,16.9,17.6,27,24.4c4.9,3.3,10,6.2,15.3,8.6
		c5.1,2.3,11.4,4.8,16.6,5.8c-12.4-6.9-22.7-14.3-31.5-22.1c0.1,0,0.1,0,0.2,0c10.4,1,24-5.8,30.7-15.7c1.9-2.8,9.2-14.7,4.7-22.1
		c0.9,14.2-13,24.5-13.2,24.6c-14,8.9-21,3.3-31.3,4.7c-17-16.1-30.5-34.8-40.5-56c-7.6-16.1-14.3-35-10.4-52.9
		c4.7-21.7,25.7-31,45.6-33.4c5.7-0.7,11.4-1,17.1-1c28.5,0.1,55.1,9.3,81,20.4c8.3,3.5,16.6,7.3,24.6,11.5
		c34.899,18,68.701,41.3,74.101,45.4l44.699,34c16.199,16,32.301,32,48.5,48C340.033,163.51,337.133,159.01,334.235,154.51z
		 M227.235,56.91l-13.201-9.2c-4-2.8-8.398-5.5-13-8.2c2.602-1.8,5.199-3.6,7.898-5.1c12.102-6.9,27.801-17.7,42.5-14.6
		c16.801,3.5-3.398,8.8-3,16.9c0.4,8.1-3.398,15-11,17.3C234.133,55.01,230.434,55.71,227.235,56.91z"/>
	<path fill="#2B2B2B" d="M229.934,184.21c6.9-2.5,13-6.4,12.4-12.9c-0.5-6.4-9.201-7-14.302-8.7c-4.601-1.4-9.801-1.3-10.5-5.9
		c-0.698-4.8,3.699-8.4,3.802-13.2c0.299-13.1-29.201-24.2-39.701-23.8c-8.6,0.3-17.2,6-25.899,5.4c-7.2-0.7-7.7-6.3-12.9-9.4
		c-6.3-3.7-15-0.1-19.9,4.1c-6.7,5.8-15.3,31-4.2,36.6c7.5,3.8,30.6-6.9,31.2-1.2c0.7,6.6-30.4,16.5-29.1,23c1.5,8.1,2.7,16.1,6,20
		c2.6,3.2,18.5-23.4,24.2-23c11.2,0.8,12.8,14.9,18.1,10.3c5.899-5.2,9-27.7,18.399-25.6c14,3.1,6,31.7,25.1,28.2
		C216.735,187.61,223.735,186.41,229.934,184.21z"/>
	<path fill="#2B2B2B" d="M273.735,275.511c8.801,15.7-0.699,36.601,0.699,47.701c1.4,11.1,8.301,20.897,16.301,15.198
		c8.102-5.698,14.5-5.899,18.5-10.698c4-4.802-4.602-12.101-3.199-16.101c-6.199,1.199-4.199,5.898-3.9,9.398
		c0.301,3.602-3.399,5.9-9,6.602c-5.6,0.601-4.199,9.101-10.699,3.101C274.334,323.212,292.934,288.211,273.735,275.511z"/>
</g>
</svg>
