<?xml version="1.0" encoding="utf-8"?>
<!-- Generator: Adobe Illustrator 15.0.0, SVG Export Plug-In . SVG Version: 6.00 Build 0)  -->
<!DOCTYPE svg PUBLIC "-//W3C//DTD SVG 1.1//EN" "http://www.w3.org/Graphics/SVG/1.1/DTD/svg11.dtd">
<svg version="1.1" id="Layer_1" xmlns="http://www.w3.org/2000/svg" xmlns:xlink="http://www.w3.org/1999/xlink" x="0px" y="0px"
	 width="462.577px" height="383.714px" viewBox="11.261 67.896 462.577 383.714"
	 enable-background="new 11.261 67.896 462.577 383.714" xml:space="preserve">
<g>
	<path fill="#1C1C1C" d="M364.1,393.5c0.699,6.5,4.301,11.301,8.301,10.801c3.898-0.5,6.6-6.1,5.898-12.5
		C377.6,385.3,374,380.5,370,381C366.1,381.5,363.4,387.099,364.1,393.5z"/>
	<path fill="#2B2B2B" d="M204.1,342.701c-8.4-13.301,6.8-7,10.6-15.5c3.8-8.602,9.9-13.301,16.5-11.102
		c6.5,2.199,14.399,7.699,19.399-1.6c-8.101,0.199-17.8-17-28.7-13c-10.9,4-14.2,14.1-28.6,24.1c-14.4,10,0.9,25.801,21,33.4
		c20.1,7.6,69.7,5.699,72,1C256.799,358.099,214.4,358.9,204.1,342.701z"/>
	<path fill="#2B2B2B" d="M12.4,212.201c1.6-8,4.3-14.9,8-22.201c5-10.2,10.4-20.3,17.5-29.1C44.4,153,52,145.4,60,138.8
		c24.6-20.4,57-33.5,89.2-33.3c11.5,0.2,22.9,2.3,33.8,6.1c18.8,6.7,35.3,17.9,51,30c7.899,6.1,15.699,12.4,23.5,18.6
		c6.199,4.9,13.699,9.4,18.899,15.3C281,180.6,285.5,185.8,290,190.9c2.699,3,5.299,6.801,8.399,9.4L238,153.8
		c-10.8-6.9-21.601-13.7-32.3-20.7c-8.9-5.9-19.5-10.6-29.6-13.7c-38.9-12-79.3-1-110.4,23.9c-2.5,2-5,4.1-7.4,6.1
		c-9.3,8-17.3,17-24.1,27.1c-4.5,6.6-8.6,13.5-12.4,20.6C17.4,205.201,14.7,214,11.3,222.5C11.1,219.1,11.7,215.6,12.4,212.201z"/>
	<path fill="#FF9729" d="M347.6,335.5c-4.5,1.201-16.199-0.199-16.699-6.5c-0.4-5.699,10.398-8.9,4.898-14.299
		c-2.6-2.5-4.398-1.602-5.898-5.701c-0.801-1.9-2.4-6.1-1.4-8c1.601-3.199,7.301-3.199,8.701-7.699c1.6-5.301-3.201-7.899-7.801-8.2
		c-12-0.8-12.5,15.7-14.602,24.2c-6.299,1.799-12.799,4-19.1,6.102c-3.9,1.299-7.3,2.5-10.9,0c-6.398-4.4-5.799-11.001-14.898-11.4
		c-10-0.301-20.102-3.9-24.199-14c-2.102-5.101-3.101-17-0.5-22c1.5-2.801,4.1-3.9,7.299-3.601c0.9,0.101,8.5,3.601,8.5,3.601
		c1.701-1.5,3-3.801,3.201-6.101c-2.801-2-5.5-3.399-4.4-7.601c1-4,3.3-3.5,6.699-5c7.201-3.301,13.701-17.1,0.701-15.6
		c-4,0.398-7.301,3-11.201,3.799c-1.5,0.301-9.899,0.5-10.1-2.299c-0.199-4.102,0.6-8-2.602-9.4c-2.6-1.1-6.899-0.1-9.799-0.2
		c-2.9-0.199-6.701-0.3-9-2.199c-2.3-2-1.6-6.399-3.8-7.2c-0.9,7.301,0.2,15.301-1.2,22.6c-1.4,7.4-5.9,5.701-10.8,1.9
		c-12.5-10-15.9-28.8-18.7-43.699c-0.7-4.101,0-7.101,1.6-10.9c1.4-3.5,1.1-5.8,1.9-9.3c1.4-6.4,11.2-0.6,14.9-5.9
		c4.8-7,3.9-17.3,15.2-17.4c11.199-0.1,17.6,7.2,14.199,17.8c6.5,2.2,26.301,0.3,17.801,11.4c-3.6,4.8-8.301,6.1-3.801,13.099
		c2.801,4.301,13,5.701,17.801,3.801c6.301-2.5,5.199-9,14.102-8.2c4.199,0.5,21.398,3.601,14.699,10.399
		c6.5,4.602,4.398,12.5,13.5,12.801c4.1,0.199,8.6,0.301,12.301,2.301c5.299,2.801,4.1,6,3.898,11c-0.1,5.898,4.199,9.398,5.199,15
		c0.602,3,1,5.898,1.9,8.898c1.1,4.102,8.301,15.301,13.301,8.5c3.1-0.5,7.899-6.898,5.899-10c-2.399-3.799-8.2,1.301-11.5-0.1
		c-5.801-2.5-1.801-11.4,2-13.699c4.3-2.701,12-0.5,7.8-6.4c-2.699-3.801-9.5-6.301-10.199-11.5c-0.9-6.301,7.6-9.5,11.6-12.398
		c4.9-3.601,7.801-6.101,14.102-3.4c4.799,2,9.1,5.8,13.1,9.199c-0.2,3,3.8,4.301,5.601,6.4c2.199,2.801,4.601,6.398,6.5,9.398
		c4.399,6.602,0.5,13.102-2.101,19.602c-4-1.5-6.801,1.898-4.801,5.5c1.4,2.6,4.601,2.699,7,3.699
		c4.602,1.801,5.9,6.199,2.101,10.199c-4.101-0.6-12.199-3.699-12.699,2.602c-0.7,7.398,9.899,10.1,13.501,14.5
		c3,3.699,1.898,10.199-2.302,12c-4.101,1.898-10.8,0.898-10.8,7.898c0,5.602,8.5,9.5,12.4,11.5c7,3.4,26.299,22.102,9.799,27
		c-7.898,2.301-16,2.602-24.199,2c-4.2-0.398-7.5-2-10.7,0.5c-1.8,1.4-1.5,3.5-4.3,4.201c-4.5,1.199-9.899-3-13.6-5.1
		c-2.602-1.4-3.701-2.602-4.4-4.201C348,338.599,347.799,337.099,347.6,335.5z"/>
	<polygon fill="#231F20" points="406.5,450.8 406.5,450.8 406.7,450.9 	"/>
	<path fill="#2B2B2B" d="M444.1,400.201c2.9-2.701,3.602-7.5,1.199-10.801c-2.1-2.9-3.799-4.102-0.398-6
		c3.801-2.102,5.5-3.4,1.199-7.4c-1.5-1.5-8.801-5.6-7.199-9c2.1-4.699,16.301-0.299,13.5-6.9c-1.102-2.6-4.102-3.299-6.102-5
		c-2.799-2.398-2.1-6.197-2.398-9.6c-0.199-2.1-0.5-15-4.699-13.1c-1.801,0.898-3.102,4.398-4.102,6c-1.398,2.6-2.801,5.199-4.6,7.5
		c-3.5,4.199-5.9,2.301-7-2.4c-1.801-7.699-1.301-16.1-1.4-24c0-5.699,1.102-13.899-1.699-19.299c-2.301-4.5-7.5-2.9-11.301-1.602
		c-6,2.102-12.699,5-17.699,9.102c-4.4,3.699-2.801,6.6,1.301,9.699c5.898,4.301,12.799,7.801,16.5,14.301
		c1.699,3.1,2.299,6.6,2,10.1c-0.201,2.602-0.701,5.699-1.4,8.199c-1,3.301-2.801,3.4-6.1,3.4c-2,0-15.4-1.699-14.602,2.699
		c1,5.602,7.5,7.602,5.801,15.4c-6.102-3.9-9.102,2.9-5.102,8.5c2.102,3,7.9,4.299,7.5,9.299c-10.398-2.898-4.5,12.602,2.5,13.4
		c4.301,0.5,4.5-5.199,8.301-5.5c1.699-0.199,4.801,3.398,5.602,5c1.799,3.898,1.699,3.201-0.801,6.201
		c-3.102,3.799-6.801,6.197-5.102,12.697c1.301,4.701,11.301,15.303,13.5,7.201c1.201-4.1,1.201-9.6,1.602-14.1
		c0.1-1.4,0.1-10.201,1.301-10.801c2.199-1,6.898,11.898,7.1,14.5c3.199,3,7.9,2.801,8.5-2.9c0.4-3.9-3.5-7.6-1.6-11
		c0.1-0.199,0.299-0.4,0.398-0.699C440,401.9,442.6,401.599,444.1,400.201z"/>
	<path fill="#2B2B2B" d="M306.1,161.5c-1.5-7.5-6.898-12.1-13.801-15c-10.6-4.5-31.199-6.8-33.898-21.1
		c-0.5-2.9,1.301-11.4-1.699-13.5c-9.801-7-23.9-7.2-34.901-11.4c-10.3-4-15.7-12.8-21.7-21.3c-1.1-1.5-2.3-3.1-4.4-2.9
		c-9.4,0.6-18.3,6.8-27.3,9.3c-6.4,1.7-11.5,0.5-17.6-1c-13-3.4-26-5.7-39,0.8c-7.4,3.7-14.7,8.1-21.5,12.9
		c-12.4,8.6-23.4,18.7-34,29.5c-3.2,3.2-6.2,6.4-9.3,9.7c-4.6,5-9.4,10.2-12.9,16.1c-0.7,1.2-1.4,2.5-2.1,3.7
		c-0.4,0.9-0.9,1.8-1.4,2.8c-0.6,1.1-1.2,2.1-1.7,3.3c-1.9,3.9-3.5,7.8-5.1,11.8c-1.7,4.2-3.5,8.3-5.2,12.5
		c-0.9,2.1-1.6,4.2-2.2,6.4c-0.4,1-0.7,2.101-1.1,3.101c-0.3,0.699-1.1,1.699-0.9,2.6c-0.2-1.6-0.1-3.2,0.2-4.801
		c0.7-3.6,1.7-7.2,2.9-10.799c0.7-2.3,1.4-4.6,2.2-6.9c1.4-4,2.8-7.8,4.4-11.6c1.6-3.8,3.4-7.5,5.3-11.1c4-7.6,9-14.7,14.4-21.5
		c20-25.1,44.3-50.8,76.5-59c12.6-3.2,22.3-0.2,34.2,2.8c15.2,3.9,26.8-8.6,41.8-9c8.7-0.2,11.9,8.9,16.2,14.3
		c10.7,13.4,27,13.3,42.201,19.2c4.299,1.7,8.799,3.6,10.6,8c2.3,5.5-1.899,16.1,3.601,19.8c11.399,7.7,27.699,10,36.3,21.4
		c10.601,14-0.8,35.3-5,49.399C302.7,188.1,308.6,173.7,306.1,161.5z"/>
	<path fill="#2B2B2B" d="M382,398.4c-2-12.102-9.4-20.5-20.801-25c-8.5-3.301-7,8.699-6,13.1c0.801,3.4,4.5,7.4,6.5,10.201l0,0
		C362.099,396.5,358,386,358,384.8c0-1.701,0.799-3.701,1.1-5.5c8.301,4.9,17.801,12.5,20.602,22.102c1.1,4-0.5,5.197-3.801,7.398
		C381.299,406.8,383,404.201,382,398.4z"/>
	<path fill="#2B2B2B" d="M150.1,132.3c-10-4.2-30.6-5.3-39.1,3.5c-5.4,5.6,1.1,7.8,6.2,8.2c2,0.1,6.4-0.8,7.9,1.2
		c1.2,1.5,0.1,6-1.5,7c-1.9,1.2-6.3-0.5-8.4-0.8c-6.5-0.8-13.2-0.9-19.7-0.2c-42.5,4.5-81.1,40.4-81.6,84.5
		c-0.2,19.398,6.4,38.699,16.3,55.199c3.2,5.1,8.2,9.898,12,14.699c6.4,8,12.7,16,19.4,23.699c-7-13.1-17.7-24.199-24.9-37.299
		c-6.4-11.701-10.8-26.801-12.9-39.801c-6.1-38.699,22.2-77.4,59.1-87.9c35.7-10.1,70.8,6.8,95.7,32.6c9,9.399,15,21.2,21.1,32.601
		l44.5,77.9l-36.9-81.1c-9.4-21.7-19.6-38.3-39.2-52.6c-5-3.6-10.3-6.9-15.6-9.9c4.8-0.9,10.3-3.8,15.3-3.6
		c4.5,0.2,7.3,4.7,11.7,4.6c4.7-0.3,14.2-5.4,12.7-10.8c-1.5-5.2-11.4-10.4-16.2-10.6c-7.9-0.4-13.9,3-21.8,0
		c7.1-5,2.8-8.2-3.5-10.8C150.6,132.5,150.3,132.4,150.1,132.3z"/>
	<g>
		<path fill="#2B2B2B" d="M94.4,239.201c6.7,4.699,16.3,11.898,15.5,21.5c-0.6,7.5-8.3,14-15.6,11.699
			C82.6,269,73.1,261,61.5,257.201c-4.7-1.602-22.4-7.5-17.5,3.799l21.5,39.4c8.1,16.6,9.8,31.898,10.4,50.1h-0.1
			c-3.2-17.5-7.4-31.1-17.1-46.199C50,290.5,30.2,272.201,33.2,253.5c1.1-7.399,10-9.699,16.2-9.399c9.4,0.5,18.2,3.899,26.6,8
			c3.4,1.7,18.4,12.399,22.1,9.801C103.4,258.1,83,244.3,80.2,242c-5.5-4.5-11.1-9-16.6-13.5c-11-9.899-21-20.199-17-35.399
			C43.8,218.8,77.7,227.9,94.4,239.201z"/>
	</g>
	<path fill="#2B2B2B" d="M276.6,120.4c17.602,14.4,35.301,28.7,52.9,43.1l38.6,40.8c4.699,4.9,31.4,36,53.102,68.8
		c5,7.5,9.699,15.301,14.1,23.2c13.799,24.602,25.799,50,29,78.299c0.602,5.701,0.9,11.4,0.799,17.102
		c-0.299,20-7.197,41.898-28.299,48.898c-17.398,5.803-36.898,1.201-53.7-4.697c-22.199-7.701-42.199-19.102-60-34.303
		c0.301-10.398-6-16.697,1.301-31.6c0.101-0.199,8.8-15.1,23-15.799c-7.801-3.701-18.899,4.898-21.5,7
		c-9.101,7.699-14.399,22-12.301,32.199c0,0.1,0,0.1,0,0.199c-8.701-7.898-17.201-17.398-25.401-28.898c1.6,5.1,4.7,11.1,7.5,15.898
		c3,5,6.399,9.801,10.2,14.301c7.8,9.301,17.199,17.398,27.199,24.199c19.801,13.5,41.801,21.301,64.302,28.602l-3.602,0.398
		c-3.898,0.4-8-0.697-12-0.5l-0.199,0.303c6.4,4.799,13.9,4.299,21.4,2.1c2.4-0.801,6.1,0,8.6,0c15.199-0.5,29.699-1.5,42.602-11
		c19.199-14.1,21-41.9,19-63.6c-0.801-8.602-2.301-17-4.4-25.5c-6.6-27.4-19.301-54.102-33.5-78.4
		c-3.6-6.301-7.701-12.701-12.1-19.101c1.799-3.301,3.299-6.399,4.1-7.899c6.5-13.9,11.5-16.801,13.799-31.601
		c3.9-24.5-0.398-47-14.697-35.9C412.1,188.2,403.1,187.5,395,197.3c-3.601,4.4-4,10.5-3.701,16.5l-15-17.2L361.9,181.5
		c-22.2-20.1-43.7-40.5-70.801-54C286.4,125.2,281.6,122.8,276.6,120.4z M401.401,213.1c1.5-7.8,7.898-12.3,16-12.8
		c8.1-0.5,11.197-21.1,16.5-4.801c4.697,14.301-4.4,31-10,43.801c-1.201,2.8-2.701,5.601-4.201,8.4c-3.199-4.301-6.299-8.4-9.5-12
		L399.6,223.6C400.5,220.201,400.799,216.4,401.401,213.1z"/>
	<path fill="#2B2B2B" d="M270.799,252.1C269.4,271.5,296.9,260.4,301.5,274c3.1,9.101-18.9,14.601-23.5,21
		c-4,5.801,10.199,5.801,12.199,16.9c1,5.6-23.699,24.301-20.3,26.5c4.199,2.898,12.3,3.199,20.5,3.801
		c6.601,0.6,13.101-31.4,19.699-31.4c5.7,0-2.399,24.102,2.2,31.102c6.8,10.398,30.9-0.803,35.9-8.102
		c3.699-5.301,6.299-14.398,1.898-20.201c-3.6-4.799-9.301-4.697-10.699-11.799c-1.5-8.6,3.199-17.7,2.6-26.301
		c-0.699-10.5-14.899-38.6-27.899-36.899c-4.8,0.601-7.899,5.399-12.699,5.2c-4.601-0.2-5.101-5.399-7-9.801
		c-2.2-4.899-3.801-13.5-10.2-13.299c-6.5,0.1-9.8,6.6-11.5,13.699C271.299,240.9,270.799,248,270.799,252.1z"/>
	<path fill="#2B2B2B" d="M121.5,198c-6.7-5.799,1.9-5.299,1.9-11c0.1-5.6,2-9.6,5.6-9.7c3.5-0.1,8.4,1.4,8.9-4.9
		c-3.8,1.8-12-5.9-16.4-1.5s-3.9,10.9-8.7,19.5c-4.8,8.6,5.7,14.4,16.9,14.6c11.2,0.201,30.9-11.5,47.5-4.399
		C162.6,183,129.8,205.201,121.5,198z"/>
</g>
</svg>
