<?xml version="1.0" encoding="utf-8"?>
<!-- Generator: Adobe Illustrator 15.0.0, SVG Export Plug-In . SVG Version: 6.00 Build 0)  -->
<!DOCTYPE svg PUBLIC "-//W3C//DTD SVG 1.1//EN" "http://www.w3.org/Graphics/SVG/1.1/DTD/svg11.dtd">
<svg version="1.1" id="Layer_1" xmlns="http://www.w3.org/2000/svg" xmlns:xlink="http://www.w3.org/1999/xlink" x="0px" y="0px"
	 width="775px" height="419px" viewBox="-328 -100.5 775 419" enable-background="new -328 -100.5 775 419" xml:space="preserve">
<g>
	<path fill-rule="evenodd" clip-rule="evenodd" fill="#1C1C1C" d="M365.6,33.7c-1.9-3.3,0.7-9.2,5.8-13.6c5.2-4.4,11-5.5,12.9-2.3
		c2,3.1-0.7,9.3-5.8,13.9C373.4,36.1,367.6,36.9,365.6,33.7z"/>
	<g>
		<path fill="#2B2B2B" d="M391,17.3c-2.7-3.1-4.3-4.8-8.4-3.1c-10.8,4.3-15.7,14.7-21.2,23.9c0,0,2.2,0.3,2.3,0.3
			c5.8,0.6,12.3-1.3,12.3-1.3c-2.8,2.4-2.7,3.2-6.3,4.4c-4.6,1.6-17.3,4.5-15-4.6c3.3-12.4,11.4-21,24.2-24.6
			C385.1,10.5,388.1,12,391,17.3z"/>
	</g>
	<path fill-rule="evenodd" clip-rule="evenodd" fill="#D92425" d="M402.9-77c-2.6-0.9-5.7-1.7-8.4-2.1c-2.9-0.4-5.7-0.7-8.6-1.1
		c-1.9-0.3-2.9-0.2-4.3-1.6c-1.2-1.3-2.3-2.7-3.5-3.9c-2.2-2.2-6-2.5-8.9-2.8c-3.6-0.3-7.3,0.2-10.8,1.1c-1.1,0.3-2.3,0.7-3.3,1.3
		c-0.5,0.3-1.2,1.4-1.7,1.5c3.5-1.1,7.2-1.4,10.8-0.8c3.4,0.5,6,2.1,8.4,4.5c-5-0.4-10.1,0-15.1,0.1c-5.1,0.1-10.2,0.8-15.3,1.6
		c-3.6,0.6-7.2,1.3-10.7,2.1c-13.6,3.1-26.8,7.8-39.5,13.5c-13.2,6-26,13-38.7,20c-26.8,14.8-62.9,32.1-97.3,65.9
		C130.4,47.6,96.9,81,62.6,107.9c-22,17.3-45.8,33.3-72,43.6c-4.1,1.6-18.1,7.8-34.1,11.6c-45.3,10.7-91.1-6.3-122.9-39.2
		c-8.1-8.4-15.9-18.2-21.6-28.4c-4-7.1-6.6-14.8-9.4-22.5c-2.2-6.1-4.4-14.2-11-16.9c-5.8-2.4-9,6.7-10.2,10.9
		c-1.3,4.8-2.1,13.8,0.1,23.2c2.3,9.4,6.6,23.4,12,31.3c2.3,3.4,5.8,1.3,6.5,5.5c-4.9-14.6-10-29.5-11.9-44.9
		c-0.2-1.4-1.7-9.2,0.4-10c2.1-0.7,4.8,5.9,5.5,7.1c6.7,12.8,12.3,26.1,21.1,37.7c9.1,11.9,20.9,21.6,33.2,30
		c11.4,7.9,23.6,14.4,36.1,20.1c12.5,5.7,26.3,7.1,42.6,7.7c-3.1,7.8,7.2,12.2,13,13.7c14.3,3.8,10.7-15.3,24.6-16.9
		c13.9-1.5,0.5,9.3,15.5,9.7c15,0.4,12.9-3.6,25.8-17.1c13-13.5,22.5-9,36.6-9.2c14.1-0.2,13.5,8.5,32.6,1
		c19.1-7.5-2.2-27.4-3.3-33.4c-1.1-5.8,0.1-14.5,6.3-19c22.4-14.1,50-25.5,66.9-42C172.6,35,189.3,17,208.9,1.2
		c-7.2,12.7-10.3,26.5,9.9,15c25.8-14.8,53.8-36.8,51-22.3c-2.9,14.5-20.2,18.2-6.4,26.1c13.8,7.9,28.3-14,32.2,0.1
		c4,14.2,5,30.9,21.9,8.8c7.7-12.4,12.7-11.8,23.4-14.9c10.6-3.1,27.9-1.4,31.9-16.1c4.1-14.6,24.1-19.3,18.3-33.5
		c-5.8-14.2-20.5,4-25.4-6.4c-4.9-10.4-0.2-27.2-17.9-15.6c-17.7,11.6-15.4,27-28.8,13.8c-4.8-4.7-11.2-7.3-16.1-11.7
		c0.2,0.1,3.7-2.1,4.1-2.3c1.4-0.8,2.9-1.6,4.3-2.3c2.8-1.5,5.7-2.9,8.6-4.1c7.4-3.3,15.2-5.6,23.1-7.3c7-1.5,14.1-2.3,21.3-2.6
		c7.2-0.3,14.4-0.4,21.6,0.3c6.4,0.7,12.9,2.1,18.4,5.5c2.4,1.5,4.6,3.3,6.6,5.2c2.4,2.4,12.8,16,13.6,17c0,0.1,0.4,0.4,0.4,0.4
		c-0.8-9.3-7.3-22-15.1-27.7C407.8-74.9,403-77,402.9-77z"/>
	<path fill-rule="evenodd" clip-rule="evenodd" fill="#2B2B2B" d="M162.9,119.4c5.4-7.7,11.9,0.6,20.3,0.5c8.2,0.1,18.3,3.5,24,6.3
		c5.5,2.8,15.6,1.8,14.6-10c-1-11.8-5.5-12.3,0.9-19c6.4-6.8,21.9,0.2,22.9-15.7c1-16.1-12.6-8.9-8.9-17
		c3.8-8.3,16.7-24.4,12.1-23.8c-4.5,0.7-15.1-1.4-14.9-7.9c0.1-6.5-9.2-13-19.3-5.6c-10.2,7.5-15.7,18.9-26.4,18.7
		c-10.5-0.3-24,15-29.7,21.7c-5.9,6.8-16.4,6.3-26.2,19.7c-9.6,13.4-17.9,30.1-10.6,31.2c7.4,1,23.3-12.4,27.7-5.4
		C153.7,120.3,158.2,126.2,162.9,119.4z"/>
	<path fill-rule="evenodd" clip-rule="evenodd" fill="#2B2B2B" d="M19.6,194.3c-1,1.3-2,2.5-3.1,3.6c-3.3,3.2-6.8,6.4-10.6,9.1
		c-7.4,5.5-15.8,9.3-24.9,10.8c-23.8,3.8-48.8-5.7-70.6-13.9c-23.6-8.8-46.8-18.6-70.1-28.1c-1.1-0.4-13-4.3-13-5.6
		c0-0.6,8.1,1.4,8.9,1.6c23,5.4,46,11,69.1,16.4c5.2,1.2,11.7,1.7,16,4.9c3.7,2.8,6.4,7.1,10.9,8.7c7.4,2.5,18.1,0.3,25.5,2.5
		c8.5,2.5,17.2,4.3,25.3-0.4c7.9-4.6,13.3-12.4,21.1-17.2c7.5-4.5,16.2-7.3,24.7-9.3c20.1-4.7,42.4-2.5,60.1-14.8
		c12.4-8.6,8.7-22.6,21.8-30.2c14.7-8.6,44.7-5.4,59.5,0.8c3.6,1.5,13,4.9,14,9.6c0.8,4.3-5.7,5.4-8.7,6c-8.1,1.8-16.8,3.4-25.1,4
		c-7.5,0.5-13.4-3.9-20.3-5.8c-8.8-2.4-11,4.8-13.5,11.6c-1.9,5.3-6.6,8.4-10.6,12c-4.9,4.4-9.4,9.3-13.8,14.4
		c-2.4,2.8-3.6,6.1-7.6,6.7c-6.2,1-13.4,0.9-19.7,0.5c-5.4-0.4-8.4-2.8-13.1-4.7c-5.8-2.4-13.1-1.5-19.1-0.8
		c-4.3,0.5-6.9,0.6-10,3.7C21.6,191.7,20.6,193,19.6,194.3z"/>
	<path fill-rule="evenodd" clip-rule="evenodd" fill="#2B2B2B" d="M362.3,104.5c-1.7,26.1,7.6,51.9,3,77.4
		c-5.2,27.5-24.4,52.1-45.5,59.8c-5.9,2.1-18.6,2.7-23.6-5.1c-11.9-18.5-12.8-46.9,4.9-60.3c12.1-8.6,1.3,6.6,0.3,14.7
		c-1.1,8.8,8.5,12.9,7.7,21.1c-0.6,6-3.4,17.3,13,10.4c7.8-3.2,14.7-9.7,20.8-17.3c10.5-13.2,16-16.9,16.9-34.3
		c-0.3-15.8-0.4-31.7-0.7-47.4C360,117.2,361.1,110.9,362.3,104.5z"/>
	<path fill-rule="evenodd" clip-rule="evenodd" fill="#D92425" d="M215.1-27c-10.5,4.5-21.2,9.5-32.6,11.3
		c-5.3,0.8-11.1-1.7-16.9-1.2c-7.6,0.5-15.3,3.8-22.1,3.3c-8-0.7-13.1-4.2-21.2-2.2c-8.3,2.1-20.9,6.1-20.4,17.3
		c0.2,6,1.7,9.9,7.3,13.1c4.4,2.5,10.4,5.6,14.9,6.7c10.9,2.6,15.5-6.6,23.2-0.7c9.7,7.4-20.8,12.8-23.9,12.8
		c-11.2-0.1-25.6-3-31-14.2C85.9,5.6,95-10.9,106.8-18.1c15.3-9.3,34.5-5.6,51.3-4.3C177.7-20.8,196-22.8,215.1-27z"/>
	<path fill-rule="evenodd" clip-rule="evenodd" fill="#2B2B2B" d="M429.7-28.6c0-0.1-0.1-0.1-0.1-0.2c-1.8-3-1.8-6.6-2.4-9.9
		c-0.3-1.6-0.8-5.6-2.2-6.8c0,0.8,0,4.1,0,4.7c0,1.8-0.1,3.5-0.2,5.3c-0.3,3.9-1,7.8-1.5,11.7c-0.6,5.1-1.6,9.9-4.2,14.4
		c-3.2,5.5-7.6,10.4-10.2,16.3c-4.1,9.3-3.9,16.8-11.3,28.8c-2.6,4.1-18.3,16.3-21.4,20.8c-2,2.8-2.9,6.8-4.2,10
		c-1.7,4.6-4,8.9-7.5,12.5c-2.1,2.1-4.6,3.9-7,5.7c-2.5,1.9-5.1,3.6-8,4.8c-4.9,2.2-12.7,4.4-17.3,0.6c-2.6-2.1-3.1-5.7-3.7-8.8
		c-0.8-3.9-1.7-7.7-3.1-11.4c0.3,0.8,0,2.5-0.1,3.4c0,1.3-0.2,2.5-0.2,3.8c-0.2,2.6-0.4,5.2-0.1,7.7c0.5,4.1,1.9,8,4.5,11.2
		c6,7.3,16.5,9.5,25.2,6.1c2.6-1,5-2.5,7.2-4.1c4.9-3.7,8.7-7.8,12.2-12.8c3.5-4.9,6.6-10.2,9.7-15.3c1.7-2.8,3.5-5.7,5.4-8.4
		c8-11.5,16.2-22.7,22.5-35.1c7.7-15.1,14.1-29.1,16.4-46.1c8,2.2,5.2,14.4,4.2,20c4.1-5,4.3-14.4,2.7-20.3
		C434.3-23.5,431.5-25.8,429.7-28.6z"/>
	<path fill-rule="evenodd" clip-rule="evenodd" fill="#2B2B2B" d="M285.2,158.3c-11.9,7.1-15.6,15.2-26.5,23.3
		c-7.5,5.5-22.7,10.8-29,14.8c-4.1,2.6-8.2,5.3-12.3,8c1.3-4.7-0.6-9.3-8.9-9.9c-13.9-1.1-8.2,10.3-23.6,5.6
		c-15.4-4.7-13.3-6.5-9.7-10.8c3.6-4.3,6.9-4.7-0.6-12.3c-7.5-7.6-12.8-12.8-18.7-3.8c-5.9,9-8,24.5-18.4,20.8
		c-10.3-3.7-20,1.4-20.9-11c-5.5,8.2-13.8,14.2-23.4,16.6c-4.9,1.2-16.5,0.4-16.3,8.3c0.1,7.6,11.9,8.7,17.2,8.8
		c3.6,0.1,7.2,0,10.8-0.3c5.6-0.6,5.3,1,5.8,6.1c0.3,3.4,1.3,9.1-1.5,11.8c-3.3,3.2-8.7,0.3-11.8-1.6c-7-4.4-12.6-11.1-21.6-6.6
		c-4.9,2.4-10.1,4.4-10.6,10.3c-0.6,6.5-0.6,12.4-8.5,13c-11.6,0.9-17.2-14.2-29.8-7.4c-7.3,3.9-12.5,5.5-20.9,4.8
		c-15.6-1.3-30-8-45.4-10.8c-12.7-2.3-26.3-0.6-38.7-4.8c-15.1-5.2-27.1-14.4-39.8-23.8c-9.3-6.9-19.8-11.1-30.5-15.4
		c-6.2-2.5-12.7-4.9-18.2-8.8c-31.5-21.9-59.9-48.6-89-73.4c-8-6.8-16.2-13.7-23.7-21c-2-1.9-11.2-9.2-10.7-12.6
		c0.9-5.9,25.5,11.6,27.8,13.3c10.3,7.7,20,16.2,30,24.3c5.7,4.6,11.5,9.1,17.5,13.2c19.4,13.2,41.5,20.7,64.4,25.2
		c-11.7-5.8-23.6-11.6-34.6-18.8c-27.4-17.9-52.4-39.9-78.8-59.3c-7.1-5.2-43-28.5-50-13.4c-3,6.5,5.2,15.4,9.1,19.4
		c5.9,6,12.6,11.1,19,16.6c21.5,18.5,42.9,37.3,65,55.2c13.1,10.7,26.6,21.1,40.4,31c36.3,26.1,74.8,49.6,117.9,62.5
		C-16.4,259.6,31,265,79.2,261.3c13.5-1.1,26.9-2.7,40.3-5c16.3-2.7,32.4-6.7,48-12.2c51-17.8,97.8-44.5,135.7-83.5
		c9-9.3,16.6-19.4,24.6-29.5C318.7,142.5,301.6,147.9,285.2,158.3z"/>
	<path fill-rule="evenodd" clip-rule="evenodd" fill="#D92425" d="M306.7,74.2c-11.4,12.1-19.7,12.5-30,9.9
		c-4.3-1.1-7.1-11.3-13.4-7.7c-11.7,6.6-14.3,23-27.4,29.8c-12,6.3,0.3,27.1-11.6,33.1c-8.7,4.4-14.1,2.9-20.4,11.8
		c-11.1,15.4,9.9,18.2,20,13.3c8.3-4,9.3-6.6,16.6-1.1c5.6,4.2,1.8,9.7,3.5,14.4c7.5-4,17-6.3,20.5-15.3
		c6.1-15.5-3.1-22.5,14.3-32.2c6.6-3.7,13.7-2.8,20.9-2.1c5.5,0.5,13.6,1.5,17.6-3.5c2-2.5,1.7-6.8,1.5-9.8
		c-0.4-6.2-7.4-9.6-7.6-15.4c-0.2-5.4,6.4-11.4,8.6-16C323.5,75.8,316.7,62,306.7,74.2z"/>
	<path fill-rule="evenodd" clip-rule="evenodd" fill="#2B2B2B" d="M95.9,263.3c-21.6,15.6-40.1,35.9-70.3,39.9
		c-30.2,4,2.7-33.5,13-38.1c-1.3,0.6-9.5,13.8-10.5,15.9c-2.8,6-2,7.6,6.5,8.1C56.5,290.5,76.9,271.4,95.9,263.3z"/>
	<path fill-rule="evenodd" clip-rule="evenodd" fill="#D92425" d="M25.9,129.1C7,125.3-11.5,116.8-32,125.2
		c-20.4,8.4,13.1,24.5,21.1,24.1c-4.3-2.4-7.8-5.7-12.2-7.9c-3.5-1.8-5-3.6-1.6-6.5C-10.8,122.9,9.3,130.2,25.9,129.1z"/>
</g>
</svg>
