<?xml version="1.0" encoding="utf-8"?>
<!-- Generator: Adobe Illustrator 15.0.0, SVG Export Plug-In . SVG Version: 6.00 Build 0)  -->
<!DOCTYPE svg PUBLIC "-//W3C//DTD SVG 1.1//EN" "http://www.w3.org/Graphics/SVG/1.1/DTD/svg11.dtd">
<svg version="1.1" id="Layer_1" xmlns="http://www.w3.org/2000/svg" xmlns:xlink="http://www.w3.org/1999/xlink" x="0px" y="0px"
	 width="396.916px" height="482.16px" viewBox="0 0 396.916 482.16" enable-background="new 0 0 396.916 482.16"
	 xml:space="preserve">
<g>
	<path fill="#2B2B2B" d="M208.903,429.329c4.102-0.1,8.102,0.6,12,1.6c7.899,2,15.399,5.4,23.301,7.305
		c15,3.695,35.1,10.5,49.898,2.896c16.899-8.701-6.3-8.301-8.3-17c-1.899-8.701-8-14.801-16.899-15
		c-8.801-0.201-20.398,2-23.699-7.701c10,2.805,27.6-9.1,39.801-2.1c12.199,6.9,13.1,16.801,27.898,30.201
		c14.801,13.398-9.299,22.299-36.799,22.5c-16.5,0.1-20.601-4.602-37.101-9.201c-4.601-1.299-21.201-7-25.899-8.1
		c-4.699-1.102-10.302-0.5-14.701-2.9C198.903,432.129,207.504,429.329,208.903,429.329z"/>
	<path fill="#010101" d="M111.004,436.629c-2.8,6-8.1,9.299-11.7,7.602c-3.5-1.701-4.199-7.9-1.3-13.9c2.8-6,8.101-9.301,11.7-7.6
		C113.404,424.428,113.904,430.729,111.004,436.629z"/>
	<path fill="#FF9729" d="M145.504,383.129c6.101-1.201,12.3,5.602,14.4,5.4c7.2-0.9,5.399-5.701,5.1-11.104
		c-0.7-9.896,4-4.896,9.9-11.697c6.3-7.199-1.7-8.104-2.3-14.803c-0.7-8.1,7.8-10.697,13.5-5.896c4.198,3.799,4,10,3.5,15.199
		c-1.2,12.5,4,17.1,14.698,23.396c11.302,6.604,14-3.1,25.302-3.299c15.801-0.301,33.5,6,38.5-15.701
		c2.399-10-1.5-18.199-13.302-14.799c-4.698-6.701,7.701-7.4,3.5-17.1c-1.6-3.701-11.799-13.4-7.6-17.803
		c2.6-2.697,10.2,17.102,23,17.201c11.401,0.104,28.301-20.197,32.801-11.297c3,5.9-5.301,15.201-1.399,19.9
		c6.102,7.1,20.399-5.602,24.198-9.699c0.103-0.102,0.103-0.102,0.103-0.102c4.199-4.699,8.1-9.898,11.699-15.1
		c5.399-8,15.698-23.4,11.198-34.201c-2-4.6-10.6-1.299-13.1-4.799c-4-5.701,2.801-14.301-1.9-20.5
		c-3.698-4.9-11.198-5.301-16.799-5.5c-4,0.799-7.201,2.799-8.201,7c-2.5,10.1-5.6,5.199-14.1,4.699c-6.4-0.4-9.199-0.4-7.601,7.6
		c1.898,9.602,0.601,16.102-11.5,14c-11.699-2-9.399-12.699-19.602-15.699c-3-0.898-10.699-1.801-13.699-0.6
		c-2.6,1-7.398,7.398-9.5,9.5c-5.699,5.699-7,5.6-14.199,3.5c-6.899-2-18.699-2.4-18.301,7.5c0.4,5.799-7,8.199-10,13.299
		c-2.1,3.602-4.301,8.301-6.399,10.9c-3.101,1-4.7,4.396-8.4,4c-3.5-0.4-9.7-8.4-9.3-11.299c0-0.701,1.2-3.9,1.8-4.104
		c5.2,0.199,11.9,9.4,14.9,0.604c2.7-8.701-5.7-9.604-6.4-16.803c-0.8-6.398,12-4.301,13.3-11.602c1.5-8-8.8-18.898-15.8-20.398
		c-7.899-1.699-20.8,2.898-26.5,8.801c-6.399,6.699-5.899,17.898-12.5,24.3c-6,5.899-13.1,3.399-20.5,2.5
		c2.3,10.202,7.7,12.302,14.5,18.601c5.101,4.701,5.4,6-1.6,10.801c-4.2,2.9-10.4,1.199-14.101,4.801
		c-10.3,10.199,12.9,13.1,5.7,23.898c-6.3,9.5-31.399,0.4-34.6,14.602c-4.8,20.801,28.1,17.199,34.2,27
		c1.399,2.398-0.101,3.199,3.1,4.6C128.904,394.329,137.204,384.829,145.504,383.129z"/>
	<path fill="#2B2B2B" d="M211.104,5.229c11.5-2.4,22.899-6.2,34.5-5c13.5,1.5,26.5,7.1,38.301,13.899
		c13,7.601,25.5,16.601,35.1,28.2c10.201,12.4,15.301,27.8,21.9,42.3l-0.103,0.2l-30-34.7c-19.5-19-40.397-32.899-66.897-40.6
		L211.104,5.229L211.104,5.229z"/>
	<polygon fill="#231F20" points="49.904,477.53 50.104,477.53 50.104,477.53 	"/>
	<g>
		<path fill="#2B2C2B" d="M281.303,93.929c-9.397,2.3-23,11-31.6,1.8c-12.5-13.3,2.899-34.3-0.9-50
			c-4.399-18.101-19.099-25.101-34.899-31.4l0.101-1.1c6.899,1.1,13.899,1.6,20.101,4.6c5.399,2.7,10.198,6.601,14.198,11.2
			c14.4,17,7.5,36.2,7.5,56.2c-0.1,1.3,1,3.1,2.5,3.3c9.4,1.3,18.4-4.5,27.802-5.1c13.899-1,27.602,3.399,39.698,9.899
			c11.5,6.101,24.701,15.7,26.302,29.3C337.604,101.529,306.803,87.329,281.303,93.929z"/>
	</g>
	<path fill="#2B2B2B" d="M71.604,369.229c11,1.898,14,5.301,14.5,15.199c0.399,5.102,2.199,7.102,7.199,9.199
		c4.5,2.102,14.7,5,5.601,8.9c-5.2,2.301-13.101,2.6-18.8,3.396c-2.9,0.4-12,0.104-9.101,4.9c2.2,3.801,11.101,2,14.3,0.5
		c3.101,3.801,11,8.701,1.5,11.301c-5.199,1.299-12.5-2.701-15.1,3.5c-1.3,2.9,3.1,13.699-1,15.199c-5.8,2.201-9.9-10.5-14.3-11.5
		c-7.7-1.699-8,12.801-14.7,13c-3,0-6.1-9-9.8-10.6c-5.9-2.596-11.601-2.596-11.101-10.896c0.601-9.5,6.9-2.299,11.601-5.199
		c3.399-2.1,2.899-7.701,0.1-10.1c-2.7-2.4-17.6-0.301-9.1-7.201c3-2.299,8.899-1.9,9-6.799c-9.601,0.898-4.3-6.801,0.7-9.5
		c7.899-4.301,10.699,4.6,16.1,7.699c2.5,1.5,16.6,3.699,14.5-2.602c-1.2-3.398-10.6-7.699-13.6-9.6c-4.101-2.699-7.101-9-3-13.604
		c1.8-2,9.6-4.896,12.3-3.799c3.899,1.604,0.899,5.799,3.5,8.104c1.6,1.5,3.8,0.896,5.899,0.6
		C69.604,369.129,70.504,369.129,71.604,369.229z"/>
	<path fill="#2B2B2B" d="M175.804,406.229c2.4,3.6,4.101,3.1,8.301,2.398c4-0.799,7.198-1.699,10.698-3.1
		c4.201-1.699,12.701,4.201,14.603-1.699c0.6-2.1-0.603-4.9,0.699-6.801c3.102-4.699,11.301,2.801,15.301,2.898
		c5.301,0.102,8.199-5.697,11.397-9.1c6.9-7.299,3.4-14.699,0.4-22.799c-3.101-8.5,2.301-13.9,6.399-20.9
		c3.699-6.1,5.199-13.301-2.102-16.398c-4.898-2.102-19.5-7.5-13.199-14.701c4.699-5.299,8.4-10.602,0-14.5
		c-7.398-3.4-19.398-1.9-23,6.301c-0.5,1.4-0.301,3.699-1.398,4.699c-4.5,4-12.301-1.5-16.102,5.201c-2,3.398-0.1,7.6-1.1,11.197
		c-0.8,3-9.5,9-5.8,12.4c3.3,3,5.2,4.6,2.6,9.301c-2.1,3.799-1.8,5.299,0.2,9c1.3,2.5,0.4,5.602,1.6,7.5
		c4.401,7,4.901,7.4-3.5,10.799C171.604,382.03,170.504,398.729,175.804,406.229z"/>
	<path fill="#2B2B2B" d="M334.803,205.128c-10.698,6.301,5.201,16.5-0.198,23.801c-3.601,4.899-14.601-4.5-19.601-4.5
		c-4.5,0,0.601,7.399-4.399,12.399c-2.601,2.5-21.5-3.5-21.398-0.899c0.199,3.2,2.898,7.5,5.6,12
		c2.102,3.601,21.199-4.601,23.699-1.199c2.102,3-13.5,7.5-15.5,12.399c-3,7.3,11.701,15.601,17.4,15.601
		c4.1,0,9.801-1.899,11.301-6.301c1.1-3.601-1-6.5,2.199-9.8c3.897-3.899,10.397-4.801,14.699-8.2
		c5.301-4.199,14.801-21.7,9.102-27.801c-2.102-2.199-5.701-2.1-7.4-4.699c-1.6-2.5,1-4.601,2.602-7.2c1.699-2.8,5.699-6.8,3.199-10
		c-2.399-3.3-7-2.7-11.399-1C340.803,201.229,336.903,203.529,334.803,205.128z"/>
	<g>
		<path fill="#2B2C2B" d="M350.704,159.029c-5.199,25.8-25.102,40.1-47,52.1l-64.2,33.2c-11.899,6.4-22.399,11.602-30.899,22.102
			c8-11.102,18.301-17,29.899-24.199l62.699-36.8c4.801-2.7,9.5-5.5,14.2-8.2c6.3-3.601,13.101-6.7,18.199-12
			c16.199-16.8,17.801-36.2,14.601-58.2C350.504,138.029,353.004,147.729,350.704,159.029z"/>
	</g>
	<g>
		<path fill="#2B2C2B" d="M92.004,435.329c6.2-10.9,16.2-16.6,28.8-17c9.301-0.199,3.801,10.801,1.2,14.6
			c-1.899,3.104-6.899,5.604-9.8,7.604l0,0c3.2-4.104,7.6-8.299,8.2-13.699c0-0.1,0.2-2.1,0.2-2.1c-10,3.1-21,5.396-27.5,14.396
			c-2.4,3.4-1.101,5.199,1.199,8.299C89.804,443.629,89.004,440.629,92.004,435.329z"/>
	</g>
	<path fill="#2B2B2B" d="M99.404,226.729c8.7-9.8,7,5.801,15.399,9.1c8.4,3.301,13.2,8.4,11.301,13.602
		c-2,5.199-7,11.301,2.199,15.699c-0.5-6.5,15.9-13.699,11.601-22.6s-14.2-11.801-24.4-23.801s-25-0.2-31.7,15.801
		c-6.8,16-0.899,54.199,3.7,56.199C79.304,264.329,90.604,236.53,99.404,226.729z"/>
	<path fill="#2B2B2B" d="M8.304,453.928c9.601,13.5,23.4,16.102,37.801,21.803c8,3.197,16.1,8.197,25,5.799
		c-2.2-1.799-5-2.299-7.601-3c-2.6-0.699-4.2-1.799-6.399-2.9c2.199,1.104,19.5,0.801,25.6,0.701c18.7-0.301,37.2-3,54.9-8.701
		c15-4.799,28.699-11.896,41-21.699c5.399-4.197,11.5-8.5,16.299-13.396c-6.199-4.5-30.799,19.896-36.199,21.1
		c0.6-4.898,3.4-9.801,4.2-14.801c2.8-16.699-6.8-29.199-22-34.5c5.2,4.4,9.6,9.701,12.7,15.701c2.899,5.5,2.6,12.1,2.3,18.199
		c-0.7,15.6-14.3,22.301-27.7,25.801c-7.1,1.799-14.3,3.299-21.5,4.5c-25,4-52.3,3.396-76-6.4c-10.1-4.1-19.5-11.5-23.2-22
		c-4-11.201-1-23.1,2.9-33.801c5.2-14.199,12.7-29.299,21.6-41.4c4.4-6,8.8-11.398,14.101-16.6c0.5,1.201,2.899,3.301,5,3.6
		c11,1.5,9.1-11.299,17.199-15.6c3.601-1.9,5.101,5,6.4,7.301c2.1,3.9,5.9,6.699,10.5,6c3.2-0.5,5.2-3.301,7.8-5
		c4.4-2.898,7.9-0.5,12.4,0.4c4.7,0.896,5.1-4.9,8-7c4-3.104,7.899-1.801,11.6,0.396c3.9,2.199,9.5,3.699,14,3.4
		c5.3-0.5,11.4-13.5,8.601-18.5c-0.601-1.1-5.9-5.4-4.7-7c0.899-1.4,3.7-1.5,5-2.701c3.8-3.6-2.2-9.699-6.3-7.699
		c-4,1.9-6.101-3.6-14-4.6c-6.4-0.701,26.699-6.601,4.6-9.701c-2.8-0.299,28.3-14.6,4.7-17.6c0.7-2.699,6.3-5.9,8.6-7.199
		c4.601-2.601,9.2-5.301,14-7.701c10.101-5.1,19.7-10.799,29.4-16.5c4.601-2.799,19.601-11,21.999-12.698
		c-1,4.899-1.398,9.899-1.601,14.899c-0.2,4.699,0.4,10.101-0.6,14.601c0.299-1.5,0.698-3,1-4.5c2.698-12.399,4.5-27.301,13-37.301
		c11.1-13,30.897-10.399,46-12.899c8.799-1.5,14.1-6.101,18.198-13.8c3.199-6,5.802-9.801,13.101-9.101
		c6.301,0.601,11.801,1.3,18,0.3c5.301-0.8,11.701-1.5,14.601-6.6c1.602-2.7,2.301-5.8,3.602-8.6c1.699-3.5,4-6.5,6.301-9.601
		c5.799-7.7,5.299-13.899,2-22.7c2.398,8.101,1.898,13.2-4.5,19c-2.602,2.4-5.201,4.7-7.201,7.7c-1.699,2.601-2.799,5.7-4.699,8.101
		c-4,5-10.801,4.699-16.5,4.6c-5.897-0.1-11.801-0.6-17.699-0.4c-5.602,0.301-9.102,2.4-11.602,7.5c-2.6,5.5-4.398,11.2-10.398,13.9
		c-5.198,2.4-11.602,2.5-17.301,3.2c-5.897,0.7-11.897,0.899-17.699,2.1c-14.102,2.8-21.301,13-25.102,26.2c-1,0.4-2.1,0.9-3.1,1.4
		c-5.102,2.399-10.301,4.698-15.5,7.101c-17.6,8-35,16.399-52.2,25.301c-8.5,4.398-16.899,8.299-24.7,13.898
		c-10.5,7.301-21.8,14.199-31.5,22.398c-8.5,7.199-16,15.9-23.899,23.699c-14.101,13.9-28.601,28.701-38.5,45.9
		c-7.601,13.199-15.5,27.1-19.8,41.801c-0.9,3.398-1.7,6.799-2.101,10.299C-1.096,430.829,1.004,443.729,8.304,453.928z"/>
	<path fill="#2B2B2B" d="M238.903,401.428c29-17.1,60.602-31,83.699-55.6c7-7.5,13.602-15.6,19.602-24.1
		c6.301-1.604,16.6-4.4,26.6-6c6.5-1,11.801-3.604,15.801-5c10.4-3.604,16.603-14.699,8.802-20.199
		c-7.802-5.5-10.001-11.302-15.699-13.302c-5.603-2.103-9.603,8.302-13.701,8.397c3.101,5.302,6.701,1.9,9.899,0.4
		c3.199-1.5,6.5,1.1,8.898,6c2.4,4.898,12,2.898,6.201,8.801c-2.4,2.4-12.701,7.299-24.102,10.199
		c-6.699,1.801-19.699,6.701-19.801,6.701c22.5-33.201,37-72.602,41.899-111.801c4-32.101,0.1-65.7-15.101-94.4
		c-9.102-17.4-22.102-32.9-33.701-48.8l-0.5,0.1c2.5-0.7,20.4,38.3,22.103,42.2c6.397,14.6,11.3,29.9,13.897,45.7
		c5.4,32.5,0.802,65.2-10,96.101c-5.897,16.899-12.6,34.799-21.6,50.299c-16.4,28.701-38,54.801-63.1,76.4L238.903,401.428z"/>
</g>
</svg>
