<?xml version="1.0" encoding="utf-8"?>
<!-- Generator: Adobe Illustrator 15.0.0, SVG Export Plug-In . SVG Version: 6.00 Build 0)  -->
<!DOCTYPE svg PUBLIC "-//W3C//DTD SVG 1.1//EN" "http://www.w3.org/Graphics/SVG/1.1/DTD/svg11.dtd">
<svg version="1.1" id="Layer_1" xmlns="http://www.w3.org/2000/svg" xmlns:xlink="http://www.w3.org/1999/xlink" x="0px" y="0px"
	 width="462.649px" height="383.917px" viewBox="0 0 462.649 383.917" enable-background="new 0 0 462.649 383.917"
	 xml:space="preserve">
<g>
	<path fill="#1C1C1C" d="M103.936,313.207c-4-0.5-7.601,4.301-8.301,10.801c-0.699,6.4,2,12,5.9,12.5c4,0.5,7.6-4.301,8.3-10.801
		C110.436,319.306,107.736,313.707,103.936,313.207z"/>
	<path fill="#2B2B2B" d="M187.436,292.107c2.3,4.699,51.898,6.6,71.999-1c20.1-7.699,35.399-23.4,21-33.4
		c-14.4-10-17.699-20.1-28.601-24.1c-10.899-4-20.5,13.199-28.7,13c5,9.301,13,3.801,19.4,1.6c6.601-2.199,12.699,2.6,16.5,11.1
		c3.8,8.602,19,2.201,10.601,15.5C259.435,291.107,217.135,290.306,187.436,292.107z"/>
	<path fill="#2B2B2B" d="M462.636,154.808c-3.4-8.5-6.201-17.3-10.5-25.399c-3.803-7.1-7.803-14-12.4-20.6
		c-6.801-10.2-14.801-19.1-24.1-27.1c-2.4-2.1-4.9-4.1-7.4-6.1c-31.101-24.9-71.5-35.9-110.4-23.9c-10.1,3.1-20.801,7.8-29.6,13.7
		c-10.701,7-21.5,13.8-32.301,20.7l-60.399,46.5c3.1-2.601,5.6-6.3,8.4-9.4c4.6-5.1,9.1-10.3,13.6-15.4c5.3-5.9,12.8-10.4,18.9-15.3
		c7.8-6.2,15.599-12.5,23.499-18.6c15.7-12.1,32.2-23.3,51-30c10.899-3.9,22.301-5.9,33.801-6.1c32.199-0.2,64.699,12.9,89.199,33.3
		c7.898,6.6,15.6,14.2,22.1,22.1c7.102,8.8,12.4,18.9,17.5,29.1c3.602,7.3,6.301,14.199,8,22.199
		C462.236,147.808,462.736,151.308,462.636,154.808z"/>
	<path fill="#D92425" d="M125.436,272.007c-0.7,1.5-1.801,2.699-4.4,4.199c-3.7,2.1-9.1,6.301-13.6,5.1
		c-2.7-0.697-2.5-2.799-4.301-4.197c-3.3-2.5-6.6-0.803-10.699-0.5c-8.2,0.6-16.301,0.299-24.2-2c-16.601-4.9,2.8-23.602,9.8-27
		c3.9-2,12.4-5.9,12.4-11.501c0-7-6.7-6.101-10.801-7.899c-4.199-1.9-5.3-8.301-2.3-12c3.601-4.4,14.2-7.101,13.5-14.5
		c-0.5-6.301-8.6-3.101-12.7-2.601c-3.8-4-2.5-8.399,2.101-10.2c2.399-0.9,5.7-1.101,7-3.699c2-3.601-0.9-7-4.8-5.5
		c-2.601-6.5-6.5-13.101-2.101-19.601c1.9-2.899,4.3-6.601,6.5-9.399c1.8-2.101,5.8-3.4,5.601-6.4c4-3.398,8.199-7.2,13.1-9.2
		c6.3-2.601,9.2-0.101,14.1,3.399c4,2.9,12.5,6.102,11.601,12.4c-0.7,5.2-7.5,7.6-10.2,11.5c-4.3,5.899,3.4,3.7,7.8,6.399
		c3.9,2.301,7.8,11.2,2,13.7c-3.3,1.4-9.1-3.7-11.5,0.101c-2,3.101,2.8,9.5,5.9,10c5,6.8,12.1-4.399,13.3-8.5
		c0.8-2.899,1.2-5.801,1.9-8.899c1-5.601,5.3-9.101,5.199-15c-0.199-5-1.399-8.201,3.9-11c3.7-2,8.2-2.101,12.3-2.301
		c9.101-0.3,6.9-8.199,13.5-12.8c-6.7-6.8,10.5-9.9,14.7-10.4c8.9-0.8,7.8,5.7,14.1,8.2c4.801,1.9,15,0.5,17.8-3.8
		c4.5-7-0.199-8.3-3.8-13.1c-8.5-11.1,11.3-9.1,17.8-11.4c-3.4-10.6,3-17.9,14.2-17.8c11.399,0.099,10.399,10.499,15.2,17.399
		c3.699,5.3,13.4-0.5,14.9,5.9c0.799,3.4,0.5,5.8,1.899,9.3c1.601,3.8,2.399,6.799,1.601,10.9c-2.801,15-6.201,33.7-18.701,43.7
		c-4.799,3.8-9.299,5.5-10.799-1.899c-1.4-7.301-0.301-15.2-1.201-22.601c-2.199,0.9-1.5,5.3-3.799,7.199
		c-2.301,2-6.101,2.101-9,2.201c-2.801,0.1-7.101-1-9.801,0.199c-3.3,1.398-2.4,5.301-2.6,9.398c-0.2,2.801-8.6,2.602-10.1,2.301
		c-3.8-0.801-7.2-3.398-11.2-3.801c-13-1.5-6.5,12.301,0.7,15.602c3.399,1.6,5.7,1,6.7,5c1.1,4.1-1.601,5.6-4.4,7.599
		c0.2,2.201,1.5,4.601,3.2,6.101c0,0,7.6-3.5,8.5-3.601c3.1-0.299,5.699,0.801,7.299,3.601c2.701,5,1.601,16.899-0.5,22
		c-4.1,10.101-14.199,13.7-24.199,14c-9.1,0.301-8.5,6.899-14.899,11.399c-3.601,2.5-7,1.4-10.9,0c-6.2-2.1-12.7-4.299-19.1-6.1
		c-2.101-8.5-2.601-25-14.601-24.201c-4.7,0.301-9.5,2.9-7.8,8.201c1.4,4.5,7.2,4.5,8.7,7.699c1,1.9-0.601,6.102-1.4,8
		c-1.5,4.102-3.399,3.199-5.899,5.699c-5.5,5.4,5.3,8.602,4.899,14.301c-0.5,6.4-12.2,7.699-16.7,6.5
		C126.036,269.306,125.835,270.806,125.436,272.007z"/>
	<polygon fill="#231F20" points="67.236,383.107 67.436,383.007 67.436,383.007 	"/>
	<path fill="#2B2B2B" d="M35.236,335.806c0.2,0.201,0.399,0.4,0.399,0.701c1.9,3.4-2,7.102-1.6,11c0.6,5.699,5.3,5.9,8.5,2.9
		c0.2-2.602,4.9-15.602,7.1-14.5c1.2,0.6,1.2,9.398,1.301,10.799c0.399,4.5,0.399,9.9,1.6,14.1c2.2,8.102,12.2-2.5,13.5-7.199
		c1.7-6.602-2-9-5.1-12.699c-2.5-3-2.7-2.301-0.801-6.201c0.801-1.6,3.9-5.199,5.601-5c3.8,0.301,4,6.1,8.3,5.5
		c6.9-0.9,12.8-16.299,2.5-13.4c-0.4-5.1,5.4-6.398,7.5-9.299c4-5.6,1-12.398-5.1-8.5c-1.7-7.701,4.8-9.701,5.8-15.398
		c0.8-4.303-12.601-2.701-14.601-2.701c-3.199,0.1-5,0-6.1-3.4c-0.7-2.5-1.2-5.6-1.4-8.199c-0.3-3.6,0.301-7,2-10.1
		c3.7-6.5,10.601-10,16.5-14.301c4.2-3.102,5.801-6,1.301-9.699c-5-4.101-11.7-7-17.7-9.101c-3.9-1.301-9-2.899-11.3,1.601
		c-2.801,5.399-1.7,13.6-1.7,19.299c0,7.801,0.5,16.201-1.4,24c-1.1,4.701-3.5,6.602-7,2.4c-1.899-2.299-3.2-5-4.6-7.5
		c-0.9-1.602-2.3-5.102-4.101-6c-4.199-2-4.5,11-4.699,13.1c-0.4,3.4,0.3,7.201-2.4,9.602c-2,1.699-5,2.398-6.1,5
		c-2.7,6.5,11.399,2.199,13.5,6.898c1.5,3.4-5.7,7.5-7.2,9c-4.3,4-2.601,5.301,1.2,7.4c3.3,1.898,1.699,3.1-0.4,6
		c-2.5,3.301-1.8,8.1,1.1,10.801C31.236,333.806,33.835,334.107,35.236,335.806z"/>
	<path fill="#2B2B2B" d="M173.736,132.107c-4.2-14.1-15.601-35.4-5-49.4c8.6-11.4,24.899-13.7,36.3-21.4c5.5-3.7,1.3-14.3,3.6-19.8
		c1.801-4.4,6.301-6.3,10.601-8c15.199-5.9,31.5-5.8,42.199-19.2c4.301-5.5,7.5-14.6,16.2-14.3c14.899,0.4,26.601,12.9,41.8,9
		c11.899-3,21.6-6,34.2-2.8c32.198,8.2,56.501,34,76.501,59c5.398,6.7,10.398,13.9,14.398,21.5c1.9,3.6,3.699,7.3,5.299,11.1
		c1.602,3.8,3,7.7,4.4,11.6c0.801,2.3,1.5,4.6,2.201,6.9c1.1,3.5,2.1,7.2,2.898,10.8c0.301,1.6,0.4,3.301,0.199,4.801
		c0.201-0.9-0.6-1.9-0.898-2.601c-0.4-1-0.699-2.101-1.102-3.101c-0.699-2.2-1.299-4.299-2.199-6.399c-1.699-4.2-3.5-8.3-5.199-12.5
		c-1.602-4-3.199-7.9-5.102-11.8c-0.5-1.2-1.1-2.2-1.699-3.3c-0.5-1-1-1.8-1.398-2.8c-0.701-1.3-1.4-2.6-2.102-3.7
		c-3.5-5.9-8.301-11-12.898-16.1c-3.102-3.2-6.102-6.5-9.301-9.7c-10.602-10.8-21.699-20.9-34-29.5c-6.799-4.8-14.1-9.2-21.499-12.9
		c-13.101-6.5-26-4.2-39-0.8c-6.101,1.6-11.301,2.7-17.601,1c-9-2.5-17.899-8.7-27.301-9.3c-2.1-0.1-3.399,1.4-4.399,2.9
		c-6,8.5-11.399,17.3-21.699,21.3c-11,4.2-25.101,4.4-34.899,11.4c-2.9,2.1-1.101,10.6-1.7,13.5c-2.6,14.3-23.2,16.6-33.9,21.1
		c-6.8,2.9-12.3,7.5-13.8,15C165.335,105.908,171.135,120.308,173.736,132.107z"/>
	<path fill="#2B2B2B" d="M97.936,341.007c-3.301-2.201-5-3.398-3.801-7.398c2.801-9.701,12.301-17.201,20.601-22.102
		c0.3,1.699,1.1,3.699,1.1,5.5c0,1.199-4.1,11.602-3.7,11.9l0,0c2-2.801,5.801-6.701,6.5-10.201c1-4.4,2.5-16.4-6-13.1
		c-11.399,4.5-18.8,13-20.8,25C90.835,336.408,92.536,339.007,97.936,341.007z"/>
	<path fill="#2B2B2B" d="M323.236,64.708c-6.301,2.6-10.601,5.8-3.5,10.8c-8,3-13.9-0.4-21.801,0c-4.8,0.2-14.8,5.4-16.199,10.6
		c-1.5,5.5,8,10.5,12.699,10.8c4.399,0.2,7.2-4.4,11.7-4.6c5-0.3,10.5,2.6,15.3,3.6c-5.3,2.9-10.601,6.3-15.601,9.9
		c-19.5,14.3-29.8,30.899-39.199,52.601l-36.899,81.099l44.5-77.899c6.199-11.399,12.199-23.2,21.1-32.601
		c24.801-25.8,59.9-42.7,95.699-32.6c36.9,10.5,65.201,49.299,59.102,87.899c-2.102,13-6.602,28.199-12.9,39.8
		c-7.1,13.1-17.799,24.199-24.9,37.301c6.803-7.602,13.102-15.701,19.4-23.701c3.801-4.799,8.9-9.6,12-14.699
		c9.9-16.399,16.5-35.7,16.301-55.2c-0.5-44.1-39.1-80.1-81.6-84.5c-6.602-0.7-13.201-0.6-19.701,0.2c-2.1,0.3-6.6,2-8.399,0.8
		c-1.601-1-2.601-5.5-1.5-7c1.5-1.9,5.801-1.1,7.899-1.2c5.101-0.4,11.601-2.6,6.201-8.2c-8.5-8.9-29.102-7.7-39.102-3.5
		C323.535,64.607,323.335,64.708,323.236,64.708z"/>
	<g>
		<path fill="#2B2B2B" d="M427.335,125.308c4,15.2-6,25.5-17,35.399c-5.5,4.5-11.1,9-16.6,13.5c-2.9,2.301-23.301,16.101-17.9,19.9
			c3.602,2.6,18.699-8,22.102-9.8c8.398-4.1,17.199-7.5,26.6-8c6.199-0.301,15.102,2,16.199,9.4c3,18.599-16.799,36.899-25.5,50.798
			c-9.699,15.102-13.898,28.801-17.1,46.201h-0.102c0.602-18.1,2.301-33.4,10.4-50.101l21.5-39.399c4.898-11.3-12.799-5.4-17.5-3.8
			c-11.6,3.8-21.1,11.8-32.699,15.3c-7.4,2.201-15-4.199-15.601-11.699c-0.801-9.5,8.699-16.8,15.5-21.5
			C396.236,160.107,430.136,151.008,427.335,125.308z"/>
	</g>
	<path fill="#2B2B2B" d="M182.736,59.808c-27.101,13.5-48.601,33.9-70.8,54l-14.4,15.101l-15,17.199c0.3-6,0-12.102-3.7-16.5
		c-8.1-9.8-17.1-9.1-31.399-20.3c-14.301-11.1-18.601,11.5-14.7,35.899c2.3,14.701,7.2,17.701,13.8,31.601
		c0.7,1.5,2.3,4.601,4.1,7.899c-4.399,6.4-8.5,12.9-12.1,19.1c-14.2,24.2-26.9,50.999-33.5,78.399c-2,8.4-3.5,16.9-4.4,25.5
		c-2,21.701-0.199,49.5,19,63.6c12.9,9.5,27.301,10.5,42.601,11c2.5,0.102,6.2-0.697,8.6,0c7.4,2.201,15,2.701,21.4-2.1l-0.2-0.299
		c-4-0.201-8.1,0.898-12,0.5l-3.6-0.4c22.5-7.201,44.6-15.1,64.3-28.6c10-6.9,19.3-14.9,27.2-24.201
		c3.8-4.5,7.199-9.299,10.199-14.299c2.801-4.801,6-10.801,7.5-15.9c-8.199,11.602-16.699,21-25.399,28.9c0-0.102,0-0.102,0-0.201
		c2.1-10.199-3.2-24.5-12.3-32.199c-2.601-2.201-13.601-10.701-21.5-7c14.199,0.602,23,15.602,23,15.799
		c7.3,14.9,1,21.201,1.3,31.602c-17.8,15.201-37.9,26.6-60,34.301c-16.8,5.799-36.3,10.5-53.7,4.699c-21.1-7-28.1-28.9-28.3-48.9
		c-0.101-5.699,0.2-11.398,0.8-17.1c3.2-28.299,15.2-53.799,29-78.3c4.4-7.899,9-15.7,14.1-23.2
		c21.601-32.799,48.4-63.9,53.101-68.799l38.6-40.8c17.601-14.4,35.3-28.7,52.9-43.1C192.335,55.007,187.536,57.408,182.736,59.808z
		 M74.236,155.707l-10.601,12.101c-3.199,3.7-6.399,7.801-9.5,12c-1.5-2.8-3-5.601-4.199-8.399c-5.601-12.8-14.601-29.5-10-43.8
		c5.3-16.3,8.399,4.3,16.5,4.8c8.1,0.5,14.5,5,16,12.801C73.036,148.607,73.335,152.408,74.236,155.707z"/>
	<path fill="#2B2B2B" d="M201.036,166.707c-1.7-7.1-5-13.6-11.5-13.699c-6.4-0.2-7.9,8.4-10.2,13.3c-1.899,4.399-2.3,9.601-7,9.801
		c-4.8,0.199-8-4.601-12.7-5.2c-13-1.699-27.199,26.399-27.899,36.899c-0.601,8.601,4.1,17.7,2.6,26.301
		c-1.5,7.101-7.1,7.001-10.7,11.8c-4.399,5.898-1.699,14.898,1.9,20.201c5,7.299,29.2,18.5,35.9,8.1c4.6-7-3.601-31.201,2.199-31.1
		c6.601,0,13.101,32,19.7,31.398c8.2-0.6,16.3-1,20.5-3.801c3.5-2.199-21.3-20.9-20.3-26.5c2-11,16.2-11.1,12.2-16.899
		c-4.5-6.399-26.601-11.899-23.5-21c4.6-13.601,32.2-2.601,30.7-21.899C203.036,180.207,202.635,173.107,201.036,166.707z"/>
	<path fill="#2B2B2B" d="M296.535,132.908c16.602-7.101,36.301,4.6,47.5,4.399c11.201-0.2,21.701-6,16.9-14.6
		c-4.8-8.7-4.3-15-8.699-19.5c-4.4-4.5-12.5,3.3-16.4,1.5c0.5,6.3,5.4,4.8,8.9,4.9c3.6,0.1,5.5,4,5.6,9.7c0,5.601,8.602,5.2,1.9,11
		C344.035,137.408,311.236,115.208,296.535,132.908z"/>
</g>
</svg>
