<?xml version="1.0" encoding="utf-8"?>
<!-- Generator: Adobe Illustrator 15.0.0, SVG Export Plug-In . SVG Version: 6.00 Build 0)  -->
<!DOCTYPE svg PUBLIC "-//W3C//DTD SVG 1.1//EN" "http://www.w3.org/Graphics/SVG/1.1/DTD/svg11.dtd">
<svg version="1.1" id="Layer_1" xmlns="http://www.w3.org/2000/svg" xmlns:xlink="http://www.w3.org/1999/xlink" x="0px" y="0px"
	 width="417px" height="504.5px" viewBox="0 0 417 504.5" enable-background="new 0 0 417 504.5" xml:space="preserve">
<path fill="#2B2B2B" d="M218.9,440.5c4.1-0.1,8.1,0.6,12,1.6c7.9,2,15.4,5.4,23.3,7.3c15,3.7,35.1,10.5,49.9,2.9
	c16.9-8.7-6.3-8.3-8.3-17c-1.9-8.7-8-14.8-16.9-15c-8.8-0.2-20.4,2-23.7-7.7c10,2.8,27.6-9.1,39.8-2.1c12.2,6.9,13.1,16.8,27.9,30.2
	c14.8,13.4-9.3,22.3-36.8,22.5c-16.5,0.1-20.6-4.6-37.1-9.2c-4.6-1.3-21.2-7-25.9-8.1c-4.7-1.1-10.3-0.5-14.7-2.9
	C208.9,443.3,217.5,440.5,218.9,440.5z"/>
<path fill="#010101" d="M121,447.8c-2.8,6-8.1,9.3-11.7,7.6c-3.5-1.7-4.2-7.9-1.3-13.9c2.8-6,8.1-9.3,11.7-7.6
	C123.4,435.6,123.9,441.9,121,447.8z"/>
<path fill="#D92627" d="M155.5,394.3c6.1-1.2,12.3,5.6,14.4,5.4c7.2-0.9,5.4-5.7,5.1-11.1c-0.7-9.9,4-4.9,9.9-11.7
	c6.3-7.2-1.7-8.1-2.3-14.8c-0.7-8.1,7.8-10.7,13.5-5.9c4.2,3.8,4,10,3.5,15.2c-1.2,12.5,4,17.1,14.7,23.4c11.3,6.6,14-3.1,25.3-3.3
	c15.8-0.3,33.5,6,38.5-15.7c2.4-10-1.5-18.2-13.3-14.8c-4.7-6.7,7.7-7.4,3.5-17.1c-1.6-3.7-11.8-13.4-7.6-17.8
	c2.6-2.7,10.2,17.1,23,17.2c11.4,0.1,28.3-20.2,32.8-11.3c3,5.9-5.3,15.2-1.4,19.9c6.1,7.1,20.4-5.6,24.2-9.7
	c0.1-0.1,0.1-0.1,0.1-0.1c4.2-4.7,8.1-9.9,11.7-15.1c5.4-8,15.7-23.4,11.2-34.2c-2-4.6-10.6-1.3-13.1-4.8c-4-5.7,2.8-14.3-1.9-20.5
	c-3.7-4.9-11.2-5.3-16.8-5.5c-4,0.8-7.2,2.8-8.2,7c-2.5,10.1-5.6,5.2-14.1,4.7c-6.4-0.4-9.2-0.4-7.6,7.6c1.9,9.6,0.6,16.1-11.5,14
	c-11.7-2-9.4-12.7-19.6-15.7c-3-0.9-10.7-1.8-13.7-0.6c-2.6,1-7.4,7.4-9.5,9.5c-5.7,5.7-7,5.6-14.2,3.5c-6.9-2-18.7-2.4-18.3,7.5
	c0.4,5.8-7,8.2-10,13.3c-2.1,3.6-4.3,8.3-6.4,10.9c-3.1,1-4.7,4.4-8.4,4c-3.5-0.4-9.7-8.4-9.3-11.3c0-0.7,1.2-3.9,1.8-4.1
	c5.2,0.2,11.9,9.4,14.9,0.6c2.7-8.7-5.7-9.6-6.4-16.8c-0.8-6.4,12-4.3,13.3-11.6c1.5-8-8.8-18.9-15.8-20.4
	c-7.9-1.7-20.8,2.9-26.5,8.8c-6.4,6.7-5.9,17.9-12.5,24.3c-6,5.9-13.1,3.4-20.5,2.5c2.3,10.2,7.7,12.3,14.5,18.6
	c5.1,4.7,5.4,6-1.6,10.8c-4.2,2.9-10.4,1.2-14.1,4.8c-10.3,10.2,12.9,13.1,5.7,23.9c-6.3,9.5-31.4,0.4-34.6,14.6
	c-4.8,20.8,28.1,17.2,34.2,27c1.4,2.4-0.1,3.2,3.1,4.6C138.9,405.5,147.2,396,155.5,394.3z"/>
<path fill="#2B2B2B" d="M221.1,16.4c11.5-2.4,22.9-6.2,34.5-5c13.5,1.5,26.5,7.1,38.3,13.9c13,7.6,25.5,16.6,35.1,28.2
	c10.2,12.4,15.3,27.8,21.9,42.3l-0.1,0.2l-30-34.7c-19.5-19-40.4-32.9-66.9-40.6L221.1,16.4L221.1,16.4z"/>
<polygon fill="#231F20" points="59.9,488.7 60.1,488.7 60.1,488.7 "/>
<g>
	<path fill="#2B2C2B" d="M291.3,105.1c-9.4,2.3-23,11-31.6,1.8c-12.5-13.3,2.9-34.3-0.9-50c-4.4-18.1-19.1-25.1-34.9-31.4l0.1-1.1
		c6.9,1.1,13.9,1.6,20.1,4.6c5.4,2.7,10.2,6.6,14.2,11.2c14.4,17,7.5,36.2,7.5,56.2c-0.1,1.3,1,3.1,2.5,3.3
		c9.4,1.3,18.4-4.5,27.8-5.1c13.9-1,27.6,3.4,39.7,9.9c11.5,6.1,24.7,15.7,26.3,29.3C347.6,112.7,316.8,98.5,291.3,105.1z"/>
</g>
<path fill="#2B2B2B" d="M81.6,380.4c11,1.9,14,5.3,14.5,15.2c0.4,5.1,2.2,7.1,7.2,9.2c4.5,2.1,14.7,5,5.6,8.9
	c-5.2,2.3-13.1,2.6-18.8,3.4c-2.9,0.4-12,0.1-9.1,4.9c2.2,3.8,11.1,2,14.3,0.5c3.1,3.8,11,8.7,1.5,11.3c-5.2,1.3-12.5-2.7-15.1,3.5
	c-1.3,2.9,3.1,13.7-1,15.2c-5.8,2.2-9.9-10.5-14.3-11.5c-7.7-1.7-8,12.8-14.7,13c-3,0-6.1-9-9.8-10.6c-5.9-2.6-11.6-2.6-11.1-10.9
	c0.6-9.5,6.9-2.3,11.6-5.2c3.4-2.1,2.9-7.7,0.1-10.1c-2.7-2.4-17.6-0.3-9.1-7.2c3-2.3,8.9-1.9,9-6.8c-9.6,0.9-4.3-6.8,0.7-9.5
	c7.9-4.3,10.7,4.6,16.1,7.7c2.5,1.5,16.6,3.7,14.5-2.6c-1.2-3.4-10.6-7.7-13.6-9.6c-4.1-2.7-7.1-9-3-13.6c1.8-2,9.6-4.9,12.3-3.8
	c3.9,1.6,0.9,5.8,3.5,8.1c1.6,1.5,3.8,0.9,5.9,0.6C79.6,380.3,80.5,380.3,81.6,380.4z"/>
<path fill="#2B2B2B" d="M185.8,417.4c2.4,3.6,4.1,3.1,8.3,2.4c4-0.8,7.2-1.7,10.7-3.1c4.2-1.7,12.7,4.2,14.6-1.7
	c0.6-2.1-0.6-4.9,0.7-6.8c3.1-4.7,11.3,2.8,15.3,2.9c5.3,0.1,8.2-5.7,11.4-9.1c6.9-7.3,3.4-14.7,0.4-22.8
	c-3.1-8.5,2.3-13.9,6.4-20.9c3.7-6.1,5.2-13.3-2.1-16.4c-4.9-2.1-19.5-7.5-13.2-14.7c4.7-5.3,8.4-10.6,0-14.5
	c-7.4-3.4-19.4-1.9-23,6.3c-0.5,1.4-0.3,3.7-1.4,4.7c-4.5,4-12.3-1.5-16.1,5.2c-2,3.4-0.1,7.6-1.1,11.2c-0.8,3-9.5,9-5.8,12.4
	c3.3,3,5.2,4.6,2.6,9.3c-2.1,3.8-1.8,5.3,0.2,9c1.3,2.5,0.4,5.6,1.6,7.5c4.4,7,4.9,7.4-3.5,10.8
	C181.6,393.2,180.5,409.9,185.8,417.4z"/>
<path fill="#2B2B2B" d="M344.8,216.3c-10.7,6.3,5.2,16.5-0.2,23.8c-3.6,4.9-14.6-4.5-19.6-4.5c-4.5,0,0.6,7.4-4.4,12.4
	c-2.6,2.5-21.5-3.5-21.4-0.9c0.2,3.2,2.9,7.5,5.6,12c2.1,3.6,21.2-4.6,23.7-1.2c2.1,3-13.5,7.5-15.5,12.4
	c-3,7.3,11.7,15.6,17.4,15.6c4.1,0,9.8-1.9,11.3-6.3c1.1-3.6-1-6.5,2.2-9.8c3.9-3.9,10.4-4.8,14.7-8.2c5.3-4.2,14.8-21.7,9.1-27.8
	c-2.1-2.2-5.7-2.1-7.4-4.7c-1.6-2.5,1-4.6,2.6-7.2c1.7-2.8,5.7-6.8,3.2-10c-2.4-3.3-7-2.7-11.4-1
	C350.8,212.4,346.9,214.7,344.8,216.3z"/>
<g>
	<path fill="#2B2C2B" d="M360.7,170.2c-5.2,25.8-25.1,40.1-47,52.1l-64.2,33.2c-11.9,6.4-22.4,11.6-30.9,22.1
		c8-11.1,18.3-17,29.9-24.2l62.7-36.8c4.8-2.7,9.5-5.5,14.2-8.2c6.3-3.6,13.1-6.7,18.2-12c16.2-16.8,17.8-36.2,14.6-58.2
		C360.5,149.2,363,158.9,360.7,170.2z"/>
</g>
<g>
	<path fill="#2B2C2B" d="M102,446.5c6.2-10.9,16.2-16.6,28.8-17c9.3-0.2,3.8,10.8,1.2,14.6c-1.9,3.1-6.9,5.6-9.8,7.6l0,0
		c3.2-4.1,7.6-8.3,8.2-13.7c0-0.1,0.2-2.1,0.2-2.1c-10,3.1-21,5.4-27.5,14.4c-2.4,3.4-1.1,5.2,1.2,8.3
		C99.8,454.8,99,451.8,102,446.5z"/>
</g>
<path fill="#2B2B2B" d="M109.4,237.9c8.7-9.8,7,5.8,15.4,9.1c8.4,3.3,13.2,8.4,11.3,13.6c-2,5.2-7,11.3,2.2,15.7
	c-0.5-6.5,15.9-13.7,11.6-22.6c-4.3-8.9-14.2-11.8-24.4-23.8s-25-0.2-31.7,15.8c-6.8,16-0.9,54.2,3.7,56.2
	C89.3,275.5,100.6,247.7,109.4,237.9z"/>
<path fill="#2B2B2B" d="M18.3,465.1c9.6,13.5,23.4,16.1,37.8,21.8c8,3.2,16.1,8.2,25,5.8c-2.2-1.8-5-2.3-7.6-3
	c-2.6-0.7-4.2-1.8-6.4-2.9c2.2,1.1,19.5,0.8,25.6,0.7c18.7-0.3,37.2-3,54.9-8.7c15-4.8,28.7-11.9,41-21.7
	c5.4-4.2,11.5-8.5,16.3-13.4c-6.2-4.5-30.8,19.9-36.2,21.1c0.6-4.9,3.4-9.8,4.2-14.8c2.8-16.7-6.8-29.2-22-34.5
	c5.2,4.4,9.6,9.7,12.7,15.7c2.9,5.5,2.6,12.1,2.3,18.2c-0.7,15.6-14.3,22.3-27.7,25.8c-7.1,1.8-14.3,3.3-21.5,4.5
	c-25,4-52.3,3.4-76-6.4c-10.1-4.1-19.5-11.5-23.2-22c-4-11.2-1-23.1,2.9-33.8c5.2-14.2,12.7-29.3,21.6-41.4
	c4.4-6,8.8-11.4,14.1-16.6c0.5,1.2,2.9,3.3,5,3.6c11,1.5,9.1-11.3,17.2-15.6c3.6-1.9,5.1,5,6.4,7.3c2.1,3.9,5.9,6.7,10.5,6
	c3.2-0.5,5.2-3.3,7.8-5c4.4-2.9,7.9-0.5,12.4,0.4c4.7,0.9,5.1-4.9,8-7c4-3.1,7.9-1.8,11.6,0.4c3.9,2.2,9.5,3.7,14,3.4
	c5.3-0.5,11.4-13.5,8.6-18.5c-0.6-1.1-5.9-5.4-4.7-7c0.9-1.4,3.7-1.5,5-2.7c3.8-3.6-2.2-9.7-6.3-7.7c-4,1.9-6.1-3.6-14-4.6
	c-6.4-0.7,26.7-6.6,4.6-9.7c-2.8-0.3,28.3-14.6,4.7-17.6c0.7-2.7,6.3-5.9,8.6-7.2c4.6-2.6,9.2-5.3,14-7.7
	c10.1-5.1,19.7-10.8,29.4-16.5c4.6-2.8,19.6-11,22-12.7c-1,4.9-1.4,9.9-1.6,14.9c-0.2,4.7,0.4,10.1-0.6,14.6c0.3-1.5,0.7-3,1-4.5
	c2.7-12.4,4.5-27.3,13-37.3c11.1-13,30.9-10.4,46-12.9c8.8-1.5,14.1-6.1,18.2-13.8c3.2-6,5.8-9.8,13.1-9.1c6.3,0.6,11.8,1.3,18,0.3
	c5.3-0.8,11.7-1.5,14.6-6.6c1.6-2.7,2.3-5.8,3.6-8.6c1.7-3.5,4-6.5,6.3-9.6c5.8-7.7,5.3-13.9,2-22.7c2.4,8.1,1.9,13.2-4.5,19
	c-2.6,2.4-5.2,4.7-7.2,7.7c-1.7,2.6-2.8,5.7-4.7,8.1c-4,5-10.8,4.7-16.5,4.6c-5.9-0.1-11.8-0.6-17.7-0.4c-5.6,0.3-9.1,2.4-11.6,7.5
	c-2.6,5.5-4.4,11.2-10.4,13.9c-5.2,2.4-11.6,2.5-17.3,3.2c-5.9,0.7-11.9,0.9-17.7,2.1c-14.1,2.8-21.3,13-25.1,26.2
	c-1,0.4-2.1,0.9-3.1,1.4c-5.1,2.4-10.3,4.7-15.5,7.1c-17.6,8-35,16.4-52.2,25.3c-8.5,4.4-16.9,8.3-24.7,13.9
	c-10.5,7.3-21.8,14.2-31.5,22.4c-8.5,7.2-16,15.9-23.9,23.7c-14.1,13.9-28.6,28.7-38.5,45.9c-7.6,13.2-15.5,27.1-19.8,41.8
	c-0.9,3.4-1.7,6.8-2.1,10.3C8.9,442,11,454.9,18.3,465.1z"/>
<path fill="#2B2B2B" d="M248.9,412.6c29-17.1,60.6-31,83.7-55.6c7-7.5,13.6-15.6,19.6-24.1c6.3-1.6,16.6-4.4,26.6-6
	c6.5-1,11.8-3.6,15.8-5c10.4-3.6,16.6-14.7,8.8-20.2s-10-11.3-15.7-13.3c-5.6-2.1-9.6,8.3-13.7,8.4c3.1,5.3,6.7,1.9,9.9,0.4
	s6.5,1.1,8.9,6c2.4,4.9,12,2.9,6.2,8.8c-2.4,2.4-12.7,7.3-24.1,10.2c-6.7,1.8-19.7,6.7-19.8,6.7c22.5-33.2,37-72.6,41.9-111.8
	c4-32.1,0.1-65.7-15.1-94.4c-9.1-17.4-22.1-32.9-33.7-48.8l-0.5,0.1c2.5-0.7,20.4,38.3,22.1,42.2c6.4,14.6,11.3,29.9,13.9,45.7
	c5.4,32.5,0.8,65.2-10,96.1c-5.9,16.9-12.6,34.8-21.6,50.3c-16.4,28.7-38,54.8-63.1,76.4L248.9,412.6z"/>
</svg>
