<?xml version="1.0" encoding="utf-8"?>
<!-- Generator: Adobe Illustrator 15.0.0, SVG Export Plug-In . SVG Version: 6.00 Build 0)  -->
<!DOCTYPE svg PUBLIC "-//W3C//DTD SVG 1.1//EN" "http://www.w3.org/Graphics/SVG/1.1/DTD/svg11.dtd">
<svg version="1.1" id="Layer_1" xmlns="http://www.w3.org/2000/svg" xmlns:xlink="http://www.w3.org/1999/xlink" x="0px" y="0px"
	 width="396.916px" height="482.159px" viewBox="9.995 11.171 396.916 482.159"
	 enable-background="new 9.995 11.171 396.916 482.159" xml:space="preserve">
<path fill="#2B2B2B" d="M218.9,440.5c4.101-0.1,8.101,0.6,12,1.6c7.899,2,15.399,5.4,23.3,7.303c15,3.697,35.1,10.5,49.899,2.898
	c16.899-8.701-6.3-8.301-8.3-17c-1.899-8.701-8-14.801-16.899-15c-8.801-0.201-20.399,2-23.7-7.701c10,2.803,27.6-9.1,39.801-2.1
	c12.199,6.9,13.1,16.801,27.899,30.201c14.8,13.398-9.3,22.299-36.8,22.5c-16.5,0.1-20.6-4.602-37.1-9.201
	c-4.601-1.299-21.201-7-25.9-8.1c-4.699-1.102-10.301-0.5-14.7-2.9C208.9,443.3,217.5,440.5,218.9,440.5z"/>
<path fill="#010101" d="M121,447.8c-2.8,6-8.1,9.299-11.7,7.602c-3.5-1.701-4.2-7.9-1.3-13.9c2.8-6,8.1-9.301,11.7-7.6
	C123.4,435.599,123.9,441.9,121,447.8z"/>
<path fill="#FF9729" d="M155.5,394.3c6.1-1.201,12.3,5.602,14.4,5.4c7.2-0.9,5.4-5.701,5.1-11.102c-0.7-9.898,4-4.898,9.9-11.699
	c6.3-7.199-1.7-8.102-2.3-14.801c-0.7-8.1,7.8-10.699,13.5-5.898c4.199,3.799,4,10,3.5,15.199c-1.2,12.5,4,17.1,14.699,23.398
	c11.301,6.602,14-3.1,25.301-3.299c15.801-0.301,33.5,6,38.5-15.701c2.4-10-1.5-18.199-13.301-14.799
	c-4.699-6.701,7.701-7.4,3.5-17.1c-1.6-3.701-11.799-13.4-7.6-17.803c2.6-2.697,10.2,17.102,23,17.201
	C295.1,343.4,312,323.099,316.5,332c3,5.9-5.301,15.201-1.4,19.9c6.102,7.1,20.4-5.602,24.199-9.699
	c0.102-0.102,0.102-0.102,0.102-0.102c4.199-4.699,8.1-9.898,11.699-15.1c5.4-8,15.699-23.4,11.199-34.201
	c-2-4.6-10.6-1.299-13.1-4.799c-4-5.701,2.801-14.301-1.9-20.5c-3.699-4.9-11.199-5.301-16.799-5.5c-4,0.799-7.201,2.799-8.201,7
	c-2.5,10.1-5.6,5.199-14.1,4.699c-6.4-0.4-9.199-0.4-7.601,7.6c1.899,9.602,0.601,16.102-11.5,14
	c-11.699-2-9.399-12.699-19.601-15.699c-3-0.898-10.699-1.801-13.699-0.6c-2.6,1-7.399,7.399-9.5,9.5c-5.7,5.699-7,5.6-14.2,3.5
	c-6.899-2-18.699-2.4-18.3,7.5c0.4,5.799-7,8.199-10,13.299c-2.1,3.602-4.301,8.301-6.4,10.9c-3.1,1-4.7,4.398-8.4,4
	c-3.5-0.4-9.7-8.4-9.3-11.299c0-0.701,1.2-3.9,1.8-4.102c5.2,0.199,11.9,9.4,14.9,0.602c2.7-8.701-5.7-9.602-6.4-16.802
	c-0.8-6.399,12-4.3,13.3-11.601c1.5-8-8.8-18.899-15.8-20.399c-7.9-1.699-20.8,2.899-26.5,8.801c-6.4,6.699-5.9,17.899-12.5,24.3
	c-6,5.899-13.1,3.399-20.5,2.5c2.3,10.201,7.7,12.301,14.5,18.6c5.1,4.701,5.4,6-1.6,10.801c-4.2,2.9-10.4,1.199-14.1,4.801
	c-10.3,10.199,12.9,13.1,5.7,23.898c-6.3,9.5-31.4,0.4-34.6,14.602c-4.8,20.801,28.1,17.199,34.2,27c1.4,2.398-0.1,3.199,3.1,4.6
	C138.9,405.5,147.2,396,155.5,394.3z"/>
<path fill="#2B2B2B" d="M221.1,16.4c11.5-2.4,22.9-6.2,34.5-5c13.5,1.5,26.5,7.1,38.301,13.9c13,7.6,25.5,16.6,35.1,28.2
	c10.201,12.4,15.301,27.8,21.9,42.3l-0.102,0.2l-30-34.7c-19.5-19-40.398-32.9-66.898-40.6L221.1,16.4L221.1,16.4z"/>
<polygon fill="#231F20" points="59.9,488.701 60.1,488.701 60.1,488.701 "/>
<g>
	<path fill="#2B2C2B" d="M291.299,105.1c-9.398,2.3-23,11-31.6,1.8c-12.5-13.3,2.899-34.3-0.9-50C254.4,38.8,239.7,31.8,223.9,25.5
		L224,24.4C230.9,25.5,237.9,26,244.1,29c5.4,2.7,10.199,6.6,14.199,11.2c14.4,17,7.5,36.2,7.5,56.2c-0.1,1.3,1,3.1,2.5,3.3
		c9.4,1.3,18.4-4.5,27.801-5.1c13.9-1,27.602,3.4,39.699,9.9c11.5,6.1,24.701,15.7,26.301,29.3
		C347.6,112.7,316.799,98.5,291.299,105.1z"/>
</g>
<path fill="#2B2B2B" d="M81.6,380.4c11,1.898,14,5.301,14.5,15.199c0.4,5.102,2.2,7.102,7.2,9.199c4.5,2.102,14.7,5,5.6,8.9
	c-5.2,2.301-13.1,2.6-18.8,3.398c-2.9,0.4-12,0.102-9.1,4.9c2.2,3.801,11.1,2,14.3,0.5c3.1,3.801,11,8.701,1.5,11.301
	c-5.2,1.299-12.5-2.701-15.1,3.5c-1.3,2.9,3.1,13.699-1,15.199c-5.8,2.201-9.9-10.5-14.3-11.5c-7.7-1.699-8,12.801-14.7,13
	c-3,0-6.1-9-9.8-10.6C36,440.8,30.3,440.8,30.8,432.5c0.6-9.5,6.9-2.299,11.6-5.199c3.4-2.1,2.9-7.701,0.1-10.1
	c-2.7-2.4-17.6-0.301-9.1-7.201c3-2.299,8.9-1.9,9-6.799c-9.6,0.898-4.3-6.801,0.7-9.5c7.9-4.301,10.7,4.6,16.1,7.699
	c2.5,1.5,16.6,3.699,14.5-2.602c-1.2-3.398-10.6-7.699-13.6-9.6c-4.1-2.699-7.1-9-3-13.602c1.8-2,9.6-4.898,12.3-3.799
	c3.9,1.602,0.9,5.799,3.5,8.102c1.6,1.5,3.8,0.898,5.9,0.6C79.6,380.3,80.5,380.3,81.6,380.4z"/>
<path fill="#2B2B2B" d="M185.8,417.4c2.4,3.6,4.1,3.1,8.3,2.398c4-0.799,7.199-1.699,10.699-3.1C209,415,217.5,420.9,219.401,415
	c0.6-2.1-0.602-4.9,0.699-6.801c3.102-4.699,11.301,2.801,15.301,2.898c5.301,0.102,8.199-5.697,11.398-9.1
	c6.9-7.299,3.4-14.699,0.4-22.799c-3.101-8.5,2.301-13.9,6.399-20.9c3.7-6.1,5.2-13.301-2.101-16.398
	c-4.899-2.102-19.5-7.5-13.199-14.701c4.699-5.299,8.4-10.602,0-14.5c-7.399-3.4-19.399-1.9-23,6.301
	c-0.5,1.4-0.301,3.699-1.399,4.699c-4.5,4-12.3-1.5-16.101,5.201c-2,3.398-0.1,7.6-1.1,11.197c-0.8,3-9.5,9-5.8,12.4
	c3.3,3,5.2,4.6,2.6,9.301c-2.1,3.799-1.8,5.299,0.2,9c1.3,2.5,0.4,5.602,1.6,7.5c4.401,7,4.901,7.4-3.5,10.799
	C181.6,393.201,180.5,409.9,185.8,417.4z"/>
<path fill="#2B2B2B" d="M344.799,216.3c-10.699,6.3,5.201,16.5-0.199,23.8C341,245,330,235.6,325,235.6c-4.5,0,0.6,7.399-4.4,12.399
	c-2.6,2.5-21.5-3.5-21.398-0.899c0.199,3.2,2.898,7.5,5.6,12c2.101,3.601,21.199-4.601,23.699-1.199c2.101,3-13.5,7.5-15.5,12.399
	c-3,7.3,11.701,15.601,17.4,15.601c4.1,0,9.801-1.899,11.301-6.301c1.1-3.601-1-6.5,2.199-9.8c3.898-3.899,10.398-4.801,14.699-8.2
	c5.301-4.199,14.801-21.7,9.102-27.8c-2.102-2.2-5.701-2.1-7.4-4.7c-1.6-2.5,1-4.6,2.601-7.2c1.699-2.8,5.699-6.8,3.199-10
	c-2.399-3.3-7-2.7-11.399-1C350.799,212.4,346.9,214.7,344.799,216.3z"/>
<g>
	<path fill="#2B2C2B" d="M360.7,170.2c-5.199,25.8-25.101,40.1-47,52.1L249.5,255.5c-11.9,6.4-22.4,11.601-30.9,22.101
		c8-11.101,18.301-17,29.9-24.199l62.699-36.8c4.801-2.7,9.5-5.5,14.2-8.2c6.3-3.6,13.101-6.7,18.199-12
		c16.2-16.8,17.801-36.2,14.601-58.2C360.5,149.2,363,158.9,360.7,170.2z"/>
</g>
<g>
	<path fill="#2B2C2B" d="M102,446.5c6.2-10.9,16.2-16.6,28.8-17c9.3-0.199,3.8,10.801,1.2,14.6c-1.9,3.102-6.9,5.602-9.8,7.602l0,0
		c3.2-4.102,7.6-8.299,8.2-13.699c0-0.1,0.2-2.1,0.2-2.1c-10,3.1-21,5.398-27.5,14.398c-2.4,3.4-1.1,5.199,1.2,8.299
		C99.8,454.8,99,451.8,102,446.5z"/>
</g>
<path fill="#2B2B2B" d="M109.4,237.9c8.7-9.8,7,5.801,15.4,9.1c8.4,3.301,13.2,8.4,11.3,13.601c-2,5.2-7,11.301,2.2,15.7
	c-0.5-6.5,15.9-13.7,11.6-22.6c-4.3-8.9-14.2-11.801-24.4-23.801s-25-0.2-31.7,15.801c-6.8,16-0.9,54.199,3.7,56.199
	C89.3,275.5,100.6,247.701,109.4,237.9z"/>
<path fill="#2B2B2B" d="M18.3,465.099c9.6,13.5,23.4,16.102,37.8,21.803c8,3.197,16.1,8.197,25,5.799c-2.2-1.799-5-2.299-7.6-3
	c-2.6-0.699-4.2-1.799-6.4-2.9c2.2,1.102,19.5,0.801,25.6,0.701c18.7-0.301,37.2-3,54.9-8.701c15-4.799,28.7-11.898,41-21.699
	c5.4-4.199,11.5-8.5,16.3-13.398c-6.2-4.5-30.8,19.898-36.2,21.1c0.6-4.898,3.4-9.801,4.2-14.801c2.8-16.699-6.8-29.199-22-34.5
	c5.2,4.4,9.6,9.701,12.7,15.701c2.9,5.5,2.6,12.1,2.3,18.199c-0.7,15.6-14.3,22.301-27.7,25.801c-7.1,1.799-14.3,3.299-21.5,4.5
	c-25,4-52.3,3.398-76-6.4c-10.1-4.1-19.5-11.5-23.2-22c-4-11.201-1-23.1,2.9-33.801c5.2-14.199,12.7-29.299,21.6-41.4
	c4.4-6,8.8-11.398,14.1-16.6c0.5,1.201,2.9,3.301,5,3.6c11,1.5,9.1-11.299,17.2-15.6c3.6-1.9,5.1,5,6.4,7.301
	c2.1,3.9,5.9,6.699,10.5,6c3.2-0.5,5.2-3.301,7.8-5c4.4-2.898,7.9-0.5,12.4,0.4c4.7,0.898,5.1-4.9,8-7c4-3.102,7.9-1.801,11.6,0.398
	c3.9,2.199,9.5,3.699,14,3.4c5.3-0.5,11.4-13.5,8.6-18.5c-0.6-1.1-5.9-5.4-4.7-7c0.9-1.4,3.7-1.5,5-2.701
	c3.8-3.6-2.2-9.699-6.3-7.699c-4,1.9-6.1-3.6-14-4.6c-6.4-0.701,26.7-6.601,4.6-9.701c-2.8-0.299,28.3-14.6,4.7-17.6
	c0.7-2.699,6.3-5.9,8.6-7.199c4.6-2.601,9.2-5.301,14-7.701c10.1-5.101,19.7-10.799,29.4-16.5c4.601-2.799,19.601-11,22-12.699
	c-1,4.9-1.399,9.9-1.601,14.9c-0.2,4.699,0.4,10.1-0.6,14.6c0.299-1.5,0.699-3,1-4.5c2.699-12.4,4.5-27.3,13-37.3
	c11.1-13,30.898-10.4,46-12.9c8.799-1.5,14.1-6.1,18.199-13.8c3.199-6,5.801-9.8,13.1-9.1c6.301,0.6,11.801,1.3,18,0.3
	c5.301-0.8,11.701-1.5,14.601-6.6c1.601-2.7,2.301-5.8,3.601-8.6c1.7-3.5,4-6.5,6.301-9.6c5.799-7.7,5.299-13.9,2-22.7
	c2.399,8.1,1.899,13.2-4.5,19c-2.601,2.4-5.201,4.7-7.201,7.7c-1.699,2.6-2.799,5.7-4.699,8.1c-4,5-10.801,4.7-16.5,4.6
	c-5.898-0.1-11.801-0.6-17.699-0.4c-5.602,0.3-9.102,2.4-11.602,7.5c-2.6,5.5-4.398,11.2-10.398,13.9
	c-5.199,2.4-11.602,2.5-17.301,3.2c-5.898,0.7-11.898,0.9-17.699,2.1c-14.102,2.8-21.301,13-25.102,26.2c-1,0.4-2.1,0.9-3.1,1.4
	c-5.101,2.4-10.3,4.699-15.5,7.1c-17.6,8-35,16.4-52.2,25.301c-8.5,4.399-16.9,8.299-24.7,13.899c-10.5,7.3-21.8,14.199-31.5,22.399
	c-8.5,7.199-16,15.9-23.9,23.699c-14.1,13.9-28.6,28.701-38.5,45.9c-7.6,13.199-15.5,27.1-19.8,41.801
	c-0.9,3.398-1.7,6.799-2.1,10.299C8.9,442,11,454.9,18.3,465.099z"/>
<path fill="#2B2B2B" d="M248.9,412.599c29-17.1,60.601-31,83.699-55.6c7-7.5,13.601-15.6,19.601-24.1c6.301-1.602,16.6-4.4,26.6-6
	c6.5-1,11.801-3.602,15.801-5c10.4-3.602,16.602-14.699,8.801-20.199s-10-11.301-15.699-13.301
	c-5.602-2.102-9.602,8.301-13.701,8.398c3.101,5.301,6.701,1.9,9.9,0.4s6.5,1.1,8.898,6c2.4,4.898,12,2.898,6.201,8.801
	c-2.4,2.4-12.701,7.299-24.101,10.199c-6.7,1.801-19.7,6.701-19.801,6.701c22.5-33.201,37-72.602,41.899-111.801
	c4-32.1,0.1-65.7-15.1-94.4c-9.102-17.4-22.102-32.9-33.701-48.8l-0.5,0.1c2.5-0.7,20.4,38.3,22.102,42.2
	c6.398,14.6,11.3,29.9,13.898,45.7c5.4,32.5,0.801,65.2-10,96.101c-5.898,16.899-12.6,34.799-21.6,50.299
	c-16.4,28.701-38,54.801-63.1,76.4L248.9,412.599z"/>
</svg>
