<?xml version="1.0" encoding="utf-8"?>
<!-- Generator: Adobe Illustrator 15.0.0, SVG Export Plug-In . SVG Version: 6.00 Build 0)  -->
<!DOCTYPE svg PUBLIC "-//W3C//DTD SVG 1.1//EN" "http://www.w3.org/Graphics/SVG/1.1/DTD/svg11.dtd">
<svg version="1.1" id="Layer_1" xmlns="http://www.w3.org/2000/svg" xmlns:xlink="http://www.w3.org/1999/xlink" x="0px" y="0px"
	 width="639.543px" height="557.656px" viewBox="213.674 -188.654 639.543 557.656"
	 enable-background="new 213.674 -188.654 639.543 557.656" xml:space="preserve">
<g>
	<path fill="#1C1C1C" d="M748.8,239.1c0.7-3.7,6.601-6.5,13.3-6.4c6.801,0.1,11.9,3.1,11.2,6.8c-0.5,3.6-6.7,6.5-13.5,6.6
		C753.1,246,748.2,242.8,748.8,239.1z"/>
	<g>
		<path fill="#2B2B2B" d="M778.7,243.5c0-4.1-0.101-6.4-4.3-7.9c-11-3.9-21.5,0.7-31.7,4l1.5,1.7c4,4.3,10.1,7.1,10.1,7.1
			c-3.7,0-4.1,0.6-7.6-0.8c-4.5-1.8-16-8-8.3-13.3c10.6-7.2,22.399-8.3,34.399-2.6C778.8,234.5,780.1,237.6,778.7,243.5z"/>
	</g>
	<path fill="#D92425" d="M849.8,180.4c-1.399-2.4-3.2-5-4.899-7.1c-1.9-2.2-3.801-4.3-5.7-6.5c-1.2-1.5-2.101-2.1-2.2-4
		c0-1.8,0-3.5-0.1-5.2c-0.2-3.1-2.9-5.8-4.9-8c-2.5-2.6-5.6-4.7-8.9-6.3c-1-0.5-2.199-1-3.3-1.2c-0.6-0.1-1.8,0.3-2.3,0
		c3.4,1.5,6.3,3.7,8.7,6.5c2.2,2.6,3.1,5.5,3.399,8.9c-3.5-3.6-7.6-6.7-11.399-9.9c-3.9-3.3-8.2-6.1-12.601-8.9
		c-3.1-1.9-6.3-3.8-9.399-5.5c-12.3-6.6-25.3-11.8-38.601-15.9c-13.899-4.2-28.1-7.3-42.3-10.4c-29.899-6.5-68.5-17.3-116.6-14.5
		c-35.9,2.2-83.101,5.3-126.7,2.9c-27.9-1.5-56.4-5.1-82.9-14.6c-4.1-1.5-18.8-6-33.3-13.7c-41.1-21.8-64.4-64.7-66.7-110.4
		c-0.6-11.7,0-24.2,2.4-35.6c1.7-8,4.8-15.5,7.7-23.1c2.4-6,6-13.6,2.9-20c-2.8-5.6-11.2-0.9-14.9,1.5c-4.1,2.8-10.7,9-15.2,17.5
		c-4.5,8.6-10.4,22-11.6,31.5c-0.5,4.1,3.5,4.8,1.3,8.4c5.9-14.2,11.9-28.8,20.6-41.6c0.8-1.2,4.8-8,6.9-7.3c2,0.9-0.3,7.6-0.5,9
		c-3.4,14-7.9,27.7-8.9,42.3c-1,14.9,1.5,30,5.2,44.4c3.4,13.5,8.3,26.4,13.9,38.9c5.7,12.5,15.1,22.7,27,33.8
		c-7.5,3.8-2.6,13.9,0.8,18.9c8.3,12.3,18.1-4.5,29.6,3.5c11.4,8-5.7,7.3,5.3,17.5c11,10.2,12.101,5.8,30.7,4.1
		c18.7-1.6,22.9,8,33.601,17.2c10.699,9.1,4.6,15.3,23.899,22.2c19.3,6.9,16.4-22.1,19.5-27.3c3-5.1,9.601-10.8,17.3-10.1
		c26.101,4.1,54.4,13.7,78,12.4c38.2-1.8,62.601-4.3,87.801-3.3c-13.801,4.8-25.2,13.2-2.4,17.8c29.2,5.9,64.7,7.7,53.1,16.8
		c-11.699,9-27.199,0.4-22,15.4c5.2,15,30.5,8.1,24.2,21.3c-6.3,13.3-16.6,26.5,10.7,21c14-4.3,17.3-0.5,27.4,4.2
		c10,4.6,21.899,17.3,34.6,8.9c12.7-8.3,30.8,1.3,35.8-13.2s-18.1-10.5-14.899-21.5c3.199-11.1,17.8-20.6-3.2-23.5
		s-29.4,10.2-30.8-8.6c-0.5-6.7-3.601-12.9-4.4-19.4c0.1,0.2,4.2,0.9,4.6,1c1.601,0.3,3.2,0.7,4.7,1.1c3.1,0.7,6.2,1.6,9.2,2.6
		c7.7,2.4,15.1,5.8,22.2,9.7c6.3,3.5,12.1,7.6,17.7,12.1c5.6,4.5,11.1,9.2,16.1,14.5c4.4,4.7,8.3,10.1,10.2,16.3
		c0.8,2.7,1.3,5.5,1.5,8.3c0.2,3.4-0.9,20.5-1,21.7c-0.101,0.1,0,0.6,0,0.6c5.5-7.5,9-21.4,6.899-30.8
		C852.1,185.2,849.9,180.4,849.8,180.4z"/>
	<path fill="#2B2B2B" d="M539.9,170.1c9.1-2.2,8.6,8.3,14.899,13.7c6.101,5.5,11.5,14.7,13.9,20.5c2.3,5.7,10.6,11.6,17.6,2.1
		s4-12.9,13.2-13.7c9.3-0.9,16.3,14.6,27.6,3.3c11.4-11.5-3.6-15,4.5-18.7c8.301-3.7,28.601-7.4,24.801-9.9
		c-3.801-2.4-10.4-11-6-15.8c4.399-4.8,1.6-15.8-10.801-16.9c-12.6-1.1-24.3,3.9-32.199-3.3c-7.7-7.1-27.9-4.5-36.601-3.2
		c-8.899,1.2-16.5-6.1-32.7-2.4c-16,3.8-33.3,10.9-28.5,16.5c4.9,5.6,25.7,6,24.4,14.2C532.3,164.7,531.8,172.1,539.9,170.1z"/>
	<path fill="#2B2B2B" d="M382.7,132.1c-1.601,0.3-3.2,0.6-4.7,0.7c-4.6,0.2-9.3,0.3-14-0.1c-9.2-0.7-18-3.4-25.9-8.3
		c-20.399-12.8-33-36.4-44-57c-12-22.2-23-44.8-34.2-67.3c-0.6-1-7-11.8-6.1-12.8c0.4-0.5,5.2,6.4,5.6,7.1
		c13.8,19.2,27.4,38.6,41.2,57.8c3.1,4.3,7.7,9,8.8,14.2c0.9,4.5,0.1,9.6,2.5,13.7c3.9,6.8,13.4,12.1,17.5,18.7
		c4.8,7.5,10.1,14.6,19.3,16.4c9,1.7,18.2-0.6,27.2,1c8.6,1.6,17,5.2,24.699,9.3c18.2,9.7,33.601,26,55,28.4
		c15,1.7,21.4-11.3,36.301-8.4c16.699,3.2,37.199,25.4,44.3,39.8c1.7,3.5,6.6,12.2,4.2,16.4c-2.2,3.8-7.801,0.3-10.5-1.2
		c-7.301-4-14.9-8.5-21.5-13.5c-6-4.6-7.5-11.8-11.5-17.7c-5-7.6-11.4-3.6-17.801-0.2c-4.899,2.7-10.5,2-15.899,2
		c-6.601,0.1-13.2,0.8-19.9,1.7c-3.7,0.5-6.7,2.2-10.1,0c-5.3-3.3-10.7-8.1-15.2-12.6c-3.8-3.9-4.5-7.6-6.8-12.2
		c-2.8-5.6-8.9-9.8-13.8-13.2c-3.601-2.5-5.601-4.1-10-3.8C385.9,131.5,384.3,131.8,382.7,132.1z"/>
	<path fill="#2B2B2B" d="M699.7,290.2c-18.5,18.5-28.5,44.1-48.7,60.2c-22,17.3-52.7,23.1-73.6,15C571.6,363.1,561.6,355.2,563,346
		c3.2-21.8,21.3-43.7,43.4-42.2c14.8,1.5-3.4,5.8-9.5,11.3C590.3,321,594.8,330.4,588.8,336c-4.399,4.1-14,10.8,2.9,16.4
		c8,2.699,17.5,2.399,27,0.699c16.6-3,23.2-2.199,35.3-14.699c10.2-12.101,20.6-24.101,30.7-36.101
		C689.6,298.2,694.6,294.2,699.7,290.2z"/>
	<path fill="#D92425" d="M675.5,94.3c-10.9-3.5-22.2-6.8-32-13c-4.5-2.9-7.2-8.6-11.9-12c-6-4.6-14-7.2-18.8-12.1
		c-5.6-5.8-7.1-11.8-14.5-15.6c-7.6-3.9-19.7-9.2-26.7-0.4c-3.8,4.6-5.199,8.6-3.1,14.7c1.7,4.8,4.1,11.1,6.8,14.9
		c6.5,9.1,16,5.2,17.9,14.8c2.399,12-24.101-4.1-26.4-6.1c-8.399-7.5-17.3-19.1-14-31.1c4.101-14.5,21.8-20.9,35.4-18.6
		c17.6,3.1,29.7,18.5,41.399,30.5C643.3,74.3,658.4,84.9,675.5,94.3z"/>
	<path fill="#2B2B2B" d="M838.1,234.4c0.101-0.1,0-0.1,0.101-0.2c0.6-3.4,3-6.2,4.7-9c0.8-1.4,3.1-4.7,2.8-6.6
		c-0.5,0.6-2.7,3.1-3.101,3.5c-1.199,1.4-2.399,2.6-3.6,3.9c-2.8,2.7-5.9,5.2-8.8,7.8c-3.8,3.4-7.7,6.4-12.601,8.1
		c-6,2-12.6,2.8-18.399,5.5c-9.2,4.3-14,10.1-27.5,14.2c-4.7,1.4-24.5,0.2-29.8,1.6c-3.301,0.8-6.7,3.2-9.7,4.8
		c-4.3,2.3-8.9,4.1-13.9,4.5c-3,0.2-6-0.1-9-0.3c-3.1-0.2-6.2-0.6-9.2-1.7c-5.1-1.6-12.5-5.1-13.399-10.9
		c-0.601-3.3,1.399-6.3,3-9.1c2-3.5,3.8-6.9,5.2-10.6c-0.301,0.8-1.601,1.9-2.301,2.5c-0.899,1-1.8,1.8-2.699,2.7
		c-1.9,1.8-3.7,3.7-5.101,5.7c-2.3,3.4-3.8,7.3-4,11.4c-0.3,9.4,6.2,18,14.9,21.2c2.6,1,5.399,1.4,8.1,1.7
		c6.101,0.4,11.7-0.1,17.601-1.6c5.899-1.4,11.699-3.3,17.399-5.1c3.101-1,6.4-2,9.601-2.8c13.6-3.4,27.1-6.4,40-11.6
		c15.699-6.3,29.8-12.6,42.699-23.9c4.601,6.9-5.6,14.3-10,17.8c6.4-1.1,12.7-8,15.4-13.5C838.2,241.3,837.6,237.7,838.1,234.4z"/>
	<path fill="#2B2B2B" d="M606.3,279.9c-13.6-2.5-21.8,1.2-35.3,0.1c-9.3-0.8-24.2-6.8-31.6-8c-4.801-0.7-9.7-1.4-14.5-2.1
		c4.1-2.7,5.699-7.4-0.2-13.3c-9.7-10-13,2.4-21.4-11.3c-8.5-13.7-5.7-13.6-0.2-14.5c5.5-0.9,8.301,1,7.601-9.7
		c-0.601-10.7-1.2-18.1-11.601-15.2c-10.399,2.9-22.199,13.2-27.5,3.5c-5.3-9.6-16-12.1-8.5-22c-9.5,2.5-19.699,1.6-28.5-2.9
		c-4.5-2.3-12.699-10.6-17.699-4.5c-4.9,5.8,3.199,14.4,7.1,17.9c2.6,2.4,5.4,4.7,8.3,6.9c4.601,3.2,3.3,4.2,0.3,8.4
		c-2,2.8-5,7.7-8.899,7.9c-4.601,0.2-6.7-5.5-7.8-9c-2.4-7.9-2.2-16.7-11.9-19.2c-5.3-1.4-10.5-3.3-14.8,0.8
		c-4.7,4.5-8.601,8.9-15,4.2c-9.3-7-3.601-22-17.601-25.2c-8.1-1.9-13-4.1-18.899-10.2c-10.9-11.3-17.3-25.8-27.1-38
		c-8-10.1-19.4-17.8-26-29.1c-7.9-13.9-10.9-28.7-14.3-44.1c-2.5-11.3-7.6-21.4-12.8-31.7c-3-6-6.3-12.1-7.9-18.6
		c-9.3-37.2-13.1-76-18.6-113.8c-1.5-10.4-3.2-21-4-31.4c-0.3-2.7-2.4-14.3,0.2-16.5c4.6-3.8,11.6,25.5,12.2,28.3
		c2.7,12.6,4.4,25.4,6.6,38c1.3,7.2,2.7,14.4,4.5,21.5c5.9,22.7,17.6,42.9,31.9,61.4c-5-12.1-10.1-24.3-13.7-36.9
		c-8.8-31.5-13.2-64.5-20.2-96.5c-1.9-8.6-13.6-49.8-28.8-43c-6.5,2.9-6.2,15-5.9,20.6c0.5,8.4,2.2,16.7,3.4,25
		c4,28.1,7.7,56.3,12.6,84.3c2.8,16.7,6.1,33.4,10,49.9c10.1,43.5,23.6,86.6,47.6,124.7c25.2,40.9,57.3,76.2,96,105.1
		c10.899,8.1,22,15.7,33.6,22.8c14,8.7,28.8,16.3,44.2,22.4c50.1,20.2,102.899,30.9,157.1,26.5c12.9-1.101,25.3-3.7,37.9-6
		C641.9,290.1,625.5,282.9,606.3,279.9z"/>
	<path fill="#D92425" d="M677.8,230.8c-16.5,1.6-23.1-3.6-29.1-12.3c-2.5-3.7,2.1-13.2-5-14.6c-13.2-2.7-25.9,7.9-40.2,4.4
		c-13.2-3.2-17.6,20.6-30.5,17.3c-9.4-2.4-12.5-7.1-23.1-4.6c-18.5,4.3-4.5,20.2,6.3,23.2c8.899,2.5,11.3,1.2,13.2,10.1
		c1.5,6.8-5,8.5-6.801,13.1c8.301,1.9,16.9,6.5,25.5,2c14.801-7.6,12.5-19,32-14.8c7.4,1.6,12.2,6.9,17.101,12.2
		c3.8,4,9.2,10.1,15.5,9c3.2-0.6,5.8-4,7.6-6.4c3.8-4.9,0.8-12.1,4.4-16.6c3.399-4.2,12.3-4.4,17-6.4
		C689.4,243.1,693.4,228.2,677.8,230.8z"/>
	<path fill="#2B2B2B" d="M394.7,234.3c-26.5-2.5-53.8,0.6-79.2-16.3c-25.4-16.9,24.1-23.4,34.9-20.1c-1.4-0.4-16.2,4.1-18.4,5.1
		c-6.1,2.7-6.5,4.4-0.4,10.4C347.1,228.8,375,227.9,394.7,234.3z"/>
	<path fill="#D92425" d="M430.4,87.2c-11.7-15.3-20-33.9-41-41.1c-20.9-7.1-6.301,27.1,0,32c-1.7-4.6-2.101-9.4-4-14
		c-1.4-3.7-1.4-6,3.1-5.9C406.8,58.4,417.1,77.1,430.4,87.2z"/>
</g>
</svg>
