<?xml version="1.0" encoding="utf-8"?>
<!-- Generator: Adobe Illustrator 15.0.0, SVG Export Plug-In . SVG Version: 6.00 Build 0)  -->
<!DOCTYPE svg PUBLIC "-//W3C//DTD SVG 1.1//EN" "http://www.w3.org/Graphics/SVG/1.1/DTD/svg11.dtd">
<svg version="1.1" id="Layer_1" xmlns="http://www.w3.org/2000/svg" xmlns:xlink="http://www.w3.org/1999/xlink" x="0px" y="0px"
	 width="721.726px" height="499.343px" viewBox="-316 -188.443 721.726 499.343"
	 enable-background="new -316 -188.443 721.726 499.343" xml:space="preserve">
<path fill="#2B2B2B" d="M-83.8,65.5c20-13.1,11.3-40.6,39.8-47.3c28.4-6.7,32-7.4,44.3-25.8C12.6-26,29.4-49.4,55.7-57
	c26.2-7.6,38.9-3.9,66.6-16.2C150-85.5,167.2-85,167.2-85s-31.8,8.9-50.9,22.4C97.2-48.9,80-52.3,60.8-47
	C41.6-41.8,34.1-39.6,26-22.8C17.8-5.9,8.9,9.6-5.1,19.9c-14,10.2-23.4,4-34.3,8.1c-10.8,4-14,24.5-20.8,32
	C-66.9,67.5-81.6,66.4-83.8,65.5z"/>
<path fill="#FF9729" d="M-16.3-17C-24.1-4.7-32.9-3.5-44.2-1.2c-11.3,2.3-21.2,10.6-29,23.9C-81,35.9-93.2,33-100,45.2
	c-6.8,12.3-23.1,15.4-18.2-2.2c4.9-17.5,13.4-24.2,11.4-35.2s2.9-20.5,14.1-17.6c11.2,2.9,22.6,4.4,24-7.3
	c1.4-11.7,7-23.6,16.7-17.7c9.7,5.9,22,17.5,32.7-2.4C-8.6-57,11.3-65,20.1-60.4c8.8,4.5,5.7,5.8-7.2,12.1C0-42-7.1-40-16.3-17z"/>
<path fill="#2B2B2B" d="M-251.3,73.8c-4.7-9.1-26.1-37.2-27.9-72.4c-1.7-35.2,7.1-66.6,24.2-48.8c17.1,17.8,28.9,18.1,38.1,33
	c9.2,15-3.7,38.5,0.4,50.9c-11.9-3.5-10-18.3-10.9-29.6c-0.8-11.3-8.6-18.6-19.1-20.4s-17.2-33.3-20.9-9.1
	C-271,1.5-274.1,26.6-251.3,73.8z"/>
<path fill="#FF9729" d="M-213.8,259.701c-0.1,1.699-1,3.199-2.9,4.699c-4.3,3.4-10.3,1.2-15,0c-2.7-0.699-5.4-2-8.2-1.9
	c-8.3,0.301-3.7,10-1.6,14.601c6.1,13.399-15.4,6.101-31.4-2.199c-31.4-16.399-2.1-30.7,14.6-34.5c16.7-3.9,16.1-15.6,11.6-24.6
	s0.1-44.8,13.5-34.2c13.3,10.6,8.6,28.8,21.5,23.4c12.9-5.3,8.1-19.7,23.8-19.8c15.8,0,5.8,16.4,14.2,14.9
	c8.4-1.5,17.7-32.5,32.7-28.2c15,4.4,11.8,26.6-12.6,40.4c-24.3,13.8-41,9.6-36,21.7c2,4.8,7.2,8,10.4,11.8
	c7.4,9-12.2,8.6-16.4,7.201c-7.6-2.5-18.7-23.101-28-16.101C-232.7,243.9-213.5,253.5-213.8,259.701z"/>
<path fill="#2B2B2B" d="M-95.5,215.1c10.5,3.7,43.8,22.4,82.1,19.3c38.3-3.1,71-16.8,49.5-32.4s-23.5-28-40.9-35.7
	c-17.5-7.7-41.1,9.3-55.2,6.7c5.4,12.1,21.2,8,33.6,7.4c12.3-0.7,21.3,6.5,24.6,17.4c3.3,10.8,38.3,13.6,12.7,20.8
	C-14.7,225.8-41.4,232.6-95.5,215.1z"/>
<path fill="#2B2B2B" d="M402-187.8c-10.199,2.9-39.299,8.4-84.799,45.8c-45.4,37.4-141.4,30-234.3,36.4
	C-9.9-99.2-131.6-54.9-208.6,33.5c-13,15-25.2,30.7-36.2,47.2c-9.8,14.6-18.8,29.7-26.6,45.4c-15.6,31.4-29.1,65.7-35.6,100.2
	c-1.9,9.8-2.9,19.8-2.7,29.8c-1.8-1.7-4.1-3-6.3-4.3c0.2,0.1,0.6,1.9,0.7,2.199c0.4,1,0.9,1.9,1.5,2.701
	c1.2,1.799,2.7,3.299,4.4,4.699c2.2,22,16.4,40.801,39,45c5.9,1.1,12.5,1.699,18.5,1.1c1.7-0.199,3.4-0.4,5.1-0.6
	c0.4,0.199,0.8,0.398,1.2,0.5c1,0.301,2,0.699,3,1.199c2.5,1.301,5.4,1.699,8.1,2.301c-0.2,0-1.1-1.602-1.3-1.801
	c-0.7-0.699-1.4-1.398-2.2-2c-0.6-0.5-1.3-0.898-2-1.301c14.3-2.699,28.4-7.699,41.4-13.699c4.6-2.199,9.2-4.5,13.7-6.898
	c4.8-2.602,9.5-5.4,14.1-8.5c8-5.301,15.5-11.301,22.7-17.601c35.9-31,68.1-71.5,90.7-96.2C10.9,88.4,54.2-5.6,172.1-50.3
	c91.8-34.8,149.1-59.4,189.7-97C402.3-184.9,412.201-190.7,402-187.8z M171.9-62c-29,11.2-85.6,27.3-156.5,113.7
	c1.7-12.1-1.2-26.1-11.8-22.9c-14.9,4.5-11.2,26.9-22.5,36.1c-11.3,9.2-1.7-11.6-11-22.5c-9.3-11-21.2,18.5-27.9,31.7
	c-6.8,13.2-2.9,16.6-17.9,27.1s-21.3-8-38.8-5.5s-27.9,18.7-23.4,37.7s22.2,18.1,33.4,19c11.2,1,0.4,29.8-15.3,42.8
	c-13.8,11.3-17.2,25.1-8.5,32.1c-7.1,6.5-14.4,13.3-23,21.8c-8.1,8.2-16.9,15.3-25.8,21.5c-0.6-4.5-10.4-3.899-19.1,1.101
	c-7,4-12.6,12.5-13.7,17.2c-0.2,0.8-22.5,8.199-27.4,9.3c-13.1,3-26.2,3-38.9-1.9c-7.4-2.799-13.2-8.1-16.9-15
	c-6.7-12.5-7.9-27.799-6.2-41.599c0.7-5.4,1.6-10.8,2.8-16.1c4.4-2.3,11.2-9.2,13.7-16.6c3-9.2,1.8-18.5-2.5-18.8
	c0.9-2.3,1.9-4.7,2.6-6.2c9,9.3,19,22.4,29.7-5.3c10.8-27.8,17-35.2,29.3-17.5c12.2,17.7,20.7,25,34.4,2.3
	c13.6-22.6,35.8-10.3,27.4-37.6c-8.4-27.2-24.3-22-11.5-47c12.8-25,26.5,13.6,33.9-24.6c7.4-38.2,27.2-57.7,8.4-60.6
	c-3.5-0.6-6.9-0.8-9.9-0.7C-84.4-49.7-25.7-75.9,41.1-87.3c89.9-15.4,185.6-8.7,225.3-19.1C230.8-85.8,204.5-74.6,171.9-62z"/>
</svg>
