<?xml version="1.0" encoding="utf-8"?>
<!-- Generator: Adobe Illustrator 15.0.0, SVG Export Plug-In . SVG Version: 6.00 Build 0)  -->
<!DOCTYPE svg PUBLIC "-//W3C//DTD SVG 1.1//EN" "http://www.w3.org/Graphics/SVG/1.1/DTD/svg11.dtd">
<svg version="1.1" id="Layer_1" xmlns="http://www.w3.org/2000/svg" xmlns:xlink="http://www.w3.org/1999/xlink" x="0px" y="0px"
	 width="722.012px" height="499.542px" viewBox="0 0 722.012 499.542" enable-background="new 0 0 722.012 499.542"
	 xml:space="preserve">
<g>
	<path fill="#2B2B2B" d="M489.611,253.943c-20-13.1-11.3-40.6-39.8-47.299c-28.4-6.7-32-7.4-44.3-25.8
		c-12.301-18.4-29.2-41.8-55.4-49.4c-26.3-7.6-38.9-3.8-66.6-16.2c-27.7-12.3-44.9-11.8-44.9-11.8s31.8,8.9,50.9,22.4
		c19,13.7,36.3,10.3,55.5,15.6c19.2,5.2,26.6,7.4,34.8,24.3c8.1,16.8,17,32.3,31,42.6c14,10.2,23.399,4,34.3,8.1
		c10.8,4.1,14,24.6,20.8,32.1C472.711,255.943,487.411,254.843,489.611,253.943z"/>
	<path fill="#D92425" d="M422.111,171.443c7.8,12.2,16.6,13.5,27.9,15.8c11.3,2.3,21.199,10.6,29,23.9c7.8,13.2,20,10.3,26.8,22.6
		c6.8,12.3,23.1,15.4,18.2-2.2c-4.9-17.5-13.4-24.2-11.4-35.2s-2.9-20.5-14.1-17.6c-11.2,2.9-22.601,4.4-24-7.3
		c-1.4-11.7-7-23.6-16.7-17.7c-9.7,5.9-22,17.5-32.7-2.4c-10.8-19.9-30.6-27.9-39.5-23.3c-8.8,4.5-5.7,5.8,7.2,12.1
		C405.711,146.443,412.812,148.443,422.111,171.443z"/>
	<path fill="#2B2B2B" d="M657.012,262.243c4.699-9.1,26.1-37.199,27.899-72.399c1.7-35.2-7.1-66.6-24.2-48.8
		c-17.1,17.8-28.899,18.1-38.1,33c-9.2,15,3.7,38.5-0.4,50.9c11.9-3.5,10-18.3,10.9-29.6c0.8-11.3,8.6-18.6,19.1-20.4
		s17.2-33.3,20.9-9.1C676.711,189.943,679.812,215.043,657.012,262.243z"/>
	<path fill="#D92425" d="M619.611,448.144c0.1,1.699,1,3.199,2.9,4.699c4.3,3.4,10.3,1.2,15,0c2.699-0.699,5.399-2,8.199-1.9
		c8.301,0.301,3.7,10,1.601,14.601c-6.101,13.399,15.399,6.101,31.399-2.199c31.4-16.399,2.101-30.7-14.6-34.5
		c-16.7-3.9-16.1-15.601-11.6-24.601s-0.101-44.8-13.5-34.199c-13.301,10.6-8.601,28.8-21.5,23.399
		c-12.9-5.3-8.101-19.7-23.801-19.8c-15.8,0-5.8,16.4-14.199,14.9c-8.4-1.5-17.7-32.5-32.7-28.2c-15,4.399-11.8,26.6,12.6,40.399
		c24.3,13.801,41,9.601,36,21.7c-2,4.8-7.2,8-10.399,11.8c-7.4,9,12.199,8.601,16.399,7.201c7.601-2.5,18.7-23.101,28-16.101
		C638.411,432.343,619.211,441.943,619.611,448.144z"/>
	<path fill="#2B2B2B" d="M501.312,403.543c-10.5,3.699-43.8,22.399-82.101,19.3c-38.3-3.101-71-16.8-49.5-32.4
		c21.5-15.6,23.5-28,40.9-35.7c17.5-7.699,41.1,9.301,55.2,6.7c-5.4,12.101-21.2,8-33.601,7.4c-12.3-0.7-21.3,6.5-24.6,17.399
		c-3.3,10.801-38.3,13.601-12.7,20.801C420.411,414.243,447.111,421.043,501.312,403.543z"/>
	<path fill="#2B2B2B" d="M44.011,41.144c40.5,37.7,97.8,62.2,189.7,97c117.8,44.7,161.2,138.7,229.7,213.4
		c22.601,24.699,54.8,65.199,90.7,96.2c7.2,6.199,14.7,12.3,22.7,17.601c4.6,3,9.3,5.899,14.1,8.5c4.5,2.399,9.101,4.8,13.7,6.899
		c13,6,27.1,11,41.4,13.699c-0.7,0.4-1.4,0.801-2,1.301c-0.801,0.602-1.5,1.299-2.2,2c-0.2,0.199-1.101,1.799-1.3,1.799
		c2.8-0.6,5.699-1,8.1-2.299c0.9-0.5,1.9-0.898,3-1.201c0.5-0.1,0.9-0.299,1.2-0.5c1.7,0.201,3.399,0.5,5.1,0.602
		c6,0.5,12.601-0.102,18.5-1.102c22.601-4.198,36.8-22.999,39-44.999c1.7-1.399,3.2-2.899,4.4-4.7c0.6-0.9,1.1-1.8,1.5-2.699
		c0.1-0.301,0.5-2.101,0.7-2.201c-2.102,1.301-4.4,2.601-6.302,4.301c0.102-10.001-0.898-20.001-2.698-29.801
		c-6.5-34.5-20-68.8-35.602-100.2c-7.8-15.699-16.8-30.8-26.6-45.399c-11-16.5-23.2-32.2-36.2-47.2
		c-77.199-88.6-198.899-132.9-291.799-139.3c-92.9-6.4-188.8,1-234.3-36.4c-45.4-37.4-74.6-43-84.8-45.8
		C-6.489-2.257,3.511,3.543,44.011,41.144z M139.312,82.043c39.7,10.3,135.4,3.7,225.3,19.1c66.9,11.4,125.5,37.6,182.3,78.2
		c-3.1,0-6.399,0.2-9.899,0.7c-18.801,2.9,1,22.4,8.399,60.6c7.4,38.2,21.2-0.3,33.9,24.599c12.8,25-3.101,19.7-11.5,47
		c-8.4,27.2,13.7,14.9,27.399,37.601c13.601,22.6,22.101,15.399,34.4-2.3c12.2-17.7,18.5-10.301,29.3,17.5
		c10.7,27.699,20.7,14.6,29.7,5.3c0.7,1.5,1.6,3.8,2.6,6.2c-4.3,0.199-5.5,9.5-2.5,18.8c2.4,7.3,9.2,14.3,13.7,16.6
		c1.2,5.3,2.101,10.7,2.8,16.101c1.7,13.8,0.5,29.101-6.199,41.601c-3.699,7-9.5,12.199-16.899,15
		c-12.7,4.898-25.8,4.898-38.899,1.898c-4.801-1.1-27.201-8.5-27.4-9.301c-1.1-4.699-6.801-13.199-13.7-17.199
		c-8.7-5-18.5-5.6-19.101-1.1c-8.899-6.201-17.6-13.301-25.799-21.501c-8.5-8.5-15.9-15.3-23-21.8c8.699-7,5.299-20.8-8.5-32.1
		c-15.801-12.9-26.5-41.801-15.301-42.801c11.2-1,28.9,0,33.4-19s-5.9-35.199-23.4-37.699s-23.8,16-38.8,5.5
		s-11.201-13.899-17.901-27.1c-6.8-13.2-18.6-42.7-27.899-31.7s0.3,31.8-11,22.5c-11.3-9.199-7.601-31.599-22.5-36.099
		c-10.5-3.2-13.5,10.8-11.8,22.9c-71-86.4-127.601-102.4-156.601-113.6C201.211,113.843,175.011,102.644,139.312,82.043z"/>
</g>
</svg>
