<?xml version="1.0" encoding="utf-8"?>
<!-- Generator: Adobe Illustrator 15.0.0, SVG Export Plug-In . SVG Version: 6.00 Build 0)  -->
<!DOCTYPE svg PUBLIC "-//W3C//DTD SVG 1.1//EN" "http://www.w3.org/Graphics/SVG/1.1/DTD/svg11.dtd">
<svg version="1.1" id="Layer_1" xmlns="http://www.w3.org/2000/svg" xmlns:xlink="http://www.w3.org/1999/xlink" x="0px" y="0px"
	 width="580.231px" height="607.76px" viewBox="-316.845 -296.733 580.231 607.76"
	 enable-background="new -316.845 -296.733 580.231 607.76" xml:space="preserve">
<g>
	<path fill="#1C1C1C" d="M-206.6,204.1c-1.3-3.6-7.4-5.4-14.1-4.4c-6.7,1.1-11.3,4.9-10.1,8.3c1.1,3.6,7.6,5.5,14.4,4.5
		C-209.7,211.6-205.3,207.7-206.6,204.1z"/>
	<g>
		<path fill="#2B2B2B" d="M-231.4,200.2c11-7.4,22.8-8.1,34.4-2.6c8.5,4.2-2,12-6.2,14.5c-3.3,2-3.8,1.4-7.4,2c0,0,5.7-3.7,9-8.5
			c0.1-0.1,1.3-1.9,1.3-1.9c-10.6-1.8-21.7-4.7-32,0.7c-3.9,2.1-3.7,4.4-3.1,8.5C-237.6,207.2-236.8,204-231.4,200.2z"/>
	</g>
	<path fill="#FF9729" d="M-315.1,161c0.9-2.6,2.4-5.5,3.8-7.8c1.5-2.5,3.2-4.8,4.7-7.3c1-1.6,1.7-2.4,1.5-4.3
		c-0.2-1.8-0.6-3.5-0.7-5.2c-0.2-3.1,2-6.2,3.7-8.6c2.1-2.9,4.8-5.5,7.8-7.5c1-0.7,2-1.3,3.2-1.7c0.5-0.2,1.9,0,2.3-0.3
		c-3.1,2-5.7,4.6-7.6,7.7c-1.8,2.9-2.3,5.9-1.9,9.3c2.9-4.1,6.5-7.7,9.8-11.4c3.4-3.8,7.2-7.3,11.1-10.6c2.8-2.4,5.6-4.6,8.5-6.8
		c11.1-8.4,23.3-15.4,35.9-21.4c13.1-6.2,26.7-11.4,40.3-16.5c28.6-10.9,65.2-27.2,113.2-31.6c35.8-3.3,82.8-7.3,125.6-16
		c27.4-5.6,55.1-13.4,79.8-26.7c3.9-2.1,17.7-8.8,30.9-18.5c37.5-27.6,54.1-73.5,49.5-119.1c-1.2-11.6-3.6-23.9-7.6-34.9
		c-2.8-7.7-7.1-14.6-11.1-21.7c-3.2-5.6-8-12.6-5.8-19.4c2-6,11-2.6,14.9-0.7c4.5,2.1,11.9,7.3,17.6,15.1
		c5.7,7.8,13.6,20.2,16.2,29.4c1.1,4-2.8,5.3,0,8.5c-8-13.2-16-26.7-26.5-38.1c-0.9-1-5.9-7.2-7.9-6.1c-1.9,1.1,1.3,7.5,1.9,8.7
		c5.4,13.4,12,26.2,15.1,40.4c3.2,14.6,2.9,29.9,1.5,44.7c-1.4,13.8-4.2,27.3-8,40.6C202.8-63.5,195-52,184.9-39.2
		c7.9,2.6,4.6,13.4,2,18.8c-6.4,13.4-18.6-1.8-28.8,7.9c-10.1,9.5,6.8,6.3-2.6,18s-11,7.5-29.7,8.7c-18.7,1.1-21.4,11.3-30.7,22
		C85.8,46.8,92.9,52,74.8,61.7c-18.1,9.7-19.5-19.4-23.4-24.1c-3.7-4.6-11.1-9.3-18.5-7.5C7.6,38.1-18.9,51.7-42.4,54
		c-38.3,3.7-62.9,4.8-87.5,9.6c14.4,2.7,26.9,9.3,5,17.2c-27.9,10.1-62.9,17.3-50,24.4c12.9,7.2,26.9-3.6,24.1,12
		c-2.8,15.6-29,12.5-20.7,24.7c8.3,12.2,20.4,23.8-7.5,22.4c-14.4-2.2-17.2,2.1-26.5,8.2c-9.2,6.1-19.1,20.3-32.9,14
		c-13.8-6.3-30.3,5.9-37.3-7.7c-7-13.6,16.3-13,11.5-23.6c-4.7-10.5-20.6-17.8-0.4-23.7c20.3-6,30.5,5.7,29.1-13
		c-0.5-6.7,1.7-13.2,1.5-19.9c0,0.2-4,1.5-4.4,1.6c-1.5,0.6-3.1,1.2-4.6,1.8c-3,1.2-5.9,2.5-8.8,3.9c-7.3,3.5-14.1,8-20.5,12.9
		c-5.7,4.4-10.9,9.3-15.7,14.6c-4.9,5.3-9.6,10.8-13.7,16.7c-3.7,5.3-6.7,11.2-7.7,17.6c-0.4,2.8-0.5,5.6-0.3,8.4
		c0.3,3.4,3.9,20.1,4.2,21.4c0,0.1,0,0.6,0.1,0.6c-6.6-6.6-12-19.8-11.4-29.5C-316.6,166.1-315.1,161.1-315.1,161z"/>
	<path fill="#2B2B2B" d="M-10,104.9c-9.3-0.9-7.3,9.5-12.7,15.8c-5.3,6.3-9.2,16.2-10.7,22.3c-1.4,6-8.7,13-17,4.7
		c-8.4-8.4-5.8-12.2-15.1-11.6c-9.3,0.5-14,16.8-26.7,7.3c-13-9.6,1.4-15.4-7.2-17.8c-8.8-2.5-29.4-3.1-26-6.1s8.7-12.5,3.6-16.5
		c-5.1-4.1-4-15.4,8.2-18.3c12.3-2.9,24.6,0.2,31.3-8.1c6.6-8.2,26.9-8.6,35.8-8.6c9-0.1,15.4-8.4,32-7.2
		C1.8,62.2,19.9,66.7,16.1,73c-4,6.3-24.5,9.8-22,17.6C-3.4,98.5-1.9,105.7-10,104.9z"/>
	<path fill="#2B2B2B" d="M139.7,44c1.6,0.1,3.2,0.1,4.8,0c4.6-0.5,9.3-1.1,13.8-2.2c9-2.1,17.3-6.1,24.3-12.1
		c18.3-15.7,27.2-40.9,35.1-62.9c8.5-23.7,16-47.7,23.9-71.6c0.4-1.1,5.1-12.7,4.1-13.6c-0.5-0.4-4.2,7.1-4.6,7.8
		c-10.8,21.1-21.4,42.2-32.2,63.3c-2.4,4.7-6.3,10-6.6,15.4c-0.3,4.6,1.3,9.5-0.5,13.9c-2.9,7.2-11.5,14-14.6,21.1
		c-3.6,8.1-7.9,15.9-16.7,19c-8.7,3.1-18.1,2.1-26.8,5c-8.3,2.8-16,7.6-23,12.9c-16.6,12.3-29.3,30.8-50.2,36.3
		c-14.6,3.8-22.8-7.9-37.1-2.9c-16,5.7-33,30.6-37.8,46c-1.2,3.7-4.7,13.1-1.7,16.9c2.8,3.4,7.8-0.9,10.3-2.8
		c6.6-5,13.5-10.6,19.3-16.5c5.3-5.4,5.7-12.7,8.7-19.3c3.8-8.3,10.8-5.3,17.6-2.8c5.3,2,10.7,0.5,16-0.3c6.6-0.9,13.2-1.1,19.8-1.2
		c3.7,0,6.9,1.2,10-1.4c4.8-4.1,9.4-9.6,13.1-14.7c3.2-4.3,3.4-8.2,4.9-13.1c1.9-6,7.3-10.9,11.7-15.1c3.2-3,4.9-4.9,9.3-5.2
		C136.4,43.9,138.1,44,139.7,44z"/>
	<path fill="#2B2B2B" d="M-150.4,247.3c21,15.6,34.7,39.3,57.1,52.3c24.4,13.8,55.6,15.1,75,3.9c5.4-3.1,14.1-12.4,11.4-21.3
		c-6.4-21-27.5-40.1-49.1-35.3c-14.4,3.6,4.2,5.2,11,9.7c7.4,4.9,4.4,14.8,11.2,19.5c5,3.4,15.4,8.5-0.5,16.7
		c-7.5,3.8-16.9,5-26.7,4.6c-16.8-0.5-23.2,1.3-37.1-9.3c-11.9-10.4-23.9-20.8-35.7-31.2C-139.1,253.8-144.7,250.5-150.4,247.3z"/>
	<path fill="#FF9729" d="M-155.5,50.1c10.2-5.1,20.9-10,29.6-17.6c4.1-3.5,5.9-9.6,10-13.6c5.3-5.5,12.8-9.2,16.8-14.7
		c4.6-6.5,5.3-12.7,12.1-17.6c6.9-5,18.1-12,26.4-4.4c4.4,4.1,6.5,7.7,5.3,14.1c-0.9,5-2.5,11.5-4.5,15.7
		c-5.1,10-15.1,7.5-15.5,17.2c-0.6,12.2,23.2-7.6,25.2-10C-43,10.6-36-2.2-41-13.6c-6.1-13.8-24.5-17.6-37.7-13.2
		c-17,5.7-26.6,22.7-36.4,36.4C-126.6,25.5-139.9,38.2-155.5,50.1z"/>
	<path fill="#2B2B2B" d="M-295.5,212.8c0-0.1,0-0.1-0.1-0.2c-1.1-3.3-3.9-5.7-6-8.2c-1.1-1.2-3.7-4.2-3.7-6c0.6,0.5,3.1,2.6,3.6,3
		c1.3,1.1,2.7,2.2,4.2,3.2c3.2,2.3,6.6,4.3,9.9,6.5c4.3,2.8,8.5,5.2,13.7,6.1c6.3,1.1,12.8,0.9,19,2.7c9.7,2.9,15.3,7.9,29.3,10
		c4.8,0.7,24.3-3.4,29.7-2.9c3.5,0.3,7.1,2.1,10.3,3.3c4.7,1.7,9.4,2.7,14.4,2.4c3-0.2,5.9-1,8.8-1.6c3-0.7,6-1.6,8.8-3
		c4.8-2.3,11.5-6.9,11.6-12.9c0.1-3.4-2.3-6-4.3-8.5c-2.4-3.1-4.8-6.3-6.7-9.8c0.4,0.8,1.9,1.6,2.6,2.2c1,0.8,2,1.5,3.1,2.3
		c2.1,1.5,4.2,3.1,5.9,5c2.8,3,4.9,6.6,5.7,10.7c1.7,9.3-3.4,18.7-11.7,23.1c-2.4,1.3-5.1,2.2-7.8,2.8c-6,1.4-11.6,1.6-17.7,1.1
		c-6-0.5-12-1.6-18-2.5c-3.3-0.5-6.6-1-9.9-1.3c-13.9-1.3-27.7-2.3-41.4-5.5c-16.5-3.9-31.4-8.1-45.7-17.3
		c-3.5,7.6,7.7,13.3,12.6,16.1c-6.5-0.1-13.8-6-17.2-11.1C-294.5,219.5-294.5,216-295.5,212.8z"/>
	<path fill="#2B2B2B" d="M-59.4,223.3c13.1-4.5,21.7-2.1,34.9-5.1c9-2.1,22.9-10.3,30-12.5c4.6-1.4,9.3-2.8,14-4.2
		c-4.4-2-6.6-6.5-1.8-13.2c8.2-11.3,13.2,0.4,19.5-14.4c6.4-14.8,3.6-14.4-2-14.4c-5.6,0-8,2.2-8.9-8.4c-0.9-10.6-1.5-18,9.2-16.7
		c10.7,1.4,23.9,9.8,27.8-0.6c3.9-10.2,14-14.3,5.2-23.1c9.9,1.1,19.7-1.3,27.8-7.1c4.1-3,10.9-12.3,16.8-7.1c5.7,5-1,14.7-4.4,18.8
		c-2.2,2.8-4.7,5.5-7.2,8c-4,3.9-2.7,4.7,1,8.4c2.4,2.4,6.2,6.9,10,6.5c4.5-0.5,5.9-6.4,6.4-10c1.2-8.2-0.3-16.8,8.9-20.8
		c5-2.2,9.8-4.9,14.7-1.4c5.3,3.7,9.8,7.6,15.5,1.9c8.2-8.2,0.3-22.3,13.7-27.5c7.7-3,12.3-6,17.2-12.8C198,54.9,202.2,39.5,210,26
		c6.5-11.2,16.6-20.4,21.3-32.6c5.8-14.9,6.5-30,7.6-45.7c0.8-11.6,4.3-22.3,8-33.2c2.1-6.4,4.4-12.8,5.1-19.6
		c3.6-38.2,1.6-77.1,1.6-115.4c0-10.6,0-21.2-0.7-31.7c-0.2-2.7,0.2-14.5-2.7-16.3c-5.1-3.1-7.6,27-7.8,29.8
		c-0.8,12.9-0.6,25.7-0.9,38.6c-0.2,7.3-0.5,14.6-1.3,21.9c-2.5,23.4-11.1,45-22.4,65.5c3.2-12.7,6.5-25.5,8.1-38.5
		c4-32.5,3.4-65.8,5.7-98.5c0.6-8.8,6.1-51.2,22.1-46.7c6.9,1.9,8.4,14,8.9,19.5c0.8,8.4,0.3,16.8,0.4,25.2
		c0.2,28.4,0.7,56.9,0.1,85.3c-0.3,17-1.1,33.9-2.4,50.8c-3.6,44.6-10.6,89.1-28.5,130.3c-19.3,44.2-45.8,83.9-79.8,118.2
		c-9.5,9.6-19.5,18.8-29.8,27.5c-12.6,10.7-26.1,20.4-40.3,28.8C35.7,216.6-14.9,235-69.1,238.7c-12.9,0.9-25.5,0.1-38.4-0.3
		C-93.2,238.7-78,229.1-59.4,223.3z"/>
	<path fill="#FF9729" d="M-137.5,185.4c16.6-0.9,22.3-6.9,26.9-16.5c1.9-4-4-12.7,2.8-15.2c12.6-4.7,26.8,3.9,40.4-1.6
		c12.5-5.1,20.5,17.8,32.8,12.5c8.9-3.8,11.3-8.9,22.2-8c18.9,1.5,7.5,19.3-2.8,23.9c-8.4,3.7-11,2.8-11.5,12c-0.4,7,6.3,7.6,8.8,12
		c-7.9,3.2-15.8,8.9-24.9,5.8c-15.7-5.4-15.2-16.9-33.8-9.9c-7.1,2.7-11,8.7-15.1,14.6c-3.2,4.6-7.6,11.4-14,11.2
		c-3.2-0.1-6.3-3.1-8.5-5.2c-4.5-4.3-2.5-11.9-6.9-15.8c-4-3.6-12.8-2.5-17.8-3.8C-147.2,199.3-153.3,185.1-137.5,185.4z"/>
	<path fill="#2B2B2B" d="M143.1,146.8c25.9-6.4,53.3-7.4,75.9-27.8s-27.3-19.6-37.5-14.7c1.3-0.6,16.7,1.7,18.9,2.3
		c6.4,1.8,7.1,3.4,2,10.2C189.3,134.3,161.5,137.6,143.1,146.8z"/>
	<path fill="#FF9729" d="M85.9,6.6c9.4-16.8,14.9-36.4,34.4-46.6c19.6-10.2,10.3,25.8,4.8,31.7c0.9-4.8,0.7-9.6,1.9-14.4
		c0.9-3.9,0.5-6.1-4-5.5C104.9-25.3,97.5-5.3,85.9,6.6z"/>
</g>
</svg>
