<?xml version="1.0" encoding="utf-8"?>
<!-- Generator: Adobe Illustrator 15.0.0, SVG Export Plug-In . SVG Version: 6.00 Build 0)  -->
<!DOCTYPE svg PUBLIC "-//W3C//DTD SVG 1.1//EN" "http://www.w3.org/Graphics/SVG/1.1/DTD/svg11.dtd">
<svg version="1.1" id="Layer_1" xmlns="http://www.w3.org/2000/svg" xmlns:xlink="http://www.w3.org/1999/xlink" x="0px" y="0px"
	 width="488.018px" height="683.875px" viewBox="0 0 488.018 683.875" enable-background="new 0 0 488.018 683.875"
	 xml:space="preserve">
<g>
	<path fill="#1C1C1C" d="M370.581,631.424c2.5-2.898,8.9-2.398,14.802,0.9c5.898,3.398,8.898,8.5,6.5,11.398
		c-2.302,2.9-9,2.5-15-0.8S368.182,634.424,370.581,631.424z"/>
	<g>
		<path fill="#2B2B2B" d="M394.481,649.824c2-3.602,3.1-5.7,0.1-9c-7.698-8.7-19.1-9.9-29.6-12c0,0,0.5,2.2,0.5,2.3
			c1.4,5.7,5.3,11.2,5.3,11.2c-3.2-1.8-3.898-1.5-6.3-4.5c-3-3.8-10-14.8-0.7-15.7c12.8-1,23.602,3.7,31.3,14.6
			C398.981,642.024,398.581,645.324,394.481,649.824z"/>
	</g>
	<path fill="#D92425" d="M487.382,629.424c0-2.8-0.302-5.898-0.802-8.6c-0.6-2.9-1.3-5.602-1.8-8.5c-0.398-1.9-0.8-2.8,0.102-4.602
		c0.8-1.6,1.8-3.1,2.5-4.6c1.3-2.8,0.3-6.5-0.302-9.3c-0.898-3.5-2.6-6.8-4.698-9.8c-0.7-0.9-1.4-1.9-2.302-2.7
		c-0.5-0.4-1.698-0.7-2-1.101c2.2,2.9,3.7,6.301,4.4,9.9c0.7,3.4,0,6.4-1.4,9.4c-1.3-4.802-3.398-9.5-5.198-14.2
		c-1.802-4.801-4.2-9.301-6.602-13.9c-1.8-3.2-3.6-6.3-5.6-9.4c-7.5-11.8-16.3-22.6-26-32.699c-10.102-10.4-21-20.101-31.8-29.801
		c-22.9-20.3-51.302-48.5-94.7-69.6c-32.4-15.601-75.102-36-112-59.3c-23.7-14.9-46.7-32-65.2-53.2c-2.9-3.3-13.4-14.4-22.4-28.2
		c-25.298-39.099-24.599-87.899-4.298-128.899c5.199-10.4,11.8-21.1,19.499-29.9c5.3-6.1,11.7-11.2,18-16.4c5-4.1,11.9-8.9,12.2-16
		c0.3-6.3-9.3-6.2-13.7-6c-5,0.4-13.7,2.6-21.8,7.9c-8.101,5.3-19.8,14.1-25.5,21.8c-2.399,3.3,0.7,5.9-3,8
		c12.101-9.5,24.399-19.3,38.3-26.3c1.3-0.7,8.102-4.7,9.602-3c1.398,1.7-3.9,6.5-4.802,7.6c-9.8,10.6-20.499,20.3-28.398,32.5
		c-8.2,12.6-13.3,26.9-17.101,41.3c-3.601,13.4-5.699,27.1-6.8,40.8c-1.2,13.7,2.101,27.2,7,42.7c-8.399-0.3-9.101,10.9-8.5,16.8
		c1.199,14.7,18,5,24.199,17.5c6.101,12.6-8.601,3.6-3.899,17.9c4.7,14.3,7.7,10.9,24.801,18.6c17.1,7.7,16,18.2,20.898,31.399
		c4.9,13.2-3.5,15.601,10,31c13.5,15.5,25.102-11.3,30.4-14.3c5.1-3,13.7-4.8,20-0.399c20.8,16.399,40.8,38.6,62,48.899
		c34.2,17.101,56.8,26.8,78.2,40c-14.4-2.5-28.4-0.8-10.802,14.4c22.602,19.3,52.7,38.3,38.102,40.6
		c-14.602,2.101-23.9-12.899-26.7,2.7s22.7,22,10.7,30.4c-12,8.5-27.4,15.1-0.9,23.6c14.3,3.102,15.4,8,21.9,17
		c6.5,8.9,10.7,25.8,25.898,24.7c15.102-1,26.302,16.2,37.7,6c11.4-10.2-10.6-18-2.5-26.1c8.2-8.102,25.602-9.302,8.7-22.102
		s-30.6-5.5-22.7-22.5c2.8-6.1,3.102-13,5.602-19.1c0,0.199,3.198,2.8,3.5,3.1c1.198,1.1,2.5,2.2,3.6,3.3c2.4,2.101,4.6,4.4,6.7,6.7
		c5.6,5.9,10.398,12.4,14.6,19.3c3.8,6.101,6.9,12.5,9.602,19.2c2.698,6.7,5.198,13.4,7,20.5c1.5,6.3,2.3,12.9,1,19.2
		c-0.602,2.8-1.602,5.4-2.7,8c-1.5,3.1-10.8,17.4-11.5,18.5c-0.102,0-0.2,0.5-0.2,0.5c8.5-3.9,18.3-14.3,21-23.5
		C486.981,634.724,487.382,629.524,487.382,629.424z"/>
	<path fill="#2B2B2B" d="M221.881,469.224c9.1,2.5,3.398,11.4,6.3,19.3c2.7,7.801,2.8,18.4,2.1,24.7c-0.8,6.101,3.5,15.3,14.3,10.4
		c10.802-4.9,9.7-9.3,18.2-5.5c8.602,3.7,7.2,20.7,22.5,16.3c15.5-4.5,4.2-14.9,13-14.1c9.102,0.8,28.602,7.6,26.5,3.399
		c-2.2-4-3.7-14.7,2.4-16.7c6.2-2.1,9.2-13-1.2-20.1c-10.5-7.1-23.1-8.5-26.5-18.6c-3.2-10-22.2-17.601-30.4-20.7
		c-8.398-3.3-11.398-13.3-27.3-18.101c-15.8-4.6-34.398-6.8-32.898,0.5c1.5,7.301,19.5,17.801,14.398,24.301
		C217.881,460.824,213.881,467.023,221.881,469.224z"/>
	<path fill="#2B2B2B" d="M103.181,359.324c-1.602-0.5-3-1-4.4-1.7c-4.1-2-8.3-4.3-12.1-6.9c-7.7-5.1-14.102-11.8-18.5-19.8
		c-11.6-21.1-11-47.9-10.6-71.2c0.399-25.2,1.801-50.3,3-75.5c0-1.2-0.301-13.7,0.899-14.1c0.601-0.2,1.399,8.1,1.5,8.9
		c2.601,23.5,5.101,47,7.7,70.6c0.6,5.3,2.3,11.6,0.699,16.7c-1.399,4.4-4.5,8.4-4.5,13.2c0.101,7.8,5.801,17.2,6.199,24.9
		c0.5,8.8,1.7,17.6,8.9,23.7c7,5.9,16.1,8.4,23.3,14.1c6.8,5.6,12.3,12.799,17,20.2c11.2,17.4,16.602,39.1,34.102,51.7
		c12.3,8.8,24.198,0.6,35.8,10.399c13,11,20.1,40.301,19.2,56.301c-0.2,3.899-0.302,13.899-4.302,16.399c-3.8,2.2-7-3.6-8.6-6.2
		c-4.4-7-8.8-14.699-12.2-22.3c-3-6.899-0.8-13.899-1.3-21.1c-0.7-9.101-8.2-8.8-15.5-8.8c-5.6,0-10.1-3.4-14.9-6
		c-5.8-3.101-11.898-5.7-18.198-8.2c-3.4-1.3-7-1.3-8.9-4.9c-3-5.5-5.3-12.3-7.101-18.399c-1.399-5.2-0.199-8.9,0-13.9
		c0.301-6.3-3-12.8-5.699-18.3c-1.9-3.9-2.9-6.3-6.801-8.2C106.38,360.324,104.781,359.824,103.181,359.324z"/>
	<path fill="#2B2B2B" d="M302.781,652.024c-25.2,7.1-46.3,24.6-71.899,28.8c-27.602,4.3-57.302-5.5-71.602-22.8
		c-4-4.9-8.8-16.602-3.1-23.9c13.398-17.4,39.898-27.8,58.5-15.6c12.2,8.5-5.8,3.398-13.7,5.198c-8.7,1.9-9.3,12.302-17.3,14.302
		c-5.9,1.398-17.4,2.6-5.4,15.698c5.601,6.302,14.101,10.602,23.3,13.802c16,5.5,21.302,9.398,38,4.398
		c14.802-5.6,29.701-11,44.401-16.6C289.981,654.124,296.281,653.124,302.781,652.024z"/>
	<path fill="#D92425" d="M377.281,469.324c-7.8-8.4-16.1-16.801-21.6-26.9c-2.5-4.7-2.102-11-4.5-16.3c-3-7-8.7-13.101-10.5-19.7
		c-2-7.8-0.4-13.8-5-20.7c-4.8-7.1-12.8-17.6-23.102-13.399c-5.6,2.199-8.8,4.899-9.898,11.3c-0.9,5-1.8,11.7-1.3,16.3
		c1.198,11.1,11.398,12.4,8.398,21.6c-3.7,11.601-19-15.3-20.1-18.199c-3.7-10.601-5.8-25.101,3-34c10.6-10.7,29.2-7.601,40,1.1
		c13.898,11.3,16.8,30.6,21.3,46.9C358.882,436.124,366.882,452.724,377.281,469.324z"/>
	<path fill="#2B2B2B" d="M450.781,670.924c0.102,0,0.102-0.1,0.2-0.2c2.2-2.698,5.6-3.898,8.5-5.6c1.4-0.8,5-2.6,5.7-4.4
		c-0.8,0.302-3.9,1.4-4.4,1.602c-1.7,0.6-3.3,1.1-5.1,1.6c-3.8,1-7.7,1.7-11.5,2.5c-5,1.102-9.9,1.8-15,0.9
		c-6.3-1.2-12.3-3.7-18.8-4.102c-10.102-0.698-17.102,2-30.9-1c-4.7-1.1-21.5-11.8-26.8-13.198c-3.3-0.9-7.4-0.5-10.8-0.602
		c-4.9-0.1-9.7-0.8-14.302-2.898c-2.698-1.302-5.198-3-7.698-4.7c-2.602-1.7-5.102-3.602-7.2-5.9c-3.7-3.898-8.4-10.5-6.4-16.1
		c1.102-3.2,4.3-4.8,7.102-6.4c3.398-2.1,6.698-4.2,9.698-6.7c-0.698,0.602-2.398,0.802-3.198,1c-1.2,0.4-2.4,0.7-3.602,1.102
		c-2.5,0.7-5,1.398-7.3,2.5c-3.7,1.8-6.9,4.5-9,8c-4.9,8.1-3.4,18.7,2.7,25.8c1.8,2.1,4,3.9,6.3,5.4c5.1,3.398,10.3,5.6,16.1,7.198
		c5.802,1.7,11.802,2.802,17.7,4c3.2,0.7,6.5,1.4,9.7,2.302c13.5,3.698,26.8,7.698,40.6,9.398c16.802,2.2,32.102,3.5,48.9,0
		c0.6,8.3-11.8,9.7-17.4,10.7c6.102,2.2,15-0.8,20-4.3C447.481,676.924,448.682,673.524,450.781,670.924z"/>
	<path fill="#2B2B2B" d="M226.181,597.424c-10.7-8.8-19.602-9.6-30.8-17.2c-7.7-5.2-17.802-17.8-23.7-22.399
		c-3.8-3-7.7-5.9-11.7-8.9c4.9-0.4,8.6-3.7,6.3-11.7c-3.6-13.5-12.5-4.3-13.2-20.399c-0.698-16.101,1.7-14.7,6.9-12.801
		c5.3,1.9,6.7,4.9,11.4-4.699c4.6-9.601,7.8-16.4-2.7-18.9s-25.8,0.7-25.8-10.4c0-10.899-8-18.399,3.398-23.399
		c-9.6-2.4-18-8.2-23.5-16.5c-2.8-4.2-5.899-15.4-13.3-12.601c-7.1,2.601-4.2,14.101-2.5,19.2c1.1,3.4,2.4,6.8,3.9,10.101
		c2.398,5.1,0.799,5.3-3.801,7.5c-3.101,1.399-8.101,4.3-11.601,2.5c-4.101-2-3.2-8.101-2.5-11.7c1.8-8.101,6.2-15.601-1-22.601
		c-3.899-3.8-7.5-8-13.3-6.5c-6.301,1.601-11.9,3.601-15.102-3.6c-4.699-10.6,7.602-21-3-30.6c-6.1-5.601-9.398-9.9-11.5-18.101
		c-4-15.1-2.5-30.899-5-46.399c-2.1-12.7-8.3-25-8.5-38.1c-0.199-16,4.5-30.4,9.102-45.5c3.398-11.1,3.8-22.4,4.3-33.9
		c0.3-6.7,0.399-13.6,2.2-20.1c10.1-37,25.699-72.7,39.3-108.5c3.7-9.8,7.5-19.9,11.8-29.4c1.102-2.5,4.9-13.6,8.301-14.3
		c5.899-1.1-2.4,27.9-3.199,30.7c-3.801,12.3-8.602,24.3-12.801,36.4c-2.4,6.9-4.699,13.9-6.601,20.9
		c-5.899,22.7-5.601,46-2.101,69.1c1.5-13,3-26.1,6.101-38.9c7.7-31.8,20-62.7,29.399-94.1c2.5-8.4,12.399-50.1-4.101-51.6
		c-7.101-0.6-12.8,10.1-15.2,15.1c-3.699,7.6-6.199,15.6-9.3,23.5c-10.2,26.5-20.8,52.9-30.2,79.7c-5.699,15.9-11,32.1-15.699,48.5
		c-12.399,43-21.601,87.1-19.301,132c2,48,12.801,94.5,32.5,138.6c5.6,12.3,11.6,24.4,18.2,36.3c8,14.5,17.2,28.3,27.601,41.101
		c33.902,42.1,74.702,77.2,124.202,99.8c11.802,5.4,23.802,9.1,36,13.3C252.281,623.724,241.481,609.424,226.181,597.424z"/>
	<path fill="#D92425" d="M312.682,589.524c-15.2-6.7-18.4-14.4-19.4-24.9c-0.398-4.4,8.3-10.5,2.8-15.2
		c-10.1-8.8-26.5-5.8-37.3-15.8c-10-9.2-25.399,9.399-35.1,0.2c-7.102-6.7-7.5-12.301-18-15.301c-18.2-5.3-13.8,15.4-5.8,23.301
		c6.5,6.5,9.3,6.5,6.6,15.3c-2.1,6.7-8.5,4.899-12.4,8.1c6.302,5.7,11.602,13.9,21.302,14.2c16.6,0.5,20.198-10.5,35.1,2.7
		c5.7,5,7.2,12,9,19c1.4,5.3,3.1,13.3,9.2,15.4c3,1,7-0.7,9.7-1.9c5.698-2.5,6.6-10.2,12-12.3c5-2,12.898,2.2,18,2.7
		C316.781,605.924,327.481,594.824,312.682,589.524z"/>
	<path fill="#2B2B2B" d="M63.781,454.324c-21.898-15.101-47.3-25.7-61.199-52.801c-13.899-27.1,32.5-8.699,40.301-0.5
		c-1-1-16.2-4.3-18.5-4.6c-6.602-0.6-7.801,0.7-5.5,8.8C24.981,426.324,49.781,439.124,63.781,454.324z"/>
	<path fill="#D92425" d="M166.781,343.424c-2.8-19.1-1-39.4-15.7-55.9c-14.8-16.4-18.699,20.6-15.699,28c0.8-4.9,2.8-9.3,3.398-14.1
		c0.5-3.9,1.7-5.9,5.602-3.7C160.281,306.724,160.181,328.124,166.781,343.424z"/>
</g>
</svg>
