<?xml version="1.0" encoding="utf-8"?>
<!-- Generator: Adobe Illustrator 15.0.0, SVG Export Plug-In . SVG Version: 6.00 Build 0)  -->
<!DOCTYPE svg PUBLIC "-//W3C//DTD SVG 1.1//EN" "http://www.w3.org/Graphics/SVG/1.1/DTD/svg11.dtd">
<svg version="1.1" id="Layer_1" xmlns="http://www.w3.org/2000/svg" xmlns:xlink="http://www.w3.org/1999/xlink" x="0px" y="0px"
	 width="396.915px" height="482.157px" viewBox="0 0 396.915 482.157" enable-background="new 0 0 396.915 482.157"
	 xml:space="preserve">
<g>
	<path fill="#2B2B2B" d="M198.509,431.829c-4.399,2.396-10,1.799-14.7,2.896c-4.699,1.104-21.3,6.803-25.9,8.104
		c-16.5,4.6-20.6,9.299-37.1,9.199c-27.5-0.199-51.6-9.104-36.8-22.5c14.8-13.4,15.7-23.303,27.9-30.199c12.2-7,29.8,4.896,39.8,2.1
		c-3.3,9.699-14.9,7.5-23.7,7.699c-8.9,0.201-15,6.301-16.9,15c-2,8.701-25.2,8.301-8.3,17c14.8,7.6,34.9,0.801,49.9-2.9
		c7.9-1.896,15.4-5.299,23.3-7.299c3.899-1,7.899-1.701,12-1.6C189.41,429.329,198.009,432.127,198.509,431.829z"/>
	<path fill="#010101" d="M287.209,422.727c3.603-1.695,8.9,1.604,11.699,7.604c2.9,6,2.201,12.201-1.299,13.896
		c-3.603,1.701-8.9-1.6-11.701-7.6C283.009,430.727,283.509,424.428,287.209,422.727z"/>
	<path fill="#D92425" d="M271.709,392.829c3.199-1.4,1.699-2.201,3.103-4.602c6.1-9.803,39-6.199,34.199-27
		c-3.201-14.199-28.302-5.1-34.603-14.6c-7.199-10.799,16-13.699,5.701-23.898c-3.701-3.602-9.9-1.9-14.103-4.801
		c-7-4.801-6.698-6.1-1.602-10.801c6.801-6.299,12.199-8.398,14.5-18.6c-7.398,0.898-14.5,3.398-20.5-2.5
		c-6.6-6.4-6.1-17.602-12.5-24.299c-5.699-5.9-18.6-10.5-26.5-8.803c-7,1.5-17.301,12.4-15.801,20.4
		c1.301,7.301,14.102,5.201,13.301,11.6c-0.699,7.201-9.1,8.102-6.398,16.803c3,8.799,9.699-0.4,14.898-0.602
		c0.602,0.199,1.801,3.4,1.801,4.102c0.398,2.898-5.801,10.898-9.301,11.299c-3.699,0.398-5.301-3-8.398-4
		c-2.102-2.602-4.301-7.299-6.397-10.9c-3-5.1-10.4-7.5-10-13.299c0.398-9.9-11.4-9.5-18.301-7.5c-7.199,2.1-8.5,2.199-14.201-3.5
		c-2.1-2.1-6.9-8.5-9.5-9.5c-3-1.201-10.7-0.301-13.7,0.6c-10.2,3-7.9,13.699-19.6,15.699c-12.1,2.102-13.4-4.398-11.5-14
		c1.6-8-1.2-8-7.6-7.6c-8.5,0.5-11.6,5.398-14.1-4.699c-1-4.201-4.2-6.201-8.2-7c-5.6,0.199-13.1,0.6-16.8,5.5
		c-4.7,6.199,2.1,14.799-1.9,20.5c-2.5,3.5-11.1,0.199-13.1,4.799c-4.5,10.801,5.8,26.201,11.2,34.201c3.6,5.199,7.5,10.4,11.7,15.1
		c0,0,0,0,0.1,0.1c3.8,4.102,18.1,16.803,24.2,9.701c3.9-4.701-4.4-14-1.4-19.898c4.5-8.9,21.4,11.398,32.8,11.299
		c12.8-0.102,20.4-19.898,23-17.201c4.2,4.4-6,14.102-7.6,17.803c-4.2,9.697,8.2,10.398,3.5,17.1c-11.8-3.4-15.7,4.801-13.3,14.801
		c5,21.699,22.7,15.398,38.5,15.699c11.302,0.199,14,9.896,25.302,3.301c10.699-6.301,15.898-10.9,14.699-23.4
		c-0.5-5.199-0.698-11.396,3.5-15.199c5.699-4.801,14.199-2.197,13.5,5.898c-0.602,6.701-8.602,7.602-2.301,14.801
		c5.898,6.801,10.603,1.801,9.898,11.699c-0.301,5.4-2.101,10.201,5.102,11.102c2.103,0.199,8.301-6.602,14.398-5.398
		C259.709,384.829,268.009,394.329,271.709,392.829z"/>
	<path fill="#2B2B2B" d="M185.81,5.228l-32.8,4.3c-26.5,7.7-47.4,21.6-66.9,40.6l-30,34.701l-0.1-0.201
		c6.6-14.5,11.7-29.898,21.9-42.299c9.6-11.601,22.1-20.601,35.1-28.201c11.8-6.799,24.8-12.398,38.3-13.898
		C162.91-0.972,174.31,2.829,185.81,5.228L185.81,5.228z"/>
	<polygon fill="#231F20" points="346.81,477.528 346.81,477.528 347.009,477.528 	"/>
	<g>
		<path fill="#2B2C2B" d="M44.811,122.627c1.6-13.6,14.8-23.199,26.3-29.299c12.1-6.5,25.8-10.9,39.7-9.9
			c9.4,0.602,18.4,6.4,27.8,5.102c1.5-0.201,2.6-2,2.5-3.301c0-20-6.9-39.199,7.5-56.199c4-4.602,8.8-8.5,14.2-11.201
			c6.2-3,13.2-3.5,20.099-4.6l0.102,1.1c-15.801,6.301-30.501,13.301-34.901,31.4c-3.8,15.699,11.6,36.699-0.9,50
			c-8.6,9.199-22.2,0.5-31.6-1.801C90.109,87.329,59.311,101.528,44.811,122.627z"/>
	</g>
	<path fill="#2B2B2B" d="M328.111,369.329c2.1,0.299,4.299,0.898,5.897-0.602c2.603-2.303-0.397-6.5,3.5-8.102
		c2.699-1.1,10.5,1.799,12.302,3.799c4.1,4.604,1.1,10.9-3,13.604c-3,1.896-12.4,6.199-13.603,9.6c-2.102,6.301,12,4.102,14.5,2.602
		c5.398-3.102,8.199-11.998,16.103-7.697c5,2.699,10.301,10.396,0.7,9.5c0.101,4.896,6,4.5,9,6.799
		c8.5,6.896-6.399,4.801-9.104,7.201c-2.801,2.396-3.301,8,0.104,10.1c4.695,2.9,11-4.301,11.601,5.199
		c0.5,8.301-5.201,8.301-11.101,10.896c-3.7,1.604-6.802,10.604-9.802,10.604c-6.699-0.201-7-14.701-14.699-13
		c-4.398,1-8.5,13.699-14.301,11.5c-4.101-1.5,0.301-12.301-1-15.201c-2.601-6.199-9.896-2.199-15.101-3.5
		c-9.5-2.6-1.602-7.5,1.5-11.299c3.199,1.5,12.101,3.299,14.299-0.5c2.9-4.801-6.198-4.5-9.1-4.9
		c-5.699-0.801-13.602-1.1-18.801-3.396c-9.101-3.9,1.102-6.805,5.602-8.9c5-2.1,6.799-4.102,7.199-9.201
		c0.5-9.896,3.5-13.299,14.5-15.197C326.41,369.127,327.31,369.127,328.111,369.329z"/>
	<path fill="#2B2B2B" d="M215.111,377.928c-8.4-3.398-7.9-3.801-3.5-10.801c1.199-1.898,0.299-5,1.6-7.5
		c2-3.699,2.302-5.199,0.199-9c-2.6-4.699-0.699-6.299,2.603-9.299c3.698-3.4-5-9.4-5.802-12.4c-1-3.6,0.9-7.801-1.1-11.199
		c-3.801-6.699-11.603-1.199-16.103-5.199c-1.102-1-0.898-3.301-1.398-4.701c-3.602-8.199-15.602-9.699-23-6.299
		c-8.4,3.898-4.702,9.199,0,14.5c6.299,7.199-8.3,12.6-13.202,14.697c-7.3,3.104-5.8,10.303-2.1,16.4c4.1,7,9.5,12.398,6.4,20.898
		c-3,8.102-6.5,15.5,0.4,22.803c3.2,3.396,6.1,9.199,11.4,9.1c4-0.1,12.2-7.6,15.301-2.896c1.301,1.896,0.1,4.695,0.699,6.799
		c1.898,5.896,10.398,0,14.603,1.701c3.5,1.396,6.699,2.299,10.699,3.1c4.198,0.699,5.897,1.199,8.301-2.4
		C226.41,398.727,225.31,382.028,215.111,377.928z"/>
	<path fill="#2B2B2B" d="M52.209,199.729c-4.4-1.701-9-2.303-11.4,1c-2.5,3.197,1.5,7.197,3.2,10c1.6,2.6,4.2,4.697,2.6,7.197
		c-1.7,2.602-5.3,2.5-7.4,4.701c-5.7,6.102,3.8,23.602,9.1,27.799c4.3,3.4,10.8,4.303,14.7,8.201c3.2,3.299,1.1,6.199,2.2,9.799
		c1.5,4.4,7.2,6.303,11.3,6.303c5.7,0,20.4-8.303,17.4-15.602c-2-4.898-17.6-9.398-15.5-12.398c2.5-3.4,21.6,4.799,23.7,1.197
		c2.7-4.5,5.4-8.799,5.6-12c0.1-2.6-18.8,3.4-21.4,0.9c-5-5,0.1-12.4-4.4-12.4c-5,0-16,9.4-19.6,4.5
		c-5.4-7.299,10.5-17.5-0.2-23.799C60.009,203.528,56.109,201.229,52.209,199.729z"/>
	<g>
		<path fill="#2B2C2B" d="M48.709,127.028c-3.2,22-1.6,41.398,14.6,58.201c5.1,5.299,11.9,8.398,18.2,12
			c4.7,2.697,9.4,5.5,14.2,8.197l62.7,36.803c11.6,7.197,21.9,13.1,29.9,24.197c-8.5-10.5-19-15.697-30.9-22.1l-64.2-33.199
			c-21.9-12-41.8-26.301-47-52.1C43.91,147.729,46.41,138.028,48.709,127.028z"/>
	</g>
	<g>
		<path fill="#2B2C2B" d="M302.611,447.428c2.299-3.1,3.6-4.896,1.199-8.301c-6.5-9-17.5-11.299-27.5-14.4c0,0,0.198,2,0.198,2.104
			c0.603,5.396,5,9.6,8.199,13.701l0,0c-2.897-2-7.897-4.5-9.801-7.604c-2.6-3.801-8.1-14.801,1.199-14.6
			c12.602,0.396,22.602,6.1,28.801,17C307.91,440.627,307.111,443.627,302.611,447.428z"/>
	</g>
	<path fill="#2B2B2B" d="M309.41,290.729c4.603-2,10.5-40.201,3.701-56.201c-6.701-16-21.5-27.799-31.701-15.799
		c-10.199,12-20.1,14.898-24.398,23.799c-4.302,8.898,12.101,16.1,11.601,22.6c9.199-4.398,4.199-10.5,2.199-15.699
		c-1.9-5.199,2.897-10.301,11.301-13.6c8.397-3.301,6.699-18.9,15.397-9.102C306.31,236.528,317.611,264.329,309.41,290.729z"/>
	<path fill="#2B2B2B" d="M396.41,418.329c-0.397-3.5-1.199-6.9-2.1-10.301c-4.299-14.699-12.199-28.604-19.799-41.801
		c-9.9-17.199-24.4-32-38.503-45.898c-7.897-7.801-15.397-16.5-23.897-23.701c-9.701-8.199-21-15.1-31.5-22.398
		c-7.801-5.602-16.201-9.5-24.701-13.9c-17.199-8.9-34.6-17.299-52.199-25.299c-5.199-2.4-10.398-4.701-15.5-7.102
		c-1-0.5-2.1-1-3.1-1.398c-3.801-13.201-11-23.4-25.102-26.201c-5.8-1.199-11.8-1.4-17.7-2.1c-5.7-0.699-12.1-0.801-17.3-3.199
		c-6-2.701-7.8-8.4-10.4-13.9c-2.5-5.1-6-7.201-11.6-7.5c-5.9-0.201-11.8,0.299-17.7,0.4c-5.7,0.1-12.5,0.398-16.5-4.602
		c-1.9-2.398-3-5.5-4.7-8.1c-2-3-4.6-5.301-7.2-7.701c-6.4-5.799-6.9-10.898-4.5-19c-3.3,8.801-3.8,15,2,22.701
		c2.3,3.1,4.6,6.1,6.3,9.6c1.3,2.801,2,5.9,3.6,8.602c2.9,5.1,9.3,5.799,14.6,6.6c6.2,1,11.7,0.299,18-0.301
		c7.3-0.699,9.9,3.1,13.1,9.1c4.1,7.701,9.4,12.303,18.2,13.803c15.1,2.5,34.9-0.102,46,12.898c8.5,10,10.3,24.9,13,37.299
		c0.301,1.5,0.698,3,1,4.5c-1-4.5-0.397-9.898-0.601-14.6c-0.201-5-0.601-10-1.601-14.9c2.399,1.701,17.399,9.9,22,12.701
		c9.699,5.699,19.301,11.4,29.399,16.5c4.8,2.4,9.398,5.102,14,7.699c2.3,1.301,7.898,4.5,8.601,7.201
		c-23.601,3,7.5,17.299,4.699,17.6c-22.101,3.102,11,9,4.602,9.699c-7.9,1-10,6.5-14,4.6c-4.102-2-10.102,4.102-6.301,7.701
		c1.301,1.199,4.102,1.299,5,2.699c1.199,1.6-4.101,5.9-4.699,7c-2.801,5,3.301,18,8.6,18.5c4.5,0.299,10.103-1.201,14-3.4
		c3.701-2.199,7.603-3.5,11.603-0.398c2.897,2.102,3.303,7.9,8,7c4.5-0.898,8-3.301,12.397-0.398c2.603,1.699,4.603,4.5,7.802,5
		c4.604,0.699,8.399-2.102,10.5-6c1.301-2.301,2.801-9.199,6.399-7.301c8.101,4.301,6.199,17.102,17.199,15.602
		c2.1-0.301,4.5-2.398,5-3.602c5.301,5.199,9.699,10.602,14.1,16.602c8.9,12.102,16.4,27.199,21.604,41.398
		c3.896,10.701,6.896,22.6,2.896,33.801c-3.699,10.5-13.1,17.9-23.199,22c-23.698,9.799-50.999,10.4-75.999,6.4
		c-7.199-1.201-14.396-2.701-21.5-4.5c-13.396-3.5-27-10.201-27.699-25.805c-0.301-6.1-0.603-12.695,2.303-18.195
		c3.1-6,7.5-11.305,12.697-15.701c-15.197,5.301-24.801,17.801-22,34.5c0.803,5,3.602,9.896,4.199,14.801
		c-5.396-1.201-30-25.6-36.199-21.1c4.803,4.896,10.897,9.197,16.303,13.396c12.299,9.801,26,16.9,41,21.699
		c17.697,5.701,36.197,8.4,54.896,8.701c6.104,0.1,23.399,0.396,25.604-0.701c-2.201,1.1-3.803,2.201-6.4,2.9
		c-2.6,0.697-5.398,1.197-7.6,3c8.896,2.396,17-2.604,25-5.803c14.396-5.697,28.198-8.301,37.799-21.801
		C395.91,443.727,398.011,430.829,396.41,418.329z"/>
	<path fill="#2B2B2B" d="M117.91,373.528c-25.1-21.604-46.7-47.699-63.1-76.4c-9-15.5-15.7-33.398-21.6-50.299
		c-10.8-30.9-15.4-63.6-10-96.1c2.6-15.803,7.5-31.102,13.9-45.701c1.7-3.9,19.6-42.9,22.1-42.199l-0.5-0.1
		c-11.6,15.898-24.6,31.398-33.7,48.799c-15.2,28.701-19.1,62.301-15.1,94.398c4.9,39.201,19.4,78.602,41.9,111.803
		c-0.1,0-13.1-4.9-19.8-6.701c-11.4-2.9-21.7-7.799-24.1-10.199c-5.8-5.9,3.8-3.9,6.2-8.801s5.7-7.5,8.9-6
		c3.2,1.5,6.8,4.898,9.9-0.4c-4.1-0.1-8.1-10.5-13.7-8.398c-5.7,2-7.9,7.801-15.7,13.301c-7.8,5.5-1.6,16.6,8.8,20.199
		c4,1.398,9.3,4,15.8,5c10,1.6,20.3,4.398,26.6,6c6,8.5,12.6,16.602,19.6,24.102c23.1,24.6,54.7,38.5,83.7,55.6L117.91,373.528z"/>
</g>
</svg>
