<?xml version="1.0" encoding="utf-8"?>
<!-- Generator: Adobe Illustrator 15.0.0, SVG Export Plug-In . SVG Version: 6.00 Build 0)  -->
<!DOCTYPE svg PUBLIC "-//W3C//DTD SVG 1.1//EN" "http://www.w3.org/Graphics/SVG/1.1/DTD/svg11.dtd">
<svg version="1.1" id="Layer_1" xmlns="http://www.w3.org/2000/svg" xmlns:xlink="http://www.w3.org/1999/xlink" x="0px" y="0px"
	 width="639.542px" height="557.656px" viewBox="0 0 639.542 557.656" enable-background="new 0 0 639.542 557.656"
	 xml:space="preserve">
<g>
	<path fill="#1C1C1C" d="M535.123,427.754c0.699-3.7,6.602-6.5,13.299-6.399c6.803,0.1,11.9,3.1,11.201,6.8
		c-0.5,3.6-6.701,6.5-13.5,6.6C539.421,434.654,534.523,431.454,535.123,427.754z"/>
	<g>
		<path fill="#2B2B2B" d="M565.023,432.154c0-4.101-0.104-6.4-4.301-7.9c-11-3.899-21.5,0.7-31.699,4l1.5,1.7
			c4,4.3,10.1,7.1,10.1,7.1c-3.701,0-4.1,0.601-7.6-0.8c-4.5-1.8-16-8-8.301-13.3c10.6-7.2,22.398-8.3,34.398-2.6
			C565.123,423.154,566.421,426.254,565.023,432.154z"/>
	</g>
	<path fill="#FF9729" d="M636.123,369.054c-1.398-2.399-3.201-5-4.898-7.1c-1.9-2.2-3.803-4.3-5.699-6.5
		c-1.201-1.5-2.104-2.1-2.201-4c0-1.8,0-3.5-0.1-5.2c-0.199-3.1-2.9-5.8-4.9-8c-2.5-2.6-5.6-4.7-8.9-6.3c-1-0.5-2.197-1-3.299-1.2
		c-0.6-0.1-1.801,0.3-2.301,0c3.4,1.5,6.301,3.7,8.701,6.5c2.199,2.601,3.1,5.5,3.396,8.9c-3.5-3.601-7.6-6.7-11.396-9.9
		c-3.9-3.3-8.201-6.1-12.604-8.899c-3.1-1.9-6.299-3.801-9.396-5.5c-12.301-6.601-25.301-11.801-38.604-15.9
		c-13.896-4.2-28.1-7.3-42.299-10.4c-29.898-6.5-68.5-17.299-116.6-14.5c-35.9,2.2-83.104,5.301-126.701,2.9
		c-27.9-1.5-56.4-5.1-82.899-14.6c-4.101-1.5-18.8-6-33.3-13.7c-41.1-21.8-64.4-64.7-66.7-110.4c-0.6-11.7,0-24.2,2.4-35.6
		c1.7-8,4.8-15.5,7.7-23.1c2.4-6,6-13.6,2.9-20c-2.8-5.6-11.2-0.9-14.9,1.5c-4.1,2.8-10.7,9-15.2,17.5c-4.5,8.6-10.4,22-11.6,31.5
		c-0.5,4.1,3.5,4.8,1.3,8.4c5.9-14.2,11.9-28.8,20.6-41.6c0.8-1.2,4.8-8,6.9-7.3c2,0.9-0.3,7.6-0.5,9c-3.4,14-7.9,27.7-8.9,42.3
		c-1,14.9,1.5,30,5.2,44.4c3.4,13.5,8.3,26.4,13.9,38.9c5.7,12.5,15.1,22.7,27,33.8c-7.5,3.8-2.602,13.9,0.801,18.9
		c8.299,12.3,18.1-4.5,29.6,3.5c11.4,8-5.7,7.3,5.3,17.5c11,10.199,12.103,5.8,30.7,4.1c18.699-1.6,22.9,8,33.602,17.2
		c10.697,9.1,4.6,15.3,23.898,22.2c19.299,6.899,16.4-22.101,19.5-27.301c3-5.1,9.602-10.8,17.299-10.1
		c26.104,4.1,54.4,13.7,78,12.4c38.201-1.801,62.604-4.301,87.803-3.301c-13.803,4.801-25.199,13.2-2.4,17.801
		c29.201,5.899,64.701,7.699,53.1,16.8c-11.697,9-27.197,0.399-22,15.399c5.201,15,30.5,8.101,24.201,21.301
		c-6.301,13.3-16.6,26.5,10.699,21c14-4.301,17.301-0.5,27.4,4.199c10,4.601,21.898,17.301,34.6,8.9
		c12.701-8.3,30.801,1.3,35.801-13.2s-18.1-10.5-14.898-21.5c3.197-11.1,17.801-20.6-3.199-23.5c-21-2.899-29.4,10.2-30.801-8.6
		c-0.5-6.7-3.602-12.9-4.4-19.4c0.1,0.2,4.201,0.9,4.6,1c1.604,0.3,3.201,0.7,4.701,1.101c3.102,0.699,6.199,1.6,9.199,2.6
		c7.701,2.4,15.1,5.8,22.201,9.7c6.299,3.5,12.1,7.6,17.699,12.1s11.1,9.2,16.1,14.5c4.4,4.7,8.301,10.101,10.201,16.3
		c0.799,2.7,1.299,5.5,1.5,8.301c0.199,3.399-0.9,20.5-1,21.699c-0.104,0.101,0,0.601,0,0.601c5.5-7.5,9-21.4,6.896-30.8
		C638.421,373.854,636.222,369.054,636.123,369.054z"/>
	<path fill="#2B2B2B" d="M326.222,358.754c9.1-2.2,8.6,8.3,14.898,13.7c6.102,5.5,11.5,14.7,13.9,20.5c2.299,5.7,10.6,11.6,17.6,2.1
		s4-12.899,13.199-13.699c9.301-0.9,16.301,14.6,27.6,3.3c11.4-11.5-3.6-15,4.5-18.7c8.303-3.7,28.604-7.4,24.803-9.9
		c-3.803-2.399-10.4-11-6-15.8c4.398-4.8,1.6-15.8-10.803-16.899c-12.6-1.101-24.299,3.899-32.197-3.301
		c-7.699-7.1-27.9-4.5-36.602-3.199c-8.898,1.199-16.5-6.101-32.701-2.4c-16,3.8-33.299,10.9-28.5,16.5c4.9,5.6,25.701,6,24.4,14.2
		C318.623,353.354,318.123,360.754,326.222,358.754z"/>
	<path fill="#2B2B2B" d="M169.023,320.754c-1.602,0.3-3.201,0.601-4.701,0.7c-4.6,0.2-9.299,0.3-14-0.1
		c-9.199-0.7-18-3.4-25.899-8.301c-20.398-12.8-33-36.399-44-57c-12-22.2-23-44.8-34.2-67.3c-0.6-1-7-11.8-6.1-12.8
		c0.4-0.5,5.2,6.4,5.6,7.1c13.8,19.2,27.4,38.6,41.2,57.8c3.1,4.3,7.7,9,8.8,14.2c0.9,4.5,0.1,9.6,2.5,13.7
		c3.9,6.8,13.4,12.1,17.5,18.7c4.801,7.5,10.1,14.6,19.301,16.4c9,1.699,18.199-0.601,27.199,1c8.6,1.6,17,5.199,24.697,9.3
		c18.201,9.7,33.604,26,55,28.399c15,1.7,21.4-11.3,36.303-8.399c16.697,3.2,37.197,25.399,44.301,39.8
		c1.699,3.5,6.6,12.2,4.199,16.4c-2.199,3.8-7.803,0.3-10.5-1.2c-7.303-4-14.9-8.5-21.5-13.5c-6-4.601-7.5-11.8-11.5-17.7
		c-5-7.6-11.4-3.6-17.803-0.2c-4.896,2.7-10.5,2-15.896,2c-6.604,0.101-13.201,0.8-19.9,1.7c-3.701,0.5-6.701,2.2-10.1,0
		c-5.301-3.3-10.701-8.1-15.201-12.6c-3.799-3.9-4.5-7.601-6.799-12.2c-2.801-5.601-8.9-9.8-13.801-13.2
		c-3.602-2.5-5.602-4.1-10-3.8C172.222,320.154,170.623,320.454,169.023,320.754z"/>
	<path fill="#2B2B2B" d="M486.023,478.854c-18.5,18.5-28.5,44.1-48.701,60.2c-22,17.3-52.699,23.1-73.6,15
		c-5.801-2.301-15.801-10.2-14.4-19.4c3.201-21.8,21.301-43.7,43.4-42.2c14.801,1.5-3.4,5.8-9.5,11.3c-6.6,5.9-2.1,15.301-8.1,20.9
		c-4.398,4.1-14,10.8,2.9,16.4c8,2.697,17.5,2.397,27,0.697c16.6-3,23.199-2.197,35.299-14.697
		c10.201-12.103,20.6-24.103,30.701-36.103C475.921,486.854,480.921,482.854,486.023,478.854z"/>
	<path fill="#FF9729" d="M461.822,282.954c-10.9-3.5-22.199-6.8-32-13c-4.5-2.9-7.199-8.6-11.9-12c-6-4.6-14-7.2-18.799-12.1
		c-5.6-5.8-7.1-11.8-14.5-15.6c-7.6-3.9-19.701-9.2-26.701-0.4c-3.799,4.6-5.197,8.6-3.1,14.7c1.701,4.8,4.1,11.1,6.801,14.9
		c6.5,9.1,16,5.2,17.9,14.8c2.396,12-24.104-4.1-26.4-6.1c-8.398-7.5-17.301-19.1-14-31.1c4.102-14.5,21.799-20.9,35.4-18.6
		c17.6,3.1,29.699,18.5,41.396,30.5C429.623,262.954,444.722,273.554,461.822,282.954z"/>
	<path fill="#2B2B2B" d="M624.421,423.054c0.104-0.1,0-0.1,0.104-0.199c0.6-3.4,3-6.2,4.699-9c0.801-1.4,3.1-4.7,2.801-6.601
		c-0.5,0.601-2.701,3.101-3.104,3.5c-1.197,1.4-2.396,2.601-3.6,3.9c-2.799,2.7-5.9,5.2-8.799,7.8c-3.801,3.4-7.701,6.4-12.604,8.1
		c-6,2-12.6,2.801-18.396,5.5c-9.201,4.301-14,10.101-27.5,14.2c-4.701,1.4-24.5,0.2-29.801,1.601c-3.303,0.8-6.699,3.199-9.699,4.8
		c-4.301,2.3-8.9,4.1-13.9,4.5c-3,0.2-6-0.101-9-0.3c-3.1-0.2-6.201-0.601-9.201-1.7c-5.1-1.601-12.5-5.101-13.396-10.9
		c-0.604-3.3,1.396-6.3,3-9.1c2-3.5,3.799-6.9,5.199-10.601c-0.303,0.801-1.602,1.9-2.303,2.5c-0.896,1-1.799,1.801-2.697,2.7
		c-1.9,1.8-3.699,3.7-5.102,5.7c-2.301,3.4-3.801,7.3-4,11.4c-0.301,9.399,6.199,18,14.9,21.2c2.6,1,5.396,1.398,8.1,1.699
		c6.102,0.399,11.699-0.101,17.602-1.601c5.898-1.399,11.697-3.3,17.398-5.101c3.102-1,6.4-2,9.602-2.8
		c13.6-3.399,27.1-6.399,40-11.6c15.697-6.3,29.801-12.601,42.697-23.9c4.604,6.9-5.6,14.3-10,17.8c6.4-1.1,12.701-8,15.4-13.5
		C624.523,429.954,623.921,426.354,624.421,423.054z"/>
	<path fill="#2B2B2B" d="M392.623,468.555c-13.6-2.501-21.801,1.199-35.301,0.1c-9.299-0.8-24.199-6.8-31.6-8
		c-4.803-0.7-9.699-1.4-14.5-2.101c4.1-2.699,5.697-7.399-0.199-13.3c-9.701-10-13,2.4-21.4-11.3c-8.5-13.7-5.701-13.6-0.201-14.5
		s8.303,1,7.604-9.7c-0.604-10.7-1.201-18.1-11.604-15.2c-10.396,2.9-22.197,13.2-27.5,3.5c-5.299-9.6-16-12.1-8.5-22
		c-9.5,2.5-19.697,1.601-28.5-2.899c-4.5-2.3-12.697-10.601-17.697-4.5c-4.9,5.8,3.197,14.399,7.1,17.899c2.6,2.4,5.4,4.7,8.301,6.9
		c4.602,3.2,3.299,4.2,0.299,8.4c-2,2.8-5,7.699-8.896,7.899c-4.604,0.2-6.701-5.5-7.801-9c-2.4-7.899-2.199-16.7-11.9-19.2
		c-5.299-1.399-10.5-3.3-14.799,0.801c-4.701,4.5-8.602,8.899-15,4.199c-9.301-7-3.602-22-17.602-25.199
		c-8.102-1.9-13-4.101-18.898-10.2c-10.899-11.3-17.301-25.8-27.101-38c-8-10.101-19.4-17.8-26-29.101
		c-7.9-13.899-10.9-28.699-14.3-44.1c-2.5-11.3-7.6-21.4-12.8-31.7c-3-6-6.3-12.1-7.9-18.6c-9.3-37.2-13.1-76-18.6-113.8
		c-1.5-10.4-3.2-21-4-31.4c-0.3-2.7-2.4-14.3,0.2-16.5c4.6-3.8,11.6,25.5,12.2,28.3c2.7,12.6,4.4,25.4,6.6,38
		c1.3,7.2,2.7,14.4,4.5,21.5c5.9,22.7,17.6,42.9,31.9,61.4c-5-12.1-10.1-24.3-13.7-36.9c-8.8-31.5-13.2-64.5-20.2-96.5
		c-1.9-8.6-13.6-49.8-28.8-43c-6.5,2.9-6.2,15-5.9,20.6c0.5,8.4,2.2,16.7,3.4,25c4,28.1,7.7,56.3,12.6,84.3
		c2.8,16.7,6.1,33.4,10,49.9c10.1,43.5,23.6,86.6,47.6,124.7c25.2,40.9,57.301,76.2,96,105.101c10.898,8.1,22,15.699,33.6,22.8
		c14,8.7,28.801,16.3,44.201,22.399c50.1,20.2,102.898,30.9,157.1,26.501c12.9-1.103,25.301-3.7,37.9-6
		C428.222,478.754,411.822,471.555,392.623,468.555z"/>
	<path fill="#FF9729" d="M464.123,419.454c-16.5,1.6-23.1-3.6-29.1-12.3c-2.5-3.7,2.1-13.2-5-14.601
		c-13.201-2.699-25.9,7.9-40.201,4.4c-13.199-3.2-17.6,20.6-30.5,17.3c-9.4-2.399-12.5-7.1-23.1-4.6c-18.5,4.3-4.5,20.2,6.301,23.2
		c8.896,2.5,11.299,1.199,13.199,10.1c1.5,6.8-5,8.5-6.803,13.1c8.303,1.9,16.9,6.5,25.5,2c14.803-7.6,12.5-19,32-14.8
		c7.4,1.601,12.201,6.9,17.104,12.2c3.799,4,9.199,10.1,15.5,9c3.199-0.6,5.799-4,7.6-6.4c3.799-4.899,0.799-12.1,4.4-16.6
		c3.396-4.2,12.299-4.4,17-6.4C475.722,431.754,479.722,416.854,464.123,419.454z"/>
	<path fill="#2B2B2B" d="M181.023,422.954c-26.5-2.5-53.801,0.6-79.201-16.3c-25.4-16.9,24.1-23.4,34.9-20.101
		c-1.4-0.399-16.199,4.101-18.4,5.101c-6.1,2.7-6.5,4.399-0.399,10.399C133.422,417.454,161.322,416.554,181.023,422.954z"/>
	<path fill="#FF9729" d="M216.722,275.854c-11.699-15.3-20-33.9-41-41.1c-20.9-7.1-6.301,27.1,0,32c-1.699-4.6-2.102-9.4-4-14
		c-1.4-3.7-1.4-6,3.1-5.9C193.123,247.054,203.421,265.754,216.722,275.854z"/>
</g>
</svg>
