<?xml version="1.0" encoding="utf-8"?>
<!-- Generator: Adobe Illustrator 15.0.0, SVG Export Plug-In . SVG Version: 6.00 Build 0)  -->
<!DOCTYPE svg PUBLIC "-//W3C//DTD SVG 1.1//EN" "http://www.w3.org/Graphics/SVG/1.1/DTD/svg11.dtd">
<svg version="1.1" id="Layer_1" xmlns="http://www.w3.org/2000/svg" xmlns:xlink="http://www.w3.org/1999/xlink" x="0px" y="0px"
	 width="396.914px" height="482.158px" viewBox="34.39 -83.628 396.914 482.158"
	 enable-background="new 34.39 -83.628 396.914 482.158" xml:space="preserve">
<path fill="#2B2B2B" d="M232.9,348.201c-4.399,2.398-10,1.799-14.7,2.898c-4.699,1.102-21.3,6.801-25.9,8.102
	c-16.5,4.6-20.6,9.299-37.1,9.199c-27.5-0.199-51.6-9.102-36.8-22.5c14.8-13.4,15.7-23.301,27.9-30.199c12.2-7,29.8,4.898,39.8,2.1
	c-3.3,9.699-14.9,7.5-23.7,7.699c-8.9,0.201-15,6.301-16.9,15c-2,8.701-25.2,8.301-8.3,17c14.8,7.6,34.9,0.801,49.9-2.9
	c7.9-1.898,15.4-5.299,23.3-7.299c3.899-1,7.899-1.701,12-1.6C223.799,345.701,232.4,348.5,232.9,348.201z"/>
<path fill="#010101" d="M321.6,339.099c3.602-1.697,8.9,1.602,11.699,7.602c2.9,6,2.201,12.201-1.299,13.898
	c-3.601,1.701-8.9-1.6-11.701-7.6C317.4,347.099,317.9,340.8,321.6,339.099z"/>
<path fill="#FF9729" d="M306.1,309.201c3.199-1.4,1.699-2.201,3.102-4.602c6.1-9.801,39-6.199,34.199-27
	C340.2,263.4,315.1,272.5,308.799,263c-7.199-10.799,16-13.699,5.701-23.899c-3.701-3.6-9.9-1.9-14.101-4.8
	c-7-4.8-6.7-6.1-1.601-10.8c6.8-6.3,12.199-8.4,14.5-18.6c-7.399,0.9-14.5,3.4-20.5-2.5c-6.6-6.4-6.1-17.6-12.5-24.3
	c-5.7-5.9-18.6-10.5-26.5-8.8c-7,1.5-17.301,12.4-15.801,20.4c1.301,7.3,14.101,5.2,13.301,11.6c-0.7,7.2-9.1,8.1-6.399,16.8
	c3,8.8,9.699-0.4,14.899-0.6c0.601,0.2,1.8,3.4,1.8,4.1c0.399,2.9-5.8,10.9-9.3,11.3c-3.7,0.4-5.301-3-8.399-4
	c-2.101-2.6-4.301-7.3-6.399-10.9c-3-5.1-10.4-7.5-10-13.3c0.399-9.9-11.4-9.5-18.301-7.5c-7.199,2.1-8.5,2.2-14.2-3.5
	c-2.1-2.1-6.9-8.5-9.5-9.5c-3-1.2-10.7-0.3-13.7,0.6c-10.2,3-7.9,13.7-19.6,15.7c-12.1,2.1-13.4-4.4-11.5-14c1.6-8-1.2-8-7.6-7.6
	c-8.5,0.5-11.6,5.4-14.1-4.7c-1-4.2-4.2-6.2-8.2-7c-5.6,0.2-13.1,0.6-16.8,5.5c-4.7,6.2,2.1,14.8-1.9,20.5
	c-2.5,3.5-11.1,0.2-13.1,4.8c-4.5,10.8,5.8,26.2,11.2,34.2c3.6,5.2,7.5,10.4,11.7,15.1c0,0,0,0,0.1,0.1
	c3.8,4.1,18.1,16.801,24.2,9.7c3.9-4.7-4.4-14-1.4-19.899c4.5-8.9,21.4,11.4,32.8,11.3c12.8-0.101,20.4-19.9,23-17.201
	c4.2,4.4-6,14.1-7.6,17.8c-4.2,9.699,8.2,10.4,3.5,17.1c-11.8-3.4-15.7,4.801-13.3,14.801c5,21.699,22.7,15.399,38.5,15.699
	c11.301,0.2,14,9.898,25.301,3.301c10.699-6.301,15.899-10.9,14.699-23.4c-0.5-5.199-0.699-11.398,3.5-15.199
	c5.7-4.801,14.2-2.199,13.5,5.898c-0.601,6.701-8.601,7.602-2.3,14.801c5.899,6.801,10.601,1.801,9.899,11.699
	c-0.301,5.4-2.101,10.201,5.101,11.102c2.101,0.199,8.3-6.602,14.399-5.4C294.1,301.201,302.4,310.701,306.1,309.201z"/>
<path fill="#2B2B2B" d="M220.2-78.4l-32.8,4.3c-26.5,7.7-47.4,21.6-66.9,40.6l-30,34.7L90.4,1c6.6-14.5,11.7-29.9,21.9-42.3
	c9.6-11.6,22.1-20.6,35.1-28.2c11.8-6.8,24.8-12.4,38.3-13.9C197.3-84.6,208.7-80.8,220.2-78.4L220.2-78.4z"/>
<polygon fill="#231F20" points="381.2,393.9 381.2,393.9 381.4,393.9 "/>
<g>
	<path fill="#2B2C2B" d="M79.2,39C80.8,25.4,94,15.8,105.5,9.7c12.1-6.5,25.8-10.9,39.7-9.9c9.4,0.6,18.4,6.4,27.8,5.1
		c1.5-0.2,2.6-2,2.5-3.3c0-20-6.9-39.2,7.5-56.2c4-4.6,8.8-8.5,14.2-11.2c6.2-3,13.2-3.5,20.099-4.6l0.102,1.1
		C201.6-63,186.9-56,182.5-37.9c-3.8,15.7,11.6,36.7-0.9,50c-8.6,9.2-22.2,0.5-31.6-1.8C124.5,3.7,93.7,17.9,79.2,39z"/>
</g>
<path fill="#2B2B2B" d="M362.5,285.701c2.1,0.299,4.299,0.898,5.899-0.602c2.601-2.301-0.399-6.5,3.5-8.1
	c2.699-1.101,10.5,1.799,12.3,3.799c4.1,4.602,1.1,10.9-3,13.602c-3,1.898-12.4,6.199-13.601,9.6c-2.101,6.301,12,4.1,14.5,2.6
	c5.399-3.1,8.2-11.999,16.101-7.698c5,2.699,10.301,10.399,0.701,9.501c0.1,4.898,6,4.5,9,6.799c8.5,6.898-6.4,4.801-9.102,7.201
	c-2.801,2.398-3.301,8,0.102,10.1c4.697,2.9,11-4.301,11.6,5.199c0.5,8.301-5.201,8.301-11.1,10.898
	c-3.701,1.602-6.801,10.602-9.801,10.602c-6.699-0.201-7-14.701-14.699-13c-4.4,1-8.5,13.699-14.301,11.5
	c-4.1-1.5,0.301-12.301-1-15.201c-2.6-6.199-9.898-2.199-15.1-3.5c-9.5-2.6-1.601-7.5,1.5-11.299c3.199,1.5,12.1,3.299,14.299-0.5
	c2.9-4.801-6.199-4.5-9.1-4.9c-5.699-0.801-13.601-1.1-18.8-3.398c-9.101-3.9,1.101-6.803,5.601-8.9c5-2.1,6.799-4.101,7.199-9.201
	c0.5-9.898,3.5-13.299,14.5-15.199C360.799,285.5,361.7,285.5,362.5,285.701z"/>
<path fill="#2B2B2B" d="M249.5,294.3c-8.4-3.399-7.9-3.801-3.5-10.801c1.199-1.899,0.299-5,1.6-7.5c2-3.699,2.301-5.199,0.199-9
	c-2.6-4.699-0.699-6.299,2.602-9.299c3.699-3.4-5-9.4-5.801-12.4c-1-3.6,0.9-7.8-1.1-11.2c-3.801-6.7-11.601-1.2-16.101-5.2
	c-1.101-1-0.899-3.3-1.399-4.7c-3.601-8.2-15.601-9.7-23-6.3c-8.4,3.9-4.701,9.2,0,14.5c6.299,7.2-8.3,12.6-13.201,14.7
	c-7.3,3.101-5.8,10.3-2.1,16.399c4.1,7,9.5,12.4,6.4,20.9c-3,8.1-6.5,15.5,0.4,22.801c3.2,3.398,6.1,9.199,11.4,9.1
	c4-0.1,12.2-7.6,15.3-2.898c1.301,1.898,0.1,4.697,0.7,6.799c1.899,5.898,10.399,0,14.601,1.701c3.5,1.398,6.699,2.299,10.699,3.1
	c4.2,0.699,5.899,1.199,8.301-2.4C260.799,315.099,259.7,298.4,249.5,294.3z"/>
<path fill="#2B2B2B" d="M86.6,116.1c-4.4-1.7-9-2.3-11.4,1c-2.5,3.2,1.5,7.2,3.2,10c1.6,2.6,4.2,4.7,2.6,7.2
	c-1.7,2.6-5.3,2.5-7.4,4.7c-5.7,6.1,3.8,23.6,9.1,27.8c4.3,3.4,10.8,4.3,14.7,8.2c3.2,3.3,1.1,6.2,2.2,9.8c1.5,4.4,7.2,6.3,11.3,6.3
	c5.7,0,20.4-8.3,17.4-15.6c-2-4.9-17.6-9.4-15.5-12.4c2.5-3.4,21.6,4.8,23.7,1.2c2.7-4.5,5.4-8.8,5.6-12c0.1-2.6-18.8,3.4-21.4,0.9
	c-5-5,0.1-12.4-4.4-12.4c-5,0-16,9.4-19.6,4.5c-5.4-7.3,10.5-17.5-0.2-23.8C94.4,119.9,90.5,117.6,86.6,116.1z"/>
<g>
	<path fill="#2B2C2B" d="M83.1,43.4c-3.2,22-1.6,41.4,14.6,58.2c5.1,5.3,11.9,8.4,18.2,12c4.7,2.7,9.4,5.5,14.2,8.2l62.7,36.8
		c11.6,7.2,21.9,13.1,29.9,24.2c-8.5-10.5-19-15.7-30.9-22.1l-64.2-33.2c-21.9-12-41.8-26.3-47-52.1C78.3,64.1,80.8,54.4,83.1,43.4z
		"/>
</g>
<g>
	<path fill="#2B2C2B" d="M337,363.8c2.299-3.1,3.6-4.898,1.199-8.301c-6.5-9-17.5-11.299-27.5-14.4c0,0,0.2,2,0.2,2.102
		c0.601,5.398,5,9.6,8.199,13.701l0,0c-2.899-2-7.899-4.5-9.8-7.602c-2.6-3.801-8.1-14.801,1.199-14.6
		c12.601,0.398,22.601,6.1,28.801,17C342.299,357,341.5,360,337,363.8z"/>
</g>
<path fill="#2B2B2B" d="M343.799,207.1c4.602-2,10.5-40.2,3.701-56.2c-6.701-16-21.5-27.8-31.701-15.8
	c-10.199,12-20.1,14.9-24.399,23.8C287.099,167.8,303.5,175,303,181.5c9.199-4.4,4.199-10.5,2.199-15.7
	c-1.9-5.2,2.899-10.3,11.301-13.6c8.399-3.3,6.699-18.9,15.399-9.1C340.7,152.9,352,180.7,343.799,207.1z"/>
<path fill="#2B2B2B" d="M430.799,334.701c-0.398-3.5-1.199-6.9-2.1-10.301c-4.299-14.699-12.199-28.602-19.799-41.801
	c-9.9-17.199-24.4-32-38.501-45.899C362.5,228.9,355,220.2,346.5,213c-9.701-8.2-21-15.1-31.5-22.4
	c-7.801-5.6-16.201-9.5-24.701-13.9c-17.199-8.9-34.6-17.3-52.199-25.3c-5.199-2.4-10.398-4.7-15.5-7.1c-1-0.5-2.1-1-3.1-1.4
	c-3.801-13.2-11-23.4-25.101-26.2c-5.8-1.2-11.8-1.4-17.7-2.1c-5.7-0.7-12.1-0.8-17.3-3.2c-6-2.7-7.8-8.4-10.4-13.9
	c-2.5-5.1-6-7.2-11.6-7.5c-5.9-0.2-11.8,0.3-17.7,0.4c-5.7,0.1-12.5,0.4-16.5-4.6c-1.9-2.4-3-5.5-4.7-8.1c-2-3-4.6-5.3-7.2-7.7
	c-6.4-5.8-6.9-10.9-4.5-19c-3.3,8.8-3.8,15,2,22.7c2.3,3.1,4.6,6.1,6.3,9.6c1.3,2.8,2,5.9,3.6,8.6c2.9,5.1,9.3,5.8,14.6,6.6
	c6.2,1,11.7,0.3,18-0.3c7.3-0.7,9.9,3.1,13.1,9.1c4.1,7.7,9.4,12.3,18.2,13.8c15.1,2.5,34.9-0.1,46,12.9c8.5,10,10.3,24.9,13,37.3
	c0.301,1.5,0.699,3,1,4.5c-1-4.5-0.398-9.9-0.6-14.6c-0.201-5-0.601-10-1.601-14.9c2.399,1.7,17.399,9.9,22,12.7
	c9.699,5.7,19.3,11.4,29.399,16.5c4.8,2.4,9.4,5.1,14,7.7c2.3,1.3,7.9,4.5,8.601,7.2c-23.601,3,7.5,17.3,4.699,17.6
	c-22.101,3.1,11,9,4.601,9.7c-7.9,1-10,6.5-14,4.6c-4.101-2-10.101,4.1-6.3,7.7c1.3,1.2,4.101,1.3,5,2.7c1.199,1.6-4.101,5.9-4.7,7
	c-2.8,5,3.301,18,8.6,18.5c4.5,0.299,10.102-1.201,14-3.4c3.701-2.2,7.602-3.5,11.602-0.399c2.898,2.101,3.301,7.9,8,7
	c4.5-0.899,8-3.301,12.398-0.399c2.602,1.699,4.602,4.5,7.801,5c4.602,0.699,8.4-2.101,10.5-6c1.301-2.301,2.801-9.2,6.4-7.301
	c8.1,4.301,6.199,17.102,17.199,15.602c2.1-0.301,4.5-2.4,5-3.602c5.301,5.2,9.7,10.602,14.1,16.602
	c8.9,12.1,16.4,27.199,21.602,41.398c3.898,10.701,6.898,22.6,2.898,33.801c-3.699,10.5-13.1,17.9-23.199,22
	c-23.699,9.799-51,10.4-76,6.4c-7.199-1.201-14.398-2.701-21.5-4.5c-13.398-3.5-27-10.201-27.699-25.803
	c-0.301-6.1-0.602-12.697,2.301-18.197c3.1-6,7.5-11.303,12.699-15.701c-15.199,5.301-24.801,17.801-22,34.5
	c0.801,5,3.6,9.898,4.199,14.801c-5.398-1.201-30-25.6-36.199-21.1c4.801,4.898,10.898,9.197,16.301,13.398
	c12.299,9.799,26,16.9,41,21.699c17.699,5.701,36.199,8.4,54.898,8.701c6.102,0.1,23.4,0.398,25.602-0.701
	c-2.201,1.1-3.801,2.201-6.4,2.9s-5.399,1.199-7.6,3c8.898,2.398,17-2.602,25-5.801c14.398-5.699,28.199-8.301,37.799-21.801
	C430.299,360.099,432.401,347.201,430.799,334.701z"/>
<path fill="#2B2B2B" d="M152.3,289.9c-25.1-21.602-46.7-47.699-63.1-76.4c-9-15.5-15.7-33.4-21.6-50.3c-10.8-30.9-15.4-63.6-10-96.1
	c2.6-15.8,7.5-31.1,13.9-45.7c1.7-3.9,19.6-42.9,22.1-42.2l-0.5-0.1C81.5-5,68.5,10.5,59.4,27.9c-15.2,28.7-19.1,62.3-15.1,94.4
	c4.9,39.2,19.4,78.6,41.9,111.8c-0.1,0-13.1-4.9-19.8-6.7c-11.4-2.9-21.7-7.8-24.1-10.2c-5.8-5.9,3.8-3.9,6.2-8.8s5.7-7.5,8.9-6
	c3.2,1.5,6.8,4.9,9.9-0.4c-4.1-0.1-8.1-10.5-13.7-8.4c-5.7,2-7.9,7.8-15.7,13.3c-7.8,5.5-1.6,16.6,8.8,20.2c4,1.4,9.3,4,15.8,5
	c10,1.6,20.3,4.4,26.6,6c6,8.5,12.6,16.601,19.6,24.101c23.1,24.6,54.7,38.5,83.7,55.6L152.3,289.9z"/>
</svg>
