<?xml version="1.0" encoding="utf-8"?>
<!-- Generator: Adobe Illustrator 15.0.0, SVG Export Plug-In . SVG Version: 6.00 Build 0)  -->
<!DOCTYPE svg PUBLIC "-//W3C//DTD SVG 1.1//EN" "http://www.w3.org/Graphics/SVG/1.1/DTD/svg11.dtd">
<svg version="1.1" id="Layer_1" xmlns="http://www.w3.org/2000/svg" xmlns:xlink="http://www.w3.org/1999/xlink" x="0px" y="0px"
	 width="406.378px" height="443.01px" viewBox="30.365 -87.511 406.378 443.01"
	 enable-background="new 30.365 -87.511 406.378 443.01" xml:space="preserve">
<g>
	<path fill="#1C1C1C" d="M104.2,15.8c0.1-4-5.1-7.1-11.6-7.1c-6.4,0-11.7,3.3-11.8,7.2c-0.1,4,5.1,7.1,11.6,7.1
		C98.8,23,104.1,19.7,104.2,15.8z"/>
	<path fill="#2B2B2B" d="M134.1,96.6c-4.4,2.8-1,52.3,8.7,71.5c9.8,19.2,27.1,32.7,35.5,17.3c8.4-15.4,18.1-19.8,20.9-31
		c2.8-11.2-15.3-19-16-27.1c-8.7,6-2.4,13.3,0.5,19.5c2.9,6.3-1.2,12.9-9.3,17.6c-8.1,4.7-0.2,19.1-14.3,12.2
		C142.9,168.1,139.1,125.9,134.1,96.6z"/>
	<path fill="#2B2B2B" d="M300.2,355.5c8.1-4.299,16.5-8,24.1-13.199c6.7-4.5,13.102-9.301,19.2-14.5
		c9.399-7.898,17.399-16.801,24.399-26.899c1.801-2.601,3.601-5.301,5.301-8c21.4-33.601,28-74.901,11.9-112.301
		c-4.199-9.7-10-19.8-16.801-28c-8.1-9.9-16-19.9-24-29.9l-52.699-55.1c2.899,2.8,6.899,4.9,10.199,7.3
		c5.602,4,11.2,7.9,16.801,11.9C325,91.4,330.3,98.4,335.8,104c7,7.1,14.102,14.2,21,21.4c13.7,14.3,26.602,29.5,35.301,47.5
		c4.999,10.4,8.301,21.5,9.699,32.9c3.7,32-5.898,65.7-23.5,92.3c-5.699,8.601-12.398,16.999-19.6,24.302
		c-8,8-17.5,14.398-27.102,20.5c-6.898,4.398-13.398,7.799-21.199,10.299C307.101,354.3,303.7,355.201,300.2,355.5z"/>
	<path fill="#FF9729" d="M147.5,32.8c-1.6-0.5-2.9-1.5-4.6-3.9c-2.5-3.5-7.2-8.4-6.5-13c0.4-2.8,2.5-2.8,3.7-4.7
		c2.1-3.5,0.1-6.6-0.7-10.7c-1.5-8.1-2-16.2-0.6-24.3c3.1-17,23.8,0.2,27.9,6.8c2.4,3.7,7.2,11.7,12.8,11.1c7-0.8,5.3-7.3,6.7-11.6
		c1.4-4.4,7.7-6.2,11.7-3.6c4.8,3.1,8.6,13.4,15.9,11.9c6.2-1.2,2.2-8.9,1.2-12.9c3.601-4.2,8.101-3.4,10.399,1
		c1.199,2.3,1.699,5.5,4.399,6.6c3.8,1.6,6.9-1.6,5-5.4c6.2-3.3,12.3-7.9,19.3-4.2c3.102,1.6,7,3.6,10,5.5c2.301,1.6,4,5.4,7,4.9
		c3.801,3.6,8,7.4,10.5,12c3.301,6,1.102,9.1-1.898,14.4c-2.5,4.3-4.7,13.1-11.1,12.9c-5.199-0.1-8.399-6.6-12.5-8.9
		c-6.301-3.6-3.301,3.8-5.5,8.4c-1.899,4.1-10.301,9-13.399,3.5c-1.7-3.1,2.7-9.4-1.3-11.4c-3.301-1.7-9.102,3.8-9.301,6.9
		c-6.199,5.7,5.699,11.6,9.899,12.3c3,0.5,5.899,0.6,9,0.9c5.7,0.4,9.601,4.3,15.5,3.6c5-0.7,8-2.3,11.399,2.7
		c2.399,3.5,3,7.9,3.601,12c1.3,9,8.899,6,14.2,12c6-7.4,11,9.4,11.898,13.5c1.801,8.8-4.8,8.4-6.6,14.9c-1.4,5,1.1,15,5.7,17.3
		c7.399,3.7,8.2-1.1,12.6-5.2c10.101-9.6,10.3,10.3,13.2,16.5c10.2-4.5,18.1,1.1,19.2,12.2c1.1,11.3-9.3,11.5-15.7,17
		c-4.9,4.2,1.9,13.3-4.3,15.4c-3.3,1.2-5.7,1.1-9,2.9c-3.601,2-6.5,3.1-10.7,2.8c-15.2-1.2-34.2-2.5-45.5-13.9
		c-4.3-4.4-6.5-8.7,0.7-10.9c7.1-2.2,15.1-1.9,22.3-3.6c-1.1-2.1-5.4-0.9-7.6-3c-2.2-2.1-2.7-5.8-3.2-8.7c-0.4-2.8,0.2-7.2-1.2-9.7
		c-1.7-3.1-5.5-1.8-9.6-1.6c-2.801,0.1-3.5-8.3-3.4-9.8c0.4-3.9,2.6-7.5,2.6-11.5c0.102-13.1-12.898-5.1-15.398,2.4
		c-1.2,3.5-0.4,5.8-4.301,7.2c-4,1.5-5.699-1-8-3.6c-2.199,0.4-4.399,2-5.699,3.8c0,0,4.3,7.2,4.5,8.1c0.6,3.1-0.2,5.8-2.801,7.6
		c-4.699,3.2-16.601,3.4-21.899,1.9c-10.5-3-15.1-12.7-16.5-22.6c-1.3-9-7.8-7.7-12.9-13.6c-2.9-3.3-2.1-6.8-1.2-10.8
		c1.4-6.4,2.9-13.1,4-19.6c8.2-3,24.6-5.3,22.5-17.1c-0.799-4.6-3.899-9.1-9-6.9c-4.3,1.9-3.7,7.6-6.7,9.5c-1.8,1.2-6.1,0.1-8.1-0.5
		c-4.2-1.1-3.5-3-6.3-5.3c-6-4.9-8,6.2-13.7,6.4c-6.4,0.2-9-11.3-8.3-15.9C150.2,33.1,148.7,33.1,147.5,32.8z"/>
	<polygon fill="#231F20" points="30.8,-13.2 30.9,-13 30.9,-13 	"/>
	<path fill="#2B2B2B" d="M74.4-50c-0.2,0.2-0.4,0.4-0.6,0.5c-3.2,2.3-7.3-1.2-11.1-0.4c-5.6,1.2-5.3,5.9-2,8.8
		c2.6-0.1,16,3.2,15.2,5.5c-0.5,1.3-9.2,2.2-10.6,2.5c-4.4,0.9-9.8,1.5-13.8,3.1c-7.8,3.1,3.8,11.9,8.6,12.7c6.7,1,8.7-2.9,12.1-6.4
		c2.7-2.8,2-2.9,6.1-1.5c1.7,0.6,5.6,3.3,5.6,5c0.1,3.8-5.6,4.6-4.6,8.8c1.6,6.8,17.6,11,13.6,1c5-0.9,6.9,4.7,10.1,6.5
		c6,3.4,12.4-0.3,7.9-6c7.5-2.5,10.2,3.7,15.9,4.1c4.4,0.3,1.3-12.8,1.1-14.8c-0.4-3.2-0.5-5,2.7-6.4c2.4-1,5.4-1.8,8-2.3
		c3.5-0.7,7-0.5,10.3,0.9c6.9,3,11.1,9.5,16,14.9c3.5,3.8,6.6,5.1,9.8,0.3c3.5-5.4,5.7-12.4,7.1-18.6c0.9-4,1.9-9.3-2.8-11.1
		c-5.7-2.2-13.7-0.2-19.4,0.4c-7.8,0.8-16.1,2.2-24,1.2c-4.8-0.6-6.9-2.8-3.1-6.7c2.1-2.1,4.6-3.7,7-5.4c1.5-1.1,4.8-2.8,5.5-4.7
		c1.5-4.4-11.4-3.3-13.5-3.3c-3.4,0-7.1,1.1-9.8-1.4c-1.9-1.8-2.9-4.7-5.6-5.5c-6.8-2-1,11.6-5.4,14.2c-3.2,1.9-8.1-4.9-9.7-6.2
		c-4.4-3.8-5.5-2-7.2,2c-1.5,3.5-2.9,2-6,0.2c-3.5-2.1-8.2-0.9-10.6,2.3C75.9-54.2,75.9-51.6,74.4-50z"/>
	<path fill="#2B2B2B" d="M291.7,65.8c13.6-5.7,33.5-19.3,48.6-10.3c12.301,7.3,16.301,23.3,25.2,33.8c4.3,5.1,14.399-0.2,20.101,1.5
		c4.601,1.3,6.899,5.6,9.101,9.7c7.5,14.5,9.1,30.7,23.6,39.9c5.9,3.7,15.301,5.9,16,14.6c1.2,14.9-10,27.8-4.5,42.5
		c4.301,11.5,8.301,20.8,6.5,33.701c-4.699,32.898-27.699,59.799-50.499,82.398C379.7,319.701,373.101,325.4,366,330.201
		c-3.399,2.299-6.899,4.5-10.5,6.5s-7.3,3.799-11.101,5.6c-2.199,1-4.399,2-6.601,2.9c-3.399,1.5-6.899,2.898-10.399,4
		c-1.601,0.5-3.199,0.699-4.801,0.699c0.9,0.1,1.801-0.801,2.5-1.199c1-0.5,2-0.9,3-1.4c2.102-0.898,4.102-1.801,6.102-2.898
		c4-2.102,7.898-4.4,11.898-6.5c3.801-2,7.5-4,11.201-6.303c1.1-0.6,2.1-1.299,3.1-2c0.9-0.6,1.699-1.197,2.601-1.697
		c1.2-0.803,2.399-1.701,3.5-2.5c5.5-4.102,10.101-9.4,14.601-14.5c2.899-3.4,5.801-6.802,8.601-10.302
		c9.6-11.699,18.5-23.8,25.7-37c4-7.3,7.6-15,10.5-22.8c5.1-13.7,1.398-26.3-3.4-38.9c-2.2-5.9-3.899-10.9-2.899-17.4
		c1.5-9.2,6.699-18.7,6.301-28.1c-0.102-2.1-1.801-3.2-3.4-4.1c-9.1-5.1-18.4-9.5-23.5-19.3c-5.399-10.5-7.101-24.5-15.101-33.5
		c-2.399-2.7-10.699,0-13.6-0.2c-14.5-1.1-19-21.3-24.601-31.4c-3.601-6.5-8.8-11.4-16.399-12.1C316.899,54.6,303.2,62,291.7,65.8z"
		/>
	<path fill="#2B2B2B" d="M75.9,12.9c1.8-3.5,2.8-5.3,6.9-4.6c9.9,1.7,18.4,10.4,24.2,18.1c-1.7,0.5-3.6,1.5-5.3,1.7
		c-1.2,0.1-12-2.8-12.2-2.4l0,0c3,1.7,7.3,5,10.8,5.4c4.5,0.5,16.6,0.7,12.4-7.4C107,12.8,97.8,6.4,85.6,5.7
		C79.7,5.3,77.3,7.3,75.9,12.9z"/>
	<path fill="#2B2B2B" d="M374.8,207.2c-3.3-6-6.898-9.9-11.1-2.3c-3.801-7.6-1.102-13.9-2.301-21.7c-0.699-4.8-7-14.1-12.301-15
		c-5.6-0.9-9.6,9.1-9.398,13.8c0.3,4.4,5.1,6.7,5.8,11.1c0.8,4.9-1.5,10.7-1.899,15.6c-3.5-5-7.399-9.9-11.5-14.5
		c-16.301-17.9-33.899-26.3-56.5-33.3L191,132.9l82.2,35.9c12,4.9,24.398,9.6,34.699,17.5c28.301,21.9,48.899,55,42.699,91.601
		c-6.5,37.8-42,70.101-81.1,68.198c-13.2-0.697-28.7-3.5-41-8.6c-13.8-5.699-26-15.1-39.8-20.699c8.3,5.9,17,11.299,25.6,16.799
		c5.2,3.303,10.5,7.803,15.9,10.4c17.399,8.1,37.3,12.6,56.6,10.301c43.8-5.201,75.4-47.5,75.3-90.2c0-6.601-0.8-13.199-2.3-19.601
		c-0.5-2.1-2.7-6.299-1.7-8.299c0.801-1.701,5.2-3.201,6.801-2.201c2.101,1.301,1.699,5.701,2,7.701
		c0.899,5,3.801,11.299,8.801,5.299c7.898-9.399,4.5-29.799-0.7-39.299C374.899,207.5,374.8,207.3,374.8,207.2z"/>
	<g>
		<path fill="#2B2B2B" d="M325.7,317.201c-14.7,5.6-26-3.201-37-13.102c-5.102-5-10.102-10.1-15.2-15.1
			c-2.601-2.601-18.5-21.4-21.7-15.701c-2.199,3.9,10,17.701,12.102,20.9c5,7.899,9.3,16.301,10.8,25.6
			c1,6.102-0.4,15.201-7.601,17.102c-18.199,5-38.5-12.699-53.201-19.9c-16.1-8-30.1-10.699-47.799-12v-0.1
			c18.1-1.301,33.5-1.301,50.9,5l41.5,17.1c11.8,3.701,4-13.299,1.899-17.799c-5-11.102-14-19.701-18.699-30.9
			c-3-7.1,2.6-15.399,10-16.801c9.398-1.799,17.6,6.9,23,13.101C287.8,290,300.5,322.701,325.7,317.201z"/>
	</g>
	<path fill="#2B2B2B" d="M364.601,67C348.3,41.5,325.7,22.3,303.3,2.4l-16.6-12.7L268-23.4c6-0.3,12-1.3,16-5.4
		c8.899-9.1,7.2-18,16.8-33.4c9.5-15.4-13.398-17.3-37.3-10.8c-14.399,3.9-16.8,9.1-29.899,17.1c-1.399,0.9-4.301,2.8-7.399,4.9
		c-6.8-3.7-13.7-7.1-20.3-10c-25.601-11.5-53.601-21.3-81.5-24.9c-8.6-1.1-17.2-1.7-25.8-1.6c-21.8,0.3-49.2,5.1-61.2,25.7
		C29.3-48,29.9-33.5,31-18.3c0.2,2.5,1.4,6.1,0.9,8.6c-1.4,7.6-1.1,15.2,4.4,21l0.3-0.2c-0.2-4-1.8-8-1.8-11.9v-3.6
		c9.6,21.6,19.8,42.7,35.3,60.9c7.9,9.2,16.9,17.6,27,24.4c4.9,3.3,10,6.2,15.3,8.6c5.1,2.3,11.4,4.8,16.6,5.8
		c-12.4-6.9-22.7-14.3-31.5-22.1c0.1,0,0.1,0,0.2,0c10.4,1,24-5.8,30.7-15.7c1.9-2.8,9.2-14.7,4.7-22.1c0.9,14.2-13,24.5-13.2,24.6
		c-14,8.9-21,3.3-31.3,4.7c-17-16.1-30.5-34.8-40.5-56c-7.6-16.1-14.3-35-10.4-52.9c4.7-21.7,25.7-31,45.6-33.4
		c5.7-0.7,11.4-1,17.1-1c28.5,0.1,55.1,9.3,81,20.4c8.3,3.5,16.6,7.3,24.6,11.5c34.899,18,68.7,41.3,74.101,45.4l44.699,34
		c16.2,16,32.301,32,48.5,48C370.399,76,367.5,71.5,364.601,67z M257.601-30.6l-13.201-9.2c-4-2.8-8.399-5.5-13-8.2
		c2.601-1.8,5.199-3.6,7.899-5.1c12.101-6.9,27.8-17.7,42.5-14.6c16.8,3.5-3.399,8.8-3,16.9c0.4,8.1-3.399,15-11,17.3
		C264.5-32.5,260.8-31.8,257.601-30.6z"/>
	<path fill="#2B2B2B" d="M260.3,96.7c6.9-2.5,13-6.4,12.4-12.9c-0.5-6.4-9.2-7-14.301-8.7c-4.601-1.4-9.801-1.3-10.5-5.9
		c-0.699-4.8,3.699-8.4,3.801-13.2c0.3-13.1-29.2-24.2-39.7-23.8c-8.6,0.3-17.2,6-25.9,5.4c-7.2-0.7-7.7-6.3-12.9-9.4
		c-6.3-3.7-15-0.1-19.9,4.1c-6.7,5.8-15.3,31-4.2,36.6c7.5,3.8,30.6-6.9,31.2-1.2c0.7,6.6-30.4,16.5-29.1,23c1.5,8.1,2.7,16.1,6,20
		c2.6,3.2,18.5-23.4,24.2-23c11.2,0.8,12.8,14.9,18.1,10.3c5.899-5.2,9-27.7,18.399-25.6c14,3.1,6,31.7,25.101,28.2
		C247.101,100.1,254.101,98.9,260.3,96.7z"/>
	<path fill="#2B2B2B" d="M304.101,188c8.801,15.7-0.699,36.6,0.699,47.701c1.4,11.1,8.301,20.898,16.301,15.199
		c8.101-5.699,14.5-5.9,18.5-10.699c4-4.801-4.601-12.101-3.199-16.101c-6.2,1.2-4.2,5.899-3.9,9.399c0.3,3.601-3.4,5.9-9,6.601
		c-5.6,0.601-4.2,9.101-10.7,3.101C304.7,235.701,323.3,200.7,304.101,188z"/>
</g>
</svg>
