<?xml version="1.0" encoding="utf-8"?>
<!-- Generator: Adobe Illustrator 15.0.0, SVG Export Plug-In . SVG Version: 6.00 Build 0)  -->
<!DOCTYPE svg PUBLIC "-//W3C//DTD SVG 1.1//EN" "http://www.w3.org/Graphics/SVG/1.1/DTD/svg11.dtd">
<svg version="1.1" id="Layer_1" xmlns="http://www.w3.org/2000/svg" xmlns:xlink="http://www.w3.org/1999/xlink" x="0px" y="0px"
	 width="580.231px" height="607.76px" viewBox="0 0 580.231 607.76" enable-background="new 0 0 580.231 607.76"
	 xml:space="preserve">
<g>
	<path fill="#1C1C1C" d="M110.245,500.833c-1.3-3.6-7.4-5.399-14.1-4.399c-6.7,1.1-11.3,4.899-10.1,8.3c1.1,3.6,7.6,5.5,14.4,4.5
		C107.145,508.333,111.545,504.434,110.245,500.833z"/>
	<g>
		<path fill="#2B2B2B" d="M85.445,496.934c11-7.4,22.8-8.101,34.4-2.601c8.5,4.2-2,12-6.2,14.5c-3.3,2-3.8,1.4-7.4,2
			c0,0,5.7-3.7,9-8.5c0.1-0.1,1.3-1.899,1.3-1.899c-10.6-1.801-21.7-4.7-32,0.699c-3.9,2.101-3.7,4.4-3.1,8.5
			C79.245,503.934,80.045,500.733,85.445,496.934z"/>
	</g>
	<path fill="#D92425" d="M1.745,457.733c0.9-2.601,2.4-5.5,3.8-7.8c1.5-2.5,3.2-4.801,4.7-7.301c1-1.6,1.7-2.399,1.5-4.3
		c-0.2-1.8-0.6-3.5-0.7-5.2c-0.2-3.1,2-6.199,3.7-8.6c2.1-2.9,4.8-5.5,7.8-7.5c1-0.7,2-1.3,3.2-1.7c0.5-0.2,1.9,0,2.3-0.3
		c-3.1,2-5.7,4.6-7.6,7.7c-1.8,2.899-2.3,5.899-1.9,9.3c2.9-4.1,6.5-7.7,9.8-11.4c3.4-3.8,7.2-7.3,11.1-10.6
		c2.8-2.4,5.6-4.6,8.5-6.8c11.1-8.4,23.3-15.4,35.9-21.4c13.1-6.2,26.7-11.399,40.3-16.5c28.6-10.899,65.2-27.2,113.2-31.6
		c35.8-3.3,82.8-7.3,125.601-16c27.399-5.601,55.1-13.4,79.799-26.7c3.9-2.1,17.701-8.8,30.9-18.5c37.5-27.6,54.1-73.5,49.5-119.1
		c-1.199-11.601-3.6-23.9-7.6-34.9c-2.801-7.7-7.1-14.6-11.1-21.7c-3.201-5.6-8-12.6-5.801-19.399c2-6,11-2.601,14.9-0.7
		c4.5,2.1,11.9,7.3,17.6,15.1c5.7,7.8,13.6,20.2,16.2,29.4c1.101,4-2.8,5.3,0,8.5c-8-13.2-16-26.7-26.5-38.101
		c-0.899-1-5.899-7.199-7.899-6.1c-1.9,1.1,1.299,7.5,1.899,8.7c5.399,13.399,12,26.2,15.101,40.399
		c3.199,14.601,2.899,29.9,1.5,44.7c-1.4,13.8-4.201,27.3-8,40.601c-3.801,13.3-11.601,24.8-21.701,37.6c7.9,2.6,4.601,13.4,2,18.8
		c-6.399,13.4-18.6-1.8-28.799,7.9c-10.101,9.5,6.799,6.3-2.601,18s-11,7.5-29.7,8.7c-18.699,1.1-21.4,11.3-30.699,22
		c-9.301,10.6-2.201,15.8-20.301,25.5c-18.1,9.699-19.5-19.4-23.4-24.101c-3.699-4.6-11.1-9.3-18.5-7.5
		c-25.299,8-51.799,21.601-75.299,23.9c-38.3,3.7-62.9,4.8-87.5,9.6c14.4,2.7,26.9,9.3,5,17.2c-27.9,10.1-62.9,17.3-50,24.4
		c12.9,7.199,26.9-3.601,24.1,12c-2.8,15.6-29,12.5-20.7,24.699c8.3,12.2,20.4,23.801-7.5,22.4c-14.4-2.2-17.2,2.1-26.5,8.2
		c-9.2,6.1-19.1,20.3-32.9,14c-13.8-6.3-30.3,5.899-37.3-7.7s16.3-13,11.5-23.6c-4.7-10.5-20.6-17.801-0.4-23.7
		c20.3-6,30.5,5.7,29.1-13c-0.5-6.7,1.7-13.2,1.5-19.9c0,0.2-4,1.5-4.4,1.601c-1.5,0.6-3.1,1.199-4.6,1.8c-3,1.2-5.9,2.5-8.8,3.899
		c-7.3,3.5-14.1,8-20.5,12.9c-5.7,4.4-10.9,9.3-15.7,14.6c-4.9,5.301-9.6,10.801-13.7,16.7c-3.7,5.3-6.7,11.2-7.7,17.601
		c-0.4,2.8-0.5,5.6-0.3,8.399c0.3,3.4,3.9,20.101,4.2,21.4c0,0.1,0,0.6,0.1,0.6c-6.6-6.6-12-19.8-11.4-29.5
		C0.245,462.833,1.745,457.833,1.745,457.733z"/>
	<path fill="#2B2B2B" d="M306.845,401.633c-9.3-0.899-7.3,9.5-12.7,15.801c-5.3,6.3-9.2,16.199-10.7,22.3c-1.4,6-8.7,13-17,4.7
		c-8.4-8.4-5.8-12.2-15.1-11.601c-9.3,0.5-14,16.8-26.7,7.3c-13-9.6,1.4-15.399-7.2-17.8c-8.8-2.5-29.4-3.1-26-6.1
		s8.7-12.5,3.6-16.5c-5.1-4.101-4-15.4,8.2-18.3c12.3-2.9,24.6,0.199,31.3-8.101c6.6-8.2,26.9-8.6,35.8-8.6c9-0.101,15.4-8.4,32-7.2
		c16.3,1.4,34.399,5.9,30.601,12.2c-4,6.3-24.5,9.8-22,17.6C313.446,395.233,314.946,402.434,306.845,401.633z"/>
	<path fill="#2B2B2B" d="M456.545,340.733c1.6,0.1,3.199,0.1,4.8,0c4.601-0.5,9.3-1.101,13.8-2.2c9-2.1,17.301-6.1,24.301-12.1
		c18.299-15.7,27.199-40.9,35.1-62.9c8.5-23.7,16-47.7,23.9-71.6c0.399-1.101,5.1-12.7,4.1-13.601c-0.5-0.399-4.2,7.101-4.6,7.8
		c-10.801,21.101-21.4,42.2-32.201,63.301c-2.399,4.699-6.299,10-6.6,15.399c-0.3,4.601,1.301,9.5-0.5,13.9
		c-2.9,7.2-11.5,14-14.6,21.1c-3.6,8.101-7.9,15.9-16.7,19c-8.7,3.101-18.101,2.101-26.8,5c-8.301,2.8-16,7.601-23,12.9
		c-16.6,12.3-29.301,30.8-50.2,36.3c-14.601,3.8-22.8-7.9-37.101-2.9c-16,5.7-33,30.601-37.799,46
		c-1.201,3.7-4.701,13.101-1.701,16.9c2.801,3.4,7.801-0.9,10.301-2.8c6.6-5,13.5-10.601,19.3-16.5c5.3-5.4,5.7-12.7,8.7-19.3
		c3.8-8.301,10.8-5.301,17.6-2.801c5.301,2,10.7,0.5,16-0.3c6.6-0.899,13.2-1.1,19.801-1.2c3.699,0,6.899,1.2,10-1.399
		c4.799-4.101,9.399-9.601,13.1-14.7c3.199-4.3,3.4-8.2,4.9-13.1c1.899-6,7.299-10.9,11.699-15.101c3.2-3,4.9-4.899,9.301-5.2
		C453.245,340.633,454.946,340.733,456.545,340.733z"/>
	<path fill="#2B2B2B" d="M166.445,544.033c21,15.6,34.7,39.3,57.1,52.3c24.4,13.801,55.6,15.101,75,3.9
		c5.4-3.101,14.1-12.4,11.4-21.3c-6.4-21-27.5-40.101-49.101-35.301c-14.4,3.601,4.2,5.2,11,9.7c7.4,4.9,4.4,14.8,11.2,19.5
		c5,3.4,15.4,8.5-0.5,16.7c-7.5,3.8-16.9,5-26.7,4.6c-16.8-0.5-23.2,1.301-37.1-9.3c-11.9-10.399-23.9-20.8-35.7-31.2
		C177.745,550.533,172.145,547.233,166.445,544.033z"/>
	<path fill="#D92425" d="M161.345,346.833c10.2-5.1,20.9-10,29.6-17.6c4.1-3.5,5.9-9.601,10-13.601c5.3-5.5,12.8-9.199,16.8-14.699
		c4.6-6.5,5.3-12.7,12.1-17.601c6.9-5,18.1-12,26.4-4.399c4.4,4.1,6.5,7.699,5.3,14.1c-0.9,5-2.5,11.5-4.5,15.7
		c-5.1,10-15.1,7.5-15.5,17.2c-0.6,12.199,23.2-7.601,25.2-10c7.1-8.601,14.1-21.4,9.1-32.801c-6.1-13.8-24.5-17.6-37.7-13.199
		c-17,5.699-26.6,22.699-36.4,36.399C190.245,322.233,176.945,334.934,161.345,346.833z"/>
	<path fill="#2B2B2B" d="M21.345,509.533c0-0.1,0-0.1-0.1-0.2c-1.1-3.3-3.9-5.7-6-8.2c-1.1-1.199-3.7-4.199-3.7-6
		c0.6,0.5,3.1,2.601,3.6,3c1.3,1.101,2.7,2.2,4.2,3.2c3.2,2.3,6.6,4.3,9.9,6.5c4.3,2.8,8.5,5.2,13.7,6.101
		c6.3,1.1,12.8,0.899,19,2.699c9.7,2.9,15.3,7.9,29.3,10c4.8,0.7,24.3-3.399,29.7-2.899c3.5,0.3,7.1,2.1,10.3,3.3
		c4.7,1.7,9.4,2.7,14.4,2.4c3-0.2,5.9-1,8.8-1.601c3-0.7,6-1.6,8.8-3c4.8-2.3,11.5-6.899,11.6-12.899c0.1-3.4-2.3-6-4.3-8.5
		c-2.4-3.101-4.8-6.301-6.7-9.801c0.4,0.801,1.9,1.601,2.6,2.2c1,0.8,2,1.5,3.1,2.3c2.1,1.5,4.2,3.101,5.9,5
		c2.8,3,4.9,6.601,5.7,10.7c1.7,9.3-3.4,18.7-11.7,23.101c-2.4,1.3-5.1,2.199-7.8,2.8c-6,1.399-11.6,1.6-17.7,1.1
		c-6-0.5-12-1.6-18-2.5c-3.3-0.5-6.6-1-9.9-1.3c-13.9-1.3-27.7-2.3-41.4-5.5c-16.5-3.9-31.4-8.1-45.7-17.3
		c-3.5,7.6,7.7,13.3,12.6,16.1c-6.5-0.1-13.8-6-17.2-11.1C22.345,516.233,22.345,512.733,21.345,509.533z"/>
	<path fill="#2B2B2B" d="M257.445,520.033c13.1-4.5,21.7-2.1,34.9-5.1c9-2.101,22.899-10.301,30-12.5c4.601-1.4,9.3-2.801,14-4.2
		c-4.399-2-6.601-6.5-1.8-13.2c8.199-11.3,13.199,0.4,19.5-14.4c6.4-14.8,3.6-14.399-2-14.399s-8,2.2-8.9-8.4
		c-0.9-10.6-1.5-18,9.2-16.7c10.7,1.4,23.899,9.801,27.8-0.6c3.9-10.2,14-14.3,5.2-23.1c9.899,1.1,19.7-1.301,27.8-7.101
		c4.1-3,10.9-12.3,16.801-7.1c5.699,5-1,14.7-4.4,18.8c-2.2,2.8-4.7,5.5-7.2,8c-4,3.9-2.7,4.7,1,8.4c2.399,2.399,6.2,6.899,10,6.5
		c4.5-0.5,5.899-6.4,6.399-10c1.201-8.2-0.299-16.801,8.9-20.801c5-2.199,9.801-4.899,14.7-1.399c5.3,3.7,9.8,7.6,15.5,1.899
		c8.2-8.199,0.3-22.3,13.7-27.5c7.699-3,12.3-6,17.199-12.8c9.101-12.7,13.301-28.1,21.101-41.6c6.5-11.2,16.601-20.4,21.3-32.601
		c5.801-14.899,6.5-30,7.6-45.699c0.801-11.601,4.301-22.301,8-33.2c2.101-6.4,4.4-12.8,5.101-19.601
		c3.601-38.199,1.601-77.1,1.601-115.399c0-10.601,0-21.2-0.701-31.7c-0.199-2.7,0.201-14.5-2.699-16.3
		c-5.1-3.101-7.6,27-7.801,29.8c-0.799,12.9-0.6,25.7-0.899,38.6c-0.2,7.301-0.5,14.601-1.3,21.9c-2.5,23.4-11.1,45-22.4,65.5
		c3.2-12.7,6.5-25.5,8.1-38.5c4-32.5,3.4-65.8,5.701-98.5c0.6-8.8,6.1-51.2,22.1-46.7c6.9,1.9,8.4,14,8.9,19.5
		c0.799,8.4,0.299,16.8,0.399,25.2c0.2,28.4,0.7,56.9,0.101,85.3c-0.301,17-1.101,33.9-2.4,50.8
		c-3.6,44.601-10.6,89.101-28.5,130.301c-19.301,44.199-45.801,83.899-79.801,118.199c-9.5,9.601-19.5,18.801-29.799,27.5
		c-12.601,10.7-26.101,20.4-40.301,28.801c-46.6,27.399-97.199,45.8-151.4,49.5c-12.9,0.899-25.5,0.1-38.4-0.301
		C223.645,535.434,238.845,525.833,257.445,520.033z"/>
	<path fill="#D92425" d="M179.345,482.133c16.6-0.899,22.3-6.899,26.9-16.5c1.9-4-4-12.699,2.8-15.199
		c12.6-4.7,26.8,3.899,40.4-1.601c12.5-5.1,20.5,17.8,32.8,12.5c8.9-3.8,11.3-8.899,22.201-8c18.899,1.5,7.5,19.3-2.801,23.9
		c-8.4,3.7-11,2.8-11.5,12c-0.4,7,6.301,7.6,8.801,12c-7.9,3.2-15.801,8.899-24.9,5.8c-15.7-5.4-15.2-16.9-33.8-9.9
		c-7.1,2.7-11,8.7-15.1,14.601c-3.2,4.6-7.6,11.399-14,11.2c-3.2-0.101-6.3-3.101-8.5-5.2c-4.5-4.3-2.5-11.9-6.9-15.8
		c-4-3.601-12.8-2.5-17.8-3.801C169.645,496.033,163.545,481.833,179.345,482.133z"/>
	<path fill="#2B2B2B" d="M459.946,443.533c25.899-6.4,53.299-7.4,75.899-27.8c22.601-20.4-27.3-19.601-37.5-14.7
		c1.3-0.6,16.7,1.7,18.899,2.3c6.4,1.8,7.101,3.4,2,10.2C506.145,431.033,478.345,434.333,459.946,443.533z"/>
	<path fill="#D92425" d="M402.745,303.333c9.4-16.8,14.9-36.399,34.4-46.6c19.6-10.2,10.301,25.8,4.801,31.7
		c0.899-4.801,0.699-9.601,1.899-14.4c0.899-3.9,0.5-6.1-4-5.5C421.745,271.434,414.345,291.434,402.745,303.333z"/>
</g>
</svg>
