<?xml version="1.0" encoding="utf-8"?>
<!-- Generator: Adobe Illustrator 15.0.0, SVG Export Plug-In . SVG Version: 6.00 Build 0)  -->
<!DOCTYPE svg PUBLIC "-//W3C//DTD SVG 1.1//EN" "http://www.w3.org/Graphics/SVG/1.1/DTD/svg11.dtd">
<svg version="1.1" id="Layer_1" xmlns="http://www.w3.org/2000/svg" xmlns:xlink="http://www.w3.org/1999/xlink" x="0px" y="0px"
	 width="462.649px" height="383.917px" viewBox="11.264 67.792 462.649 383.917"
	 enable-background="new 11.264 67.792 462.649 383.917" xml:space="preserve">
<g>
	<path fill="#1C1C1C" d="M115.2,381c-4-0.5-7.6,4.3-8.3,10.8c-0.7,6.4,2,12,5.9,12.5c4,0.5,7.6-4.3,8.3-10.8
		C121.7,387.1,119,381.5,115.2,381z"/>
	<path fill="#2B2B2B" d="M198.7,359.9c2.3,4.699,51.899,6.6,72-1c20.1-7.7,35.399-23.4,21-33.4c-14.4-10-17.7-20.1-28.601-24.1
		c-10.899-4-20.5,13.199-28.7,13c5,9.3,13,3.8,19.4,1.6c6.601-2.2,12.7,2.6,16.5,11.1c3.8,8.601,19,2.2,10.601,15.5
		C270.7,358.9,228.4,358.1,198.7,359.9z"/>
	<path fill="#2B2B2B" d="M473.9,222.6c-3.4-8.5-6.2-17.3-10.5-25.399c-3.801-7.1-7.801-14-12.4-20.6c-6.8-10.2-14.8-19.1-24.1-27.1
		c-2.4-2.1-4.9-4.1-7.4-6.1c-31.1-24.9-71.5-35.9-110.4-23.9c-10.1,3.1-20.8,7.8-29.6,13.7c-10.7,7-21.5,13.8-32.3,20.7l-60.4,46.5
		c3.1-2.6,5.6-6.3,8.4-9.4c4.6-5.1,9.1-10.3,13.6-15.4c5.3-5.9,12.8-10.4,18.9-15.3c7.8-6.2,15.6-12.5,23.5-18.6
		c15.7-12.1,32.2-23.3,51-30c10.899-3.9,22.3-5.9,33.8-6.1c32.2-0.2,64.7,12.9,89.2,33.3c7.899,6.6,15.6,14.2,22.1,22.1
		c7.101,8.8,12.4,18.9,17.5,29.1c3.601,7.3,6.3,14.2,8,22.2C473.5,215.6,474,219.1,473.9,222.6z"/>
	<path fill="#D92425" d="M136.7,339.8c-0.7,1.5-1.8,2.7-4.4,4.2c-3.7,2.1-9.1,6.3-13.6,5.1c-2.7-0.699-2.5-2.8-4.3-4.199
		c-3.3-2.5-6.6-0.801-10.7-0.5c-8.2,0.6-16.3,0.3-24.2-2c-16.6-4.9,2.8-23.601,9.8-27c3.9-2,12.4-5.9,12.4-11.5
		c0-7-6.7-6.101-10.8-7.9c-4.2-1.9-5.3-8.3-2.3-12c3.6-4.4,14.2-7.1,13.5-14.5c-0.5-6.3-8.6-3.1-12.7-2.6c-3.8-4-2.5-8.4,2.1-10.2
		c2.4-0.9,5.7-1.101,7-3.7c2-3.6-0.9-7-4.8-5.5c-2.6-6.5-6.5-13.1-2.1-19.6c1.9-2.9,4.3-6.601,6.5-9.4c1.8-2.1,5.8-3.4,5.6-6.4
		c4-3.399,8.2-7.2,13.1-9.2c6.3-2.6,9.2-0.1,14.1,3.4c4,2.9,12.5,6.101,11.6,12.4c-0.7,5.2-7.5,7.6-10.2,11.5
		c-4.3,5.899,3.4,3.7,7.8,6.399c3.9,2.301,7.8,11.2,2,13.7c-3.3,1.4-9.1-3.7-11.5,0.101c-2,3.1,2.8,9.5,5.9,10
		c5,6.8,12.1-4.4,13.3-8.5c0.8-2.9,1.2-5.801,1.9-8.9c1-5.6,5.3-9.1,5.2-15c-0.2-5-1.4-8.2,3.9-11c3.7-2,8.2-2.1,12.3-2.3
		c9.1-0.3,6.9-8.2,13.5-12.8c-6.7-6.8,10.5-9.9,14.7-10.4c8.9-0.8,7.8,5.7,14.1,8.2c4.8,1.9,15,0.5,17.8-3.8c4.5-7-0.2-8.3-3.8-13.1
		c-8.5-11.1,11.3-9.1,17.8-11.4c-3.4-10.6,3-17.9,14.2-17.8C272.8,153.7,271.8,164.1,276.6,171c3.7,5.3,13.4-0.5,14.9,5.9
		c0.8,3.4,0.5,5.8,1.9,9.3c1.6,3.8,2.399,6.8,1.6,10.9c-2.8,15-6.2,33.7-18.7,43.7c-4.8,3.8-9.3,5.5-10.8-1.899
		c-1.4-7.301-0.3-15.2-1.2-22.601c-2.2,0.9-1.5,5.3-3.8,7.2c-2.3,2-6.1,2.1-9,2.2c-2.8,0.1-7.1-1-9.8,0.2
		c-3.3,1.399-2.4,5.3-2.6,9.399c-0.2,2.8-8.6,2.601-10.1,2.3c-3.8-0.8-7.2-3.399-11.2-3.8c-13-1.5-6.5,12.3,0.7,15.601
		c3.4,1.6,5.7,1,6.7,5c1.1,4.1-1.6,5.6-4.4,7.6c0.2,2.2,1.5,4.6,3.2,6.1c0,0,7.6-3.5,8.5-3.6c3.1-0.3,5.7,0.8,7.3,3.6
		c2.7,5,1.6,16.9-0.5,22c-4.1,10.101-14.2,13.7-24.2,14c-9.1,0.301-8.5,6.9-14.9,11.4c-3.6,2.5-7,1.4-10.9,0
		c-6.2-2.1-12.7-4.3-19.1-6.1c-2.1-8.5-2.6-25-14.6-24.201c-4.7,0.301-9.5,2.9-7.8,8.201c1.4,4.5,7.2,4.5,8.7,7.699
		c1,1.9-0.6,6.101-1.4,8c-1.5,4.101-3.4,3.2-5.9,5.7c-5.5,5.4,5.3,8.601,4.9,14.3c-0.5,6.4-12.2,7.7-16.7,6.5
		C137.3,337.1,137.1,338.6,136.7,339.8z"/>
	<polygon fill="#231F20" points="78.5,450.9 78.7,450.8 78.7,450.8 	"/>
	<path fill="#2B2B2B" d="M46.5,403.6c0.2,0.2,0.4,0.4,0.4,0.7c1.9,3.4-2,7.101-1.6,11c0.6,5.7,5.3,5.9,8.5,2.9
		c0.2-2.601,4.9-15.601,7.1-14.5c1.2,0.6,1.2,9.399,1.3,10.8c0.4,4.5,0.4,9.9,1.6,14.1C66,436.7,76,426.1,77.3,421.4
		c1.7-6.601-2-9-5.1-12.7c-2.5-3-2.7-2.3-0.8-6.2c0.8-1.6,3.9-5.2,5.6-5c3.8,0.3,4,6.1,8.3,5.5c6.9-0.9,12.8-16.3,2.5-13.4
		c-0.4-5.1,5.4-6.399,7.5-9.3c4-5.6,1-12.399-5.1-8.5c-1.7-7.7,4.8-9.7,5.8-15.399c0.8-4.301-12.6-2.7-14.6-2.7
		c-3.2,0.1-5,0-6.1-3.4c-0.7-2.5-1.2-5.6-1.4-8.2c-0.3-3.6,0.3-7,2-10.1c3.7-6.5,10.6-10,16.5-14.3c4.2-3.101,5.8-6,1.3-9.7
		c-5-4.1-11.7-7-17.7-9.1c-3.9-1.301-9-2.9-11.3,1.6c-2.8,5.4-1.7,13.6-1.7,19.3c0,7.8,0.5,16.2-1.4,24c-1.1,4.7-3.5,6.601-7,2.4
		c-1.9-2.3-3.2-5-4.6-7.5c-0.9-1.601-2.3-5.101-4.1-6c-4.2-2-4.5,11-4.7,13.1c-0.4,3.4,0.3,7.2-2.4,9.601c-2,1.699-5,2.399-6.1,5
		c-2.7,6.5,11.4,2.199,13.5,6.899c1.5,3.4-5.7,7.5-7.2,9c-4.3,4-2.6,5.3,1.2,7.4c3.3,1.899,1.7,3.1-0.4,6c-2.5,3.3-1.8,8.1,1.1,10.8
		C42.5,401.6,45.1,401.9,46.5,403.6z"/>
	<path fill="#2B2B2B" d="M185,199.9c-4.2-14.1-15.6-35.4-5-49.4c8.6-11.4,24.9-13.7,36.3-21.4c5.5-3.7,1.3-14.3,3.6-19.8
		c1.8-4.4,6.3-6.3,10.6-8c15.2-5.9,31.5-5.8,42.2-19.2c4.3-5.5,7.5-14.6,16.2-14.3c14.899,0.4,26.6,12.9,41.8,9
		c11.899-3,21.6-6,34.2-2.8c32.199,8.2,56.5,34,76.5,59c5.399,6.7,10.399,13.9,14.399,21.5c1.9,3.6,3.7,7.3,5.3,11.1
		c1.601,3.8,3,7.7,4.4,11.6c0.8,2.3,1.5,4.6,2.2,6.9c1.1,3.5,2.1,7.2,2.899,10.8c0.301,1.6,0.4,3.3,0.2,4.8
		c0.2-0.9-0.6-1.9-0.899-2.6c-0.4-1-0.7-2.1-1.101-3.1c-0.7-2.2-1.3-4.3-2.2-6.4c-1.699-4.2-3.5-8.3-5.199-12.5
		c-1.601-4-3.2-7.9-5.101-11.8c-0.5-1.2-1.1-2.2-1.7-3.3c-0.5-1-1-1.8-1.399-2.8c-0.7-1.3-1.4-2.6-2.101-3.7
		c-3.5-5.9-8.3-11-12.899-16.1c-3.101-3.2-6.101-6.5-9.3-9.7c-10.601-10.8-21.7-20.9-34-29.5C388.1,93.4,380.8,89,373.4,85.3
		c-13.101-6.5-26-4.2-39-0.8c-6.101,1.6-11.301,2.7-17.601,1c-9-2.5-17.899-8.7-27.3-9.3c-2.1-0.1-3.4,1.4-4.4,2.9
		c-6,8.5-11.399,17.3-21.699,21.3c-11,4.2-25.101,4.4-34.9,11.4c-2.9,2.1-1.1,10.6-1.7,13.5c-2.6,14.3-23.2,16.6-33.9,21.1
		c-6.8,2.9-12.3,7.5-13.8,15C176.6,173.7,182.4,188.1,185,199.9z"/>
	<path fill="#2B2B2B" d="M109.2,408.8c-3.3-2.2-5-3.399-3.8-7.399c2.8-9.7,12.3-17.2,20.6-22.101c0.3,1.7,1.1,3.7,1.1,5.5
		c0,1.2-4.1,11.601-3.7,11.9l0,0c2-2.8,5.8-6.7,6.5-10.2c1-4.4,2.5-16.4-6-13.1c-11.4,4.5-18.8,13-20.8,25
		C102.1,404.2,103.8,406.8,109.2,408.8z"/>
	<path fill="#2B2B2B" d="M334.5,132.5c-6.3,2.6-10.6,5.8-3.5,10.8c-8,3-13.9-0.4-21.8,0c-4.8,0.2-14.8,5.4-16.2,10.6
		c-1.5,5.5,8,10.5,12.7,10.8c4.399,0.2,7.2-4.4,11.7-4.6c5-0.3,10.5,2.6,15.3,3.6c-5.3,2.9-10.601,6.3-15.601,9.9
		c-19.5,14.3-29.8,30.9-39.199,52.6L241,307.3l44.5-77.899c6.2-11.4,12.2-23.2,21.1-32.601c24.801-25.8,59.9-42.7,95.7-32.6
		c36.9,10.5,65.2,49.3,59.101,87.899c-2.101,13-6.601,28.2-12.9,39.801c-7.1,13.1-17.8,24.199-24.9,37.3
		c6.801-7.601,13.101-15.7,19.4-23.7c3.8-4.8,8.9-9.6,12-14.7c9.9-16.399,16.5-35.7,16.3-55.2c-0.5-44.1-39.1-80.1-81.6-84.5
		c-6.601-0.7-13.2-0.6-19.7,0.2c-2.1,0.3-6.6,2-8.4,0.8c-1.6-1-2.6-5.5-1.5-7c1.5-1.9,5.801-1.1,7.9-1.2c5.1-0.4,11.6-2.6,6.2-8.2
		c-8.5-8.9-29.101-7.7-39.101-3.5C334.8,132.4,334.6,132.5,334.5,132.5z"/>
	<g>
		<path fill="#2B2B2B" d="M438.6,193.1c4,15.2-6,25.5-17,35.4c-5.5,4.5-11.1,9-16.6,13.5c-2.9,2.3-23.3,16.1-17.9,19.9
			c3.601,2.6,18.7-8,22.101-9.801c8.399-4.1,17.2-7.5,26.6-8c6.2-0.3,15.101,2,16.2,9.4c3,18.6-16.8,36.9-25.5,50.8
			c-9.7,15.101-13.9,28.8-17.1,46.2H409.3c0.601-18.1,2.3-33.4,10.4-50.1l21.5-39.4c4.899-11.3-12.8-5.4-17.5-3.8
			C412.1,261,402.6,269,391,272.5c-7.4,2.2-15-4.2-15.6-11.7c-0.801-9.5,8.699-16.8,15.5-21.5C407.5,227.9,441.4,218.8,438.6,193.1z
			"/>
	</g>
	<path fill="#2B2B2B" d="M194,127.6c-27.1,13.5-48.6,33.9-70.8,54l-14.4,15.1l-15,17.2c0.3-6,0-12.101-3.7-16.5
		c-8.1-9.8-17.1-9.1-31.4-20.3C44.4,166,40.1,188.6,44,213c2.3,14.7,7.2,17.7,13.8,31.6c0.7,1.5,2.3,4.601,4.1,7.9
		c-4.4,6.4-8.5,12.9-12.1,19.1c-14.2,24.2-26.9,51-33.5,78.4c-2,8.4-3.5,16.9-4.4,25.5c-2,21.7-0.2,49.5,19,63.6
		c12.9,9.5,27.3,10.5,42.6,11c2.5,0.101,6.2-0.699,8.6,0c7.4,2.2,15,2.7,21.4-2.1l-0.2-0.3c-4-0.2-8.1,0.899-12,0.5l-3.6-0.4
		c22.5-7.2,44.6-15.1,64.3-28.6c10-6.9,19.3-14.9,27.2-24.2c3.8-4.5,7.2-9.3,10.2-14.3c2.8-4.8,6-10.8,7.5-15.9
		c-8.2,11.601-16.7,21-25.4,28.9c0-0.101,0-0.101,0-0.2c2.1-10.2-3.2-24.5-12.3-32.2c-2.6-2.2-13.6-10.7-21.5-7
		c14.2,0.601,23,15.601,23,15.8c7.3,14.9,1,21.2,1.3,31.601c-17.8,15.2-37.9,26.6-60,34.3c-16.8,5.8-36.3,10.5-53.7,4.7
		c-21.1-7-28.1-28.9-28.3-48.9c-0.1-5.7,0.2-11.399,0.8-17.1c3.2-28.3,15.2-53.8,29-78.3c4.4-7.9,9-15.7,14.1-23.2
		c21.6-32.8,48.4-63.9,53.1-68.8l38.6-40.8c17.6-14.4,35.3-28.7,52.9-43.1C203.6,122.8,198.8,125.2,194,127.6z M85.5,223.5
		l-10.6,12.1c-3.2,3.7-6.4,7.801-9.5,12c-1.5-2.8-3-5.6-4.2-8.399c-5.6-12.8-14.6-29.5-10-43.8c5.3-16.3,8.4,4.3,16.5,4.8
		c8.1,0.5,14.5,5,16,12.8C84.3,216.4,84.6,220.2,85.5,223.5z"/>
	<path fill="#2B2B2B" d="M212.3,234.5c-1.7-7.1-5-13.6-11.5-13.7c-6.4-0.2-7.9,8.4-10.2,13.3c-1.9,4.4-2.3,9.601-7,9.801
		c-4.8,0.199-8-4.601-12.7-5.2c-13-1.7-27.2,26.399-27.9,36.899c-0.6,8.601,4.1,17.7,2.6,26.301c-1.5,7.1-7.1,7-10.7,11.8
		c-4.4,5.899-1.7,14.899,1.9,20.2c5,7.3,29.2,18.5,35.9,8.1c4.6-7-3.6-31.2,2.2-31.1c6.6,0,13.1,32,19.7,31.399
		c8.2-0.6,16.3-1,20.5-3.8c3.5-2.2-21.3-20.9-20.3-26.5c2-11,16.2-11.1,12.2-16.9c-4.5-6.399-26.6-11.899-23.5-21
		c4.6-13.6,32.2-2.6,30.7-21.899C214.3,248,213.9,240.9,212.3,234.5z"/>
	<path fill="#2B2B2B" d="M307.8,200.7c16.601-7.1,36.3,4.6,47.5,4.4c11.2-0.2,21.7-6,16.9-14.6c-4.8-8.7-4.3-15-8.7-19.5
		s-12.5,3.3-16.4,1.5c0.5,6.3,5.4,4.8,8.9,4.9c3.6,0.1,5.5,4,5.6,9.7c0,5.6,8.601,5.2,1.9,11C355.3,205.2,322.5,183,307.8,200.7z"/>
</g>
</svg>
