<?xml version="1.0" encoding="utf-8"?>
<!-- Generator: Adobe Illustrator 15.0.0, SVG Export Plug-In . SVG Version: 6.00 Build 0)  -->
<!DOCTYPE svg PUBLIC "-//W3C//DTD SVG 1.1//EN" "http://www.w3.org/Graphics/SVG/1.1/DTD/svg11.dtd">
<svg version="1.1" id="Layer_1" xmlns="http://www.w3.org/2000/svg" xmlns:xlink="http://www.w3.org/1999/xlink" x="0px" y="0px"
	 width="417px" height="504.5px" viewBox="25 -96.5 417 504.5" enable-background="new 25 -96.5 417 504.5" xml:space="preserve">
<path fill-rule="evenodd" clip-rule="evenodd" fill="#2B2B2B" d="M232.9,348.2c-4.4,2.4-10,1.8-14.7,2.9c-4.7,1.1-21.3,6.8-25.9,8.1
	c-16.5,4.6-20.6,9.3-37.1,9.2c-27.5-0.2-51.6-9.1-36.8-22.5c14.8-13.4,15.7-23.3,27.9-30.2c12.2-7,29.8,4.9,39.8,2.1
	c-3.3,9.7-14.9,7.5-23.7,7.7c-8.9,0.2-15,6.3-16.9,15c-2,8.7-25.2,8.3-8.3,17c14.8,7.6,34.9,0.8,49.9-2.9c7.9-1.9,15.4-5.3,23.3-7.3
	c3.9-1,7.9-1.7,12-1.6C223.8,345.7,232.4,348.5,232.9,348.2z"/>
<path fill="#010101" d="M321.6,339.1c3.6-1.7,8.9,1.6,11.7,7.6c2.9,6,2.2,12.2-1.3,13.9c-3.6,1.7-8.9-1.6-11.7-7.6
	C317.4,347.1,317.9,340.8,321.6,339.1z"/>
<path fill="#D92627" d="M306.1,309.2c3.2-1.4,1.7-2.2,3.1-4.6c6.1-9.8,39-6.2,34.2-27c-3.2-14.2-28.3-5.1-34.6-14.6
	c-7.2-10.8,16-13.7,5.7-23.9c-3.7-3.6-9.9-1.9-14.1-4.8c-7-4.8-6.7-6.1-1.6-10.8c6.8-6.3,12.2-8.4,14.5-18.6
	c-7.4,0.9-14.5,3.4-20.5-2.5c-6.6-6.4-6.1-17.6-12.5-24.3c-5.7-5.9-18.6-10.5-26.5-8.8c-7,1.5-17.3,12.4-15.8,20.4
	c1.3,7.3,14.1,5.2,13.3,11.6c-0.7,7.2-9.1,8.1-6.4,16.8c3,8.8,9.7-0.4,14.9-0.6c0.6,0.2,1.8,3.4,1.8,4.1c0.4,2.9-5.8,10.9-9.3,11.3
	c-3.7,0.4-5.3-3-8.4-4c-2.1-2.6-4.3-7.3-6.4-10.9c-3-5.1-10.4-7.5-10-13.3c0.4-9.9-11.4-9.5-18.3-7.5c-7.2,2.1-8.5,2.2-14.2-3.5
	c-2.1-2.1-6.9-8.5-9.5-9.5c-3-1.2-10.7-0.3-13.7,0.6c-10.2,3-7.9,13.7-19.6,15.7c-12.1,2.1-13.4-4.4-11.5-14c1.6-8-1.2-8-7.6-7.6
	c-8.5,0.5-11.6,5.4-14.1-4.7c-1-4.2-4.2-6.2-8.2-7c-5.6,0.2-13.1,0.6-16.8,5.5c-4.7,6.2,2.1,14.8-1.9,20.5
	c-2.5,3.5-11.1,0.2-13.1,4.8c-4.5,10.8,5.8,26.2,11.2,34.2c3.6,5.2,7.5,10.4,11.7,15.1c0,0,0,0,0.1,0.1c3.8,4.1,18.1,16.8,24.2,9.7
	c3.9-4.7-4.4-14-1.4-19.9c4.5-8.9,21.4,11.4,32.8,11.3c12.8-0.1,20.4-19.9,23-17.2c4.2,4.4-6,14.1-7.6,17.8
	c-4.2,9.7,8.2,10.4,3.5,17.1c-11.8-3.4-15.7,4.8-13.3,14.8c5,21.7,22.7,15.4,38.5,15.7c11.3,0.2,14,9.9,25.3,3.3
	c10.7-6.3,15.9-10.9,14.7-23.4c-0.5-5.2-0.7-11.4,3.5-15.2c5.7-4.8,14.2-2.2,13.5,5.9c-0.6,6.7-8.6,7.6-2.3,14.8
	c5.9,6.8,10.6,1.8,9.9,11.7c-0.3,5.4-2.1,10.2,5.1,11.1c2.1,0.2,8.3-6.6,14.4-5.4C294.1,301.2,302.4,310.7,306.1,309.2z"/>
<path fill="#2B2B2B" d="M220.2-78.4l-32.8,4.3c-26.5,7.7-47.4,21.6-66.9,40.6l-30,34.7L90.4,1c6.6-14.5,11.7-29.9,21.9-42.3
	c9.6-11.6,22.1-20.6,35.1-28.2c11.8-6.8,24.8-12.4,38.3-13.9C197.3-84.6,208.7-80.8,220.2-78.4L220.2-78.4z"/>
<polygon fill="#231F20" points="381.2,393.9 381.2,393.9 381.4,393.9 "/>
<g>
	<path fill="#2B2C2B" d="M79.2,39c1.6-13.6,14.8-23.2,26.3-29.3c12.1-6.5,25.8-10.9,39.7-9.9c9.4,0.6,18.4,6.4,27.8,5.1
		c1.5-0.2,2.6-2,2.5-3.3c0-20-6.9-39.2,7.5-56.2c4-4.6,8.8-8.5,14.2-11.2c6.2-3,13.2-3.5,20.1-4.6l0.1,1.1
		c-15.8,6.3-30.5,13.3-34.9,31.4c-3.8,15.7,11.6,36.7-0.9,50c-8.6,9.2-22.2,0.5-31.6-1.8C124.5,3.7,93.7,17.9,79.2,39z"/>
</g>
<path fill="#2B2B2B" d="M362.5,285.7c2.1,0.3,4.3,0.9,5.9-0.6c2.6-2.3-0.4-6.5,3.5-8.1c2.7-1.1,10.5,1.8,12.3,3.8
	c4.1,4.6,1.1,10.9-3,13.6c-3,1.9-12.4,6.2-13.6,9.6c-2.1,6.3,12,4.1,14.5,2.6c5.4-3.1,8.2-12,16.1-7.7c5,2.7,10.3,10.4,0.7,9.5
	c0.1,4.9,6,4.5,9,6.8c8.5,6.9-6.4,4.8-9.1,7.2c-2.8,2.4-3.3,8,0.1,10.1c4.7,2.9,11-4.3,11.6,5.2c0.5,8.3-5.2,8.3-11.1,10.9
	c-3.7,1.6-6.8,10.6-9.8,10.6c-6.7-0.2-7-14.7-14.7-13c-4.4,1-8.5,13.7-14.3,11.5c-4.1-1.5,0.3-12.3-1-15.2
	c-2.6-6.2-9.9-2.2-15.1-3.5c-9.5-2.6-1.6-7.5,1.5-11.3c3.2,1.5,12.1,3.3,14.3-0.5c2.9-4.8-6.2-4.5-9.1-4.9
	c-5.7-0.8-13.6-1.1-18.8-3.4c-9.1-3.9,1.1-6.8,5.6-8.9c5-2.1,6.8-4.1,7.2-9.2c0.5-9.9,3.5-13.3,14.5-15.2
	C360.8,285.5,361.7,285.5,362.5,285.7z"/>
<path fill="#2B2B2B" d="M249.5,294.3c-8.4-3.4-7.9-3.8-3.5-10.8c1.2-1.9,0.3-5,1.6-7.5c2-3.7,2.3-5.2,0.2-9
	c-2.6-4.7-0.7-6.3,2.6-9.3c3.7-3.4-5-9.4-5.8-12.4c-1-3.6,0.9-7.8-1.1-11.2c-3.8-6.7-11.6-1.2-16.1-5.2c-1.1-1-0.9-3.3-1.4-4.7
	c-3.6-8.2-15.6-9.7-23-6.3c-8.4,3.9-4.7,9.2,0,14.5c6.3,7.2-8.3,12.6-13.2,14.7c-7.3,3.1-5.8,10.3-2.1,16.4c4.1,7,9.5,12.4,6.4,20.9
	c-3,8.1-6.5,15.5,0.4,22.8c3.2,3.4,6.1,9.2,11.4,9.1c4-0.1,12.2-7.6,15.3-2.9c1.3,1.9,0.1,4.7,0.7,6.8c1.9,5.9,10.4,0,14.6,1.7
	c3.5,1.4,6.7,2.3,10.7,3.1c4.2,0.7,5.9,1.2,8.3-2.4C260.8,315.1,259.7,298.4,249.5,294.3z"/>
<path fill="#2B2B2B" d="M86.6,116.1c-4.4-1.7-9-2.3-11.4,1c-2.5,3.2,1.5,7.2,3.2,10c1.6,2.6,4.2,4.7,2.6,7.2
	c-1.7,2.6-5.3,2.5-7.4,4.7c-5.7,6.1,3.8,23.6,9.1,27.8c4.3,3.4,10.8,4.3,14.7,8.2c3.2,3.3,1.1,6.2,2.2,9.8c1.5,4.4,7.2,6.3,11.3,6.3
	c5.7,0,20.4-8.3,17.4-15.6c-2-4.9-17.6-9.4-15.5-12.4c2.5-3.4,21.6,4.8,23.7,1.2c2.7-4.5,5.4-8.8,5.6-12c0.1-2.6-18.8,3.4-21.4,0.9
	c-5-5,0.1-12.4-4.4-12.4c-5,0-16,9.4-19.6,4.5c-5.4-7.3,10.5-17.5-0.2-23.8C94.4,119.9,90.5,117.6,86.6,116.1z"/>
<g>
	<path fill="#2B2C2B" d="M83.1,43.4c-3.2,22-1.6,41.4,14.6,58.2c5.1,5.3,11.9,8.4,18.2,12c4.7,2.7,9.4,5.5,14.2,8.2l62.7,36.8
		c11.6,7.2,21.9,13.1,29.9,24.2c-8.5-10.5-19-15.7-30.9-22.1l-64.2-33.2c-21.9-12-41.8-26.3-47-52.1C78.3,64.1,80.8,54.4,83.1,43.4z
		"/>
</g>
<g>
	<path fill="#2B2C2B" d="M337,363.8c2.3-3.1,3.6-4.9,1.2-8.3c-6.5-9-17.5-11.3-27.5-14.4c0,0,0.2,2,0.2,2.1c0.6,5.4,5,9.6,8.2,13.7
		l0,0c-2.9-2-7.9-4.5-9.8-7.6c-2.6-3.8-8.1-14.8,1.2-14.6c12.6,0.4,22.6,6.1,28.8,17C342.3,357,341.5,360,337,363.8z"/>
</g>
<path fill-rule="evenodd" clip-rule="evenodd" fill="#2B2B2B" d="M343.8,207.1c4.6-2,10.5-40.2,3.7-56.2
	c-6.7-16-21.5-27.8-31.7-15.8c-10.2,12-20.1,14.9-24.4,23.8c-4.3,8.9,12.1,16.1,11.6,22.6c9.2-4.4,4.2-10.5,2.2-15.7
	c-1.9-5.2,2.9-10.3,11.3-13.6c8.4-3.3,6.7-18.9,15.4-9.1C340.7,152.9,352,180.7,343.8,207.1z"/>
<path fill="#2B2B2B" d="M430.8,334.7c-0.4-3.5-1.2-6.9-2.1-10.3c-4.3-14.7-12.2-28.6-19.8-41.8c-9.9-17.2-24.4-32-38.5-45.9
	c-7.9-7.8-15.4-16.5-23.9-23.7c-9.7-8.2-21-15.1-31.5-22.4c-7.8-5.6-16.2-9.5-24.7-13.9c-17.2-8.9-34.6-17.3-52.2-25.3
	c-5.2-2.4-10.4-4.7-15.5-7.1c-1-0.5-2.1-1-3.1-1.4c-3.8-13.2-11-23.4-25.1-26.2c-5.8-1.2-11.8-1.4-17.7-2.1
	c-5.7-0.7-12.1-0.8-17.3-3.2c-6-2.7-7.8-8.4-10.4-13.9c-2.5-5.1-6-7.2-11.6-7.5c-5.9-0.2-11.8,0.3-17.7,0.4
	c-5.7,0.1-12.5,0.4-16.5-4.6c-1.9-2.4-3-5.5-4.7-8.1c-2-3-4.6-5.3-7.2-7.7c-6.4-5.8-6.9-10.9-4.5-19c-3.3,8.8-3.8,15,2,22.7
	c2.3,3.1,4.6,6.1,6.3,9.6c1.3,2.8,2,5.9,3.6,8.6c2.9,5.1,9.3,5.8,14.6,6.6c6.2,1,11.7,0.3,18-0.3c7.3-0.7,9.9,3.1,13.1,9.1
	c4.1,7.7,9.4,12.3,18.2,13.8c15.1,2.5,34.9-0.1,46,12.9c8.5,10,10.3,24.9,13,37.3c0.3,1.5,0.7,3,1,4.5c-1-4.5-0.4-9.9-0.6-14.6
	c-0.2-5-0.6-10-1.6-14.9c2.4,1.7,17.4,9.9,22,12.7c9.7,5.7,19.3,11.4,29.4,16.5c4.8,2.4,9.4,5.1,14,7.7c2.3,1.3,7.9,4.5,8.6,7.2
	c-23.6,3,7.5,17.3,4.7,17.6c-22.1,3.1,11,9,4.6,9.7c-7.9,1-10,6.5-14,4.6c-4.1-2-10.1,4.1-6.3,7.7c1.3,1.2,4.1,1.3,5,2.7
	c1.2,1.6-4.1,5.9-4.7,7c-2.8,5,3.3,18,8.6,18.5c4.5,0.3,10.1-1.2,14-3.4c3.7-2.2,7.6-3.5,11.6-0.4c2.9,2.1,3.3,7.9,8,7
	c4.5-0.9,8-3.3,12.4-0.4c2.6,1.7,4.6,4.5,7.8,5c4.6,0.7,8.4-2.1,10.5-6c1.3-2.3,2.8-9.2,6.4-7.3c8.1,4.3,6.2,17.1,17.2,15.6
	c2.1-0.3,4.5-2.4,5-3.6c5.3,5.2,9.7,10.6,14.1,16.6c8.9,12.1,16.4,27.2,21.6,41.4c3.9,10.7,6.9,22.6,2.9,33.8
	c-3.7,10.5-13.1,17.9-23.2,22c-23.7,9.8-51,10.4-76,6.4c-7.2-1.2-14.4-2.7-21.5-4.5c-13.4-3.5-27-10.2-27.7-25.8
	c-0.3-6.1-0.6-12.7,2.3-18.2c3.1-6,7.5-11.3,12.7-15.7c-15.2,5.3-24.8,17.8-22,34.5c0.8,5,3.6,9.9,4.2,14.8
	c-5.4-1.2-30-25.6-36.2-21.1c4.8,4.9,10.9,9.2,16.3,13.4c12.3,9.8,26,16.9,41,21.7c17.7,5.7,36.2,8.4,54.9,8.7
	c6.1,0.1,23.4,0.4,25.6-0.7c-2.2,1.1-3.8,2.2-6.4,2.9c-2.6,0.7-5.4,1.2-7.6,3c8.9,2.4,17-2.6,25-5.8c14.4-5.7,28.2-8.3,37.8-21.8
	C430.3,360.1,432.4,347.2,430.8,334.7z"/>
<path fill-rule="evenodd" clip-rule="evenodd" fill="#2B2B2B" d="M152.3,289.9c-25.1-21.6-46.7-47.7-63.1-76.4
	c-9-15.5-15.7-33.4-21.6-50.3c-10.8-30.9-15.4-63.6-10-96.1c2.6-15.8,7.5-31.1,13.9-45.7c1.7-3.9,19.6-42.9,22.1-42.2l-0.5-0.1
	C81.5-5,68.5,10.5,59.4,27.9c-15.2,28.7-19.1,62.3-15.1,94.4c4.9,39.2,19.4,78.6,41.9,111.8c-0.1,0-13.1-4.9-19.8-6.7
	c-11.4-2.9-21.7-7.8-24.1-10.2c-5.8-5.9,3.8-3.9,6.2-8.8c2.4-4.9,5.7-7.5,8.9-6c3.2,1.5,6.8,4.9,9.9-0.4c-4.1-0.1-8.1-10.5-13.7-8.4
	c-5.7,2-7.9,7.8-15.7,13.3c-7.8,5.5-1.6,16.6,8.8,20.2c4,1.4,9.3,4,15.8,5c10,1.6,20.3,4.4,26.6,6c6,8.5,12.6,16.6,19.6,24.1
	c23.1,24.6,54.7,38.5,83.7,55.6L152.3,289.9z"/>
</svg>
