<?xml version="1.0" encoding="utf-8"?>
<!-- Generator: Adobe Illustrator 15.0.0, SVG Export Plug-In . SVG Version: 6.00 Build 0)  -->
<!DOCTYPE svg PUBLIC "-//W3C//DTD SVG 1.1//EN" "http://www.w3.org/Graphics/SVG/1.1/DTD/svg11.dtd">
<svg version="1.1" id="Layer_1" xmlns="http://www.w3.org/2000/svg" xmlns:xlink="http://www.w3.org/1999/xlink" x="0px" y="0px"
	 width="396.915px" height="482.16px" viewBox="0 0 396.915 482.16" enable-background="new 0 0 396.915 482.16"
	 xml:space="preserve">
<g>
	<path fill="#2B2B2B" d="M208.903,429.329c4.101-0.1,8.101,0.6,12,1.6c7.899,2,15.399,5.4,23.3,7.304
		c15,3.696,35.1,10.5,49.899,2.897c16.899-8.701-6.3-8.301-8.3-17c-1.899-8.701-8-14.801-16.899-15
		c-8.801-0.201-20.399,2-23.7-7.701c10,2.804,27.6-9.1,39.801-2.1c12.199,6.9,13.101,16.801,27.899,30.201
		c14.8,13.397-9.3,22.299-36.8,22.5c-16.5,0.1-20.6-4.603-37.1-9.201c-4.602-1.299-21.201-7-25.9-8.1
		c-4.699-1.103-10.301-0.5-14.7-2.9C198.903,432.129,207.503,429.329,208.903,429.329z"/>
	<path fill="#010101" d="M111.003,436.629c-2.8,6-8.1,9.299-11.7,7.603c-3.5-1.701-4.2-7.9-1.3-13.9c2.8-6,8.1-9.301,11.7-7.6
		C113.403,424.428,113.903,430.729,111.003,436.629z"/>
	<path fill="#D92425" d="M145.503,383.129c6.1-1.201,12.3,5.603,14.4,5.4c7.2-0.9,5.4-5.701,5.1-11.103
		c-0.7-9.897,4-4.897,9.9-11.698c6.3-7.199-1.7-8.103-2.3-14.802c-0.7-8.1,7.8-10.698,13.5-5.897c4.199,3.799,4,10,3.5,15.199
		c-1.2,12.5,4,17.1,14.699,23.397c11.301,6.603,14-3.1,25.301-3.299c15.801-0.301,33.5,6,38.5-15.701
		c2.4-10-1.5-18.199-13.301-14.799c-4.699-6.701,7.701-7.4,3.5-17.1c-1.6-3.701-11.799-13.4-7.6-17.804
		c2.6-2.696,10.199,17.103,23,17.201c11.4,0.104,28.301-20.197,32.801-11.296c3,5.9-5.301,15.201-1.4,19.9
		c6.102,7.1,20.4-5.603,24.199-9.699c0.102-0.103,0.102-0.103,0.102-0.103c4.199-4.698,8.1-9.897,11.699-15.1
		c5.4-8,15.699-23.399,11.199-34.201c-2-4.6-10.6-1.299-13.1-4.799c-4-5.701,2.801-14.301-1.9-20.5
		c-3.699-4.899-11.199-5.301-16.799-5.5c-4,0.799-7.201,2.799-8.201,7c-2.5,10.101-5.6,5.199-14.1,4.699
		c-6.4-0.4-9.199-0.4-7.602,7.6c1.898,9.603,0.602,16.103-11.5,14c-11.699-2-9.398-12.698-19.602-15.698
		c-3-0.898-10.699-1.802-13.699-0.601c-2.6,1-7.398,7.399-9.5,9.5c-5.699,5.699-7,5.601-14.199,3.5
		c-6.898-2-18.699-2.399-18.301,7.5c0.4,5.799-7,8.199-10,13.299c-2.1,3.603-4.301,8.301-6.399,10.9c-3.1,1-4.7,4.397-8.4,4
		c-3.5-0.4-9.7-8.4-9.3-11.299c0-0.701,1.2-3.9,1.8-4.103c5.2,0.199,11.9,9.4,14.9,0.603c2.7-8.701-5.7-9.603-6.4-16.802
		c-0.8-6.399,12-4.301,13.299-11.602c1.5-8-8.799-18.898-15.799-20.398c-7.9-1.699-20.8,2.898-26.5,8.801
		c-6.4,6.699-5.9,17.898-12.5,24.299c-6,5.9-13.1,3.4-20.5,2.5c2.3,10.202,7.7,12.302,14.5,18.601c5.1,4.701,5.4,6-1.6,10.801
		c-4.2,2.9-10.4,1.199-14.1,4.802c-10.3,10.198,12.9,13.1,5.7,23.897c-6.3,9.5-31.4,0.4-34.6,14.603
		c-4.8,20.801,28.1,17.198,34.2,27c1.4,2.397-0.1,3.198,3.1,4.6C128.903,394.329,137.204,384.829,145.503,383.129z"/>
	<path fill="#2B2B2B" d="M211.103,5.229c11.5-2.4,22.9-6.2,34.5-5c13.5,1.5,26.5,7.1,38.301,13.9c13,7.6,25.5,16.6,35.1,28.2
		c10.201,12.4,15.301,27.8,21.9,42.3l-0.102,0.2l-30-34.7c-19.5-19-40.398-32.9-66.898-40.6L211.103,5.229L211.103,5.229z"/>
	<polygon fill="#231F20" points="49.903,477.53 50.104,477.53 50.104,477.53 	"/>
	<g>
		<path fill="#2B2C2B" d="M281.302,93.929c-9.398,2.3-23,11-31.6,1.8c-12.5-13.3,2.898-34.3-0.9-50
			c-4.399-18.1-19.1-25.1-34.899-31.4l0.101-1.1c6.899,1.1,13.899,1.6,20.1,4.6c5.4,2.7,10.199,6.6,14.199,11.2
			c14.4,17,7.5,36.2,7.5,56.2c-0.1,1.3,1,3.1,2.5,3.3c9.4,1.3,18.4-4.5,27.801-5.1c13.9-1,27.602,3.4,39.699,9.9
			c11.5,6.1,24.701,15.7,26.301,29.3C337.603,101.529,306.802,87.329,281.302,93.929z"/>
	</g>
	<path fill="#2B2B2B" d="M71.604,369.229c11,1.897,14,5.301,14.5,15.198c0.4,5.103,2.2,7.103,7.2,9.199c4.5,2.103,14.7,5,5.6,8.9
		c-5.2,2.301-13.1,2.6-18.8,3.397c-2.9,0.4-12,0.103-9.1,4.9c2.2,3.801,11.1,2,14.3,0.5c3.1,3.801,11,8.701,1.5,11.301
		c-5.2,1.299-12.5-2.701-15.1,3.5c-1.3,2.9,3.1,13.699-1,15.199c-5.8,2.201-9.9-10.5-14.3-11.5c-7.7-1.699-8,12.801-14.7,13
		c-3,0-6.1-9-9.8-10.6c-5.9-2.597-11.6-2.597-11.1-10.896c0.6-9.5,6.9-2.299,11.6-5.199c3.4-2.1,2.9-7.701,0.1-10.1
		c-2.7-2.4-17.6-0.301-9.1-7.201c3-2.299,8.9-1.9,9-6.799c-9.6,0.897-4.3-6.801,0.7-9.5c7.9-4.301,10.7,4.6,16.1,7.699
		c2.5,1.5,16.6,3.698,14.5-2.603c-1.2-3.397-10.6-7.699-13.6-9.6c-4.1-2.699-7.1-9-3-13.603c1.8-2,9.6-4.897,12.3-3.799
		c3.9,1.603,0.9,5.799,3.5,8.103c1.6,1.5,3.8,0.897,5.9,0.6C69.604,369.129,70.503,369.129,71.604,369.229z"/>
	<path fill="#2B2B2B" d="M175.803,406.229c2.4,3.6,4.1,3.1,8.3,2.397c4-0.799,7.199-1.699,10.699-3.1
		c4.201-1.698,12.701,4.202,14.601-1.698c0.6-2.1-0.602-4.9,0.699-6.801c3.102-4.699,11.301,2.801,15.301,2.897
		c5.301,0.103,8.199-5.696,11.398-9.1c6.9-7.299,3.4-14.699,0.4-22.799c-3.102-8.5,2.301-13.9,6.398-20.9
		c3.699-6.1,5.199-13.301-2.102-16.397c-4.898-2.103-19.5-7.5-13.199-14.701c4.699-5.299,8.4-10.603,0-14.5
		c-7.398-3.4-19.398-1.9-23,6.301c-0.5,1.4-0.301,3.699-1.398,4.699c-4.5,4-12.299-1.5-16.101,5.201c-2,3.397-0.1,7.6-1.1,11.196
		c-0.8,3-9.5,9-5.8,12.4c3.3,3,5.2,4.6,2.6,9.301c-2.1,3.799-1.8,5.299,0.2,9c1.3,2.5,0.4,5.603,1.6,7.5
		c4.402,7,4.902,7.4-3.5,10.799C171.604,382.03,170.503,398.729,175.803,406.229z"/>
	<path fill="#2B2B2B" d="M334.802,205.129c-10.699,6.3,5.201,16.5-0.199,23.8c-3.6,4.9-14.6-4.5-19.6-4.5
		c-4.5,0,0.6,7.399-4.4,12.399c-2.6,2.5-21.5-3.5-21.398-0.899c0.199,3.2,2.898,7.5,5.6,12c2.102,3.602,21.199-4.601,23.699-1.199
		c2.102,3-13.5,7.5-15.5,12.399c-3,7.3,11.701,15.601,17.4,15.601c4.1,0,9.801-1.898,11.301-6.301c1.1-3.601-1-6.5,2.199-9.8
		c3.898-3.899,10.398-4.801,14.699-8.2c5.301-4.199,14.801-21.7,9.102-27.8c-2.102-2.2-5.701-2.1-7.4-4.7c-1.6-2.5,1-4.6,2.602-7.2
		c1.699-2.8,5.699-6.8,3.199-10c-2.398-3.3-7-2.7-11.398-1C340.802,201.229,336.903,203.529,334.802,205.129z"/>
	<g>
		<path fill="#2B2C2B" d="M350.703,159.029c-5.199,25.8-25.101,40.1-47,52.1l-64.199,33.2c-11.9,6.4-22.4,11.602-30.9,22.102
			c8-11.102,18.301-17,29.9-24.199l62.699-36.8c4.801-2.7,9.5-5.5,14.199-8.2c6.301-3.6,13.102-6.7,18.199-12
			c16.199-16.8,17.801-36.2,14.602-58.2C350.503,138.029,353.003,147.729,350.703,159.029z"/>
	</g>
	<g>
		<path fill="#2B2C2B" d="M92.003,435.329c6.2-10.9,16.2-16.6,28.8-17c9.3-0.199,3.8,10.801,1.2,14.6
			c-1.9,3.103-6.9,5.603-9.8,7.603l0,0c3.2-4.103,7.6-8.299,8.2-13.699c0-0.1,0.2-2.1,0.2-2.1c-10,3.1-21,5.397-27.5,14.397
			c-2.4,3.4-1.1,5.199,1.2,8.299C89.803,443.629,89.003,440.629,92.003,435.329z"/>
	</g>
	<path fill="#2B2B2B" d="M99.403,226.729c8.7-9.8,7,5.801,15.4,9.1c8.4,3.301,13.2,8.4,11.3,13.602c-2,5.199-7,11.301,2.2,15.699
		c-0.5-6.5,15.9-13.699,11.6-22.6c-4.3-8.9-14.2-11.801-24.4-23.801c-10.2-12-25-0.2-31.7,15.801c-6.8,16-0.9,54.199,3.7,56.199
		C79.303,264.329,90.604,236.53,99.403,226.729z"/>
	<path fill="#2B2B2B" d="M8.303,453.928c9.6,13.5,23.4,16.103,37.8,21.804c8,3.196,16.1,8.196,25,5.799c-2.2-1.799-5-2.299-7.6-3
		c-2.6-0.699-4.2-1.799-6.4-2.9c2.2,1.103,19.5,0.801,25.6,0.701c18.7-0.301,37.2-3,54.9-8.701c15-4.799,28.7-11.897,41-21.699
		c5.4-4.198,11.5-8.5,16.3-13.397c-6.2-4.5-30.8,19.897-36.2,21.1c0.6-4.897,3.4-9.801,4.2-14.801c2.8-16.699-6.8-29.199-22-34.5
		c5.2,4.4,9.6,9.701,12.7,15.701c2.9,5.5,2.6,12.1,2.3,18.199c-0.7,15.6-14.3,22.301-27.7,25.801c-7.1,1.799-14.3,3.299-21.5,4.5
		c-25,4-52.3,3.397-76-6.4c-10.1-4.1-19.5-11.5-23.2-22c-4-11.2-1-23.1,2.9-33.801c5.2-14.199,12.7-29.299,21.6-41.399
		c4.4-6,8.8-11.398,14.1-16.601c0.5,1.201,2.9,3.301,5,3.601c11,1.5,9.1-11.3,17.2-15.601c3.6-1.899,5.1,5,6.4,7.301
		c2.1,3.9,5.9,6.699,10.5,6c3.2-0.5,5.2-3.301,7.8-5c4.4-2.897,7.9-0.5,12.4,0.4c4.7,0.897,5.1-4.9,8-7
		c4-3.103,7.9-1.801,11.6,0.397c3.9,2.199,9.5,3.699,14,3.4c5.3-0.5,11.4-13.5,8.6-18.5c-0.6-1.1-5.9-5.4-4.7-7
		c0.9-1.4,3.7-1.5,5-2.701c3.8-3.6-2.2-9.699-6.3-7.699c-4,1.9-6.1-3.6-14-4.6c-6.4-0.701,26.7-6.602,4.6-9.701
		c-2.8-0.299,28.3-14.6,4.7-17.6c0.7-2.699,6.3-5.9,8.6-7.199c4.6-2.602,9.2-5.301,14-7.701c10.1-5.101,19.7-10.799,29.4-16.5
		c4.601-2.799,19.6-11,22-12.699c-1,4.9-1.399,9.9-1.601,14.9c-0.2,4.699,0.4,10.1-0.6,14.6c0.299-1.5,0.698-3,1-4.5
		c2.698-12.399,4.5-27.3,13-37.3c11.1-13,30.897-10.4,46-12.9c8.799-1.5,14.1-6.1,18.198-13.8c3.199-6,5.802-9.8,13.101-9.1
		c6.301,0.6,11.801,1.3,18,0.3c5.301-0.8,11.701-1.5,14.601-6.6c1.601-2.7,2.301-5.8,3.601-8.6c1.7-3.5,4-6.5,6.301-9.6
		c5.8-7.7,5.3-13.9,2-22.7c2.399,8.1,1.899,13.2-4.5,19c-2.601,2.4-5.2,4.7-7.2,7.7c-1.699,2.6-2.8,5.7-4.699,8.1
		c-4,5-10.801,4.7-16.5,4.6c-5.897-0.1-11.801-0.6-17.699-0.4c-5.602,0.3-9.102,2.4-11.602,7.5c-2.601,5.5-4.398,11.2-10.398,13.9
		c-5.198,2.4-11.602,2.5-17.301,3.2c-5.897,0.7-11.897,0.9-17.699,2.1c-14.103,2.8-21.301,13-25.103,26.2c-1,0.4-2.1,0.9-3.1,1.4
		c-5.101,2.4-10.299,4.699-15.5,7.1c-17.6,8-35,16.399-52.2,25.301c-8.5,4.399-16.9,8.3-24.7,13.899
		c-10.5,7.3-21.8,14.199-31.5,22.398c-8.5,7.199-16,15.9-23.9,23.699c-14.1,13.9-28.6,28.701-38.5,45.9
		c-7.6,13.198-15.5,27.1-19.8,41.801c-0.9,3.397-1.7,6.799-2.1,10.299C-1.097,430.829,1.003,443.729,8.303,453.928z"/>
	<path fill="#2B2B2B" d="M238.903,401.428c29-17.1,60.601-31,83.699-55.6c7-7.5,13.601-15.6,19.601-24.1
		c6.301-1.603,16.6-4.4,26.6-6c6.5-1,11.802-3.603,15.802-5c10.399-3.603,16.603-14.699,8.802-20.199
		c-7.802-5.5-10.001-11.302-15.699-13.302c-5.603-2.102-9.603,8.302-13.701,8.398c3.101,5.301,6.701,1.9,9.899,0.4
		c3.199-1.5,6.5,1.1,8.897,6c2.4,4.897,12,2.897,6.201,8.801c-2.4,2.4-12.701,7.299-24.101,10.199
		c-6.7,1.801-19.7,6.701-19.801,6.701c22.5-33.201,37-72.603,41.899-111.801c4-32.1,0.1-65.7-15.101-94.4
		c-9.103-17.4-22.103-32.9-33.701-48.8l-0.5,0.1c2.5-0.7,20.4,38.3,22.103,42.2c6.397,14.6,11.3,29.9,13.897,45.7
		c5.4,32.5,0.802,65.2-10,96.101c-5.897,16.898-12.6,34.799-21.6,50.299c-16.4,28.701-38,54.801-63.101,76.4L238.903,401.428z"/>
</g>
</svg>
