<?xml version="1.0" encoding="utf-8"?>
<!-- Generator: Adobe Illustrator 15.0.0, SVG Export Plug-In . SVG Version: 6.00 Build 0)  -->
<!DOCTYPE svg PUBLIC "-//W3C//DTD SVG 1.1//EN" "http://www.w3.org/Graphics/SVG/1.1/DTD/svg11.dtd">
<svg version="1.1" id="Layer_1" xmlns="http://www.w3.org/2000/svg" xmlns:xlink="http://www.w3.org/1999/xlink" x="0px" y="0px"
	 width="1032px" height="512px" viewBox="0 0 1032 512" enable-background="new 0 0 1032 512" xml:space="preserve">
<g id="Layer_1_1_">
</g>
<g id="Layer_2">
	<g>
		<path fill="#010101" d="M634.2,431.5c3.4-1.6,8.3,1.5,11,7.1c2.7,5.6,2.1,11.4-1.2,13c-3.4,1.6-8.3-1.5-11-7.1
			C630.3,439,630.8,433.1,634.2,431.5z"/>
		<path fill="#D92627" d="M619.7,403.5c3-1.3,1.6-2.1,2.9-4.3c5.7-9.2,36.5-5.8,32-25.3c-3-13.3-26.5-4.8-32.4-13.7
			c-6.7-10.1,15-12.8,5.3-22.4c-3.5-3.4-9.3-1.8-13.2-4.5c-6.6-4.5-6.3-5.7-1.5-10.1c6.4-5.9,11.4-7.9,13.6-17.4
			c-6.9,0.8-13.6,3.2-19.2-2.3c-6.2-6-5.7-16.5-11.7-22.8c-5.3-5.5-17.4-9.8-24.8-8.2c-6.6,1.4-16.2,11.6-14.8,19.1
			c1.2,6.8,13.2,4.9,12.5,10.9c-0.7,6.7-8.5,7.6-6,15.7c2.8,8.2,9.1-0.4,14-0.6c0.6,0.2,1.7,3.2,1.7,3.8c0.4,2.7-5.4,10.2-8.7,10.6
			c-3.5,0.4-5-2.8-7.9-3.7c-2-2.4-4-6.8-6-10.2c-2.8-4.8-9.7-7-9.4-12.5c0.4-9.3-10.7-8.9-17.1-7c-6.7,2-8,2.1-13.3-3.3
			c-2-2-6.5-8-8.9-8.9c-2.8-1.1-10-0.3-12.8,0.6c-9.6,2.8-7.4,12.8-18.4,14.7c-11.3,2-12.6-4.1-10.8-13.1c1.5-7.5-1.1-7.5-7.1-7.1
			c-8,0.5-10.9,5.1-13.2-4.4c-0.9-3.9-3.9-5.8-7.7-6.6c-5.2,0.2-12.3,0.6-15.7,5.2c-4.4,5.8,2,13.9-1.8,19.2
			c-2.3,3.3-10.4,0.2-12.3,4.5c-4.2,10.1,5.4,24.5,10.5,32c3.4,4.9,7,9.7,11,14.1c0,0,0,0,0.1,0.1c3.6,3.8,17,15.7,22.7,9.1
			c3.7-4.4-4.1-13.1-1.3-18.6c4.2-8.3,20,10.7,30.7,10.6c12-0.1,19.1-18.6,21.5-16.1c3.9,4.1-5.6,13.2-7.1,16.7
			c-3.9,9.1,7.7,9.7,3.3,16c-11.1-3.2-14.7,4.5-12.5,13.9c4.7,20.3,21.3,14.4,36.1,14.7c10.6,0.2,13.1,9.3,23.7,3.1
			c10-5.9,14.9-10.2,13.8-21.9c-0.5-4.9-0.7-10.7,3.3-14.2c5.3-4.5,13.3-2.1,12.6,5.5c-0.6,6.3-8.1,7.1-2.2,13.9
			c5.5,6.4,9.9,1.7,9.3,11c-0.3,5.1-2,9.6,4.8,10.4c2,0.2,7.8-6.2,13.5-5.1C608.5,396,616.3,404.9,619.7,403.5z"/>
		<path fill="#2B2B2B" d="M539.3,40.4l-30.7,4c-24.8,7.2-44.4,20.2-62.7,38l-28.1,32.5l-0.1-0.1c6.2-13.6,11-28,20.5-39.6
			c9-10.9,20.7-19.3,32.9-26.4c11.1-6.4,23.2-11.6,35.9-13C517.8,34.6,528.5,38.2,539.3,40.4L539.3,40.4z"/>
		<polygon fill="#231F20" points="690.1,482.8 690.1,482.8 690.3,482.8 		"/>
		<g>
			<path fill="#2B2C2B" d="M407.2,150.4c1.5-12.7,13.9-21.7,24.6-27.4c11.3-6.1,24.2-10.2,37.2-9.3c8.8,0.6,17.2,6,26,4.8
				c1.4-0.2,2.4-1.9,2.3-3.1c0-18.7-6.5-36.7,7-52.6c3.7-4.3,8.2-8,13.3-10.5c5.8-2.8,12.4-3.3,18.8-4.3l0.1,1
				c-14.8,5.9-28.6,12.5-32.7,29.4c-3.6,14.7,10.9,34.4-0.8,46.8c-8.1,8.6-20.8,0.5-29.6-1.7C449.6,117.3,420.8,130.6,407.2,150.4z"
				/>
		</g>
		<g>
			<path fill="#2B2C2B" d="M555.8,446.1c-11-0.7-18.1-1-28.7,3.2l-11.8,6.1c-15,6.5-30,13.1-46.8,10.6c-16.8-2.4-31.2-13.6-32-31.5
				c-0.3-7.3,2.6-15.8,9.3-19.8c19.3-11.3,40.6-5.9,61.7-4.5v0.1c-17.1,1.1-44.5-2.8-58,12.2c-6.1,6.8-1.1,17,4.2,22.5
				c6.1,6.4,15.8,10,24.4,10.6l7.7,0.3l14.9-2l11.9-3.8l0,0l13.1-4.8l11.1-2.1l9.8,0.3L555.8,446.1z"/>
		</g>
		<g>
			<path fill="#2B2C2B" d="M654.7,308.7c-2.6-18.1,7.8-47.1-9.1-56.1c-25.1-13.4-53.6,6.7-27.3,29c-47.4-38.1,39.8-56.3,42.6-23.3
				C662.1,274.6,654.1,291.6,654.7,308.7L654.7,308.7z"/>
		</g>
		<path fill="#2B2B2B" d="M475.7,385.4c-23.5-20.2-43.7-44.7-59.1-71.6c-8.4-14.5-14.7-31.3-20.2-47.1c-10.1-28.9-14.4-59.6-9.4-90
			c2.4-14.8,7-29.1,13-42.8c1.6-3.7,18.4-40.2,20.7-39.5l-0.5-0.1c-10.9,14.9-23,29.4-31.6,45.7c-14.2,26.9-17.9,58.4-14.1,88.4
			c4.6,36.7,18.2,73.7,39.4,104.9c-2.3-1.2-4.6-2.3-7.2-3.2c-10.2-3.7-20.5-2.4-31.1-3.9c-1.5-0.2-2.8-1.3-3.7-2.4
			c-4.2-5.5-4.1-15.3,0-20.9c5-6.6,12.6-5,19.7-3.7v-0.1c-5.4-1.9-10.1-4.2-16-2.5c-10.7,3.1-12.7,14.2-12.8,23.8
			c-0.1,7.9,6.2,15.4,14.3,14.8l22.5-2.3c5.8,0.1,11.4,1.8,16.8,4c5.6,8,11.8,15.5,18.4,22.6c21.6,23,51.2,36.1,78.4,52.1
			L475.7,385.4z"/>
		<path fill="#2B2B2B" d="M686.8,475.3c-32.2-1.5-59.5-1.3-88.1-10.8c-3.3-9.3-11-13.2-9.2-28.8c0-0.2,3-16.3,15.6-21.2
			c-8.3-0.8-15.5,10.2-17.1,13c-5.7,9.7-5.8,24.2-0.5,32.7c0,0,0,0,0,0c-10.4-4.4-21.1-10.3-32.3-18.1l34.5,25.6
			c16.1,11.3,47.9,15.9,58.6,15.9l33-0.6l-3.3,1.5c-3.5,1.6-7.6,1.8-11.1,3.3v0.3c7.1,2.3,16.7,0.4,21.8-5.3l1.5,0l24.9-9.8l5.8-4.7
			c6.2-5.4,9.8-11.9,13.9-18.8C722.1,462.3,705.7,476.3,686.8,475.3z"/>
		<path fill="#2B2B2B" d="M672.6,381.5c2,0.3,4,0.8,5.5-0.6c2.4-2.2-0.4-6.1,3.3-7.6c2.5-1,9.8,1.7,11.5,3.6
			c3.8,4.3,1,10.2-2.8,12.7c-2.8,1.8-11.6,5.8-12.7,9c-2,5.9,11.2,3.8,13.6,2.4c5.1-2.9,7.7-11.2,15.1-7.2c4.7,2.5,9.6,9.7,0.7,8.9
			c0.1,4.6,5.6,4.2,8.4,6.4c8,6.5-6,4.5-8.5,6.7c-2.6,2.2-3.1,7.5,0.1,9.5c4.4,2.7,10.3-4,10.9,4.9c0.5,7.8-4.9,7.8-10.4,10.2
			c-3.5,1.5-6.4,9.9-9.2,9.9c-6.3-0.2-6.6-13.8-13.8-12.2c-4.1,0.9-8,12.8-13.4,10.8c-3.8-1.4,0.3-11.5-0.9-14.2
			c-2.4-5.8-9.3-2.1-14.1-3.3c-8.9-2.4-1.5-7,1.4-10.6c3,1.4,11.3,3.1,13.4-0.5c2.7-4.5-5.8-4.2-8.5-4.6c-5.3-0.7-12.7-1-17.6-3.2
			c-8.5-3.7,1-6.4,5.2-8.3c4.7-2,6.4-3.8,6.7-8.6c0.5-9.3,3.3-12.5,13.6-14.2C671,381.3,671.8,381.3,672.6,381.5z"/>
		<path fill="#2B2B2B" d="M566.7,389.5c-7.9-3.2-7.4-3.6-3.3-10.1c1.1-1.8,0.3-4.7,1.5-7c1.9-3.5,2.2-4.9,0.2-8.4
			c-2.4-4.4-0.7-5.9,2.4-8.7c3.5-3.2-4.7-8.8-5.4-11.6c-0.9-3.4,0.8-7.3-1-10.5c-3.6-6.3-10.9-1.1-15.1-4.9c-1-0.9-0.8-3.1-1.3-4.4
			c-3.4-7.7-14.6-9.1-21.5-5.9c-7.9,3.7-4.4,8.6,0,13.6c5.9,6.7-7.8,11.8-12.4,13.8c-6.8,2.9-5.4,9.6-2,15.4
			c3.8,6.6,8.9,11.6,6,19.6c-2.8,7.6-6.1,14.5,0.4,21.4c3,3.2,5.7,8.6,10.7,8.5c3.7-0.1,11.4-7.1,14.3-2.7c1.2,1.8,0.1,4.4,0.7,6.4
			c1.8,5.5,9.7,0,13.7,1.6c3.3,1.3,6.3,2.2,10,2.9c3.9,0.7,5.5,1.1,7.8-2.2C577.3,409,576.3,393.4,566.7,389.5z"/>
		<path fill="#2B2B2B" d="M414.1,222.6c-4.1-1.6-8.4-2.2-10.7,0.9c-2.3,3,1.4,6.7,3,9.4c1.5,2.4,3.9,4.4,2.4,6.7
			c-1.6,2.4-5,2.3-6.9,4.4c-5.3,5.7,3.6,22.1,8.5,26c4,3.2,10.1,4,13.8,7.7c3,3.1,1,5.8,2.1,9.2c1.4,4.1,6.7,5.9,10.6,5.9
			c5.3,0,19.1-7.8,16.3-14.6c-1.9-4.6-16.5-8.8-14.5-11.6c2.3-3.2,20.2,4.5,22.2,1.1c2.5-4.2,5.1-8.2,5.2-11.2
			c0.1-2.4-17.6,3.2-20,0.8c-4.7-4.7,0.1-11.6-4.1-11.6c-4.7,0-15,8.8-18.4,4.2c-5.1-6.8,9.8-16.4-0.2-22.3
			C421.4,226.2,417.8,224,414.1,222.6z"/>
		<g>
			<path fill="#2B2C2B" d="M410.8,154.5c-2,13.8-3.6,26.4,2.9,39.5c3.5,7,8.5,13.4,14.5,18.5l26.6,15.4l58.7,34.5
				c10.9,6.7,20.5,12.3,28,22.7l0,0c-8-9.8-17.8-14.7-28.9-20.7l-60.1-31.1c-20.5-11.2-39.2-24.6-44-48.8
				C406.3,173.9,408.7,164.8,410.8,154.5z"/>
		</g>
		<g>
			<path fill="#2B2C2B" d="M541.3,278.8c-4.1-15.8-5.1-38.6-22.7-46.1c-13.3-5.7-29.6-1.9-42.5-8.5c-7-3.6-8.5-11.2-12.2-17.5
				c-0.2-0.4-0.6-0.6-1.1-0.6c-12,0.2-35.9,4.5-40.3-11c-0.9-3.3-0.5-6.3-3-8.9c-2.8-2.9-7-5.4-7.8-9.6c-1.2-5.6,0.9-9.6,2.4-14.9
				h0.1c-0.6,5.3-2.8,12.2,1.6,16.5c2.9,2.8,7.1,4.1,9.4,7.5c2.1,3,2,8.3,5.3,10.3c6.5,4,19.3,2.2,26.6,2.2
				c7.7,0.1,11.4-0.5,15.3,6.7c2.1,4,2.9,9.7,7.4,12c16.6,8.3,40.2-0.2,52.7,16.8C541.7,246.2,540,264.4,541.3,278.8z"/>
		</g>
		<g>
			<path fill="#2B2C2B" d="M648.7,454.6c2.2-2.9,3.4-4.6,1.1-7.8c-6.1-8.4-16.4-10.6-25.8-13.5c0,0,0.2,1.9,0.2,2
				c0.6,5.1,4.7,9,7.7,12.8l0,0c-2.7-1.9-7.4-4.2-9.2-7.1c-2.4-3.6-7.6-13.9,1.1-13.7c11.8,0.4,21.2,5.7,27,15.9
				C653.6,448.3,652.9,451.1,648.7,454.6z"/>
		</g>
		<path fill="#2B2B2B" d="M730.1,415.1c-5.8-18.3-11.6-39.6-24.8-54.3c-8-8.8-17-16.9-25.4-25.2c-7.4-7.3-14.4-15.5-22.4-22.2
			c-9.1-7.7-19.7-14.1-29.5-21c-7.3-5.2-15.2-8.9-23.1-13c-15-7.7-30.1-15.2-45.5-22.2l-21.5-9.6l37.4,24.1
			c9.6,6,19.3,11.9,28.9,17.9c1.5,0.9,2.9,1.9,4.3,2.9c-4.4,1.4,3.8,11.9,4.5,16.4c0.6,3.4,10.3,8.4,4.3,9.1
			c-7.4,0.9-9.4,6.1-13.1,4.3c-3.8-1.9-9.5,3.8-5.9,7.2c1.2,1.1,3.8,1.2,4.7,2.5c1.1,1.5-3.8,5.5-4.4,6.6
			c-2.6,4.7,3.1,16.9,8.1,17.3c4.2,0.3,9.5-1.1,13.1-3.2c3.5-2.1,7.1-3.3,10.9-0.4c2.7,2,3.1,7.4,7.5,6.6c4.2-0.8,7.5-3.1,11.6-0.4
			c2.4,1.6,4.3,4.2,7.3,4.7c4.3,0.7,7.9-2,9.8-5.6c1.2-2.2,2.6-8.6,6-6.8c7.6,4,5.8,16,16.1,14.6c2-0.3,3-1.1,3.5-2.2
			c5,4.8,9.6,9.9,13.7,15.5c11.8,16,19.8,34.9,28.9,52.5l0.3-0.1C735,431.2,730.5,416.5,730.1,415.1z"/>
	</g>
	<g>
		<g>
			<path fill="#2B2B2B" d="M83.8,31.3h10.9v90c0,12.1-3.5,21.8-10.5,29c-7,7.2-16.4,10.8-28.2,10.8c-12.4,0-22-3.3-28.7-9.8
				c-6.7-6.5-10-15.6-10-27.3h10.8c0,9.3,2.4,16.2,7.3,20.9c4.9,4.7,11.7,7,20.6,7c8.2,0,14.8-2.7,19.9-8.1c5.1-5.4,7.8-12.7,7.9-22
				V31.3z"/>
			<path fill="#2B2B2B" d="M118.1,110.4c0-9.1,1.8-17.4,5.3-24.7c3.5-7.3,8.6-13,15-17.1c6.5-4.1,13.8-6.1,22-6.1
				c12.7,0,22.9,4.4,30.8,13.3c7.9,8.9,11.8,20.7,11.8,35.3v2.2c0,9.2-1.8,17.5-5.3,24.9c-3.5,7.4-8.5,13-15,17s-13.8,6-22.1,6
				c-12.6,0-22.9-4.4-30.7-13.3c-7.9-8.9-11.8-20.7-11.8-35.3V110.4z M128.6,113.3c0,11.4,2.9,20.7,8.8,28c5.9,7.3,13.6,11,23.2,11
				c9.5,0,17.2-3.7,23.1-11c5.9-7.3,8.8-16.9,8.8-28.9v-2c0-7.3-1.4-13.9-4-20c-2.7-6-6.5-10.7-11.3-14c-4.9-3.3-10.4-5-16.7-5
				c-9.4,0-17,3.7-23,11c-5.9,7.4-8.9,17-8.9,28.9V113.3L128.6,113.3z"/>
			<path fill="#2B2B2B" d="M224.2,36.7c0-2,0.6-3.7,1.9-5c1.3-1.4,3-2.1,5.3-2.1c2.2,0,4,0.7,5.3,2.1c1.3,1.4,2,3,2,5s-0.7,3.6-2,5
				c-1.3,1.3-3.1,2-5.3,2c-2.2,0-4-0.7-5.3-2C224.8,40.4,224.2,38.7,224.2,36.7z M236.6,159.4H226V64.2h10.6V159.4z"/>
			<path fill="#2B2B2B" d="M275.2,64.2l0.4,16.3c3.6-5.9,8-10.3,13.4-13.4c5.3-3.1,11.2-4.6,17.7-4.6c10.2,0,17.8,2.9,22.8,8.6
				c5,5.7,7.5,14.4,7.6,25.9v62.5h-10.5V96.9c-0.1-8.5-1.9-14.8-5.4-19c-3.5-4.2-9.2-6.2-17-6.2c-6.5,0-12.3,2-17.3,6.1
				c-5,4.1-8.7,9.6-11.1,16.5v65.2h-10.5V64.2H275.2z"/>
			<path fill="#2B2B2B" d="M439.3,95.8l-18,17.8v45.8h-10.8V31.3h10.8v76.9L440.7,81l6.1,7.3l57.8,71.1h-13.2L439.3,95.8z"/>
			<path fill="#2B2B2B" d="M581.7,159.4c-1.1-3-1.7-7.4-2-13.3c-3.7,4.8-8.4,8.5-14.1,11.1c-5.7,2.6-11.8,3.9-18.2,3.9
				c-9.1,0-16.6-2.6-22.2-7.7c-5.6-5.1-8.5-11.6-8.5-19.4c0-9.3,3.9-16.6,11.6-22s18.5-8.1,32.2-8.1h19.1V93.2
				c0-6.8-2.1-12.2-6.3-16.1S563,71.2,555,71.2c-7.3,0-13.4,1.9-18.2,5.6c-4.8,3.8-7.2,8.3-7.2,13.5L519,90.4
				c0-7.6,3.5-14.1,10.6-19.7c7-5.5,15.7-8.3,26-8.3c10.6,0,19,2.7,25.1,8c6.1,5.3,9.3,12.7,9.5,22.2v45c0,9.2,1,16.1,2.9,20.7v1.1
				H581.7z M548.6,151.8c7,0,13.3-1.7,18.9-5.1c5.5-3.4,9.6-7.9,12.1-13.6v-20.9h-18.8c-10.5,0.1-18.7,2-24.6,5.8
				c-5.9,3.7-8.9,8.8-8.9,15.4c0,5.3,2,9.8,5.9,13.3C537.1,150.1,542.3,151.8,548.6,151.8z"/>
			<path fill="#2B2B2B" d="M617.5,36.7c0-2,0.6-3.7,1.9-5c1.3-1.4,3-2.1,5.3-2.1s4,0.7,5.3,2.1c1.3,1.4,2,3,2,5s-0.7,3.6-2,5
				c-1.3,1.3-3.1,2-5.3,2s-4-0.7-5.3-2C618.2,40.4,617.5,38.7,617.5,36.7z M629.9,159.4h-10.6V64.2h10.6V159.4z"/>
			<path fill="#2B2B2B" d="M702.5,73.2c-2.2-0.4-4.6-0.6-7.1-0.6c-6.6,0-12.1,1.8-16.7,5.5c-4.5,3.7-7.8,9-9.7,16v65.4h-10.5V64.2
				h10.3l0.2,15.1c5.6-11.3,14.5-16.9,26.8-16.9c2.9,0,5.3,0.4,7,1.1L702.5,73.2z"/>
			<path fill="#2B2B2B" d="M711.6,110.4c0-9.1,1.8-17.4,5.3-24.7c3.5-7.3,8.6-13,15-17.1c6.5-4.1,13.8-6.1,22-6.1
				c12.7,0,22.9,4.4,30.8,13.3c7.9,8.9,11.8,20.7,11.8,35.3v2.2c0,9.2-1.8,17.5-5.3,24.9c-3.5,7.4-8.5,13-15,17s-13.8,6-22.1,6
				c-12.6,0-22.9-4.4-30.7-13.3c-7.9-8.9-11.8-20.7-11.8-35.3V110.4z M722.1,113.3c0,11.4,2.9,20.7,8.8,28c5.9,7.3,13.6,11,23.2,11
				c9.5,0,17.2-3.7,23.1-11c5.9-7.3,8.8-16.9,8.8-28.9v-2c0-7.3-1.4-13.9-4-20c-2.7-6-6.5-10.7-11.3-14c-4.9-3.3-10.4-5-16.7-5
				c-9.4,0-17,3.7-23,11c-5.9,7.4-8.9,17-8.9,28.9V113.3L722.1,113.3z"/>
			<path fill="#2B2B2B" d="M823.8,150.5h61.8v8.9h-74.9v-7.7l57.7-78.3h-56v-9.1h69.2v7.9L823.8,150.5z"/>
			<path fill="#2B2B2B" d="M965.7,147.4c-6.3,9.2-16.5,13.8-30.4,13.8c-10.1,0-17.9-2.9-23.1-8.8c-5.3-5.9-8-14.6-8.1-26.2v-62h10.5
				v60.6c0,18.1,7.3,27.2,22,27.2c15.2,0,24.9-6.3,28.9-18.9V64.2h10.6v95.2h-10.2L965.7,147.4z"/>
			<path fill="#2B2B2B" d="M1003.2,153.2c0-2,0.6-3.7,1.9-5.1c1.3-1.4,3-2.1,5.3-2.1c2.2,0,4,0.7,5.3,2.1s2,3.1,2,5.1
				c0,1.9-0.7,3.6-2,4.9c-1.3,1.3-3.1,2-5.3,2c-2.2,0-4-0.7-5.3-2C1003.8,156.8,1003.2,155.2,1003.2,153.2z M1014.7,123.7h-9.8
				l-0.5-92.4h10.9L1014.7,123.7z"/>
		</g>
	</g>
</g>
<g>
	<path fill="#2B2B2B" d="M736.6,372.8c2.5-1.8,4.8-3.9,6.9-6.4c1.8-2.1,3.2-4.3,4.2-6.5h-4.8l-4.4,0.1c-0.2,0-0.3,0-0.4-0.1
		s-0.1-0.2-0.1-0.4v-3.1c0-0.2,0-0.4,0.1-0.4c0.1,0,0.2-0.1,0.4-0.1l4.4,0.1h0.7v-1.4c0-2.3-0.1-4-0.3-5.1c1.5,0,3,0.1,4.4,0.3
		c0.5,0.1,0.7,0.2,0.7,0.4s-0.1,0.5-0.2,0.9c-0.2,0.4-0.3,1.5-0.3,3.3v1.6h1.4c0.3,0,0.6-0.1,0.9-0.2c0.2-0.2,0.4-0.2,0.5-0.2
		c0.3,0,0.9,0.4,1.6,1.2c0.7,0.8,1,1.3,1,1.6c0,0.2-0.2,0.4-0.5,0.7c-0.2,0.2-0.6,0.7-0.9,1.4c-0.9,1.9-2.2,3.9-3.6,6.1
		c0.4,0.6,0.9,1.2,1.5,1.8c0.7-0.8,1.3-1.6,1.8-2.5c0.3-0.5,0.6-1.2,1-2.1c1.6,0.9,2.6,1.6,3,1.9c0.3,0.2,0.4,0.5,0.4,0.7
		c0,0.2-0.1,0.4-0.4,0.5c-0.2,0.1-0.6,0.5-1,1c-0.2,0.2-0.6,0.7-1.3,1.5c-0.4,0.5-0.8,0.9-1.1,1.3c1.1,0.9,2.1,1.5,2.9,2.1
		c-0.8,0.8-1.4,1.6-1.8,2.4c-0.4,0.6-0.6,0.9-0.8,0.9s-0.5-0.2-0.9-0.6c-1.4-1.3-2.7-2.7-3.9-4.1v11.6l0.1,4.8c0,0.2,0,0.3-0.1,0.4
		s-0.2,0.1-0.4,0.1h-3.4c-0.2,0-0.3,0-0.4-0.1s-0.1-0.2-0.1-0.4l0.1-4.8v-10.5c-1.4,1.5-2.8,2.7-4.1,3.7c-0.4,0.3-0.7,0.5-0.9,0.5
		c-0.2,0-0.4-0.3-0.7-1C737.6,374.4,737.1,373.6,736.6,372.8z M769.7,357h-5.5c-0.2,7.4-0.9,13.3-2.4,17.7c-1.6,4.9-4.5,9-8.5,12.3
		c-0.4,0.4-0.7,0.6-0.8,0.6c-0.2,0-0.5-0.3-0.9-0.9c-0.6-0.8-1.5-1.6-2.6-2.4c4.2-2.6,7.1-6.5,8.7-11.5c1.2-3.7,1.8-9,1.9-15.9h-0.2
		l-5.3,0.1c-0.2,0-0.4,0-0.4-0.1c-0.1-0.1-0.1-0.2-0.1-0.4v-3.3c0-0.2,0-0.4,0.1-0.5c0.1,0,0.2-0.1,0.4-0.1l5.3,0.1h9l5.3-0.1
		c0.3,0,0.5,0.2,0.5,0.6c-0.1,0.9-0.1,2.2-0.1,3.7c0,11.2-0.5,19.5-1.4,24.8c-0.3,2-1,3.4-2,4.2c-1,0.8-2.3,1.2-4.2,1.2h-1.4
		c-0.7,0-1.3,0-1.8-0.1c-0.5,0-0.8-0.2-0.9-0.3c-0.1-0.1-0.2-0.6-0.3-1.3c-0.2-1.4-0.6-2.5-1.1-3.2c1.6,0.3,3.2,0.4,4.8,0.4
		c1.6,0,2.5-1,2.8-2.9C769.3,375.3,769.7,367.6,769.7,357z"/>
	<path fill="#2B2B2B" d="M799.1,359.7c0.5-1.3,0.9-3,1.2-5.1c0.1-0.7,0.1-1.4,0.1-1.9c0-0.4,0-0.7-0.1-1c2,0.4,3.7,1,5,1.7
		c0.5,0.2,0.7,0.5,0.7,0.8c0,0.2-0.1,0.4-0.3,0.7c-0.4,0.5-0.6,1-0.8,1.6c-0.4,1.1-0.8,2.3-1.2,3.4c3.6,0.6,6.5,2,8.5,4.4
		c1.8,2.1,2.7,4.7,2.7,7.8c0,7.2-4.3,11.9-12.9,14c-0.3,0.1-0.5,0.1-0.6,0.1c-0.4,0-0.7-0.3-1.1-0.8c-0.8-1.2-1.7-2.2-2.7-2.8
		c8.4-1.7,12.6-5.4,12.6-11.1c0-2.3-0.8-4.2-2.3-5.7c-1.4-1.3-3.1-2.1-5.3-2.3c-2.1,5-4.1,9.1-6.1,12.3c0.7,0.9,1.3,1.7,1.8,2.1
		c-1.1,1.3-2,2.2-2.6,2.6c-0.2,0.1-0.4,0.2-0.6,0.2c-0.2,0-0.4-0.1-0.6-0.2c-0.5-0.5-0.8-0.9-1.1-1.2c-2.5,2.7-4.8,4-7,4
		c-1.7,0-3.1-0.7-4.1-2.1c-0.9-1.2-1.4-2.8-1.4-4.7c0-4.4,2-8.4,6-12c-0.1-0.5-0.6-2.3-1.3-5.5c-0.5-2-0.9-3.3-1.3-4
		c2.1,0.1,3.7,0.3,4.7,0.7c0.5,0.1,0.8,0.5,0.8,1.2c0,0.9,0.1,1.7,0.2,2.4c0.2,1.4,0.4,2.3,0.6,3C793,360.7,795.9,359.9,799.1,359.7
		z M788.1,368.6c-2,2.3-2.9,4.7-2.9,7.3c0,0.8,0.2,1.4,0.5,1.9c0.3,0.4,0.6,0.7,1,0.7c1.2,0,2.7-1,4.4-3.1
		C789.7,372.9,788.7,370.6,788.1,368.6z M791.6,365.8c0.6,2.4,1.4,4.4,2.4,6.1c1.3-2.1,2.6-4.9,4-8.5
		C795.7,363.8,793.5,364.5,791.6,365.8z"/>
	<path fill="#2B2B2B" d="M834.6,375.4c-0.1-2.6-0.2-4.3-0.2-5c-1.2,0-2.2,0-3.2,0c-2,0-3.8-0.1-5.5-0.2c-0.4,0-0.6-0.2-0.7-0.7
		c-0.2-0.9-0.2-2.1-0.2-3.6c2.1,0.3,4.4,0.4,6.8,0.4c0.9,0,1.8,0,2.7-0.1l-0.1-4.8c-1.7,0.1-3.1,0.1-4.2,0.1c-2.2,0-4.1-0.1-5.8-0.3
		c-0.4,0-0.7-0.2-0.7-0.6c-0.1-1-0.2-2.3-0.3-3.8c2.4,0.3,6.1,0.4,11,0.4c0-0.8,0-2.2-0.1-4.1c-0.1-1.1-0.3-2-0.5-2.8
		c2.3,0.1,4,0.4,5.3,0.8c0.4,0.1,0.6,0.4,0.6,0.8c0,0.2,0,0.3-0.1,0.5c-0.4,0.8-0.6,1.5-0.6,2c0,0.3,0,0.7,0,1.3c0,0.6,0,1.1,0,1.4
		c3.2-0.2,6.2-0.7,9.2-1.3c0.1,0,0.2,0,0.3,0c0.2,0,0.4,0.2,0.4,0.6c0.1,1,0.2,2,0.2,3.1c0,0.4-0.2,0.6-0.5,0.7
		c-3,0.5-6.3,0.9-9.7,1.1l0,4.8c1.3-0.1,4-0.4,8.2-1.1c0.2,0,0.3-0.1,0.3-0.1c0.2,0,0.3,0.1,0.3,0.4c0.1,1.6,0.1,2.7,0.1,3.4
		c0,0.4-0.2,0.6-0.6,0.6c-2.9,0.5-5.7,0.8-8.2,1c0.1,2.8,0.2,4.8,0.3,5.9c4,1.1,7.8,2.8,11.1,5.1c0.2,0.2,0.4,0.4,0.4,0.6
		c0,0.1,0,0.2-0.1,0.4c-0.4,1.2-1,2.2-1.8,3.1c-0.2,0.2-0.3,0.3-0.5,0.3c-0.2,0-0.3-0.1-0.5-0.2c-2.4-1.9-5.2-3.5-8.3-4.8
		c0,2.4-0.8,4.1-2.4,5.1c-1.4,0.9-3.4,1.3-6.1,1.3c-2.9,0-5.1-0.6-6.6-1.8c-1.3-1-1.9-2.4-1.9-4c0-1.9,0.9-3.3,2.6-4.5
		c1.5-1,3.5-1.5,5.8-1.5C831.9,375.2,833.3,375.3,834.6,375.4z M834.7,379.4c-1.4-0.3-2.7-0.5-3.9-0.5c-3,0-4.5,0.7-4.5,2.2
		c0,1.3,1.4,1.9,4.2,1.9c1.9,0,3.2-0.4,3.8-1.3C834.5,381.3,834.7,380.5,834.7,379.4z"/>
	<path fill="#2B2B2B" d="M859.7,351.5c2.7,0.3,4.4,0.6,5.3,0.8c0.7,0.2,1,0.4,1,0.8c0,0.2-0.1,0.7-0.4,1.4c-0.2,0.6-0.4,2.3-0.6,5.1
		c-0.4,6.5-0.6,11.9-0.6,16.3c0,2.3,0.3,3.7,0.8,4.3c0.5,0.6,1.5,0.9,3.1,0.9c2.2,0,4.7-0.7,7.4-2.1c2.7-1.4,5.1-3.3,7.4-5.7
		c0.2,1.5,0.5,2.8,1,4c0.2,0.5,0.3,0.8,0.3,1c0,0.4-0.3,0.8-0.8,1.3c-2.4,2.2-5.1,3.8-8.2,4.9c-2.6,0.9-5.2,1.4-7.8,1.4
		c-2.9,0-5-0.7-6.2-2.2c-1.1-1.3-1.7-3.5-1.7-6.4c0-2.6,0.2-8.7,0.6-18.1c0-1.4,0.1-2.4,0.1-2.9C860.2,354.4,860,352.8,859.7,351.5z
		"/>
	<path fill="#2B2B2B" d="M882,357.8c1.5-0.1,3.7-0.3,6.7-0.7c11.3-1.7,19.7-2.8,25.2-3.6c0.1,0,0.2,0,0.2,0c0.4,0,0.6,0.2,0.6,0.5
		c0.3,1.2,0.4,2.5,0.5,3.7c0,0.4-0.3,0.6-0.8,0.6c-1.9,0.1-3.6,0.4-5.1,0.9c-3.7,1.3-6.5,3.1-8.4,5.7c-1.6,2.1-2.3,4.3-2.3,6.7
		c0,5.4,3.7,8.4,11.2,8.8c0.6,0,0.9,0.2,0.9,0.6c0,1.3-0.2,2.5-0.5,3.6c-0.1,0.6-0.4,0.9-0.8,0.9c-4.4,0-8.1-1.2-11.1-3.7
		c-2.9-2.4-4.4-5.5-4.4-9.3c0-3,0.8-5.7,2.4-8.1c1.3-1.9,3.2-3.6,5.7-5.2v-0.1c-4.9,0.9-9.7,1.9-14.1,2.8c-1.4,0.3-2.3,0.6-2.6,0.7
		c-0.5,0.2-0.8,0.3-0.9,0.3c-0.4,0-0.6-0.2-0.8-0.6C883.2,361.5,882.6,359.9,882,357.8z"/>
	<g>
		<path fill="#2B2B2B" d="M923,388.2c0-0.9,0.3-1.6,0.8-2.2s1.3-0.9,2.4-0.9s1.9,0.3,2.4,0.9c0.5,0.6,0.8,1.3,0.8,2.2
			c0,0.9-0.3,1.6-0.8,2.2c-0.5,0.6-1.3,0.9-2.4,0.9s-1.9-0.3-2.4-0.9C923.3,389.9,923,389.1,923,388.2z M928.5,378.9h-4.9l-0.4-30.6
			h5.7L928.5,378.9z"/>
	</g>
</g>
</svg>
