<?xml version="1.0" encoding="utf-8"?>
<!-- Generator: Adobe Illustrator 15.0.0, SVG Export Plug-In . SVG Version: 6.00 Build 0)  -->
<!DOCTYPE svg PUBLIC "-//W3C//DTD SVG 1.1//EN" "http://www.w3.org/Graphics/SVG/1.1/DTD/svg11.dtd">
<svg version="1.1" id="Layer_1" xmlns="http://www.w3.org/2000/svg" xmlns:xlink="http://www.w3.org/1999/xlink" x="0px" y="0px"
	 width="1217.9px" height="963px" viewBox="0 0 1217.9 963" enable-background="new 0 0 1217.9 963" xml:space="preserve">
<g>
	<path fill="#6D1414" d="M60.3,276.1c6.4-13.4,12-25,17.7-36.3c5.7-11.3,11.5-22.2,18.9-33.7c16.8-26.3,31.4-43.3,41.7-53.8
		c10.4-10.4,16.5-14.2,18.7-12.9c3.3,2,7.4,3.1,13.5,2.3c6.1-0.9,14.1-3.7,25.3-9.2c7.2-3.5,9.2-1.9,12.1-1.3
		c2.9,0.7,6.6,0.4,17.4-5.8c3.9-2.2,6.6-2.5,12.1-5.7c5.6-3.2,13.9-9.6,30.5-22.8c6.7-5.2,12.4-7.9,18.3-10.7
		c5.9-2.8,12.1-5.7,20-11.3c12.3-6.4,21.3-9.8,30-12.7c8.6-2.9,16.9-5.4,28.2-9c15.9-5,27.6-8.1,37-11c9.4-2.8,16.5-5.3,23.6-8.2
		c2.8-1.1,7.6-2.6,12-3.8c14.6-4.8,32.4-8.8,59.9-8.8c13.2,0.1,22.8,0.2,29.6-0.2c6.8-0.3,10.9-1,13.1-2.2l-0.1,0
		c3.2-0.9,9.7-1.1,17.3-0.7c7.6,0.4,16.4,1.4,24,2.4c28.6,3.9,56.2,10.2,82.8,17.7c12.7,3.6,21.5,7.4,29.8,11.5
		c13.7,6.8,27.7,14.4,40.8,22.6c13.1,8.2,25.2,16.8,35.5,25.2c-2.8,0.4-13.6-5.8-29.2-14.1c-29.1-16.8-60.1-29.6-93.3-38.3
		c-15.2-4-30.8-7.3-43.8-9.9c-13-2.7-23.6-4.8-28.8-7c-8.8,1.5-30.3,0.4-53.6,1.4c-11.6,0.4-23.7,1.3-34.8,2.7
		c-11.1,1.4-21.2,3.2-28.9,5.2l-13.8,2.2c-9.7,1.3-18,1.9-30.5,5.4c-15.9,4.5-31,9.6-44.4,14.3c-13.4,4.6-25.2,8.8-34.9,11.2
		c-3.4,0.8-11.8,4.7-19.9,9c-19.9,10.6-37,20.5-53.5,31.1c-16.4,10.6-32.1,21.9-48,36.3c-7.1,6.4-15.2,13.1-15.3,12.1
		c-0.6-3.2-11.3,4.1-21.4,11.9c-10.1,7.7-19.6,15.7-19.5,11.3c0.1-3.4-10.8,6.1-23.3,21.1c-8.2,9.9-13.3,16-16.2,18.6
		c-2.9,2.6-3.7,1.6-2.6-2.5c1-4,0.5-5.7,0.1-7.5c-0.9-3.4-6.2,1-14.5,12.8C92.1,236.7,81,256,70.5,282.4c-6.7,17-13.3,35.1-19,53.7
		c-9.4,30.8-14.5,59.8-16.7,87c-2.2,27.3-1.7,52.9,0.7,77.6c1.8,18.2,4.4,29,6.4,28.1c3.5-1.5,6.2,23.8,14.2,58.8
		c3.5,15.4,8.3,30.4,13.5,43.8c5.2,13.4,11,25.1,16.2,34.3c5.2,9.2,9.9,15.9,13.2,19.2c3.2,3.4,4.9,3.5,4.4-0.6
		c-0.4-3.7-0.3-5.9,1.7-3.5c2,2.3,5.7,9.1,13.3,22.9c-7.4-13-11.7-22.4-14.3-28.9c-2.6-6.5-3.6-10.3-3.8-12.5
		c-0.4-4.4,2.3-2.8,2.7-5.6c-1.7,3.7-3.6,3.9-7.9-4.3c-2.1-4.1-4.8-10.2-8.1-19.2c-3.3-8.9-7.1-20.7-11-35.9
		c-4.6-18.1-8.1-35.3-10.8-53.4c-2.5-16.3-2.9-31.6-2.3-40.5c0.6-8.9,1.9-11.4,3.3-2.4c2.6,14.7,5,17.3,7.3,19.1
		c2.3,1.7,4.4,2.6,7.6,13.1c-2.7-22.7-3.8-39.3-4.8-52.3c-1-13-1.9-22.3-2.9-30.3c-1.5-12.2-1.7-22.5-0.2-35.9
		c1.6-13.5,4.8-30.2,12.6-54.7c2.3-7.3,5.2-14.4,7.4-21.7c7.3-24.9,14.8-40.5,21.4-52c6.7-11.5,12.6-19,19.3-27.3
		c7.4-9.2,17.4-21.8,25.9-30.7c8.5-8.9,15.2-14.2,15.1-10c7.2-9.1,11.7-14.8,14.5-18.8c2.8-4,4-6.3,5-8.4c3-6.2,11.5-17.2,20.1-27.2
		c11-13.1,25-26.7,44.3-39c9.5-6,12.8-7.1,12.4-5.7c-0.4,1.3-4.4,5.2-9.1,9.8c-12.3,10.1-20.4,18.2-25.8,24.4
		c-5.4,6.2-8.1,10.4-9.3,13.3c-2.3,5.7,1.6,5.9,4.7,6.6c2.3,0.5,2.4,2.5-0.5,7.2c-2.8,4.7-8.7,12-17.8,23.6
		c-7.5,8.5-13.6,15.1-19.6,21.7c-11.8,13-19.2,25.9-25.3,37.5c-3.5,6.7-4.4,9.7-3.9,10.3c0.5,0.6,2.4-1.1,4.8-3.8
		c7.6-8.2,11.3-9.6,12.4-7.3c1.1,2.3-0.2,8.4-2.1,15.6c-1.9,7.5-8.8,22.3-16.1,39.6c-7.4,17.3-15.1,37.1-21.2,53.6
		c0.1-6.4-0.8-9.2-2.4-9.7c-1.6-0.5-3.9,1.4-6.5,4.4c-5.3,6.1-11.5,17.1-16.1,22.8c-1.6,2-4.1,9.4-6.4,17.9
		c-2.3,8.4-4.4,17.8-6.1,23.4c-0.5,16,1.9,7.8,3.2,7.1c1.9-1,2.7,4.8,2.9,15.4c0.2,10.5,0,25.7,0.4,43.4c0.1,6-0.2-1.5,0.1,4.3
		c1.8,34.3,6.8,64.1,12.2,89.6c5.5,25.5,11.4,46.8,16,64.5c1.1,4.2,3.7,10.7,7.4,17.8c7.8,15.3,17.6,30.6,19.7,37.8
		c2.4,7.9-7.6-4.6-16.3-17.4l-8.5-12.9c12.1,19.3,23,32.5,27.4,33.6c2.8,0.7,10.4,9.7,20.3,21.7c9.9,12,22.4,26.7,34,40
		c17.8,20.3,38.3,38.6,62.7,54c12.1,7.6,22.2,13.6,30.1,18.5c7.9,5,13.6,8.9,17.3,12.4c2.7,2.6,6.1,4.9,11.7,7.7
		c5.6,2.8,13.3,6.1,24.6,10c22.2,7.7,45.8,14.2,70,18.5c24.1,4.3,48.7,6.4,72.3,6c29.8-0.4,54.9-4.3,69.5-9.3
		c7.9-2.8,18.6-5.6,37.7-9.7c10.6-2.3,18-3.9,22.6-4.5c4.6-0.6,6.5-0.2,5.8,0.9c-2,3.3,16.2-0.4,6.7,5.3c-4.7,2.8,3.9,0.8,12.9-1.7
		c17.8-5,26.3-7.6,25.6-6c-0.7,1.5-10.5,7.3-30.7,15.3c-15,5.8-27.8,10.4-41.5,14.5c-12.2,3.5-13,4.8-7.1,4.9
		c6.4,0.1,17.8-3.1,28.3-6.2c18.2-5.5,27.1-9,35.6-11.9c8.5-3,16.6-5.5,32.5-11.6c-5.8,0.3-0.6-4.9,10.9-13.3
		c11.5-8.5,29.2-20.7,48.4-35.2c19.4-14.6,33.1-28.1,30.8-29.8c-1.2-1.4,5.4-9,12.1-17.1c15.6-18.9,24.2-33.9,24-39.6
		c-0.1-2.3,4.1-8.9,9.9-17.5l20.2-29.5c8.1-11.7,14.4-21.1,18.2-25.4c3.7-4.4,5.1-3.8,2.3,4.1c-2.7,7.5-3.7,10.6-2.2,9.1
		c1.5-1.5,5.4-7.6,11.8-19c6.9-12.4,12.7-23.2,18.2-34.8c5.5-11.6,10.7-23.9,15.6-39.6c3.3-11.1,6-14.9,7.4-14.7c2,0.3,5-5.7,9.1-18
		c3.2-9.9,4.1-8.6,3.9-1.7c-0.2,6.8-1.8,19-4,30.5c-1.3,6.7-3,14.2-3.4,17c-0.4,2.9,0.8,1.3,4.9-10.3c4.2-12.4,3.2-2.3,2,6.5
		c-3.4,24.2-11,53.4-22.5,82.3c-11.4,28.9-26.6,57.4-41.9,81.6c-7.2,11.5-18.5,25.2-31.1,38.5c-33.1,34.5-71.6,63.4-113.6,85.6
		c-42,22.2-87.5,37.7-134.3,45.8c-50.3,8.7-99.8,9.5-146.2,4.6c-46.3-4.9-89.2-15.7-126.9-28.8c-30.2-10.5-60.7-24.9-90.2-43.5
		c-29.5-18.6-57.9-41.3-83.7-67.7c-25.9-26.4-49.2-56.5-68.9-89.5c-19.6-32.9-35.6-68.7-47-105.8c-9.9-32.1-16.8-68.8-19-106.3
		c-2.4-37.4-0.3-75.8,5-111.4c4.5-23.1,8.2-40.7,12.5-57.9C46.4,313.7,51.3,296.8,60.3,276.1z"/>
	<path fill="#A21B1C" d="M912.4,284.9c-5.9-8.3-8.1-14.4-15.5-22c-6.7-6.8-10.2-18-18.5-24c-5.8-4.1-5.7-10.3-12-14
		c-6.5-3.8-2.2-7.4-7.5-12.1c-10.4-9.1-31.5-26.2-41.5-35.5c-13.7-12.9-35.8-14.3-45.5-24.3c-4.3-4.4-14.9-7.1-21.5-11.6
		c-6.6-4.4-17.5-11.3-20-12.1c-6.6-2.1-17.8-7.5-26-10.5c-8.2-3-22.7,4.3-20.5,8.2c6.1,2.8,9,9.7,16.5,14.4
		c15.8,9.9,21.6,5.9,37.6,13.8c15.2,7.5,40.2,29.2,51,29.2c16.7,0,32.8,17.3,37.5,21.9c4.4,4.4,26.8,34,31.9,38
		c15.6,12.2,24.2,39.8,38,47c5.6,2.9,8.2,13.9,13.7,17.5c1.7,1.1,9.5,6.6,12.2,5.4c1.6-0.7-1.7-3.9-2.2-4.6
		c-5.1-6.7,0.5-12-4.3-18.8C915.7,290.5,912.6,285.2,912.4,284.9z"/>
	<path fill="#68151D" d="M736,78.8c10.4,5.3,20.8,11,30.8,17.1c13.4,5.2,30.3,14.5,49.2,29.2c18.9,14.7,39.9,34.7,60.2,61.2
		l-0.2-0.3c20.2,26.1,34,51.5,36.8,62.7l-0.1-0.3c-1.1-0.6-1.1,0.7,1.1,5.1c4.5,9.3,8.8,19,11.6,29c1.2,4.3,5,15.1-2,15.2
		c-1.3,4.9,2.1,12.8-0.9,16.7c-6.5-5-8.5-14.7-13-21.2c-1.2-1.8-11.9-15.7-14.5-12.2c-0.9,1.2-5.4-5.4-13.5-18.9
		c-17.3-30-39.4-56.7-65.6-79.3c-1.6-1.4-10.5-9.7-13.4-7.2c-10.1-3.6-19.6-9.5-29.1-14.4c-11.8-6.1-27.2-15.2-52-27.7
		c-11.7-5.8-20.7-8.9-25.4-9.5c-4.7-0.5-5.2,1.3-0.5,6c10.8,10.7,25,24.2,35.6,37.1c4.8,5.9-6,1-13.3-1.3c-8-2.5-14.3-8.3-21.4-12.5
		c-2.3-1.4-4.4-2.8-7-2.6c-1.4,0.1-2.9,1-4.6,1c-3.8-0.1-7.5-1.7-11.3-1.9c-2.7-0.2-5.3,0.8-8,0.8c-6-0.2-11.4-3.8-17-5.5
		c-6.9-2.1-13.8-4.1-20.8-6c-14.6-3.9-29.3-7.3-44.2-10c-35.2-6.5-64.8-6.6-72.8-11.7c-2.3-1.5-23.4-2.5-47.2,0.5
		c-11.9,1.4-24.4,3.8-35.5,6.6c-11.1,2.8-20.9,6.1-27.4,8.8c-18,7.5-33.9,14.6-48.7,21.8c-14.8,7.2-28.7,14.5-42.1,22.6
		c-18.9,11.5-34.2,21.6-49.9,34.1c-13.5,10.8-26.8,23.7-39.5,39c-12.7,15.3-24.7,33.1-35,53.6c-7.7,12.7-14.5,25.1-20.7,38.6
		c-6.2,13.5-11.8,28.2-16.3,45.5c-7.3,27.7-10.6,53.3-8.3,71.7c0.6,5,0.7,13,0.8,21.8l0.1,27.1c0,19.1,2.8,38.5,7.5,54.4
		c9.3,31.3,17,57.2,24.6,78.9c3.7,10.3,4.6,14.5,3.4,15.2c-1.2,0.6-4.3-2.4-7.9-6.9c-0.7-0.9-1.5-1.9-2.3-3c-4.3-5.9-5.1-3-7.4-3.9
		c-1.2-0.5-2.6-1.9-5-6c-2.3-4.1-5.6-10.8-9.6-22.1c-10.4-28.9-18.5-60.1-20.6-91.7c-0.7-10.1-1.5-20-2.2-29.4
		c-1.8-22.1-0.3-42.1,2.8-61.2c3.1-19.1,7.8-37.4,13.4-56.5c3-9.9,4.6-9.7,5.9-10.5c8.5-28.9,17.7-50,23-63.2
		c5.4-13.1,6.8-18.4,2.4-14.7c-3.9,3.4-4-0.3-5.4-1.7c-1.3-1.4-4.1-0.6-12.5,12.5c-3.9,6.2-4.7,5.9-3.8,2.2c0.9-3.7,3.6-10.9,6.8-18
		c2.4-5.3,6.6-12.8,9.9-18.7c6.7-12.2,12.2-21.1,16.8-27.9c4.6-6.8,8.1-11.6,11.3-15.3c6.4-7.5-1.9-19.1,7.8-25.8
		c10.1-12.5,14-23.4,17.5-28.5c3.5-5,15.1-17.3,18.6-21.8c3.5-4.5,15-12.3,17.7-5.8c4.1-6.4,9.6-23.9,9-24.5
		c-0.6-0.6,1.6-3.3,8.4-8.7c8.2-6.6,19.8-14.2,31.2-20.5c11.3-6.3,22.2-11.2,28.2-13.4c15.7-5.8,31.2-11,47.6-16.3
		c16.4-5.2,33.8-10.3,53.6-15c4.9-1.2,12-2,18.5-2.9l-0.1,0c14.5-2.9,27.9-5.1,44.5-6.4c41.8-3.1,83.6-0.8,124.3,7.1
		C659.3,46.8,698.9,60.2,736,78.8z"/>
	<path fill="#8A1718" d="M627,191.5c2.4,2.1-2.2,1-7.2,0c-5-1.1-10.5-2.1-9.8-0.9c-11-1.9-20.2-3.5-30.8-5.6
		c-10.6-2.1-22.4-4.7-39.2-7.3c-21.3,0.3-39.5,1.5-55.6,2.7c-16.2,1.2-30.4,2.5-43.7,3.7c-4.7,0.4-10.7,1.5-16,2.5
		c-13.8,7.6-27.5,12.1-41.7,17.7c-14.1,5.6-28.7,12.4-41.8,24.3c-4.2,3.8-10.6,8.1-16.6,11.9c-6.1,3.8-11.9,7.3-15.4,8.8
		c-2.7,1.2-5.6,2-12.6,9.7c-2.4,2.6-2.2,4.1-3.2,6.1c-0.5,3.3-5.1,9.6-13.9,17.5c-8.9,8-18.2,18.1-26.7,28.5
		c-8.5,10.3-16.1,20.9-22.3,29.1c-5.3,7-9.9,16-13.7,29.5c-1.8,6.5-4.2,14.5-6,22c-3.7,14.7-6.4,26.6-8.8,34.4
		c-2.4,7.8-4.5,11.5-6.5,9.5c-3.3,6.4-6,8.4-8.8,11.5c-2.8,3.2-5.8,7.6-8.6,19.4c-1.9,8.1-2.2-6.1-2.6-12.4
		c-0.5-5.5-0.9-10.3-1.7-11c-0.8-0.6-2.2,2.9-3.9,14.3c-2.8,19.7-2.7,34.9,1,43.2c1,2.3,2.2,11.6,3.6,17.7
		c3.7,12.8,6.4,27.4,8.5,45.9c2.2,18.6,7.5,40.3,17.8,64.5c8.2,19.3,18.1,38.2,27,54.1c8.6,15.4,16.3,27.2,7.7,21.1
		c-5.4-4.1-2.2,3,1.8,10.5c7.5,14.1,19,30.9,34,47.7c15,16.8,33.4,33.5,53.4,48.1c8.9,6.5,20.6,14,34.2,21
		c13.7,7,29.3,13.5,45.8,18.3c13.1,3.8,27.5,7.5,39.3,10.8c15.7,4.3,28.1,5.6,40.6,5.6c19.4-0.1,42.9-1.2,63.6-4.6
		c20.7-3.2,38.6-8.5,47.6-13.4c2.9-1.6,11.4-4.1,20.6-6.7c18-5.1,28.3-10,37.1-15.3c14-8.5,34.8-17.7,57.1-28.6
		c14.5-7.1,22.7-10.8,30.5-14c7.7-3.3,14.8-6.1,25.8-13.4c5.5-3.6,10.3-6.9,15.7-10.9c5.3-4,11.1-8.7,18-15.6
		c12.6-12.6,17.3-16.1,22.6-19.8c10.1-7.3,21.3-18.5,32.8-35.3c11.5-16.8,23.5-39.3,33.3-69.3c3.9-12,7.6-25.2,11.2-34.3
		c2.3-5.9,4.5-11.6,5.9-14c1.4-2.4,2.3-1.6,1.7,5.5c-2.7,13.9-6.9,27.8-7.5,35.6c-0.4,5.4-2.6,14.5-6.1,24.9
		c-3.4,10.4-8.2,22-12.9,32.5c-4.4,10.2-12.4,24.1-16.3,28.4c-6.5,7.4-15.6,19.3-25.4,30.4c-9.7,11.1-20,21.3-27.2,26.6
		c-7.8,5.7-16.6,14.4-29.6,25.8c-13.7,12.1-26.6,21.4-38,28.6c-11.4,7.2-21.3,12.3-29.4,15.7c-16.1,6.8-24.5,7.1-24.7,2.9
		c-17,8.3-31.7,14.5-44.2,19.7c-12.5,5.2-22.8,9.5-31.5,13.6c-9.2,4.4-25.5,9.2-43.4,12.6c-17.9,3.5-37.5,5.4-53,6.8
		c-10.6,1-27-0.9-40.1-3.1c-20.2-3.2-41.2-7.8-59.1-10.6c-18.6-3-37.1-9.4-58.4-19.6c-20.5-9.8-40.6-22.1-59.1-34.7
		c-18.6-12.6-35.6-25.4-51.1-36.1c-8.7-5.5-20.4-16.3-31.8-30.8c-10-12.8-14.8-21.7-12.6-21.8c3.1-0.3,0.8-6.5-6.6-20.7
		c-3.8-7.5-3.8-9.7-2.4-9.5c1.4,0.2,4.5,2.8,7.1,4.8c5.2,4,4.8,0.6,3.1-5.6c-3-10.4-8-24.1-13.1-40.3c-5.2-16.1-10.5-34.7-14.4-54.6
		c-1.8-8.6-5-21.5-6.8-32.6c-1.9-11.1-2.5-20.3-0.8-21.1c0.4,7.2-0.6,10.4-1.8,11.2c-1.6,1.1-2.5,3.8-2,10.4
		c0.5,6.6,2.1,17.2,7,33.7c3.6,12.2,5.9,21.2,6.9,27.4c1,6.2,0.5,9.5-0.8,10.2c-2.4,1.2-13.9-16.4-21.8-38.8
		c-5.1-14.4-8.8-29.8-11-44.6c-2.2-14.8-3-29.1-2.7-41.4c0.2-11.4,0.9-22.6,1.8-34.9c0.9-12.2,2.2-25.3,4.1-40.3
		c1.6-12.1,4-21,6.6-29.7l9-29c3.1-7.6,5-9.6,7.2-12.6c-1.7,2.1-3.6,5-5.6,8.9c-6.3,19.2-10.2,31.4-13.7,41.5
		c-3.4,10.1-6.4,18-9.1,28.9c-1.7,7.6-3.2,2.8-2.9-7.5c0.4-13,1.5-26.3,4.1-40.8c2.7-14.5,7-30.2,14.3-47.4
		c5.4-11.5,10.9-22.1,17.3-34c6.4-11.8,13.7-24.9,23.5-40.9c7.6-12.3,16.6-23.3,25.7-32.8c9.1-9.5,18.4-17.4,26.5-23.9
		c8.3-6.7,17.5-13.7,26.9-20.3c9.4-6.5,19-12.5,27.9-17.2c8.1-4.3,19-10.9,30.9-17.1c11.9-6.3,24.8-12.2,36.1-16.1
		c24.3-8.4,46.6-17.2,69.5-23.7c11.4-3.3,25.1-5.5,37.7-6.2c12.6-0.7,24,0.1,31,1.6c19.2,4.2,46.1,7.3,81.9,13
		c18,3,30.8,6.9,41.3,11c10.4,4.1,18.6,8.5,27.1,13.5c3.7,4.2,7.3,8.5,10.7,12.9c-7-0.8-15.8-4.1-25.7-8.1
		c-9.9-4-20.8-8.6-31.9-12.4c-21.1-8.4-47.8-14.4-76.2-16.4c-7.6-0.6-17.2-0.9-22.2-0.2c-9.7,1.3-19.4,2.8-30.4,4.4
		c-11,1.6-23.5,3.4-38.6,5.9c-9.5,1.6-12.8,4.2-14.2,5.6c-3.6,3.5-12.2,8.3-12.8,11.3c-0.7,3.4-17.3,9.3-37.9,18
		c-10.9,4.6-21.6,9.6-32,15.3c-9.1,5-15.2,8.4-18.5,9.6c-3.2,1.2-3.5,0.1-0.6-3.3c2.4-2.9,9.7-8.5,5.6-7.6
		c-13.7,7.7-20.4,14.4-28.3,21.7c-16.2,15.1-27.8,27.5-39.2,39.5c-11.3,12.2-22.5,24-35.9,40c-7.3,8.8-14.6,18.8-21,28.3
		c-0.3,3.7,3.1,0.7,5.6-0.4c2.5-1.1,3.7-0.5-0.2,10.3c4.2-6.4,7-8.9,10.1-12.1c3.2-3.2,6.5-7.1,12.7-15.8
		c9.8-13.7,20.1-25.9,29.9-40c11-15.8,23.1-28.3,34.4-37.1c11.3-8.8,21.8-13.9,30-15.7c5.1-1.1,13.9-5,23-8.5l5-1.6
		c3.5-1.3,10.3-4.5,11.8-4.5c7.5-0.5,19.3-4.8,33.4-9.6c14.1-4.8,30.6-9.9,46.5-13.1c2.2-0.4,4.9-0.8,5.9-0.8
		c16.3,0.7,37.1-0.3,60.4,0.6c23.3,0.8,48.8,3.4,73.2,9.4C609.3,183.9,621.9,187.3,627,191.5z"/>
	<path fill="#AC1D1D" d="M905.9,581.2c-2.8,3.7-5.4,8.8-8,16.3c-2.7,7.6-5.4,17.6-9.1,31.3c-2.4,8.8-5.2,16.8-9.2,25.5
		c-4.1,8.7-9.4,18.1-17.4,29.3c-10.3,14.6-22.5,29.9-33.4,41.1c-10.8,11.2-20.1,18.3-23.5,17.9c-0.4,0-4,3-6.4,5.4
		c-9.5,9.4-18,16.5-25.4,22.1c-7.4,5.5-13.8,9.5-19.3,12.5c-11.1,6-18.7,8.3-26.2,10.3c-3.7,1-10.4,4.4-18,8
		c-7.5,3.6-15.8,7.3-22.3,9.5c-10.4,3.6-16.1,8.4-19,11c-2.7,2.5-5.7,5.1-11.6,8.2c-5.9,3.1-14.7,6.7-29.3,10.4
		c-6.6,1.7-17.4,4.7-15.6,4.9c7.4,0.8-3.7,5.3-17.3,9.3c-13.5,4.1-29.5,7.2-30.5,9.7c-0.7,1.9-5.1,2.1-10.6,2
		c-5.5-0.2-12.2-0.8-17.7-0.6c-12.3,3.6-25.8,5.5-43.5,4.9c-17.6-0.7-39.4-3.7-67.2-12.3c-14.7-4.7-25.8-7.2-37-10.4
		c-3.9-1.1-9.3-2.7-14-4.3c-4.7-1.6-8.6-3.2-9.4-3.9c-5.7-4.9-22.7-13.5-38.1-23.4c-15.5-9.8-29.5-20.7-31.6-25.4
		c-0.4-0.8-2.6-3.2-5-5.1c-12.7-10.3-21.8-19.6-28.9-27.7c-7.1-8.2-12.2-15.3-16.6-22c-8.6-13.5-14.4-25-23.9-42.3
		c-3-5.5-4.7-9.6-4.9-11.4c-0.2-1.8,1.2-1.4,4.6,2.1c5.3,5.4,6.1,4.9,4.6,1.3c-1.5-3.6-5.4-10.4-9.3-18c-2.6-5-5.5-10.6-8.3-16.2
		c-9.5-18.8-17.3-38.6-22.5-57.3c-5.2-18.7-7.8-36.3-8-50.5c-0.1-5.9-2.4-16.7-3.3-25.4l-0.1-1.2c2.5-1.7,4.8,6.3,7.8,17.9
		c3,11.6,7,26.8,11.7,39.8c2.6,9,3.4,14.2,5,20.5c8.9,21.9,20.4,42,31.9,58c6.7,9.4,12.7,16.9,18.1,23.6l15.1,18.4l15.1,18.4
		c5.5,6.6,11.6,13.9,19.3,22.4c6,6.5,12.1,13,21.7,20.3c14.2,10.7,26,18.6,35.8,25.1c9.8,6.5,17.6,11.6,24.3,16.1
		c13.3,8.9,21.6,15.6,33.2,22.5c6.7,3.9,5.7,5.7,0.1,6.1c-9.3,0.4,7.2,8.5,27.2,14.9c9.2,3,18.7,4.8,28.1,5.2
		c10.7,0.5,26.4,1.1,32.6,0.1c10.3-1.6,21.6-2.6,35.5-3.8c13.9-1.2,30.4-2.4,51.2-5.5c12.3-1.8,24.3-5.3,36.7-9.7
		c12.4-4.4,25.1-9.8,38.9-15.7c18-7.8,34.2-16.7,50.3-25.7c12.1-6.6,22.2-12.4,31.6-18.2c9.4-5.8,18.1-11.5,27.3-18.3
		c7.7-5.9,8.9-5.4,7.6-2.1c-1.1,2.8,0,3.1,3.5,0.7c3.5-2.4,9.5-7.6,17.7-16.2c25.9-27.2,42.4-50.6,50.5-54.9
		c3.1-1.6,10.7-11.9,17.9-25.1c7.3-13.2,13.8-29.3,16.6-41.1c3.3-13.3,6.2-26.1,10.3-38.4c2.6-7.7,5.3-17.6,7.4-25.1
		c2.1-7.5,3.8-12.6,4.9-10.4c1,2,2.3,3.2,3,6.9c0.7,3.7,1,10-0.6,22.3c-0.9,4.3-1.9,8.1-3,11.5C907.1,579.8,906.4,581.1,905.9,581.2
		z"/>
	<path fill="#E46465" d="M765.2,645.9c10.2-15.9,17.8-29.5,23.8-39.1c6-9.7,10.5-15.4,13.8-15.6c4.4-0.3,10.3-5.1,17-14.9
		c6.6-9.8,14-24.6,20-45c4.5-15,7.5-32.1,10.2-24.1c4.1,12.8,8.9,13.1,14.4,8.4c5.4-4.6,11-14.2,16.1-19.6
		c3.6-3.7,7.1-9.7,10.5-11.9c3.4-2.2,13.8-0.4,16.9,11.8c-1.2,16.7-10.2,24.9-12.1,29.7c-1.9,4.8-3.7,6.1-5.5,8.4
		c-1.6,2.1-3.1,3.7-4.8,7.4c-1.7,3.7-3.7,9.3-6.6,19.2c-3.4,11.2-5.4,13.4-6.5,13.1c-1.2-0.4-1.8-3.4-3.1-3.1
		c-1.6,0.3-3.2,1.6-5.5,6.6c-2.4,5.1-5.3,13.9-10.7,29.1c-10.2,28.1-21.7,46.3-29,55.5c-3.7,4.6-6.6,7-8.2,7.1
		c-1.7,0.2-2.2-1.8-1.6-6c0.5-3.6-1.1-3.9-4.8-0.5c-3.7,3.3-9.7,10.1-18.7,20c5.8-5.5,10.6-10.3,13.1-11.6c2.4-1.3,2.7,1-1.4,9.4
		c-4.1,8.5-10.2,18.1-17.8,27.9c-7.6,9.8-16.8,19.7-26.9,28.9c-11.2,10.2-23,17.1-30.6,19.9c-7.6,2.8-10.7,1.7-5.6-4.1
		c1.5-1.6,8.4-7.5,4-4.7c-13,8.2-22.9,12-34.7,17.1c-6,2.5-12.4,5.3-20.3,8.8c-7.8,3.5-17,7.6-28.6,12.6c-7.4,1.4-14,2.3-21.6,3.4
		l-27.7,3.9c-7,0.9-10.8,0.6-11.3-0.4c-0.4-1,2.5-2.7,8.7-5c-6.7,3.4-21.1,7.1-36.1,9.8c-21.9,4-45,4.6-67.7,2.1
		c-22.8-2.5-45.3-7.9-67.1-15.8c-11.5-4.2-20.2-7.6-30-11c-14-5-22.1-8.9-28.6-13c-6.4-4.1-11.2-8.4-17.8-15.5
		c10.1,3.2,24.2,9.3,41,15.5c16.8,6.2,36.4,12.5,57,16.6c4.9,1,10.2,2.6,15.6,3.9c15.1,3.8,26,5.3,36,6.1c10,0.8,19.3,0.9,31.4,0.5
		c18.6-0.7,37.5-2.9,56.2-6.7c18.7-3.8,37.1-9.2,54.8-16c8.1-3.1,13.8-5.1,17.3-5.8c3.5-0.7,4.8,0,3.7,1.9c-0.8,1.3-1.8,2.8-1,3.2
		c0.8,0.4,3.7-0.1,10.5-3.1c7.4-3.3,11.1-5.9,13.4-7.9c2.4-2.1,3.4-3.7,5.2-5.5c6.4-6.2,15.8-12.9,28.5-22.9
		c8.9-7,15.5-13.1,20.5-18.1c5-5.1,8.4-9.1,10.7-12.3c4.5-6.4,4.3-9.2,2-11.2c-1.4-1.3,1.3-6.3,5.4-13.2
		C755.3,663.2,760.7,654.4,765.2,645.9z"/>
	<path fill="#751314" d="M905.9,581.2c0.7-1.8,1.3-3.5,2-5.4c3.2,2.1,7.1,0.9,10.4,2.9c0.9,0.6,1.4,4.3,3.6-1.6
		c4.1-11.3,5.9-13.9,7.3-12.9c1.3,1,2,5.5,2.9,8c2.4-1.7,4.2,0.1,6.5-0.9c2.3-1,5.3-4.9,9.6-18.4c3-9.9,4.5-9.2,5.3-4
		c0.8,5.2,0.7,14.9,0.4,22.7c-0.6,15.8-1.3,29.9-4.3,48c-1.6,9-3.8,19.1-7.3,30.7c-3.5,11.6-8.3,24.9-15.2,40.1
		c-6.6,14.4-12.6,26.8-18.4,38c-5.7,11.3-11.2,21.5-16.9,31.3c-3.8,6.5-8.2,13.4-14,21c-5.9,7.6-13.3,16-23.2,25.3
		c19.7-23.2,36.5-47.8,49.3-71.3c12.8-23.5,21.6-45.9,26.7-64.3c3.1-10.8,8.9-28.6,12.6-44.3c1.8-7.2,6.4-23.1,3.3-17.8
		c-3,5.4-7.1,18.9-11.6,31.3c-2.2,6.1-4.9,13.8-7.6,20.3c-2.7,6.5-5.5,11.9-7.3,13.7c-2,1.9,0.4-3.7,3.3-10.4
		c2.9-6.7,6.2-14.7,6.9-17.5c2.3-9.2,4.5-18.5,7.1-29.7c2.7-11.2,5.9-24.3,9.4-41.4c1-4.7,0.3-8.4-0.7-3.9
		c-4.5,19.1-7.2,24.4-8.3,24.9c-1.2,0.5-1.3-3.8-2.4-4.5c-1.8-1.2-7,15.9-14.4,37.2c-4.3,12.2-8.1,21.5-11.2,28.3
		c-3.1,6.9-5.4,11.3-7.1,13.9c-3.3,5.2-3.6,2.9-3.1-3.5c-1.2,2.4-2.6,4.7-3.7,7c-3.9,7.8-6.6,14.7-9.5,21.2
		c-3,6.5-6.3,12.7-11.9,18.6c-4.1,4.5-9.9,10.3-12,10.7c-1.1,0.2-1.2-0.9,0.3-4.1c1.4-3.3,4.4-8.7,9.2-17.4
		c3.7-6.6,8.9-16.7,4.8-11.7c-3.8,4.6-9.5,12.1-15.5,19.9c-5.6,7.4-11.7,17.1-10.5,16.8c4.8-1.2-0.2,10-8.5,23.3
		c-8.2,13.4-19.9,28.6-25.4,37.2c-5.9,7.7-13.4,16.1-23.4,25.3c-10,9.1-22.5,19-38.5,29.1c-13.4,8.4-23.8,13.6-29.4,15.7
		c-5.7,2.1-6.7,1.4-2.1-2.6c7.1-6.2,14.7-12.9,5.3-10.3c-4.3,1.2,2.1-3.8,6.9-8c10.6-9.1,13.3-13.9,9.1-13.5
		c-4.2,0.2-15.3,5.5-34.1,13.7c-15.3,6.7-30.1,11.9-29.7,8.9c0.2-2.2-13.1,2.9-30.7,9.4c16.5-5,27.1-8.4,31.3-8.5
		c4.1-0.2,1.9,2.9-8.3,9.1c-14.1,8.4-34,17.8-59.2,25c-24.2,6.9-46.2,11.2-67.8,14.4c-10,1.5-22.7,2.3-36.6,2
		c-13.8-0.3-28.7-1.7-42.9-4.2c-14.2-2.4-27.8-5.9-39-9.6c-11.3-3.7-20.3-7.7-25.7-10.9c-25.6-6.5-41.8-13.3-52.1-18.6
		c-10.3-5.5-14.7-9.8-16.3-13.9c-1.5-4-16-11.6-33.6-23.2c-12.7-8.3-25.3-17.7-35.4-26.7c-10.1-9-17.8-17.6-21.2-23.7
		c4.5,1,14.7,8.4,27.8,18.1c13.1,9.8,29.2,21.7,45,32.8c16.7,11.9,37.2,22.6,57.1,31.5c13.5,6,21.2,7.8,27.4,8.9
		c6.2,1.1,10.9,1.3,18.9,2.9c25.5,5,47.9,10.5,65.7,13.3c11.3,1.7,19.4,2.3,26.3,2.4c6.9,0,12.4-0.6,18.5-1.7
		c6.3-1.2,14.5-2.4,26.3-3.5c22.3-2.2,35.4-5.9,43.4-8.9c8-3.1,10.9-5.7,12.8-7.9c2.8-3.3,11.6-5.7,26.8-10
		c20.7-5.9,35.1-12.5,45.1-19.8c4-2.9,10.4-7,20.1-11.9c11.3-5.8,12.8-5.2,13-4c0.3,1.4-1.3,3.9-4.2,7.1c-7,7.3,8.1,1.6,23.2-6.2
		c14.3-7.3,32.6-19.9,47.3-35c11.4-11.5,19.5-20.3,25.8-26.3c6.2-6,10.5-9.2,13.5-10c2.8-0.8,8.9-6.8,17.7-17.9
		c5-6.4,9.6-11.8,14.3-18.3c4.3-5.9,6.5-7.7,8.8-10c2.4-2.3,4.9-5.3,9.3-14c4.5-9,9.1-19,12.8-28.3c3.7-9.3,6.3-18,7.4-24.1
		C895.2,616.5,899.7,601.7,905.9,581.2z"/>
	<path fill="#AC1D1D" d="M627,191.5c-23.1-7.5-46.8-12.4-70.7-15c-23.8-2.6-48-3-71.9-1.6c-9.6,0.6-14.1,0.4-17.9,0
		c-3.8-0.4-6.8-1-13.3-0.4c-15.7,3.3-28.1,5.4-43.4,10.7c-8.9,3.1-15.3,5.3-19.1,6.2c-3.9,0.9-5.3,0.4-4.1-1.5
		c2.5-3.9,15.9-10.7,31.8-15.4c20.6-6.2,36.3-9.8,49-14.6c6.8-2.6,15.8-4.1,25.9-4.8c10.1-0.7,21.1-0.6,32.1-0.3
		c-4.4-2.1-4.6-3.7,0.3-5c4.9-1.3,15-2.2,30.9-1.4c8.8,0.5,11.1,0.1,10.8-0.8c-0.3-1-3.2-2.3-4.8-3.4c-3.4-2.2-13.7-4.6-16.9-6.6
		c-2.3-1.5,0.2-2.7,5.7-3.1c5.5-0.4,14,0,23.3,1.9c18.2,3.6,36.7,6.9,52.4,12.9c16.9,5.1,31.4,13.9,48.6,19.5
		c-1.4,2.8-1.7,6.1,0.6,10.7c2.4,4.6,7.5,10.5,16.7,19.2c0.9,0.8,2.5,2.3,1.7,2c-6.6-2.3-9.8-2.4-11.1-1.4c-1.3,1-0.7,3.1,0.2,5.3
		c1.7,4.5,4.4,9.6-3.8,8.2c-2.9-0.5-5.1-0.4-9.2-1.9c-4.1-1.5-9.9-4.7-20.5-11.1C641.5,194.5,633.1,192.2,627,191.5z"/>
	<path fill="#C72122" d="M906,504.7c-4,19.5-23.5,53.5-27,55.9c-1.1,0.7-6.8,14.6-9.1,23.8c-2.5,9.5-10.2,24.4-10.7,29.2
		c-0.7,6.7-3.2,17-14,29c-13.3,14.8-29.2,34.3-32,36.9c-5.7,5.3-2.8,7.1-14,20.7c-1.9-1.3-11.3,17-22,26
		c-10.7,9-23.6,23.4-29.3,25.3c-4.5,1.5-17.3,19.4-36.1,30.5c-2.9-0.3-7.5,1.1-20,6.7c-19.4,8.5-38,13.6-49.8,14.7
		c-9.4,0.9-16.3,1.8-25.4,4c-9.2,2.1-20.6,5.8-39.5,10.1c-26.8,6.1-54.5,6.7-80.8,3.2c-8.8-1.2-17-2.8-27-4.3
		c-23.4-3.7-42.2-26.2-61.9-34.5c-19.7-8.4-97.5-25.5-57.8-14.3c19.9,5.6-27.8-22.3-32.8-29.6c-1.7-1.8-3.8-3.8-6.3-6.1
		c-24.7-19.7-42.5-41.8-55.2-64.6c-10.1-18-19.6-37.4-30.4-53.3c-0.6,0.6,0.3,3.5,1.6,7.1c1.3,3.5,2.9,7.5,3.9,10.3
		c1.3,3.8,1.8,5.9,1.2,5.6c-0.6-0.3-2.5-2.9-5.6-8.7c-4.5-7.4-6.3-9.4-7.3-9.1c-1,0.3-0.9,3-1.2,4.8c-5.3-5.3-12-14.8-18.9-28.8
		c-0.2,1.3,0.5,6.1,1.9,8.8c5.1,10.1,6.9,22.3,11,32.9c4.7,12.2,10.5,23.9,17.2,35.2c4,6.7,9.7,12.2,13.7,18.9
		c5.6,9.4,10.5,18.7,17.6,27c10.6,12.4,20.7,25.4,29.4,39.3c5.3,8.4,29.5,22,20.3,18.2c-42-17.2,20.2,16.1,30.9,23.7
		c8,5.8,19.3,12.5,29.3,13.4c5.3,0.5,10.3-1.6,15.6-1.5c5.9,0.1,10.4,3.1,14.8,6.7c-5.3,0.5-13.3-0.9-7.4,5.9
		c6.4,7.4,17.5,11,26.6,13.8c13.5,4.2,23.3,7,32,9.6c8.7,2.6,16.2,4.9,25.3,7.1c-8.9-3.2-7.8-4.5-1.6-4.8c6.2-0.3,17.6,0.1,29.5-0.1
		c15.1-0.2,26.2-1.5,29.2-3.7c3.1-2.2,16.2-2.9,28.9-3.1c20.7-0.2,39.8-5.1,56.6-11.1c29.9-10.7,60.4-23.9,91-41.6
		c6.2-3.1,12.2-6,18.6-9.8c11.6-6.8,22.7-14.4,29-18c6.3-3.7,8.2-3,0.6,6.4c-2.4,2.8,5.3-1,14.4-7.1c9.1-6.1,19.5-14.6,23.5-19.2
		c15.5-17.8,24.8-29.3,31.9-36.7c7-7.5,11.5-11.1,15.5-14.5c11.1-9.6,26.7-32.9,39.7-62.1c3.9-8.5,7.3-18.3,8.5-25.3
		c0.6-3.7-0.1-4.9,0.2-8.1c0.3-3.2,1.6-8.4,5.4-20.2c3.1-9.8,5.4-17.6,7.2-21.7c1.8-4.1,3-4.4,3.5,0.9c0.5,5.7,1.4,9.7,1.9,14.6
		c0,15.3,5.5,7.2,9.6,5.1c1.7-0.8,4.8-9.3,7.4-25.6C921.7,538.9,912.1,513.4,906,504.7z"/>
	<path fill="#741314" d="M664.9,155.7c-19-10.2-41.4-17.8-64.8-22.8c-23.4-5.1-47.8-7.6-71.4-9c-15-0.8-21.9-1.5-27.5-2.4
		c-5.6-0.8-10-1.8-20.3-1.6c-7.2,0.2-11.9,0.5-16.1,1.1c-4.2,0.6-8,1.5-13.5,3.2c-20.3,6.4-43.9,13.4-69.5,23.3
		c-5.9,2.3-11.8,4.5-15.8,7.4c-3,2.2,1.4,1.7-9.4,6.8c-8.7,4.2-11.9,4.6-9.6,2.1c5.5-5.9-5.8-0.2-20.6,8.9
		c-9.7,6-21.1,14.4-29.7,20.8c-8.7,6.4-14.9,10.6-15.2,7.3c-0.1-1-5.2,3.1-11.3,8.3c-6.1,5.2-12.9,11.6-17.1,14.4
		c-5,3.3-13.4,11.1-21.3,19.3c-8,8.2-15.5,16.7-20.2,20.7c-1.7,1.4-7.4,9.2-10.7,15.5c-2.4,4.3-2.9,6.9-3.9,9.7
		c-1,2.9-2.4,6.1-6.4,12.1c-5.8,8.8-12,20-17.3,30c-5.2,10-9.6,18.7-12.5,22.1c3.2-11.3,7.2-20.5,11.6-28.9c4.3-8.4,9-16,13.9-24.3
		c13.6-28.5,29.4-49.2,45.3-65.9c16.1-16.7,32.4-29.6,50.1-42.1c10-7,19.1-12.4,29-17.9c9.9-5.5,20.6-11.2,34.1-18
		c27.9-13.8,48-21.1,57.4-29.2c13.4-2,31.5-6.2,50.8-9.2c19.2-3.1,39.5-4.8,56.4-4.1c14.4,0.6,26.1,1.3,22.7,3.6
		c-2.1,1.5,7.7,4.8,14,4.8c13.2,0,25.4,2.6,37,5.3c11.6,2.8,22.7,5.7,34.5,6.7c9,0.8,17.1,3.8,24.9,7.2c7.8,3.4,15.4,7.2,23.7,10
		C660.9,150.2,664.8,153.8,664.9,155.7z"/>
	<path fill="#771414" d="M876.3,186.2c-33.8-40.7-72.7-70.8-109.4-90.4c-8.7-6.4-20.4-13.6-26.3-17.8c-23-16.5-54-31.5-89-41.9
		c-35-10.4-73.8-16.1-111.7-17c0.6-0.3,0.1-0.7,2.1-0.8c8.3-0.4,22.1-0.1,38.5,1.6c16.4,1.7,35.4,4.9,54,9.5
		c18.6,4.6,36.7,10.6,51.7,16.7c15,6,26.8,12,33.4,15.9c10.9,6.5,20.4,13.3,31.4,20.4c11,7.1,23.6,14.3,41,22.7
		c3,1.5,9.5,5.8,17.6,12c8,6.2,17.6,14.3,26.7,23.1c9.2,8.7,18,18.2,25,26.5C868.3,174.9,873.7,182.1,876.3,186.2z"/>
	<path fill="#A21B1C" d="M910.1,569c3.9-8.2,6.4-10.2,8.9-11.7c2.5-1.5,4.9-2.4,8.1-8.9c4.9-9.2,5.8,6,4.9,23.7
		c-1.8,2.4-3.1,2.6-4.9,5.4c-1.9,2.8-4.2,8.4-8.7,21.3c-3.6,10.1-4.6,7.5-5,4.8c-0.7-5-2.8-5.5-4.4-8c-1.5-2.5-2.3-7-1.2-19.8
		C908.7,573.6,909.4,571.3,910.1,569z"/>
	<path fill="#771414" d="M539.9,19.1c3.7,1.4,2,2.2-3.7,2.5c-5.7,0.3-15.5,0.3-27.9,0.5c-23.9,0.3-46.1,2.8-66.8,7.7l-9.5,1.9
		l5.1-1.7c-1.4-1.1,6.3-3.7,12.5-5.8c6.2-2.1,10.8-4,2.9-4.3c-2.5-0.1,5.6-1.9,13.1-2.8c7.7-1,12.8-1,14.8-0.5
		c3,0.8,4.4,1.7,7.6,2.5c4.9,1.2,11.2,1.9,19.6,1.9C515.9,20.9,526.4,20.2,539.9,19.1z"/>
	<path fill="#771414" d="M928.1,278.4c-2.1-6.7-4.9-13.4-7.8-19.7c-2.1-4.5-4.4-8.9-6.1-13.6c-1.3-3.7-2.4-7.4-4.1-10.9
		c-3.8-8.1-9-15.6-14.1-22.8c-3.1-4.4-6.4-8.7-9.7-12.9c-3.1-3.9-6.3-8.9-10.1-12.1c4.5,9.1,10.5,17.5,15.8,26.1
		c7,11.4,15.5,22.6,18.8,35.8c3.3,13,8.7,25.4,11,38.6c0.3,1.8,0.4,3.4,0.3,5.1c-0.1,1.6-0.7,3.7,0.2,5.2c1.2,1.9,6.4,6.3,8.9,4.9
		c2.2-1.3,1.5-6.2,1-8.2c-0.9-4-2.1-8.1-3.2-12C928.8,280.8,928.4,279.6,928.1,278.4z"/>
	<path fill="#681112" d="M186.4,299.5c-9.8,17-18.3,34.8-25.4,53.2c-4.6,14.7-8.8,30.9-11,44.5c-1.6,9.7-3,21.4-2.8,25.9
		c0.1,2.3,0.5,2.7,1.4,0.3c0.9-2.4,2.4-7.8,5-17c2.4-8.1,4.8-13.6,7.2-18.4c2.4-4.8,4.9-8.9,7.6-13.9l-0.6,3
		c-7.9,24.6-12.8,51.1-15.4,76.3c-2.7,25.2-3.1,49-3.7,68.8c-0.2,7.2,0.5,17,2,27.5c1.5,10.5,3.8,21.7,6.3,31.9
		c2,8.5,6.4,19.1,10.4,26.3c4,7.2,7.3,11.1,6.6,6.8c-1-6.3-1-10.9-2.5-18.8c-0.7-3.9-1.8-8.7-3.4-14.9l-6.1-24.1
		c-2.1-8.5-2.4-18-1.7-24c0.7-6,2.3-8.6,3.9-3.7c1.9,5.5,3.3,6.9,4.1,5.1c0.8-1.8,1.1-6.9,1.2-14.7c0-4.5-1.1-17.2,0.7-11.7
		c1.6,4.8,2.3,14,3,22.7c0.6,10.1,2.6,23.1,2.8,28.7c0.3,10.3,2.6,22.9,8.5,40.2c3.7,11,6.3,18.8,5.2,20c-0.8,0.9-1,2.5,0.2,6.3
		c1.2,3.8,3.7,9.6,8.8,18.6c2.6,4.5,4.6,9.5,4.5,10.6c-0.7,5.3,2.3,16.5,7.4,29.2c5,12.7,12,26.5,17.5,37.6c2.8,5.7,0.2,5.1-6.3-1
		c-5-4.6-12.1-12.5-10.8-8.9c2.3,6.4,7,15.4,10.5,22.5c3.5,7.1,5.6,12.4,2,11.9c-0.7-0.1,2.3,3.6,6.5,8.1c4.2,4.5,9.7,9.7,13.6,12.9
		c15.2,15.8,32.5,30.3,50.8,43.1c18.4,12.9,37.8,24.1,57.2,33.9c12.4,6.2,14.2,7.5,12.4,7.8c-1.8,0.2-6.9-1-7.7-0.6
		c-1.6,0.9-2.9,1.1-0.4,2.8c2.5,1.7,8.8,4.9,22.7,10.9c-1.5-1.7-5.1-4.3-4.2-5.1c0.9-0.8,6.3,0.6,23.1,5.6c-3.7,0.2-4.6,1-1.1,3
		c3.5,1.9,11.2,4.9,25,8.4c12.8,3.2,20.9,5.7,14.2,5.9c-6.3,0.2,4.4,3.4,14.2,5.8c15.8,3.7,15.9,1.9,20.5,1.7
		c6.1-0.3,12.2,0.3,20.5,1.9c12.3,2.3,22.5,2.9,32.3,2.7c9.9-0.3,19.4-1.5,30.7-3.5c11.8-2.1,26.8-4.7,42-8.4
		c15.2-3.6,30.7-8.3,43.7-13.4c11.8-4.7,14.8-7.3,16.2-9c1.3-1.9,1-3.1,5.6-6.1c2.3-1.5-1.4-0.4-7.1,1.5c-5.7,1.9-13.3,4.4-18.5,5.9
		c-14.7,4.6-32.8,8-29.5,5.3c3.1-2.5,18-4.4,27.1-6.9c11.6-3.1,21.3-7,31.6-11.2c17.1-7,30.1-12.9,31-10.9
		c0.9,2.2,13.3-2.5,28.2-9.9c13.6-6.7,27.1-13.3,36.7-17.4c9.6-4.1,15.4-5.6,13.2-1.8c-0.7,1.3-6.9,6.7-11.7,10.5
		c-8.3,6.7-13.8,11.1-16.4,13.8c-2.6,2.7-2.3,3.7,0.7,3.3c2.1-0.3,2,0.9,0.5,2.8c-2.8,3.8-23.2,17.8-3.3,7.6
		c8.2-4.3,17.8-10.2,27-16.9c9.3-6.7,18.4-14.3,26-21.8c6.2-6.1,13.5-13.1,19.9-20c1.3,0.3,0.7,2.3-2.3,6.2
		c-3.1,3.9-8.6,9.8-17.5,17.6c-14.8,12.9-26.6,22.5-37.3,31.1c-10.7,8.5-20.4,15.9-31.7,23.4c-3.6,2.4-9.2,5.9-10.5,7.2
		c-1.4,1.2,1.7,0.5,15.1-6.7c12.3-6.7,18.8-10.2,23-12c4.2-1.8,6.1-2,8.7-2.8c6.5-2.1-10.7,9-20.3,14.7
		c-9.5,5.9-20.3,12.3-30.6,17.3c-10.3,5.1-20,8.8-26.8,9.9c-15.3,2.5-29.3,8.6-52.4,15.9c-20.6,6.4-34.7,9-43.1,9.8
		c-8.5,0.8-11.5-0.2-10.7-2.5c0.2-0.4-0.2-1.1-2.3-0.9c-18,1.5-27.2,1.3-30.6,1.2c-3.4-0.2-1.1-0.6,3.7-1.1
		c4.9-0.5,12.3-1.3,19.1-2.2c6.8-0.9,13.1-2,15.7-2.6c10.4-2.6,23.4-5.4,36.5-8.9c13.1-3.5,26.4-7.6,37.3-12.1
		c8.1-3.2,19.4-8.3,15-8c-3.4,0.3-14.6,4.5-23.3,7.1c-7.7,2.3-16.2,4.9-24,6.7c-7.8,1.8-14.7,3-19.1,2.8c-4.6-0.2-1.2-1.5,4.2-3.2
		c5.3-1.7,12.4-3.9,15.2-5.3c10-5.1,4.4-6.5-2.9-7.1c-4.2-0.3-17.6,3.9-22.3,5.7c-9,3.6-21.6,7-36.4,9.6
		c-14.8,2.6-31.8,4.4-49.6,5.1c-22.1,0.9-44.2-0.6-65.9-4c-21.7-3.4-42.9-8.7-63.6-15.2c-8.9-2.8-13.9-4.4-16.8-5.1
		c-2.9-0.7-3.6-0.4-3.9,0c-0.6,0.8,0.4,2.5-10.5-1.3c-2.7-2.9-13.2-8.7-23.2-15c-10.1-6.3-19.7-13.2-21.7-16.5
		c-1.9-3-14.4-9.2-22.1-14c-30-18.4-55.8-41.4-74.4-65c-7.7-9.8-13.4-16.1-21.1-24.6c-10.1-11.2-21.6-23.2-30.2-31.4
		c-8.5-8.2-14.4-12.3-13.3-6.8c-8.9-15.6-14.4-28.5-18.5-39.8c-4.1-11.3-6.9-21.1-9.5-31c-3.5-13.6,4.2,7.1,9,16.8
		c4.4,9.3,9.8,20.4,15.1,29.6c5.3,9.2,10.5,16.5,13.5,18.6c-8.2-15.3-11.9-20.1-16.4-27.9c-6.9-12.4-11-23.3-15.6-36
		c-5.3-15.2-4.1-16.6-2.6-15.6c1.6,1,3.7,4.3,1.3-1.5c-3.9-9.5-5.9-15.8-7.1-19.9c-1.1-4-1.3-5.9-1.2-6.6c0.4-1.5,2.3,1.1,2-1.9
		c-0.2-2.8,0.3-3.5-0.1-7c-0.2-1.8-2-9.5-4-20.1c-2-10.7-4.2-24.3-5.6-38.1c-1.4-13.8-2.1-27.7-2.3-38.6c-0.2-10.9,0-18.9-0.2-20.9
		c-0.6-10.7-2-6.3-3.3-0.6c-2.1,9.3-3.3,2.7-4.8-4.5c-1.9-8.9-1.4-20.3,0.4-32.4c1.7-12,4.7-24.6,7.3-36.3c1.2,2.6,4.8-7.3,8.7-17.2
		c3.8-10,8-19.9,8.2-18.5c0.8,6.8,4.9,1.8,9.8-5.3c4.9-7.1,10.9-16.3,14.6-19c2.5-1.8,1.7,3.1,0,10.2c-1.7,7.1-4.1,16.5-5.2,23.6
		c-5.6,14.1-10.2,31.6-13.4,49.4c-3.3,17.7-5.2,35.6-7.1,50.5c-0.3,2.1-0.1,10.4,0.3,14.9c0.4,6,1.7,13.4,1.6,15.9
		c-0.3,20.1,2.4,41,6.8,61.5c4.3,20.5,10.2,40.6,15.5,59.8c4.7,9,5,5.2,5.1,1.5c0.1-2.3,0.4-3.9,1.5-2.9c1.1,0.9,3,4.4,6.7,11.9
		c3.3,6.8,5.7,10.3,6.8,10.7c1.1,0.4,0.8-2.2-0.9-7.9c-3.3-11.6-7.8-27.3-14-45.8c-3.2-9.4-6.1-20.7-8.2-28.6
		c-3.1-11.4-5.3-21.3-6.4-30.8c-1.1-9.4-1-18.3,0.6-27.4c0.8-4.4,0.7-10.2,0.4-15.8c-0.3-5.6-1-11-1.6-14.5c-1-5.9-2.1-9.8-2.2-17.4
		c0-7.6,0.7-19,5.5-39.4c2.1-8.7,4.7-18.8,8-29.3c3.3-10.5,7.1-21.3,11.4-31.7C168.2,329.8,178.6,311,186.4,299.5z"/>
	<path fill="#4E0D0D" d="M449.9,38.2c-12,2.7-22,5.7-30.8,8.9c-10.2,3.7-21.4,7.4-31.8,10.6c-10.4,3.1-19.9,5.8-26.8,6.8
		c-8.9,1.3-22.7,5.9-40.8,14.6c-12.6,5.9-28.9,14.4-35.5,20.3c-4.3,3.8-1.6,2.7,3.3,0.1c4.9-2.6,12.1-6.5,16.9-8.7
		c8-3.8,23-10.2,12.4-4c-13.7,8.3-23.1,15.3-30,21.1c-6.8,5.8-11.2,10.5-14.6,14.6c-6.7,8.3-9.7,14.3-19.3,25.4l-7.9,9.1
		c-8.3,6.6-13.4,10.5-16,11.9c-2.7,1.5-3,0.6-1.5-1.8c2.9-4.6,3.4-7.2,5.9-11.3c2.5-4.1,7-10,18.7-20.4c2.4-3.1,8.4-9.1-1.4-2.6
		c-10,6.7-16.5,13.6-20.7,18.5c-17.6,20.5-32.9,41.8-47.2,66.6c-8.3,10.6-14.7,16.9-15.5,15.9c-2-2.7-12.6,7.8-23.4,21
		c-5.4,6.6-10.8,13.8-15.5,20.1c-4.7,6.3-8.7,11.6-11.6,14.2c-1.5,1.4-3.5,4.2-6.1,9.3c-2.6,5.1-5.8,12.6-9.4,23.5
		c-5.7,17.6-7.9,26.9-10.6,34.9c-2.5,8-5.3,14.8-9.9,28c-1.8,5.1-2.8,11.3-3.7,17.2c-1.4,9.4-2.4,21.5-0.8,17.1
		c3.8-10.3,3.8-3.1,3.3,8.7c-0.6,11.8-1.2,28.4-0.6,37.1c0.7,11.3,1,28.4,2.6,45.8c1.6,17.4,4.5,34.9,8.1,47
		c1.2,4.3,2.9,15.2,3.4,20.4c0.6,7.2-0.4,7.9-3,0.3c-4.3-13-7.4-23.3-9.7-27.7c-2.2-4.4-3.9-3-4.3,7.3c-0.2,7.2-4.7-11.1-7-24
		c-1.7-8.9-3.3-19.7-3.8-11.4c-0.4,7.3,1.5,17.6,3.1,26.3c1.1,6.1,2.7,13,3.6,18.4c4.4,27.1,10.8,48.8,15.8,61.2
		c5.1,12.5,8.3,15.8,8.5,6.6c0.1-2,2.6,3.2,6.2,11c3.6,7.8,8.5,18.2,12.9,27.1c4.3,9.1,13,26.6,5.9,15.9c-6.6-10.3-7.5-9.5-8-7.6
		c-0.5,1.9-0.5,4.8-4.9-1.8c3.5,8.4,9.5,17.5,14.5,25.3c5,7.8,9,14.4,8.2,18.5c-0.3,1.2,7.4,12.5,12,19
		c7.9,11.5,13.8,19.8,12.1,19.9c-1.3,0-4.2-1.8-9-7.3c-8-9.2-11.3-16.5-15-23.7c-3.9-7.6-7.7-15.2-14.7-27.6c-6.4-8.7,0.2,5.8,2,11
		c1.7,5.2,2.2,7.8,0.6,7c-1.5-0.9-5.2-5.2-11.1-14.1c-11.8-18.2-20.1-30.1-29-46.4c-4.6-8.4-8.9-16.3-13.2-27.3
		c-4.3-11-8.7-25-12.2-45.9c-1-6-2.7-14.9-4.2-21.7c-1.5-6.8-2.8-11.5-3.4-9c-0.6,2.4-0.9,6.3-1.7,7.1c-0.7,0.9-2-1.3-4-10.9
		c-3-14.9-5.5-28.1-7.3-42.3c-1.8-14.2-3-29.3-2.7-48c0.4-21.1,2.6-40.3,2.2-51.5c-0.5-9.4,3.7-30.6,8.4-47.4
		c8.9-32.7,18.8-61,28.5-86.9c3.5-9.5,8.1-20.4,13.5-31c5.4-10.6,11.5-20.9,17.9-29.1c7-9.2,16.1-20.4,23-27.6
		c6.9-7.2,11.5-10.7,9.2-5c-3.4,8.7,2.6,4.9-2.1,15.3c-1.8,4.1-0.2,2.9,5.7-4.7c9.2-11.8,16.3-19.5,21.6-24.7
		c5.3-5.2,8.7-7.9,11-9.1c4.6-2.5,4.4,0.5,6.2,1.1c2,0.7,10.7-6.4,15.7-8.9c2.1-1.1,6.9-5,10.3-7.3c3.8-2.6,20.4-15.2,38.4-26.6
		c9-5.7,18.3-11.2,26.3-15.6c7.9-4.4,14.5-7.8,17.8-9.5c9.6-5.1,20-11.5,28.3-15.5c20.2-9.8,40.5-17.5,61.7-24.1
		c21.3-6.7,43.5-12.3,68.3-17.3C443,37.3,447.2,37.9,449.9,38.2z"/>
	<path fill="#4E0D0D" d="M736,78.8C695,60.1,650,46.2,602,38.8c-48.1-7.3-99.1-8.3-152.2-0.6c10.8-3.1,21.4-5.8,34.4-8
		c13-2.1,28.5-3.7,48.9-3.5c11.1,0.2,17.4,0,19.1-0.9c3.3-1.8,12.3-2,23.7-0.8c11.5,1.1,25.4,3.5,38.8,6.5c1,1.1-7.1-0.2-13.7-1
		c-6.6-0.8-11.6-1.1-4,1.1c8.9,2.5,24,5.3,35.9,7.8c18.3,3.7,36,9.3,53.1,16.1C703.2,62.2,719.7,70.2,736,78.8z"/>
	<path fill="#8F1818" d="M417.7,101.3c10-2,23-3.3,22.6-6.1c-0.4-2.5-4.2-4.3-7-6.6c9.3-1.9,19.7-3.8,28.4-4.9
		c8.8-1.1,16-1.3,19-0.1c1.5,0.6,3.3,1.3,12.1-0.5c16.6-3.5,36-3.3,51.9-0.6c16.8,3,3,3.7-7,5c-3.1,0.4-6.2,0.8-9.3,1.3
		c-25.2-2-50.9,0-74.9,6C435.2,99.3,423.3,102.4,417.7,101.3z"/>
	<path fill="#A01B1B" d="M627,149.1c-9-2.5-16.9-3.6-25.7-5.1c-8.9-1.4-18.6-3.3-32-6.5c-6.4-1.5-7.3,1.9-2,3.7
		c7.2,2.4,10.8,4.6,12.3,6.4c1.5,1.8,1,3.3-0.2,4.8c-0.8,0.9-1.9,2.4-11.4,0.8c-12.7-2.1-20.4-2.5-24.9-2.5c-4.4,0-5.6,0.5-5.1,1.1
		c0.9,1.2,7.8,3.3,6.9,4.2c-1.2,1.3,7.5,3.4-3.1,4.6c-3.7-1.5-10.2-2.4-17.5-2.8c-7.3-0.4-15.5-0.3-22.5-0.4c-15,0.1-21.8,1.6-26,3
		c-4.3,1.4-6.1,3-11,4.5c-14.5,4.5-28.1,5.7-41.7,10.4c-8.7,2.9-22.3,6.8-23.6,9.8c-1,2.2,9.7-2,18.9-5.2c11.5-4,17.2-4.6,21.5-4.8
		c4.3-0.1,7.2,0.3,13.2-0.3c-7.7,2-16.1,4.2-24,6.7c-7.9,2.6-15.3,5.5-20.9,8.9c-6.2,3.7-13.6,6.3-18,7.2
		c-12.3,2.6-23.7,5.4-35.3,9.1c9.1-5.6,6.2-5.5,8.1-7c-2.1,1.6,1.2,1.3-8.1,7c-11.6,3.7-24.6,11.5-36.6,25.2c-5.6,2-0.3-3.8,2.7-7.6
		c5.9-7.3-1.2-4.4-13.5,4.6c-11.8,8.8-18.3,17-22.7,23.6c-3.3,5-5.3,9.1-9.8,15.6c-10,14.3-19.7,23.1-26.9,33.6
		c-10.2,15-16.1,24.9-20.2,30.4c-4,5.4-6.2,6.4-7.3,4.3c-1.9,3.8-2.5,4.9-2.9,5.9c-2.6,5.9-3.4,10.3-4.5,14.9
		c-1.1,4.7-2.7,9.5-6.4,16.6c-7.1,13.8-1.4-7.3,3.2-20c2.7-7.9,4.7-13.5,5.1-16c0.4-2.5-0.9-2-4.3,2.5c-3.5,4.7-4.1,2.4-5.9,2.5
		c-0.9,0.1-2,0.8-4,3.3c-1.9,2.6-4.6,7-8.2,14.7c7.5-19.7,15.2-33.4,22.1-44.3c7-10.9,13.5-19,20-26.9
		c14.9-17.6,25.1-27.6,34.6-38.1l15-16.4c5.5-6,11.7-12.7,19.8-20.7c5.5-5.4,12.5-11.2,19.8-16.9c7.3-5.6,15-11,21.6-15.8
		c8.3-6,14.8-7.4,17.9-7.7c3-0.3,3.1,0.9,0.2,4c-2.9,3-8.8,7.9-17.3,15.1c2.8-1.5,6.3-3.1,7.8-4.1c8.4-5.5,18.9-10,28.4-13.7
		c9.5-3.7,18.1-6.7,22.9-10.1c11.6-8.1,11.1-12.4,15.1-18.1c0.9-1.3-11.3,1.4-2.2-2.3c9.5-3.9,20.4-5.4,26.8-6.1
		c10.8-1.2,20.1-1.9,29-3.1c8.8-1.2,17.2-2.8,26.2-5.3c11-3.1,29.3-4.9,53.1,0c12.5,2.5,33.8,6.6,55.2,11.6
		C622.6,145.1,625,147.2,627,149.1z"/>
	<path fill="#D92425" d="M901.1,505.2c-0.9,1.7-7.6,6.4-9.8,7.8c-2.3,1.4-4.3,4.1-7.6,18.3c-2.4,10.3-4.6,16-6.4,19.4
		c-1.8,3.3-3.2,4.3-4.7,4.9c-2.6-2.3-4.1-2.7-6.6,4.9c-1.3,3.8-2.8,9.5-5.3,17.9c-2.5,8.4-5.8,19.5-11.3,33.6
		c-7.9,20.4-17.1,35.5-23.3,42.3c-3,3.3-4.1,3.3-3.6,0.6c0.5-2.7,2.5-8,5.5-15.6c2.2-5.7,4.9-14,5.2-17.4c0.2-1.7-0.3-2.1-1.6-0.3
		c-1.3,1.8-3.6,5.7-7.4,12.7c-6.1,10.9-9.9,15.8-12.1,18c-2.3,2.2-3.1,1.6-4.1,1c-0.8-0.5,2.7-9-3-0.6c-6.1,8.7-9,15.2-11.8,20.7
		c-3.9,7.6-8.4,14.4-16.1,21.6c-3.9,3.6-9.1,8.7-12.5,13.7c-3.8,5.6,5.7-4,6.3-3.7c1.2,0.7,9.4-7.4,15.1-13c2.9-2.8,5.1-4.8,5.9-4.5
		c0.7,0.3-0.1,2.9-3.7,9.4c-7.3,12.7-16.7,23-26.3,33c-10.7,11-13.7,10.5-17.9,12.3c-3.8,1.5-10.3,5.4-15.8,8.1
		c4.8-4.3,10.7-8.7,15.7-12.8c5-4.1,9.1-7.7,10.3-9.9c2.4-4.3-3.7-3.4-6.5-0.9c-10.8,9.6-17.3,13.3-22.3,15.8
		c-5,2.5-8.6,3.6-14.6,6.9c-7,3.8-17.8,10-30,16.5c-12.2,6.5-25.8,13.4-38.1,19.6l0.1,0c0,0,0,0,0,0l0,0c-3.3-0.4-5.6-1.1-10.2-0.9
		c-4.6,0.1-11.5,1.4-24,4c-6.6,1.4-9.1,1.3-9.1,0.6c0-0.7,2.3-2.1,5.3-3.6c7.9-4.2,10.2-6.9,2.8-7.1c-4.5,1.6-8.3,2.6-10,3.3
		c-18.5,7.9-38.7,14.2-63.4,16.8c-12.4,1.3-25.9,1.6-40.7,0.3c-14.8-1.3-30.8-4.2-47.9-9.5c-8.3-2.5-21.5-5.6-32.6-10.8
		c-12.3-5.6-26.3-11.3-31.8-12c-9.6-1-20.5-8.2-31.8-17.2c-8-6.7-18.5-15-28.1-23.8c-9.7-8.7-18.5-18-24.2-25.4
		c-7.6-9.9-15.5-20.4-23-31.5c-7.5-11.1-14.7-22.9-20.8-35.1c-2.8-5.5-5.6-12.4-8.5-16.5c-3.7-5.3-0.7,3.1,0.3,6.8
		c0.8,3.7,1,5.7-0.2,4.5c-1.2-1.2-3.9-5.5-8.2-14.5c-8.5-18.5-13.3-31-16.6-36.1c-3.1-5.2-4.7-2.9-3.9,7.6c0.2,2.1,1.9,8.5,0,4.5
		c-3.2-6.5-8-23.4-6.8-12.6c1,8.7,5.3,14.2,7.7,29.3c1.5,9.7,7.8,14.6,13.7,24.8c9.6,16.8,32.1,43.8,44.6,58c0,0.2,0,0.3,0,0.5
		c0.1,3.4,3.9,9.9,10.4,17.9c6.4,8,15.5,17.3,25.8,26.3l0,0c-3.9,0.3,6.3,11.4,18.9,21.3c19.1,14.9,82.6,41.8,58.9,38.5
		c-35.2-4.9,45.5,19.7,75.5,24.1c5.2,0.8,9.5,1.7,10.4,2.5c1.6,1.6,6.4,2.7,12.3,3.3c5.9,0.7,25.4-0.4,19.3,1.1
		c-62.9,15.5,39.5-0.4,58.2-1.6c16.4-1.1,28.7-3.7,27.5-6.5c-0.4-1,6.7-2.9,14.6-5c8.5-2.2,13.4-3.3,12.8-1.9
		c-0.9,2,3.8,1.8,10.7,0.6c6.9-1.2,16-3.7,23.9-6c14.9-4.3,30-10,44.7-16.6c1.7-0.3,3.2-0.6,4.7-0.7c3.8-1.1,11.8-5.5,16-7.3
		c13.5-5.6,31.9-26.6,47.3-37.1c15.4-10.5,29.3-27.5,42-38.7c7.1-6.2,12.4-27.2,20-36c7.6-8.8,23.8-26.5,26-25.7
		c1.8,0.7,7.2-16.2,14.7-28.3c6.4-10.3,33.3-83.3,37.9-106.6C908.6,503.6,901.3,506.1,901.1,505.2z"/>
	<path fill="#E04C4D" d="M280.9,693.4c5.4,7.2,6.5,10.5,9.4,15.4c1.5,2.4,3.4,5.2,6.8,8.8c3.4,3.6,8.1,8.2,15.3,13.9
		c48,50.9-2.7,13.6-4.5,13.4c13.1,38.7-49.9-61.8-61.9-89.2c-4.7-10.6-12.5-24-19.1-37.6c-2.9-8.2-5.9-16.5-10.2-33.7
		c7.8,23.4,17.8,42.7,28.5,60.2C256.1,662,267.8,677.6,280.9,693.4z"/>
	<path fill="#5A0F0F" d="M730.3,838.6c-5.9,3-10.7,5.3-16.1,7.8c-5.4,2.4-11.4,5.1-19.8,8.4c4.4-0.7,5.8-0.9,7.5-1.3
		c7.6-1.7,14-3.1,17.4-2.9c3.4,0.2,3.9,2.1-0.6,6.6c-1.3,1.3-2,2.4-4.4,4.2c-2.4,1.7-6.6,4.2-14.8,7.8c-11.8,5.1-14.5,5.1-15,4
		c-0.9-1.5-9.4,0.4-18,2c-8.6,1.6-17.2,2.8-17.9,1.1c-1-2.6,19.8-12.3,44.5-24.3c10.8-5.2,18.2-8.9,23.8-11
		C722.4,838.8,726.4,838.1,730.3,838.6z"/>
	<path fill="#751314" d="M685.2,882.3c7.7-3.7,14.2-7.6,21.5-11.7c7.3-4.1,15.3-8.4,26.2-13.4c12.3-5.8-0.4,3.5-10.8,9.4
		c-7.5,4.3-13.7,8.5-21.1,12.5c-7.4,4-15.9,7.9-28,11.1c-8.7,2.3-6.8,1.1-2.2-1.1C675.6,887.1,682.9,883.8,685.2,882.3z"/>
	<path fill="#5A0F0F" d="M286.5,824.7c-5.2-4.9-4.3-5.2,2.1-1.2c12,7.4,24.8,15.1,35,22.1c4.2,2.8,1.9,2.4-3,0.2
		C308,839.9,296.1,832,286.5,824.7z"/>
	<path fill="#5A0F0F" d="M62.1,514.8c-3.4-4.8-5.9-6.1-8.5-12.9c-2-5.4-3.5-23.8-1.7-44.1c0.8-8.7,1.7-12.4,2.4-13.3
		c0.7-0.8,1.2,1.3,1.7,4.1c0.9,5.4,1.7,12.3,2.4,22.6C59.3,481.6,60.1,495.4,62.1,514.8z"/>
	<path fill="#5A0F0F" d="M80.1,638.7c-2.4-5.1-5.1-11.8-7.2-17.6c-2.1-5.9-3.5-10.9-3.6-12.8c-0.3-9.2,3.3-4.3,9,8.3
		c3.5,7.6,7.3,20.3,9.3,28.3C92.5,663.6,83.2,643.6,80.1,638.7z"/>
	<path fill="#A21B1C" d="M515.2,139.1c8.6-0.2,17.7-0.2,25.5,0.5c13.8,1.2,28.5,4.9,22.3,5.4c-3.5,0.3-10,0.1-17.5,0
		c-7.5-0.1-16-0.1-23.3,0.2c-6.8,0.3-8.9-0.7-4.5-1.5C528,142,522.2,140.5,515.2,139.1L515.2,139.1z"/>
	<path fill="#8A1718" d="M352.4,201.4c1.2-2.9,22.6-10.3,23.4-13c0.5-1.5,1.4-3.4,11.1-8.5c8.9-4.5,14.1-5.6,12.9-3.9
		c-1.3,2,17.3-3.2,13.8-0.2c-3.5,3-29.3,14-41.4,21.3L352.4,201.4z"/>
	<path fill="#8A1718" d="M463.2,148.1c-3.5,1-6.7,2-10.9,3.2c-4.2,1.2-9.4,2.4-16.8,4c12.5-4.5,20.8-8.2,31.8-11.4
		c11-3,24.7-5.7,48-4.8v0c-7.1,0.6-14.1,1.4-21.1,2.4C492.3,144.1,481.2,145.5,463.2,148.1z"/>
	<path fill="#A21B1C" d="M463.2,148.1c10.2-2.7,20.5-4.9,31-6.6c9.6,1.6,2.5,3.1-6.7,4.9c-9.3,1.9-62.3,18.6-62.1,20.6
		C411.2,166.7,463.6,149.4,463.2,148.1z"/>
	<path fill="#A21B1C" d="M433.1,167c-5.9,1.4-12.8,3.8-19,6c-6.2,2.1-11.8,4.1-15.5,4.4c-1,0.1,2.8-2.5,5.5-3.6
		C418.6,167.9,424.2,168.3,433.1,167z"/>
	<g display="none">
		<path display="inline" fill="#242424" d="M651.1,308.2l29.4,22.1c-1.8,2.1-5.5,4.2-10.7,5.5v188c0,0.3-7,8.8-27.8,8.8v-20.8H489.1
			v12.7c0,0.5-3.1,11.2-27.3,11.2V311l29.6,12.5h147.9L651.1,308.2z M489.1,506.6H642V328.7H489.1V506.6z M596.2,363.8l28.1,19.5
			c-1.8,1.8-5.2,3.9-10.1,4.9v72.5c0,0.5-7,7.5-25.5,7.5v-16.1h-48.1v9.9c0,0.3-3.4,8.8-25,8.8V366.2l26.3,10.9h44.2L596.2,363.8z
			 M540.6,447h48.1v-64.7h-48.1V447z"/>
		<path display="inline" fill="#242424" d="M773,435.1v54.1c13.5-2.6,27.6-5.2,41.9-8.1l0.8,3.6c-20.3,9.9-50.4,23.4-93.1,40.3
			c-1.3,3.1-3.9,5.7-6.8,6.5l-13-30.7l12.5-1.8V413l28.9,2.6c-0.3,2.6-2.3,3.9-7.8,4.7v75.4l12-2.1V378.1h-7.5v7.8
			c0,1.8-7.8,7.3-20,7.3h-4.2v-92l27.6,10.9h31.5l9.9-13l27.6,19.2c-1.6,1.8-5.2,3.9-10.1,4.9v60.1c0,0.3-7.3,6.2-24.7,6.2v-11.4
			H773v51.7h7.5l12-17.9l21.6,18.5c-2.1,3.4-5.5,4.7-12,4.7H773z M740.8,372.9h37.4V317h-37.4V372.9z M915,313.9l24.7,21.8
			c-2.1,2.6-4.7,3.4-10.9,3.6c-9.1,19-21.1,36.7-36.1,52c16.4,10.7,36.1,18.7,59.5,24.2l-0.5,2.9c-11.2,3.6-16.9,11.4-19.2,24.4
			l-8.8-3.9l17.2,12.7c-1.8,1.8-4.4,3.4-9.9,4.4v72.8c0,1.3-9.1,6.8-22.9,6.8h-4.4v-19.2h-54.1v13.3c0,1.8-8.1,7.8-21.6,7.8h-4.4
			v-99.8c-7.5,3.4-15.6,6.2-23.9,9.1l-1.6-3.9c27.6-13,50.7-30.7,68.6-51.5c-8.1-11.4-14.6-24.2-20-38.2c-11.2,15.1-24.2,27-38,36.1
			l-3.4-2.3c16.6-20.5,33-56.9,41.3-94.9l35.9,11.7c-1.3,3.1-3.4,4.9-10.1,4.4c-2.9,7-6.2,13.8-9.6,20h37.2L915,313.9z M900.9,445.7
			l10.4-13.3c-13.5-7.5-24.4-16.9-33.8-27.3c-14.3,12-31.2,22.4-50.2,30.9l25,9.6H900.9z M849.4,511.2h54.1v-60.3h-54.1V511.2z
			 M859.8,333.1c-2.9,5.2-6,9.9-9.1,14.6c6.8,11.7,15.1,22.1,25.5,31.5c10.7-14.3,18.7-29.9,24.7-46H859.8z"/>
		<path display="inline" fill="#242424" d="M1173.7,301.4l29.6,21.8c-1.8,2.3-5.5,4.4-10.9,5.7v196.6c0,0.8-7,9.1-27.8,9.1v-20.8
			H1007v11.4c0,0.8-3.1,11.4-27.3,11.4V304l29.9,12.7H1162L1173.7,301.4z M1007,508.6h157.6V356.8c-1.8,1.6-4.4,2.1-9.6,1.6
			c-13.3,28.3-28.9,52.3-46.5,72.3c30.7,16.4,41.6,34.6,41.6,46.5c0,8.1-4.9,13-11.7,13c-2.9,0-5.7-0.8-8.8-2.3
			c-7.3-11.4-20.3-25.7-38.2-39.8c-23.7,21.8-50.4,38.2-79.6,49.9l-2.3-3.4c23.4-13.3,46.5-32.8,67.3-57.2
			c-16.9-11.4-37.2-22.6-60.3-31.7l1.3-3.6c29.4,5.2,52.8,12,71.2,19.5c17.4-23.7,32.2-51,43.2-81.4l32.5,13.8v-32H1007V508.6z
			 M1017.4,343.3c30.4,10.1,40.3,24.7,40.3,35.9c0,9.1-6.5,15.9-14,15.9c-3.6,0-7.5-1.6-10.9-5.5c-0.5-14.6-8.6-33.3-17.7-44.7
			L1017.4,343.3z M1063.7,330.8c29.4,11.2,39,26.5,39,38.2c0,9.9-7.3,17.4-14.8,17.4c-3.9,0-8.1-1.8-11.4-6.2
			c0.5-15.6-6.2-35.6-15.1-47.8L1063.7,330.8z"/>
	</g>
	<g display="none">
		<path display="inline" fill="#242424" d="M531.6,255.8c0.6-1.2,1.7-1.9,3.1-1.9c2.4,0,4.8,1.5,4.8,2.8c0,0.8-1,1.5-1.4,3.2
			c-0.3,1.2-0.6,2.5-1,3.7c0.9-0.2,2.3-0.4,3.6-0.4c5.4,0,7.1,2.9,7.1,8.7c0,5.2-1.5,10-3,12.3c-1.2,2-2.4,3.1-4.6,3.1
			c-1.1,0-1.7-0.7-1.8-2.1c-0.1-1.2-2-3-4.4-5.2l0.3-0.5c1.9,1.1,4.7,2.8,5.8,2.8c2,0,3.8-6.2,3.8-11.4c0-3.5-0.4-5.6-3.6-5.6
			c-1,0-2.8,0.3-3.8,0.6c-1.7,5.7-4.5,13.2-6.7,17.7c-0.7,1.5-1.8,3.2-3,3.2c-1.4,0-2-1-2-2.9c0-1.1,1.2-2.4,2-3.4
			c1.7-2.1,4.6-8.5,6.1-13.6c-0.7,0.2-2.1,0.8-2.8,1.1c-0.6,0.3-1.2,1.2-2,1.2c-2.2,0-3.6-2.2-3.6-4.2c0-1,0.7-2,1.3-2.4l0.2,0.1
			c0,1.2,0.5,2.4,2,2.4c1.5,0,3.5-0.4,5.4-0.8c0.4-1.2,1.1-4.6,1.1-6.3c0-1.3-0.4-2-1.9-2c-0.3,0-0.6,0-1,0.1L531.6,255.8z
			 M548.7,260.6c7.2,1.4,10.7,6.4,10.6,11c0,2.2-1,3.8-2.5,3.8c-0.9,0-2-0.3-2-2c0-5.2-1.2-9.9-6.5-12.1L548.7,260.6z"/>
		<path display="inline" fill="#242424" d="M563.9,258c0.4-0.4,0.9-0.5,1.2-0.5c3.5,0,5.8,2.7,5.8,4.8c0,0.9-0.4,1.3-0.6,1.8
			c-1.1,2.8-1.5,5.2-1.5,8.7c0,3.2,1.8,6.5,3.4,6.5c0.5,0,0.9-0.3,2-1.8c1.2-1.6,3.2-4.9,4.8-7.6l0.6,0.3c-3.4,8.7-4,10.3-4,11.1
			c0,0.3,0.1,0.6,0.3,0.8c0.5,0.5,0.8,1.3,0.8,1.7c0,1.2-0.9,1.6-2.2,1.6c-3.3,0-8.8-4.5-8.8-14.5c0-1.4,0.4-9,0.4-9
			c0-2.6-1.2-3.6-2.2-3.8L563.9,258z M586.1,261c8.5,0.7,12.3,6.7,12.3,11.2c0,2-0.9,3.8-2.6,3.8c-1,0-1.9-0.6-1.9-1.8
			c-0.3-5.9-2.9-11.3-8-12.3L586.1,261z"/>
		<path display="inline" fill="#242424" d="M815.7,286.8c11.3-0.8,17.6-4.2,17.6-9.8c0-4.4-2.1-7-6.5-7c-3.5,0-8.6,2.2-12.3,6.7
			c-1.4,1.6-2.2,3.4-3.4,3.4c-1.4,0-2.1-1-2.1-2.3c0-2.2,1.7-2.8,3.4-4.6c3.8-4,10.1-10.6,13.4-13.8c0.7-0.7,1.2-1.2,1.2-1.5
			c0-0.3-0.3-0.3-0.4-0.3c-1,0-5.7,1.1-8.6,2.5c-1,0.5-1.2,1.2-2.2,1.2c-1.8,0-3.8-2.3-3.8-4c0-1,0.4-1.9,1-2.5l0.3,0.1
			c0,1.4,1,2.4,2.6,2.4c2.1,0,7.5-0.9,9.4-1.8c0.9-0.4,1.8-1.2,2.2-1.2c1.6,0,4.4,1.8,4.4,3.6c0,1.3-1.5,1.4-2.8,2.4
			c-3.4,2.5-9.2,7.9-11.8,11.3l0.1,0.1c3.8-2.3,7.7-3.3,10.4-3.3c5.8,0,9.8,3.7,9.8,9c0,7.2-6.2,10.3-21.8,10.4L815.7,286.8z"/>
		<path display="inline" fill="#242424" d="M1074,254.8c0.5-1,1.6-1.8,3-1.8c2.3,0,5.1,1.3,5.1,2.8c0,0.5-0.3,0.8-0.5,1.4
			c-0.2,0.4-0.2,1.6-0.2,3c6.8-0.5,7.6-0.6,8.3-1.4c3.4,0.8,5.3,1.5,5.3,3.2c0,0.6-0.8,0.9-1.4,0.9c-1,0-2.6-0.4-4.8-0.6
			c-1.2-0.1-2.7-0.2-4.2-0.2c-1,0-2.1,0-3.1,0.1c0,3,0,5.8,0.1,7.3c0.6,1,1.2,2.5,1.2,5.4c0,7.2-3.9,11.6-13.1,13.7l-0.3-0.6
			c5.6-2.2,8.6-6.3,9-10c-0.8,1-2.2,1.5-3.8,1.5c-3.6,0-6.5-2.4-6.5-6.5c0-3.6,2.9-6.6,6.9-6.6c1.1,0,2.2,0.3,3.1,0.8
			c0-1.6-0.1-3.5-0.2-4.8c-3.4,0.3-8.4,0.9-11.3,1.9c-0.9,0.3-1.3,0.8-2.2,0.8c-1.8,0-4.4-2.3-4.4-4.2c0-0.7,0.3-1.5,0.8-2l0.3,0
			c0,1.2,1.2,2.6,4.1,2.6c1,0,2.2-0.1,12.6-1c-0.2-4.3-0.3-5.7-2.6-5.7c-0.4,0-0.7,0-1,0.1L1074,254.8z M1078.5,272.4
			c0-2-1.2-3.9-3.4-3.9c-1.8,0-3.6,1.5-3.6,4.5c0,2.6,1.8,3.8,3.4,3.8C1077.8,276.8,1078.5,274.3,1078.5,272.4z M1085.6,251.7
			c3.7,0.9,5.6,2.8,5.6,4.3c0,0.7-0.5,1.4-1.3,1.4c-0.8,0-1.2-0.4-1.4-1.1c-0.4-1.3-1.4-3-3.3-4.1L1085.6,251.7z M1090.9,251
			c4,1.1,5.8,2.8,5.8,4.3c0,0.8-0.5,1.5-1.2,1.5s-1.2-0.4-1.4-1.1c-0.4-1.3-1.5-3.1-3.4-4.1L1090.9,251z"/>
	</g>
	<g display="none">
		<path display="inline" fill="#242424" d="M503.1,554.1c1.1-0.2,2.5-0.3,4.3-0.3c2.2,0,3.9,0.5,4.9,1.5c0.9,0.8,1.5,2.1,1.5,3.7
			c0,1.6-0.5,2.8-1.4,3.7c-1.2,1.3-3.1,1.9-5.4,1.9c-0.7,0-1.3,0-1.8-0.2v7h-2.3V554.1z M505.4,562.5c0.5,0.1,1.1,0.2,1.9,0.2
			c2.7,0,4.4-1.4,4.4-3.7c0-2.3-1.7-3.5-4.1-3.5c-1,0-1.7,0.1-2.1,0.2V562.5z"/>
		<path display="inline" fill="#242424" d="M516,569.1c0.7,0.4,1.9,0.9,3,0.9c1.6,0,2.4-0.8,2.4-1.9c0-1.1-0.6-1.7-2.3-2.3
			c-2.3-0.8-3.4-2.1-3.4-3.6c0-2,1.7-3.7,4.3-3.7c1.3,0,2.4,0.3,3.1,0.8l-0.5,1.7c-0.5-0.3-1.4-0.8-2.6-0.8c-1.4,0-2.1,0.8-2.1,1.7
			c0,1,0.7,1.5,2.4,2.2c2.2,0.8,3.3,1.9,3.3,3.8c0,2.2-1.7,3.8-4.7,3.8c-1.4,0-2.7-0.4-3.5-0.9L516,569.1z"/>
		<path display="inline" fill="#242424" d="M527.8,565.5c0.1,3.1,2,4.4,4.3,4.4c1.6,0,2.7-0.3,3.5-0.7l0.4,1.6
			c-0.8,0.4-2.2,0.8-4.2,0.8c-3.9,0-6.2-2.6-6.2-6.4c0-3.8,2.2-6.8,5.9-6.8c4.1,0,5.2,3.6,5.2,5.9c0,0.5,0,0.8-0.1,1.1H527.8z
			 M534.6,563.9c0-1.4-0.6-3.7-3.2-3.7c-2.3,0-3.3,2.1-3.5,3.7H534.6z"/>
		<path display="inline" fill="#242424" d="M550.1,567.9c0,1.3,0,2.5,0.1,3.5h-2l-0.1-2.1H548c-0.6,1-1.9,2.3-4.2,2.3
			c-2,0-4.3-1.1-4.3-5.5v-7.4h2.3v6.9c0,2.4,0.8,4,2.8,4c1.5,0,2.6-1.1,3-2.1c0.1-0.3,0.2-0.7,0.2-1.2v-7.7h2.3V567.9z"/>
		<path display="inline" fill="#242424" d="M564.8,552.9v15.2c0,1.1,0.1,2.4,0.1,3.3h-2l-0.1-2.2h-0.1c-0.7,1.4-2.2,2.5-4.2,2.5
			c-3,0-5.4-2.6-5.4-6.4c0-4.2,2.6-6.7,5.6-6.7c2,0,3.2,0.9,3.8,1.9h0.1v-7.5H564.8z M562.5,563.9c0-0.3,0-0.7-0.1-1
			c-0.3-1.4-1.6-2.6-3.3-2.6c-2.4,0-3.8,2.1-3.8,4.8c0,2.5,1.3,4.7,3.7,4.7c1.5,0,2.9-1,3.4-2.7c0.1-0.3,0.1-0.6,0.1-1V563.9z"/>
		<path display="inline" fill="#242424" d="M580,565c0,4.7-3.3,6.7-6.3,6.7c-3.4,0-6-2.5-6-6.5c0-4.2,2.8-6.7,6.2-6.7
			C577.5,558.6,580,561.2,580,565z M570,565.1c0,2.8,1.6,4.8,3.8,4.8c2.2,0,3.8-2.1,3.8-4.9c0-2.1-1.1-4.8-3.8-4.8
			C571.2,560.3,570,562.8,570,565.1z"/>
		<path display="inline" fill="#242424" d="M588.6,563.5v1.7h-6.4v-1.7H588.6z"/>
		<path display="inline" fill="#242424" d="M591,568.6c1,0.6,2.5,1.1,4,1.1c2.3,0,3.7-1.2,3.7-3c0-1.6-0.9-2.6-3.3-3.5
			c-2.9-1-4.6-2.5-4.6-5c0-2.7,2.3-4.8,5.7-4.8c1.8,0,3.1,0.4,3.8,0.9l-0.6,1.8c-0.5-0.3-1.7-0.8-3.3-0.8c-2.4,0-3.3,1.4-3.3,2.6
			c0,1.6,1.1,2.4,3.5,3.4c3,1.1,4.4,2.6,4.4,5.1c0,2.7-2,5.1-6.1,5.1c-1.7,0-3.5-0.5-4.5-1.1L591,568.6z"/>
		<path display="inline" fill="#242424" d="M615.6,565c0,4.7-3.3,6.7-6.3,6.7c-3.4,0-6-2.5-6-6.5c0-4.2,2.8-6.7,6.2-6.7
			C613.2,558.6,615.6,561.2,615.6,565z M605.6,565.1c0,2.8,1.6,4.8,3.8,4.8c2.2,0,3.8-2.1,3.8-4.9c0-2.1-1.1-4.8-3.8-4.8
			C606.8,560.3,605.6,562.8,605.6,565.1z"/>
		<path display="inline" fill="#242424" d="M627.5,571c-0.6,0.3-1.9,0.7-3.6,0.7c-3.8,0-6.3-2.6-6.3-6.4c0-3.9,2.7-6.7,6.8-6.7
			c1.4,0,2.5,0.3,3.2,0.7L627,561c-0.5-0.3-1.4-0.6-2.7-0.6c-2.9,0-4.4,2.2-4.4,4.8c0,2.9,1.9,4.7,4.4,4.7c1.3,0,2.2-0.3,2.8-0.6
			L627.5,571z"/>
		<path display="inline" fill="#242424" d="M630.1,562.7c0-1.5,0-2.8-0.1-3.9h2l0.1,2.5h0.1c0.6-1.7,2-2.8,3.5-2.8
			c0.2,0,0.4,0,0.6,0.1v2.2c-0.2-0.1-0.5-0.1-0.8-0.1c-1.6,0-2.8,1.2-3.1,2.9c-0.1,0.3-0.1,0.7-0.1,1.1v6.7h-2.3V562.7z"/>
		<path display="inline" fill="#242424" d="M647.3,568.4c0,1.1,0.1,2.2,0.2,3h-2.1l-0.2-1.6h-0.1c-0.7,1-2.1,1.9-3.8,1.9
			c-2.5,0-3.8-1.8-3.8-3.6c0-3,2.7-4.7,7.6-4.7v-0.3c0-1-0.3-2.9-2.9-2.9c-1.2,0-2.4,0.3-3.3,0.9l-0.5-1.5c1-0.7,2.6-1.1,4.2-1.1
			c3.8,0,4.8,2.6,4.8,5.1V568.4z M645.1,565c-2.5-0.1-5.3,0.4-5.3,2.8c0,1.5,1,2.2,2.1,2.2c1.7,0,2.7-1,3.1-2.1
			c0.1-0.3,0.1-0.5,0.1-0.7V565z"/>
		<path display="inline" fill="#242424" d="M653.7,555.8v3h3.3v1.7h-3.3v6.8c0,1.6,0.4,2.4,1.7,2.4c0.6,0,1-0.1,1.3-0.2l0.1,1.7
			c-0.4,0.2-1.1,0.3-2,0.3c-1.1,0-1.9-0.4-2.5-1c-0.6-0.7-0.9-1.8-0.9-3.3v-6.9h-2v-1.7h2v-2.3L653.7,555.8z"/>
		<path display="inline" fill="#242424" d="M662.1,555.3c0,0.8-0.5,1.4-1.5,1.4c-0.8,0-1.4-0.6-1.4-1.4c0-0.8,0.6-1.4,1.4-1.4
			C661.5,553.8,662.1,554.5,662.1,555.3z M659.5,571.4v-12.6h2.3v12.6H659.5z"/>
		<path display="inline" fill="#242424" d="M674.6,571c-0.6,0.3-1.9,0.7-3.6,0.7c-3.8,0-6.3-2.6-6.3-6.4c0-3.9,2.7-6.7,6.8-6.7
			c1.4,0,2.5,0.3,3.2,0.7l-0.5,1.7c-0.5-0.3-1.4-0.6-2.7-0.6c-2.9,0-4.4,2.2-4.4,4.8c0,2.9,1.9,4.7,4.4,4.7c1.3,0,2.2-0.3,2.8-0.6
			L674.6,571z"/>
		<path display="inline" fill="#242424" d="M686.4,553.9h2.3v11.7c0,4.7-2.3,6.1-5.3,6.1c-0.9,0-1.9-0.2-2.4-0.4l0.3-1.8
			c0.5,0.2,1.1,0.3,1.9,0.3c2,0,3.2-0.9,3.2-4.3V553.9z"/>
		<path display="inline" fill="#242424" d="M701.2,568.4c0,1.1,0.1,2.2,0.2,3h-2.1l-0.2-1.6h-0.1c-0.7,1-2.1,1.9-3.8,1.9
			c-2.5,0-3.8-1.8-3.8-3.6c0-3,2.7-4.7,7.6-4.7v-0.3c0-1-0.3-2.9-2.9-2.9c-1.2,0-2.4,0.3-3.3,0.9l-0.5-1.5c1-0.7,2.6-1.1,4.2-1.1
			c3.8,0,4.8,2.6,4.8,5.1V568.4z M699,565c-2.5-0.1-5.3,0.4-5.3,2.8c0,1.5,1,2.2,2.1,2.2c1.7,0,2.7-1,3.1-2.1
			c0.1-0.3,0.1-0.5,0.1-0.7V565z"/>
		<path display="inline" fill="#242424" d="M704.9,562.9c0-1.6-0.1-2.9-0.1-4.1h2l0.1,2.2h0.1c0.9-1.5,2.4-2.4,4.5-2.4
			c3.1,0,5.4,2.6,5.4,6.4c0,4.5-2.8,6.8-5.7,6.8c-1.7,0-3.1-0.7-3.9-2h-0.1v6.8h-2.3V562.9z M707.2,566.3c0,0.3,0,0.6,0.1,0.9
			c0.4,1.6,1.8,2.7,3.4,2.7c2.4,0,3.8-2,3.8-4.9c0-2.5-1.3-4.7-3.7-4.7c-1.6,0-3,1.1-3.5,2.8c-0.1,0.3-0.2,0.6-0.2,0.9V566.3z"/>
		<path display="inline" fill="#242424" d="M728.6,568.4c0,1.1,0.1,2.2,0.2,3h-2.1l-0.2-1.6h-0.1c-0.7,1-2.1,1.9-3.8,1.9
			c-2.5,0-3.8-1.8-3.8-3.6c0-3,2.7-4.7,7.6-4.7v-0.3c0-1-0.3-2.9-2.9-2.9c-1.2,0-2.4,0.3-3.3,0.9l-0.5-1.5c1-0.7,2.6-1.1,4.2-1.1
			c3.8,0,4.8,2.6,4.8,5.1V568.4z M726.4,565c-2.5-0.1-5.3,0.4-5.3,2.8c0,1.5,1,2.2,2.1,2.2c1.7,0,2.7-1,3.1-2.1
			c0.1-0.3,0.1-0.5,0.1-0.7V565z"/>
		<path display="inline" fill="#242424" d="M732.3,562.2c0-1.3,0-2.4-0.1-3.4h2l0.1,2.1h0.1c0.6-1.2,2.1-2.3,4.2-2.3
			c1.7,0,4.4,1,4.4,5.4v7.5h-2.3v-7.3c0-2-0.8-3.7-2.9-3.7c-1.5,0-2.7,1.1-3.1,2.3c-0.1,0.3-0.2,0.7-0.2,1.1v7.6h-2.3V562.2z"/>
		<path display="inline" fill="#242424" d="M748,565.5c0.1,3.1,2,4.4,4.3,4.4c1.6,0,2.7-0.3,3.5-0.7l0.4,1.6
			c-0.8,0.4-2.2,0.8-4.2,0.8c-3.9,0-6.2-2.6-6.2-6.4c0-3.8,2.2-6.8,5.9-6.8c4.1,0,5.2,3.6,5.2,5.9c0,0.5,0,0.8-0.1,1.1H748z
			 M754.7,563.9c0-1.4-0.6-3.7-3.2-3.7c-2.3,0-3.3,2.1-3.5,3.7H754.7z"/>
		<path display="inline" fill="#242424" d="M759.4,569.1c0.7,0.4,1.9,0.9,3,0.9c1.6,0,2.4-0.8,2.4-1.9c0-1.1-0.6-1.7-2.3-2.3
			c-2.3-0.8-3.4-2.1-3.4-3.6c0-2,1.7-3.7,4.3-3.7c1.3,0,2.4,0.3,3.1,0.8l-0.5,1.7c-0.5-0.3-1.4-0.8-2.6-0.8c-1.4,0-2.1,0.8-2.1,1.7
			c0,1,0.7,1.5,2.4,2.2c2.2,0.8,3.3,1.9,3.3,3.8c0,2.2-1.7,3.8-4.7,3.8c-1.4,0-2.7-0.4-3.5-0.9L759.4,569.1z"/>
		<path display="inline" fill="#242424" d="M771.3,565.5c0.1,3.1,2,4.4,4.3,4.4c1.6,0,2.7-0.3,3.5-0.7l0.4,1.6
			c-0.8,0.4-2.2,0.8-4.2,0.8c-3.9,0-6.2-2.6-6.2-6.4c0-3.8,2.2-6.8,5.9-6.8c4.1,0,5.2,3.6,5.2,5.9c0,0.5,0,0.8-0.1,1.1H771.3z
			 M778,563.9c0-1.4-0.6-3.7-3.2-3.7c-2.3,0-3.3,2.1-3.5,3.7H778z"/>
		<path display="inline" fill="#242424" d="M802,570.6c-1,0.4-3,1-5.4,1c-2.7,0-4.8-0.7-6.6-2.3c-1.5-1.5-2.4-3.8-2.4-6.5
			c0-5.2,3.6-9,9.5-9c2,0,3.6,0.4,4.4,0.8l-0.6,1.8c-0.9-0.4-2.1-0.8-3.9-0.8c-4.3,0-7,2.7-7,7c0,4.4,2.7,7.1,6.8,7.1
			c1.5,0,2.5-0.2,3-0.5V564h-3.5v-1.8h5.8V570.6z"/>
		<path display="inline" fill="#242424" d="M805.3,562.7c0-1.5,0-2.8-0.1-3.9h2l0.1,2.5h0.1c0.6-1.7,2-2.8,3.5-2.8
			c0.2,0,0.4,0,0.6,0.1v2.2c-0.2-0.1-0.5-0.1-0.8-0.1c-1.6,0-2.8,1.2-3.1,2.9c-0.1,0.3-0.1,0.7-0.1,1.1v6.7h-2.3V562.7z"/>
		<path display="inline" fill="#242424" d="M822.6,568.4c0,1.1,0.1,2.2,0.2,3h-2.1l-0.2-1.6h-0.1c-0.7,1-2.1,1.9-3.8,1.9
			c-2.5,0-3.8-1.8-3.8-3.6c0-3,2.7-4.7,7.6-4.7v-0.3c0-1-0.3-2.9-2.9-2.9c-1.2,0-2.4,0.3-3.3,0.9l-0.5-1.5c1-0.7,2.6-1.1,4.2-1.1
			c3.8,0,4.8,2.6,4.8,5.1V568.4z M820.3,565c-2.5-0.1-5.3,0.4-5.3,2.8c0,1.5,1,2.2,2.1,2.2c1.7,0,2.7-1,3.1-2.1
			c0.1-0.3,0.1-0.5,0.1-0.7V565z"/>
		<path display="inline" fill="#242424" d="M826.2,562.2c0-1.3-0.1-2.4-0.1-3.4h2l0.1,2.1h0.1c0.7-1.2,1.9-2.3,4-2.3
			c1.7,0,3,1,3.5,2.5h0.1c0.4-0.7,0.9-1.2,1.4-1.6c0.8-0.6,1.6-0.9,2.8-0.9c1.7,0,4.2,1.1,4.2,5.5v7.4H842v-7.1
			c0-2.4-0.9-3.9-2.7-3.9c-1.3,0-2.3,1-2.7,2.1c-0.1,0.3-0.2,0.7-0.2,1.1v7.8h-2.2v-7.5c0-2-0.9-3.4-2.6-3.4c-1.4,0-2.5,1.1-2.8,2.3
			c-0.1,0.3-0.2,0.7-0.2,1.1v7.6h-2.2V562.2z"/>
		<path display="inline" fill="#242424" d="M847.9,562.2c0-1.3-0.1-2.4-0.1-3.4h2l0.1,2.1h0.1c0.7-1.2,1.9-2.3,4-2.3
			c1.7,0,3,1,3.5,2.5h0.1c0.4-0.7,0.9-1.2,1.4-1.6c0.8-0.6,1.6-0.9,2.8-0.9c1.7,0,4.2,1.1,4.2,5.5v7.4h-2.2v-7.1
			c0-2.4-0.9-3.9-2.7-3.9c-1.3,0-2.3,1-2.7,2.1c-0.1,0.3-0.2,0.7-0.2,1.1v7.8h-2.2v-7.5c0-2-0.9-3.4-2.6-3.4c-1.4,0-2.5,1.1-2.8,2.3
			c-0.1,0.3-0.2,0.7-0.2,1.1v7.6h-2.2V562.2z"/>
		<path display="inline" fill="#242424" d="M878.5,568.4c0,1.1,0.1,2.2,0.2,3h-2.1l-0.2-1.6h-0.1c-0.7,1-2.1,1.9-3.8,1.9
			c-2.5,0-3.8-1.8-3.8-3.6c0-3,2.7-4.7,7.6-4.7v-0.3c0-1-0.3-2.9-2.9-2.9c-1.2,0-2.4,0.3-3.3,0.9l-0.5-1.5c1-0.7,2.6-1.1,4.2-1.1
			c3.8,0,4.8,2.6,4.8,5.1V568.4z M876.2,565c-2.5-0.1-5.3,0.4-5.3,2.8c0,1.5,1,2.2,2.1,2.2c1.7,0,2.7-1,3.1-2.1
			c0.1-0.3,0.1-0.5,0.1-0.7V565z"/>
		<path display="inline" fill="#242424" d="M882.1,562.7c0-1.5,0-2.8-0.1-3.9h2l0.1,2.5h0.1c0.6-1.7,2-2.8,3.5-2.8
			c0.2,0,0.4,0,0.6,0.1v2.2c-0.2-0.1-0.5-0.1-0.8-0.1c-1.6,0-2.8,1.2-3.1,2.9c-0.1,0.3-0.1,0.7-0.1,1.1v6.7h-2.3V562.7z"/>
	</g>
	<g>
		<path fill="#242424" d="M651.1,299.6l29.4,22.1c-1.8,2.1-5.5,4.2-10.7,5.5v188c0,0.3-7,8.8-27.8,8.8v-20.8H489.1v12.7
			c0,0.5-3.1,11.2-27.3,11.2V302.4l29.6,12.5h147.9L651.1,299.6z M489.1,497.9H642V320.1H489.1V497.9z M596.2,355.2l28.1,19.5
			c-1.8,1.8-5.2,3.9-10.1,4.9v72.5c0,0.5-7,7.5-25.5,7.5v-16.1h-48.1v9.9c0,0.3-3.4,8.8-25,8.8V357.5l26.3,10.9h44.2L596.2,355.2z
			 M540.6,438.4h48.1v-64.7h-48.1V438.4z"/>
		<path fill="#242424" d="M773,426.4v54.1c13.5-2.6,27.6-5.2,41.9-8.1l0.8,3.6c-20.3,9.9-50.4,23.4-93.1,40.3
			c-1.3,3.1-3.9,5.7-6.8,6.5l-13-30.7l12.5-1.8v-86.1l28.9,2.6c-0.3,2.6-2.3,3.9-7.8,4.7V487l12-2.1V369.5h-7.5v7.8
			c0,1.8-7.8,7.3-20,7.3h-4.2v-92l27.6,10.9h31.5l9.9-13l27.6,19.2c-1.6,1.8-5.2,3.9-10.1,4.9v60.1c0,0.3-7.3,6.2-24.7,6.2v-11.4
			H773v51.7h7.5l12-17.9l21.6,18.5c-2.1,3.4-5.5,4.7-12,4.7H773z M740.8,364.3h37.4v-55.9h-37.4V364.3z M915,305.3l24.7,21.8
			c-2.1,2.6-4.7,3.4-10.9,3.6c-9.1,19-21.1,36.7-36.1,52c16.4,10.7,36.1,18.7,59.5,24.2l-0.5,2.9c-11.2,3.6-16.9,11.4-19.2,24.4
			l-8.8-3.9l17.2,12.7c-1.8,1.8-4.4,3.4-9.9,4.4v72.8c0,1.3-9.1,6.8-22.9,6.8h-4.4v-19.2h-54.1v13.3c0,1.8-8.1,7.8-21.6,7.8h-4.4
			V429c-7.5,3.4-15.6,6.2-23.9,9.1l-1.6-3.9c27.6-13,50.7-30.7,68.6-51.5c-8.1-11.4-14.6-24.2-20-38.2c-11.2,15.1-24.2,27-38,36.1
			l-3.4-2.3c16.6-20.5,33-56.9,41.3-94.9l35.9,11.7c-1.3,3.1-3.4,4.9-10.1,4.4c-2.9,7-6.2,13.8-9.6,20h37.2L915,305.3z M900.9,437.1
			l10.4-13.3c-13.5-7.5-24.4-16.9-33.8-27.3c-14.3,12-31.2,22.4-50.2,30.9l25,9.6H900.9z M849.4,502.6h54.1v-60.3h-54.1V502.6z
			 M859.8,324.5c-2.9,5.2-6,9.9-9.1,14.6c6.8,11.7,15.1,22.1,25.5,31.5c10.7-14.3,18.7-29.9,24.7-46H859.8z"/>
		<path fill="#242424" d="M1173.7,292.8l29.6,21.8c-1.8,2.3-5.5,4.4-10.9,5.7v196.6c0,0.8-7,9.1-27.8,9.1v-20.8H1007v11.4
			c0,0.8-3.1,11.4-27.3,11.4V295.4l29.9,12.7H1162L1173.7,292.8z M1007,500h157.6V348.2c-1.8,1.6-4.4,2.1-9.6,1.6
			c-13.3,28.3-28.9,52.3-46.5,72.3c30.7,16.4,41.6,34.6,41.6,46.5c0,8.1-4.9,13-11.7,13c-2.9,0-5.7-0.8-8.8-2.3
			c-7.3-11.4-20.3-25.7-38.2-39.8c-23.7,21.8-50.4,38.2-79.6,49.9l-2.3-3.4c23.4-13.3,46.5-32.8,67.3-57.2
			c-16.9-11.4-37.2-22.6-60.3-31.7l1.3-3.6c29.4,5.2,52.8,12,71.2,19.5c17.4-23.7,32.2-51,43.2-81.4l32.5,13.8v-32H1007V500z
			 M1017.4,334.7c30.4,10.1,40.3,24.7,40.3,35.9c0,9.1-6.5,15.9-14,15.9c-3.6,0-7.5-1.6-10.9-5.5c-0.5-14.6-8.6-33.3-17.7-44.7
			L1017.4,334.7z M1063.7,322.2c29.4,11.2,39,26.5,39,38.2c0,9.9-7.3,17.4-14.8,17.4c-3.9,0-8.1-1.8-11.4-6.2
			c0.5-15.6-6.2-35.6-15.1-47.8L1063.7,322.2z"/>
	</g>
	<g>
		<path fill="#242424" d="M528.6,249.2c0.6-1.2,1.7-1.9,3.1-1.9c2.4,0,4.8,1.5,4.8,2.8c0,0.8-1,1.5-1.4,3.2c-0.3,1.2-0.6,2.5-1,3.7
			c0.9-0.2,2.3-0.4,3.6-0.4c5.4,0,7.1,2.9,7.1,8.7c0,5.2-1.5,10-3,12.3c-1.2,2-2.4,3.1-4.6,3.1c-1.1,0-1.7-0.7-1.8-2.1
			c-0.1-1.2-2-3-4.4-5.2l0.3-0.5c1.9,1.1,4.7,2.8,5.8,2.8c2,0,3.8-6.2,3.8-11.4c0-3.5-0.4-5.6-3.6-5.6c-1,0-2.8,0.3-3.8,0.6
			c-1.7,5.7-4.5,13.2-6.7,17.7c-0.7,1.5-1.8,3.2-3,3.2c-1.4,0-2-1-2-2.9c0-1.1,1.2-2.4,2-3.4c1.7-2.1,4.6-8.5,6.1-13.6
			c-0.7,0.2-2.1,0.8-2.8,1.1c-0.6,0.3-1.2,1.2-2,1.2c-2.2,0-3.6-2.2-3.6-4.2c0-1,0.7-2,1.3-2.4l0.2,0.1c0,1.2,0.5,2.4,2,2.4
			c1.5,0,3.5-0.4,5.4-0.8c0.4-1.2,1.1-4.6,1.1-6.3c0-1.3-0.4-2-1.9-2c-0.3,0-0.6,0-1,0.1L528.6,249.2z M545.7,254
			c7.2,1.4,10.7,6.4,10.6,11c0,2.2-1,3.8-2.5,3.8c-0.9,0-2-0.3-2-2c0-5.2-1.2-9.9-6.5-12.1L545.7,254z"/>
		<path fill="#242424" d="M560.9,251.4c0.4-0.4,0.9-0.5,1.2-0.5c3.5,0,5.8,2.7,5.8,4.8c0,0.9-0.4,1.3-0.6,1.8
			c-1.1,2.8-1.5,5.2-1.5,8.7c0,3.2,1.8,6.5,3.4,6.5c0.5,0,0.9-0.3,2-1.8c1.2-1.6,3.2-4.9,4.8-7.6l0.6,0.3c-3.4,8.7-4,10.3-4,11.1
			c0,0.3,0.1,0.6,0.3,0.8c0.5,0.5,0.8,1.3,0.8,1.7c0,1.2-0.9,1.6-2.2,1.6c-3.3,0-8.8-4.5-8.8-14.5c0-1.4,0.4-9,0.4-9
			c0-2.6-1.2-3.6-2.2-3.8L560.9,251.4z M583.1,254.4c8.5,0.7,12.3,6.7,12.3,11.2c0,2-0.9,3.8-2.6,3.8c-1,0-1.9-0.6-1.9-1.8
			c-0.3-5.9-2.9-11.3-8-12.3L583.1,254.4z"/>
		<path fill="#242424" d="M812.7,280.2c11.3-0.8,17.6-4.2,17.6-9.8c0-4.4-2.1-7-6.5-7c-3.5,0-8.6,2.2-12.3,6.7
			c-1.4,1.6-2.2,3.4-3.4,3.4c-1.4,0-2.1-1-2.1-2.3c0-2.2,1.7-2.8,3.4-4.6c3.8-4,10.1-10.6,13.4-13.8c0.7-0.7,1.2-1.2,1.2-1.5
			c0-0.3-0.3-0.3-0.4-0.3c-1,0-5.7,1.1-8.6,2.5c-1,0.5-1.2,1.2-2.2,1.2c-1.8,0-3.8-2.3-3.8-4c0-1,0.4-1.9,1-2.5l0.3,0.1
			c0,1.4,1,2.4,2.6,2.4c2.1,0,7.5-0.9,9.4-1.8c0.9-0.4,1.8-1.2,2.2-1.2c1.6,0,4.4,1.8,4.4,3.6c0,1.3-1.5,1.4-2.8,2.4
			c-3.4,2.5-9.2,7.9-11.8,11.3l0.1,0.1c3.8-2.3,7.7-3.3,10.4-3.3c5.8,0,9.8,3.7,9.8,9c0,7.2-6.2,10.3-21.8,10.4L812.7,280.2z"/>
		<path fill="#242424" d="M1071,248.2c0.5-1,1.6-1.8,3-1.8c2.3,0,5.1,1.3,5.1,2.8c0,0.5-0.3,0.8-0.5,1.4c-0.2,0.4-0.2,1.6-0.2,3
			c6.8-0.5,7.6-0.6,8.3-1.4c3.4,0.8,5.3,1.5,5.3,3.2c0,0.6-0.8,0.9-1.4,0.9c-1,0-2.6-0.4-4.8-0.6c-1.2-0.1-2.7-0.2-4.2-0.2
			c-1,0-2.1,0-3.1,0.1c0,3,0,5.8,0.1,7.3c0.6,1,1.2,2.5,1.2,5.4c0,7.2-3.9,11.6-13.1,13.7l-0.3-0.6c5.6-2.2,8.6-6.3,9-10
			c-0.8,1-2.2,1.5-3.8,1.5c-3.6,0-6.5-2.4-6.5-6.5c0-3.6,2.9-6.6,6.9-6.6c1.1,0,2.2,0.3,3.1,0.8c0-1.6-0.1-3.5-0.2-4.8
			c-3.4,0.3-8.4,0.9-11.3,1.9c-0.9,0.3-1.3,0.8-2.2,0.8c-1.8,0-4.4-2.3-4.4-4.2c0-0.7,0.3-1.5,0.8-2l0.3,0c0,1.2,1.2,2.6,4.1,2.6
			c1,0,2.2-0.1,12.6-1c-0.2-4.3-0.3-5.7-2.6-5.7c-0.4,0-0.7,0-1,0.1L1071,248.2z M1075.5,265.8c0-2-1.2-3.9-3.4-3.9
			c-1.8,0-3.6,1.5-3.6,4.5c0,2.6,1.8,3.8,3.4,3.8C1074.8,270.2,1075.5,267.7,1075.5,265.8z M1082.6,245.1c3.7,0.9,5.6,2.8,5.6,4.3
			c0,0.7-0.5,1.4-1.3,1.4c-0.8,0-1.2-0.4-1.4-1.1c-0.4-1.3-1.4-3-3.3-4.1L1082.6,245.1z M1087.9,244.4c4,1.1,5.8,2.8,5.8,4.3
			c0,0.8-0.5,1.5-1.2,1.5s-1.2-0.4-1.4-1.1c-0.4-1.3-1.5-3.1-3.4-4.1L1087.9,244.4z"/>
	</g>
	<g>
		<path fill="#242424" d="M395.9,549.5c1.2-0.2,2.7-0.4,4.7-0.4c2.4,0,4.2,0.6,5.3,1.6c1,0.9,1.7,2.3,1.7,3.9c0,1.7-0.5,3.1-1.5,4
			c-1.3,1.4-3.4,2.1-5.8,2.1c-0.7,0-1.4,0-2-0.2v7.6h-2.4V549.5z M398.3,558.6c0.5,0.1,1.2,0.2,2,0.2c2.9,0,4.7-1.5,4.7-4
			c0-2.5-1.8-3.7-4.5-3.7c-1.1,0-1.9,0.1-2.3,0.2V558.6z"/>
		<path fill="#242424" d="M409.7,565.6c0.8,0.4,2,1,3.3,1c1.8,0,2.6-0.9,2.6-2c0-1.2-0.7-1.8-2.5-2.5c-2.5-0.9-3.6-2.2-3.6-3.8
			c0-2.2,1.8-4,4.7-4c1.4,0,2.6,0.4,3.3,0.8l-0.6,1.8c-0.5-0.3-1.5-0.8-2.8-0.8c-1.5,0-2.2,0.8-2.2,1.8c0,1.1,0.8,1.6,2.5,2.3
			c2.3,0.9,3.6,2,3.6,4.1c0,2.4-1.9,4.1-5,4.1c-1.5,0-2.9-0.4-3.8-1L409.7,565.6z"/>
		<path fill="#242424" d="M422.5,561.8c0.1,3.3,2.2,4.7,4.6,4.7c1.8,0,2.9-0.3,3.8-0.7l0.4,1.8c-0.9,0.4-2.4,0.9-4.5,0.9
			c-4.2,0-6.7-2.8-6.7-6.9s2.4-7.3,6.4-7.3c4.5,0,5.6,3.9,5.6,6.4c0,0.5,0,0.9-0.1,1.1H422.5z M429.7,560c0-1.5-0.6-4-3.4-4
			c-2.5,0-3.6,2.3-3.8,4H429.7z"/>
		<path fill="#242424" d="M446.5,564.4c0,1.4,0,2.7,0.1,3.7h-2.2l-0.1-2.2h-0.1c-0.6,1.1-2.1,2.5-4.5,2.5c-2.1,0-4.7-1.2-4.7-5.9
			v-7.9h2.5v7.5c0,2.6,0.8,4.3,3,4.3c1.7,0,2.8-1.1,3.2-2.3c0.1-0.3,0.2-0.8,0.2-1.3v-8.3h2.5V564.4z"/>
		<path fill="#242424" d="M462.3,548.2v16.4c0,1.2,0.1,2.6,0.1,3.5h-2.2l-0.1-2.4H460c-0.7,1.5-2.4,2.7-4.6,2.7
			c-3.3,0-5.8-2.8-5.8-6.9c0-4.5,2.8-7.3,6.1-7.3c2.1,0,3.5,1,4.1,2h0.1v-8.1H462.3z M459.8,560.1c0-0.3,0-0.7-0.1-1
			c-0.4-1.5-1.7-2.8-3.6-2.8c-2.5,0-4.1,2.2-4.1,5.2c0,2.7,1.4,5,4,5c1.7,0,3.2-1.1,3.6-2.9c0.1-0.3,0.1-0.7,0.1-1.1V560.1z"/>
		<path fill="#242424" d="M478.6,561.2c0,5-3.5,7.2-6.7,7.2c-3.6,0-6.5-2.7-6.5-7c0-4.5,3-7.2,6.7-7.2
			C476,554.3,478.6,557.1,478.6,561.2z M467.9,561.4c0,3,1.7,5.2,4.1,5.2c2.4,0,4.1-2.2,4.1-5.3c0-2.3-1.1-5.2-4.1-5.2
			C469.2,556.1,467.9,558.8,467.9,561.4z"/>
		<path fill="#242424" d="M487.9,559.7v1.8H481v-1.8H487.9z"/>
		<path fill="#242424" d="M490.5,565.2c1.1,0.7,2.7,1.2,4.3,1.2c2.5,0,3.9-1.3,3.9-3.2c0-1.7-1-2.8-3.6-3.7c-3.1-1.1-5-2.7-5-5.4
			c0-2.9,2.4-5.1,6.1-5.1c1.9,0,3.3,0.4,4.1,0.9l-0.7,2c-0.6-0.4-1.8-0.9-3.6-0.9c-2.6,0-3.6,1.5-3.6,2.8c0,1.8,1.1,2.6,3.8,3.6
			c3.2,1.2,4.8,2.8,4.8,5.5c0,2.9-2.1,5.5-6.6,5.5c-1.8,0-3.8-0.6-4.8-1.2L490.5,565.2z"/>
		<path fill="#242424" d="M517,561.2c0,5-3.5,7.2-6.7,7.2c-3.6,0-6.5-2.7-6.5-7c0-4.5,3-7.2,6.7-7.2
			C514.4,554.3,517,557.1,517,561.2z M506.3,561.4c0,3,1.7,5.2,4.1,5.2c2.4,0,4.1-2.2,4.1-5.3c0-2.3-1.1-5.2-4.1-5.2
			C507.5,556.1,506.3,558.8,506.3,561.4z"/>
		<path fill="#242424" d="M529.8,567.6c-0.6,0.3-2.1,0.8-3.9,0.8c-4.1,0-6.7-2.8-6.7-6.9c0-4.2,2.9-7.2,7.3-7.2
			c1.5,0,2.7,0.4,3.4,0.7l-0.6,1.9c-0.6-0.3-1.5-0.6-2.9-0.6c-3.1,0-4.8,2.3-4.8,5.1c0,3.1,2,5.1,4.7,5.1c1.4,0,2.3-0.3,3-0.6
			L529.8,567.6z"/>
		<path fill="#242424" d="M532.7,558.8c0-1.6,0-3-0.1-4.2h2.2l0.1,2.7h0.1c0.6-1.8,2.1-3,3.8-3c0.3,0,0.4,0,0.7,0.1v2.3
			c-0.3-0.1-0.5-0.1-0.8-0.1c-1.7,0-3,1.3-3.3,3.1c-0.1,0.3-0.1,0.8-0.1,1.1v7.2h-2.5V558.8z"/>
		<path fill="#242424" d="M551.2,564.9c0,1.2,0.1,2.3,0.2,3.2h-2.2l-0.2-1.7h-0.1c-0.8,1.1-2.2,2-4.1,2c-2.7,0-4.1-1.9-4.1-3.9
			c0-3.3,2.9-5.1,8.1-5v-0.3c0-1.1-0.3-3.1-3.1-3.1c-1.3,0-2.6,0.4-3.6,1l-0.6-1.7c1.1-0.7,2.8-1.2,4.5-1.2c4.1,0,5.2,2.8,5.2,5.5
			V564.9z M548.8,561.2c-2.7-0.1-5.7,0.4-5.7,3.1c0,1.6,1.1,2.4,2.3,2.4c1.8,0,2.9-1.1,3.3-2.3c0.1-0.3,0.1-0.6,0.1-0.8V561.2z"/>
		<path fill="#242424" d="M558,551.3v3.2h3.5v1.9H558v7.3c0,1.7,0.5,2.6,1.8,2.6c0.7,0,1.1-0.1,1.4-0.2l0.1,1.9
			c-0.5,0.2-1.2,0.3-2.2,0.3c-1.1,0-2.1-0.4-2.7-1c-0.7-0.8-1-2-1-3.6v-7.4h-2.1v-1.9h2.1v-2.5L558,551.3z"/>
		<path fill="#242424" d="M567.1,550.8c0,0.8-0.6,1.5-1.6,1.5c-0.9,0-1.5-0.7-1.5-1.5c0-0.8,0.6-1.5,1.5-1.5
			C566.5,549.2,567.1,549.9,567.1,550.8z M564.3,568.1v-13.6h2.5v13.6H564.3z"/>
		<path fill="#242424" d="M580.5,567.6c-0.6,0.3-2.1,0.8-3.9,0.8c-4.1,0-6.7-2.8-6.7-6.9c0-4.2,2.9-7.2,7.3-7.2
			c1.5,0,2.7,0.4,3.4,0.7l-0.6,1.9c-0.6-0.3-1.5-0.6-2.9-0.6c-3.1,0-4.8,2.3-4.8,5.1c0,3.1,2,5.1,4.7,5.1c1.4,0,2.3-0.3,3-0.6
			L580.5,567.6z"/>
		<path fill="#242424" d="M593.3,549.3h2.5v12.6c0,5-2.5,6.6-5.7,6.6c-0.9,0-2-0.2-2.6-0.4l0.3-2c0.5,0.2,1.2,0.4,2.1,0.4
			c2.2,0,3.4-1,3.4-4.7V549.3z"/>
		<path fill="#242424" d="M609.2,564.9c0,1.2,0.1,2.3,0.2,3.2h-2.2l-0.2-1.7h-0.1c-0.8,1.1-2.2,2-4.1,2c-2.7,0-4.1-1.9-4.1-3.9
			c0-3.3,2.9-5.1,8.1-5v-0.3c0-1.1-0.3-3.1-3.1-3.1c-1.3,0-2.6,0.4-3.6,1l-0.6-1.7c1.1-0.7,2.8-1.2,4.5-1.2c4.1,0,5.2,2.8,5.2,5.5
			V564.9z M606.9,561.2c-2.7-0.1-5.7,0.4-5.7,3.1c0,1.6,1.1,2.4,2.3,2.4c1.8,0,2.9-1.1,3.3-2.3c0.1-0.3,0.1-0.6,0.1-0.8V561.2z"/>
		<path fill="#242424" d="M613.2,559c0-1.7-0.1-3.1-0.1-4.4h2.2l0.1,2.3h0.1c1-1.7,2.6-2.6,4.8-2.6c3.3,0,5.8,2.8,5.8,6.9
			c0,4.9-3,7.3-6.2,7.3c-1.8,0-3.4-0.8-4.2-2.1h-0.1v7.4h-2.4V559z M615.6,562.6c0,0.4,0,0.7,0.1,1c0.4,1.7,1.9,2.9,3.7,2.9
			c2.6,0,4.1-2.1,4.1-5.2c0-2.7-1.4-5-4-5c-1.7,0-3.3,1.2-3.7,3c-0.1,0.3-0.2,0.7-0.2,1V562.6z"/>
		<path fill="#242424" d="M638.7,564.9c0,1.2,0.1,2.3,0.2,3.2h-2.2l-0.2-1.7h-0.1c-0.8,1.1-2.2,2-4.1,2c-2.7,0-4.1-1.9-4.1-3.9
			c0-3.3,2.9-5.1,8.1-5v-0.3c0-1.1-0.3-3.1-3.1-3.1c-1.3,0-2.6,0.4-3.6,1l-0.6-1.7c1.1-0.7,2.8-1.2,4.5-1.2c4.1,0,5.2,2.8,5.2,5.5
			V564.9z M636.3,561.2c-2.7-0.1-5.7,0.4-5.7,3.1c0,1.6,1.1,2.4,2.3,2.4c1.8,0,2.9-1.1,3.3-2.3c0.1-0.3,0.1-0.6,0.1-0.8V561.2z"/>
		<path fill="#242424" d="M642.6,558.2c0-1.4,0-2.5-0.1-3.7h2.2l0.1,2.2h0.1c0.7-1.3,2.2-2.5,4.5-2.5c1.9,0,4.8,1.1,4.8,5.8v8.1
			h-2.5v-7.8c0-2.2-0.8-4-3.1-4c-1.6,0-2.9,1.1-3.3,2.5c-0.1,0.3-0.2,0.7-0.2,1.1v8.1h-2.5V558.2z"/>
		<path fill="#242424" d="M659.6,561.8c0.1,3.3,2.2,4.7,4.6,4.7c1.8,0,2.9-0.3,3.8-0.7l0.4,1.8c-0.9,0.4-2.4,0.9-4.5,0.9
			c-4.2,0-6.7-2.8-6.7-6.9s2.4-7.3,6.4-7.3c4.5,0,5.6,3.9,5.6,6.4c0,0.5,0,0.9-0.1,1.1H659.6z M666.8,560c0-1.5-0.6-4-3.4-4
			c-2.5,0-3.6,2.3-3.8,4H666.8z"/>
		<path fill="#242424" d="M671.9,565.6c0.8,0.4,2,1,3.3,1c1.8,0,2.6-0.9,2.6-2c0-1.2-0.7-1.8-2.5-2.5c-2.5-0.9-3.6-2.2-3.6-3.8
			c0-2.2,1.8-4,4.7-4c1.4,0,2.6,0.4,3.3,0.8l-0.6,1.8c-0.5-0.3-1.5-0.8-2.8-0.8c-1.5,0-2.2,0.8-2.2,1.8c0,1.1,0.8,1.6,2.5,2.3
			c2.3,0.9,3.6,2,3.6,4.1c0,2.4-1.9,4.1-5,4.1c-1.5,0-2.9-0.4-3.8-1L671.9,565.6z"/>
		<path fill="#242424" d="M684.7,561.8c0.1,3.3,2.2,4.7,4.6,4.7c1.8,0,2.9-0.3,3.8-0.7l0.4,1.8c-0.9,0.4-2.4,0.9-4.5,0.9
			c-4.2,0-6.7-2.8-6.7-6.9s2.4-7.3,6.4-7.3c4.5,0,5.6,3.9,5.6,6.4c0,0.5,0,0.9-0.1,1.1H684.7z M691.9,560c0-1.5-0.6-4-3.4-4
			c-2.5,0-3.6,2.3-3.8,4H691.9z"/>
		<path fill="#242424" d="M717.7,567.3c-1.1,0.4-3.3,1-5.8,1c-2.9,0-5.2-0.7-7.1-2.5c-1.6-1.6-2.6-4.1-2.6-7c0-5.6,3.9-9.7,10.2-9.7
			c2.2,0,3.9,0.5,4.7,0.9l-0.6,2c-1-0.5-2.3-0.8-4.2-0.8c-4.6,0-7.6,2.9-7.6,7.6c0,4.8,2.9,7.6,7.3,7.6c1.6,0,2.7-0.2,3.2-0.5v-5.6
			h-3.8v-2h6.2V567.3z"/>
		<path fill="#242424" d="M721.3,558.8c0-1.6,0-3-0.1-4.2h2.2l0.1,2.7h0.1c0.6-1.8,2.1-3,3.8-3c0.3,0,0.4,0,0.7,0.1v2.3
			c-0.3-0.1-0.5-0.1-0.8-0.1c-1.7,0-3,1.3-3.3,3.1c-0.1,0.3-0.1,0.8-0.1,1.1v7.2h-2.5V558.8z"/>
		<path fill="#242424" d="M739.9,564.9c0,1.2,0.1,2.3,0.2,3.2h-2.2l-0.2-1.7h-0.1c-0.8,1.1-2.2,2-4.1,2c-2.7,0-4.1-1.9-4.1-3.9
			c0-3.3,2.9-5.1,8.1-5v-0.3c0-1.1-0.3-3.1-3.1-3.1c-1.3,0-2.6,0.4-3.6,1l-0.6-1.7c1.1-0.7,2.8-1.2,4.5-1.2c4.1,0,5.2,2.8,5.2,5.5
			V564.9z M737.5,561.2c-2.7-0.1-5.7,0.4-5.7,3.1c0,1.6,1.1,2.4,2.3,2.4c1.8,0,2.9-1.1,3.3-2.3c0.1-0.3,0.1-0.6,0.1-0.8V561.2z"/>
		<path fill="#242424" d="M743.9,558.2c0-1.4-0.1-2.5-0.1-3.7h2.2l0.1,2.2h0.1c0.8-1.3,2-2.5,4.3-2.5c1.8,0,3.2,1.1,3.8,2.7h0.1
			c0.4-0.8,1-1.3,1.5-1.8c0.8-0.6,1.7-1,3-1c1.8,0,4.5,1.2,4.5,5.9v8h-2.4v-7.6c0-2.6-1-4.2-2.9-4.2c-1.4,0-2.5,1-2.9,2.2
			c-0.1,0.4-0.2,0.8-0.2,1.2v8.4h-2.4V560c0-2.2-1-3.7-2.8-3.7c-1.5,0-2.7,1.2-3.1,2.5c-0.1,0.3-0.2,0.8-0.2,1.2v8.1h-2.4V558.2z"/>
		<path fill="#242424" d="M767.2,558.2c0-1.4-0.1-2.5-0.1-3.7h2.2l0.1,2.2h0.1c0.8-1.3,2-2.5,4.3-2.5c1.8,0,3.2,1.1,3.8,2.7h0.1
			c0.4-0.8,1-1.3,1.5-1.8c0.8-0.6,1.7-1,3-1c1.8,0,4.5,1.2,4.5,5.9v8h-2.4v-7.6c0-2.6-1-4.2-2.9-4.2c-1.4,0-2.5,1-2.9,2.2
			c-0.1,0.4-0.2,0.8-0.2,1.2v8.4h-2.4V560c0-2.2-1-3.7-2.8-3.7c-1.5,0-2.7,1.2-3.1,2.5c-0.1,0.3-0.2,0.8-0.2,1.2v8.1h-2.4V558.2z"/>
		<path fill="#242424" d="M800.1,564.9c0,1.2,0.1,2.3,0.2,3.2h-2.2l-0.2-1.7h-0.1c-0.8,1.1-2.2,2-4.1,2c-2.7,0-4.1-1.9-4.1-3.9
			c0-3.3,2.9-5.1,8.1-5v-0.3c0-1.1-0.3-3.1-3.1-3.1c-1.3,0-2.6,0.4-3.6,1l-0.6-1.7c1.1-0.7,2.8-1.2,4.5-1.2c4.1,0,5.2,2.8,5.2,5.5
			V564.9z M797.7,561.2c-2.7-0.1-5.7,0.4-5.7,3.1c0,1.6,1.1,2.4,2.3,2.4c1.8,0,2.9-1.1,3.3-2.3c0.1-0.3,0.1-0.6,0.1-0.8V561.2z"/>
		<path fill="#242424" d="M804.1,558.8c0-1.6,0-3-0.1-4.2h2.2l0.1,2.7h0.1c0.6-1.8,2.1-3,3.8-3c0.3,0,0.4,0,0.7,0.1v2.3
			c-0.3-0.1-0.5-0.1-0.8-0.1c-1.7,0-3,1.3-3.3,3.1c-0.1,0.3-0.1,0.8-0.1,1.1v7.2h-2.5V558.8z"/>
	</g>
</g>
</svg>
