<?xml version="1.0" encoding="utf-8"?>
<!-- Generator: Adobe Illustrator 15.0.0, SVG Export Plug-In . SVG Version: 6.00 Build 0)  -->
<!DOCTYPE svg PUBLIC "-//W3C//DTD SVG 1.1//EN" "http://www.w3.org/Graphics/SVG/1.1/DTD/svg11.dtd">
<svg version="1.1" id="Capa_1" xmlns="http://www.w3.org/2000/svg" xmlns:xlink="http://www.w3.org/1999/xlink" x="0px" y="0px"
	 width="181.902px" height="201.1px" viewBox="0 0 181.902 201.1" enable-background="new 0 0 181.902 201.1" xml:space="preserve">
<g>
	<g>
		<g>
			<path fill="#2B2B2B" d="M159.319,81.863h-14.726V55.009h-17.715v26.854H57.496V41.84H39.784v40.021H25.056
				c-1.929,0-3.491,1.563-3.491,3.49v6.723c0,1.931,1.563,3.491,3.491,3.491h14.728v64.268c0,2.006,1.916,3.629,4.275,3.629h9.156
				c2.363,0,4.278-1.623,4.278-3.629V95.567h69.382v64.267c0,2.006,1.916,3.629,4.275,3.629h9.156c2.364,0,4.276-1.623,4.276-3.629
				V95.567h14.728c1.93,0,3.489-1.563,3.489-3.49v-6.723C162.811,83.427,161.248,81.863,159.319,81.863z"/>
			<rect x="28.178" y="81.865" opacity="0.4" enable-background="new    " width="11.605" height="13.704"/>
			<rect x="115.272" y="81.865" opacity="0.4" enable-background="new    " width="11.606" height="13.704"/>
			<path opacity="0.4" enable-background="new    " d="M69.101,81.865H57.495v-0.001l0,0V41.841h-7.889v33.396l0,0v84.595
				c0,2.002-1.909,3.625-4.269,3.629h7.877c2.363,0,4.278-1.623,4.278-3.629V95.569h11.605V81.865H69.101z"/>
			<path opacity="0.4" enable-background="new    " d="M156.201,81.865h-11.6l-8.011-0.001h0.123v77.97
				c0,2.002-1.909,3.623-4.271,3.629h7.879c2.363,0,4.275-1.624,4.275-3.629V95.569h11.6L156.201,81.865L156.201,81.865z"/>
		</g>
		<g>
			<g>
				<path fill="#FFAA51" d="M152.014,49.725L152.014,49.725c8.319,8.213,8.407,21.618,0.192,29.938l-5.192,5.263
					c-4.105,4.162-10.812,4.206-14.972,0.098l0,0c-4.162-4.105-4.205-10.809-0.1-14.969L152.014,49.725z"/>
				<path fill="#FFAA51" d="M120.391,26.647L120.391,26.647c-5.813-10.146-18.746-13.66-28.892-7.849l-6.418,3.675
					c-5.072,2.905-6.83,9.374-3.924,14.446l0,0c2.904,5.072,9.372,6.83,14.446,3.924L120.391,26.647z"/>
				<path fill="#FFAA51" d="M10.221,45.215L10.221,45.215c-1.027,1.353-0.765,3.282,0.589,4.31l9.714,7.375
					c10.18,7.729,24.691,5.742,32.422-4.436l3.721-4.899c7.729-10.178,5.742-24.691-4.437-32.421l-9.715-7.375
					c-1.354-1.026-3.283-0.763-4.311,0.59l0,0c-7.729,10.181-5.741,24.693,4.437,32.423C32.465,33.052,17.95,35.037,10.221,45.215z"
					/>
			</g>
			<g>
				<path opacity="0.3" fill="#DE7404" enable-background="new    " d="M45.821,53.951l3.138,2.605
					c1.461-1.168,2.806-2.534,3.987-4.091l3.72-4.899c1.318-1.736,2.351-3.604,3.109-5.54c-1.399-0.581-2.774-1.266-4.113-2.056
					c-3.747-2.211-8.56-1.266-11.188,2.199l0,0C41.697,45.823,42.292,51.016,45.821,53.951z"/>
				<path opacity="0.3" fill="#DE7404" enable-background="new    " d="M95.604,40.844l24.787-14.196l0,0
					c-2.744-4.793-7.082-8.104-11.961-9.651l-10.729,14.13c-3.428,4.509-7.972,7.718-12.978,9.507
					C87.927,42.632,92.098,42.852,95.604,40.844z"/>
				<path opacity="0.3" fill="#DE7404" enable-background="new    " d="M129.115,79.635c10.563-3.348,20.516-8.854,29.137-16.415
					c-0.364-4.927-2.44-9.75-6.233-13.494l-20.064,20.331C129.365,72.67,128.426,76.288,129.115,79.635z"/>
			</g>
			<path fill="#FF9729" d="M117.836,11.941l-16.602,21.867c-10.032,13.21-28.365,16.813-42.65,8.383l0,0
				c-3.747-2.212-8.558-1.266-11.188,2.199l0,0c-2.774,3.656-2.182,8.848,1.351,11.781l6.048,5.024
				C88.709,89.38,139.278,83.592,165.949,48.47l0,0c10.086-13.285,7.492-32.233-5.791-42.32
				C146.873-3.938,127.926-1.344,117.836,11.941z"/>
			<path fill="#DE7404" d="M139.596,33.733c7.405,5.623,8.549,18.854,20.803,21.27c1.944-2.052,3.799-4.228,5.551-6.53l0,0
				c10.086-13.285,7.492-32.232-5.789-42.32c-13.285-10.088-32.234-7.496-42.322,5.79l-4.83,6.36
				C118.305,30.723,131.953,27.932,139.596,33.733z"/>
			<path opacity="0.1" enable-background="new    " d="M48.649,56.089c0.033,0.026,0.063,0.056,0.098,0.083l6.048,5.024
				C88.71,89.38,139.278,83.592,165.949,48.47l0,0c10.088-13.285,7.492-32.233-5.791-42.319c-1.709-1.299-3.516-2.383-5.383-3.266
				c8.156,10.538,8.604,25.622,0.158,36.742l0,0C129.52,73.103,82.381,79.931,48.649,56.089z"/>
		</g>
	</g>
	<g>
		<path fill="#FF9729" d="M0,199.126v-27.302c0-0.446,0.188-0.841,0.565-1.177s0.875-0.504,1.491-0.504h8.441
			c2.883,0,5.191,0.765,6.931,2.289c1.734,1.525,2.604,3.913,2.604,7.161v0.252c0,3.276-0.903,5.686-2.71,7.224
			c-1.807,1.541-4.193,2.313-7.16,2.313H5.46v9.743c0,0.532-0.272,0.953-0.818,1.261c-0.546,0.311-1.185,0.462-1.911,0.462
			c-0.756,0-1.398-0.151-1.933-0.462C0.265,200.079,0,199.658,0,199.126z M5.46,185.097h4.704c1.398,0,2.482-0.405,3.255-1.218
			c0.771-0.813,1.154-2.019,1.154-3.612v-0.504c0-1.596-0.386-2.8-1.154-3.611c-0.771-0.813-1.854-1.219-3.255-1.219H5.46V185.097z"
			/>
		<path fill="#FF9729" d="M25.094,199.126v-27.302c0-0.446,0.169-0.841,0.505-1.177s0.756-0.504,1.26-0.504h8.315
			c6.637,0,9.954,2.929,9.954,8.778c0,2.296-0.498,4.146-1.49,5.544c-0.994,1.399-2.331,2.352-4.012,2.854l5.502,10.205
			c0.141,0.168,0.21,0.396,0.21,0.673c0,0.7-0.363,1.354-1.092,1.952c-0.729,0.604-1.498,0.903-2.312,0.903
			c-0.813,0-1.44-0.435-1.891-1.302l-5.964-11.592h-3.526v10.961c0,0.531-0.268,0.952-0.799,1.261
			c-0.531,0.31-1.176,0.462-1.932,0.462c-0.729,0-1.365-0.152-1.911-0.462C25.368,200.079,25.094,199.658,25.094,199.126z
			 M30.554,183.88h4.619c2.996,0,4.494-1.484,4.494-4.452c0-2.996-1.499-4.494-4.494-4.494h-4.619V183.88z"/>
		<path fill="#FF9729" d="M49.267,198.424c0-0.063,0.027-0.21,0.084-0.449l8.113-26.416c0.168-0.529,0.581-0.938,1.239-1.229
			c0.657-0.291,1.405-0.438,2.247-0.438c0.84,0,1.596,0.161,2.27,0.483c0.672,0.32,1.092,0.773,1.26,1.361l8.104,26.418
			c0.057,0.228,0.084,0.364,0.084,0.424c0,0.613-0.378,1.146-1.134,1.596c-0.757,0.447-1.526,0.672-2.312,0.672
			c-1.036,0-1.651-0.363-1.85-1.092l-1.597-5.586h-8.998l-1.564,5.589c-0.222,0.726-0.915,1.089-2.082,1.089
			c-0.915,0-1.789-0.229-2.62-0.695C49.682,199.688,49.267,199.113,49.267,198.424z M57.982,189.885h7.265l-3.654-12.896
			L57.982,189.885z"/>
		<path fill="#FF9729" d="M77.063,191.481v-11.718c0-3.305,0.896-5.731,2.688-7.287c1.791-1.554,4.13-2.331,7.015-2.331
			c2.939,0,5.34,0.729,7.204,2.187c1.86,1.457,2.793,3.389,2.793,5.797c0,1.035-0.212,1.742-0.632,2.121
			c-0.42,0.377-1.118,0.563-2.1,0.563c-1.793,0-2.703-0.572-2.73-1.722c-0.027-0.363-0.063-0.68-0.104-0.945
			c-0.042-0.266-0.153-0.614-0.337-1.05c-0.183-0.435-0.413-0.798-0.691-1.092c-0.279-0.294-0.699-0.546-1.26-0.757
			c-0.563-0.209-1.221-0.314-1.977-0.314c-2.938,0-4.41,1.609-4.41,4.83v11.718c0,3.224,1.498,4.83,4.494,4.83
			c0.896,0,1.646-0.14,2.247-0.42c0.604-0.278,1.035-0.679,1.302-1.196c0.269-0.519,0.448-0.979,0.548-1.387
			c0.099-0.404,0.159-0.901,0.188-1.491c0.083-1.146,0.98-1.722,2.689-1.722c0.979,0,1.686,0.188,2.121,0.566
			c0.434,0.379,0.65,1.086,0.65,2.12c0,2.521-0.933,4.534-2.793,6.05c-1.863,1.512-4.28,2.268-7.248,2.268
			c-2.885,0-5.216-0.776-6.993-2.331C77.952,197.215,77.063,194.785,77.063,191.481z"/>
		<path fill="#FF9729" d="M100.496,172.519c0-0.628,0.146-1.18,0.439-1.656c0.295-0.479,0.723-0.718,1.28-0.718h17.767
			c0.563,0,0.985,0.239,1.281,0.718c0.295,0.479,0.44,1.028,0.44,1.656c0,0.654-0.154,1.222-0.463,1.698
			c-0.311,0.477-0.729,0.716-1.262,0.716h-6.131v24.185c0,0.534-0.271,0.957-0.82,1.269c-0.545,0.312-1.184,0.464-1.908,0.464
			c-0.758,0-1.399-0.152-1.934-0.464c-0.533-0.312-0.799-0.729-0.799-1.269v-24.185h-6.175c-0.532,0-0.953-0.229-1.26-0.695
			C100.649,173.774,100.496,173.204,100.496,172.519z"/>
		<path fill="#FF9729" d="M126.59,199.126v-27.302c0-0.561,0.267-0.979,0.8-1.261c0.53-0.278,1.176-0.42,1.934-0.42
			s1.396,0.143,1.934,0.42c0.531,0.28,0.8,0.7,0.8,1.261v27.302c0,0.532-0.273,0.953-0.82,1.261
			c-0.545,0.311-1.185,0.462-1.91,0.462c-0.756,0-1.4-0.151-1.932-0.462C126.856,200.079,126.59,199.658,126.59,199.126z"/>
		<path fill="#FF9729" d="M137.916,191.481v-11.718c0-3.305,0.896-5.731,2.689-7.287c1.791-1.554,4.129-2.331,7.014-2.331
			c2.939,0,5.34,0.729,7.203,2.187c1.861,1.457,2.793,3.389,2.793,5.797c0,1.035-0.211,1.742-0.631,2.121
			c-0.42,0.377-1.119,0.563-2.101,0.563c-1.793,0-2.702-0.572-2.729-1.722c-0.027-0.363-0.063-0.68-0.104-0.945
			c-0.043-0.266-0.153-0.614-0.336-1.05c-0.186-0.435-0.414-0.798-0.692-1.092c-0.281-0.294-0.701-0.546-1.261-0.757
			c-0.561-0.209-1.219-0.314-1.975-0.314c-2.938,0-4.41,1.609-4.41,4.83v11.718c0,3.224,1.498,4.83,4.494,4.83
			c0.896,0,1.646-0.14,2.246-0.42c0.602-0.278,1.033-0.679,1.303-1.196c0.267-0.519,0.447-0.979,0.547-1.387
			c0.099-0.404,0.16-0.901,0.188-1.491c0.084-1.146,0.979-1.722,2.688-1.722c0.979,0,1.687,0.188,2.121,0.566
			c0.435,0.379,0.648,1.086,0.648,2.12c0,2.521-0.935,4.534-2.793,6.05c-1.861,1.512-4.275,2.268-7.244,2.268
			c-2.887,0-5.219-0.776-6.992-2.331C138.805,197.215,137.916,194.785,137.916,191.481z"/>
		<path fill="#FF9729" d="M162.834,199.126v-27.259c0-0.53,0.238-0.95,0.715-1.262c0.478-0.308,1.035-0.462,1.681-0.462h14.953
			c0.563,0,0.985,0.238,1.28,0.714c0.293,0.479,0.439,1.022,0.439,1.642c0,0.672-0.154,1.246-0.461,1.722
			c-0.31,0.479-0.729,0.714-1.26,0.714h-11.888v8.4h6.386c0.53,0,0.95,0.217,1.26,0.647c0.307,0.437,0.461,0.945,0.461,1.533
			c0,0.532-0.146,1.018-0.441,1.449c-0.293,0.435-0.721,0.647-1.278,0.647h-6.386v8.442h11.888c0.53,0,0.95,0.238,1.26,0.714
			c0.311,0.479,0.461,1.051,0.461,1.725c0,0.615-0.146,1.16-0.438,1.639c-0.295,0.477-0.723,0.714-1.28,0.714h-14.953
			c-0.646,0-1.203-0.153-1.681-0.462C163.074,200.079,162.834,199.658,162.834,199.126z"/>
	</g>
</g>
</svg>
