<?xml version="1.0" encoding="utf-8"?>
<!-- Generator: Adobe Illustrator 15.0.0, SVG Export Plug-In . SVG Version: 6.00 Build 0)  -->
<!DOCTYPE svg PUBLIC "-//W3C//DTD SVG 1.1//EN" "http://www.w3.org/Graphics/SVG/1.1/DTD/svg11.dtd">
<svg version="1.1" id="Capa_1" xmlns="http://www.w3.org/2000/svg" xmlns:xlink="http://www.w3.org/1999/xlink" x="0px" y="0px"
	 width="279.998px" height="199.152px" viewBox="0 0 279.998 199.152" enable-background="new 0 0 279.998 199.152"
	 xml:space="preserve">
<g>
	<path fill="#2B2B2B" d="M73.039,104.189c-0.992,0.641-0.54,1.115-0.305,1.42c2.36,3.055,3.87,6.699,3.979,10.367
		c0.002,0.084,0.006,0.18,0.006,0.278c0,0.367,0.154,1.181,1.203,0.66c7.813-4.092,14.783-7.52,25.131-12.057
		c1.236-0.73,0.688-1.303,0.555-1.742c-0.741-2.418-1.022-5-0.812-7.514c0.15-1.751,0.513-3.393,1.062-4.896
		c0.139-0.382-0.043-0.908-1.338-0.362C90.229,95.519,82.164,99.464,73.039,104.189z"/>
	<path fill="#2B2B2B" d="M45.697,73.085c3.035-0.435,4.001-0.668,6.932-1.025c1.556-0.17,2.44-0.803,2.282-1.332
		c-0.593-1.999-2.39-4.515-2.231-6.594c0.025-0.333,0.163-0.996-0.692-0.879c-2.751,0.385-4.9,0.729-7.6,1.191
		c-0.307,0.051-0.998,0.234-0.836,0.742l1.289,7.427C44.846,72.615,44.909,73.197,45.697,73.085z"/>
	<path fill="#2B2B2B" d="M98.49,62.796c0.838,0.938,1.499,1.805,1.938,2.561c0.573,0.99,1.008,2.055,1.31,3.17
		c0.096,0.35,0.165,1.075,1.168,1.075c7.743,0.149,13.762,0.793,19.692,1.656c7.776,1.133,13.506,2.417,18.92,3.954
		c0.563,0.271,0.516,0.417-0.117,0.629c-0.572,0.245,0.043,0.835,0.437,1.146c3.468,2.689,6.167,6.4,7.319,10.434
		c0.131,0.459,0.354,1.315,1.843,0.996c3.928-0.84,7.84-1.73,11.767-2.563c3.948-0.839,7.905-1.643,11.877-2.38
		c4.013-0.741,8.035-1.421,12.075-2c4.095-0.587,8.201-1.074,12.324-1.438c4.183-0.371,8.377-0.61,12.575-0.711
		c4.263-0.104,8.531-0.057,12.793,0.138c4.329,0.197,8.646,0.548,12.954,1.039c4.372,0.495,8.727,1.134,13.063,1.884
		c4.389,0.76,8.758,1.63,13.111,2.564c4.393,0.945,8.768,1.956,13.139,2.98c0.85,0.198,1.881,1.063,2.777,0.798
		c0.941-0.278,0.369-2.821,0.369-3.535c0-1.468,0-2.938,0-4.402c0-1.744,0.001-3.485,0-5.229c0-1.434,0.001-2.862,0-4.29
		c0-0.645-0.021-1.284,0.029-1.925c0.033-0.435,0.186-1.074-0.051-1.473c-0.268-0.453-1.207-0.498-1.656-0.604
		c-0.887-0.214-1.76-0.496-2.642-0.733c-1.993-0.533-4-1.01-6.015-1.457c-3.352-0.742-6.729-1.331-10.126-1.822
		c-2.14-0.309-4.32-0.708-6.479-0.834c-1.656-0.098-2.813-0.828-3.269-1.146c-1.741-1.216-3.433-2.526-5.095-3.843
		c-1.881-1.49-3.705-3.042-5.475-4.662c-2.002-1.833-3.929-3.755-5.75-5.771c-1.988-2.202-3.846-4.521-5.566-6.938
		c-1.463-2.051-2.857-4.155-4.17-6.306c-0.36-0.592-0.65-1.229-1.049-1.802c-0.184-0.265-0.441-0.68-0.816-0.602
		c-0.361,0.07-0.709,0.559-0.963,0.794c-0.447,0.402-0.934,0.769-1.428,1.105c-1.01,0.69-2.02,1.354-3.164,1.789
		c-1.084,0.415-2.185,0.635-3.322,0.813c-0.383,0.059-0.926,0.131-1.115,0.521c-0.217,0.451,0.126,0.932,0.332,1.313
		c0.247,0.459,0.462,0.936,0.676,1.411c0.424,0.942,0.869,1.884,1.307,2.818c0.82,1.752,1.695,3.479,2.643,5.17
		c1.715,3.073,3.622,6.053,5.824,8.802c1.1,1.371,2.25,2.73,3.479,3.987c0.308,0.314,0.695,0.729-0.312,0.917
		c-11.967,0-23.026,0.98-35.594,2.949c-5.879,0.922-11.828,2.073-17.828,3.423c-0.662,0.153-1.486,0.279-3.154,0.279
		c-13.028-1.983-30.807-4.625-44.526-6.661c-7.047-1.047-15.394-1.771-24.865-1.803c-0.922,0.014-1.01,0.41-1.064,0.619
		c-0.165,0.626-0.377,1.243-0.656,1.855C97.889,61.658,97.957,62.202,98.49,62.796z"/>
	<g>
		<g>
			<path fill="#FFBE7A" d="M188.388,31.748c1.859,1.886,1.84,4.922-0.046,6.783l0,0c-1.886,1.858-4.922,1.842-6.782-0.043
				l-2.354-2.386c-3.724-3.771-3.685-9.848,0.088-13.566l0,0L188.388,31.748z"/>
			<path fill="#FFBE7A" d="M204.854,18.51c2.301,1.316,5.229,0.521,6.547-1.775l0,0c1.315-2.3,0.521-5.23-1.776-6.547l-2.91-1.665
				c-4.596-2.637-10.459-1.042-13.091,3.558l0,0L204.854,18.51z"/>
			<path fill="#FFBE7A" d="M228.854,18.482c4.61-3.503,5.513-10.079,2.012-14.691l0,0c-0.467-0.613-1.342-0.732-1.954-0.267
				l-4.399,3.342c-4.613,3.501-5.514,10.079-2.011,14.689l1.687,2.223c3.504,4.61,10.08,5.513,14.69,2.011l4.402-3.341
				c0.61-0.465,0.729-1.34,0.266-1.953l0,0C240.046,15.879,233.469,14.979,228.854,18.482z"/>
		</g>
		<g>
			<path opacity="0.3" fill="#DE7404" enable-background="new    " d="M228.024,19.111L228.024,19.111
				c-1.191-1.571-3.373-1.998-5.069-0.996c-0.604,0.357-1.229,0.669-1.863,0.934c0.345,0.876,0.813,1.724,1.408,2.51l1.688,2.223
				c0.537,0.708,1.146,1.327,1.808,1.854l1.422-1.184C229.015,23.12,229.284,20.768,228.024,19.111z"/>
			<path opacity="0.3" fill="#DE7404" enable-background="new    " d="M209.784,18.413c-2.27-0.811-4.327-2.265-5.879-4.308
				l-4.862-6.403c-2.212,0.701-4.178,2.201-5.421,4.373l0,0l11.232,6.435C206.442,19.419,208.334,19.321,209.784,18.413z"/>
			<path opacity="0.3" fill="#DE7404" enable-background="new    " d="M188.388,31.748l-9.098-9.213
				c-1.719,1.697-2.657,3.882-2.825,6.115c3.906,3.426,8.418,5.921,13.204,7.438C189.979,34.572,189.556,32.931,188.388,31.748z"/>
		</g>
		<path fill="#FF9729" d="M175.603,2.788c-6.021,4.571-7.194,13.157-2.625,19.177l0,0c12.086,15.917,35.002,18.541,50.371,5.771
			l2.739-2.278c1.601-1.328,1.869-3.68,0.611-5.339l0,0c-1.191-1.57-3.371-1.998-5.071-0.995l0,0
			c-6.473,3.818-14.779,2.189-19.324-3.798l-7.523-9.91C190.209-0.607,181.621-1.783,175.603,2.788z"/>
		<path fill="#DE7404" d="M196.969,8.294l-2.188-2.883c-4.569-6.021-13.157-7.195-19.181-2.623
			c-6.021,4.57-7.192,13.158-2.621,19.179l0,0c0.793,1.046,1.635,2.028,2.516,2.958c5.552-1.095,6.07-7.09,9.428-9.637
			C188.383,12.657,194.565,13.923,196.969,8.294z"/>
		<path opacity="0.1" enable-background="new    " d="M177.969,17.959L177.969,17.959c-3.825-5.039-3.625-11.875,0.071-16.646
			c-0.85,0.397-1.663,0.891-2.439,1.479c-6.021,4.571-7.192,13.157-2.623,19.177l0,0c12.086,15.917,35.002,18.541,50.371,5.771
			l2.739-2.277c0.017-0.013,0.028-0.022,0.042-0.038C210.849,36.223,189.485,33.129,177.969,17.959z"/>
	</g>
	<g>
		<g>
			<path fill="#FFAA51" d="M118.948,124.072c1.082,4.061-1.336,8.229-5.4,9.313l0,0c-4.063,1.082-8.234-1.338-9.313-5.397
				l-1.367-5.144c-2.162-8.127,2.677-16.465,10.8-18.627l0,0L118.948,124.072z"/>
			<path fill="#FFAA51" d="M152.062,118.793c2.133,3.625,6.799,4.834,10.42,2.703l0,0c3.625-2.131,4.838-6.799,2.707-10.422
				l-2.697-4.584c-4.266-7.249-13.596-9.667-20.842-5.404l0,0L152.062,118.793z"/>
			<path fill="#FFAA51" d="M185.156,137.644c9.11-1.195,15.528-9.554,14.334-18.664l0,0c-0.156-1.211-1.271-2.064-2.48-1.906
				l-8.694,1.143c-9.109,1.193-15.526,9.556-14.334,18.662l0.576,4.39c1.194,9.108,9.549,15.526,18.659,14.334l8.699-1.144
				c1.209-0.158,2.063-1.27,1.901-2.479l0,0C202.624,142.865,194.271,136.449,185.156,137.644z"/>
		</g>
		<g>
			<path opacity="0.3" fill="#DE7404" enable-background="new    " d="M183.519,137.857L183.519,137.857
				c-0.406-3.104-3.072-5.406-6.203-5.363c-1.116,0.019-2.222-0.047-3.306-0.184c-0.214,1.479-0.235,3.014-0.03,4.567l0.576,4.386
				c0.185,1.396,0.536,2.729,1.028,3.979l2.892-0.51C181.726,144.162,183.947,141.131,183.519,137.857z"/>
			<path opacity="0.3" fill="#DE7404" enable-background="new    " d="M158.931,122.539c-2.484-2.899-4.183-6.524-4.709-10.563
				l-1.66-12.649c-3.604-0.777-7.487-0.254-10.914,1.758l0,0l10.416,17.711C153.534,121.297,156.219,122.648,158.931,122.539z"/>
			<path opacity="0.3" fill="#DE7404" enable-background="new    " d="M118.948,124.072l-5.279-19.855
				c-3.703,0.986-6.719,3.261-8.707,6.205c2.684,7.795,6.938,14.783,12.338,20.646C118.924,129.219,119.626,126.625,118.948,124.072
				z"/>
		</g>
		<path fill="#FF9729" d="M124.124,74.102c-11.896,1.562-20.271,12.468-18.709,24.358l0,0c4.125,31.447,33.641,53.102,64.87,47.6
			l5.569-0.98c3.25-0.572,5.477-3.604,5.045-6.877l0,0c-0.407-3.104-3.073-5.408-6.2-5.363l0,0
			c-11.929,0.168-22.095-8.621-23.646-20.444l-2.563-19.58C146.928,80.918,136.02,72.541,124.124,74.102z"/>
		<path fill="#DE7404" d="M149.235,98.507l-0.75-5.692c-1.562-11.896-12.467-20.271-24.362-18.711
			c-11.893,1.563-20.271,12.468-18.708,24.359l0,0c0.271,2.064,0.652,4.083,1.136,6.061c8.514,2.858,13.945-4.992,20.575-5.861
			C133.969,97.763,141.496,104.377,149.235,98.507z"/>
		<path opacity="0.1" enable-background="new    " d="M115.444,96.87L115.444,96.87c-1.307-9.955,4.353-19.217,13.205-22.886
			c-1.483-0.116-2.994-0.081-4.525,0.119c-11.896,1.562-20.271,12.468-18.709,24.358l0,0c4.125,31.447,33.641,53.102,64.87,47.598
			l5.569-0.98c0.029-0.004,0.062-0.012,0.09-0.016C146.375,147.92,119.374,126.84,115.444,96.87z"/>
	</g>
	<g>
		<g>
			<path fill="#FFBE7A" d="M68.365,124.4L68.365,124.4c6.162,1.639,9.825,7.961,8.188,14.121l-1.037,3.896
				c-0.819,3.082-3.979,4.914-7.061,4.094l0,0c-3.081-0.817-4.911-3.979-4.094-7.059L68.365,124.4z"/>
			<path fill="#FFBE7A" d="M47.152,122.025L47.152,122.025c-5.495-3.232-12.568-1.398-15.801,4.098l-2.045,3.476
				c-1.616,2.745-0.698,6.284,2.05,7.899l0,0c2.747,1.615,6.283,0.699,7.899-2.049L47.152,122.025z"/>
			<path fill="#FFBE7A" d="M0.015,160.607L0.015,160.607c-0.121,0.918,0.525,1.762,1.443,1.883l6.594,0.863
				c6.909,0.905,13.243-3.959,14.15-10.867l0.436-3.324c0.907-6.908-3.959-13.244-10.867-14.147l-6.593-0.863
				c-0.919-0.121-1.76,0.522-1.882,1.44l0,0c-0.908,6.908,3.958,13.242,10.867,14.15C7.256,148.834,0.921,153.699,0.015,160.607z"/>
		</g>
		<g>
			<path opacity="0.3" fill="#DE7404" enable-background="new    " d="M19.231,155.117l2.191,0.385
				c0.376-0.949,0.642-1.959,0.781-3.016l0.436-3.326c0.154-1.178,0.138-2.342-0.025-3.463c-0.821,0.104-1.656,0.152-2.503,0.139
				c-2.372-0.03-4.394,1.715-4.703,4.068l0,0C15.081,152.383,16.767,154.681,19.231,155.117z"/>
			<path opacity="0.3" fill="#DE7404" enable-background="new    " d="M39.256,135.449l7.894-13.424l0,0
				c-2.596-1.525-5.545-1.922-8.274-1.334l-1.259,9.59c-0.401,3.061-1.687,5.809-3.571,8.01
				C36.104,138.373,38.139,137.347,39.256,135.449z"/>
			<path opacity="0.3" fill="#DE7404" enable-background="new    " d="M65.611,144.752c4.093-4.44,7.317-9.737,9.353-15.647
				c-1.507-2.234-3.792-3.955-6.603-4.703l-4.002,15.053C63.846,141.385,64.377,143.355,65.611,144.752z"/>
		</g>
		<path fill="#FF9729" d="M41.966,115.754l-1.947,14.845c-1.176,8.967-8.882,15.631-17.924,15.5l0,0
			c-2.373-0.033-4.396,1.717-4.705,4.065l0,0c-0.324,2.48,1.36,4.779,3.824,5.213l4.223,0.742
			c23.679,4.172,46.054-12.244,49.181-36.084l0,0c1.186-9.018-5.167-17.285-14.182-18.471
			C51.417,100.385,43.148,106.736,41.966,115.754z"/>
		<path fill="#DE7404" d="M58.161,120.187c5.026,0.658,9.146,6.612,15.6,4.44c0.366-1.496,0.657-3.026,0.861-4.592l0,0
			c1.184-9.018-5.169-17.285-14.184-18.471c-9.016-1.187-17.286,5.17-18.471,14.186l-0.566,4.318
			C47.267,124.519,52.972,119.508,58.161,120.187z"/>
		<path opacity="0.1" enable-background="new    " d="M21.147,155.363c0.023,0.004,0.043,0.01,0.069,0.014l4.223,0.744
			c23.678,4.172,46.055-12.244,49.182-36.084l0,0c1.184-9.018-5.167-17.285-14.184-18.471c-1.16-0.15-2.306-0.178-3.43-0.088
			c6.711,2.778,10.999,9.803,10.012,17.352l0,0C64.037,141.551,43.565,157.531,21.147,155.363z"/>
	</g>
	<g>
		<g>
			<path fill="#FFAA51" d="M71.776,75.479L71.776,75.479c-5.746,2.755-12.642,0.332-15.4-5.415l-1.745-3.638
				c-1.38-2.875-0.168-6.319,2.706-7.695l0,0c2.875-1.383,6.323-0.166,7.698,2.707L71.776,75.479z"/>
			<path fill="#FFAA51" d="M89.442,63.5L89.442,63.5c6.275-1.111,10.464-7.104,9.347-13.38l-0.703-3.97
				c-0.556-3.14-3.553-5.231-6.692-4.673l0,0c-3.137,0.555-5.229,3.551-4.674,6.688L89.442,63.5z"/>
			<path fill="#FFAA51" d="M100.205,3.545L100.205,3.545c-0.504-0.775-1.545-0.997-2.319-0.489L92.312,6.68
				c-5.844,3.8-7.498,11.611-3.697,17.452l1.829,2.813c3.801,5.839,11.614,7.496,17.454,3.692l5.574-3.624
				c0.776-0.507,0.996-1.546,0.491-2.319l0,0c-3.801-5.839-11.612-7.496-17.452-3.696C102.35,17.199,104.004,9.384,100.205,3.545z"
				/>
		</g>
		<g>
			<path opacity="0.3" fill="#DE7404" enable-background="new    " d="M89.166,20.203l-1.914,1.131
				c0.332,0.964,0.784,1.908,1.366,2.801l1.828,2.813c0.648,0.997,1.417,1.869,2.271,2.615c0.553-0.612,1.16-1.189,1.812-1.731
				c1.827-1.517,2.225-4.158,0.933-6.147l0,0C94.096,19.584,91.321,18.935,89.166,20.203z"/>
			<path opacity="0.3" fill="#DE7404" enable-background="new    " d="M86.723,48.165l2.722,15.334l0,0
				c2.967-0.523,5.463-2.139,7.157-4.36l-5.273-8.106c-1.684-2.587-2.493-5.512-2.488-8.409
				C87.219,43.895,86.337,45.995,86.723,48.165z"/>
			<path opacity="0.3" fill="#DE7404" enable-background="new    " d="M60.645,58.218c-0.226,6.036,0.766,12.159,3.058,17.977
				c2.597,0.718,5.455,0.544,8.074-0.713l-6.739-14.044C64.174,59.63,62.49,58.48,60.645,58.218z"/>
		</g>
		<path fill="#FF9729" d="M97.459,64.9l-8.163-12.548c-4.934-7.579-3.403-17.651,3.552-23.434l0,0
			c1.828-1.516,2.225-4.155,0.934-6.146l0,0c-1.364-2.1-4.139-2.749-6.295-1.479l-3.693,2.181
			C63.084,35.69,56.741,62.704,69.853,82.86l0,0c4.958,7.623,15.16,9.779,22.785,4.82C100.26,82.721,102.419,72.521,97.459,64.9z"/>
		<path fill="#DE7404" d="M82.268,72.05c-4.248,2.768-11.248,0.914-14.745,6.762c0.695,1.376,1.469,2.727,2.331,4.048l0,0
			c4.96,7.626,15.16,9.781,22.785,4.826c7.625-4.963,9.785-15.163,4.821-22.785l-2.374-3.649
			C87.734,61.679,86.656,69.197,82.268,72.05z"/>
		<path opacity="0.1" enable-background="new    " d="M87.547,21.26c-0.02,0.017-0.041,0.023-0.06,0.037l-3.694,2.178
			C63.083,35.69,56.74,62.704,69.852,82.86l0,0c4.958,7.623,15.16,9.779,22.785,4.821c0.98-0.641,1.869-1.364,2.668-2.16
			c-6.91,2.246-14.734-0.307-18.885-6.688l0,0C63.921,59.628,69.1,34.18,87.547,21.26z"/>
	</g>
	<path opacity="0.4" enable-background="new    " d="M279.828,80.791c0-0.188,0-0.379,0-0.569
		c-4.315-1.014-8.638-2.011-12.972-2.942c-4.354-0.938-8.726-1.808-13.112-2.564c-4.336-0.749-8.688-1.388-13.062-1.883
		c-4.309-0.49-8.627-0.841-12.955-1.039c-4.263-0.193-8.528-0.24-12.793-0.138c-4.199,0.101-8.396,0.341-12.576,0.711
		c-4.121,0.364-8.229,0.853-12.322,1.438c-4.04,0.578-8.064,1.258-12.077,1.998c-3.97,0.738-7.927,1.543-11.876,2.379
		c-3.928,0.832-7.84,1.727-11.768,2.564c-1.484,0.319-2.201-1.878-2.332-2.337c-1.764-6.174-8.799-8.25-14.299-9.598
		c-2.004-0.491-4.031-0.869-6.058-1.27c-4.246-0.833-8.526-1.436-12.823-1.926c-2.652-0.302-5.316-0.282-7.974-0.501
		c-1.707-0.141-3.946-0.37-5.33-1.489c-0.672-0.543-1.116-1.509-1.129-2.38c-0.009-0.633,0.31-1.598,0.063-2.174
		c-1.552-0.043-3.125-0.077-4.744-0.082c-0.922,0.014-1.01,0.41-1.063,0.618c-0.165,0.626-0.378,1.244-0.657,1.855
		c-0.078,0.191-0.009,0.735,0.522,1.33c0.838,0.938,1.499,1.806,1.938,2.56c0.573,0.989,1.008,2.055,1.309,3.17
		c0.096,0.35,0.165,1.074,1.168,1.074c7.744,0.149,13.762,0.791,19.691,1.657c7.776,1.133,13.506,2.417,18.919,3.954
		c0.563,0.271,0.517,0.417-0.115,0.629c-0.574,0.245,0.041,0.836,0.436,1.146c3.469,2.689,6.167,6.399,7.318,10.433
		c0.131,0.459,0.354,1.315,1.844,0.997c3.926-0.84,7.839-1.732,11.768-2.565c3.947-0.838,7.904-1.641,11.877-2.377
		c4.01-0.742,8.034-1.422,12.074-2c4.096-0.588,8.201-1.074,12.323-1.438c4.185-0.371,8.377-0.61,12.576-0.712
		c4.264-0.104,8.53-0.058,12.793,0.138c4.327,0.198,8.646,0.548,12.954,1.039c4.371,0.495,8.727,1.134,13.061,1.883
		c4.393,0.759,8.762,1.629,13.115,2.564c4.391,0.943,8.768,1.957,13.138,2.979c0.851,0.199,1.882,1.064,2.776,0.799
		c0.941-0.278,0.37-2.82,0.37-3.533C279.828,83.728,279.828,82.258,279.828,80.791z"/>
	<g opacity="0.4">
		<path d="M102.787,98.77c-10.201,4.478-12.088,4.726-19.833,8.78c-1.049,0.519-3.229,0.507-4.359-0.377
			c-1.775-1.391-2.552-1.905-3.551-4.012c-0.666,0.342-1.333,0.685-2.009,1.035c-0.992,0.641-0.54,1.117-0.306,1.418
			c2.361,3.057,3.871,6.701,3.98,10.367c0.002,0.086,0.006,0.182,0.008,0.276c0,0.369,0.152,1.185,1.201,0.662
			c7.813-4.09,14.783-7.52,25.131-12.055c1.236-0.732,0.688-1.301,0.555-1.742C103.169,101.715,102.899,100.248,102.787,98.77z"/>
	</g>
	<path opacity="0.4" enable-background="new    " d="M54.196,68.943c-0.226-0.274-2.403,0.057-2.791,0.069
		c-1.386,0.051-2.977,0.214-4.005-0.926c-0.297-0.327-1.383-3.918-1.393-3.917c-0.524,0.087-1.059,0.179-1.621,0.275
		c-0.307,0.051-0.999,0.233-0.836,0.742l1.289,7.427c0.005,0.001,0.068,0.582,0.855,0.47c3.035-0.434,4.002-0.668,6.932-1.026
		c1.556-0.169,2.44-0.802,2.282-1.331C54.744,70.165,54.481,69.564,54.196,68.943z"/>
	<path opacity="0.4" enable-background="new    " d="M225.665,60.813c-2.337,0-4.635,0.049-6.922,0.124
		c1.066,1.709,2.174,3.394,3.33,5.042c4.792-0.21,9.613-0.33,14.525-0.347c1.732-0.335,1.063-1.059,0.527-1.606
		c-2.125-2.192-4.12-4.569-6.023-6.964c-3.813-4.802-7.123-10.001-10.101-15.37c-1.303-2.354-2.526-4.751-3.69-7.178
		c-0.375,0.199-0.756,0.39-1.156,0.541c-1.088,0.414-2.184,0.635-3.324,0.813c-0.381,0.059-0.925,0.131-1.114,0.524
		c-0.218,0.447,0.125,0.929,0.332,1.311c0.248,0.458,0.461,0.937,0.677,1.411c0.424,0.945,0.868,1.884,1.31,2.821
		c0.817,1.752,1.692,3.479,2.639,5.17c1.716,3.069,3.622,6.05,5.825,8.799c1.1,1.372,2.251,2.73,3.479,3.99
		C226.282,60.209,226.671,60.623,225.665,60.813z"/>
	<g>
		<path fill="#FF9729" d="M165.765,160.101l9.166-0.355c3.366-0.135,5.053,1.236,5.053,4.113c0,1.744-0.688,4.352-2.058,7.82
			c-3.688,9.344-9.92,16.979-18.688,22.901c-4.146,2.793-6.998,4.189-8.559,4.189c-0.828,0-1.479-0.355-1.955-1.066
			c-0.305-0.475-0.457-0.932-0.457-1.371c0-0.694,0.381-1.338,1.146-1.93c0.22-0.17,0.89-0.576,2.006-1.219
			c3.792-2.188,7.448-5.105,10.972-8.765c4.398-4.604,7.549-9.653,9.442-15.153c0.606-1.765,0.914-2.828,0.914-3.199
			c0-0.406-0.254-0.596-0.765-0.563h-0.127l-8.731,0.482c-3.165,4.283-6.881,7.906-11.146,10.867
			c-0.914,0.627-1.734,0.938-2.463,0.938c-0.646,0-1.16-0.235-1.55-0.711c-0.354-0.457-0.532-0.932-0.532-1.422
			c0-0.678,0.277-1.313,0.838-1.904c0.188-0.203,0.678-0.649,1.474-1.346c2.521-2.219,4.96-5.164,7.313-8.836
			c0.881-1.371,1.601-2.65,2.156-3.834c0.68-1.439,1.729-2.158,3.146-2.158c0.574,0,1.107,0.109,1.602,0.33
			C164.926,158.359,165.524,159.086,165.765,160.101z"/>
		<path fill="#FF9729" d="M204.489,175.97c-4.315,2.944-8.6,5.35-12.85,7.211c-1.455,0.645-2.515,0.965-3.175,0.965
			c-0.743,0-1.319-0.279-1.728-0.838c-0.354-0.476-0.532-0.976-0.532-1.498c0-0.797,0.354-1.455,1.065-1.98
			c0.254-0.186,1.192-0.711,2.817-1.574c4.856-2.604,9.547-5.789,14.065-9.547c4.181-3.485,7.431-6.922,9.75-10.309
			c0.744-1.117,1.676-1.676,2.793-1.676c0.625,0,1.253,0.192,1.879,0.584c1.101,0.678,1.648,1.592,1.648,2.741
			c0,0.796-0.438,1.752-1.318,2.869c-2.438,3.08-5.563,6.188-9.369,9.318c0.931,0.541,1.396,1.371,1.396,2.488v21.323
			c0,1.054-0.339,1.849-1.017,2.392c-0.574,0.473-1.32,0.711-2.233,0.711c-1.474,0-2.445-0.563-2.921-1.676
			c-0.187-0.406-0.276-0.884-0.276-1.427v-20.082h0.002v0.004H204.489z"/>
		<path fill="#FF9729" d="M247.306,184.019c-4.772,4.842-9.718,8.76-14.828,11.756c-2.115,1.233-3.557,1.854-4.315,1.854
			c-0.896,0-1.591-0.405-2.082-1.219c-0.271-0.438-0.406-0.854-0.406-1.244c0-0.744,0.349-1.422,1.041-2.031
			c0.17-0.147,0.771-0.559,1.804-1.219c4.099-2.604,8.371-6.094,12.821-10.461c4.504-4.418,7.813-8.774,9.929-13.076
			c0.354-0.727,0.532-1.219,0.532-1.473c0-0.305-0.169-0.457-0.508-0.457c-0.235,0-0.618,0.043-1.144,0.127
			c-0.306,0.051-2.369,0.238-6.194,0.559c-5.027,0.373-7.933,0.584-8.709,0.64c-0.339,0.031-0.595,0.051-0.763,0.051
			c-1.371,0-2.313-0.508-2.817-1.523c-0.22-0.438-0.33-0.938-0.33-1.497c0-1.39,0.669-2.312,2.006-2.769
			c0.406-0.137,1.306-0.238,2.691-0.305c4.757-0.203,10.815-0.703,18.18-1.498c0.306-0.035,0.584-0.055,0.838-0.055
			c1.474,0,2.657,0.436,3.556,1.295c0.813,0.766,1.221,1.743,1.221,2.944c0,0.898-0.448,2.271-1.348,4.113
			c-1.742,3.656-4.309,7.559-7.691,11.705c5.586,3.486,9.938,6.754,13.051,9.801c1.405,1.389,2.105,2.65,2.105,3.783
			c0,0.881-0.328,1.66-0.988,2.336c-0.678,0.711-1.475,1.066-2.389,1.066c-0.896,0-1.69-0.33-2.387-0.99
			c-0.065-0.084-0.363-0.406-0.89-0.965C255.817,191.545,251.823,187.795,247.306,184.019z M260.89,156.293
			c0.946,0,2.473,0.949,4.568,2.845c1.775,1.608,2.666,2.879,2.666,3.811c0,0.676-0.288,1.252-0.861,1.727
			c-0.457,0.371-0.976,0.562-1.551,0.562c-0.762,0-1.354-0.338-1.775-1.019c-1.168-1.879-2.438-3.526-3.811-4.948
			c-0.475-0.49-0.711-0.998-0.711-1.523C259.415,156.775,259.906,156.293,260.89,156.293z M265.407,152.205
			c1.017,0,2.479,0.805,4.394,2.412c1.776,1.49,2.666,2.76,2.666,3.809c0,0.729-0.278,1.306-0.839,1.729
			c-0.404,0.305-0.861,0.457-1.37,0.457c-0.729,0-1.37-0.424-1.931-1.271c-0.932-1.387-2.143-2.801-3.633-4.235
			c-0.54-0.525-0.813-1.033-0.813-1.523c0-0.34,0.137-0.651,0.406-0.938S264.935,152.205,265.407,152.205z"/>
	</g>
</g>
</svg>
