<?xml version="1.0" encoding="utf-8"?>
<!-- Generator: Adobe Illustrator 15.0.0, SVG Export Plug-In . SVG Version: 6.00 Build 0)  -->
<!DOCTYPE svg PUBLIC "-//W3C//DTD SVG 1.1//EN" "http://www.w3.org/Graphics/SVG/1.1/DTD/svg11.dtd">
<svg version="1.1" id="Capa_1" xmlns="http://www.w3.org/2000/svg" xmlns:xlink="http://www.w3.org/1999/xlink" x="0px" y="0px"
	 width="350px" height="371.848px" viewBox="0 0 350 371.848" enable-background="new 0 0 350 371.848" xml:space="preserve">
<g>
	<path fill="#AD1111" d="M341.786,179.849h-34.65v-63.191h-41.679v63.191H102.199v-63.191H60.521v63.191H25.87
		c-4.537,0-8.215,3.678-8.215,8.216v15.815c0,4.537,3.678,8.215,8.215,8.215h34.65V363.31c0,4.715,4.507,8.539,10.066,8.539h21.545
		c5.56,0,10.066-3.824,10.066-8.539V212.095h163.258V363.31c0,4.715,4.507,8.539,10.066,8.539h21.544
		c5.562,0,10.067-3.824,10.067-8.539V212.095h34.65c4.536,0,8.215-3.678,8.215-8.215v-15.815
		C350,183.528,346.323,179.849,341.786,179.849z"/>
	<g>
		<rect x="102.197" y="179.853" fill="#860000" width="27.31" height="32.247"/>
		<rect x="33.215" y="179.853" fill="#860000" width="27.308" height="32.247"/>
		<rect x="307.139" y="179.853" fill="#860000" width="27.309" height="32.247"/>
		<rect x="238.146" y="179.853" fill="#860000" width="27.31" height="32.247"/>
	</g>
	<g>
		<g>
			<path fill="#E94E4E" d="M283.591,210.945c19.981-8.963,34.666-25.326,41.351-46.073c6.634-20.617,4.289-43.117-6.467-61.652
				c-3.641-6.271-11.676-8.412-17.95-4.767l-66.546,54.417c-0.559,3.313,0.151,6.84,2.256,9.792l31.291,43.919
				C271.154,211.683,277.882,213.505,283.591,210.945z"/>
			<path fill="#E94E4E" d="M254.216,38.024c2.187-6.983-1.658-14.287-8.567-16.478c-43.023-13.588-81.653,2.99-93.944,40.309
				c-1.672,5.059-0.11,10.82,4.214,14.315l39.003,31.551L254.216,38.024z"/>
			<path fill="#E94E4E" d="M122.923,92.993c0.316-1.888,0.217-3.828-0.296-5.675C109.023,38.162,58.34,9.132,9.637,22.607
				C2.641,24.535-1.456,31.77,0.481,38.763c6.411,23.172,21.346,42.689,42.1,55.769c-19.433,14.204-32.324,35.07-36.303,58.762
				c-1.201,7.147,3.621,13.924,10.774,15.125C67.03,176.812,114.527,142.979,122.923,92.993z"/>
		</g>
		<path fill="#D92425" d="M102.829,79.798c5.399-3.498,12.532-2.567,16.856,2.188c4.68,5.14,19.603,10.354,29.774,12.996
			c37.966,9.792,52.39-10.431,67.514-42.356c12.449-26.274,27.944-58.978,72.119-51.558c18.382,3.086,32.484,12.123,40.79,26.128
			c32.333,54.54-36.991,160.917-136.935,144.131c-41.984-7.051-77.5-35.181-95.01-75.249
			C95.348,90.144,97.483,83.265,102.829,79.798z"/>
	</g>
</g>
</svg>
