<?xml version="1.0" encoding="utf-8"?>
<!-- Generator: Adobe Illustrator 15.0.0, SVG Export Plug-In . SVG Version: 6.00 Build 0)  -->
<!DOCTYPE svg PUBLIC "-//W3C//DTD SVG 1.1//EN" "http://www.w3.org/Graphics/SVG/1.1/DTD/svg11.dtd">
<svg version="1.1" id="Capa_1" xmlns="http://www.w3.org/2000/svg" xmlns:xlink="http://www.w3.org/1999/xlink" x="0px" y="0px"
	 width="284.324px" height="290px" viewBox="49.022 50 284.324 290" enable-background="new 49.022 50 284.324 290"
	 xml:space="preserve">
<g>
	<g>
		<path fill="#2B2B2B" d="M310.986,197.23h-25.764v-46.987h-30.993v46.987H132.832v-70.027h-30.99v70.027H76.074
			c-3.374,0-6.108,2.736-6.108,6.108v11.76c0,3.374,2.734,6.11,6.108,6.11h25.766V333.65c0,3.508,3.351,6.35,7.484,6.35h16.021
			c4.135,0,7.485-2.842,7.485-6.35V221.21h121.396v112.44c0,3.508,3.352,6.35,7.485,6.35h16.019c4.137,0,7.485-2.842,7.485-6.35
			V221.21h25.765c3.373,0,6.109-2.736,6.109-6.109v-11.76C317.095,199.969,314.36,197.23,310.986,197.23z"/>
		<rect x="81.537" y="197.234" opacity="0.4" enable-background="new    " width="20.307" height="23.979"/>
		<rect x="233.921" y="197.234" opacity="0.4" enable-background="new    " width="20.309" height="23.979"/>
		<path opacity="0.4" enable-background="new    " d="M153.139,197.234H132.83v-0.002h0.001v-70.028h-13.799v58.434h-0.001V333.65
			c0,3.502-3.342,6.341-7.468,6.35h13.782c4.135,0,7.485-2.842,7.485-6.35V221.213h20.308L153.139,197.234L153.139,197.234z"/>
		<path opacity="0.4" enable-background="new    " d="M305.53,197.234h-20.294l-14.012-0.002h0.213V333.65
			c0,3.502-3.342,6.341-7.47,6.35h13.782c4.137,0,7.484-2.842,7.484-6.35V221.213h20.295L305.53,197.234L305.53,197.234z"/>
	</g>
	<g>
		<g>
			<path fill="#FFAA51" d="M298.205,141.001L298.205,141.001c14.558,14.371,14.712,37.823,0.34,52.382l-9.09,9.208
				c-7.184,7.282-18.913,7.358-26.191,0.171l0,0c-7.281-7.187-7.357-18.913-0.17-26.191L298.205,141.001z"/>
			<path fill="#FFAA51" d="M242.878,100.623L242.878,100.623c-10.169-17.752-32.8-23.901-50.551-13.734l-11.229,6.43
				c-8.876,5.083-11.95,16.4-6.865,25.276l0,0c5.083,8.876,16.399,11.949,25.276,6.866L242.878,100.623z"/>
			<path fill="#FFAA51" d="M50.119,133.109L50.119,133.109c-1.797,2.366-1.336,5.742,1.031,7.54l16.997,12.904
				c17.807,13.522,43.203,10.047,56.725-7.761l6.508-8.571c13.521-17.808,10.047-43.205-7.76-56.726l-16.997-12.904
				c-2.369-1.797-5.744-1.335-7.541,1.032l0,0c-13.52,17.808-10.045,43.204,7.762,56.726
				C89.037,111.827,63.639,115.301,50.119,133.109z"/>
		</g>
		<g>
			<path opacity="0.3" fill="#DE7404" enable-background="new    " d="M112.405,148.394l5.489,4.56
				c2.556-2.045,4.908-4.432,6.977-7.158l6.508-8.572c2.309-3.041,4.111-6.307,5.443-9.692c-2.452-1.017-4.857-2.215-7.201-3.598
				c-6.556-3.869-14.973-2.215-19.576,3.848l0,0C105.189,134.174,106.23,143.261,112.405,148.394z"/>
			<path opacity="0.3" fill="#DE7404" enable-background="new    " d="M199.507,125.462l43.372-24.838l0,0
				c-4.804-8.387-12.393-14.181-20.93-16.89l-18.772,24.722c-5.99,7.889-13.944,13.503-22.702,16.635
				C186.076,128.59,193.374,128.975,199.507,125.462z"/>
			<path opacity="0.3" fill="#DE7404" enable-background="new    " d="M258.141,193.331c18.479-5.859,35.896-15.49,50.976-28.719
				c-0.639-8.622-4.272-17.06-10.908-23.611l-35.111,35.571C258.578,181.145,256.935,187.475,258.141,193.331z"/>
		</g>
		<path fill="#FF9729" d="M238.408,74.891l-29.049,38.26c-17.552,23.113-49.628,29.417-74.621,14.667l0,0
			c-6.556-3.871-14.971-2.215-19.575,3.848l0,0c-4.857,6.396-3.816,15.48,2.36,20.613l10.583,8.794
			c59.337,49.31,147.819,39.183,194.48-22.268l0,0c17.647-23.244,13.112-56.396-10.131-74.044
			C289.211,47.11,256.06,51.646,238.408,74.891z"/>
		<path fill="#DE7404" d="M276.479,113.021c12.957,9.838,14.958,32.983,36.397,37.211c3.403-3.588,6.648-7.393,9.711-11.425l0,0
			c17.648-23.244,13.112-56.396-10.131-74.045c-23.244-17.65-56.396-13.117-74.048,10.13l-8.449,11.129
			C239.227,107.755,263.105,102.87,276.479,113.021z"/>
		<path opacity="0.1" enable-background="new    " d="M117.356,152.134c0.057,0.047,0.11,0.097,0.167,0.146l10.583,8.793
			c59.339,49.31,147.819,39.183,194.48-22.267l0,0c17.648-23.244,13.113-56.396-10.131-74.044c-2.99-2.272-6.149-4.169-9.416-5.714
			c14.274,18.438,15.053,44.829,0.28,64.286l0,0C258.849,181.905,176.371,193.852,117.356,152.134z"/>
	</g>
</g>
</svg>
