<?xml version="1.0" encoding="utf-8"?>
<!-- Generator: Adobe Illustrator 15.0.0, SVG Export Plug-In . SVG Version: 6.00 Build 0)  -->
<!DOCTYPE svg PUBLIC "-//W3C//DTD SVG 1.1//EN" "http://www.w3.org/Graphics/SVG/1.1/DTD/svg11.dtd">
<svg version="1.1" id="Layer_1" xmlns="http://www.w3.org/2000/svg" xmlns:xlink="http://www.w3.org/1999/xlink" x="0px" y="0px"
	 width="1032px" height="512px" viewBox="0 0 1032 512" enable-background="new 0 0 1032 512" xml:space="preserve">
<g>
	<path fill-rule="evenodd" clip-rule="evenodd" fill="#2A2B2A" d="M289.1,263.9c-7.9-0.9-9.4-10.4-18.8-8.2
		c-9.4,2.2-10.6,2.5-17-1.1c-6.4-3.6-14.8-8.1-23.7-6.5c-8.9,1.6-12.1,4.6-22.2,5c-10,0.4-15.1,3.1-15.1,3.1s10.7-2,18.4-0.8
		c7.7,1.2,12.3-2.3,18.8-3.6c6.5-1.3,9-1.7,13.9,2.1c4.9,3.8,9.9,7.1,15.5,8.1c5.7,1,7.6-2.3,11.4-2.7c3.8-0.4,7.8,5.2,10.9,6.5
		C284.4,267,288.6,264.5,289.1,263.9z"/>
	<path fill-rule="evenodd" clip-rule="evenodd" fill="#D92425" d="M256.9,249.4c4.1,2.5,6.9,1.6,10.6,0.6c3.7-1,7.9,0,12.1,2.8
		c4.3,2.8,7.5,0.1,11.3,2.8c3.8,2.6,9.1,1.2,5.1-3.3c-4.1-4.5-7.5-5.2-8.6-8.8c-1-3.6-3.9-5.7-6.8-3.2c-2.9,2.5-6.1,4.6-8.2,1.4
		c-2.1-3.3-5.6-6-7.6-2.8c-2,3.2-4,8.4-10.1,4.1c-6.1-4.3-13.2-3.8-15.1-1.1c-2,2.6-0.8,2.6,3.9,2.5
		C248.4,244.4,250.8,243.9,256.9,249.4z"/>
	<path fill-rule="evenodd" clip-rule="evenodd" fill="#2B2B2B" d="M337.6,239.9c0-3.5,2.1-15.2-2.7-26.2
		c-4.8-11-12.2-19.3-14.6-11.3c-2.4,7.9-5.9,9.8-6.4,15.7c-0.5,5.9,7,11.2,7.6,15.6c3-2.8,0.2-7.1-1.3-10.7c-1.5-3.6-0.2-7,2.6-9.1
		c2.9-2.1,0.1-12.7,4.8-5.9C332.5,214.9,337.2,222.1,337.6,239.9z"/>
	<path fill-rule="evenodd" clip-rule="evenodd" fill="#D92425" d="M355.5,305.1c3.9,2.5,7-0.4,11.7-1.6c4.7-1.2,9.5,0.7,9-5.3
		c-0.5-6-3.9-9.4-9.4-8.1c-5.5,1.3-7.1-2.3-7.1-5.6c0-3.3-6.7-13.3-9-8.2c-2.4,5.1,1.7,9.8-2.9,10.1c-4.6,0.3-5.3-4.7-10-2.4
		c-4.7,2.3,0.7,5.7-2,6.5c-2.7,0.8-10-7-13.9-3.5c-3.8,3.5,0.4,9.6,9.7,10.1c9.3,0.5,13.6-3.2,13.9,1.1
		C345.7,302.7,344.9,304.7,355.5,305.1z"/>
	<path fill-rule="evenodd" clip-rule="evenodd" fill="#2B2B2B" d="M375.4,309.8c-5,1.3-10.3,2-15.6,2.1c-0.9-1.2-4.1-3.2-6.9-3.4
		c-3.4-0.2-6.4,1.1-5.8,2.5c-3.7-0.6-7.3-1.5-10.8-2.6c-3.8-1.3-7-2.2-10-3.1c1.5-3.4-1.5-7-7.3-8.3c-6.6-1.5-14-8.5-10.9-10.5
		c3.2-1.9,8.6-4.3,7.1-10.6c-1.5-6.3-6.9-9.6-12.5-7.7c-5.6,1.8-4.7,8.3-10.7,7.4c-6-0.9-5.4-2.5-9.3-5.4c-4-2.9-11.8-9.9-13-5.3
		c-1.1,4.6,4.8,9.4,0.1,8.3c-4.7-1.1-6.9-8.3-12-7.4c-3.6,0.6-2.4,5.2-0.1,8.6c-33.8-15.2-53-11.6-63.3-10.7
		c-11.6,1.1-21,1.6-34.6,0.8c23.2-4.9,81.8-39.8,135.4-31.2c-0.9,0.4-1.9,1-2.8,1.7c-5.2,3.6,3.6,6.5,11.4,16.8
		c7.8,10.3,6.2-3.2,13.7,2.3c7.5,5.5,2,6.3,3.5,15.6c1.5,9.3,6.3,2.4,13.7,7.1c7.4,4.7,8.8,1.3,9.9-5.8c1-7.1,3.2-4.7,11.3,0.9
		c7.5,5.2,7.5,2.7,8.8-1.4c11.6,10,19,18,19,18c-7-15.1-26.3-37.6-62.2-52.5c-35.9-14.9-78.6-10.1-107.1,1.7
		c-28.5,11.8-55.9,28.2-75,23.7c-19-4.4-28.5-1.8-31.9-1.1c-3.4,0.7,0.4,0.9,18,6.1c17.6,5.2,38.2,4.1,70.6,0.8
		c41.6-4.1,68.3,17.4,99.7,29.5c10.4,4,25.9,11.3,41.1,15.2c11.4,2.9,22.6,2.1,34,0c6.8-1.2,11.3-4.9,13.8-11.4
		c0.5-1.3,0.7-4.2,1-4.8C383.8,300.6,381.1,308.4,375.4,309.8z"/>
	<path fill-rule="evenodd" clip-rule="evenodd" fill="#2B2B2B" d="M313.8,307.9c-2.6,2.6-9.7,13.1-21.5,17.9
		c-11.8,4.7-23.6,5.5-19.5-2.3c4.1-7.8,2.8-11.8,6.9-16.6c4.1-4.9,13.6-3.3,17.4-6.1c0.2,4.4-5.1,5.5-8.9,7.1
		c-3.8,1.6-5.4,5.1-4.8,8.8c0.6,3.7-9.4,9.7-0.7,8C291.4,323,300.3,321.1,313.8,307.9z"/>
</g>
<g>
	<path fill-rule="evenodd" clip-rule="evenodd" fill="#2A2B2A" d="M749.5,229.3c-20.3-0.2-27.2,23.4-50.4,14.7
		c-23.2-8.7-26.1-9.9-43.5-2.7c-17.4,7.2-40.3,15.8-62.5,8.7c-22.1-7-29.3-15.6-54.7-20c-25.4-4.4-37.3-12.9-37.3-12.9
		s26.7,8.7,46.6,8.1c19.9-0.6,30.5,9.9,46.6,15.3c16.1,5.4,22.3,7.3,36-0.7c13.7-8.1,27.4-14.8,42.1-15.5c14.7-0.6,18.5,8.2,28,10.5
		c9.6,2.2,21.5-10.7,29.8-12.9C738.5,219.9,748.3,227.6,749.5,229.3z"/>
	<path fill-rule="evenodd" clip-rule="evenodd" fill="#D92425" d="M662.8,255.8c11.3-5,18.1-1.7,27.2,2c9.1,3.7,20,2.5,31.7-3.2
		c11.7-5.7,19,2.2,29.6-3.3c10.6-5.5,23.6,0,11.8,10.1c-11.8,10.1-20.9,10.8-24.7,19.5c-3.8,8.7-11.7,13.1-18.3,5.8
		c-6.6-7.3-13.9-13.8-20.4-6.2c-6.5,7.6-16.1,13.4-20.2,4.7c-4.1-8.7-7.3-22.8-24.2-13.8c-16.9,9-34.7,5.3-38.8-2.1
		c-4.1-7.4-1.3-6.8,10.8-5.1C639.4,265.7,645.4,267.6,662.8,255.8z"/>
	<path fill-rule="evenodd" clip-rule="evenodd" fill="#2B2B2B" d="M864.8,306.3c-1.1,8.8,0.5,39.4-15.4,65.8
		c-15.8,26.4-37.4,45-40.9,24c-3.5-21-11.8-26.8-11.1-42.1c0.7-15.3,21.3-26.2,24.5-37.2c6.8,8.1-1.8,18.1-6.7,26.7
		c-4.9,8.6-2.9,17.6,3.7,23.9c6.6,6.3-3.9,32.3,10.4,16.5C843.7,368.1,858.1,351.4,864.8,306.3z"/>
	<path fill-rule="evenodd" clip-rule="evenodd" fill="#D92425" d="M931.6,146.3c10.8-5.1,17.6,3.4,29.2,7.9
		c11.6,4.5,24.4,1.4,21.1,16.4c-3.2,15-13,22.7-26.7,17.5c-13.6-5.1-18.8,3.4-19.8,11.9c-1.1,8.5-21.3,31.6-25.6,17.8
		c-4.4-13.8,7.5-24.4-4.1-26.7c-11.6-2.3-15,10.1-26.2,2.7c-11.2-7.4,3.6-14.3-3-17.2c-6.6-2.9-27.8,14.6-36.4,4.5
		c-8.6-10.2,4.2-24.3,27.9-22.6c23.7,1.7,33.5,12.5,35.7,1.6C905.9,149.2,904.6,143.8,931.6,146.3z"/>
	<path fill-rule="evenodd" clip-rule="evenodd" fill="#2B2B2B" d="M921.5,230.6c-22.5,11.7-28.7,16.9-28.9-1.4
		c-0.3-18.3-2.9-27.4-23.2-17.8c-20.3,9.6-30.2-9.6-37.1,13.6c-6.9,23.2,6.8,27-14.1,38.6c-20.8,11.6-12.3-22.1-35.6,1.4
		c-23.3,23.5-46.4,27.9-34.5,38.9c2.3,2.1,4.5,3.8,6.7,5.2c-139,4.4-276.6-103.7-334.1-123.6c35,2.3,58.7,6.8,87.8,13.3
		c25.8,5.8,73.4,21.1,164.3-6.5c-6.9,7.7-11.4,19-2.5,21.8c12.7,3.9,20.6-13.7,33-14.9c12.3-1.2-4.3,9-2.9,21.1
		c1.4,12.1,23.7-3.1,34.7-9.2c11-6.2,9.9-10.4,25.5-10.7c15.5-0.3,11.2,15.7,24.8,22.2c13.6,6.5,28.5-0.1,34.3-15.6
		c5.8-15.6-7.2-23.3-14.6-29.2c-7.5-6,13.8-21.3,31-23c15.1-1.5,24-9.6,21.2-18.7c8-1.2,16.5-2.6,26.5-4.6
		c9.2-1.8,18.8-2.9,28.4-3.2c-2,3.5,5.3,7.8,13.9,8.4c7,0.5,15.9-3.6,18.6-6.4c13.5,2,26.6,5.5,38.9,10.5
		c14,5.6,18.4,26.2,21.8,39.2c-0.4-1.7-0.1-9.2-1-12.6c-4.5-17.3-14.7-28.1-31.5-33.5c-28.4-9.1-56.7-14.9-86.5-11.2
		c-40,5-81.9,18.4-109.5,25.2c-83.7,20.5-158.7,66.5-263.1,42.4c-81.3-18.8-133.5-28.4-179.9-20.9c-46.4,7.5-56.2,6.9-47.6,9.7
		c8.5,2.8,31.8,12.6,81.6,7.6c49.8-5,114.1,45.5,182.8,84.8c68.7,39.3,175.7,65.4,271.8,39.3c96.1-26.1,152.5-77.2,175.2-113.3
		c0,0-21.3,18-54.2,39.5C941.6,226.3,942.2,219.9,921.5,230.6z"/>
	<path fill-rule="evenodd" clip-rule="evenodd" fill="#2B2B2B" d="M826.5,125.5C820.8,118,806,89,777.5,73.1
		c-28.5-15.9-58.2-21.6-50.3-0.5c7.9,21.2,3.3,30.9,12.1,44.6c8.7,13.7,33.5,12.8,42.2,21.3c1.9-11.1-11.2-15.7-20.3-21
		c-9-5.3-12-14.7-9.2-23.9c2.8-9.2-20.7-27.7,0.8-20.7C774.4,79.8,796.4,87.6,826.5,125.5z"/>
</g>
<g>
	<path fill="#2B2B2B" d="M57.3,105.2l2.6,13.1l3.2-12.6l18.4-62.3h6.4l18.1,62.3l3.1,12.7l2.8-13.2l15.3-61.8h7.3l-21.7,84.6h-6.9
		L86.9,61.9l-2.1-8.4l-2.1,8.4L63,128.1h-6.9L34.5,43.5h7.3L57.3,105.2z"/>
	<path fill="#2B2B2B" d="M184.5,128.1c-0.7-2-1.1-4.9-1.3-8.8c-2.4,3.2-5.5,5.6-9.3,7.4c-3.8,1.7-7.8,2.6-12,2.6
		c-6,0-10.9-1.7-14.7-5.1s-5.6-7.6-5.6-12.8c0-6.1,2.5-11,7.6-14.5c5.1-3.6,12.2-5.3,21.3-5.3h12.6v-7.1c0-4.5-1.4-8-4.2-10.6
		c-2.8-2.6-6.8-3.9-12.1-3.9c-4.8,0-8.9,1.2-12,3.7c-3.2,2.5-4.8,5.5-4.8,8.9l-7-0.1c0-5,2.3-9.3,7-13c4.6-3.7,10.4-5.5,17.1-5.5
		c7,0,12.5,1.8,16.6,5.3s6.1,8.4,6.2,14.7v29.8c0,6.1,0.6,10.6,1.9,13.7v0.7H184.5z M162.7,123.1c4.6,0,8.8-1.1,12.5-3.4
		c3.7-2.2,6.3-5.2,8-9V96.9h-12.4c-6.9,0.1-12.4,1.3-16.3,3.8c-3.9,2.5-5.9,5.8-5.9,10.1c0,3.5,1.3,6.4,3.9,8.8
		C155.1,121.9,158.5,123.1,162.7,123.1z"/>
	<path fill="#2B2B2B" d="M216.4,128.1h-7V38.8h7V128.1z"/>
	<path fill="#2B2B2B" d="M250.2,96.4l-8,7.7v24h-7V38.8h7v57.1l6.6-7.1l24.1-23.6h8.8l-26.7,26.5l29,36.4h-8.3L250.2,96.4z"/>
	<path fill="#2B2B2B" d="M304.3,49.1v16.1h13v5.7h-13v41.9c0,3.5,0.6,6.1,1.9,7.8c1.3,1.7,3.4,2.6,6.3,2.6c1.2,0,3-0.2,5.6-0.6
		l0.3,5.6c-1.8,0.7-4.3,1-7.4,1c-4.8,0-8.2-1.4-10.4-4.2c-2.2-2.8-3.3-6.8-3.3-12.2v-42h-11.6v-5.7h11.6V49.1H304.3z"/>
	<path fill="#2B2B2B" d="M338.7,75.8c2.3-3.8,5.2-6.7,8.8-8.7c3.6-2.1,7.5-3.1,11.7-3.1c6.7,0,11.8,1.9,15,5.7c3.3,3.8,5,9.5,5,17.1
		v41.3h-6.9V86.8c0-5.6-1.2-9.8-3.6-12.6c-2.3-2.8-6.1-4.1-11.2-4.1c-4.3,0-8.1,1.3-11.4,4c-3.3,2.7-5.8,6.3-7.4,10.9v43.1h-6.9
		V38.8h6.9V75.8z"/>
	<path fill="#2B2B2B" d="M426.1,71.1c-1.5-0.3-3-0.4-4.7-0.4c-4.3,0-8,1.2-11,3.6c-3,2.4-5.1,5.9-6.4,10.5v43.2h-6.9V65.2h6.8
		l0.1,10c3.7-7.4,9.6-11.2,17.7-11.2c1.9,0,3.5,0.3,4.6,0.8L426.1,71.1z"/>
	<path fill="#2B2B2B" d="M432.1,95.7c0-6,1.2-11.5,3.5-16.3c2.3-4.8,5.7-8.6,9.9-11.3c4.3-2.7,9.1-4,14.6-4c8.4,0,15.1,2.9,20.3,8.8
		c5.2,5.9,7.8,13.6,7.8,23.3v1.5c0,6.1-1.2,11.6-3.5,16.4s-5.6,8.6-9.9,11.2c-4.3,2.6-9.1,4-14.6,4c-8.3,0-15.1-2.9-20.3-8.8
		c-5.2-5.9-7.8-13.6-7.8-23.3V95.7z M439.1,97.6c0,7.5,1.9,13.7,5.8,18.5c3.9,4.8,9,7.2,15.3,7.2c6.3,0,11.4-2.4,15.3-7.2
		c3.9-4.8,5.8-11.2,5.8-19.1v-1.3c0-4.8-0.9-9.2-2.7-13.2c-1.8-4-4.3-7.1-7.5-9.3c-3.2-2.2-6.9-3.3-11-3.3c-6.2,0-11.3,2.4-15.2,7.3
		c-3.9,4.9-5.9,11.2-5.9,19.1V97.6z"/>
	<path fill="#2B2B2B" d="M543,120.1c-4.2,6.1-10.9,9.1-20,9.1c-6.7,0-11.8-1.9-15.3-5.8c-3.5-3.9-5.3-9.7-5.3-17.3V65.2h6.9v40
		c0,12,4.8,18,14.5,18c10.1,0,16.4-4.2,19.1-12.5V65.2h7v62.9h-6.7L543,120.1z"/>
	<path fill="#2B2B2B" d="M565.2,96.1c0-9.8,2.2-17.6,6.5-23.4c4.4-5.8,10.3-8.6,17.8-8.6c8.6,0,15.1,3.4,19.5,10.2l0.3-9.1h6.5v61.6
		c0,8.1-2.3,14.5-6.8,19.2c-4.5,4.7-10.7,7.1-18.4,7.1c-4.4,0-8.6-1-12.5-2.9c-4-2-7.1-4.6-9.4-7.8l3.9-4.2c4.9,6,10.8,9.1,17.5,9.1
		c5.8,0,10.3-1.7,13.6-5.1c3.3-3.4,4.9-8.2,5.1-14.3v-7.9c-4.5,6.2-10.9,9.3-19.5,9.3c-7.3,0-13.1-2.9-17.5-8.7s-6.6-13.7-6.6-23.5
		V96.1z M572.2,97.3c0,8,1.6,14.3,4.8,19c3.2,4.6,7.7,6.9,13.6,6.9c8.6,0,14.6-3.8,18.2-11.5V82.5c-1.6-4-4-7.1-7-9.2
		c-3.1-2.1-6.7-3.2-11-3.2c-5.8,0-10.4,2.3-13.7,6.9C573.8,81.6,572.2,88.3,572.2,97.3z"/>
	<path fill="#2B2B2B" d="M640.9,75.8c2.3-3.8,5.2-6.7,8.8-8.7c3.6-2.1,7.5-3.1,11.7-3.1c6.7,0,11.8,1.9,15,5.7c3.3,3.8,5,9.5,5,17.1
		v41.3h-6.9V86.8c0-5.6-1.2-9.8-3.6-12.6c-2.3-2.8-6.1-4.1-11.2-4.1c-4.3,0-8.1,1.3-11.4,4c-3.3,2.7-5.8,6.3-7.4,10.9v43.1H634V38.8
		h6.9V75.8z"/>
</g>
<g>
	<path fill="#2B2B2B" d="M86.2,353.7c-8.5-10.3-14.7-19.4-18.5-27.5c-3.9-8.1-5.8-16-5.8-24c0-14.9,4.4-26.8,13.3-35.4
		c8.9-8.7,20.8-13,35.7-13c13.6,0,24.6,3.9,33,11.8c8.4,7.9,12.6,17.8,12.6,30c0,14.1-8.1,27.9-24.3,41.5l-23.4,18.2l58.6,68.3
		c8.9-14.4,13.3-30.6,13.3-48.8h16.3c0,24.2-6.3,44.7-18.8,61.4l29.2,34h-21.1l-18.5-21.4c-7.7,7.6-16.6,13.6-26.7,17.9
		s-20.8,6.4-32,6.4c-20.3,0-36.4-5.2-48.3-15.6c-11.9-10.4-17.9-24.3-17.9-41.7c0-10.3,3.1-20.1,9.2-29.4
		c6.1-9.2,16.8-19.6,32.2-31.1L86.2,353.7z M109,458.1c8.9,0,17.5-1.9,25.9-5.6c8.3-3.8,15.8-9.1,22.5-16l-59.6-69.1l-2.1-2.2
		l-6.7,5.1c-19.1,15.6-28.7,30.8-28.7,45.4c0,12.8,4.4,23.1,13.2,30.8S94.1,458.1,109,458.1z M79.4,301.7c0,11.9,6.6,26,19.8,42.2
		l19.2-14.6c6.2-4.5,11.4-9.4,15.4-14.8c4-5.4,6-11.7,6-18.9c0-7.6-2.6-14-7.9-19.1s-12.3-7.7-21.1-7.7c-9.6,0-17.2,3.1-22.9,9.2
		C82.3,284.1,79.4,292,79.4,301.7z"/>
	<path fill="#2B2B2B" d="M300.7,470V342h35.8c10.5,0,19.9,2.4,28.2,7.2c8.3,4.8,14.8,11.6,19.5,20.5c4.7,8.9,7,19,7,30.4v11.8
		c0,11.4-2.3,21.6-6.9,30.4c-4.6,8.8-11.1,15.7-19.6,20.5c-8.4,4.8-18.1,7.2-29,7.2H300.7z M311.5,351.2v109.7h24.3
		c13.5,0,24.3-4.5,32.4-13.4c8.1-8.9,12.2-21,12.2-36.3v-11.3c0-14.7-4-26.5-12-35.4c-8-8.9-18.6-13.3-31.7-13.4H311.5z"/>
	<path fill="#2B2B2B" d="M452.9,471.8c-8.1,0-15.4-2-21.9-6c-6.5-4-11.6-9.5-15.2-16.7c-3.6-7.1-5.4-15.1-5.4-24v-3.8
		c0-9.1,1.8-17.4,5.3-24.7c3.5-7.3,8.5-13.1,14.8-17.3c6.3-4.2,13.2-6.3,20.6-6.3c11.5,0,20.7,3.9,27.5,11.8
		c6.8,7.9,10.2,18.6,10.2,32.3v5.9h-67.9v2c0,10.8,3.1,19.8,9.3,26.9c6.2,7.2,14,10.8,23.3,10.8c5.6,0,10.6-1,14.9-3.1
		c4.3-2.1,8.2-5.3,11.7-9.8l6.6,5C478.8,466.2,467.6,471.8,452.9,471.8z M451,382.1c-7.9,0-14.6,2.9-20,8.7
		c-5.4,5.8-8.7,13.6-9.9,23.4h57V413c-0.3-9.1-2.9-16.6-7.8-22.3C465.4,385,459,382.1,451,382.1z"/>
	<path fill="#2B2B2B" d="M518.7,374.9l0.4,15.5c3.5-5.7,7.9-10,13.2-12.9c5.3-2.9,11.1-4.3,17.6-4.3c15,0,24.5,6.2,28.6,18.5
		c3.4-5.9,7.9-10.5,13.6-13.7c5.7-3.2,12-4.8,18.8-4.8c20.4,0,30.8,11.1,31.2,33.4V470h-10.5v-62.7c-0.1-8.5-1.9-14.8-5.5-18.9
		c-3.6-4.1-9.5-6.2-17.6-6.2c-7.6,0.1-13.9,2.6-19.2,7.3c-5.2,4.8-8.1,10.6-8.7,17.4V470h-10.5v-63.5c-0.1-8.1-2-14.2-5.8-18.2
		c-3.8-4-9.6-6-17.4-6c-6.6,0-12.3,1.9-17.1,5.7s-8.3,9.4-10.5,16.8V470h-10.5v-95.1H518.7z"/>
	<path fill="#2B2B2B" d="M662.8,421c0-9.1,1.8-17.4,5.3-24.7c3.5-7.3,8.6-13,15-17.1c6.5-4.1,13.8-6.1,22-6.1
		c12.7,0,22.9,4.4,30.8,13.3c7.9,8.9,11.8,20.6,11.8,35.3v2.2c0,9.2-1.8,17.5-5.3,24.8c-3.5,7.4-8.5,13-15,17c-6.4,4-13.8,6-22.1,6
		c-12.6,0-22.8-4.4-30.7-13.3c-7.9-8.9-11.8-20.6-11.8-35.3V421z M673.3,423.9c0,11.4,2.9,20.7,8.8,28s13.6,10.9,23.2,10.9
		c9.5,0,17.2-3.6,23.1-10.9s8.8-16.9,8.8-28.9v-2c0-7.3-1.3-13.9-4-20c-2.7-6-6.5-10.7-11.3-14c-4.9-3.3-10.4-5-16.7-5
		c-9.4,0-17,3.7-22.9,11c-5.9,7.4-8.9,17-8.9,28.9V423.9z"/>
</g>
</svg>
